<svg width="414" height="400" viewBox="0 0 414 400" fill="none" xmlns="http://www.w3.org/2000/svg">
<path d="M232.732 113.642L231.23 114.368C229.579 115.166 227.968 115.939 226.386 116.697C222.737 118.446 219.243 120.121 215.779 121.866C214.504 122.518 213.485 123.252 213.105 123.961L213.099 123.972L213.099 123.972C212.405 125.238 212.557 126.26 213.079 127.002C213.648 127.81 214.864 128.565 216.779 128.72C216.779 128.72 216.779 128.72 216.779 128.72L216.645 130.382C221.109 130.743 225.572 131.092 230.034 131.441C234.497 131.79 238.96 132.139 243.424 132.499L232.732 113.642ZM232.732 113.642L232.005 112.14C229.035 106.005 226.105 99.8995 223.189 93.8227C215.937 78.7108 208.771 63.7777 201.292 49.0195M232.732 113.642L201.292 49.0195M154.513 1.6809C189.821 1.68281 225.13 1.70024 260.438 1.73319L260.444 1.73317C268.662 1.70897 276.807 3.28972 284.434 6.38916C296.021 11.1088 302.627 20.5311 307.927 31.8564C307.927 31.8566 307.927 31.8568 307.927 31.8569L309.437 31.1502M154.513 1.6809L339.965 55.6432M154.513 1.6809C167.399 6.29384 178.603 13.6777 186.655 25.6506C187.394 26.75 188.141 27.8516 188.891 28.957C193.268 35.4117 197.734 41.9965 201.292 49.0195M154.513 1.6809L201.292 49.0195M309.437 31.1502C312.454 37.603 315.645 43.9841 318.873 50.4384C320.623 53.9371 322.383 57.4573 324.133 61.022C324.133 61.022 324.133 61.0219 324.133 61.0219C325.624 60.3413 327.097 59.6662 328.558 58.9965C332.178 57.3375 335.725 55.7118 339.288 54.1194M309.437 31.1502C304.072 19.6852 297.23 9.80002 285.061 4.84433C277.234 1.66336 268.874 0.0407894 260.439 0.065636L309.437 31.1502ZM339.288 54.1194L339.963 55.6443C339.964 55.6439 339.965 55.6436 339.965 55.6432M339.288 54.1194L339.968 55.6418C339.967 55.6423 339.966 55.6428 339.965 55.6432M339.288 54.1194L339.307 54.111C341.892 52.9668 344.433 51.8423 347.064 50.8418C349.701 49.8389 351.165 50.6583 351.599 53.5425C352.208 57.5215 350.951 61.0679 348.969 64.4438M339.965 55.6432C342.563 54.4935 345.068 53.3847 347.656 52.4004C348.815 51.9597 349.223 52.1198 349.314 52.1728C349.406 52.2269 349.758 52.5162 349.95 53.7907L349.951 53.7949C350.478 57.2417 349.416 60.3896 347.531 63.5993M348.969 64.4438L347.532 63.5971C347.531 63.5979 347.531 63.5986 347.531 63.5993M348.969 64.4438C341.953 76.3479 334.949 88.263 327.956 100.189M348.969 64.4438L347.531 63.5993M347.531 63.5993L327.956 100.189M327.956 100.189C326.199 103.18 324.439 106.169 322.678 109.159C317.594 117.795 312.507 126.433 307.506 135.115C306.398 137.036 305.206 137.567 303.107 137.39L327.956 100.189Z" fill="black" stroke="black" stroke-width="3.33509"/>
<path d="M29.033 167.395L29.784 166.002L28.4322 165.179C26.4111 163.949 24.4101 162.736 22.4222 161.53C19.2943 159.634 16.1989 157.757 13.1086 155.865L13.1069 155.864C12.6632 155.593 12.2107 155.337 11.7839 155.097L11.7357 155.07C11.3188 154.835 10.9267 154.614 10.5469 154.385C9.75513 153.908 9.10549 153.447 8.59994 152.92L8.59998 152.92L8.5914 152.912C8.17827 152.488 7.72855 151.869 7.4256 151.252C7.2759 150.948 7.18105 150.682 7.13472 150.471C7.09093 150.273 7.10439 150.188 7.10389 150.188C7.21874 149.731 7.53254 149.164 8.05275 148.562C8.56515 147.969 9.20401 147.428 9.82988 147.022L9.82988 147.022L9.83536 147.019C10.0678 146.866 10.4746 146.738 11.1624 146.669C11.6233 146.623 12.0544 146.613 12.5355 146.601C12.8006 146.595 13.0809 146.588 13.3897 146.575C41.8056 145.925 70.2247 145.275 98.6377 144.534C99.7547 144.506 100.329 144.682 100.711 144.923C101.113 145.176 101.529 145.641 102.059 146.643C108.968 159.756 115.928 172.859 122.887 185.96C128.772 197.037 134.655 208.114 140.507 219.193L140.509 219.198C141.697 221.43 142.564 223.819 143.087 226.294C143.095 226.338 143.107 226.478 143.071 226.718C143.036 226.952 142.964 227.217 142.862 227.479C142.759 227.742 142.639 227.964 142.526 228.123C142.469 228.204 142.426 228.251 142.402 228.275C141.965 228.455 141.495 228.545 141.022 228.54C140.521 228.534 140.028 228.421 139.574 228.209C135.72 226.013 131.98 223.681 128.136 221.282C126.424 220.215 124.691 219.134 122.919 218.046L121.77 217.341L120.84 218.317C120.265 218.92 119.73 219.558 119.237 220.229L119.203 220.274L119.173 220.322C113.97 228.506 108.779 236.695 103.589 244.883C93.3728 260.999 83.1591 277.111 72.8635 293.173L72.8632 293.173C64.3554 306.456 61.6376 320.684 63.5452 335.706C61.981 332.986 60.4175 330.265 58.8547 327.544C53.769 318.654 48.7029 309.747 43.6355 300.839C31.5332 279.562 19.424 258.274 7.02453 237.159L7.0241 237.158C3.40583 231.004 1.64263 225.132 1.66781 219.389C1.69297 213.65 3.50374 207.904 7.25409 201.994C14.101 191.226 20.9436 180.452 27.7818 169.675C28.0944 169.191 28.3831 168.636 28.6728 168.079C28.7921 167.85 28.9116 167.62 29.033 167.395Z" fill="black" stroke="black" stroke-width="3.33509"/>
<path d="M272.639 264.493V265.983L274.12 266.15C274.551 266.198 274.869 266.24 275.138 266.276C275.219 266.287 275.295 266.297 275.368 266.306C275.673 266.346 275.978 266.382 276.307 266.382L276.309 266.382C284.039 266.372 291.774 266.385 299.511 266.398C318.288 266.429 337.08 266.46 355.862 266.173C370.94 265.949 386.01 263.541 398.989 254.189L398.991 254.187C401.8 252.155 404.499 249.921 407.165 247.655C401.779 257.484 396.385 267.309 390.991 277.136C377.253 302.164 363.511 327.198 349.89 352.294C346.854 357.884 343.117 362.078 338.643 364.91C334.175 367.74 328.881 369.268 322.64 369.393H322.64C309.792 369.654 296.933 369.602 284.063 369.491L284.056 369.491H284.049C282.592 369.491 281.022 369.658 279.944 370.738C278.85 371.833 278.711 373.408 278.758 374.884L278.758 374.884C278.879 378.674 278.859 382.391 278.839 386.144C278.824 388.867 278.809 391.609 278.848 394.411C278.847 395.442 278.725 396.152 278.479 396.667C278.261 397.122 277.889 397.542 277.097 397.89C276.19 398.289 275.442 398.389 274.822 398.297C274.217 398.207 273.596 397.915 272.959 397.285L272.947 397.273L272.934 397.261C271.611 396.006 270.425 394.615 269.393 393.109C254.139 369.698 238.941 346.249 223.8 322.76C223.643 322.433 223.557 322.075 223.547 321.711C223.536 321.347 223.602 320.985 223.74 320.649C237.942 295.696 252.214 270.775 266.555 245.886L266.557 245.882C267.159 244.829 267.756 244.078 268.38 243.632C268.941 243.231 269.571 243.039 270.445 243.193L270.448 243.194C271.359 243.352 271.811 243.774 272.108 244.339C272.455 245 272.617 245.939 272.639 247.079C272.673 250.873 272.662 254.662 272.651 258.528C272.645 260.493 272.639 262.477 272.639 264.493Z" fill="black" stroke="black" stroke-width="3.33509"/>
<path d="M107.55 369.754L107.549 369.754C99.5762 369.849 93.9032 368.026 89.8421 364.413C85.7558 360.778 83.056 355.116 81.5006 347.024C77.5207 326.308 82.3645 307.7 94.3637 290.601C96.6481 287.37 98.8235 284.081 100.977 280.813C101.094 280.636 101.21 280.46 101.326 280.283C103.36 277.197 105.379 274.133 107.478 271.123C107.766 270.75 108.124 270.441 108.53 270.213C108.924 269.992 109.355 269.851 109.8 269.798C139.664 269.694 169.521 269.67 199.372 269.726C199.61 269.747 199.916 269.976 199.916 270.437V367.345C199.916 368.618 198.884 369.649 197.612 369.649C188.877 369.649 180.139 369.628 171.398 369.608C150.124 369.558 128.836 369.507 107.55 369.754Z" fill="black" stroke="black" stroke-width="3.33509"/>
<path d="M407.37 193.274L407.37 193.274C410.72 198.418 412.368 203.501 412.332 208.463C412.295 213.417 410.581 218.397 406.96 223.346C398.231 235.238 386.947 243.771 372.601 247.54C370.01 248.216 367.346 248.567 364.668 248.584L364.665 248.584C357.756 248.643 350.921 248.64 344.079 248.637C337.833 248.635 331.58 248.632 325.258 248.676C324.362 248.676 323.862 248.548 323.511 248.356C323.167 248.169 322.787 247.823 322.322 247.047C306.459 220.507 290.536 194.004 274.556 167.538L273.128 168.4L274.546 167.522C274.376 167.249 274.435 166.722 274.906 166.447L358.103 117.84C358.526 118.392 358.905 118.895 359.243 119.414C375.292 144.032 391.334 168.652 407.37 193.274Z" fill="black" stroke="black" stroke-width="3.33509"/>
<path d="M73.4726 84.495L73.4728 84.4948C77.15 78.5437 80.8515 72.6003 84.5549 66.6539C93.1296 52.8856 101.714 39.1013 110.031 25.1678L110.032 25.1676C114.968 16.8955 122.089 13.7394 131.284 12.7766L131.285 12.7766C146.241 11.2074 157.233 18.4616 166.915 29.3693C179.006 43.0053 187.195 59.1797 194.509 75.9771C194.511 75.995 194.517 76.0465 194.512 76.1415C194.502 76.3124 194.46 76.5462 194.375 76.8326C194.202 77.4096 193.904 78.0293 193.614 78.4906C183.715 94.1525 173.763 109.777 163.756 125.365L163.755 125.365C160.415 130.575 157.086 135.794 153.721 141.078C149.174 148.217 139.63 150.19 132.629 145.436L76.3308 107.204C69.7006 102.702 67.7615 93.7778 71.9532 86.9601C72.4592 86.1371 72.9654 85.3157 73.4726 84.495ZM194.521 76.0047C194.52 76.0041 194.52 76.0034 194.52 76.0028C194.52 76.0032 194.52 76.0037 194.52 76.0041L194.521 76.0047Z" fill="black" stroke="black" stroke-width="3.33509"/>
</svg>
