<svg width="1196" height="396" viewBox="0 0 1196 396" fill="none" xmlns="http://www.w3.org/2000/svg">
<rect x="1" y="1" width="392.297" height="393.173" rx="14" fill="#C5F700" fill-opacity="0.5" stroke="black" stroke-width="2"/>
<rect x="132.318" y="1" width="392.297" height="393.173" rx="14" fill="#C5F700" fill-opacity="0.75" stroke="black" stroke-width="2"/>
<rect x="153" y="19" width="161" height="85" rx="17.5243" fill="black"/>
<path d="M196.81 48.7848H204.352C204.801 48.7848 205.156 48.738 205.418 48.6446C205.698 48.5511 205.913 48.439 206.063 48.3081C206.212 48.1586 206.315 47.9903 206.371 47.8034C206.427 47.6165 206.455 47.4202 206.455 47.2146V47.1866C206.455 46.9996 206.427 46.8221 206.371 46.6538C206.315 46.4856 206.212 46.336 206.063 46.2052C205.913 46.0557 205.698 45.9435 205.418 45.8687C205.156 45.7753 204.801 45.7285 204.352 45.7285H196.81V48.7848ZM210.493 50.8036C211.147 50.8783 211.773 51.0092 212.371 51.1961C212.988 51.383 213.521 51.6634 213.97 52.0373C214.437 52.3924 214.811 52.8598 215.091 53.4392C215.372 54 215.512 54.6916 215.512 55.5141V59.3554C215.512 59.7667 215.54 60.0657 215.596 60.2527C215.652 60.4209 215.727 60.5704 215.82 60.7013V60.8415H207.016C206.979 60.7854 206.941 60.6639 206.904 60.477C206.866 60.2901 206.848 60.0097 206.848 59.6358V57.8694C206.848 57.1964 206.782 56.6544 206.652 56.2431C206.521 55.8132 206.306 55.4861 206.007 55.2618C205.708 55.0188 205.306 54.8599 204.801 54.7851C204.296 54.6916 203.67 54.6449 202.922 54.6449H196.81V60.8415H188.258V39.9806H206.652C208.521 39.9806 210.026 40.1488 211.166 40.4853C212.306 40.803 213.185 41.233 213.801 41.7751C214.418 42.2985 214.82 42.906 215.007 43.5976C215.213 44.2892 215.316 45.0089 215.316 45.7566V45.8968C215.316 46.6819 215.166 47.3641 214.867 47.9436C214.587 48.5044 214.213 48.981 213.745 49.3736C213.278 49.7661 212.755 50.0746 212.175 50.2989C211.614 50.5232 211.054 50.6914 210.493 50.8036ZM241.205 39.9806V45.308H227.971V47.5511H240.785V53.0186H227.971V55.458H241.402V60.8415H219.391V39.9806H241.205Z" fill="#F4F4F4"/>
<path d="M172.752 38.2773V83.8054H177.691V38.2773H172.752Z" fill="#F4F4F4"/>
<path d="M180.022 38.2773V83.8054H183.314V38.2773H180.022Z" fill="#F4F4F4"/>
<path d="M192.504 66.1535V83.9918H195.797V66.1535H192.504Z" fill="#F4F4F4"/>
<path d="M278.394 38.4341V83.9622H280.532V38.4341H278.394Z" fill="#F4F4F4"/>
<path d="M188.39 66.1535V83.9918H190.037V66.1535H188.39Z" fill="#F4F4F4"/>
<path d="M211.442 66.1535V83.9918H213.089V66.1535H211.442Z" fill="#F4F4F4"/>
<path d="M199.918 66.1535V83.9918H201.564V66.1535H199.918Z" fill="#F4F4F4"/>
<path d="M216.381 66.1535V83.9918H219.674V66.1535H216.381Z" fill="#F4F4F4"/>
<path d="M229.548 66.1535V83.9918H236.134V66.1535H229.548Z" fill="#F4F4F4"/>
<path d="M245.194 66.1535V83.9918H246.84V66.1535H245.194Z" fill="#F4F4F4"/>
<path d="M273.263 38.4341V83.9622H274.974V38.4341H273.263Z" fill="#F4F4F4"/>
<path d="M255.893 66.1535V83.9918H259.186V66.1535H255.893Z" fill="#F4F4F4"/>
<path d="M261.657 66.1535V83.9918H264.126V66.1535H261.657Z" fill="#F4F4F4"/>
<path d="M269.413 66.1227V83.9622H270.696V66.1227H269.413Z" fill="#F4F4F4"/>
<path d="M282.245 38.4341V83.9622H286.522V38.4341H282.245Z" fill="#F4F4F4"/>
<path d="M287.998 38.434V83.9918H292.937V38.434H287.998Z" fill="#F4F4F4"/>
<path d="M255.517 53.1391L255.916 48.758L252.281 51.297L250.29 47.8121L254.273 45.97L250.29 44.128L252.281 40.6431L255.916 43.1821L255.517 38.801H259.5L259.102 43.1821L262.736 40.6431L264.728 44.128L260.745 45.97L264.728 47.8121L262.736 51.297L259.102 48.758L259.5 53.1391H255.517Z" fill="#F4F4F4"/>
<rect x="21.6479" y="19.2776" width="84.1166" height="85" rx="17.5243" fill="black"/>
<path d="M57.292 85.4719L58.5283 71.7294L47.2467 79.6938L41.065 68.7622L53.4284 62.9841L41.065 57.2059L47.2467 46.2743L58.5283 54.2388L57.292 40.4962H69.6554L68.4191 54.2388L79.7007 46.2743L85.8824 57.2059L73.519 62.9841L85.8824 68.7622L79.7007 79.6938L68.4191 71.7294L69.6554 85.4719H57.292Z" fill="#F4F4F4"/>
<rect x="792.072" y="1" width="402.811" height="393.173" rx="14" fill="black" stroke="black" stroke-width="2"/>
<rect x="340.095" y="1" width="392.297" height="393.173" rx="14" fill="#C5F700" stroke="black" stroke-width="2"/>
<rect x="362" y="21" width="275" height="85" rx="17.5243" fill="black"/>
<path d="M381.368 40.2217V87.1638H385.715V40.2217H381.368Z" fill="#F4F4F4"/>
<path d="M387.385 40.2216V87.1637H389.392V40.2216H387.385Z" fill="#F4F4F4"/>
<path d="M393.072 40.2216V87.1637H394.989V40.2216H393.072Z" fill="#F4F4F4"/>
<path d="M402.763 40.2216V87.1637H406.596V40.2216H402.763Z" fill="#F4F4F4"/>
<path d="M412.168 40.223V87.1651H414.085V40.223H412.168Z" fill="#F4F4F4"/>
<path d="M419.834 63.3684V87.1651H421.751V63.3684H419.834Z" fill="#F4F4F4"/>
<path d="M423.671 63.3684V87.1651H425.587V63.3684H423.671Z" fill="#F4F4F4"/>
<path d="M433.734 63.3684V87.1651H435.651V63.3684H433.734Z" fill="#F4F4F4"/>
<path d="M437.563 63.3684V87.1651H439.48V63.3684H437.563Z" fill="#F4F4F4"/>
<path d="M445.233 63.3684V87.1651H449.066V63.3684H445.233Z" fill="#F4F4F4"/>
<path d="M452.899 63.3684V87.1651H454.816V63.3684H452.899Z" fill="#F4F4F4"/>
<path d="M460.561 63.3684V87.1651H462.478V63.3684H460.561Z" fill="#F4F4F4"/>
<path d="M466.312 63.3684V87.1651H470.146V63.3684H466.312Z" fill="#F4F4F4"/>
<path d="M472.063 63.3684V87.1651H477.814V63.3684H472.063Z" fill="#F4F4F4"/>
<path d="M483.57 63.3684V87.1651H485.487V63.3684H483.57Z" fill="#F4F4F4"/>
<path d="M489.313 63.3684V87.1651H491.23V63.3684H489.313Z" fill="#F4F4F4"/>
<path d="M496.979 63.3684V87.1651H498.896V63.3684H496.979Z" fill="#F4F4F4"/>
<path d="M501.296 63.3684V87.1651H507.046V63.3684H501.296Z" fill="#F4F4F4"/>
<path d="M508.965 63.3684V87.1651H510.882V63.3684H508.965Z" fill="#F4F4F4"/>
<path d="M512.798 63.3684V87.1651H514.715V63.3684H512.798Z" fill="#F4F4F4"/>
<path d="M520.46 63.3684V87.1651H524.293V63.3684H520.46Z" fill="#F4F4F4"/>
<path d="M530.048 63.3684V87.1651H533.882V63.3684H530.048Z" fill="#F4F4F4"/>
<path d="M535.792 63.3684V87.1651H541.542V63.3684H535.792Z" fill="#F4F4F4"/>
<path d="M543.461 63.3684V87.1651H545.378V63.3684H543.461Z" fill="#F4F4F4"/>
<path d="M551.127 63.3684V87.1651H554.961V63.3684H551.127Z" fill="#F4F4F4"/>
<path d="M560.38 63.3684V87.1651H562.297V63.3684H560.38Z" fill="#F4F4F4"/>
<path d="M564.209 63.3684V87.1651H566.126V63.3684H564.209Z" fill="#F4F4F4"/>
<path d="M572.359 63.3684V87.1651H574.275V63.3684H572.359Z" fill="#F4F4F4"/>
<path d="M576.191 63.3684V87.1651H581.941V63.3684H576.191Z" fill="#F4F4F4"/>
<path d="M589.369 40.1106V86.882H591.317V40.1106H589.369Z" fill="#F4F4F4"/>
<path d="M595.215 40.1106V86.882H597.164V40.1106H595.215Z" fill="#F4F4F4"/>
<path d="M605.637 40.1108V87.0529H608.649V40.1108H605.637Z" fill="#F4F4F4"/>
<path d="M610.691 40.223V87.1651H612.608V40.223H610.691Z" fill="#F4F4F4"/>
<path d="M614.528 40.223V87.1651H618.361V40.223H614.528Z" fill="#F4F4F4"/>
<path d="M425.954 46.647H431.6C431.936 46.647 432.202 46.612 432.398 46.542C432.608 46.4721 432.769 46.3881 432.881 46.2902C432.993 46.1782 433.07 46.0523 433.112 45.9124C433.154 45.7724 433.174 45.6255 433.174 45.4716V45.4506C433.174 45.3107 433.154 45.1778 433.112 45.0518C433.07 44.9259 432.993 44.814 432.881 44.716C432.769 44.6041 432.608 44.5201 432.398 44.4642C432.202 44.3942 431.936 44.3592 431.6 44.3592H425.954V46.647ZM436.197 48.1581C436.687 48.2141 437.155 48.312 437.603 48.452C438.065 48.5919 438.464 48.8018 438.799 49.0816C439.149 49.3475 439.429 49.6973 439.639 50.131C439.849 50.5508 439.954 51.0685 439.954 51.6842V54.5596C439.954 54.8674 439.975 55.0913 440.017 55.2312C440.059 55.3572 440.115 55.4691 440.185 55.5671V55.672H433.594C433.566 55.63 433.538 55.5391 433.51 55.3991C433.482 55.2592 433.468 55.0493 433.468 54.7695V53.4472C433.468 52.9435 433.419 52.5377 433.321 52.2299C433.223 51.9081 433.063 51.6632 432.839 51.4953C432.615 51.3134 432.314 51.1945 431.936 51.1385C431.558 51.0685 431.09 51.0335 430.53 51.0335H425.954V55.672H419.553V40.0566H433.321C434.721 40.0566 435.847 40.1825 436.701 40.4344C437.554 40.6722 438.212 40.9941 438.673 41.3998C439.135 41.7916 439.436 42.2464 439.576 42.7641C439.73 43.2818 439.807 43.8205 439.807 44.3802V44.4851C439.807 45.0728 439.695 45.5835 439.471 46.0173C439.261 46.4371 438.981 46.7939 438.631 47.0877C438.282 47.3816 437.89 47.6124 437.456 47.7803C437.036 47.9482 436.617 48.0742 436.197 48.1581ZM459.187 40.0566V44.0444H449.28V45.7235H458.872V49.8162H449.28V51.6422H459.333V55.672H442.858V40.0566H459.187ZM480.97 44.779H474.59V40.0566H493.731V44.779H487.351V55.672H480.97V44.779ZM502.776 46.647H508.421C508.757 46.647 509.023 46.612 509.219 46.542C509.429 46.4721 509.59 46.3881 509.702 46.2902C509.814 46.1782 509.891 46.0523 509.933 45.9124C509.975 45.7724 509.996 45.6255 509.996 45.4716V45.4506C509.996 45.3107 509.975 45.1778 509.933 45.0518C509.891 44.9259 509.814 44.814 509.702 44.716C509.59 44.6041 509.429 44.5201 509.219 44.4642C509.023 44.3942 508.757 44.3592 508.421 44.3592H502.776V46.647ZM513.018 48.1581C513.508 48.2141 513.976 48.312 514.424 48.452C514.886 48.5919 515.285 48.8018 515.62 49.0816C515.97 49.3475 516.25 49.6973 516.46 50.131C516.67 50.5508 516.775 51.0685 516.775 51.6842V54.5596C516.775 54.8674 516.796 55.0913 516.838 55.2312C516.88 55.3572 516.936 55.4691 517.006 55.5671V55.672H510.415C510.387 55.63 510.359 55.5391 510.331 55.3991C510.303 55.2592 510.289 55.0493 510.289 54.7695V53.4472C510.289 52.9435 510.24 52.5377 510.142 52.2299C510.045 51.9081 509.884 51.6632 509.66 51.4953C509.436 51.3134 509.135 51.1945 508.757 51.1385C508.379 51.0685 507.911 51.0335 507.351 51.0335H502.776V55.672H496.374V40.0566H510.142C511.542 40.0566 512.668 40.1825 513.522 40.4344C514.375 40.6722 515.033 40.9941 515.495 41.3998C515.956 41.7916 516.257 42.2464 516.397 42.7641C516.551 43.2818 516.628 43.8205 516.628 44.3802V44.4851C516.628 45.0728 516.516 45.5835 516.292 46.0173C516.082 46.4371 515.802 46.7939 515.453 47.0877C515.103 47.3816 514.711 47.6124 514.277 47.7803C513.857 47.9482 513.438 48.0742 513.018 48.1581ZM529.144 44.674L526.983 49.4174H531.285L529.144 44.674ZM533.069 53.3423H525.199L524.128 55.672H517.727L525.136 40.0566H533.426L540.919 55.672H534.14L533.069 53.3423ZM551.042 55.9239C549.573 55.9239 548.307 55.8399 547.243 55.672C546.194 55.5041 545.313 55.2802 544.599 55.0004C543.885 54.7205 543.312 54.3987 542.878 54.0349C542.444 53.6711 542.115 53.2863 541.891 52.8805C541.668 52.4748 541.521 52.069 541.451 51.6632C541.381 51.2434 541.346 50.8516 541.346 50.4878V50.4249H548.23C548.244 50.5648 548.279 50.7257 548.335 50.9076C548.391 51.0895 548.517 51.2644 548.713 51.4323C548.909 51.6002 549.195 51.7472 549.573 51.8731C549.965 51.985 550.497 52.041 551.168 52.041H551.294C551.938 52.041 552.456 52.006 552.847 51.9361C553.239 51.8661 553.54 51.7751 553.75 51.6632C553.96 51.5513 554.093 51.4253 554.149 51.2854C554.219 51.1455 554.254 51.0056 554.254 50.8656C554.254 50.7117 554.226 50.5648 554.17 50.4249C554.114 50.285 553.988 50.166 553.792 50.0681C553.596 49.9701 553.309 49.8932 552.931 49.8372C552.568 49.7672 552.071 49.7253 551.441 49.7113L549.195 49.6693C547.656 49.6413 546.397 49.4944 545.418 49.2285C544.438 48.9487 543.661 48.5849 543.088 48.1371C542.528 47.6894 542.136 47.1787 541.912 46.605C541.703 46.0313 541.598 45.4226 541.598 44.779V44.6111C541.598 43.8975 541.731 43.2468 541.996 42.6592C542.276 42.0715 542.759 41.5677 543.445 41.148C544.13 40.7282 545.047 40.4064 546.194 40.1825C547.341 39.9446 548.79 39.8257 550.539 39.8257H551.525C553.484 39.8257 555.065 39.9796 556.269 40.2875C557.472 40.5813 558.402 40.9731 559.06 41.4628C559.718 41.9385 560.151 42.4842 560.361 43.0999C560.585 43.7016 560.697 44.3032 560.697 44.9049V44.9469H553.96C553.932 44.807 553.876 44.6601 553.792 44.5061C553.722 44.3382 553.582 44.1843 553.372 44.0444C553.176 43.9045 552.889 43.7925 552.512 43.7086C552.148 43.6246 551.672 43.5826 551.084 43.5826H550.937C550.336 43.5826 549.853 43.6106 549.489 43.6666C549.125 43.7086 548.846 43.7785 548.65 43.8765C548.454 43.9744 548.321 44.0864 548.251 44.2123C548.195 44.3382 548.167 44.4782 548.167 44.6321C548.167 44.786 548.202 44.9259 548.272 45.0518C548.342 45.1778 548.468 45.2897 548.65 45.3877C548.846 45.4716 549.118 45.5416 549.468 45.5975C549.818 45.6395 550.273 45.6675 550.833 45.6815L553.141 45.7235C554.736 45.7514 556.038 45.8844 557.045 46.1222C558.053 46.3461 558.843 46.661 559.417 47.0667C559.99 47.4725 560.382 47.9622 560.592 48.5359C560.816 49.1096 560.928 49.7602 560.928 50.4878V50.7397C560.928 51.4113 560.816 52.062 560.592 52.6916C560.382 53.3073 559.942 53.86 559.27 54.3497C558.598 54.8255 557.647 55.2103 556.415 55.5041C555.184 55.7839 553.554 55.9239 551.525 55.9239H551.042ZM563.603 40.0566H570.004V45.3877H577.476V40.0566H583.857V55.672H577.476V49.9631H570.004V55.672H563.603V40.0566Z" fill="#F4F4F4"/>
<path d="M465.499 50.6336L465.798 47.3468L463.071 49.2516L461.577 46.6371L464.565 45.2552L461.577 43.8732L463.071 41.2587L465.798 43.1636L465.499 39.8768H468.487L468.188 43.1636L470.915 41.2587L472.409 43.8732L469.421 45.2552L472.409 46.6371L470.915 49.2516L468.188 47.3468L468.487 50.6336H465.499Z" fill="#F4F4F4"/>
<path d="M874.368 34.2217V81.1638H878.715V34.2217H874.368Z" fill="#F4F4F4"/>
<path d="M880.385 34.2216V81.1637H882.392V34.2216H880.385Z" fill="#F4F4F4"/>
<path d="M886.072 34.2216V81.1637H887.989V34.2216H886.072Z" fill="#F4F4F4"/>
<path d="M895.763 34.2216V81.1637H899.596V34.2216H895.763Z" fill="#F4F4F4"/>
<path d="M905.168 34.223V81.1651H907.085V34.223H905.168Z" fill="#F4F4F4"/>
<path d="M912.834 57.3684V81.1651H914.751V57.3684H912.834Z" fill="#F4F4F4"/>
<path d="M916.671 57.3684V81.1651H918.587V57.3684H916.671Z" fill="#F4F4F4"/>
<path d="M926.734 57.3684V81.1651H928.651V57.3684H926.734Z" fill="#F4F4F4"/>
<path d="M930.563 57.3684V81.1651H932.48V57.3684H930.563Z" fill="#F4F4F4"/>
<path d="M938.233 57.3684V81.1651H942.066V57.3684H938.233Z" fill="#F4F4F4"/>
<path d="M945.899 57.3684V81.1651H947.816V57.3684H945.899Z" fill="#F4F4F4"/>
<path d="M953.561 57.3684V81.1651H955.478V57.3684H953.561Z" fill="#F4F4F4"/>
<path d="M959.312 57.3684V81.1651H963.146V57.3684H959.312Z" fill="#F4F4F4"/>
<path d="M965.063 57.3684V81.1651H970.814V57.3684H965.063Z" fill="#F4F4F4"/>
<path d="M976.57 57.3684V81.1651H978.487V57.3684H976.57Z" fill="#F4F4F4"/>
<path d="M982.313 57.3684V81.1651H984.23V57.3684H982.313Z" fill="#F4F4F4"/>
<path d="M989.979 57.3684V81.1651H991.896V57.3684H989.979Z" fill="#F4F4F4"/>
<path d="M994.296 57.3684V81.1651H1000.05V57.3684H994.296Z" fill="#F4F4F4"/>
<path d="M1001.97 57.3684V81.1651H1003.88V57.3684H1001.97Z" fill="#F4F4F4"/>
<path d="M1005.8 57.3684V81.1651H1007.71V57.3684H1005.8Z" fill="#F4F4F4"/>
<path d="M1013.46 57.3684V81.1651H1017.29V57.3684H1013.46Z" fill="#F4F4F4"/>
<path d="M1023.05 57.3684V81.1651H1026.88V57.3684H1023.05Z" fill="#F4F4F4"/>
<path d="M1028.79 57.3684V81.1651H1034.54V57.3684H1028.79Z" fill="#F4F4F4"/>
<path d="M1036.46 57.3684V81.1651H1038.38V57.3684H1036.46Z" fill="#F4F4F4"/>
<path d="M1044.13 57.3684V81.1651H1047.96V57.3684H1044.13Z" fill="#F4F4F4"/>
<path d="M1053.38 57.3684V81.1651H1055.3V57.3684H1053.38Z" fill="#F4F4F4"/>
<path d="M1057.21 57.3684V81.1651H1059.13V57.3684H1057.21Z" fill="#F4F4F4"/>
<path d="M1065.36 57.3684V81.1651H1067.28V57.3684H1065.36Z" fill="#F4F4F4"/>
<path d="M1069.19 57.3684V81.1651H1074.94V57.3684H1069.19Z" fill="#F4F4F4"/>
<path d="M1082.37 34.1106V80.882H1084.32V34.1106H1082.37Z" fill="#F4F4F4"/>
<path d="M1088.22 34.1106V80.882H1090.16V34.1106H1088.22Z" fill="#F4F4F4"/>
<path d="M1098.64 34.1108V81.0529H1101.65V34.1108H1098.64Z" fill="#F4F4F4"/>
<path d="M1103.69 34.223V81.1651H1105.61V34.223H1103.69Z" fill="#F4F4F4"/>
<path d="M1107.53 34.223V81.1651H1111.36V34.223H1107.53Z" fill="#F4F4F4"/>
<path d="M918.954 40.647H924.6C924.936 40.647 925.202 40.612 925.398 40.542C925.608 40.4721 925.769 40.3881 925.881 40.2902C925.993 40.1782 926.07 40.0523 926.112 39.9124C926.154 39.7724 926.174 39.6255 926.174 39.4716V39.4506C926.174 39.3107 926.154 39.1778 926.112 39.0518C926.07 38.9259 925.993 38.814 925.881 38.716C925.769 38.6041 925.608 38.5201 925.398 38.4642C925.202 38.3942 924.936 38.3592 924.6 38.3592H918.954V40.647ZM929.197 42.1581C929.687 42.2141 930.155 42.312 930.603 42.452C931.065 42.5919 931.464 42.8018 931.799 43.0816C932.149 43.3475 932.429 43.6973 932.639 44.131C932.849 44.5508 932.954 45.0685 932.954 45.6842V48.5596C932.954 48.8674 932.975 49.0913 933.017 49.2312C933.059 49.3572 933.115 49.4691 933.185 49.5671V49.672H926.594C926.566 49.63 926.538 49.5391 926.51 49.3991C926.482 49.2592 926.468 49.0493 926.468 48.7695V47.4472C926.468 46.9435 926.419 46.5377 926.321 46.2299C926.223 45.9081 926.063 45.6632 925.839 45.4953C925.615 45.3134 925.314 45.1945 924.936 45.1385C924.558 45.0685 924.09 45.0335 923.53 45.0335H918.954V49.672H912.553V34.0566H926.321C927.721 34.0566 928.847 34.1825 929.701 34.4344C930.554 34.6722 931.212 34.9941 931.673 35.3998C932.135 35.7916 932.436 36.2464 932.576 36.7641C932.73 37.2818 932.807 37.8205 932.807 38.3802V38.4851C932.807 39.0728 932.695 39.5835 932.471 40.0173C932.261 40.4371 931.981 40.7939 931.631 41.0877C931.282 41.3816 930.89 41.6124 930.456 41.7803C930.036 41.9482 929.617 42.0742 929.197 42.1581ZM952.187 34.0566V38.0444H942.28V39.7235H951.872V43.8162H942.28V45.6422H952.333V49.672H935.858V34.0566H952.187ZM973.97 38.779H967.59V34.0566H986.731V38.779H980.351V49.672H973.97V38.779ZM995.776 40.647H1001.42C1001.76 40.647 1002.02 40.612 1002.22 40.542C1002.43 40.4721 1002.59 40.3881 1002.7 40.2902C1002.81 40.1782 1002.89 40.0523 1002.93 39.9124C1002.97 39.7724 1003 39.6255 1003 39.4716V39.4506C1003 39.3107 1002.97 39.1778 1002.93 39.0518C1002.89 38.9259 1002.81 38.814 1002.7 38.716C1002.59 38.6041 1002.43 38.5201 1002.22 38.4642C1002.02 38.3942 1001.76 38.3592 1001.42 38.3592H995.776V40.647ZM1006.02 42.1581C1006.51 42.2141 1006.98 42.312 1007.42 42.452C1007.89 42.5919 1008.28 42.8018 1008.62 43.0816C1008.97 43.3475 1009.25 43.6973 1009.46 44.131C1009.67 44.5508 1009.77 45.0685 1009.77 45.6842V48.5596C1009.77 48.8674 1009.8 49.0913 1009.84 49.2312C1009.88 49.3572 1009.94 49.4691 1010.01 49.5671V49.672H1003.42C1003.39 49.63 1003.36 49.5391 1003.33 49.3991C1003.3 49.2592 1003.29 49.0493 1003.29 48.7695V47.4472C1003.29 46.9435 1003.24 46.5377 1003.14 46.2299C1003.04 45.9081 1002.88 45.6632 1002.66 45.4953C1002.44 45.3134 1002.14 45.1945 1001.76 45.1385C1001.38 45.0685 1000.91 45.0335 1000.35 45.0335H995.776V49.672H989.374V34.0566H1003.14C1004.54 34.0566 1005.67 34.1825 1006.52 34.4344C1007.38 34.6722 1008.03 34.9941 1008.49 35.3998C1008.96 35.7916 1009.26 36.2464 1009.4 36.7641C1009.55 37.2818 1009.63 37.8205 1009.63 38.3802V38.4851C1009.63 39.0728 1009.52 39.5835 1009.29 40.0173C1009.08 40.4371 1008.8 40.7939 1008.45 41.0877C1008.1 41.3816 1007.71 41.6124 1007.28 41.7803C1006.86 41.9482 1006.44 42.0742 1006.02 42.1581ZM1022.14 38.674L1019.98 43.4174H1024.29L1022.14 38.674ZM1026.07 47.3423H1018.2L1017.13 49.672H1010.73L1018.14 34.0566H1026.43L1033.92 49.672H1027.14L1026.07 47.3423ZM1044.04 49.9239C1042.57 49.9239 1041.31 49.8399 1040.24 49.672C1039.19 49.5041 1038.31 49.2802 1037.6 49.0004C1036.89 48.7205 1036.31 48.3987 1035.88 48.0349C1035.44 47.6711 1035.12 47.2863 1034.89 46.8805C1034.67 46.4748 1034.52 46.069 1034.45 45.6632C1034.38 45.2434 1034.35 44.8516 1034.35 44.4878V44.4249H1041.23C1041.24 44.5648 1041.28 44.7257 1041.33 44.9076C1041.39 45.0895 1041.52 45.2644 1041.71 45.4323C1041.91 45.6002 1042.2 45.7472 1042.57 45.8731C1042.97 45.985 1043.5 46.041 1044.17 46.041H1044.29C1044.94 46.041 1045.46 46.006 1045.85 45.9361C1046.24 45.8661 1046.54 45.7751 1046.75 45.6632C1046.96 45.5513 1047.09 45.4253 1047.15 45.2854C1047.22 45.1455 1047.25 45.0056 1047.25 44.8656C1047.25 44.7117 1047.23 44.5648 1047.17 44.4249C1047.11 44.285 1046.99 44.166 1046.79 44.0681C1046.6 43.9701 1046.31 43.8932 1045.93 43.8372C1045.57 43.7672 1045.07 43.7253 1044.44 43.7113L1042.2 43.6693C1040.66 43.6413 1039.4 43.4944 1038.42 43.2285C1037.44 42.9487 1036.66 42.5849 1036.09 42.1371C1035.53 41.6894 1035.14 41.1787 1034.91 40.605C1034.7 40.0313 1034.6 39.4226 1034.6 38.779V38.6111C1034.6 37.8975 1034.73 37.2468 1035 36.6592C1035.28 36.0715 1035.76 35.5677 1036.44 35.148C1037.13 34.7282 1038.05 34.4064 1039.19 34.1825C1040.34 33.9446 1041.79 33.8257 1043.54 33.8257H1044.53C1046.48 33.8257 1048.07 33.9796 1049.27 34.2875C1050.47 34.5813 1051.4 34.9731 1052.06 35.4628C1052.72 35.9385 1053.15 36.4842 1053.36 37.0999C1053.59 37.7016 1053.7 38.3032 1053.7 38.9049V38.9469H1046.96C1046.93 38.807 1046.88 38.6601 1046.79 38.5061C1046.72 38.3382 1046.58 38.1843 1046.37 38.0444C1046.18 37.9045 1045.89 37.7925 1045.51 37.7086C1045.15 37.6246 1044.67 37.5826 1044.08 37.5826H1043.94C1043.34 37.5826 1042.85 37.6106 1042.49 37.6666C1042.13 37.7086 1041.85 37.7785 1041.65 37.8765C1041.45 37.9744 1041.32 38.0864 1041.25 38.2123C1041.19 38.3382 1041.17 38.4782 1041.17 38.6321C1041.17 38.786 1041.2 38.9259 1041.27 39.0518C1041.34 39.1778 1041.47 39.2897 1041.65 39.3877C1041.85 39.4716 1042.12 39.5416 1042.47 39.5975C1042.82 39.6395 1043.27 39.6675 1043.83 39.6815L1046.14 39.7235C1047.74 39.7514 1049.04 39.8844 1050.05 40.1222C1051.05 40.3461 1051.84 40.661 1052.42 41.0667C1052.99 41.4725 1053.38 41.9622 1053.59 42.5359C1053.82 43.1096 1053.93 43.7602 1053.93 44.4878V44.7397C1053.93 45.4113 1053.82 46.062 1053.59 46.6916C1053.38 47.3073 1052.94 47.86 1052.27 48.3497C1051.6 48.8255 1050.65 49.2103 1049.42 49.5041C1048.18 49.7839 1046.55 49.9239 1044.53 49.9239H1044.04ZM1056.6 34.0566H1063V39.3877H1070.48V34.0566H1076.86V49.672H1070.48V43.9631H1063V49.672H1056.6V34.0566Z" fill="#F4F4F4"/>
<path d="M958.499 44.6336L958.798 41.3468L956.071 43.2516L954.577 40.6371L957.565 39.2552L954.577 37.8732L956.071 35.2587L958.798 37.1636L958.499 33.8768H961.487L961.188 37.1636L963.915 35.2587L965.409 37.8732L962.421 39.2552L965.409 40.6371L963.915 43.2516L961.188 41.3468L961.487 44.6336H958.499Z" fill="#F4F4F4"/>
</svg>
