<svg width="643" height="354" viewBox="0 0 643 354" fill="none" xmlns="http://www.w3.org/2000/svg">
<rect x="3.96228" y="-0.000106812" width="638.797" height="160.283" rx="15" fill="black"/>
<path d="M49.0911 37.5501V123.138H59.195V37.5501H49.0911Z" fill="#F4F4F4"/>
<path d="M63.0811 37.5499V123.138H67.7444V37.5499H63.0811Z" fill="#F4F4F4"/>
<path d="M76.2932 37.5499V123.138H80.7485V37.5499H76.2932Z" fill="#F4F4F4"/>
<path d="M98.8329 37.5499V123.138H107.743V37.5499H98.8329Z" fill="#F4F4F4"/>
<path d="M120.692 37.5525V123.14H125.147V37.5525H120.692Z" fill="#F4F4F4"/>
<path d="M138.511 79.7527V123.14H142.967V79.7527H138.511Z" fill="#F4F4F4"/>
<path d="M147.423 79.7527V123.14H151.878V79.7527H147.423Z" fill="#F4F4F4"/>
<path d="M170.811 79.7527V123.14H175.266V79.7527H170.811Z" fill="#F4F4F4"/>
<path d="M179.722 79.7527V123.14H184.177V79.7527H179.722Z" fill="#F4F4F4"/>
<path d="M197.545 79.7527V123.14H206.455V79.7527H197.545Z" fill="#F4F4F4"/>
<path d="M215.364 79.7527V123.14H219.819V79.7527H215.364Z" fill="#F4F4F4"/>
<path d="M233.184 79.7527V123.14H237.639V79.7527H233.184Z" fill="#F4F4F4"/>
<path d="M246.551 79.7527V123.14H255.462V79.7527H246.551Z" fill="#F4F4F4"/>
<path d="M259.918 79.7527V123.14H273.284V79.7527H259.918Z" fill="#F4F4F4"/>
<path d="M286.649 79.7527V123.14H291.104V79.7527H286.649Z" fill="#F4F4F4"/>
<path d="M300.013 79.7527V123.14H304.468V79.7527H300.013Z" fill="#F4F4F4"/>
<path d="M317.836 79.7527V123.14H322.291V79.7527H317.836Z" fill="#F4F4F4"/>
<path d="M327.859 79.7527V123.14H341.225V79.7527H327.859Z" fill="#F4F4F4"/>
<path d="M345.682 79.7527V123.14H350.138V79.7527H345.682Z" fill="#F4F4F4"/>
<path d="M354.591 79.7527V123.14H359.046V79.7527H354.591Z" fill="#F4F4F4"/>
<path d="M372.41 79.7527V123.14H381.321V79.7527H372.41Z" fill="#F4F4F4"/>
<path d="M394.689 79.7527V123.14H403.599V79.7527H394.689Z" fill="#F4F4F4"/>
<path d="M408.053 79.7527V123.14H421.418V79.7527H408.053Z" fill="#F4F4F4"/>
<path d="M425.875 79.7527V123.14H430.33V79.7527H425.875Z" fill="#F4F4F4"/>
<path d="M443.695 79.7527V123.14H452.606V79.7527H443.695Z" fill="#F4F4F4"/>
<path d="M465.195 79.7527V123.14H469.651V79.7527H465.195Z" fill="#F4F4F4"/>
<path d="M474.104 79.7527V123.14H478.559V79.7527H474.104Z" fill="#F4F4F4"/>
<path d="M493.039 79.7527V123.14H497.494V79.7527H493.039Z" fill="#F4F4F4"/>
<path d="M501.95 79.7527V123.14H515.316V79.7527H501.95Z" fill="#F4F4F4"/>
<path d="M530.718 37.3478V122.936H537.72V37.3478H530.718Z" fill="#F4F4F4"/>
<path d="M542.048 37.5525V123.14H550.959V37.5525H542.048Z" fill="#F4F4F4"/>
<path d="M570.399 37.3478V122.936H577.402V37.3478H570.399Z" fill="#F4F4F4"/>
<path d="M582.143 37.5525V123.14H586.599V37.5525H582.143Z" fill="#F4F4F4"/>
<path d="M591.055 37.5525V123.14H599.965V37.5525H591.055Z" fill="#F4F4F4"/>
<path d="M149.182 53.1543H162.578C163.374 53.1543 164.005 53.0713 164.47 52.9053C164.968 52.7394 165.35 52.5402 165.615 52.3078C165.881 52.0422 166.063 51.7434 166.163 51.4114C166.263 51.0795 166.312 50.7309 166.312 50.3657V50.3159C166.312 49.9839 166.263 49.6686 166.163 49.3698C166.063 49.071 165.881 48.8054 165.615 48.573C165.35 48.3075 164.968 48.1083 164.47 47.9755C164.005 47.8095 163.374 47.7265 162.578 47.7265H149.182V53.1543ZM173.483 56.7397C174.645 56.8725 175.757 57.1049 176.819 57.4368C177.915 57.7688 178.861 58.2668 179.658 58.9307C180.488 59.5615 181.152 60.3914 181.65 61.4206C182.148 62.4165 182.397 63.6448 182.397 65.1055V71.9276C182.397 72.658 182.446 73.1892 182.546 73.5211C182.646 73.8199 182.778 74.0855 182.944 74.3179V74.5669H167.308C167.242 74.4673 167.175 74.2515 167.109 73.9195C167.043 73.5875 167.009 73.0896 167.009 72.4256V69.2884C167.009 68.0933 166.893 67.1306 166.661 66.4002C166.429 65.6367 166.047 65.0557 165.516 64.6573C164.984 64.2258 164.271 63.9436 163.374 63.8108C162.478 63.6448 161.366 63.5618 160.038 63.5618H149.182V74.5669H133.994V37.5182H166.661C169.981 37.5182 172.653 37.817 174.678 38.4145C176.703 38.9789 178.264 39.7424 179.359 40.7052C180.455 41.6347 181.168 42.7136 181.5 43.942C181.865 45.1703 182.048 46.4484 182.048 47.7763V48.0253C182.048 49.4196 181.782 50.6313 181.251 51.6604C180.753 52.6564 180.089 53.5029 179.259 54.2001C178.43 54.8972 177.5 55.445 176.471 55.8433C175.475 56.2417 174.479 56.5405 173.483 56.7397ZM228.028 37.5182V46.9795H204.524V50.9633H227.281V60.6736H204.524V65.0059H228.376V74.5669H189.286V37.5182H228.028ZM279.712 48.7224H264.573V37.5182H309.988V48.7224H294.85V74.5669H279.712V48.7224ZM331.446 53.1543H344.841C345.638 53.1543 346.268 53.0713 346.733 52.9053C347.231 52.7394 347.613 52.5402 347.879 52.3078C348.144 52.0422 348.327 51.7434 348.426 51.4114C348.526 51.0795 348.576 50.7309 348.576 50.3657V50.3159C348.576 49.9839 348.526 49.6686 348.426 49.3698C348.327 49.071 348.144 48.8054 347.879 48.573C347.613 48.3075 347.231 48.1083 346.733 47.9755C346.268 47.8095 345.638 47.7265 344.841 47.7265H331.446V53.1543ZM355.746 56.7397C356.908 56.8725 358.02 57.1049 359.083 57.4368C360.178 57.7688 361.124 58.2668 361.921 58.9307C362.751 59.5615 363.415 60.3914 363.913 61.4206C364.411 62.4165 364.66 63.6448 364.66 65.1055V71.9276C364.66 72.658 364.71 73.1892 364.809 73.5211C364.909 73.8199 365.042 74.0855 365.208 74.3179V74.5669H349.572C349.505 74.4673 349.439 74.2515 349.372 73.9195C349.306 73.5875 349.273 73.0896 349.273 72.4256V69.2884C349.273 68.0933 349.157 67.1306 348.924 66.4002C348.692 65.6367 348.31 65.0557 347.779 64.6573C347.248 64.2258 346.534 63.9436 345.638 63.8108C344.741 63.6448 343.629 63.5618 342.301 63.5618H331.446V74.5669H316.258V37.5182H348.924C352.244 37.5182 354.916 37.817 356.942 38.4145C358.967 38.9789 360.527 39.7424 361.622 40.7052C362.718 41.6347 363.432 42.7136 363.764 43.942C364.129 45.1703 364.311 46.4484 364.311 47.7763V48.0253C364.311 49.4196 364.046 50.6313 363.515 51.6604C363.017 52.6564 362.353 53.5029 361.523 54.2001C360.693 54.8972 359.763 55.445 358.734 55.8433C357.738 56.2417 356.742 56.5405 355.746 56.7397ZM394.008 48.4734L388.879 59.7275H399.087L394.008 48.4734ZM403.32 69.0394H384.646L382.106 74.5669H366.918L384.497 37.5182H404.166L421.944 74.5669H405.859L403.32 69.0394ZM445.962 75.1644C442.477 75.1644 439.472 74.9652 436.949 74.5669C434.459 74.1685 432.368 73.6373 430.675 72.9734C428.982 72.3094 427.621 71.5459 426.591 70.6827C425.562 69.8196 424.782 68.9066 424.251 67.9439C423.72 66.9812 423.371 66.0184 423.205 65.0557C423.039 64.0598 422.956 63.1302 422.956 62.2671V62.1177H439.29C439.323 62.4497 439.406 62.8315 439.539 63.263C439.671 63.6946 439.97 64.1096 440.435 64.5079C440.9 64.9063 441.58 65.2549 442.477 65.5537C443.406 65.8193 444.668 65.9521 446.261 65.9521H446.56C448.087 65.9521 449.315 65.8691 450.245 65.7031C451.174 65.5371 451.888 65.3213 452.386 65.0557C452.884 64.7901 453.199 64.4914 453.332 64.1594C453.498 63.8274 453.581 63.4954 453.581 63.1634C453.581 62.7983 453.515 62.4497 453.382 62.1177C453.249 61.7857 452.95 61.5036 452.486 61.2712C452.021 61.0388 451.34 60.8562 450.444 60.7234C449.581 60.5574 448.402 60.4578 446.908 60.4246L441.58 60.325C437.928 60.2586 434.941 59.9101 432.617 59.2793C430.293 58.6154 428.45 57.7522 427.089 56.6899C425.761 55.6276 424.832 54.4158 424.301 53.0547C423.803 51.6936 423.554 50.2495 423.554 48.7224V48.3241C423.554 46.631 423.869 45.0873 424.5 43.693C425.164 42.2987 426.309 41.1035 427.936 40.1076C429.563 39.1117 431.737 38.3481 434.459 37.817C437.181 37.2526 440.617 36.9704 444.767 36.9704H447.108C451.755 36.9704 455.507 37.3356 458.362 38.066C461.217 38.7631 463.424 39.6926 464.985 40.8546C466.545 41.9833 467.574 43.278 468.072 44.7387C468.603 46.1662 468.869 47.5937 468.869 49.0212V49.1208H452.884C452.818 48.7888 452.685 48.4402 452.486 48.0751C452.32 47.6767 451.988 47.3115 451.49 46.9795C451.025 46.6476 450.344 46.382 449.448 46.1828C448.585 45.9836 447.456 45.884 446.062 45.884H445.713C444.286 45.884 443.14 45.9504 442.277 46.0832C441.414 46.1828 440.75 46.3488 440.285 46.5812C439.821 46.8136 439.505 47.0791 439.339 47.3779C439.207 47.6767 439.14 48.0087 439.14 48.3738C439.14 48.739 439.223 49.071 439.389 49.3698C439.555 49.6686 439.854 49.9341 440.285 50.1665C440.75 50.3657 441.398 50.5317 442.228 50.6645C443.057 50.7641 444.136 50.8305 445.464 50.8637L450.942 50.9633C454.726 51.0297 457.814 51.345 460.204 51.9094C462.594 52.4406 464.47 53.1875 465.831 54.1503C467.192 55.113 468.122 56.2749 468.62 57.636C469.151 58.9971 469.416 60.5408 469.416 62.2671V62.8647C469.416 64.4582 469.151 66.0018 468.62 67.4957C468.122 68.9564 467.076 70.2678 465.483 71.4297C463.889 72.5584 461.632 73.4713 458.71 74.1685C455.789 74.8324 451.921 75.1644 447.108 75.1644H445.962ZM475.762 37.5182H490.95V50.1665H508.678V37.5182H523.816V74.5669H508.678V61.0222H490.95V74.5669H475.762V37.5182Z" fill="#F4F4F4"/>
<path d="M241.876 61.9806L242.583 54.1999L236.129 58.7092L232.592 52.52L239.666 49.2485L232.592 45.9771L236.129 39.7879L242.583 44.2972L241.876 36.5164H248.949L248.242 44.2972L254.697 39.7879L258.233 45.9771L251.16 49.2485L258.233 52.52L254.697 58.7092L248.242 54.1999L248.949 61.9806H241.876Z" fill="#F4F4F4"/>
<line x1="3.96228" y1="36.896" x2="642.761" y2="36.896" stroke="#C5F700" stroke-width="1.5"/>
<line x1="3.96228" y1="123.143" x2="642.759" y2="123.143" stroke="#C5F700" stroke-width="1.5"/>
<line x1="49.4514" y1="-0.000801086" x2="49.4514" y2="160.284" stroke="#C5F700" stroke-width="1.5"/>
<line x1="600.706" y1="-0.000801086" x2="600.706" y2="160.284" stroke="#C5F700" stroke-width="1.5"/>
<line x1="231.563" y1="-0.000801086" x2="231.563" y2="160.283" stroke="#C5F700" stroke-width="1.5"/>
<line x1="260.251" y1="-0.000801086" x2="260.251" y2="160.283" stroke="#C5F700" stroke-width="1.5"/>
<rect x="-0.000488281" y="193" width="288.665" height="160.283" rx="15" fill="black"/>
<path d="M81.5993 249.696H97.2969C98.2306 249.696 98.9697 249.599 99.5144 249.404C100.098 249.21 100.545 248.976 100.857 248.704C101.168 248.393 101.382 248.042 101.498 247.653C101.615 247.264 101.674 246.856 101.674 246.428V246.37C101.674 245.981 101.615 245.611 101.498 245.261C101.382 244.911 101.168 244.6 100.857 244.327C100.545 244.016 100.098 243.783 99.5144 243.627C98.9697 243.432 98.2306 243.335 97.2969 243.335H81.5993V249.696ZM110.077 253.897C111.438 254.053 112.742 254.325 113.987 254.714C115.27 255.103 116.379 255.687 117.313 256.465C118.285 257.204 119.063 258.177 119.647 259.383C120.231 260.55 120.522 261.989 120.522 263.701V271.696C120.522 272.552 120.581 273.174 120.697 273.563C120.814 273.913 120.97 274.225 121.164 274.497V274.789H102.841C102.763 274.672 102.685 274.419 102.607 274.03C102.529 273.641 102.491 273.058 102.491 272.279V268.603C102.491 267.203 102.354 266.074 102.082 265.218C101.81 264.324 101.362 263.643 100.74 263.176C100.117 262.67 99.281 262.34 98.2306 262.184C97.1802 261.989 95.8769 261.892 94.3208 261.892H81.5993V274.789H63.8009V231.372H102.082C105.972 231.372 109.104 231.722 111.477 232.423C113.85 233.084 115.679 233.979 116.963 235.107C118.246 236.196 119.083 237.461 119.472 238.9C119.9 240.34 120.114 241.837 120.114 243.394V243.685C120.114 245.319 119.803 246.739 119.18 247.945C118.597 249.112 117.819 250.104 116.846 250.921C115.873 251.738 114.784 252.38 113.578 252.847C112.411 253.314 111.244 253.664 110.077 253.897ZM173.996 231.372V242.46H146.453V247.128H173.121V258.508H146.453V263.584H174.405V274.789H128.596V231.372H173.996Z" fill="#F4F4F4"/>
<path d="M35.0122 230.834V315.644H43.9973V230.834H35.0122Z" fill="#F4F4F4"/>
<path d="M48.2394 230.834V315.644H54.2295V230.834H48.2394Z" fill="#F4F4F4"/>
<path d="M70.9524 282.762V315.991H76.9425V282.762H70.9524Z" fill="#F4F4F4"/>
<path d="M227.196 231.126V315.935H231.086V231.126H227.196Z" fill="#F4F4F4"/>
<path d="M63.4666 282.762V315.991H66.4616V282.762H63.4666Z" fill="#F4F4F4"/>
<path d="M105.394 282.762V315.991H108.389V282.762H105.394Z" fill="#F4F4F4"/>
<path d="M84.429 282.762V315.991H87.424V282.762H84.429Z" fill="#F4F4F4"/>
<path d="M114.382 282.762V315.991H120.372V282.762H114.382Z" fill="#F4F4F4"/>
<path d="M138.341 282.762V315.991H150.321V282.762H138.341Z" fill="#F4F4F4"/>
<path d="M166.795 282.762V315.991H169.79V282.762H166.795Z" fill="#F4F4F4"/>
<path d="M217.859 231.126V315.935H220.971V231.126H217.859Z" fill="#F4F4F4"/>
<path d="M186.262 282.762V315.991H192.252V282.762H186.262Z" fill="#F4F4F4"/>
<path d="M196.745 282.762V315.991H201.237V282.762H196.745Z" fill="#F4F4F4"/>
<path d="M210.856 282.704V315.935H213.191V282.704H210.856Z" fill="#F4F4F4"/>
<path d="M234.199 231.126V315.935H241.979V231.126H234.199Z" fill="#F4F4F4"/>
<path d="M244.666 231.126V315.991H253.651V231.126H244.666Z" fill="#F4F4F4"/>
<path d="M191.018 260.026L191.787 251.564L184.768 256.468L180.922 249.737L188.614 246.18L180.922 242.622L184.768 235.891L191.787 240.795L191.018 232.333H198.71L197.941 240.795L204.96 235.891L208.806 242.622L201.114 246.18L208.806 249.737L204.96 256.468L197.941 251.564L198.71 260.026H191.018Z" fill="#F4F4F4"/>
<line x1="35.3737" y1="192.999" x2="35.3737" y2="353.284" stroke="#C5F700" stroke-width="1.5"/>
<line x1="180.527" y1="192.221" x2="180.527" y2="353.283" stroke="#C5F700" stroke-width="1.5"/>
<line x1="210.093" y1="192.221" x2="210.093" y2="353.283" stroke="#C5F700" stroke-width="1.5"/>
<line x1="254.012" y1="192.999" x2="254.012" y2="353.284" stroke="#C5F700" stroke-width="1.5"/>
<line x1="-0.000488281" y1="231.375" x2="288.665" y2="231.375" stroke="#C5F700" stroke-width="1.5"/>
<line x1="-0.000488281" y1="315.579" x2="288.665" y2="315.579" stroke="#C5F700" stroke-width="1.5"/>
<rect x="323" y="193.001" width="160.283" height="160.283" rx="15" fill="black"/>
<line x1="359.93" y1="193" x2="359.93" y2="353.285" stroke="#C5F700" stroke-width="1.5"/>
<line x1="446.391" y1="193" x2="446.391" y2="353.285" stroke="#C5F700" stroke-width="1.5"/>
<path d="M390.984 317.583L393.34 290.755L371.839 306.303L360.058 284.963L383.621 273.683L360.058 262.403L371.839 241.063L393.34 256.611L390.984 229.783H414.546L412.19 256.611L433.69 241.063L445.471 262.403L421.909 273.683L445.471 284.963L433.69 306.303L412.19 290.755L414.546 317.583H390.984Z" fill="#F4F4F4"/>
<line x1="323" y1="317.187" x2="483.283" y2="317.187" stroke="#C5F700" stroke-width="1.5"/>
<line x1="323" y1="229.376" x2="483.283" y2="229.376" stroke="#C5F700" stroke-width="1.5"/>
</svg>
