<?xml version="1.0" encoding="utf-8"?>
<!-- Generator: Adobe Illustrator 24.3.0, SVG Export Plug-In . SVG Version: 6.00 Build 0)  -->
<svg version="1.1" id="Layer_1" xmlns="http://www.w3.org/2000/svg" xmlns:xlink="http://www.w3.org/1999/xlink" x="0px" y="0px"
	 viewBox="0 0 1228 65" style="enable-background:new 0 0 1228 65;" xml:space="preserve">
<g>
	<path d="M481.2,12.1v41h4.3v-41H481.2z"/>
	<path d="M487.6,12.1v41h2.1v-41H487.6z"/>
	<path d="M494.1,12.1v41h2.1v-41H494.1z"/>
	<path d="M504.8,12.1v41h4.3v-41H504.8z"/>
	<path d="M515.5,12.1v41h2.1v-41H515.5z"/>
	<path d="M524.1,33.3v19.8h2.1V33.3H524.1z"/>
	<path d="M528.4,33.3v19.8h2.1V33.3H528.4z"/>
	<path d="M539.7,33.3v19.8h2.1V33.3H539.7z"/>
	<path d="M544,33.3v19.8h2.1V33.3H544z"/>
	<path d="M552.6,33.3v19.8h4.3V33.3H552.6z"/>
	<path d="M561.1,33.3v19.8h2.1V33.3H561.1z"/>
	<path d="M569.7,33.3v19.8h2.1V33.3H569.7z"/>
	<path d="M576.2,33.3v19.8h4.3V33.3H576.2z"/>
	<path d="M582.6,33.3v19.8h6.4V33.3H582.6z"/>
	<path d="M595.5,33.3v19.8h2.1V33.3H595.5z"/>
	<path d="M601.9,33.3v19.8h2.1V33.3H601.9z"/>
	<path d="M610.5,33.3v19.8h2.1V33.3H610.5z"/>
	<path d="M615.3,33.3v19.8h6.4V33.3H615.3z"/>
	<path d="M623.9,33.3v19.8h2.1V33.3H623.9z"/>
	<path d="M628.2,33.3v19.8h2.1V33.3H628.2z"/>
	<path d="M636.8,33.3v19.8h4.3V33.3H636.8z"/>
	<path d="M647.5,33.3v19.8h4.3V33.3H647.5z"/>
	<path d="M654,33.3v19.8h6.4V33.3H654z"/>
	<path d="M662.6,33.3v19.8h2.1V33.3H662.6z"/>
	<path d="M671.1,33.3v19.8h4.3V33.3H671.1z"/>
	<path d="M681.9,33.3v19.8h2.1V33.3H681.9z"/>
	<path d="M686.2,33.3v19.8h2.1V33.3H686.2z"/>
	<path d="M695.3,33.3v19.8h2.1V33.3H695.3z"/>
	<path d="M699.6,33.3v19.8h6.4V33.3H699.6z"/>
	<path d="M712.5,12.1v41h4.3v-41H712.5z"/>
	<path d="M718.9,12.1v41h4.3v-41H718.9z"/>
	<path d="M729.6,12.1v41h6.4v-41H729.6z"/>
	<path d="M738.2,12.1v41h2.1v-41H738.2z"/>
	<path d="M742.5,12.1v41h4.3v-41H742.5z"/>
	<path d="M530.1,20.1h7c0.5,0,0.9,0,1.2-0.1c0.3-0.1,0.6-0.2,0.7-0.4c0.2-0.2,0.3-0.4,0.4-0.6c0.1-0.2,0.1-0.4,0.1-0.7v0
		c0-0.2,0-0.4-0.1-0.6c-0.1-0.2-0.2-0.4-0.4-0.5c-0.2-0.2-0.4-0.3-0.7-0.4c-0.3-0.1-0.7-0.1-1.2-0.1h-7V20.1z M541.7,21.8
		c0.6,0.1,1.2,0.3,1.7,0.5c0.5,0.2,1,0.5,1.3,0.9c0.4,0.4,0.6,0.8,0.8,1.3c0.2,0.5,0.3,1.1,0.3,1.8v2.4c0,0.6,0,1,0.1,1.2
		c0.1,0.2,0.1,0.4,0.2,0.5v0.1H540c0-0.1-0.1-0.2-0.1-0.4c0-0.2-0.1-0.5-0.1-0.8v-1.5c0-0.6-0.1-1.1-0.2-1.5c-0.1-0.4-0.3-0.7-0.6-1
		c-0.3-0.3-0.6-0.5-1.1-0.6s-1-0.2-1.6-0.2h-6.3v6h-6V12.2h13.8c1.7,0,3.1,0.2,4.1,0.5s1.8,0.7,2.3,1.2c0.5,0.5,0.9,1,1.1,1.6
		c0.2,0.6,0.2,1.2,0.2,1.7v0.2c0,0.6-0.1,1.2-0.3,1.7c-0.2,0.5-0.5,0.9-0.9,1.3c-0.4,0.4-0.8,0.7-1.3,0.9
		C542.7,21.5,542.2,21.6,541.7,21.8z"/>
	<path d="M567.5,12.2v4.3h-11.9v2.7h11.5v4.4h-11.5v2.9h12v4.3h-17.9V12.2H567.5z"/>
	<path d="M575.5,22.7l0.3-3.1l-2.6,1.8l-1.4-2.5l2.8-1.3l-2.8-1.3l1.4-2.5l2.6,1.8l-0.3-3.1h2.8l-0.3,3.1l2.6-1.8l1.4,2.5l-2.8,1.3
		l2.8,1.3l-1.4,2.5l-2.6-1.8l0.3,3.1H575.5z"/>
	<path d="M593,16.8h-7.3v-4.7h20.5v4.7h-7.3v13.8H593V16.8z"/>
	<path d="M615.5,20.1h7c0.5,0,0.9,0,1.2-0.1c0.3-0.1,0.6-0.2,0.7-0.4c0.2-0.2,0.3-0.4,0.4-0.6c0.1-0.2,0.1-0.4,0.1-0.7v0
		c0-0.2,0-0.4-0.1-0.6c-0.1-0.2-0.2-0.4-0.4-0.5c-0.2-0.2-0.4-0.3-0.7-0.4c-0.3-0.1-0.7-0.1-1.2-0.1h-7V20.1z M627,21.8
		c0.6,0.1,1.2,0.3,1.7,0.5c0.5,0.2,1,0.5,1.3,0.9c0.4,0.4,0.6,0.8,0.8,1.3c0.2,0.5,0.3,1.1,0.3,1.8v2.4c0,0.6,0,1,0.1,1.2
		c0.1,0.2,0.1,0.4,0.2,0.5v0.1h-6.2c0-0.1-0.1-0.2-0.1-0.4c0-0.2-0.1-0.5-0.1-0.8v-1.5c0-0.6-0.1-1.1-0.2-1.5
		c-0.1-0.4-0.3-0.7-0.6-1c-0.3-0.3-0.6-0.5-1.1-0.6c-0.4-0.1-1-0.2-1.6-0.2h-6.3v6h-6V12.2h13.8c1.7,0,3.1,0.2,4.1,0.5
		c1,0.3,1.8,0.7,2.3,1.2c0.5,0.5,0.9,1,1.1,1.6c0.2,0.6,0.2,1.2,0.2,1.7v0.2c0,0.6-0.1,1.2-0.3,1.7c-0.2,0.5-0.5,0.9-0.9,1.3
		c-0.4,0.4-0.8,0.7-1.3,0.9C628.1,21.5,627.6,21.6,627,21.8z"/>
	<path d="M645.2,16.5l-3,6.9h6.2L645.2,16.5z M650.1,27.5h-9.8l-1.4,3.2h-6l8.4-18.5h7.8l8.7,18.5h-6.4L650.1,27.5z"/>
	<path d="M669.3,31c-1.5,0-2.9-0.1-4-0.3c-1.1-0.2-2.1-0.5-2.8-0.8c-0.8-0.3-1.4-0.7-1.8-1.1c-0.4-0.4-0.8-0.9-1-1.3
		c-0.2-0.5-0.4-0.9-0.5-1.4c-0.1-0.5-0.1-0.9-0.1-1.3v-0.2h6.4c0,0.2,0.1,0.4,0.1,0.7c0.1,0.3,0.3,0.5,0.5,0.8
		c0.3,0.2,0.7,0.5,1.2,0.6c0.5,0.2,1.3,0.3,2.2,0.3h0.1c0.9,0,1.6-0.1,2.1-0.2c0.5-0.1,1-0.3,1.2-0.4c0.3-0.2,0.5-0.4,0.6-0.6
		c0.1-0.2,0.1-0.5,0.1-0.7c0-0.2-0.1-0.5-0.2-0.7c-0.1-0.2-0.3-0.4-0.5-0.5c-0.3-0.1-0.6-0.3-1.1-0.3c-0.5-0.1-1.1-0.2-1.8-0.2
		l-2.5-0.1c-1.6,0-3-0.2-4.1-0.5c-1.1-0.3-1.9-0.7-2.5-1.2c-0.6-0.5-1.1-1.1-1.3-1.7c-0.3-0.6-0.4-1.3-0.4-2v-0.2
		c0-0.8,0.1-1.5,0.4-2.1c0.3-0.7,0.8-1.3,1.5-1.8c0.7-0.5,1.7-0.9,3-1.2c1.3-0.3,2.9-0.4,4.9-0.4h0.9c2.1,0,3.9,0.2,5.2,0.5
		c1.3,0.3,2.3,0.8,3,1.3c0.7,0.5,1.2,1.2,1.4,1.8c0.2,0.7,0.3,1.3,0.3,2v0.2h-6.3c0-0.2-0.1-0.4-0.2-0.6c-0.1-0.2-0.3-0.4-0.6-0.6
		c-0.3-0.2-0.6-0.4-1.1-0.5c-0.5-0.1-1.2-0.2-2-0.2h-0.2c-0.8,0-1.4,0-1.9,0.1c-0.5,0.1-0.9,0.2-1.1,0.3c-0.3,0.1-0.5,0.3-0.6,0.5
		c-0.1,0.2-0.1,0.4-0.1,0.6c0,0.2,0,0.4,0.1,0.6c0.1,0.2,0.3,0.3,0.5,0.5c0.3,0.1,0.6,0.2,1.1,0.3c0.4,0.1,1,0.1,1.7,0.1l2.6,0.1
		c1.7,0,3.1,0.2,4.2,0.5c1.1,0.3,2,0.7,2.6,1.1c0.6,0.5,1.1,1,1.3,1.7c0.2,0.6,0.4,1.4,0.4,2.2v0.3c0,0.5,0,1-0.1,1.5
		c-0.1,0.5-0.3,1-0.5,1.4c-0.2,0.4-0.6,0.9-1.1,1.3c-0.5,0.4-1.1,0.7-1.8,1c-0.7,0.3-1.7,0.5-2.7,0.7c-1.1,0.2-2.3,0.3-3.8,0.3
		H669.3z"/>
	<path d="M683.7,12.2h6v6.7h9.8v-6.7h6v18.5h-6v-7.2h-9.8v7.2h-6V12.2z"/>
</g>
</svg>
