<svg width="1228" height="65" viewBox="0 0 1228 65" fill="none" xmlns="http://www.w3.org/2000/svg">
<path d="M357.075 14.1086V50.9004H360.932V14.1086H357.075Z" fill="black"/>
<path d="M362.861 14.1086V50.9004H364.79V14.1086H362.861Z" fill="black"/>
<path d="M368.646 14.1086V50.9004H370.574V14.1086H368.646Z" fill="black"/>
<path d="M378.288 14.1086V50.9004H382.145V14.1086H378.288Z" fill="black"/>
<path d="M387.931 14.1086V50.9004H389.859V14.1086H387.931Z" fill="black"/>
<path d="M395.645 33.1061V50.9004H397.573V33.1061H395.645Z" fill="black"/>
<path d="M399.501 33.1061V50.9004H401.429V33.1061H399.501Z" fill="black"/>
<path d="M409.626 33.1061V50.9004H411.554V33.1061H409.626Z" fill="black"/>
<path d="M413.483 33.1061V50.9004H415.412V33.1061H413.483Z" fill="black"/>
<path d="M421.197 33.1061V50.9004H425.054V33.1061H421.197Z" fill="black"/>
<path d="M428.911 33.1061V50.9004H430.84V33.1061H428.911Z" fill="black"/>
<path d="M436.625 33.1061V50.9004H438.553V33.1061H436.625Z" fill="black"/>
<path d="M442.41 33.1061V50.9004H446.267V33.1061H442.41Z" fill="black"/>
<path d="M448.196 33.1061V50.9004H453.982V33.1061H448.196Z" fill="black"/>
<path d="M459.767 33.1061V50.9004H461.695V33.1061H459.767Z" fill="black"/>
<path d="M465.552 33.1061V50.9004H467.48V33.1061H465.552Z" fill="black"/>
<path d="M473.266 33.1061V50.9004H475.194V33.1061H473.266Z" fill="black"/>
<path d="M477.604 33.1061V50.9004H483.39V33.1061H477.604Z" fill="black"/>
<path d="M485.319 33.1061V50.9004H487.248V33.1061H485.319Z" fill="black"/>
<path d="M489.176 33.1061V50.9004H491.104V33.1061H489.176Z" fill="black"/>
<path d="M496.89 33.1061V50.9004H500.747V33.1061H496.89Z" fill="black"/>
<path d="M506.532 33.1061V50.9004H510.389V33.1061H506.532Z" fill="black"/>
<path d="M512.318 33.1061V50.9004H518.104V33.1061H512.318Z" fill="black"/>
<path d="M520.032 33.1061V50.9004H521.961V33.1061H520.032Z" fill="black"/>
<path d="M527.745 33.1061V50.9004H531.602V33.1061H527.745Z" fill="black"/>
<path d="M537.388 33.1061V50.9004H539.316V33.1061H537.388Z" fill="black"/>
<path d="M541.245 33.1061V50.9004H543.174V33.1061H541.245Z" fill="black"/>
<path d="M549.44 33.1061V50.9004H551.369V33.1061H549.44Z" fill="black"/>
<path d="M553.299 33.1061V50.9004H559.084V33.1061H553.299Z" fill="black"/>
<path d="M564.868 14.1086V50.9004H568.725V14.1086H564.868Z" fill="black"/>
<path d="M570.655 14.1086V50.9004H574.512V14.1086H570.655Z" fill="black"/>
<path d="M580.296 14.1086V50.9004H586.081V14.1086H580.296Z" fill="black"/>
<path d="M588.011 14.1086V50.9004H589.939V14.1086H588.011Z" fill="black"/>
<path d="M591.867 14.1086V50.9004H595.724V14.1086H591.867Z" fill="black"/>
<path d="M401.039 21.2532H407.33C407.763 21.2532 408.114 21.216 408.382 21.1415C408.666 21.0521 408.89 20.9329 409.054 20.7839C409.218 20.6349 409.33 20.4636 409.39 20.2699C409.45 20.0762 409.479 19.875 409.479 19.6665V19.6218C409.479 19.4281 409.45 19.2418 409.39 19.063C409.33 18.8693 409.218 18.7054 409.054 18.5713C408.89 18.4224 408.666 18.3106 408.382 18.2361C408.114 18.1467 407.763 18.102 407.33 18.102H401.039V21.2532ZM411.427 22.7506C411.979 22.8549 412.487 23.0114 412.95 23.22C413.412 23.4285 413.808 23.7042 414.136 24.0469C414.465 24.3747 414.718 24.7769 414.897 25.2537C415.091 25.7156 415.188 26.2594 415.188 26.8852V29.0531C415.188 29.5745 415.211 29.9396 415.256 30.1482C415.315 30.3568 415.382 30.5206 415.457 30.6398V30.7516H409.927C409.897 30.692 409.868 30.5802 409.838 30.4164C409.808 30.2525 409.793 29.9992 409.793 29.6565V28.2708C409.793 27.7345 409.741 27.28 409.636 26.9075C409.532 26.5351 409.353 26.2371 409.099 26.0136C408.86 25.7752 408.539 25.6039 408.136 25.4996C407.733 25.3953 407.241 25.3431 406.659 25.3431H401.039V30.7516H395.688V14.1239H408.047C409.599 14.1239 410.838 14.2654 411.763 14.5485C412.688 14.8316 413.39 15.1892 413.868 15.6213C414.36 16.0534 414.681 16.5376 414.83 17.074C414.979 17.6103 415.054 18.1244 415.054 18.616V18.8172C415.054 19.3685 414.957 19.8676 414.763 20.3146C414.569 20.7467 414.308 21.1266 413.979 21.4544C413.651 21.7822 413.263 22.0578 412.815 22.2813C412.382 22.4899 411.92 22.6463 411.427 22.7506Z" fill="black"/>
<path d="M434.586 14.1239V17.9456H423.929V20.3593H434.25V24.3151H423.929V26.8852H434.72V30.7516H418.623V14.1239H434.586Z" fill="black"/>
<path d="M441.82 23.6405L442.074 20.8469L439.752 22.4659L438.48 20.2437L441.024 19.0691L438.48 17.8945L439.752 15.6723L442.074 17.2914L441.82 14.4977H444.364L444.109 17.2914L446.431 15.6723L447.703 17.8945L445.159 19.0691L447.703 20.2437L446.431 22.4659L444.109 20.8469L444.364 23.6405H441.82Z" fill="black"/>
<path d="M457.496 18.3255H450.937V14.1239H469.384V18.3255H462.825V30.7516H457.496V18.3255Z" fill="black"/>
<path d="M477.736 21.2532H484.027C484.459 21.2532 484.81 21.216 485.079 21.1415C485.362 21.0521 485.586 20.9329 485.75 20.7839C485.915 20.6349 486.027 20.4636 486.086 20.2699C486.146 20.0762 486.176 19.875 486.176 19.6665V19.6218C486.176 19.4281 486.146 19.2418 486.086 19.063C486.027 18.8693 485.915 18.7054 485.75 18.5713C485.586 18.4224 485.362 18.3106 485.079 18.2361C484.81 18.1467 484.459 18.102 484.027 18.102H477.736V21.2532ZM488.124 22.7506C488.676 22.8549 489.183 23.0114 489.646 23.22C490.109 23.4285 490.504 23.7042 490.833 24.0469C491.161 24.3747 491.415 24.7769 491.594 25.2537C491.788 25.7156 491.885 26.2594 491.885 26.8852V29.0531C491.885 29.5745 491.907 29.9396 491.952 30.1482C492.012 30.3568 492.079 30.5206 492.153 30.6398V30.7516H486.624C486.594 30.692 486.564 30.5802 486.534 30.4164C486.504 30.2525 486.489 29.9992 486.489 29.6565V28.2708C486.489 27.7345 486.437 27.28 486.333 26.9075C486.228 26.5351 486.049 26.2371 485.795 26.0136C485.556 25.7752 485.236 25.6039 484.833 25.4996C484.43 25.3953 483.937 25.3431 483.355 25.3431H477.736V30.7516H472.385V14.1239H484.743C486.295 14.1239 487.534 14.2654 488.459 14.5485C489.385 14.8316 490.086 15.1892 490.564 15.6213C491.056 16.0534 491.377 16.5376 491.527 17.074C491.676 17.6103 491.75 18.1244 491.75 18.616V18.8172C491.75 19.3685 491.653 19.8676 491.459 20.3146C491.265 20.7467 491.004 21.1266 490.676 21.4544C490.347 21.7822 489.959 22.0578 489.512 22.2813C489.079 22.4899 488.616 22.6463 488.124 22.7506Z" fill="black"/>
<path d="M504.409 17.9903L501.678 24.2033H507.207L504.409 17.9903ZM508.842 27.8686H500.043L498.767 30.7516H493.416L500.984 14.1239H508.036L515.849 30.7516H510.14L508.842 27.8686Z" fill="black"/>
<path d="M526.084 31.0421C524.696 31.0421 523.502 30.9527 522.502 30.7739C521.502 30.5951 520.659 30.3568 519.972 30.0588C519.286 29.7608 518.733 29.4181 518.316 29.0307C517.913 28.6433 517.599 28.241 517.375 27.8239C517.151 27.4067 517.002 26.9969 516.927 26.5947C516.868 26.1775 516.838 25.7901 516.838 25.4325V25.2314H522.614C522.629 25.4102 522.674 25.6262 522.748 25.8795C522.823 26.1179 522.98 26.3488 523.219 26.5723C523.472 26.7958 523.838 26.9895 524.316 27.1534C524.793 27.3173 525.45 27.3992 526.286 27.3992H526.42C527.226 27.3992 527.868 27.3471 528.345 27.2428C528.838 27.1385 529.211 27.0044 529.465 26.8405C529.733 26.6766 529.905 26.4904 529.98 26.2818C530.054 26.0732 530.092 25.8646 530.092 25.656C530.092 25.4325 530.047 25.2314 529.957 25.0526C529.883 24.8738 529.726 24.7173 529.487 24.5832C529.248 24.4492 528.913 24.3449 528.48 24.2704C528.062 24.181 527.51 24.1288 526.823 24.1139L524.539 24.0469C523.077 24.0022 521.86 23.8457 520.89 23.5775C519.935 23.2944 519.174 22.9294 518.607 22.4824C518.039 22.0206 517.636 21.4991 517.398 20.918C517.159 20.3369 517.039 19.726 517.039 19.0854V18.8842C517.039 18.1989 517.159 17.5582 517.398 16.9622C517.636 16.3513 518.077 15.8224 518.719 15.3754C519.375 14.9135 520.263 14.556 521.383 14.3027C522.517 14.0345 523.972 13.9004 525.748 13.9004H526.599C528.524 13.9004 530.069 14.0568 531.233 14.3697C532.398 14.6677 533.286 15.0625 533.898 15.5542C534.524 16.0459 534.935 16.5897 535.129 17.1857C535.338 17.7817 535.442 18.3702 535.442 18.9513V19.1301H529.756C529.726 18.9513 529.666 18.765 529.577 18.5713C529.487 18.3777 529.316 18.1989 529.062 18.035C528.823 17.8562 528.48 17.7146 528.032 17.6103C527.584 17.4911 526.987 17.4315 526.241 17.4315H526.039C525.323 17.4315 524.741 17.4688 524.293 17.5433C523.86 17.6029 523.517 17.6923 523.263 17.8115C523.01 17.9307 522.838 18.0722 522.748 18.2361C522.659 18.4 522.614 18.5862 522.614 18.7948C522.614 18.9885 522.651 19.1673 522.726 19.3312C522.816 19.4951 522.972 19.6441 523.196 19.7782C523.435 19.8974 523.756 20.0017 524.159 20.0911C524.562 20.1656 525.077 20.2103 525.704 20.2252L528.054 20.2922C529.607 20.3369 530.875 20.4934 531.86 20.7616C532.86 21.0148 533.644 21.3575 534.211 21.7896C534.793 22.2068 535.189 22.7059 535.398 23.287C535.621 23.8681 535.733 24.5162 535.733 25.2314V25.4996C535.733 25.9316 535.689 26.3712 535.599 26.8182C535.524 27.2502 535.368 27.6749 535.129 28.092C534.905 28.4943 534.584 28.8743 534.166 29.2319C533.748 29.5894 533.204 29.9023 532.532 30.1705C531.86 30.4387 531.047 30.6473 530.092 30.7963C529.136 30.9602 528.002 31.0421 526.689 31.0421H526.084Z" fill="black"/>
<path d="M538.98 14.1239H544.331V20.1358H553.174V14.1239H558.525V30.7516H553.174V24.2704H544.331V30.7516H538.98V14.1239Z" fill="black"/>
</svg>
