<svg width="1440" height="65" viewBox="0 0 1440 65" fill="none" xmlns="http://www.w3.org/2000/svg">
<path d="M587 12.2305V53.1805H591.29V12.2305H587Z" fill="#F4F4F4"/>
<path d="M593.44 12.2305V53.1805H595.59V12.2305H593.44Z" fill="#F4F4F4"/>
<path d="M599.88 12.2305V53.1805H602.03V12.2305H599.88Z" fill="#F4F4F4"/>
<path d="M610.61 12.2305V53.1805H614.9V12.2305H610.61Z" fill="#F4F4F4"/>
<path d="M621.34 12.2305V53.1805H623.49V12.2305H621.34Z" fill="#F4F4F4"/>
<path d="M629.93 33.3799V53.1899H632.08V33.3799H629.93Z" fill="#F4F4F4"/>
<path d="M634.22 33.3799V53.1899H636.37V33.3799H634.22Z" fill="#F4F4F4"/>
<path d="M645.49 33.3799V53.1899H647.64V33.3799H645.49Z" fill="#F4F4F4"/>
<path d="M649.78 33.3799V53.1899H651.93V33.3799H649.78Z" fill="#F4F4F4"/>
<path d="M658.37 33.3799V53.1899H662.66V33.3799H658.37Z" fill="#F4F4F4"/>
<path d="M666.96 33.3799V53.1899H669.11V33.3799H666.96Z" fill="#F4F4F4"/>
<path d="M675.54 33.3799V53.1899H677.69V33.3799H675.54Z" fill="#F4F4F4"/>
<path d="M681.98 33.3799V53.1899H686.27V33.3799H681.98Z" fill="#F4F4F4"/>
<path d="M688.42 33.3799V53.1899H694.86V33.3799H688.42Z" fill="#F4F4F4"/>
<path d="M701.3 33.3799V53.1899H703.45V33.3799H701.3Z" fill="#F4F4F4"/>
<path d="M707.74 33.3799V53.1899H709.89V33.3799H707.74Z" fill="#F4F4F4"/>
<path d="M716.33 33.3799V53.1899H718.48V33.3799H716.33Z" fill="#F4F4F4"/>
<path d="M721.15 33.3799V53.1899H727.59V33.3799H721.15Z" fill="#F4F4F4"/>
<path d="M729.74 33.3799V53.1899H731.89V33.3799H729.74Z" fill="#F4F4F4"/>
<path d="M734.03 33.3799V53.1899H736.18V33.3799H734.03Z" fill="#F4F4F4"/>
<path d="M742.62 33.3799V53.1899H746.91V33.3799H742.62Z" fill="#F4F4F4"/>
<path d="M753.35 33.3799V53.1899H757.64V33.3799H753.35Z" fill="#F4F4F4"/>
<path d="M759.79 33.3799V53.1899H766.23V33.3799H759.79Z" fill="#F4F4F4"/>
<path d="M768.38 33.3799V53.1899H770.53V33.3799H768.38Z" fill="#F4F4F4"/>
<path d="M776.96 33.3799V53.1899H781.25V33.3799H776.96Z" fill="#F4F4F4"/>
<path d="M787.7 33.3799V53.1899H789.85V33.3799H787.7Z" fill="#F4F4F4"/>
<path d="M791.99 33.3799V53.1899H794.14V33.3799H791.99Z" fill="#F4F4F4"/>
<path d="M801.11 33.3799V53.1899H803.26V33.3799H801.11Z" fill="#F4F4F4"/>
<path d="M805.41 33.3799V53.1899H811.85V33.3799H805.41Z" fill="#F4F4F4"/>
<path d="M818.28 12.2305V53.1805H822.57V12.2305H818.28Z" fill="#F4F4F4"/>
<path d="M824.72 12.2305V53.1805H829.01V12.2305H824.72Z" fill="#F4F4F4"/>
<path d="M835.46 12.2305V53.1805H841.9V12.2305H835.46Z" fill="#F4F4F4"/>
<path d="M844.04 12.2305V53.1805H846.19V12.2305H844.04Z" fill="#F4F4F4"/>
<path d="M848.33 12.2305V53.1805H852.62V12.2305H848.33Z" fill="#F4F4F4"/>
<path d="M635.93 20.18H642.93C643.41 20.18 643.8 20.14 644.1 20.06C644.42 19.96 644.67 19.83 644.85 19.66C645.03 19.49 645.16 19.3 645.22 19.09C645.29 18.87 645.32 18.65 645.32 18.42V18.37C645.32 18.15 645.29 17.95 645.22 17.75C645.15 17.53 645.03 17.35 644.85 17.2C644.67 17.03 644.42 16.91 644.1 16.83C643.8 16.73 643.41 16.68 642.93 16.68H635.93V20.18ZM647.5 21.85C648.11 21.97 648.68 22.14 649.2 22.37C649.71 22.6 650.15 22.91 650.52 23.29C650.89 23.65 651.17 24.1 651.37 24.63C651.59 25.14 651.69 25.75 651.69 26.45V28.86C651.69 29.44 651.72 29.85 651.77 30.08C651.84 30.31 651.91 30.49 651.99 30.63V30.75H645.83C645.8 30.68 645.76 30.56 645.73 30.38C645.7 30.2 645.68 29.92 645.68 29.53V27.99C645.68 27.39 645.62 26.89 645.51 26.47C645.39 26.06 645.2 25.72 644.91 25.48C644.64 25.21 644.29 25.02 643.84 24.91C643.39 24.79 642.84 24.74 642.2 24.74H635.94V30.76H629.98V12.25H643.74C645.47 12.25 646.85 12.41 647.88 12.72C648.91 13.03 649.69 13.43 650.22 13.91C650.77 14.39 651.12 14.93 651.29 15.53C651.46 16.13 651.54 16.7 651.54 17.25V17.47C651.54 18.08 651.43 18.64 651.22 19.14C651 19.62 650.71 20.04 650.35 20.41C649.98 20.77 649.55 21.08 649.05 21.33C648.56 21.56 648.05 21.73 647.5 21.85Z" fill="#F4F4F4"/>
<path d="M673.27 12.25V16.5H661.41V19.19H672.9V23.59H661.41V26.45H673.42V30.75H655.51V12.25H673.27Z" fill="#F4F4F4"/>
<path d="M681.33 22.8402L681.61 19.7302L679.03 21.5302L677.61 19.0602L680.44 17.7502L677.61 16.4402L679.03 13.9702L681.61 15.7702L681.33 12.6602H684.16L683.88 15.7702L686.46 13.9702L687.88 16.4402L685.05 17.7502L687.88 19.0602L686.46 21.5302L683.88 19.7302L684.16 22.8402H681.33Z" fill="#F4F4F4"/>
<path d="M698.77 16.93H691.47V12.25H712V16.93H704.7V30.76H698.77V16.93Z" fill="#F4F4F4"/>
<path d="M721.3 20.18H728.3C728.78 20.18 729.17 20.14 729.47 20.06C729.78 19.96 730.03 19.83 730.22 19.66C730.4 19.49 730.53 19.3 730.59 19.09C730.66 18.87 730.69 18.65 730.69 18.42V18.37C730.69 18.15 730.66 17.95 730.59 17.75C730.52 17.53 730.4 17.35 730.22 17.2C730.04 17.03 729.79 16.91 729.47 16.83C729.17 16.73 728.78 16.68 728.3 16.68H721.3V20.18ZM732.86 21.85C733.47 21.97 734.04 22.14 734.55 22.37C735.07 22.6 735.5 22.91 735.87 23.29C736.24 23.65 736.52 24.1 736.72 24.63C736.94 25.14 737.04 25.75 737.04 26.45V28.86C737.04 29.44 737.06 29.85 737.11 30.08C737.18 30.31 737.25 30.49 737.33 30.63V30.75H731.18C731.15 30.68 731.11 30.56 731.08 30.38C731.05 30.2 731.03 29.92 731.03 29.53V27.99C731.03 27.39 730.97 26.89 730.86 26.47C730.74 26.06 730.54 25.72 730.26 25.48C729.99 25.21 729.64 25.02 729.19 24.91C728.74 24.79 728.19 24.74 727.54 24.74H721.29V30.76H715.33V12.25H729.09C730.82 12.25 732.2 12.41 733.23 12.72C734.26 13.04 735.04 13.43 735.57 13.91C736.12 14.39 736.47 14.93 736.64 15.53C736.81 16.13 736.89 16.7 736.89 17.25V17.47C736.89 18.08 736.78 18.64 736.57 19.14C736.35 19.62 736.06 20.04 735.7 20.41C735.33 20.77 734.9 21.08 734.4 21.33C733.93 21.56 733.41 21.73 732.86 21.85Z" fill="#F4F4F4"/>
<path d="M750.99 16.55L747.95 23.47H754.1L750.99 16.55ZM755.92 27.55H746.13L744.71 30.76H738.75L747.17 12.25H755.02L763.72 30.76H757.37L755.92 27.55Z" fill="#F4F4F4"/>
<path d="M775.11 31.08C773.57 31.08 772.24 30.98 771.12 30.78C770.01 30.58 769.07 30.32 768.3 29.98C767.54 29.65 766.92 29.27 766.46 28.84C766.01 28.41 765.66 27.96 765.41 27.5C765.16 27.04 764.99 26.58 764.91 26.13C764.84 25.67 764.81 25.23 764.81 24.84V24.62H771.24C771.26 24.82 771.31 25.06 771.39 25.34C771.47 25.61 771.65 25.86 771.91 26.11C772.19 26.36 772.6 26.57 773.13 26.76C773.66 26.94 774.39 27.03 775.32 27.03H775.47C776.37 27.03 777.08 26.97 777.61 26.86C778.16 26.74 778.57 26.59 778.86 26.41C779.16 26.23 779.35 26.02 779.43 25.79C779.51 25.56 779.55 25.33 779.55 25.09C779.55 24.84 779.5 24.62 779.4 24.42C779.32 24.22 779.14 24.05 778.88 23.9C778.61 23.75 778.24 23.63 777.76 23.55C777.29 23.45 776.68 23.39 775.92 23.38L773.38 23.31C771.75 23.26 770.4 23.09 769.32 22.79C768.26 22.47 767.41 22.07 766.78 21.57C766.15 21.06 765.7 20.48 765.43 19.83C765.16 19.18 765.03 18.5 765.03 17.79V17.55C765.03 16.79 765.16 16.07 765.43 15.41C765.69 14.73 766.19 14.14 766.9 13.64C767.63 13.13 768.62 12.73 769.87 12.45C771.13 12.15 772.75 12 774.73 12H775.68C777.82 12 779.54 12.17 780.84 12.52C782.14 12.85 783.13 13.29 783.81 13.84C784.51 14.39 784.96 14.99 785.18 15.66C785.41 16.32 785.53 16.98 785.53 17.63V17.83H779.2C779.17 17.63 779.1 17.42 779 17.21C778.9 16.99 778.71 16.8 778.43 16.61C778.16 16.41 777.78 16.25 777.28 16.14C776.78 16.01 776.12 15.94 775.29 15.94H775.07C774.27 15.94 773.63 15.98 773.13 16.06C772.65 16.13 772.27 16.23 771.98 16.36C771.7 16.49 771.51 16.65 771.41 16.83C771.31 17.01 771.26 17.22 771.26 17.45C771.26 17.67 771.3 17.86 771.38 18.05C771.48 18.23 771.65 18.4 771.9 18.55C772.17 18.68 772.52 18.8 772.97 18.9C773.42 18.98 773.99 19.03 774.69 19.05L777.31 19.12C779.04 19.17 780.45 19.34 781.55 19.64C782.66 19.92 783.54 20.3 784.17 20.78C784.82 21.24 785.26 21.8 785.49 22.45C785.74 23.1 785.86 23.82 785.86 24.61V24.91C785.86 25.39 785.81 25.88 785.71 26.38C785.63 26.86 785.45 27.33 785.19 27.8C784.94 28.25 784.58 28.67 784.12 29.07C783.65 29.47 783.05 29.82 782.3 30.11C781.55 30.41 780.65 30.64 779.58 30.81C778.52 30.99 777.25 31.08 775.79 31.08H775.11Z" fill="#F4F4F4"/>
<path d="M789.47 12.25H795.43V18.94H805.27V12.25H811.23V30.76H805.27V23.55H795.43V30.76H789.47V12.25Z" fill="#F4F4F4"/>
</svg>
