<svg width="239" height="38" viewBox="0 0 239 38" fill="none" xmlns="http://www.w3.org/2000/svg">
<path d="M0 0.708176V37.5H3.85696V0.708176H0Z" fill="black"/>
<path d="M5.78516 0.708176V37.5H7.71364V0.708176H5.78516Z" fill="black"/>
<path d="M11.5703 0.708176V37.5H13.4988V0.708176H11.5703Z" fill="black"/>
<path d="M21.2129 0.708176V37.5H25.0698V0.708176H21.2129Z" fill="black"/>
<path d="M30.8555 0.708176V37.5H32.7839V0.708176H30.8555Z" fill="black"/>
<path d="M38.5684 19.7057V37.5H40.4968V19.7057H38.5684Z" fill="black"/>
<path d="M42.4258 19.7057V37.5H44.3543V19.7057H42.4258Z" fill="black"/>
<path d="M52.5508 19.7057V37.5H54.4793V19.7057H52.5508Z" fill="black"/>
<path d="M56.4082 19.7057V37.5H58.3367V19.7057H56.4082Z" fill="black"/>
<path d="M64.123 19.7057V37.5H67.98V19.7057H64.123Z" fill="black"/>
<path d="M71.8359 19.7057V37.5H73.7644V19.7057H71.8359Z" fill="black"/>
<path d="M79.5488 19.7057V37.5H81.4773V19.7057H79.5488Z" fill="black"/>
<path d="M85.3359 19.7057V37.5H89.1929V19.7057H85.3359Z" fill="black"/>
<path d="M91.1211 19.7057V37.5H96.9065V19.7057H91.1211Z" fill="black"/>
<path d="M102.691 19.7057V37.5H104.62V19.7057H102.691Z" fill="black"/>
<path d="M108.477 19.7057V37.5H110.405V19.7057H108.477Z" fill="black"/>
<path d="M116.191 19.7057V37.5H118.12V19.7057H116.191Z" fill="black"/>
<path d="M120.529 19.7057V37.5H126.315V19.7057H120.529Z" fill="black"/>
<path d="M128.244 19.7057V37.5H130.173V19.7057H128.244Z" fill="black"/>
<path d="M132.102 19.7057V37.5H134.03V19.7057H132.102Z" fill="black"/>
<path d="M139.814 19.7057V37.5H143.671V19.7057H139.814Z" fill="black"/>
<path d="M149.457 19.7057V37.5H153.314V19.7057H149.457Z" fill="black"/>
<path d="M155.242 19.7057V37.5H161.028V19.7057H155.242Z" fill="black"/>
<path d="M162.957 19.7057V37.5H164.886V19.7057H162.957Z" fill="black"/>
<path d="M170.67 19.7057V37.5H174.527V19.7057H170.67Z" fill="black"/>
<path d="M180.312 19.7057V37.5H182.241V19.7057H180.312Z" fill="black"/>
<path d="M184.17 19.7057V37.5H186.098V19.7057H184.17Z" fill="black"/>
<path d="M192.365 19.7057V37.5H194.294V19.7057H192.365Z" fill="black"/>
<path d="M196.223 19.7057V37.5H202.008V19.7057H196.223Z" fill="black"/>
<path d="M207.793 0.708176V37.5H211.65V0.708176H207.793Z" fill="black"/>
<path d="M213.58 0.708176V37.5H217.437V0.708176H213.58Z" fill="black"/>
<path d="M223.221 0.708176V37.5H229.006V0.708176H223.221Z" fill="black"/>
<path d="M230.936 0.708176V37.5H232.864V0.708176H230.936Z" fill="black"/>
<path d="M234.793 0.708176V37.5H238.65V0.708176H234.793Z" fill="black"/>
<path d="M43.964 7.85284H50.255C50.6879 7.85284 51.0386 7.81559 51.3073 7.7411C51.5909 7.6517 51.8147 7.53251 51.9789 7.38351C52.1431 7.23452 52.255 7.06318 52.3147 6.86948C52.3744 6.67579 52.4043 6.47465 52.4043 6.26606V6.22136C52.4043 6.02767 52.3744 5.84143 52.3147 5.66264C52.255 5.46894 52.1431 5.30505 51.9789 5.17095C51.8147 5.02196 51.5909 4.91022 51.3073 4.83572C51.0386 4.74632 50.6879 4.70162 50.255 4.70162H43.964V7.85284ZM54.352 9.35023C54.9043 9.45453 55.4117 9.61097 55.8744 9.81956C56.3371 10.0282 56.7326 10.3038 57.061 10.6465C57.3893 10.9743 57.6431 11.3765 57.8222 11.8533C58.0162 12.3152 58.1132 12.859 58.1132 13.4848V15.6527C58.1132 16.1741 58.1356 16.5392 58.1804 16.7478C58.2401 16.9564 58.3073 17.1203 58.3819 17.2395V17.3512H52.852C52.8222 17.2916 52.7923 17.1799 52.7625 17.016C52.7326 16.8521 52.7177 16.5988 52.7177 16.2561V14.8705C52.7177 14.3341 52.6655 13.8796 52.561 13.5072C52.4565 13.1347 52.2774 12.8367 52.0237 12.6132C51.7849 12.3748 51.464 12.2035 51.061 12.0992C50.658 11.9949 50.1655 11.9427 49.5834 11.9427H43.964V17.3512H38.6133V0.723491H50.9715C52.5237 0.723491 53.7625 0.865035 54.6879 1.14812C55.6132 1.43121 56.3147 1.7888 56.7923 2.22088C57.2849 2.65296 57.6058 3.13719 57.755 3.67357C57.9043 4.20994 57.9789 4.72397 57.9789 5.21565V5.41679C57.9789 5.96807 57.8819 6.4672 57.6879 6.91418C57.4938 7.34626 57.2326 7.7262 56.9043 8.05399C56.5759 8.38177 56.1879 8.65741 55.7401 8.8809C55.3073 9.08949 54.8446 9.24594 54.352 9.35023Z" fill="black"/>
<path d="M77.5105 0.723491V4.54518H66.8538V6.95888H77.1747V10.9147H66.8538V13.4848H77.6448V17.3512H61.5479V0.723491H77.5105Z" fill="black"/>
<path d="M84.7443 10.2401L84.9987 7.4465L82.6772 9.06553L81.4052 6.84333L83.9493 5.66873L81.4052 4.49413L82.6772 2.27193L84.9987 3.89096L84.7443 1.09733H87.2884L87.034 3.89096L89.3555 2.27193L90.6275 4.49413L88.0834 5.66873L90.6275 6.84333L89.3555 9.06553L87.034 7.4465L87.2884 10.2401H84.7443Z" fill="black"/>
<path d="M100.421 4.92512H93.8616V0.723491H112.309V4.92512H105.75V17.3512H100.421V4.92512Z" fill="black"/>
<path d="M120.66 7.85284H126.951C127.384 7.85284 127.735 7.81559 128.004 7.7411C128.287 7.6517 128.511 7.53251 128.675 7.38351C128.839 7.23452 128.951 7.06318 129.011 6.86948C129.071 6.67579 129.101 6.47465 129.101 6.26606V6.22136C129.101 6.02767 129.071 5.84143 129.011 5.66264C128.951 5.46894 128.839 5.30505 128.675 5.17095C128.511 5.02196 128.287 4.91022 128.004 4.83572C127.735 4.74632 127.384 4.70162 126.951 4.70162H120.66V7.85284ZM131.048 9.35023C131.601 9.45453 132.108 9.61097 132.571 9.81956C133.033 10.0282 133.429 10.3038 133.757 10.6465C134.086 10.9743 134.339 11.3765 134.519 11.8533C134.713 12.3152 134.81 12.859 134.81 13.4848V15.6527C134.81 16.1741 134.832 16.5392 134.877 16.7478C134.936 16.9564 135.004 17.1203 135.078 17.2395V17.3512H129.548C129.519 17.2916 129.489 17.1799 129.459 17.016C129.429 16.8521 129.414 16.5988 129.414 16.2561V14.8705C129.414 14.3341 129.362 13.8796 129.257 13.5072C129.153 13.1347 128.974 12.8367 128.72 12.6132C128.481 12.3748 128.16 12.2035 127.757 12.0992C127.354 11.9949 126.862 11.9427 126.28 11.9427H120.66V17.3512H115.31V0.723491H127.668C129.22 0.723491 130.459 0.865035 131.384 1.14812C132.31 1.43121 133.011 1.7888 133.489 2.22088C133.981 2.65296 134.302 3.13719 134.451 3.67357C134.601 4.20994 134.675 4.72397 134.675 5.21565V5.41679C134.675 5.96807 134.578 6.4672 134.384 6.91418C134.19 7.34626 133.929 7.7262 133.601 8.05399C133.272 8.38177 132.884 8.65741 132.436 8.8809C132.004 9.08949 131.541 9.24594 131.048 9.35023Z" fill="black"/>
<path d="M147.334 4.58988L144.602 10.8029H150.132L147.334 4.58988ZM151.767 14.4682H142.968L141.692 17.3512H136.341L143.908 0.723491H150.961L158.774 17.3512H153.065L151.767 14.4682Z" fill="black"/>
<path d="M169.009 17.6417C167.621 17.6417 166.427 17.5523 165.427 17.3735C164.427 17.1948 163.584 16.9564 162.897 16.6584C162.211 16.3604 161.658 16.0177 161.24 15.6303C160.837 15.2429 160.524 14.8407 160.3 14.4235C160.076 14.0063 159.927 13.5966 159.852 13.1943C159.793 12.7771 159.763 12.3897 159.763 12.0321V11.831H165.539C165.554 12.0098 165.599 12.2258 165.673 12.4791C165.748 12.7175 165.905 12.9484 166.143 13.1719C166.397 13.3954 166.763 13.5891 167.24 13.753C167.718 13.9169 168.375 13.9988 169.21 13.9988H169.345C170.151 13.9988 170.793 13.9467 171.27 13.8424C171.763 13.7381 172.136 13.604 172.39 13.4401C172.658 13.2762 172.83 13.09 172.905 12.8814C172.979 12.6728 173.016 12.4642 173.016 12.2556C173.016 12.0321 172.972 11.831 172.882 11.6522C172.807 11.4734 172.651 11.3169 172.412 11.1829C172.173 11.0488 171.837 10.9445 171.405 10.87C170.987 10.7806 170.434 10.7284 169.748 10.7135L167.464 10.6465C166.002 10.6018 164.785 10.4453 163.815 10.1771C162.86 9.89406 162.099 9.52902 161.531 9.08204C160.964 8.62016 160.561 8.09868 160.322 7.51761C160.084 6.93653 159.964 6.32566 159.964 5.68498V5.48384C159.964 4.79847 160.084 4.1578 160.322 3.56182C160.561 2.95095 161.002 2.42202 161.643 1.97504C162.3 1.51316 163.188 1.15557 164.308 0.902282C165.442 0.634094 166.897 0.5 168.673 0.5H169.524C171.449 0.5 172.994 0.656443 174.158 0.96933C175.322 1.26732 176.21 1.66215 176.822 2.15383C177.449 2.64551 177.86 3.18934 178.054 3.78531C178.263 4.38129 178.367 4.96981 178.367 5.55089V5.72968H172.681C172.651 5.55089 172.591 5.36465 172.502 5.17095C172.412 4.97726 172.24 4.79847 171.987 4.63458C171.748 4.45579 171.404 4.31424 170.957 4.20995C170.509 4.09075 169.912 4.03115 169.166 4.03115H168.964C168.248 4.03115 167.666 4.0684 167.218 4.1429C166.785 4.2025 166.442 4.29189 166.188 4.41109C165.934 4.53028 165.763 4.67183 165.673 4.83572C165.584 4.99961 165.539 5.18585 165.539 5.39445C165.539 5.58814 165.576 5.76693 165.651 5.93082C165.74 6.09472 165.897 6.24371 166.121 6.3778C166.36 6.497 166.681 6.6013 167.084 6.69069C167.487 6.76519 168.002 6.80989 168.628 6.82479L170.979 6.89183C172.531 6.93653 173.8 7.09298 174.785 7.36116C175.785 7.61445 176.569 7.95714 177.136 8.38922C177.718 8.8064 178.113 9.30553 178.322 9.88661C178.546 10.4677 178.658 11.1158 178.658 11.831V12.0992C178.658 12.5312 178.613 12.9708 178.524 13.4178C178.449 13.8498 178.293 14.2745 178.054 14.6917C177.83 15.0939 177.509 15.4739 177.091 15.8315C176.673 16.189 176.128 16.5019 175.457 16.7701C174.785 17.0383 173.972 17.2469 173.016 17.3959C172.061 17.5598 170.927 17.6417 169.613 17.6417H169.009Z" fill="black"/>
<path d="M181.905 0.723491H187.256V6.73539H196.099V0.723491H201.45V17.3512H196.099V10.87H187.256V17.3512H181.905V0.723491Z" fill="black"/>
</svg>
