<svg width="266" height="42" viewBox="0 0 266 42" fill="none" xmlns="http://www.w3.org/2000/svg">
<path d="M0.189941 0.230469V41.1805H4.47992V0.230469H0.189941Z" fill="#F4F4F4"/>
<path d="M6.62988 0.230469V41.1805H8.77991V0.230469H6.62988Z" fill="#F4F4F4"/>
<path d="M13.0698 0.230469V41.1805H15.2198V0.230469H13.0698Z" fill="#F4F4F4"/>
<path d="M23.7998 0.230469V41.1805H28.0898V0.230469H23.7998Z" fill="#F4F4F4"/>
<path d="M34.5298 0.230469V41.1805H36.6797V0.230469H34.5298Z" fill="#F4F4F4"/>
<path d="M43.1201 21.3789V41.1889H45.2701V21.3789H43.1201Z" fill="#F4F4F4"/>
<path d="M47.4097 21.3789V41.1889H49.5597V21.3789H47.4097Z" fill="#F4F4F4"/>
<path d="M58.6802 21.3789V41.1889H60.8302V21.3789H58.6802Z" fill="#F4F4F4"/>
<path d="M62.9702 21.3789V41.1889H65.1202V21.3789H62.9702Z" fill="#F4F4F4"/>
<path d="M71.5601 21.3789V41.1889H75.85V21.3789H71.5601Z" fill="#F4F4F4"/>
<path d="M80.1499 21.3789V41.1889H82.2999V21.3789H80.1499Z" fill="#F4F4F4"/>
<path d="M88.73 21.3789V41.1889H90.88V21.3789H88.73Z" fill="#F4F4F4"/>
<path d="M95.1699 21.3789V41.1889H99.46V21.3789H95.1699Z" fill="#F4F4F4"/>
<path d="M101.61 21.3789V41.1889H108.05V21.3789H101.61Z" fill="#F4F4F4"/>
<path d="M114.49 21.3789V41.1889H116.64V21.3789H114.49Z" fill="#F4F4F4"/>
<path d="M120.93 21.3789V41.1889H123.08V21.3789H120.93Z" fill="#F4F4F4"/>
<path d="M129.52 21.3789V41.1889H131.67V21.3789H129.52Z" fill="#F4F4F4"/>
<path d="M134.34 21.3789V41.1889H140.78V21.3789H134.34Z" fill="#F4F4F4"/>
<path d="M142.93 21.3789V41.1889H145.08V21.3789H142.93Z" fill="#F4F4F4"/>
<path d="M147.22 21.3789V41.1889H149.37V21.3789H147.22Z" fill="#F4F4F4"/>
<path d="M155.81 21.3789V41.1889H160.1V21.3789H155.81Z" fill="#F4F4F4"/>
<path d="M166.54 21.3789V41.1889H170.83V21.3789H166.54Z" fill="#F4F4F4"/>
<path d="M172.98 21.3789V41.1889H179.42V21.3789H172.98Z" fill="#F4F4F4"/>
<path d="M181.57 21.3789V41.1889H183.72V21.3789H181.57Z" fill="#F4F4F4"/>
<path d="M190.15 21.3789V41.1889H194.44V21.3789H190.15Z" fill="#F4F4F4"/>
<path d="M200.89 21.3789V41.1889H203.04V21.3789H200.89Z" fill="#F4F4F4"/>
<path d="M205.18 21.3789V41.1889H207.33V21.3789H205.18Z" fill="#F4F4F4"/>
<path d="M214.3 21.3789V41.1889H216.45V21.3789H214.3Z" fill="#F4F4F4"/>
<path d="M218.6 21.3789V41.1889H225.04V21.3789H218.6Z" fill="#F4F4F4"/>
<path d="M231.47 0.230469V41.1805H235.76V0.230469H231.47Z" fill="#F4F4F4"/>
<path d="M237.91 0.230469V41.1805H242.2V0.230469H237.91Z" fill="#F4F4F4"/>
<path d="M248.65 0.230469V41.1805H255.09V0.230469H248.65Z" fill="#F4F4F4"/>
<path d="M257.23 0.230469V41.1805H259.38V0.230469H257.23Z" fill="#F4F4F4"/>
<path d="M261.52 0.230469V41.1805H265.81V0.230469H261.52Z" fill="#F4F4F4"/>
<path d="M49.1199 8.18H56.1199C56.5999 8.18 56.9899 8.14 57.2899 8.06C57.6099 7.96 57.8599 7.83 58.0399 7.66C58.2199 7.49 58.3499 7.3 58.4099 7.09C58.4799 6.87 58.5099 6.65 58.5099 6.42V6.37C58.5099 6.15 58.4799 5.95 58.4099 5.75C58.3399 5.53 58.2199 5.35 58.0399 5.2C57.8599 5.03 57.6099 4.91 57.2899 4.83C56.9899 4.73 56.5999 4.68 56.1199 4.68H49.1199V8.18ZM60.6899 9.85C61.2999 9.97 61.87 10.14 62.39 10.37C62.9 10.6 63.34 10.91 63.71 11.29C64.08 11.65 64.3599 12.1 64.5599 12.63C64.7799 13.14 64.8799 13.75 64.8799 14.45V16.86C64.8799 17.44 64.91 17.85 64.96 18.08C65.03 18.31 65.0999 18.49 65.1799 18.63V18.75H59.02C58.99 18.68 58.9499 18.56 58.9199 18.38C58.8899 18.2 58.8699 17.92 58.8699 17.53V15.99C58.8699 15.39 58.81 14.89 58.7 14.47C58.58 14.06 58.3899 13.72 58.0999 13.48C57.8299 13.21 57.48 13.02 57.03 12.91C56.58 12.79 56.03 12.74 55.39 12.74H49.1299V18.76H43.1699V0.25H56.9299C58.6599 0.25 60.0399 0.41 61.0699 0.72C62.0999 1.03 62.8799 1.43 63.4099 1.91C63.9599 2.39 64.3099 2.93 64.4799 3.53C64.6499 4.13 64.7299 4.7 64.7299 5.25V5.47C64.7299 6.08 64.6199 6.64 64.4099 7.14C64.1899 7.62 63.8999 8.04 63.5399 8.41C63.1699 8.77 62.7399 9.08 62.2399 9.33C61.7499 9.56 61.2399 9.73 60.6899 9.85Z" fill="#F4F4F4"/>
<path d="M86.4597 0.25V4.5H74.5997V7.19H86.0897V11.59H74.5997V14.45H86.6097V18.75H68.6997V0.25H86.4597Z" fill="#F4F4F4"/>
<path d="M94.5198 10.8402L94.7998 7.73016L92.2198 9.53016L90.7998 7.06016L93.6298 5.75016L90.7998 4.44016L92.2198 1.97016L94.7998 3.77016L94.5198 0.660156H97.3498L97.0698 3.77016L99.6498 1.97016L101.07 4.44016L98.2398 5.75016L101.07 7.06016L99.6498 9.53016L97.0698 7.73016L97.3498 10.8402H94.5198Z" fill="#F4F4F4"/>
<path d="M111.96 4.93H104.66V0.25H125.19V4.93H117.89V18.76H111.96V4.93Z" fill="#F4F4F4"/>
<path d="M134.49 8.18H141.49C141.97 8.18 142.36 8.14 142.66 8.06C142.97 7.96 143.22 7.83 143.41 7.66C143.59 7.49 143.72 7.3 143.78 7.09C143.85 6.87 143.88 6.65 143.88 6.42V6.37C143.88 6.15 143.85 5.95 143.78 5.75C143.71 5.53 143.59 5.35 143.41 5.2C143.23 5.03 142.98 4.91 142.66 4.83C142.36 4.73 141.97 4.68 141.49 4.68H134.49V8.18ZM146.05 9.85C146.66 9.97 147.23 10.14 147.74 10.37C148.26 10.6 148.69 10.91 149.06 11.29C149.43 11.65 149.71 12.1 149.91 12.63C150.13 13.14 150.23 13.75 150.23 14.45V16.86C150.23 17.44 150.25 17.85 150.3 18.08C150.37 18.31 150.44 18.49 150.52 18.63V18.75H144.37C144.34 18.68 144.3 18.56 144.27 18.38C144.24 18.2 144.22 17.92 144.22 17.53V15.99C144.22 15.39 144.16 14.89 144.05 14.47C143.93 14.06 143.73 13.72 143.45 13.48C143.18 13.21 142.83 13.02 142.38 12.91C141.93 12.79 141.38 12.74 140.73 12.74H134.48V18.76H128.52V0.25H142.28C144.01 0.25 145.39 0.41 146.42 0.72C147.45 1.04 148.23 1.43 148.76 1.91C149.31 2.39 149.66 2.93 149.83 3.53C150 4.13 150.08 4.7 150.08 5.25V5.47C150.08 6.08 149.97 6.64 149.76 7.14C149.54 7.62 149.25 8.04 148.89 8.41C148.52 8.77 148.09 9.08 147.59 9.33C147.12 9.56 146.6 9.73 146.05 9.85Z" fill="#F4F4F4"/>
<path d="M164.18 4.55L161.14 11.47H167.29L164.18 4.55ZM169.11 15.55H159.32L157.9 18.76H151.94L160.36 0.25H168.21L176.91 18.76H170.56L169.11 15.55Z" fill="#F4F4F4"/>
<path d="M188.3 19.08C186.76 19.08 185.43 18.98 184.31 18.78C183.2 18.58 182.26 18.32 181.49 17.98C180.73 17.65 180.11 17.27 179.65 16.84C179.2 16.41 178.85 15.96 178.6 15.5C178.35 15.04 178.18 14.58 178.1 14.13C178.03 13.67 178 13.23 178 12.84V12.62H184.43C184.45 12.82 184.5 13.06 184.58 13.34C184.66 13.61 184.84 13.86 185.1 14.11C185.38 14.36 185.79 14.57 186.32 14.76C186.85 14.94 187.58 15.03 188.51 15.03H188.66C189.56 15.03 190.27 14.97 190.8 14.86C191.35 14.74 191.76 14.59 192.05 14.41C192.35 14.23 192.54 14.02 192.62 13.79C192.7 13.56 192.74 13.33 192.74 13.09C192.74 12.84 192.69 12.62 192.59 12.42C192.51 12.22 192.33 12.05 192.07 11.9C191.8 11.75 191.43 11.63 190.95 11.55C190.48 11.45 189.87 11.39 189.11 11.38L186.57 11.31C184.94 11.26 183.59 11.09 182.51 10.79C181.45 10.47 180.6 10.07 179.97 9.57C179.34 9.06 178.89 8.48 178.62 7.83C178.35 7.18 178.22 6.5 178.22 5.79V5.55C178.22 4.79 178.35 4.07 178.62 3.41C178.88 2.73 179.38 2.14 180.09 1.64C180.82 1.13 181.81 0.73 183.06 0.45C184.32 0.15 185.94 0 187.92 0H188.87C191.01 0 192.73 0.17 194.03 0.52C195.33 0.850001 196.32 1.29 197 1.84C197.7 2.39 198.15 2.99 198.37 3.66C198.6 4.32 198.72 4.98 198.72 5.63V5.83H192.39C192.36 5.63 192.29 5.42 192.19 5.21C192.09 4.99 191.9 4.8 191.62 4.61C191.35 4.41 190.97 4.25 190.47 4.14C189.97 4.01 189.31 3.94 188.48 3.94H188.26C187.46 3.94 186.82 3.98 186.32 4.06C185.84 4.13 185.46 4.23 185.17 4.36C184.89 4.49 184.7 4.65 184.6 4.83C184.5 5.01 184.45 5.22 184.45 5.45C184.45 5.67 184.49 5.86 184.57 6.05C184.67 6.23 184.84 6.4 185.09 6.55C185.36 6.68 185.71 6.8 186.16 6.9C186.61 6.98 187.18 7.03 187.88 7.05L190.5 7.12C192.23 7.17 193.64 7.34 194.74 7.64C195.85 7.92 196.73 8.3 197.36 8.78C198.01 9.24 198.45 9.8 198.68 10.45C198.93 11.1 199.05 11.82 199.05 12.61V12.91C199.05 13.39 199 13.88 198.9 14.38C198.82 14.86 198.64 15.33 198.38 15.8C198.13 16.25 197.77 16.67 197.31 17.07C196.84 17.47 196.24 17.82 195.49 18.11C194.74 18.41 193.84 18.64 192.77 18.81C191.71 18.99 190.44 19.08 188.98 19.08H188.3Z" fill="#F4F4F4"/>
<path d="M202.66 0.25H208.62V6.94H218.46V0.25H224.42V18.76H218.46V11.55H208.62V18.76H202.66V0.25Z" fill="#F4F4F4"/>
</svg>
