<svg width="27" height="27" viewBox="0 0 27 27" fill="none" xmlns="http://www.w3.org/2000/svg">
<path d="M23.641 25.7309L23.641 25.7309L23.6359 25.7259L18.0704 20.3822L17.9255 20.2431L17.7585 20.3545C15.8643 21.6181 13.7547 22.25 11.4231 22.25C9.90823 22.25 8.46118 21.9671 7.08002 21.4015C5.69538 20.8344 4.50568 20.0699 3.50785 19.109C2.51009 18.1482 1.7171 17.0035 1.12923 15.6724C0.542957 14.345 0.25 12.9549 0.25 11.5C0.25 10.0451 0.542957 8.65504 1.12923 7.32756C1.7171 5.99646 2.51009 4.85182 3.50785 3.89102C4.50568 2.93014 5.69538 2.1656 7.08002 1.59854C8.46118 1.0329 9.90823 0.75 11.4231 0.75C12.9379 0.75 14.385 1.0329 15.7661 1.59854C17.1508 2.1656 18.3405 2.93014 19.3383 3.89102C20.3361 4.85182 21.1291 5.99646 21.7169 7.32756C22.3032 8.65504 22.5962 10.0451 22.5962 11.5C22.5962 13.7391 21.942 15.7662 20.6312 17.5884L20.5047 17.7642L20.6607 17.9145L26.2262 23.2738C26.5779 23.6125 26.75 24.0164 26.75 24.5C26.75 24.9698 26.5751 25.3746 26.21 25.7262C25.8448 26.0779 25.4199 26.25 24.9231 26.25C24.4021 26.25 23.9807 26.0763 23.641 25.7309ZM18.9423 11.5C18.9423 9.50311 18.2021 7.79021 16.732 6.37461C15.2623 4.95929 13.488 4.25 11.4231 4.25C9.35817 4.25 7.5839 4.95929 6.11415 6.37461C4.6441 7.79021 3.90385 9.50311 3.90385 11.5C3.90385 13.4969 4.6441 15.2098 6.11415 16.6254C7.5839 18.0407 9.35817 18.75 11.4231 18.75C13.488 18.75 15.2623 18.0407 16.732 16.6254C18.2021 15.2098 18.9423 13.4969 18.9423 11.5Z" fill="black" stroke="#F4F4F4" stroke-width="0.5"/>
</svg>
