<svg width="457" height="402" viewBox="0 0 457 402" fill="none" xmlns="http://www.w3.org/2000/svg">
<path d="M194.561 95.8489C187.064 64.8735 176.249 34.8195 162.291 6.163C160.041 1.5439 154.614 -0.455109 149.697 1.03207C147.167 1.79708 144.612 2.47246 142.037 3.05702C134.741 4.7134 130.501 13.0983 134.209 19.5968C148.209 44.138 160.048 69.8133 169.603 96.3606C170.873 99.8919 169.955 103.795 167.595 106.713C150.435 127.929 146.496 157.157 150.385 183.635C154.562 212.079 166.84 238.54 176.574 265.531C181.083 277.906 184.955 291.74 179.927 304.125C173.491 319.797 154.722 327.663 137.423 329.387C120.123 331.11 102.585 328.372 85.4306 331.346C66.6708 334.469 48.7852 344.037 29.9205 343.385C21.6 343.088 12.1831 340.954 5.60547 345.975C-2.96171 352.199 -0.644645 366.206 7.75301 372.312C16.1506 378.419 27.5996 378.688 38.1907 377.732C60.9405 375.683 83.1398 369.395 105.185 363.155L182.929 341.089C192.882 338.271 203.196 335.256 210.963 328.518C221.973 318.921 225.112 304.59 225.551 290.007C225.783 282.304 233.534 277.825 237.676 284.324C242.673 292.162 245.216 302.026 246.798 311.305C249.368 326.366 251.416 342.849 262.555 353.549C279.596 369.978 308.275 364.859 330.545 373.376C343.387 378.264 353.759 387.629 365.983 393.768C380.985 401.232 398.257 403.642 415.113 400.625C421.309 399.847 427.157 397.256 431.861 393.202C440.252 384.968 438.639 370.776 430.968 362.168C423.297 353.56 411.426 349.983 399.841 348.096C388.256 346.21 376.287 345.905 365.11 342.51C350.972 338.188 337.721 329.078 322.893 330.409C322.385 330.454 321.884 330.557 321.388 330.676C317.964 331.502 314.418 331.621 310.986 331.028C309.985 330.855 309.027 330.476 308.206 329.879C305.45 327.872 303.417 325.069 302.405 321.843C297.374 310.948 293.068 299.74 289.512 288.286C288.007 283.581 286.749 278.189 289.15 273.897C293.657 266.378 305.958 268.116 312.301 274.029C318.643 279.942 321.906 288.42 328.302 294.235C341.505 306.22 363.452 303.253 380.175 295.352C396.898 287.452 412.021 275.606 429.908 271.345C440.949 268.746 455.931 266.143 456.914 255.294C457.64 246.958 448.606 241.379 440.279 239.869C405.375 233.609 371.043 266.264 336.258 259.318C312.883 254.638 297.921 233.573 284.866 214.492C257.115 173.854 227.302 134.633 195.425 96.8284" fill="#E6BA4E"/>
</svg>
