<svg width="720" height="462" viewBox="0 0 720 462" fill="none" xmlns="http://www.w3.org/2000/svg">
<path d="M679.568 0.560547C701.66 0.560547 719.568 18.4692 719.568 40.5605V421.817C719.568 443.909 701.66 461.817 679.568 461.817H305.335C258.582 461.817 214.415 453.1 175.208 437.645C128.719 419.301 98.1133 373.951 98.1133 323.413V139.018C98.1133 88.4801 128.772 43.1299 175.261 24.7865C214.4 9.33702 258.601 0.674131 305.282 0.667509C305.311 0.667504 305.335 0.643561 305.335 0.614026V0.614026C305.335 0.58449 305.359 0.560547 305.389 0.560547H679.568Z" fill="#2AA125"/>
<path d="M58 124H40C17.9086 124 0 141.909 0 164V323C0 345.091 17.9086 363 40 363H58C80.0914 363 98 345.091 98 323V164C98 141.909 80.0914 124 58 124Z" fill="#E8BA59"/>
</svg>
