<svg width="245" height="242" viewBox="0 0 245 242" fill="none" xmlns="http://www.w3.org/2000/svg">
<path d="M122.654 5.82031C146.769 5.82031 170.343 12.74 190.394 25.7044C210.445 38.6688 226.073 57.0956 235.301 78.6546C244.529 100.214 246.944 123.937 242.239 146.823C237.535 169.71 225.922 190.733 208.87 207.234C191.818 223.735 170.093 234.972 146.441 239.524C122.79 244.077 98.274 241.74 75.9946 232.81C53.7152 223.88 34.6727 208.757 21.2751 189.355C7.8775 169.952 0.726563 147.141 0.726562 123.806C0.726563 92.514 13.5725 62.504 36.4384 40.3774C59.3043 18.2509 90.3171 5.82031 122.654 5.82031Z" fill="#FC5400"/>
<path d="M109.618 8.58052L105.861 8.96281C101.932 9.36249 100.381 4.65582 104.125 3.40184C109.903 1.46683 115.952 -0.326641 119.677 0.0505856C123.402 0.427812 125.419 0.476422 129.069 1.34108C132.554 2.16652 134.577 3.12055 137.856 4.60444C140.215 5.67209 139.331 9.44984 136.749 9.24303L127.014 8.46307C125.322 8.32752 123.76 9.3762 123.245 10.9935L122.21 14.2433C120.989 18.0739 115.515 17.9128 114.522 14.017L113.899 11.5722C113.41 9.65245 111.589 8.38 109.618 8.58052Z" fill="#2AA125"/>
<path d="M179.759 226.207L145.84 212.737C142.41 211.375 142.496 206.492 145.971 205.252L197.044 187.027C199.578 186.123 200.515 183.025 198.907 180.868L161.202 130.297C158.836 127.124 162.023 122.809 165.751 124.138L222.261 144.269C225.007 145.247 227.844 143.053 227.588 140.149L223.457 93.3549C223.145 89.8293 227.229 87.6663 229.971 89.9048L240.82 98.763C241.454 99.2807 241.912 99.972 242.104 100.768C243.053 104.703 245.77 117.83 244.298 133.996C243.085 147.327 239.31 162.738 232.685 176.117C227.632 186.323 217.863 198.933 207.639 208.051C197.611 218.079 186.779 224.093 182.862 226.09C181.893 226.584 180.77 226.608 179.759 226.207Z" fill="#7DAB9A"/>
</svg>
