<svg width="727" height="465" viewBox="0 0 727 465" fill="none" xmlns="http://www.w3.org/2000/svg">
<path d="M595.218 423.38C595.057 445.47 577.019 463.261 554.928 463.116L204.495 460.82C92.0974 460.084 1.61395 365.82 2.45334 250.338L2.74761 209.855C3.58779 94.2644 95.4321 1.30418 207.829 2.04069L558.262 4.33698C580.353 4.48173 598.131 22.5072 597.971 44.598L597.539 103.978C597.482 111.912 603.867 118.386 611.801 118.438C619.736 118.49 626.215 112.1 626.272 104.166L626.334 95.6858C626.426 83.0679 636.729 72.9061 649.347 72.9888L655.546 73.0294C671.508 73.134 684.386 86.0992 684.382 102.061L684.334 309.798C684.329 331.893 666.41 349.812 644.314 349.817L624.487 349.822C608.618 349.718 595.66 362.498 595.545 378.366L595.218 423.38Z" fill="#6A38AB"/>
<rect width="323.559" height="100.806" rx="40" transform="matrix(-0.00726842 0.999974 -0.999979 -0.00655257 726.373 63.7031)" fill="#ED444E"/>
</svg>
