<svg width="481" height="210" viewBox="0 0 481 210" fill="none" xmlns="http://www.w3.org/2000/svg">
<path d="M232.45 102.645V98.5418L242.037 89.6656C242.852 88.8766 243.536 88.1665 244.088 87.5353C244.649 86.9042 245.074 86.2861 245.364 85.6812C245.653 85.0676 245.798 84.4057 245.798 83.6956C245.798 82.9066 245.618 82.2272 245.258 81.6574C244.899 81.0788 244.408 80.6361 243.786 80.3292C243.163 80.0136 242.457 79.8558 241.669 79.8558C240.844 79.8558 240.126 80.0224 239.512 80.3555C238.898 80.6887 238.425 81.1664 238.092 81.7889C237.759 82.4113 237.592 83.1521 237.592 84.0112H232.187C232.187 82.2491 232.586 80.7193 233.384 79.4219C234.182 78.1244 235.3 77.1207 236.737 76.4106C238.175 75.7005 239.832 75.3454 241.708 75.3454C243.637 75.3454 245.315 75.6873 246.744 76.3711C248.182 77.0461 249.3 77.9842 250.098 79.1852C250.895 80.3862 251.294 81.7626 251.294 83.3142C251.294 84.3312 251.093 85.3349 250.689 86.3256C250.295 87.3162 249.589 88.4164 248.572 89.6262C247.555 90.8272 246.122 92.2693 244.272 93.9525L240.34 97.8054V97.9895H251.649V102.645H232.45Z" fill="black"/>
<path d="M185.395 176.742V150.418H190.96V161.279H202.258V150.418H207.811V176.742H202.258V165.868H190.96V176.742H185.395Z" fill="black"/>
<path d="M221.731 176.742H212.399V150.418H221.808C224.456 150.418 226.735 150.945 228.646 151.999C230.557 153.044 232.027 154.548 233.055 156.51C234.092 158.473 234.61 160.821 234.61 163.554C234.61 166.296 234.092 168.653 233.055 170.623C232.027 172.594 230.548 174.107 228.62 175.161C226.701 176.215 224.404 176.742 221.731 176.742ZM217.965 171.973H221.5C223.145 171.973 224.529 171.682 225.651 171.099C226.782 170.508 227.631 169.595 228.196 168.361C228.77 167.119 229.057 165.516 229.057 163.554C229.057 161.609 228.77 160.019 228.196 158.786C227.631 157.552 226.787 156.643 225.664 156.061C224.542 155.478 223.158 155.187 221.512 155.187H217.965V171.973Z" fill="black"/>
<path d="M250.931 161.408V165.752H238.926V161.408H250.931Z" fill="black"/>
<path d="M255.699 176.742V150.418H266.085C268.081 150.418 269.782 150.799 271.187 151.562C272.593 152.316 273.664 153.366 274.401 154.711C275.146 156.048 275.519 157.59 275.519 159.338C275.519 161.086 275.142 162.629 274.388 163.965C273.634 165.302 272.541 166.343 271.11 167.089C269.688 167.834 267.966 168.207 265.943 168.207H259.324V163.747H265.044C266.115 163.747 266.997 163.563 267.691 163.194C268.394 162.817 268.917 162.299 269.259 161.639C269.611 160.971 269.786 160.204 269.786 159.338C269.786 158.464 269.611 157.702 269.259 157.05C268.917 156.39 268.394 155.881 267.691 155.521C266.989 155.152 266.098 154.968 265.018 154.968H261.265V176.742H255.699Z" fill="black"/>
<path d="M279.134 176.742V150.418H296.872V155.007H284.7V161.279H295.959V165.868H284.7V172.153H296.923V176.742H279.134Z" fill="black"/>
<path d="M247.175 64.6616C244.227 58.6055 241.424 52.6662 238.445 46.8196C237.277 44.5266 235.76 42.4022 234.312 40.2612C231.814 36.5667 228.21 34.4516 224.031 33.217C223.795 33.1466 223.561 33.0706 223.331 32.9853C223.288 32.9686 223.264 32.9001 223.176 32.7833C223.391 32.7684 223.555 32.748 223.719 32.748C234.375 32.748 245.031 32.753 255.688 32.7629C258.086 32.7559 260.463 33.2147 262.689 34.1142C266.149 35.5156 268.095 38.3111 269.621 41.5532C270.944 44.3671 272.385 47.1329 273.8 50.0006C275.274 49.3314 276.687 48.6807 278.109 48.0486C278.846 47.7242 279.571 47.4054 280.32 47.1218C281.07 46.8381 281.487 47.0699 281.61 47.8855C281.783 49.0107 281.426 50.0136 280.862 50.9682C278.867 54.3346 276.876 57.704 274.887 61.0765C272.945 64.365 270.986 67.648 269.072 70.9531C268.757 71.4963 268.418 71.6464 267.821 71.5964C262.164 71.1194 256.507 70.6584 250.849 70.2135C248.31 70.0096 245.773 69.8187 243.234 69.6148C241.944 69.511 241.26 68.573 241.809 67.5757C241.994 67.2346 242.408 66.9714 242.773 66.786C244.19 66.076 245.629 65.405 247.175 64.6616Z" fill="black"/>
<path d="M189.478 79.8307C188.002 78.9372 186.557 78.0712 185.12 77.1961C184.647 76.9093 184.116 76.6739 183.743 76.2878C183.44 75.9789 183.114 75.4255 183.199 75.0781C183.311 74.6239 183.752 74.1716 184.177 73.8977C184.502 73.6863 185.007 73.7139 185.432 73.6955C193.514 73.5116 201.596 73.3278 209.677 73.1182C210.415 73.0998 210.749 73.3406 211.081 73.9657C214.709 80.8125 218.379 87.6372 222.014 94.4821C222.373 95.153 222.635 95.871 222.793 96.6148C222.861 96.9458 222.636 97.5341 222.365 97.6849C222.168 97.7744 221.953 97.8195 221.736 97.817C221.519 97.8144 221.305 97.7643 221.11 97.6702C219.512 96.7656 217.973 95.7728 216.346 94.78C216.196 94.9358 216.057 95.101 215.929 95.2745C211.539 102.142 207.175 109.027 202.759 115.877C200.144 119.937 199.502 124.314 200.404 128.984C200.457 129.215 200.432 129.457 200.332 129.672C199.542 128.308 198.753 126.943 197.965 125.578C193.062 117.054 188.229 108.49 183.228 100.022C181.104 96.4292 181.091 93.0499 183.302 89.5861C185.249 86.5402 187.196 83.4931 189.141 80.4448C189.253 80.272 189.342 80.0826 189.478 79.8307Z" fill="black"/>
<path d="M259.646 107.552C259.975 107.589 260.095 107.614 260.215 107.614C267.754 107.605 275.293 107.67 282.831 107.555C287.079 107.493 291.249 106.817 294.824 104.255C296.263 103.22 297.578 102.014 298.984 100.857C298.731 101.346 298.487 101.846 298.219 102.333C292.662 112.422 287.075 122.495 281.556 132.606C279.768 135.88 277.1 137.614 273.4 137.688C269.74 137.762 266.077 137.747 262.417 137.715C261.598 137.715 261.36 137.941 261.386 138.754C261.445 140.599 261.386 142.443 261.412 144.288C261.412 144.928 261.268 145.428 260.631 145.706C259.993 145.985 259.415 145.917 258.93 145.439C258.528 145.06 258.168 144.64 257.855 144.185C253.511 137.555 249.183 130.914 244.871 124.262C244.788 124.102 244.743 123.926 244.738 123.746C244.733 123.566 244.768 123.387 244.841 123.222C248.885 116.157 252.948 109.101 257.031 102.055C257.4 101.413 257.873 100.931 258.63 101.064C259.45 101.206 259.633 101.922 259.646 102.621C259.661 104.242 259.646 105.866 259.646 107.552Z" fill="black"/>
<path d="M238.349 108.516C238.704 108.53 238.964 108.837 238.964 109.192V136.587C238.964 137.211 238.459 137.716 237.835 137.716V137.716C229.301 137.716 220.766 137.648 212.23 137.746C207.547 137.802 205.256 135.615 204.351 130.936C203.192 124.938 204.609 119.548 208.087 114.619C209.376 112.806 210.546 110.922 211.821 109.105C211.943 108.945 212.096 108.812 212.271 108.714C212.446 108.617 212.639 108.556 212.838 108.537C221.343 108.507 229.847 108.5 238.349 108.516V108.516Z" fill="black"/>
<path d="M259.301 80.3861C259.096 80.0574 259.231 79.6221 259.566 79.4276L283.3 65.6382C283.464 65.5427 283.674 65.5852 283.791 65.7356C283.93 65.9154 284.065 66.0909 284.186 66.2757C288.75 73.2374 293.312 80.1998 297.872 87.1628C299.856 90.1921 299.899 93.2696 297.741 96.2027C295.204 99.6392 291.908 102.124 287.708 103.222C286.933 103.423 286.136 103.528 285.335 103.533C281.598 103.564 277.861 103.533 274.126 103.559C273.533 103.559 273.2 103.394 272.883 102.868C268.372 95.3638 263.845 87.8697 259.301 80.3861V80.3861Z" fill="black"/>
<path d="M228.603 68.3986C225.589 73.0733 219.33 74.3742 214.72 71.2614L203.749 63.8523C201.282 62.1865 200.556 58.8664 202.127 56.3385V56.3385C205.598 50.7526 209.135 45.2057 212.52 39.5678C214.023 37.0628 216.208 36.1188 218.921 35.8364C223.391 35.37 226.656 37.546 229.457 40.6846C232.948 44.5999 235.301 49.2326 237.387 53.9971C237.513 54.2833 237.301 54.8166 237.096 55.14C234.28 59.57 231.449 63.9896 228.603 68.3986V68.3986Z" fill="black"/>
</svg>
