<svg width="1683" height="487" viewBox="0 0 1683 487" fill="none" xmlns="http://www.w3.org/2000/svg">
<g clip-path="url(#clip0_92_284)">
<path d="M340.586 396.797C327.719 396.797 314.853 396.797 301.978 396.797C290.37 396.797 280.357 403.166 277.428 416.792C274.91 428.575 272.509 440.592 268.094 451.729C261.581 468.162 248.95 478.47 231.282 482.366C217.853 485.333 204.885 484.52 192.615 478.059C184.616 473.869 178.346 467.383 173.554 459.983C168.266 451.804 164.086 442.896 159.655 434.181C154.308 423.656 146.729 417.555 134.299 417.019C118.981 416.348 103.588 416.926 88.2958 415.904C75.5466 415.066 62.6127 415.988 50.0817 411.982C24.3902 403.778 5.74056 386.842 1.17467 358.66C-1.9308 339.52 1.04039 321.268 11.1458 304.474C23.7859 283.474 36.4904 262.523 49.2592 241.623C53.3383 234.919 52.1212 221.788 46.2544 216.073C41.1262 211.045 35.4608 206.62 30.3074 201.642C21.2176 192.843 13.0007 183.206 9.06428 171.013C6.21143 161.971 6.13542 152.284 8.84604 143.199C12.2872 131.14 17.961 120.431 27.9825 112.495C35.0327 106.914 43.0902 103.067 52.0373 102.439C62.1003 101.844 72.1897 101.844 82.2528 102.439C92.1987 102.925 102.304 103.821 109.866 96.0614C114.718 91.1004 118.411 84.9495 122.246 79.0834C129.708 67.6614 137.253 56.2728 144.068 44.4737C148.668 36.5377 153.695 29.0711 160.108 22.5346C174.796 7.50912 192.228 -1.44079 213.639 0.235226C227.136 1.26598 239.558 6.10129 250.779 13.9618C264.334 23.4816 273.441 36.3618 280.911 50.8342C288.381 65.3066 296.505 79.427 304.336 93.7066C306.015 96.7151 307.517 99.7906 309.288 102.715C315.029 112.21 323.086 115.16 333.863 111.741C343.314 108.749 352.63 105.313 362.19 102.749C375.754 99.1034 389.418 99.3967 401.739 106.637C417.686 116.014 428.513 129.322 431.3 148.362C432.894 159.256 430.46 169.312 425.668 178.681C420.859 187.967 415.509 196.963 409.645 205.623C403.048 215.536 404.081 225.391 409.301 234.953C419.13 252.995 429.629 270.677 439.6 288.636C447.964 303.339 451.427 320.317 449.488 337.115C448.136 348.956 443.218 359.59 435.303 368.959C422.932 383.666 407.035 391.753 388.679 395.725C385.288 396.421 381.835 396.772 378.372 396.772C365.766 396.873 353.176 396.797 340.586 396.797ZM280.793 397.032L280.34 395.959C272.711 395.959 265.081 395.758 257.46 396.026C251.132 396.244 245.139 396.135 241.941 390.227L222.175 399.001V333.637H232.465L238.047 322.927H222.234V253.49H290.311L284.981 305.086C286.912 305.086 289.002 304.927 291.058 305.086C294.18 305.379 295.506 304.248 295.792 300.996C297.051 286.7 298.646 272.437 299.837 258.132C300.131 254.571 300.987 252.978 304.949 253.012C326.074 253.18 347.192 253.087 368.317 253.104C369.643 253.104 370.969 253.247 372.606 253.347C372.363 278.487 364.893 301.114 353.722 323.069C354.413 323.252 355.117 323.381 355.828 323.455C365.48 323.455 375.133 323.455 384.785 323.522C385.951 323.522 387.479 323.639 388.184 324.36C388.889 325.081 389.594 327.268 389.149 327.712C387.966 328.969 386.17 330.436 384.634 330.427C372.044 330.369 359.538 329.706 346.999 329.824C339.187 330.021 331.616 327.116 325.949 321.745C321.257 317.505 315.726 314.53 309.372 313.843C299.476 312.787 289.539 312.066 279.61 311.329C278.092 311.279 276.581 311.566 275.187 312.167C272.299 313.34 270.99 315.871 272.82 318.351C274.342 320.166 276.5 321.332 278.854 321.611C284.134 322.072 289.489 321.553 294.801 321.921C296.102 322.014 298.217 323.949 298.234 325.072C298.251 326.195 296.295 328.634 295.188 328.642C285.72 328.726 276.244 328.349 266.777 328.198C259.508 328.081 252.231 327.88 244.954 328.156C242.193 328.265 240.64 330.578 240.758 333.452C240.875 336.327 242.52 337.575 245.34 337.701C249.915 337.894 254.481 338.388 259.047 338.48C265.761 338.623 272.476 338.346 279.19 338.665C280.659 338.732 282.044 340.575 283.462 341.598C282.187 342.913 281.053 344.447 279.568 345.461C278.796 345.989 277.394 345.595 276.278 345.595C264.947 345.595 253.616 345.595 242.285 345.595C237.98 345.595 235.646 348.47 237.669 351.998C238.634 353.674 241.647 355.065 243.771 355.123C254.951 355.425 266.147 355.35 277.344 355.207C280.424 355.207 282.321 356.297 284.008 360.109C281.414 360.947 279.123 362.196 276.798 362.246C266.592 362.473 256.378 362.431 246.163 362.297C242.478 362.246 240.632 363.746 240.766 367.325C240.892 370.777 243.007 372.076 246.314 372.009C250.234 371.925 254.145 372.009 258.065 372.009C264.922 372.009 271.779 371.833 278.619 372.168C280.021 372.235 281.708 374.029 282.497 375.453C282.858 376.107 281.591 377.967 280.651 378.914C280.139 379.417 278.779 379.082 277.805 379.082C269.546 379.082 261.296 379.04 253.045 379.082C249.848 379.082 246.406 381.973 247.17 384.202C247.934 386.431 249.185 388.803 252.718 388.82C265.534 388.87 278.359 389.473 291.184 389.532C317.337 389.658 343.499 389.406 369.652 389.641C381.881 389.758 393.497 388.107 404.819 383.071C418.383 377.163 429.646 366.997 436.898 354.118C442.454 344.455 443.142 333.846 442.53 323.111C441.991 312.4 438.965 301.96 433.692 292.616C429.89 285.912 426.138 279.133 422.352 272.412C416.377 261.845 410.602 251.16 404.307 240.777C396.216 227.369 396.057 212.109 404.307 200.628C411.215 190.974 418.156 181.228 421.647 169.773C423.621 163.64 424.605 157.233 424.56 150.792C424.266 140.853 419.348 132.356 413.036 124.814C404.391 114.489 393.547 108.146 379.782 107.727C370.827 107.458 362.299 109.738 353.814 112.352C342.256 115.914 331.312 122.651 318.428 119.149C323.464 133.16 333.335 143.543 342.139 154.663C351.03 165.956 358.064 178.589 362.979 192.089C366.79 202.455 368.997 213.466 371.297 224.327C372.472 229.883 372.296 235.724 372.757 241.783H337.842C326.654 241.783 315.465 241.783 304.269 241.783C301.751 241.783 299.946 241.565 299.896 238.288C299.804 231.911 299.669 225.509 299.057 219.165C298.217 210.399 296.875 201.667 295.59 192.944C295.431 191.871 294.289 190.932 293.601 189.935C292.695 190.597 291.772 191.242 290.882 191.921C289.992 192.6 289.052 193.681 287.961 194.175C285.67 195.198 284.981 196.338 285.896 198.986C286.811 201.634 286.626 204.433 286.92 207.173C287.583 213.483 288.347 219.743 288.859 226.112C289.27 231.14 289.363 236.26 289.606 241.489H222.301V171.323H241.681C240.38 168.918 239.255 167.443 238.752 165.775C237.484 161.585 234.555 160.898 230.736 161.267C227.899 161.535 225.012 161.317 221.915 161.317V155.585C221.915 137.426 221.965 119.274 221.84 101.115C221.812 98.7877 221.261 96.4968 220.228 94.4106C215.771 85.6366 210.996 77.0219 206.472 68.2731C205.414 66.22 202.712 63.6641 206.723 61.8121C210.576 60.0355 210.996 64.0412 212.775 65.7172C212.96 65.8932 212.968 66.2368 213.102 66.4714C218.978 76.9716 224.92 87.4216 230.56 97.9889C233.542 103.627 234.603 110.081 233.582 116.375C232.582 122.629 232.5 128.994 233.338 135.272C235.202 147.197 242.084 157.177 247.875 167.502C248.159 167.957 248.54 168.343 248.991 168.633C249.443 168.923 249.953 169.109 250.485 169.178C252.164 169.178 254.774 168.985 255.312 167.988C255.757 167.054 256.013 166.042 256.064 165.009C256.114 163.976 255.958 162.943 255.605 161.971C253.297 156.691 250.276 151.722 247.867 146.484C247.678 145.782 247.665 145.044 247.829 144.335C247.993 143.627 248.329 142.969 248.807 142.42C249.529 141.783 251.568 142.202 252.794 142.705C253.683 143.065 254.355 144.239 254.875 145.219C262.16 158.468 269.37 171.767 276.697 185.008C278.93 189.03 281.733 190.304 284.335 188.36C287.466 186.03 286.811 183.206 285.023 180.072C279.92 171.097 275.052 161.979 270.167 152.887C269.622 151.864 269.009 150.44 269.328 149.535C269.706 148.437 271.292 146.769 271.947 146.937C273.625 147.364 275.682 148.32 276.454 149.694C282.161 159.75 287.583 170.041 293.089 180.248C294.39 182.653 295.842 184.815 299.116 184.01C303.371 182.963 304.378 180.189 301.801 175.295C296.665 165.549 291.57 155.753 285.905 146.308C283.655 142.563 283.63 140.442 288.003 138.146C289.237 139.504 290.84 140.744 291.755 142.336C296.917 151.554 301.936 160.831 306.938 170.125C308.617 173.2 311.336 173.82 313.846 172.262C316.12 170.854 317.421 168.65 315.524 165.289C310.035 155.602 304.949 145.672 299.93 135.724C299.409 134.685 299.93 132.213 300.769 131.66C301.743 131.015 303.883 131.342 305.066 132.029C306.25 132.716 307.039 134.3 307.769 135.615C311.218 141.884 314.66 148.186 317.95 154.504C319.57 157.63 321.702 159.381 325.252 157.906C327.921 156.8 328.534 153.549 326.603 149.971C320.233 138.104 313.728 126.314 307.299 114.481C301.273 103.408 295.257 92.3295 289.254 81.2455C281.985 67.8373 275.212 54.161 267.314 41.1552C258.518 26.6828 245.802 16.5345 229.545 10.8528C218.826 7.09852 207.957 5.59847 196.954 8.47283C177.49 13.5595 163.583 25.9788 153.158 42.7725C142.113 60.5718 131.336 78.5387 119.628 95.919C113.291 105.338 103.236 109.989 91.8545 110.039C81.0357 110.098 70.2001 108.43 59.4065 108.757C52.8025 109.072 46.3104 110.58 40.2449 113.207C27.8482 118.436 21.0329 129.004 16.6936 141.238C12.4971 153.147 13.135 164.996 18.9263 176.15C24.5581 187.044 33.7486 195.047 42.6202 203.159C48.0422 208.12 53.9761 212.494 56.6116 219.751C57.2159 221.427 58.0636 223.003 59.2638 225.618C64.241 210.776 68.2278 196.773 73.6413 183.357C79.1724 169.655 87.7922 157.596 96.6051 146.811L144.06 164.795C143.624 166.412 142.935 168.491 142.499 170.661C139.729 184.379 136.951 198.106 134.374 211.866C134.19 212.863 135.382 214.38 136.305 215.276C138.923 217.791 141.744 220.145 144.102 222.215C144.732 217.187 145.185 210.885 146.385 204.701C148.618 193.254 151.421 181.915 153.695 170.477C154.426 166.865 156.448 166.396 159.386 166.965C174.905 169.999 190.525 172.06 206.388 171.784C210.274 171.717 211.424 172.932 211.424 176.812C211.256 197.058 211.348 217.313 211.331 237.559C211.331 238.892 211.197 240.224 211.13 241.481H142.935L143.951 230.662L143.288 230.47L132.066 249.249C134.676 250.925 137.413 251.948 139.175 253.884C143.674 258.794 143.254 263.755 138.663 271.13C136.59 274.482 133.451 277.406 134.131 281.915C134.811 286.423 135.272 291.217 136.196 295.792C138.554 307.524 141.122 319.257 143.498 330.452L96.7393 348.461L82.58 329.187C77.9806 336.511 73.3476 343.684 68.9579 351.034C67.5647 353.372 65.5335 354.109 63.922 352.71C62.94 351.872 62.7722 348.729 63.5527 347.38C70.3596 335.556 77.0657 323.631 84.6867 312.335C87.6774 308.06 91.8512 304.749 96.6974 302.806C107.105 298.859 115.884 293.337 121.944 283.884C125.889 277.742 129.783 271.565 133.694 265.448C135.801 262.155 135.373 258.551 132.729 257.169C130.211 255.861 126.854 257.37 125.117 260.395C122.716 264.585 120.14 268.666 117.714 272.831C116.371 275.135 114.919 277.432 111.914 275.513C108.909 273.593 110.303 271.264 111.688 269.01C119.667 256.015 127.629 243.006 135.575 229.984C137.396 227 136.817 223.279 134.45 221.989C132.083 220.698 128.684 222.106 126.82 225.165C121.524 233.88 116.144 242.545 110.873 251.277C109.539 253.481 108.079 255.467 105.326 253.791C102.413 252.032 103.462 249.601 104.881 247.305C110.563 238.171 116.295 229.062 121.86 219.86C122.905 218.243 123.485 216.371 123.539 214.447C123.497 212.955 122.28 210.408 121.315 210.257C119.401 209.989 116.396 210.399 115.439 211.707C111.872 216.525 108.926 221.763 105.812 226.95C102.531 232.372 99.3328 237.844 96.0679 243.274C94.8173 245.353 93.2562 246.786 90.6711 245.26C88.086 243.735 88.875 241.825 90.1087 239.788C92.7526 235.431 95.2957 231.006 97.8724 226.606C100.936 221.369 103.974 216.115 107.105 210.894C108.616 208.321 107.944 205.866 105.527 204.919C103.848 204.248 101.507 204.986 99.5846 205.539C98.6782 205.799 97.906 207.022 97.3605 207.952C95.3377 211.246 93.4576 214.656 91.4852 217.925C88.128 223.464 84.8462 229.045 81.3127 234.475C80.0705 236.369 78.1568 237.903 75.706 235.925C73.6581 234.249 74.0946 232.573 75.4375 230.495C79.8103 223.64 83.7635 216.517 88.2119 209.712C90.2682 206.57 89.6723 203.737 87.2215 202.061C84.5944 200.268 81.6568 201.391 79.8859 204.332C78.3247 206.93 76.8307 209.57 75.2528 212.159C66.5995 226.355 57.8957 240.517 49.2843 254.73C39.9176 270.183 30.9788 285.887 21.226 301.089C10.1722 318.326 5.08592 336.645 8.28372 357.059C11.9012 380.104 25.3974 394.66 46.6825 403.292C59.9773 408.689 73.8764 408.01 87.5908 408.848C102.757 409.77 117.982 409.544 133.183 409.837C147.602 410.113 158.278 416.541 164.934 429.346C168.249 435.731 171.12 442.352 174.62 448.62C179.11 456.656 184.801 463.821 192.245 469.369C207.42 480.665 230.955 478.47 245.215 469.193C260.272 459.397 264.964 443.768 268.12 427.385C270.126 416.398 271.217 404.993 280.785 397.032H280.793Z" fill="#C5F700"/>
<path d="M142.742 253.129C164.85 253.129 186.186 253.129 207.513 253.129C210.509 253.129 211.348 254.386 211.34 257.168C211.273 277.839 211.273 298.487 211.34 319.114C211.34 322.315 210.031 323.136 207.059 323.144C191.112 323.144 175.367 325.097 159.73 328.08C156.44 328.709 154.552 328.365 153.41 324.192C149.062 308.27 145.638 292.155 144.572 275.588C144.127 268.28 143.397 261.015 142.742 253.129Z" fill="#C5F700"/>
<path d="M159.278 338.237L210.996 332.689V398.054C202.309 397.015 195.477 392.724 189.333 387.688C181.292 380.997 174.659 372.779 169.819 363.511C165.673 355.735 162.056 347.681 158.195 339.746L159.278 338.237Z" fill="#C5F700"/>
<path d="M211.071 97.3848C211.155 98.8178 211.298 100.033 211.298 101.24C211.298 119.676 211.205 138.053 211.39 156.456C211.432 160.411 210.081 161.484 206.295 161.383C190.737 160.986 175.242 159.25 159.982 156.196C159.567 156.028 159.168 155.824 158.79 155.584C159.697 153.146 160.469 150.556 161.585 148.168C167.997 134.324 175.283 121.025 186.555 110.407C193.429 103.938 201.31 99.2368 211.071 97.3848Z" fill="#C5F700"/>
<path d="M147.619 153.649C133.023 149.459 118.973 145.344 106.006 138.204C116.363 121 170.432 92.5246 189.266 94.3766C167.93 109.05 157.095 130.889 147.619 153.649Z" fill="#C5F700"/>
<path d="M187.176 401.02C155.685 394.643 128.424 380.657 105.444 357.352C118.114 350.655 131.575 345.571 145.513 342.217C146.453 341.991 148.584 343.893 149.138 345.226C154.51 358.273 160.251 371.145 169.374 382.098C174.83 388.593 181.007 394.501 187.176 401.02Z" fill="#C5F700"/>
<path d="M65.1984 159.967C60.0366 170.945 46.532 177.23 42.881 174.431C41.6136 173.459 41.2443 171.163 41.899 169.613C43.3258 166.261 49.0415 167.819 54.8832 163.747C63.7883 157.529 64.4934 146.609 59.4827 137.617C58.3832 135.64 54.4468 133.21 58.4755 130.913C58.8038 130.684 59.1755 130.523 59.5679 130.441C59.9603 130.359 60.3653 130.357 60.7584 130.436C62.3195 130.872 63.2344 132.95 63.78 134.886C66.8519 145.595 68.7823 152.333 65.1984 159.967Z" fill="#C5F700"/>
<path d="M399.129 161.132C399.677 161.789 399.987 162.612 400.008 163.467C400.029 164.321 399.761 165.158 399.246 165.842C398.306 167.057 396.561 167.141 394.303 167.191C386.464 167.342 380.035 164.786 375.41 160.596C367.101 153.054 366.102 141.682 367.906 134.76C368.2 133.654 369.744 127.738 372.271 127.612C373.58 127.545 374.638 129.07 374.789 129.288C377.735 133.637 371.045 139.135 372.271 146.886C373.177 152.618 377.869 156.104 379.044 157.034C385.801 162.121 393.648 160.571 394.932 160.294C395.634 159.991 396.412 159.909 397.162 160.059C397.912 160.209 398.598 160.583 399.129 161.132Z" fill="#C5F700"/>
<path d="M239.885 439.234C237.368 439.334 236.604 435.647 233.49 433.686C226.868 429.496 219.658 429.027 213.699 431.591C209.074 433.594 207.983 439.971 202.788 443.449C201.78 444.128 200.396 444.882 199.43 444.379C198.465 443.876 198.255 442.1 198.222 441.597C197.911 436.678 207.698 424.56 220.548 424.77C225.677 424.74 230.73 426.008 235.236 428.457C238.039 430.049 244.015 432.739 243.629 435.915C243.445 436.797 242.981 437.595 242.307 438.193C241.633 438.791 240.784 439.156 239.885 439.234Z" fill="#C5F700"/>
<path d="M380.487 123.908C380.47 123.172 380.598 122.44 380.866 121.754C381.134 121.068 381.536 120.442 382.049 119.913C382.561 119.384 383.173 118.961 383.851 118.67C384.528 118.379 385.256 118.225 385.993 118.218C386.726 118.221 387.451 118.369 388.127 118.653C388.802 118.937 389.415 119.351 389.93 119.872C390.445 120.393 390.851 121.01 391.126 121.688C391.401 122.367 391.54 123.092 391.533 123.824C391.498 125.265 390.907 126.637 389.882 127.652C388.857 128.668 387.479 129.248 386.035 129.271C384.598 129.257 383.222 128.693 382.189 127.695C381.157 126.697 380.548 125.341 380.487 123.908Z" fill="#C5F700"/>
<path d="M402.31 152.283C402.31 148.931 404.585 146.861 408.186 146.676C411.912 146.492 412.919 149.19 413.473 151.847C414.027 154.503 410.888 157.554 408.11 157.654C405.332 157.755 402.319 154.939 402.31 152.283Z" fill="#C5F700"/>
<path d="M28.9064 168.021C26.657 167.836 24.7098 166.303 24.6175 162.917C24.5335 159.842 27.1354 156.917 30.0479 156.817C32.3476 156.741 35.6461 160.127 35.5873 162.507C35.5202 165.322 32.7505 167.996 28.9064 168.021Z" fill="#C5F700"/>
<path d="M201.235 454.083C201.755 453.577 202.373 453.183 203.052 452.925C203.73 452.667 204.454 452.551 205.18 452.583C208.453 452.524 211.441 455.189 211.147 458.072C211.071 459.01 210.775 459.917 210.283 460.72C208.822 462.815 205.457 464.29 202.729 462.815C199.582 461.089 199.204 456.354 201.235 454.083Z" fill="#C5F700"/>
<path d="M239.827 458.826C237.493 458.742 235.462 457.276 235.303 453.89C235.143 450.505 236.813 448.653 240.154 448.41C243.494 448.167 246.466 450.555 246.533 453.513C246.591 456.211 243.855 458.725 239.827 458.826Z" fill="#C5F700"/>
<path d="M45.3152 135.715C44.2057 135.881 43.0717 135.713 42.0591 135.23C41.0466 134.748 40.2016 133.974 39.633 133.008C39.1122 132.123 38.8506 131.11 38.8776 130.084C38.9784 127.57 41.0263 124.218 44.2492 124.218C47.4722 124.218 49.8895 127.411 49.73 130.436C49.6733 131.677 49.2109 132.865 48.4136 133.818C47.6162 134.772 46.5279 135.438 45.3152 135.715Z" fill="#C5F700"/>
</g>
<g clip-path="url(#clip1_92_284)">
<path d="M956.83 396.797C943.992 396.797 931.154 396.797 918.307 396.797C906.725 396.797 896.734 403.166 893.812 416.792C891.299 428.575 888.904 440.592 884.499 451.729C878 468.162 865.397 478.47 847.768 482.366C834.369 485.333 821.431 484.52 809.187 478.059C801.206 473.869 794.95 467.383 790.168 459.983C784.893 451.804 780.722 442.896 776.3 434.181C770.966 423.656 763.403 417.555 751.001 417.019C735.717 416.348 720.358 416.926 705.1 415.904C692.379 415.066 679.474 415.988 666.971 411.982C641.336 403.778 622.728 386.842 618.173 358.66C615.074 339.52 618.039 321.268 628.121 304.474C640.734 283.474 653.41 262.523 666.15 241.623C670.22 234.919 669.006 221.788 663.152 216.073C658.035 211.045 652.382 206.62 647.241 201.642C638.171 192.843 629.972 183.206 626.045 171.013C623.198 161.971 623.122 152.284 625.827 143.199C629.26 131.14 634.922 120.431 644.921 112.495C651.955 106.914 659.995 103.067 668.922 102.439C678.963 101.844 689.03 101.844 699.07 102.439C708.994 102.925 719.077 103.821 726.623 96.0614C731.463 91.1004 735.148 84.9495 738.975 79.0834C746.42 67.6614 753.949 56.2728 760.749 44.4737C765.338 36.5377 770.354 29.0711 776.752 22.5346C791.408 7.50912 808.802 -1.44079 830.165 0.235226C843.631 1.26598 856.026 6.10129 867.222 13.9618C880.747 23.4816 889.834 36.3618 897.287 50.8342C904.74 65.3066 912.847 79.427 920.66 93.7066C922.335 96.7151 923.834 99.7906 925.601 102.715C931.329 112.21 939.369 115.16 950.122 111.741C959.552 108.749 968.847 105.313 978.386 102.749C991.919 99.1034 1005.55 99.3967 1017.85 106.637C1033.76 116.014 1044.56 129.322 1047.34 148.362C1048.93 159.256 1046.5 169.312 1041.72 178.681C1036.92 187.967 1031.59 196.963 1025.74 205.623C1019.15 215.536 1020.18 225.391 1025.39 234.953C1035.2 252.995 1045.68 270.677 1055.62 288.636C1063.97 303.339 1067.42 320.317 1065.49 337.115C1064.14 348.956 1059.23 359.59 1051.34 368.959C1038.99 383.666 1023.13 391.753 1004.82 395.725C1001.43 396.421 997.986 396.772 994.532 396.772C981.953 396.873 969.392 396.797 956.83 396.797ZM897.17 397.032L896.718 395.959C889.105 395.959 881.493 395.758 873.889 396.026C867.574 396.244 861.595 396.135 858.404 390.227L838.682 399.001V333.637H848.949L854.518 322.927H838.741V253.49H906.666L901.349 305.086C903.275 305.086 905.36 304.927 907.412 305.086C910.527 305.379 911.85 304.248 912.135 300.996C913.391 286.7 914.982 272.437 916.172 258.132C916.465 254.571 917.319 252.978 921.272 253.012C942.35 253.18 963.421 253.087 984.499 253.104C985.822 253.104 987.146 253.247 988.779 253.347C988.536 278.487 981.082 301.114 969.936 323.069C970.626 323.252 971.328 323.381 972.038 323.455C981.669 323.455 991.299 323.455 1000.93 323.522C1002.09 323.522 1003.62 323.639 1004.32 324.36C1005.03 325.081 1005.73 327.268 1005.28 327.712C1004.1 328.969 1002.31 330.436 1000.78 330.427C988.218 330.369 975.74 329.706 963.228 329.824C955.434 330.021 947.88 327.116 942.225 321.745C937.543 317.505 932.025 314.53 925.685 313.843C915.811 312.787 905.896 312.066 895.989 311.329C894.474 311.279 892.967 311.566 891.576 312.167C888.695 313.34 887.388 315.871 889.214 318.351C890.732 320.166 892.886 321.332 895.235 321.611C900.503 322.072 905.846 321.553 911.147 321.921C912.445 322.014 914.555 323.949 914.572 325.072C914.589 326.195 912.637 328.634 911.532 328.642C902.086 328.726 892.631 328.349 883.184 328.198C875.932 328.081 868.671 327.88 861.411 328.156C858.655 328.265 857.106 330.578 857.223 333.452C857.341 336.327 858.982 337.575 861.796 337.701C866.36 337.894 870.916 338.388 875.471 338.48C882.171 338.623 888.871 338.346 895.57 338.665C897.036 338.732 898.418 340.575 899.833 341.598C898.56 342.913 897.429 344.447 895.947 345.461C895.177 345.989 893.778 345.595 892.664 345.595C881.359 345.595 870.053 345.595 858.747 345.595C854.451 345.595 852.123 348.47 854.141 351.998C855.105 353.674 858.111 355.065 860.23 355.123C871.385 355.425 882.556 355.35 893.728 355.207C896.801 355.207 898.694 356.297 900.377 360.109C897.789 360.947 895.503 362.196 893.183 362.246C883 362.473 872.808 362.431 862.616 362.297C858.94 362.246 857.098 363.746 857.232 367.325C857.357 370.777 859.468 372.076 862.767 372.009C866.678 371.925 870.581 372.009 874.492 372.009C881.334 372.009 888.176 371.833 895.001 372.168C896.399 372.235 898.083 374.029 898.87 375.453C899.23 376.107 897.965 377.967 897.027 378.914C896.517 379.417 895.16 379.082 894.188 379.082C885.948 379.082 877.716 379.04 869.484 379.082C866.293 379.082 862.859 381.973 863.621 384.202C864.384 386.431 865.631 388.803 869.157 388.82C881.945 388.87 894.741 389.473 907.537 389.532C933.632 389.658 959.736 389.406 985.831 389.641C998.032 389.758 1009.62 388.107 1020.92 383.071C1034.45 377.163 1045.69 366.997 1052.93 354.118C1058.47 344.455 1059.16 333.846 1058.55 323.111C1058.01 312.4 1054.99 301.96 1049.73 292.616C1045.93 285.912 1042.19 279.133 1038.41 272.412C1032.45 261.845 1026.69 251.16 1020.41 240.777C1012.34 227.369 1012.18 212.109 1020.41 200.628C1027.3 190.974 1034.23 181.228 1037.71 169.773C1039.68 163.64 1040.66 157.233 1040.62 150.792C1040.32 140.853 1035.42 132.356 1029.12 124.814C1020.49 114.489 1009.67 108.146 995.939 107.727C987.003 107.458 978.495 109.738 970.028 112.352C958.496 115.914 947.576 122.651 934.721 119.149C939.746 133.16 949.594 143.543 958.379 154.663C967.25 165.956 974.269 178.589 979.173 192.089C982.975 202.455 985.178 213.466 987.472 224.327C988.645 229.883 988.469 235.724 988.929 241.783H954.091C942.928 241.783 931.765 241.783 920.593 241.783C918.081 241.783 916.28 241.565 916.23 238.288C916.138 231.911 916.004 225.509 915.393 219.165C914.555 210.399 913.215 201.667 911.934 192.944C911.775 191.871 910.636 190.932 909.949 189.935C909.045 190.597 908.124 191.242 907.236 191.921C906.348 192.6 905.41 193.681 904.322 194.175C902.035 195.198 901.349 196.338 902.261 198.986C903.174 201.634 902.99 204.433 903.283 207.173C903.945 213.483 904.707 219.743 905.218 226.112C905.628 231.14 905.72 236.26 905.963 241.489H838.808V171.323H858.144C856.846 168.918 855.724 167.443 855.222 165.775C853.957 161.585 851.035 160.898 847.224 161.267C844.394 161.535 841.513 161.317 838.422 161.317V155.585C838.422 137.426 838.473 119.274 838.347 101.115C838.319 98.7877 837.77 96.4968 836.739 94.4106C832.292 85.6366 827.527 77.0219 823.013 68.2731C821.958 66.22 819.262 63.6641 823.265 61.8121C827.109 60.0355 827.527 64.0412 829.303 65.7172C829.487 65.8932 829.495 66.2368 829.629 66.4714C835.491 76.9716 841.421 87.4216 847.048 97.9889C850.023 103.627 851.082 110.081 850.063 116.375C849.066 122.629 848.984 128.994 849.82 135.272C851.679 147.197 858.546 157.177 864.325 167.502C864.608 167.957 864.988 168.343 865.438 168.633C865.889 168.923 866.398 169.109 866.929 169.178C868.604 169.178 871.209 168.985 871.745 167.988C872.19 167.054 872.445 166.042 872.495 165.009C872.545 163.976 872.39 162.943 872.038 161.971C869.735 156.691 866.72 151.722 864.317 146.484C864.128 145.782 864.115 145.044 864.279 144.335C864.443 143.627 864.777 142.969 865.254 142.42C865.975 141.783 868.01 142.202 869.232 142.705C870.12 143.065 870.79 144.239 871.309 145.219C878.578 158.468 885.772 171.767 893.083 185.008C895.311 189.03 898.108 190.304 900.704 188.36C903.828 186.03 903.174 183.206 901.39 180.072C896.299 171.097 891.442 161.979 886.568 152.887C886.023 151.864 885.412 150.44 885.73 149.535C886.107 148.437 887.69 146.769 888.343 146.937C890.018 147.364 892.07 148.32 892.84 149.694C898.535 159.75 903.945 170.041 909.438 180.248C910.736 182.653 912.185 184.815 915.451 184.01C919.697 182.963 920.702 180.189 918.131 175.295C913.006 165.549 907.923 155.753 902.27 146.308C900.025 142.563 900 140.442 904.363 138.146C905.595 139.504 907.194 140.744 908.107 142.336C913.257 151.554 918.265 160.831 923.256 170.125C924.931 173.2 927.645 173.82 930.149 172.262C932.418 170.854 933.716 168.65 931.824 165.289C926.347 155.602 921.272 145.672 916.264 135.724C915.744 134.685 916.264 132.213 917.101 131.66C918.073 131.015 920.208 131.342 921.389 132.029C922.57 132.716 923.357 134.3 924.085 135.615C927.527 141.884 930.961 148.186 934.244 154.504C935.86 157.63 937.987 159.381 941.53 157.906C944.193 156.8 944.804 153.549 942.878 149.971C936.522 138.104 930.031 126.314 923.616 114.481C917.604 103.408 911.602 92.3295 905.611 81.2455C898.359 67.8373 891.601 54.161 883.72 41.1552C874.944 26.6828 862.256 16.5345 846.035 10.8528C835.341 7.09852 824.496 5.59847 813.517 8.47283C794.096 13.5595 780.22 25.9788 769.818 42.7725C758.798 60.5718 748.045 78.5387 736.362 95.919C730.039 105.338 720.007 109.989 708.651 110.039C697.856 110.098 687.045 108.43 676.275 108.757C669.686 109.072 663.208 110.58 657.156 113.207C644.787 118.436 637.987 129.004 633.657 141.238C629.47 153.147 630.106 164.996 635.885 176.15C641.504 187.044 650.674 195.047 659.526 203.159C664.936 208.12 670.857 212.494 673.486 219.751C674.089 221.427 674.935 223.003 676.133 225.618C681.099 210.776 685.077 196.773 690.478 183.357C695.997 169.655 704.598 157.596 713.391 146.811L760.74 164.795C760.305 166.412 759.618 168.491 759.183 170.661C756.419 184.379 753.647 198.106 751.076 211.866C750.892 212.863 752.081 214.38 753.002 215.276C755.615 217.791 758.429 220.145 760.782 222.215C761.41 217.187 761.863 210.885 763.06 204.701C765.288 193.254 768.085 181.915 770.354 170.477C771.083 166.865 773.101 166.396 776.032 166.965C791.517 169.999 807.102 172.06 822.93 171.784C826.807 171.717 827.954 172.932 827.954 176.812C827.787 197.058 827.879 217.313 827.862 237.559C827.862 238.892 827.728 240.224 827.661 241.481H759.618L760.632 230.662L759.97 230.47L748.773 249.249C751.378 250.925 754.108 251.948 755.866 253.884C760.355 258.794 759.936 263.755 755.356 271.13C753.287 274.482 750.155 277.406 750.833 281.915C751.512 286.423 751.972 291.217 752.893 295.792C755.247 307.524 757.809 319.257 760.179 330.452L713.525 348.461L699.397 329.187C694.808 336.511 690.185 343.684 685.805 351.034C684.415 353.372 682.388 354.109 680.78 352.71C679.801 351.872 679.633 348.729 680.412 347.38C687.204 335.556 693.895 323.631 701.499 312.335C704.483 308.06 708.648 304.749 713.483 302.806C723.867 298.859 732.627 293.337 738.674 283.884C742.61 277.742 746.495 271.565 750.398 265.448C752.5 262.155 752.073 258.551 749.435 257.169C746.922 255.861 743.573 257.37 741.839 260.395C739.444 264.585 736.873 268.666 734.453 272.831C733.113 275.135 731.664 277.432 728.666 275.513C725.668 273.593 727.058 271.264 728.44 269.01C736.401 256.015 744.346 243.006 752.274 229.984C754.091 227 753.513 223.279 751.152 221.989C748.79 220.698 745.398 222.106 743.539 225.165C738.255 233.88 732.887 242.545 727.628 251.277C726.296 253.481 724.839 255.467 722.092 253.791C719.186 252.032 720.233 249.601 721.648 247.305C727.318 238.171 733.038 229.062 738.59 219.86C739.632 218.243 740.212 216.371 740.265 214.447C740.223 212.955 739.009 210.408 738.045 210.257C736.136 209.989 733.138 210.399 732.183 211.707C728.624 216.525 725.685 221.763 722.578 226.95C719.303 232.372 716.113 237.844 712.855 243.274C711.607 245.353 710.049 246.786 707.47 245.26C704.891 243.735 705.678 241.825 706.909 239.788C709.547 235.431 712.084 231.006 714.655 226.606C717.712 221.369 720.744 216.115 723.867 210.894C725.375 208.321 724.705 205.866 722.293 204.919C720.618 204.248 718.282 204.986 716.364 205.539C715.459 205.799 714.689 207.022 714.145 207.952C712.126 211.246 710.25 214.656 708.282 217.925C704.933 223.464 701.658 229.045 698.133 234.475C696.893 236.369 694.984 237.903 692.538 235.925C690.495 234.249 690.93 232.573 692.27 230.495C696.633 223.64 700.578 216.517 705.016 209.712C707.068 206.57 706.474 203.737 704.028 202.061C701.407 200.268 698.476 201.391 696.709 204.332C695.151 206.93 693.66 209.57 692.086 212.159C683.452 226.355 674.768 240.517 666.175 254.73C656.829 270.183 647.91 285.887 638.179 301.089C627.15 318.326 622.075 336.645 625.266 357.059C628.875 380.104 642.341 394.66 663.579 403.292C676.844 408.689 690.713 408.01 704.397 408.848C719.529 409.77 734.721 409.544 749.887 409.837C764.274 410.113 774.927 416.541 781.568 429.346C784.876 435.731 787.74 442.352 791.232 448.62C795.712 456.656 801.39 463.821 808.819 469.369C823.96 480.665 847.442 478.47 861.67 469.193C876.694 459.397 881.375 443.768 884.524 427.385C886.526 416.398 887.614 404.993 897.161 397.032H897.17Z" fill="#C5F700"/>
<path d="M759.426 253.129C781.484 253.129 802.772 253.129 824.052 253.129C827.042 253.129 827.879 254.386 827.871 257.168C827.804 277.839 827.804 298.487 827.871 319.114C827.871 322.315 826.564 323.136 823.6 323.144C807.688 323.144 791.978 325.097 776.376 328.08C773.093 328.709 771.209 328.365 770.07 324.192C765.732 308.27 762.315 292.155 761.251 275.588C760.808 268.28 760.079 261.015 759.426 253.129Z" fill="#C5F700"/>
<path d="M775.924 338.237L827.528 332.689V398.054C818.86 397.015 812.043 392.724 805.913 387.688C797.889 380.997 791.271 372.779 786.442 363.511C782.305 355.735 778.696 347.681 774.844 339.746L775.924 338.237Z" fill="#C5F700"/>
<path d="M827.602 97.3848C827.686 98.8178 827.829 100.033 827.829 101.24C827.829 119.676 827.736 138.053 827.921 156.456C827.963 160.411 826.614 161.484 822.837 161.383C807.313 160.986 791.853 159.25 776.627 156.196C776.213 156.028 775.815 155.824 775.438 155.584C776.342 153.146 777.112 150.556 778.226 148.168C784.624 134.324 791.893 121.025 803.14 110.407C809.999 103.938 817.863 99.2368 827.602 97.3848Z" fill="#C5F700"/>
<path d="M764.291 153.649C749.728 149.459 735.709 145.344 722.771 138.204C733.105 121 787.053 92.5246 805.846 94.3766C784.558 109.05 773.746 130.889 764.291 153.649Z" fill="#C5F700"/>
<path d="M803.761 401.02C772.34 394.643 745.139 380.657 722.21 357.352C734.852 350.655 748.284 345.571 762.19 342.217C763.128 341.991 765.255 343.893 765.808 345.226C771.167 358.273 776.896 371.145 785.999 382.098C791.442 388.593 797.606 394.501 803.761 401.02Z" fill="#C5F700"/>
<path d="M682.054 159.967C676.904 170.945 663.429 177.23 659.786 174.431C658.521 173.459 658.153 171.163 658.806 169.613C660.23 166.261 665.933 167.819 671.762 163.747C680.647 157.529 681.35 146.609 676.351 137.617C675.254 135.64 671.326 133.21 675.346 130.913C675.674 130.684 676.044 130.523 676.436 130.441C676.827 130.359 677.232 130.357 677.624 130.436C679.181 130.872 680.094 132.95 680.639 134.886C683.704 145.595 685.63 152.333 682.054 159.967Z" fill="#C5F700"/>
<path d="M1015.24 161.132C1015.79 161.789 1016.1 162.612 1016.12 163.467C1016.14 164.321 1015.87 165.158 1015.36 165.842C1014.42 167.057 1012.68 167.141 1010.43 167.191C1002.61 167.342 996.191 164.786 991.576 160.596C983.286 153.054 982.289 141.682 984.09 134.76C984.383 133.654 985.924 127.738 988.444 127.612C989.751 127.545 990.806 129.07 990.957 129.288C993.896 133.637 987.222 139.135 988.444 146.886C989.349 152.618 994.03 156.104 995.202 157.034C1001.94 162.121 1009.77 160.571 1011.06 160.294C1011.76 159.991 1012.53 159.909 1013.28 160.059C1014.03 160.209 1014.71 160.583 1015.24 161.132Z" fill="#C5F700"/>
<path d="M856.353 439.234C853.84 439.334 853.078 435.647 849.971 433.686C843.364 429.496 836.17 429.027 830.224 431.591C825.61 433.594 824.521 439.971 819.337 443.449C818.332 444.128 816.951 444.882 815.988 444.379C815.024 443.876 814.815 442.1 814.782 441.597C814.472 436.678 824.236 424.56 837.058 424.77C842.176 424.74 847.218 426.008 851.713 428.457C854.51 430.049 860.473 432.739 860.088 435.915C859.904 436.797 859.442 437.595 858.769 438.193C858.096 438.791 857.249 439.156 856.353 439.234Z" fill="#C5F700"/>
<path d="M996.642 123.908C996.624 123.172 996.753 122.44 997.02 121.754C997.288 121.068 997.689 120.442 998.2 119.913C998.711 119.384 999.322 118.961 999.998 118.67C1000.67 118.379 1001.4 118.225 1002.14 118.218C1002.87 118.221 1003.59 118.369 1004.26 118.653C1004.94 118.937 1005.55 119.351 1006.06 119.872C1006.58 120.393 1006.98 121.01 1007.26 121.688C1007.53 122.367 1007.67 123.092 1007.66 123.824C1007.63 125.265 1007.04 126.637 1006.02 127.652C1004.99 128.668 1003.62 129.248 1002.18 129.271C1000.74 129.257 999.37 128.693 998.34 127.695C997.31 126.697 996.702 125.341 996.642 123.908Z" fill="#C5F700"/>
<path d="M1018.42 152.283C1018.42 148.931 1020.69 146.861 1024.28 146.676C1028 146.492 1029 149.19 1029.55 151.847C1030.11 154.503 1026.98 157.554 1024.2 157.654C1021.43 157.755 1018.42 154.939 1018.42 152.283Z" fill="#C5F700"/>
<path d="M645.842 168.021C643.598 167.836 641.655 166.303 641.563 162.917C641.479 159.842 644.075 156.917 646.981 156.817C649.276 156.741 652.567 160.127 652.509 162.507C652.442 165.322 649.678 167.996 645.842 168.021Z" fill="#C5F700"/>
<path d="M817.788 454.083C818.307 453.577 818.924 453.183 819.601 452.925C820.278 452.667 821 452.551 821.724 452.583C824.99 452.524 827.972 455.189 827.678 458.072C827.603 459.01 827.307 459.917 826.816 460.72C825.359 462.815 822 464.29 819.279 462.815C816.138 461.089 815.761 456.354 817.788 454.083Z" fill="#C5F700"/>
<path d="M856.294 458.826C853.966 458.742 851.939 457.276 851.78 453.89C851.621 450.505 853.287 448.653 856.62 448.41C859.953 448.167 862.918 450.555 862.985 453.513C863.044 456.211 860.314 458.725 856.294 458.826Z" fill="#C5F700"/>
<path d="M662.215 135.715C661.108 135.881 659.976 135.713 658.966 135.23C657.956 134.748 657.113 133.974 656.545 133.008C656.026 132.123 655.764 131.11 655.791 130.084C655.892 127.57 657.935 124.218 661.151 124.218C664.367 124.218 666.779 127.411 666.62 130.436C666.563 131.677 666.102 132.865 665.306 133.818C664.511 134.772 663.425 135.438 662.215 135.715Z" fill="#C5F700"/>
</g>
<g clip-path="url(#clip2_92_284)">
<path d="M1573.59 399.797C1560.72 399.797 1547.85 399.797 1534.98 399.797C1523.37 399.797 1513.36 406.166 1510.43 419.792C1507.91 431.575 1505.51 443.592 1501.09 454.729C1494.58 471.162 1481.95 481.47 1464.28 485.366C1450.85 488.333 1437.89 487.52 1425.61 481.059C1417.62 476.869 1411.35 470.383 1406.55 462.983C1401.27 454.804 1397.09 445.896 1392.65 437.181C1387.31 426.656 1379.73 420.555 1367.3 420.019C1351.98 419.348 1336.59 419.926 1321.3 418.904C1308.55 418.066 1295.61 418.988 1283.08 414.982C1257.39 406.778 1238.74 389.842 1234.17 361.66C1231.07 342.52 1234.04 324.268 1244.15 307.474C1256.79 286.474 1269.49 265.523 1282.26 244.623C1286.34 237.919 1285.12 224.788 1279.25 219.073C1274.13 214.045 1268.46 209.62 1263.31 204.642C1254.22 195.843 1246 186.206 1242.06 174.013C1239.21 164.971 1239.14 155.284 1241.85 146.199C1245.29 134.14 1250.96 123.431 1260.98 115.495C1268.03 109.914 1276.09 106.067 1285.04 105.439C1295.1 104.844 1305.19 104.844 1315.25 105.439C1325.2 105.925 1335.3 106.821 1342.87 99.0614C1347.72 94.1004 1351.41 87.9495 1355.25 82.0834C1362.71 70.6614 1370.25 59.2728 1377.07 47.4737C1381.67 39.5377 1386.7 32.0711 1393.11 25.5346C1407.8 10.5091 1425.23 1.55921 1446.64 3.23523C1460.14 4.26598 1472.56 9.10129 1483.78 16.9618C1497.33 26.4816 1506.44 39.3618 1513.91 53.8342C1521.38 68.3066 1529.51 82.427 1537.34 96.7066C1539.01 99.7151 1540.52 102.791 1542.29 105.715C1548.03 115.21 1556.09 118.16 1566.86 114.741C1576.31 111.749 1585.63 108.313 1595.19 105.749C1608.75 102.103 1622.42 102.397 1634.74 109.637C1650.69 119.014 1661.51 132.322 1664.3 151.362C1665.89 162.256 1663.46 172.312 1658.67 181.681C1653.86 190.967 1648.51 199.963 1642.65 208.623C1636.05 218.536 1637.08 228.391 1642.3 237.953C1652.13 255.995 1662.63 273.677 1672.6 291.636C1680.96 306.339 1684.43 323.317 1682.49 340.115C1681.14 351.956 1676.22 362.59 1668.3 371.959C1655.93 386.666 1640.03 394.753 1621.68 398.725C1618.29 399.421 1614.83 399.772 1611.37 399.772C1598.77 399.873 1586.18 399.797 1573.59 399.797ZM1513.79 400.032L1513.34 398.959C1505.71 398.959 1498.08 398.758 1490.46 399.026C1484.13 399.244 1478.14 399.135 1474.94 393.227L1455.18 402.001V336.637H1465.47L1471.05 325.927H1455.23V256.49H1523.31L1517.98 308.086C1519.91 308.086 1522 307.927 1524.06 308.086C1527.18 308.379 1528.51 307.248 1528.79 303.996C1530.05 289.7 1531.65 275.437 1532.84 261.132C1533.13 257.571 1533.99 255.978 1537.95 256.012C1559.07 256.18 1580.19 256.087 1601.32 256.104C1602.64 256.104 1603.97 256.247 1605.61 256.347C1605.36 281.487 1597.89 304.114 1586.72 326.069C1587.41 326.252 1588.12 326.381 1588.83 326.455C1598.48 326.455 1608.13 326.455 1617.78 326.522C1618.95 326.522 1620.48 326.639 1621.18 327.36C1621.89 328.081 1622.59 330.268 1622.15 330.712C1620.97 331.969 1619.17 333.436 1617.63 333.427C1605.04 333.369 1592.54 332.706 1580 332.824C1572.19 333.021 1564.62 330.116 1558.95 324.745C1554.26 320.505 1548.73 317.53 1542.37 316.843C1532.48 315.787 1522.54 315.066 1512.61 314.329C1511.09 314.279 1509.58 314.566 1508.19 315.167C1505.3 316.34 1503.99 318.871 1505.82 321.351C1507.34 323.166 1509.5 324.332 1511.85 324.611C1517.13 325.072 1522.49 324.553 1527.8 324.921C1529.1 325.014 1531.22 326.949 1531.23 328.072C1531.25 329.195 1529.3 331.634 1528.19 331.642C1518.72 331.726 1509.24 331.349 1499.78 331.198C1492.51 331.081 1485.23 330.88 1477.95 331.156C1475.19 331.265 1473.64 333.578 1473.76 336.452C1473.88 339.327 1475.52 340.575 1478.34 340.701C1482.91 340.894 1487.48 341.388 1492.05 341.48C1498.76 341.623 1505.48 341.346 1512.19 341.665C1513.66 341.732 1515.04 343.575 1516.46 344.598C1515.19 345.913 1514.05 347.447 1512.57 348.461C1511.8 348.989 1510.39 348.595 1509.28 348.595C1497.95 348.595 1486.62 348.595 1475.29 348.595C1470.98 348.595 1468.65 351.47 1470.67 354.998C1471.63 356.674 1474.65 358.065 1476.77 358.123C1487.95 358.425 1499.15 358.35 1510.34 358.207C1513.42 358.207 1515.32 359.297 1517.01 363.109C1514.41 363.947 1512.12 365.196 1509.8 365.246C1499.59 365.473 1489.38 365.431 1479.16 365.297C1475.48 365.246 1473.63 366.746 1473.77 370.325C1473.89 373.777 1476.01 375.076 1479.31 375.009C1483.23 374.925 1487.14 375.009 1491.06 375.009C1497.92 375.009 1504.78 374.833 1511.62 375.168C1513.02 375.235 1514.71 377.029 1515.5 378.453C1515.86 379.107 1514.59 380.967 1513.65 381.914C1513.14 382.417 1511.78 382.082 1510.81 382.082C1502.55 382.082 1494.3 382.04 1486.05 382.082C1482.85 382.082 1479.41 384.973 1480.17 387.202C1480.93 389.431 1482.18 391.803 1485.72 391.82C1498.53 391.87 1511.36 392.473 1524.18 392.532C1550.34 392.658 1576.5 392.406 1602.65 392.641C1614.88 392.758 1626.5 391.107 1637.82 386.071C1651.38 380.163 1662.65 369.997 1669.9 357.118C1675.45 347.455 1676.14 336.846 1675.53 326.111C1674.99 315.4 1671.97 304.96 1666.69 295.616C1662.89 288.912 1659.14 282.133 1655.35 275.412C1649.38 264.845 1643.6 254.16 1637.31 243.777C1629.22 230.369 1629.06 215.109 1637.31 203.628C1644.21 193.974 1651.16 184.228 1654.65 172.773C1656.62 166.64 1657.6 160.233 1657.56 153.792C1657.27 143.853 1652.35 135.356 1646.04 127.814C1637.39 117.489 1626.55 111.146 1612.78 110.727C1603.83 110.458 1595.3 112.738 1586.81 115.352C1575.26 118.914 1564.31 125.651 1551.43 122.149C1556.46 136.16 1566.33 146.543 1575.14 157.663C1584.03 168.956 1591.06 181.589 1595.98 195.089C1599.79 205.455 1602 216.466 1604.3 227.327C1605.47 232.883 1605.3 238.724 1605.76 244.783H1570.84C1559.65 244.783 1548.47 244.783 1537.27 244.783C1534.75 244.783 1532.95 244.565 1532.9 241.288C1532.8 234.911 1532.67 228.509 1532.06 222.165C1531.22 213.399 1529.87 204.667 1528.59 195.944C1528.43 194.871 1527.29 193.932 1526.6 192.935C1525.69 193.597 1524.77 194.242 1523.88 194.921C1522.99 195.6 1522.05 196.681 1520.96 197.175C1518.67 198.198 1517.98 199.338 1518.9 201.986C1519.81 204.634 1519.63 207.433 1519.92 210.173C1520.58 216.483 1521.35 222.743 1521.86 229.112C1522.27 234.14 1522.36 239.26 1522.61 244.489H1455.3V174.323H1474.68C1473.38 171.918 1472.26 170.443 1471.75 168.775C1470.48 164.585 1467.56 163.898 1463.74 164.267C1460.9 164.535 1458.01 164.317 1454.92 164.317V158.585C1454.92 140.426 1454.97 122.274 1454.84 104.115C1454.81 101.788 1454.26 99.4968 1453.23 97.4106C1448.77 88.6366 1444 80.0219 1439.47 71.2731C1438.41 69.22 1435.71 66.6641 1439.72 64.8121C1443.58 63.0355 1444 67.0412 1445.77 68.7172C1445.96 68.8932 1445.97 69.2368 1446.1 69.4714C1451.98 79.9716 1457.92 90.4216 1463.56 100.989C1466.54 106.627 1467.6 113.081 1466.58 119.375C1465.58 125.629 1465.5 131.994 1466.34 138.272C1468.2 150.197 1475.08 160.177 1480.88 170.502C1481.16 170.957 1481.54 171.343 1481.99 171.633C1482.44 171.923 1482.95 172.109 1483.49 172.178C1485.16 172.178 1487.77 171.985 1488.31 170.988C1488.76 170.054 1489.01 169.042 1489.06 168.009C1489.11 166.976 1488.96 165.943 1488.61 164.971C1486.3 159.691 1483.28 154.722 1480.87 149.484C1480.68 148.782 1480.67 148.044 1480.83 147.335C1480.99 146.627 1481.33 145.969 1481.81 145.42C1482.53 144.783 1484.57 145.202 1485.79 145.705C1486.68 146.065 1487.35 147.239 1487.88 148.219C1495.16 161.468 1502.37 174.767 1509.7 188.008C1511.93 192.03 1514.73 193.304 1517.34 191.36C1520.47 189.03 1519.81 186.206 1518.02 183.072C1512.92 174.097 1508.05 164.979 1503.17 155.887C1502.62 154.864 1502.01 153.44 1502.33 152.535C1502.71 151.437 1504.29 149.769 1504.95 149.937C1506.63 150.364 1508.68 151.32 1509.45 152.694C1515.16 162.75 1520.58 173.041 1526.09 183.248C1527.39 185.653 1528.84 187.815 1532.12 187.01C1536.37 185.963 1537.38 183.189 1534.8 178.295C1529.66 168.549 1524.57 158.753 1518.9 149.308C1516.66 145.563 1516.63 143.442 1521 141.146C1522.24 142.504 1523.84 143.744 1524.75 145.336C1529.92 154.554 1534.94 163.831 1539.94 173.125C1541.62 176.2 1544.34 176.82 1546.85 175.262C1549.12 173.854 1550.42 171.65 1548.52 168.289C1543.04 158.602 1537.95 148.672 1532.93 138.724C1532.41 137.685 1532.93 135.213 1533.77 134.66C1534.74 134.015 1536.88 134.342 1538.07 135.029C1539.25 135.716 1540.04 137.3 1540.77 138.615C1544.22 144.884 1547.66 151.186 1550.95 157.504C1552.57 160.63 1554.7 162.381 1558.25 160.906C1560.92 159.8 1561.53 156.549 1559.6 152.971C1553.23 141.104 1546.73 129.314 1540.3 117.481C1534.27 106.408 1528.26 95.3295 1522.25 84.2455C1514.99 70.8373 1508.21 57.161 1500.31 44.1552C1491.52 29.6828 1478.8 19.5345 1462.54 13.8528C1451.83 10.0985 1440.96 8.59847 1429.95 11.4728C1410.49 16.5595 1396.58 28.9788 1386.16 45.7725C1375.11 63.5718 1364.34 81.5387 1352.63 98.919C1346.29 108.338 1336.24 112.989 1324.85 113.039C1314.04 113.098 1303.2 111.43 1292.41 111.757C1285.8 112.072 1279.31 113.58 1273.24 116.207C1260.85 121.436 1254.03 132.004 1249.69 144.238C1245.5 156.147 1246.13 167.996 1251.93 179.15C1257.56 190.044 1266.75 198.047 1275.62 206.159C1281.04 211.12 1286.98 215.494 1289.61 222.751C1290.22 224.427 1291.06 226.003 1292.26 228.618C1297.24 213.776 1301.23 199.773 1306.64 186.357C1312.17 172.655 1320.79 160.596 1329.61 149.811L1377.06 167.795C1376.62 169.412 1375.94 171.491 1375.5 173.661C1372.73 187.379 1369.95 201.106 1367.37 214.866C1367.19 215.863 1368.38 217.38 1369.3 218.276C1371.92 220.791 1374.74 223.145 1377.1 225.215C1377.73 220.187 1378.18 213.885 1379.38 207.701C1381.62 196.254 1384.42 184.915 1386.7 173.477C1387.43 169.865 1389.45 169.396 1392.39 169.965C1407.9 172.999 1423.52 175.06 1439.39 174.784C1443.27 174.717 1444.42 175.932 1444.42 179.812C1444.26 200.058 1444.35 220.313 1444.33 240.559C1444.33 241.892 1444.2 243.224 1444.13 244.481H1375.94L1376.95 233.662L1376.29 233.47L1365.07 252.249C1367.68 253.925 1370.41 254.948 1372.18 256.884C1376.67 261.794 1376.25 266.755 1371.66 274.13C1369.59 277.482 1366.45 280.406 1367.13 284.915C1367.81 289.423 1368.27 294.217 1369.2 298.792C1371.55 310.524 1374.12 322.257 1376.5 333.452L1329.74 351.461L1315.58 332.187C1310.98 339.511 1306.35 346.684 1301.96 354.034C1300.56 356.372 1298.53 357.109 1296.92 355.71C1295.94 354.872 1295.77 351.729 1296.55 350.38C1303.36 338.556 1310.07 326.631 1317.69 315.335C1320.68 311.06 1324.85 307.749 1329.7 305.806C1340.1 301.859 1348.88 296.337 1354.94 286.884C1358.89 280.742 1362.78 274.565 1366.69 268.448C1368.8 265.155 1368.37 261.551 1365.73 260.169C1363.21 258.861 1359.85 260.37 1358.12 263.395C1355.72 267.585 1353.14 271.666 1350.71 275.831C1349.37 278.135 1347.92 280.432 1344.91 278.513C1341.91 276.593 1343.3 274.264 1344.69 272.01C1352.67 259.015 1360.63 246.006 1368.57 232.984C1370.4 230 1369.82 226.279 1367.45 224.989C1365.08 223.698 1361.68 225.106 1359.82 228.165C1354.52 236.88 1349.14 245.545 1343.87 254.277C1342.54 256.481 1341.08 258.467 1338.33 256.791C1335.41 255.032 1336.46 252.601 1337.88 250.305C1343.56 241.171 1349.3 232.062 1354.86 222.86C1355.9 221.243 1356.49 219.371 1356.54 217.447C1356.5 215.955 1355.28 213.408 1354.31 213.257C1352.4 212.989 1349.4 213.399 1348.44 214.707C1344.87 219.525 1341.93 224.763 1338.81 229.95C1335.53 235.372 1332.33 240.844 1329.07 246.274C1327.82 248.353 1326.26 249.786 1323.67 248.26C1321.09 246.735 1321.87 244.825 1323.11 242.788C1325.75 238.431 1328.3 234.006 1330.87 229.606C1333.94 224.369 1336.97 219.115 1340.1 213.894C1341.62 211.321 1340.94 208.866 1338.53 207.919C1336.85 207.248 1334.51 207.986 1332.58 208.539C1331.68 208.799 1330.91 210.022 1330.36 210.952C1328.34 214.246 1326.46 217.656 1324.49 220.925C1321.13 226.464 1317.85 232.045 1314.31 237.475C1313.07 239.369 1311.16 240.903 1308.71 238.925C1306.66 237.249 1307.09 235.573 1308.44 233.495C1312.81 226.64 1316.76 219.517 1321.21 212.712C1323.27 209.57 1322.67 206.737 1320.22 205.061C1317.59 203.268 1314.66 204.391 1312.89 207.332C1311.32 209.93 1309.83 212.57 1308.25 215.159C1299.6 229.355 1290.9 243.517 1282.28 257.73C1272.92 273.183 1263.98 288.887 1254.23 304.089C1243.17 321.326 1238.09 339.645 1241.28 360.059C1244.9 383.104 1258.4 397.66 1279.68 406.292C1292.98 411.689 1306.88 411.01 1320.59 411.848C1335.76 412.77 1350.98 412.544 1366.18 412.837C1380.6 413.113 1391.28 419.541 1397.93 432.346C1401.25 438.731 1404.12 445.352 1407.62 451.62C1412.11 459.656 1417.8 466.821 1425.25 472.369C1440.42 483.665 1463.95 481.47 1478.21 472.193C1493.27 462.397 1497.96 446.768 1501.12 430.385C1503.13 419.398 1504.22 407.993 1513.78 400.032H1513.79Z" fill="#C5F700"/>
<path d="M1375.74 256.129C1397.85 256.129 1419.19 256.129 1440.51 256.129C1443.51 256.129 1444.35 257.386 1444.34 260.168C1444.27 280.839 1444.27 301.487 1444.34 322.114C1444.34 325.315 1443.03 326.136 1440.06 326.144C1424.11 326.144 1408.37 328.097 1392.73 331.08C1389.44 331.709 1387.55 331.365 1386.41 327.192C1382.06 311.27 1378.64 295.155 1377.57 278.588C1377.13 271.28 1376.4 264.015 1375.74 256.129Z" fill="#C5F700"/>
<path d="M1392.28 341.237L1444 335.689V401.054C1435.31 400.015 1428.48 395.724 1422.33 390.688C1414.29 383.997 1407.66 375.779 1402.82 366.511C1398.67 358.735 1395.06 350.681 1391.19 342.746L1392.28 341.237Z" fill="#C5F700"/>
<path d="M1444.07 100.385C1444.16 101.818 1444.3 103.033 1444.3 104.24C1444.3 122.676 1444.21 141.053 1444.39 159.456C1444.43 163.411 1443.08 164.484 1439.3 164.383C1423.74 163.986 1408.24 162.25 1392.98 159.196C1392.57 159.028 1392.17 158.824 1391.79 158.584C1392.7 156.146 1393.47 153.556 1394.58 151.168C1401 137.324 1408.28 124.025 1419.55 113.407C1426.43 106.938 1434.31 102.237 1444.07 100.385Z" fill="#C5F700"/>
<path d="M1380.62 156.649C1366.02 152.459 1351.97 148.344 1339.01 141.204C1349.36 124 1403.43 95.5246 1422.27 97.3766C1400.93 112.05 1390.1 133.889 1380.62 156.649Z" fill="#C5F700"/>
<path d="M1420.18 404.02C1388.69 397.643 1361.42 383.657 1338.44 360.352C1351.11 353.655 1364.58 348.571 1378.51 345.217C1379.45 344.991 1381.58 346.893 1382.14 348.226C1387.51 361.273 1393.25 374.145 1402.37 385.098C1407.83 391.593 1414.01 397.501 1420.18 404.02Z" fill="#C5F700"/>
<path d="M1298.2 162.967C1293.04 173.945 1279.53 180.23 1275.88 177.431C1274.61 176.459 1274.24 174.163 1274.9 172.613C1276.33 169.261 1282.04 170.819 1287.88 166.747C1296.79 160.529 1297.49 149.609 1292.48 140.617C1291.38 138.64 1287.45 136.21 1291.48 133.913C1291.8 133.684 1292.18 133.523 1292.57 133.441C1292.96 133.359 1293.37 133.357 1293.76 133.436C1295.32 133.872 1296.23 135.95 1296.78 137.886C1299.85 148.595 1301.78 155.333 1298.2 162.967Z" fill="#C5F700"/>
<path d="M1632.13 164.132C1632.68 164.789 1632.99 165.612 1633.01 166.467C1633.03 167.321 1632.76 168.158 1632.25 168.842C1631.31 170.057 1629.56 170.141 1627.3 170.191C1619.46 170.342 1613.03 167.786 1608.41 163.596C1600.1 156.054 1599.1 144.682 1600.91 137.76C1601.2 136.654 1602.74 130.738 1605.27 130.612C1606.58 130.545 1607.64 132.07 1607.79 132.288C1610.74 136.637 1604.05 142.135 1605.27 149.886C1606.18 155.618 1610.87 159.104 1612.04 160.034C1618.8 165.121 1626.65 163.571 1627.93 163.294C1628.63 162.991 1629.41 162.909 1630.16 163.059C1630.91 163.209 1631.6 163.583 1632.13 164.132Z" fill="#C5F700"/>
<path d="M1472.89 442.234C1470.37 442.334 1469.6 438.647 1466.49 436.686C1459.87 432.496 1452.66 432.027 1446.7 434.591C1442.07 436.594 1440.98 442.971 1435.79 446.449C1434.78 447.128 1433.4 447.882 1432.43 447.379C1431.47 446.876 1431.26 445.1 1431.22 444.597C1430.91 439.678 1440.7 427.56 1453.55 427.77C1458.68 427.74 1463.73 429.008 1468.24 431.457C1471.04 433.049 1477.02 435.739 1476.63 438.915C1476.44 439.797 1475.98 440.595 1475.31 441.193C1474.63 441.791 1473.78 442.156 1472.89 442.234Z" fill="#C5F700"/>
<path d="M1613.49 126.908C1613.47 126.172 1613.6 125.44 1613.87 124.754C1614.13 124.068 1614.54 123.442 1615.05 122.913C1615.56 122.384 1616.17 121.961 1616.85 121.67C1617.53 121.379 1618.26 121.225 1618.99 121.218C1619.73 121.221 1620.45 121.369 1621.13 121.653C1621.8 121.937 1622.42 122.351 1622.93 122.872C1623.44 123.393 1623.85 124.01 1624.13 124.688C1624.4 125.367 1624.54 126.092 1624.53 126.824C1624.5 128.265 1623.91 129.637 1622.88 130.652C1621.86 131.668 1620.48 132.248 1619.04 132.271C1617.6 132.257 1616.22 131.693 1615.19 130.695C1614.16 129.697 1613.55 128.341 1613.49 126.908Z" fill="#C5F700"/>
<path d="M1635.31 155.283C1635.31 151.931 1637.59 149.861 1641.19 149.676C1644.91 149.492 1645.92 152.19 1646.47 154.847C1647.03 157.503 1643.89 160.554 1641.11 160.654C1638.33 160.755 1635.32 157.939 1635.31 155.283Z" fill="#C5F700"/>
<path d="M1261.91 171.021C1259.66 170.836 1257.71 169.303 1257.62 165.917C1257.53 162.842 1260.14 159.917 1263.05 159.817C1265.35 159.741 1268.65 163.127 1268.59 165.507C1268.52 168.322 1265.75 170.996 1261.91 171.021Z" fill="#C5F700"/>
<path d="M1434.24 457.083C1434.76 456.577 1435.37 456.183 1436.05 455.925C1436.73 455.667 1437.45 455.551 1438.18 455.583C1441.45 455.524 1444.44 458.189 1444.15 461.072C1444.07 462.01 1443.78 462.917 1443.28 463.72C1441.82 465.815 1438.46 467.29 1435.73 465.815C1432.58 464.089 1432.2 459.354 1434.24 457.083Z" fill="#C5F700"/>
<path d="M1472.83 461.826C1470.49 461.742 1468.46 460.276 1468.3 456.89C1468.14 453.505 1469.81 451.653 1473.15 451.41C1476.49 451.167 1479.47 453.555 1479.53 456.513C1479.59 459.211 1476.86 461.725 1472.83 461.826Z" fill="#C5F700"/>
<path d="M1278.32 138.715C1277.21 138.881 1276.07 138.713 1275.06 138.23C1274.05 137.748 1273.2 136.974 1272.63 136.008C1272.11 135.123 1271.85 134.11 1271.88 133.084C1271.98 130.57 1274.03 127.218 1277.25 127.218C1280.47 127.218 1282.89 130.411 1282.73 133.436C1282.67 134.677 1282.21 135.865 1281.41 136.818C1280.62 137.772 1279.53 138.438 1278.32 138.715Z" fill="#C5F700"/>
</g>
<defs>
<clipPath id="clip0_92_284">
<rect width="450" height="484" fill="white"/>
</clipPath>
<clipPath id="clip1_92_284">
<rect width="449" height="484" fill="white" transform="translate(617)"/>
</clipPath>
<clipPath id="clip2_92_284">
<rect width="450" height="484" fill="white" transform="translate(1233 3)"/>
</clipPath>
</defs>
</svg>
