<svg width="387" height="363" viewBox="0 0 387 363" fill="none" xmlns="http://www.w3.org/2000/svg">
<path d="M280.881 159.728C269.218 159.808 258.274 159.919 256.57 159.967L253.479 160.078L254.815 160.507C259.343 161.984 263.119 164.13 267.163 167.482C270.822 170.517 274.581 175.014 278.107 180.575C279.828 183.292 298.374 215.785 298.274 215.928C298.241 215.992 295.233 217.867 291.591 220.091L284.974 224.143L289.602 224.238C292.159 224.302 301.649 224.381 310.705 224.445C319.761 224.493 328.634 224.588 330.421 224.636L333.68 224.715L346.261 204.965C348.891 200.833 351.366 196.942 353.438 193.685C356.816 188.376 359.122 184.752 359.277 184.515L359.711 183.816L357.807 184.77C356.754 185.31 354.131 186.613 351.975 187.677C350.121 188.593 347.933 189.685 346.709 190.296C346.51 190.396 346.337 190.482 346.194 190.553L344.356 191.475L339.076 182.227C336.169 177.143 333.613 172.614 333.379 172.169C332.66 170.819 331.023 168.594 329.753 167.291C326.294 163.732 321.733 161.19 316.553 159.935C315.133 159.585 309.034 159.553 280.881 159.728Z" fill="#E9E9E9"/>
<path d="M280.881 159.728C269.218 159.808 258.274 159.919 256.57 159.967L253.479 160.078L254.815 160.507C259.343 161.984 263.119 164.13 267.163 167.482C270.822 170.517 274.581 175.014 278.107 180.575C279.828 183.292 298.374 215.785 298.274 215.928C298.241 215.992 295.233 217.867 291.591 220.091L284.974 224.143L289.602 224.238C292.159 224.302 301.649 224.381 310.705 224.445C319.761 224.493 328.634 224.588 330.421 224.636L333.68 224.715L346.261 204.965C348.891 200.833 351.366 196.942 353.438 193.685C356.816 188.376 359.122 184.752 359.277 184.515L359.711 183.816L357.807 184.77C356.754 185.31 354.131 186.613 351.975 187.677C350.121 188.593 347.933 189.685 346.709 190.296C346.51 190.396 346.337 190.482 346.194 190.553L344.356 191.475L339.076 182.227C336.169 177.143 333.613 172.614 333.379 172.169C332.66 170.819 331.023 168.594 329.753 167.291C326.294 163.732 321.733 161.19 316.553 159.935C315.133 159.585 309.034 159.553 280.881 159.728Z" stroke="#E9E9E9"/>
<path d="M243.957 161.73C240.532 162.143 236.806 163.827 234.066 166.179C233.214 166.91 208.853 202.581 209.07 202.772C209.137 202.851 219.496 208.698 232.077 215.785C245.394 223.285 255.018 228.623 255.102 228.544C255.185 228.465 260.733 219.9 267.449 209.509L279.63 190.632L278.377 188.376C270.156 173.44 259.012 163.43 248.886 161.857C247.433 161.635 245.177 161.571 243.957 161.73Z" fill="#E9E9E9"/>
<path d="M243.957 161.73C240.532 162.143 236.806 163.827 234.066 166.179C233.214 166.91 208.853 202.581 209.07 202.772C209.137 202.851 219.496 208.698 232.077 215.785C245.394 223.285 255.018 228.623 255.102 228.544C255.185 228.465 260.733 219.9 267.449 209.509L279.63 190.632L278.377 188.376C270.156 173.44 259.012 163.43 248.886 161.857C247.433 161.635 245.177 161.571 243.957 161.73Z" stroke="#E9E9E9"/>
<path d="M342.434 238.777C329.986 246.006 319.71 251.996 319.576 252.124C319.376 252.298 321.063 255.349 330.47 271.922L341.598 291.513H346.911C350.921 291.497 352.81 291.433 354.647 291.211C362.133 290.353 367.714 288.891 372.943 286.428C376.051 284.967 378.206 283.584 380.245 281.757C384.372 278.071 386.494 273.129 386.176 267.917C386.138 267.313 386.124 266.853 386.069 266.399C385.814 264.297 384.692 262.301 376.285 246.546C371.155 236.934 366.544 228.306 366.009 227.368L365.074 225.652L342.434 238.777Z" fill="#E9E9E9"/>
<path d="M342.434 238.777C329.986 246.006 319.71 251.996 319.576 252.124C319.376 252.298 321.063 255.349 330.47 271.922L341.598 291.513H346.911C350.921 291.497 352.81 291.433 354.647 291.211C362.133 290.353 367.714 288.891 372.943 286.428C376.051 284.967 378.206 283.584 380.245 281.757C384.372 278.071 386.494 273.129 386.176 267.917C386.138 267.313 386.124 266.853 386.069 266.399C385.814 264.297 384.692 262.301 376.285 246.546C371.155 236.934 366.544 228.306 366.009 227.368L365.074 225.652L342.434 238.777Z" stroke="#E9E9E9"/>
<path d="M200.597 226.32C190.989 226.383 181.014 226.495 178.408 226.574L173.696 226.685L180.713 231.897C184.573 234.773 187.731 237.188 187.731 237.267C187.731 237.363 184.54 243.242 180.63 250.344C176.737 257.447 173.362 263.787 173.128 264.438C170.989 270.555 173.646 277.578 180.396 283.553C186.344 288.812 192.643 290.989 204.222 291.752C206.962 291.926 215.35 292.006 215.601 291.847C215.684 291.799 219.995 285.189 225.158 277.149L234.548 262.547L235.835 263.199C236.209 263.393 237.28 263.944 238.679 264.664C239.906 265.296 241.386 266.057 242.869 266.821C246.044 268.458 248.65 269.777 248.684 269.745C248.717 269.713 243.187 259.91 236.403 247.945L224.055 226.209L221.064 226.193C219.41 226.193 210.204 226.24 200.597 226.32Z" fill="#E9E9E9"/>
<path d="M200.597 226.32C190.989 226.383 181.014 226.495 178.408 226.574L173.696 226.685L180.713 231.897C184.573 234.773 187.731 237.188 187.731 237.267C187.731 237.363 184.54 243.242 180.63 250.344C176.737 257.447 173.362 263.787 173.128 264.438C170.989 270.555 173.646 277.578 180.396 283.553C186.344 288.812 192.643 290.989 204.222 291.752C206.962 291.926 215.35 292.006 215.601 291.847C215.684 291.799 219.995 285.189 225.158 277.149L234.548 262.547L235.835 263.199C236.209 263.393 237.28 263.944 238.679 264.664C239.906 265.296 241.386 266.057 242.869 266.821C246.044 268.458 248.65 269.777 248.684 269.745C248.717 269.713 243.187 259.91 236.403 247.945L224.055 226.209L221.064 226.193C219.41 226.193 210.204 226.24 200.597 226.32Z" stroke="#E9E9E9"/>
<path d="M296.786 300.443L284.79 321.02L288.766 327.947C290.972 331.777 296.369 341.167 300.763 348.826L308.783 362.76L308.883 361.616C308.95 360.997 309.084 357.644 309.184 354.196C309.284 350.748 309.418 347.507 309.468 346.998L309.568 346.077L322.467 346.109C333.863 346.124 335.517 346.093 336.736 345.87C339.928 345.266 343.437 343.852 346.377 342.009C348.616 340.595 351.724 337.624 352.91 335.765C353.562 334.764 379.945 287.906 381.616 284.792C381.866 284.331 381.632 284.474 380.179 285.666C373.696 290.989 367.029 293.579 356.402 294.866C354.498 295.104 351.557 295.152 331.974 295.2L309.702 295.263V294.58C309.702 293.372 309.034 281.694 308.9 280.756L308.783 279.851L296.786 300.443Z" fill="#E9E9E9"/>
<path d="M296.786 300.443L284.79 321.02L288.766 327.947C290.972 331.777 296.369 341.167 300.763 348.826L308.783 362.76L308.883 361.616C308.95 360.997 309.084 357.644 309.184 354.196C309.284 350.748 309.418 347.507 309.468 346.998L309.568 346.077L322.467 346.109C333.863 346.124 335.517 346.093 336.736 345.87C339.928 345.266 343.437 343.852 346.377 342.009C348.616 340.595 351.724 337.624 352.91 335.765C353.562 334.764 379.945 287.906 381.616 284.792C381.866 284.331 381.632 284.474 380.179 285.666C373.696 290.989 367.029 293.579 356.402 294.866C354.498 295.104 351.557 295.152 331.974 295.2L309.702 295.263V294.58C309.702 293.372 309.034 281.694 308.9 280.756L308.783 279.851L296.786 300.443Z" stroke="#E9E9E9"/>
<path d="M175.867 283.696C175.867 283.744 181.749 294.104 188.917 306.72C196.101 319.32 202.968 331.396 204.171 333.525C206.31 337.322 206.394 337.449 207.948 338.943C211.339 342.2 216.168 344.377 222.334 345.442L222.427 345.458C227.279 346.3 227.281 346.3 248.583 346.363L268.6 346.427V320.861V295.295L258.207 295.184C252.476 295.136 239.978 295.041 230.421 294.993C202.041 294.835 200.407 294.833 198.8 294.623C198.629 294.601 198.459 294.576 198.257 294.548C189.735 293.341 182.718 290.147 177.304 284.983C176.519 284.221 175.867 283.649 175.867 283.696Z" fill="#E9E9E9"/>
<path d="M175.867 283.696C175.867 283.744 181.749 294.104 188.917 306.72C196.101 319.32 202.968 331.396 204.171 333.525C206.31 337.322 206.394 337.449 207.948 338.943C211.339 342.2 216.168 344.377 222.334 345.442L222.427 345.458C227.279 346.3 227.281 346.3 248.583 346.363L268.6 346.427V320.861V295.295L258.207 295.184C252.476 295.136 239.978 295.041 230.421 294.993C202.041 294.835 200.407 294.833 198.8 294.623C198.629 294.601 198.459 294.576 198.257 294.548C189.735 293.341 182.718 290.147 177.304 284.983C176.519 284.221 175.867 283.649 175.867 283.696Z" stroke="#E9E9E9"/>
<path d="M108.115 32.8674C84.9995 32.9524 72.9513 50.0969 72.9066 67.1921C72.8842 75.7364 75.8568 84.2897 81.9531 90.7105C88.0558 97.138 97.2556 101.394 109.616 101.394C126.482 101.394 142.559 94.0365 151.721 88.9926V114.187C139.311 120.978 113.782 132.353 82.9773 132.353C61.0342 132.353 40.7058 127.417 25.8775 116.792C11.0712 106.183 1.70752 89.8733 1.70752 67.0047C1.70752 44.191 11.7218 27.7533 27.1512 17.0009C42.601 6.23425 63.5072 1.15283 85.2707 1.15283C112.825 1.15283 137.437 11.3446 151.81 18.7859V44.0647C141.338 39.0709 124.952 32.785 108.115 32.8674ZM108.115 32.8674L108.117 33.3674L108.114 32.8674C108.115 32.8674 108.115 32.8674 108.115 32.8674ZM141.107 63.4849H128.993V49.6375H129.078H129.174H129.27H129.366H129.462H129.559H129.655H129.751H129.847H129.943H130.039H130.135H130.231H130.328H130.424H130.52H130.616H130.712H130.808H130.904H131.001H131.097H131.193H131.289H131.385H131.481H131.577H131.673H131.77H131.866H131.962H132.058H132.154H132.25H132.346H132.443H132.539H132.635H132.731H132.827H132.923H133.019H133.115H133.212H133.308H133.404H133.5H133.596H133.692H133.788H133.885H133.981H134.077H134.173H134.269H134.365H134.461H134.557H134.654H134.75H134.846H134.942H135.038H135.134H135.23H135.327H135.423H135.519H135.615H135.711H135.807H135.903H136H136.096H136.192H136.288H136.384H136.48H136.576H136.672H136.769H136.865H136.961H137.057H137.153H137.249H137.345H137.442H137.538H137.634H137.73H137.826H137.922H138.018H138.114H138.211H138.307H138.403H138.499H138.595H138.691H138.787H138.884H138.98H139.076H139.172H139.268H139.364H139.46H139.556H139.653H139.749H139.845H139.941H140.037H140.133H140.229H140.326H140.422H140.518H140.614H140.71H140.806H140.902H140.998H141.095H141.191H141.287H141.383H141.479H141.575H141.671H141.768H141.864H141.96H142.056H142.152H142.248H142.344H142.44H142.537H142.633H142.729H142.825H142.921H143.017H143.113H143.21H143.306H143.402H143.498H143.594H143.69H143.786H143.883H143.979H144.075H144.171H144.267H144.363H144.459H144.555H144.652H144.748H144.844H144.94H145.036H145.132H145.228H145.325H145.421H145.517H145.613H145.709H145.805H145.901H145.997H146.094H146.19H146.286H146.382H146.478H146.574H146.67H146.767H146.863H146.959H147.055H147.151H147.247H147.343H147.439H147.536H147.632H147.728H147.824H147.92H148.016H148.112H148.209H148.305H148.401H148.497H148.593H148.689H148.785H148.881H148.978H149.074H149.17H149.266H149.362H149.458H149.554H149.651H149.747H149.843H149.939H150.035H150.131H150.227H150.323H150.42H150.516H150.612H150.708H150.804H150.9H150.996H151.093H151.189H151.285H151.381H151.477H151.573H151.669H151.765H151.862H151.958H152.054H152.15H152.246H152.342H152.438H152.535H152.631H152.727H152.823H152.919H153.015H153.111H153.208H153.304H153.4H153.496H153.592H153.688H153.784H153.88H153.977H154.073H154.169H154.265H154.361H154.457H154.553H154.65H154.746H154.842H154.938H155.034H155.13H155.226H155.322H155.419H155.515H155.611H155.707H155.803H155.899H155.995H156.092H156.188H156.284H156.38H156.476H156.572H156.668H156.764H156.861H156.957H157.053H157.149H157.245H157.341H157.437H157.534H157.63H157.726H157.822H157.918H158.014H158.11H158.206H158.303H158.399H158.495H158.591H158.687H158.783H158.879H158.976H159.072H159.168H159.264H159.36H159.456H159.552H159.648H159.745H159.841H159.937H160.033H160.129H160.225H160.321H160.418H160.514H160.61H160.706H160.802H160.898H160.994H161.09H161.187H161.283H161.379H161.475H161.571H161.667H161.763H161.86H161.956H162.052H162.148H162.244H162.34H162.436H162.533H162.629H162.725H162.821H162.917H163.013H163.109H163.205H163.302H163.398H163.494H163.59H163.686H163.782H163.878H163.975H164.071H164.167H164.263H164.359H164.455H164.551H164.647H164.744H164.84H164.936H165.032H165.128H165.224H165.32H165.417H165.513H165.609H165.705H165.801H165.897H165.993H166.089H166.186H166.282H166.378H166.474H166.57H166.666H166.762H166.859H166.955H167.051H167.147H167.243H167.339H167.435H167.531H167.628H167.724H167.82H167.916H168.012H168.108H168.204H168.301H168.397H168.493H168.589H168.685H168.781H168.877H168.973H169.07H169.166H169.262H169.358H169.454H169.55H169.646H169.743H169.839H169.935H170.031H170.127H170.223H170.319H170.415H170.512H170.608H170.704H170.8H170.896H170.992H171.088H171.185H171.281H171.377H171.473H171.569H171.665H171.761H171.858H171.954H172.05H172.146H172.242H172.338H172.434H172.53H172.627H172.723H172.819H172.915H173.011H173.107H173.203H173.3H173.396H173.492H173.588H173.684H173.78H173.876H173.972H174.069H174.165H174.261H174.357H174.453H174.549H174.645H174.742H174.838H174.934H175.03H175.126H175.222H175.318H175.414H175.511H175.607H175.703H175.799H175.895H175.991H176.087H176.184H176.28H176.376H176.472H176.568H176.664H176.76H176.856H176.953H177.049H177.126V63.4849H165.012H164.512V63.9849V83.2814H141.607V63.9849V63.4849H141.107ZM31.7278 105.336H32.2278V104.836V53.7511C32.2278 48.1788 37.0079 43.5979 42.9304 43.5979C48.8529 43.5979 53.6329 48.1788 53.6329 53.7511C53.6329 59.3234 48.8529 63.9043 42.9304 63.9043C40.7322 63.9043 38.624 63.2606 36.9446 62.1427L36.1675 61.6254V62.5589V76.6513V77.0424L36.5472 77.1366C38.6174 77.6502 40.775 77.9063 43.0186 77.9063C57.0314 77.9063 68.3935 67.1365 68.3935 53.7511C68.3935 40.3657 57.0314 29.596 43.0186 29.596C29.0058 29.596 17.6436 40.3657 17.6436 53.7511V91.9181C17.6436 99.3477 23.9779 105.336 31.7278 105.336Z" fill="#E9E9E9" stroke="#E9E9E9"/>
<g clip-path="url(#clip0_145_13140)">
<path fill-rule="evenodd" clip-rule="evenodd" d="M336.679 34.0918C337.453 34.1142 338.217 33.8931 338.87 33.457C339.524 33.021 340.039 32.3898 340.35 31.6442C340.66 30.8987 340.751 30.0728 340.612 29.2724C340.472 28.4721 340.108 27.7338 339.567 27.1521C339.025 26.5704 338.33 26.1717 337.572 26.0073C336.813 25.843 336.025 25.9203 335.308 26.2294C334.592 26.5384 333.98 27.0652 333.55 27.7422C333.12 28.4192 332.893 29.2155 332.897 30.0291C332.891 30.5568 332.985 31.0804 333.172 31.5702C333.359 32.0599 333.636 32.5061 333.987 32.8834C334.338 33.2606 334.757 33.5616 335.219 33.7689C335.681 33.9763 336.177 34.086 336.679 34.0918Z" fill="#E9E9E9"/>
<path fill-rule="evenodd" clip-rule="evenodd" d="M325.802 17.5718H362.429L362.579 18.8736L365.015 39.4116L365.207 41.095H308.322V39.5911C308.056 34.4018 309.182 29.2383 311.57 24.6871C314.177 20.4224 318.558 17.5718 325.802 17.5718ZM359.993 20.557H325.802C319.626 20.557 315.972 22.8016 313.878 26.3032C311.979 29.9133 311.021 33.986 311.1 38.1097H362.087L359.993 20.557Z" fill="#E9E9E9"/>
<path fill-rule="evenodd" clip-rule="evenodd" d="M319.498 5.76529C319.151 5.72053 318.832 5.54403 318.6 5.26908C318.369 4.99414 318.241 4.63979 318.241 4.27269C318.241 3.9056 318.369 3.55118 318.6 3.27624C318.832 3.00129 319.151 2.82479 319.498 2.78003H359.651C359.996 2.78954 360.327 2.93194 360.579 3.1802C360.831 3.42846 360.987 3.7653 361.019 4.12679L365.015 39.4116C365.045 39.6038 365.037 39.8005 364.993 39.9897C364.948 40.1788 364.868 40.3565 364.756 40.5119C364.644 40.6673 364.503 40.797 364.342 40.8934C364.181 40.9898 364.002 41.0508 363.818 41.0726C363.45 41.1105 363.083 40.9954 362.795 40.7519C362.508 40.5085 362.322 40.1561 362.279 39.7707L358.326 5.76529H319.498Z" fill="#E9E9E9"/>
</g>
<g clip-path="url(#clip1_145_13140)">
<path fill-rule="evenodd" clip-rule="evenodd" d="M362.365 96.3193C362.44 95.9625 362.661 95.6485 362.98 95.4466C363.298 95.2447 363.689 95.1714 364.064 95.2427C364.44 95.3303 364.766 95.5533 364.972 95.8647C365.178 96.1762 365.249 96.5515 365.169 96.9115L356.878 133.876C356.811 134.185 356.635 134.463 356.379 134.664C356.123 134.865 355.803 134.976 355.471 134.98H318.039C317.698 134.977 317.369 134.859 317.111 134.647C316.853 134.435 316.683 134.143 316.631 133.823L308.35 96.9115C308.265 96.5524 308.332 96.1759 308.537 95.8635C308.742 95.5512 309.068 95.3281 309.445 95.2427C309.632 95.2061 309.824 95.2049 310.012 95.2393C310.199 95.2737 310.377 95.3429 310.536 95.443C310.695 95.543 310.831 95.672 310.937 95.8224C311.044 95.9728 311.117 96.1417 311.155 96.3193L319.2 132.208H354.319L362.365 96.3193Z" fill="#E9E9E9"/>
<path fill-rule="evenodd" clip-rule="evenodd" d="M311.41 104.959C311.825 104.959 312.675 104.062 313.515 103.165C314.781 101.783 316.056 100.411 317.746 100.411C319.436 100.411 320.711 101.783 321.977 103.165C322.817 104.062 323.667 104.959 324.082 104.959C324.498 104.959 325.348 104.062 326.188 103.165C327.454 101.783 328.728 100.411 330.419 100.411C332.109 100.411 333.384 101.783 334.659 103.165C335.499 104.062 336.339 104.959 336.755 104.959C337.17 104.959 338.02 104.062 338.861 103.165C340.136 101.783 341.401 100.411 343.091 100.411C344.782 100.411 346.056 101.783 347.331 103.165C348.172 104.062 349.012 104.959 349.437 104.959C349.862 104.959 350.693 104.062 351.533 103.165C352.808 101.783 354.074 100.411 355.773 100.411C357.473 100.411 358.739 101.783 360.004 103.165C360.844 104.062 361.685 104.959 362.11 104.959V107.759C360.419 107.759 359.145 106.377 357.87 104.995C357.029 104.098 356.189 103.201 355.773 103.201C355.358 103.201 354.508 104.098 353.668 104.995C352.393 106.377 351.127 107.759 349.437 107.759C347.747 107.759 346.472 106.377 345.197 104.995C344.357 104.098 343.516 103.201 343.091 103.201C342.666 103.201 341.835 104.098 340.995 104.995C339.72 106.377 338.455 107.759 336.755 107.759C335.055 107.759 333.799 106.377 332.524 104.995C331.684 104.098 330.844 103.201 330.419 103.201C329.994 103.201 329.163 104.098 328.313 104.995C327.047 106.377 325.773 107.759 324.082 107.759C322.392 107.759 321.117 106.377 319.852 104.995C319.011 104.098 318.162 103.201 317.746 103.201C317.331 103.201 316.481 104.098 315.64 104.995C314.375 106.377 313.1 107.759 311.41 107.759V104.959Z" fill="#E9E9E9"/>
<path fill-rule="evenodd" clip-rule="evenodd" d="M330.013 95.5389L329.569 96.149L326.424 100.456L320.645 108.387C320.329 108.822 320.203 109.357 320.292 109.879C320.382 110.401 320.681 110.869 321.127 111.186C321.569 111.479 322.116 111.593 322.646 111.504C323.177 111.415 323.649 111.129 323.96 110.711L329.739 102.77L330.39 103.219L322.619 113.914C322.304 114.35 322.179 114.885 322.27 115.407C322.362 115.929 322.663 116.397 323.11 116.713C323.328 116.86 323.575 116.965 323.836 117.02C324.097 117.076 324.367 117.082 324.631 117.038C324.894 116.994 325.146 116.9 325.371 116.763C325.597 116.625 325.791 116.447 325.943 116.237L333.724 105.552L334.375 106L325.877 117.718C325.563 118.154 325.438 118.688 325.527 119.209C325.617 119.73 325.915 120.199 326.358 120.517C326.801 120.81 327.347 120.924 327.878 120.835C328.409 120.746 328.881 120.46 329.191 120.042L337.69 108.324L338.332 108.773L330.551 119.458C330.237 119.894 330.112 120.428 330.202 120.95C330.291 121.471 330.589 121.939 331.033 122.258C331.475 122.55 332.021 122.664 332.552 122.575C333.083 122.486 333.555 122.201 333.865 121.782L341.779 111.078L344.914 106.763L345.726 107.319L342.336 111.976C342.113 112.395 342.067 112.88 342.205 113.331C342.344 113.782 342.657 114.167 343.082 114.407C343.449 114.71 343.924 114.867 344.41 114.845C344.895 114.823 345.353 114.625 345.688 114.29L353.243 103.91C354.089 102.773 354.58 101.432 354.659 100.041C354.737 98.6502 354.4 97.2668 353.687 96.0503L352.95 94.7583C352.736 94.4058 352.635 94.0019 352.659 93.5957C352.682 93.1896 352.829 92.7986 353.082 92.4704L354.027 91.3041C354.137 91.1642 354.216 91.0048 354.26 90.8352C354.303 90.6657 354.311 90.4895 354.282 90.3171C354.265 90.1387 354.207 89.966 354.112 89.811C354.018 89.656 353.888 89.5225 353.734 89.4199L343.894 82.5922C343.752 82.4886 343.588 82.4138 343.414 82.3724C343.24 82.3311 343.059 82.3241 342.882 82.3518C342.705 82.3796 342.536 82.4415 342.385 82.5338C342.235 82.626 342.105 82.7467 342.005 82.8883L339.616 86.1362C339.317 86.535 338.884 86.8259 338.389 86.9616C336.669 87.395 335.175 88.4095 334.187 89.8147L332.062 92.6858L330.013 95.5389Z" fill="#E9E9E9"/>
</g>
<path d="M64.1397 251.386C97.8561 242.609 125.967 236.704 126.942 238.247C127.917 239.789 101.268 248.194 67.552 256.972C33.8356 265.803 5.72505 271.654 4.75012 270.111C3.77519 268.569 30.3421 260.217 64.1397 251.386Z" stroke="#E9E9E9" stroke-width="8" stroke-miterlimit="22.9256"/>
<path d="M141.646 286.974C141.646 304.423 141.646 321.818 141.646 339.266C141.646 340.915 112.236 344.373 75.8382 344.373C39.522 344.373 10.0303 340.915 10.0303 339.266V286.974" stroke="#E9E9E9" stroke-width="8" stroke-miterlimit="22.9256"/>
<path d="M126.943 238.246C128.893 241.385 130.761 244.524 132.711 247.662C133.686 249.205 107.038 257.61 73.3217 266.387C39.6053 275.218 11.4947 281.07 10.5198 279.527L4.75146 270.111" stroke="#E9E9E9" stroke-width="8" stroke-miterlimit="22.9256"/>
<path d="M75.8382 289.953C112.183 289.953 141.646 288.62 141.646 286.974C141.646 285.329 112.183 283.995 75.8382 283.995C39.4935 283.995 10.0303 285.329 10.0303 286.974C10.0303 288.62 39.4935 289.953 75.8382 289.953Z" stroke="#E9E9E9" stroke-width="8" stroke-miterlimit="22.9256"/>
<path d="M91.6807 327.457V305.647H101.755L107.686 320.489L113.617 305.647H123.772V327.457H117.516V310.328L110.936 327.457H104.436L97.9365 310.328V327.457H91.6807Z" fill="#E9E9E9"/>
<path d="M57.6394 312.509C54.6334 312.509 51.8711 313.254 50.0024 314.584C50.9774 311.658 54.3084 308.466 61.1329 307.721C62.2703 307.615 63.489 307.562 64.4639 307.615H64.8702V304.742H64.5452C63.489 304.742 62.3516 304.796 61.2142 304.902C56.9082 305.221 53.171 306.392 50.3274 308.2C46.5902 310.647 44.5591 314.158 44.5591 318.201C44.5591 324 49.3525 327.723 56.7457 327.723C64.139 327.723 68.2012 323.627 68.2012 319.797C68.0387 315.435 63.8952 312.509 57.6394 312.509ZM56.6645 325.01C52.4398 325.01 49.7587 322.723 49.6775 318.999C49.6775 318.52 49.84 318.148 50.1649 317.776C51.3836 316.233 53.8209 315.222 56.3395 315.222C60.3205 315.222 62.8391 317.031 62.8391 320.01C62.7578 322.989 60.3205 325.01 56.6645 325.01Z" fill="#E9E9E9"/>
<path fill-rule="evenodd" clip-rule="evenodd" d="M120.516 52.8679C120.983 52.8679 121.43 52.8872 121.876 52.9258V57.2099C121.43 57.152 120.983 57.1327 120.516 57.1327C115.646 57.1327 111.588 60.4132 110.614 64.7745H118.852V68.7305H110.614C111.567 73.0917 115.646 76.3723 120.516 76.3723C120.983 76.3723 121.43 76.3337 121.876 76.2951V80.5791C121.43 80.6177 120.983 80.637 120.516 80.637C112.46 80.637 105.946 74.4232 105.946 66.7814C105.926 59.0624 112.46 52.8679 120.516 52.8679Z" fill="#E9E9E9"/>
<path fill-rule="evenodd" clip-rule="evenodd" d="M95.8511 52.8679C96.3178 52.8679 96.7643 52.8872 97.2107 52.9258V57.2099C96.7643 57.152 96.3178 57.1327 95.8511 57.1327C90.2706 57.1327 85.7454 61.436 85.7454 66.7428C85.7454 72.0496 90.2706 76.353 95.8511 76.353C96.3178 76.353 96.7643 76.3144 97.2107 76.2758V80.5598C96.7643 80.5984 96.3178 80.6177 95.8511 80.6177C87.795 80.5791 81.2607 74.3846 81.2607 66.7235C81.2607 59.0624 87.795 52.8679 95.8511 52.8679Z" fill="#E9E9E9"/>
<path d="M224.911 133.299C224.844 133.586 224.777 133.857 224.726 134.144C224.626 134.606 224.374 134.972 224.09 135.323C223.453 136.136 222.565 136.47 221.542 136.534C220.705 136.598 219.85 136.566 218.995 136.566C216.465 136.566 213.952 136.566 211.421 136.566C211.371 136.566 211.321 136.566 211.254 136.582C211.254 137.49 211.254 138.398 211.254 139.307C211.237 139.307 211.237 139.307 211.22 139.323C211.187 139.275 211.153 139.243 211.136 139.195C210.718 138.542 210.299 137.905 209.88 137.251C209.394 136.486 208.908 135.737 208.405 134.972C208.338 134.877 208.355 134.813 208.405 134.733C209.075 133.682 209.762 132.63 210.433 131.578C210.684 131.18 210.935 130.781 211.22 130.383C211.22 131.435 211.22 132.487 211.22 133.554C211.304 133.554 211.354 133.57 211.405 133.57C214.371 133.57 217.336 133.57 220.302 133.57C220.671 133.57 221.057 133.538 221.341 133.235C221.526 133.044 221.593 132.805 221.576 132.55C221.559 132.168 221.341 131.865 221.157 131.562C220.219 130.001 219.264 128.439 218.308 126.877C217.621 125.746 216.934 124.63 216.247 123.499C216.18 123.372 216.096 123.244 216.013 123.101C216.918 122.607 217.806 122.113 218.727 121.603C218.811 121.746 218.895 121.89 218.979 122.017C220.235 124.089 221.492 126.16 222.749 128.248C223.201 128.997 223.687 129.746 224.123 130.527C224.374 130.973 224.542 131.467 224.71 131.961C224.81 132.232 224.844 132.518 224.894 132.805C224.911 132.933 224.911 133.124 224.911 133.299Z" fill="#E9E9E9"/>
<path d="M208.457 107.93C208.607 107.946 208.775 107.962 208.926 107.978C209.864 108.058 210.551 108.552 211.154 109.205C211.322 109.396 211.49 109.62 211.624 109.843C213.199 112.408 214.757 114.974 216.316 117.539C216.383 117.667 216.466 117.778 216.55 117.922C217.388 117.444 218.226 116.982 219.064 116.519C219.08 116.519 219.08 116.535 219.097 116.535C219.064 116.599 219.03 116.647 218.997 116.711C218.594 117.412 218.192 118.097 217.807 118.798C217.388 119.547 216.969 120.296 216.567 121.061C216.5 121.173 216.433 121.22 216.299 121.204C214.824 121.157 213.333 121.125 211.858 121.093C211.557 121.093 211.272 121.093 210.97 121.093C210.97 121.077 210.953 121.045 210.953 121.029C211.908 120.503 212.88 119.962 213.852 119.436C213.567 118.958 213.283 118.511 213.014 118.065C211.808 116.089 210.618 114.097 209.412 112.121C209.244 111.85 209.06 111.58 208.775 111.404C208.44 111.213 208.004 111.213 207.719 111.468C207.518 111.643 207.334 111.85 207.2 112.09C205.658 114.607 204.116 117.141 202.592 119.675C202.374 120.041 202.156 120.392 201.921 120.758C201 120.264 200.112 119.77 199.19 119.276C199.408 118.926 199.609 118.575 199.81 118.241C201.285 115.818 202.759 113.412 204.217 110.974C204.669 110.209 205.273 109.572 205.876 108.918C206.044 108.743 206.295 108.616 206.513 108.488C206.999 108.233 207.518 108.042 208.071 107.962C208.088 107.962 208.121 107.946 208.138 107.93C208.205 107.93 208.322 107.93 208.457 107.93Z" fill="#E9E9E9"/>
<path d="M196.926 122.91C196.088 122.448 195.267 121.986 194.446 121.539C194.446 121.523 194.446 121.508 194.446 121.492C194.564 121.492 194.698 121.476 194.815 121.476C196.457 121.428 198.099 121.38 199.741 121.332C199.876 121.332 199.959 121.364 200.026 121.476C200.546 122.384 201.065 123.292 201.585 124.201C201.92 124.79 202.255 125.364 202.573 125.985C201.601 125.459 200.63 124.918 199.641 124.376C199.473 124.647 199.306 124.918 199.138 125.173C198.032 127.005 196.926 128.838 195.82 130.67C195.569 131.069 195.318 131.467 195.083 131.881C194.966 132.089 194.882 132.328 194.865 132.567C194.832 132.997 195.117 133.363 195.569 133.475C195.753 133.523 195.954 133.555 196.155 133.555C199.624 133.555 203.093 133.555 206.562 133.555C206.629 133.555 206.712 133.555 206.796 133.555C206.796 134.558 206.796 135.531 206.796 136.534C206.729 136.534 206.662 136.55 206.595 136.55C203.076 136.55 199.54 136.566 196.021 136.534C195.552 136.534 195.1 136.375 194.631 136.327C193.558 136.216 192.737 135.658 192.1 134.877C191.564 134.208 191.279 133.427 191.413 132.535C191.514 131.913 191.765 131.356 192.1 130.814C193.257 128.901 194.43 126.973 195.586 125.061C196.038 124.376 196.474 123.659 196.926 122.91Z" fill="#E9E9E9"/>
<path d="M224.911 97.6459C224.844 97.9327 224.777 98.2036 224.726 98.4905C224.626 98.9526 224.374 99.3191 224.09 99.6697C223.453 100.482 222.565 100.817 221.542 100.881C220.705 100.944 219.85 100.913 218.995 100.913C216.465 100.913 213.952 100.913 211.421 100.913C211.371 100.913 211.321 100.913 211.254 100.929C211.254 101.837 211.254 102.745 211.254 103.653C211.237 103.653 211.237 103.653 211.22 103.669C211.187 103.622 211.153 103.59 211.136 103.542C210.718 102.889 210.299 102.251 209.88 101.598C209.394 100.833 208.908 100.084 208.405 99.3191C208.338 99.2235 208.355 99.1598 208.405 99.0801C209.075 98.0284 209.762 96.9766 210.433 95.9249C210.684 95.5265 210.935 95.1281 211.22 94.7298C211.22 95.7815 211.22 96.8332 211.22 97.9009C211.304 97.9009 211.354 97.9168 211.405 97.9168C214.371 97.9168 217.336 97.9168 220.302 97.9168C220.671 97.9168 221.057 97.8849 221.341 97.5822C221.526 97.3909 221.593 97.1519 221.576 96.897C221.559 96.5145 221.341 96.2117 221.157 95.909C220.219 94.3473 219.264 92.7857 218.308 91.224C217.621 90.0926 216.934 88.9772 216.247 87.8458C216.18 87.7183 216.096 87.5908 216.013 87.4474C216.918 86.9534 217.806 86.4594 218.727 85.9495C218.811 86.0929 218.895 86.2363 218.979 86.3638C220.235 88.4354 221.492 90.5069 222.749 92.5944C223.201 93.3434 223.687 94.0924 224.123 94.8732C224.374 95.3194 224.542 95.8134 224.71 96.3074C224.81 96.5782 224.844 96.8651 224.894 97.1519C224.911 97.2794 224.911 97.4706 224.911 97.6459Z" fill="#E9E9E9"/>
<path d="M208.457 72.2769C208.607 72.2928 208.775 72.3087 208.926 72.3247C209.864 72.4043 210.551 72.8983 211.154 73.5517C211.322 73.7429 211.49 73.966 211.624 74.1891C213.199 76.7546 214.757 79.3202 216.316 81.8858C216.383 82.0133 216.466 82.1248 216.55 82.2682C217.388 81.7902 218.226 81.3281 219.064 80.8659C219.08 80.8659 219.08 80.8819 219.097 80.8819C219.064 80.9456 219.03 80.9934 218.997 81.0572C218.594 81.7583 218.192 82.4435 217.807 83.1447C217.388 83.8936 216.969 84.6426 216.567 85.4075C216.5 85.519 216.433 85.5668 216.299 85.5509C214.824 85.5031 213.333 85.4712 211.858 85.4393C211.557 85.4393 211.272 85.4393 210.97 85.4393C210.97 85.4234 210.953 85.3915 210.953 85.3756C211.908 84.8497 212.88 84.3079 213.852 83.7821C213.567 83.304 213.283 82.8578 213.014 82.4116C211.808 80.4357 210.618 78.4438 209.412 76.4678C209.244 76.1969 209.06 75.926 208.775 75.7507C208.44 75.5595 208.004 75.5595 207.719 75.8145C207.518 75.9898 207.334 76.1969 207.2 76.4359C205.658 78.9537 204.116 81.4874 202.592 84.0211C202.374 84.3876 202.156 84.7382 201.921 85.1047C201 84.6107 200.112 84.1167 199.19 83.6227C199.408 83.2722 199.609 82.9216 199.81 82.5869C201.285 80.1648 202.759 77.7586 204.217 75.3205C204.669 74.5556 205.273 73.9182 205.876 73.2648C206.044 73.0896 206.295 72.9621 206.513 72.8346C206.999 72.5796 207.518 72.3884 208.071 72.3087C208.088 72.3087 208.121 72.2928 208.138 72.2769C208.205 72.2769 208.322 72.2769 208.457 72.2769Z" fill="#E9E9E9"/>
<path d="M196.926 87.2561C196.088 86.7939 195.267 86.3318 194.446 85.8856C194.446 85.8697 194.446 85.8538 194.446 85.8378C194.564 85.8378 194.698 85.8219 194.815 85.8219C196.457 85.7741 198.099 85.7263 199.741 85.6785C199.876 85.6785 199.959 85.7103 200.026 85.8219C200.546 86.7302 201.065 87.6385 201.585 88.5468C201.92 89.1364 202.255 89.7101 202.573 90.3315C201.601 89.8057 200.63 89.2639 199.641 88.7221C199.473 88.993 199.306 89.2639 199.138 89.5189C198.032 91.3514 196.926 93.184 195.82 95.0165C195.569 95.4149 195.318 95.8133 195.083 96.2276C194.966 96.4347 194.882 96.6738 194.865 96.9128C194.832 97.343 195.117 97.7095 195.569 97.8211C195.753 97.8689 195.954 97.9008 196.155 97.9008C199.624 97.9008 203.093 97.9008 206.562 97.9008C206.629 97.9008 206.712 97.9008 206.796 97.9008C206.796 98.9047 206.796 99.8767 206.796 100.881C206.729 100.881 206.662 100.897 206.595 100.897C203.076 100.897 199.54 100.913 196.021 100.881C195.552 100.881 195.1 100.721 194.631 100.673C193.558 100.562 192.737 100.004 192.1 99.2234C191.564 98.5541 191.279 97.7733 191.413 96.8809C191.514 96.2594 191.765 95.7017 192.1 95.1599C193.257 93.2477 194.43 91.3195 195.586 89.4073C196.038 88.7221 196.474 88.005 196.926 87.2561Z" fill="#E9E9E9"/>
<path d="M224.911 61.9921C224.844 62.2789 224.777 62.5498 224.726 62.8367C224.626 63.2988 224.374 63.6653 224.09 64.0159C223.453 64.8286 222.565 65.1632 221.542 65.2269C220.705 65.2907 219.85 65.2588 218.995 65.2588C216.465 65.2588 213.952 65.2588 211.421 65.2588C211.371 65.2588 211.321 65.2588 211.254 65.2748C211.254 66.1831 211.254 67.0914 211.254 67.9997C211.237 67.9997 211.237 67.9997 211.22 68.0156C211.187 67.9678 211.153 67.9359 211.136 67.8881C210.718 67.2348 210.299 66.5974 209.88 65.944C209.394 65.1791 208.908 64.4302 208.405 63.6653C208.338 63.5697 208.355 63.5059 208.405 63.4263C209.075 62.3745 209.762 61.3228 210.433 60.2711C210.684 59.8727 210.935 59.4743 211.22 59.076C211.22 60.1277 211.22 61.1794 211.22 62.2471C211.304 62.2471 211.354 62.263 211.405 62.263C214.371 62.263 217.336 62.263 220.302 62.263C220.671 62.263 221.057 62.2311 221.341 61.9284C221.526 61.7371 221.593 61.4981 221.576 61.2431C221.559 60.8607 221.341 60.5579 221.157 60.2552C220.219 58.6935 219.264 57.1319 218.308 55.5702C217.621 54.4388 216.934 53.3233 216.247 52.1919C216.18 52.0645 216.096 51.937 216.013 51.7936C216.918 51.2996 217.806 50.8056 218.727 50.2957C218.811 50.4391 218.895 50.5825 218.979 50.71C220.235 52.7815 221.492 54.8531 222.749 56.9406C223.201 57.6896 223.687 58.4385 224.123 59.2194C224.374 59.6656 224.542 60.1595 224.71 60.6535C224.81 60.9244 224.844 61.2113 224.894 61.4981C224.911 61.6256 224.911 61.8168 224.911 61.9921Z" fill="#E9E9E9"/>
<path d="M208.457 36.624C208.607 36.64 208.775 36.6559 208.926 36.6718C209.864 36.7515 210.551 37.2455 211.154 37.8988C211.322 38.0901 211.49 38.3132 211.624 38.5362C213.199 41.1018 214.757 43.6674 216.316 46.233C216.383 46.3604 216.466 46.472 216.55 46.6154C217.388 46.1373 218.226 45.6752 219.064 45.2131C219.08 45.2131 219.08 45.229 219.097 45.229C219.064 45.2928 219.03 45.3406 218.997 45.4043C218.594 46.1055 218.192 46.7907 217.807 47.4918C217.388 48.2408 216.969 48.9897 216.567 49.7546C216.5 49.8662 216.433 49.914 216.299 49.8981C214.824 49.8502 213.333 49.8184 211.858 49.7865C211.557 49.7865 211.272 49.7865 210.97 49.7865C210.97 49.7706 210.953 49.7387 210.953 49.7228C211.908 49.1969 212.88 48.6551 213.852 48.1292C213.567 47.6512 213.283 47.205 213.014 46.7588C211.808 44.7829 210.618 42.7909 209.412 40.815C209.244 40.5441 209.06 40.2732 208.775 40.0979C208.44 39.9067 208.004 39.9067 207.719 40.1616C207.518 40.3369 207.334 40.5441 207.2 40.7831C205.658 43.3009 204.116 45.8346 202.592 48.3683C202.374 48.7348 202.156 49.0854 201.921 49.4519C201 48.9579 200.112 48.4639 199.19 47.9699C199.408 47.6193 199.609 47.2687 199.81 46.9341C201.285 44.512 202.759 42.1057 204.217 39.6676C204.669 38.9028 205.273 38.2653 205.876 37.612C206.044 37.4367 206.295 37.3092 206.513 37.1818C206.999 36.9268 207.518 36.7356 208.071 36.6559C208.088 36.6559 208.121 36.64 208.138 36.624C208.205 36.624 208.322 36.624 208.457 36.624Z" fill="#E9E9E9"/>
<path d="M196.926 51.6027C196.088 51.1406 195.267 50.6785 194.446 50.2323C194.446 50.2164 194.446 50.2004 194.446 50.1845C194.564 50.1845 194.698 50.1686 194.815 50.1686C196.457 50.1208 198.099 50.073 199.741 50.0251C199.876 50.0251 199.959 50.057 200.026 50.1686C200.546 51.0769 201.065 51.9852 201.585 52.8935C201.92 53.4831 202.255 54.0568 202.573 54.6782C201.601 54.1524 200.63 53.6106 199.641 53.0688C199.473 53.3397 199.306 53.6106 199.138 53.8655C198.032 55.6981 196.926 57.5306 195.82 59.3632C195.569 59.7616 195.318 60.1599 195.083 60.5743C194.966 60.7814 194.882 61.0204 194.865 61.2595C194.832 61.6897 195.117 62.0562 195.569 62.1678C195.753 62.2156 195.954 62.2475 196.155 62.2475C199.624 62.2475 203.093 62.2475 206.562 62.2475C206.629 62.2475 206.712 62.2475 206.796 62.2475C206.796 63.2514 206.796 64.2234 206.796 65.2273C206.729 65.2273 206.662 65.2433 206.595 65.2433C203.076 65.2433 199.54 65.2592 196.021 65.2273C195.552 65.2273 195.1 65.068 194.631 65.0202C193.558 64.9086 192.737 64.3509 192.1 63.5701C191.564 62.9008 191.279 62.12 191.413 61.2276C191.514 60.6061 191.765 60.0484 192.1 59.5066C193.257 57.5944 194.43 55.6662 195.586 53.754C196.038 53.0688 196.474 52.3517 196.926 51.6027Z" fill="#E9E9E9"/>
<path d="M224.911 26.9325C224.844 27.2194 224.777 27.4903 224.726 27.7771C224.626 28.2392 224.374 28.6057 224.09 28.9563C223.453 29.769 222.565 30.1036 221.542 30.1674C220.705 30.2311 219.85 30.1992 218.995 30.1992C216.465 30.1992 213.952 30.1992 211.421 30.1992C211.371 30.1992 211.321 30.1992 211.254 30.2152C211.254 31.1235 211.254 32.0318 211.254 32.9401C211.237 32.9401 211.237 32.9401 211.22 32.956C211.187 32.9082 211.153 32.8764 211.136 32.8286C210.718 32.1752 210.299 31.5378 209.88 30.8845C209.394 30.1196 208.908 29.3706 208.405 28.6057C208.338 28.5101 208.355 28.4464 208.405 28.3667C209.075 27.315 209.762 26.2633 210.433 25.2115C210.684 24.8131 210.935 24.4148 211.22 24.0164C211.22 25.0681 211.22 26.1198 211.22 27.1875C211.304 27.1875 211.354 27.2034 211.405 27.2034C214.371 27.2034 217.336 27.2034 220.302 27.2034C220.671 27.2034 221.057 27.1716 221.341 26.8688C221.526 26.6776 221.593 26.4385 221.576 26.1836C221.559 25.8011 221.341 25.4984 221.157 25.1956C220.219 23.6339 219.264 22.0723 218.308 20.5106C217.621 19.3792 216.934 18.2638 216.247 17.1324C216.18 17.0049 216.096 16.8774 216.013 16.734C216.918 16.24 217.806 15.746 218.727 15.2361C218.811 15.3795 218.895 15.5229 218.979 15.6504C220.235 17.722 221.492 19.7936 222.749 21.8811C223.201 22.63 223.687 23.379 224.123 24.1598C224.374 24.606 224.542 25.1 224.71 25.594C224.81 25.8649 224.844 26.1517 224.894 26.4385C224.911 26.566 224.911 26.7572 224.911 26.9325Z" fill="#E9E9E9"/>
<path d="M208.457 1.56372C208.607 1.57966 208.775 1.59559 208.926 1.61153C209.864 1.6912 210.551 2.18519 211.154 2.83854C211.322 3.02976 211.49 3.25285 211.624 3.47595C213.199 6.04151 214.757 8.60708 216.316 11.1727C216.383 11.3001 216.466 11.4117 216.55 11.5551C217.388 11.077 218.226 10.6149 219.064 10.1528C219.08 10.1528 219.08 10.1687 219.097 10.1687C219.064 10.2325 219.03 10.2803 218.997 10.344C218.594 11.0452 218.192 11.7304 217.807 12.4315C217.388 13.1805 216.969 13.9294 216.567 14.6943C216.5 14.8059 216.433 14.8537 216.299 14.8378C214.824 14.7899 213.333 14.7581 211.858 14.7262C211.557 14.7262 211.272 14.7262 210.97 14.7262C210.97 14.7103 210.953 14.6784 210.953 14.6625C211.908 14.1366 212.88 13.5948 213.852 13.0689C213.567 12.5909 213.283 12.1447 213.014 11.6985C211.808 9.72255 210.618 7.73065 209.412 5.75468C209.244 5.48378 209.06 5.21288 208.775 5.0376C208.44 4.84637 208.004 4.84637 207.719 5.10134C207.518 5.27662 207.334 5.48378 207.2 5.72281C205.658 8.24057 204.116 10.7743 202.592 13.308C202.374 13.6745 202.156 14.0251 201.921 14.3916C201 13.8976 200.112 13.4036 199.19 12.9096C199.408 12.559 199.609 12.2084 199.81 11.8738C201.285 9.45165 202.759 7.04543 204.217 4.60735C204.669 3.84246 205.273 3.20505 205.876 2.5517C206.044 2.37642 206.295 2.24893 206.513 2.12145C206.999 1.86649 207.518 1.67527 208.071 1.59559C208.088 1.59559 208.121 1.57966 208.138 1.56372C208.205 1.56372 208.322 1.56372 208.457 1.56372Z" fill="#E9E9E9"/>
<path d="M196.926 16.5429C196.088 16.0808 195.267 15.6187 194.446 15.1725C194.446 15.1566 194.446 15.1406 194.446 15.1247C194.564 15.1247 194.698 15.1087 194.815 15.1087C196.457 15.0609 198.099 15.0131 199.741 14.9653C199.876 14.9653 199.959 14.9972 200.026 15.1087C200.546 16.0171 201.065 16.9254 201.585 17.8337C201.92 18.4233 202.255 18.9969 202.573 19.6184C201.601 19.0926 200.63 18.5508 199.641 18.009C199.473 18.2799 199.306 18.5508 199.138 18.8057C198.032 20.6383 196.926 22.4708 195.82 24.3034C195.569 24.7017 195.318 25.1001 195.083 25.5144C194.966 25.7216 194.882 25.9606 194.865 26.1997C194.832 26.6299 195.117 26.9964 195.569 27.108C195.753 27.1558 195.954 27.1876 196.155 27.1876C199.624 27.1876 203.093 27.1876 206.562 27.1876C206.629 27.1876 206.712 27.1876 206.796 27.1876C206.796 28.1916 206.796 29.1636 206.796 30.1675C206.729 30.1675 206.662 30.1835 206.595 30.1835C203.076 30.1835 199.54 30.1994 196.021 30.1675C195.552 30.1675 195.1 30.0082 194.631 29.9604C193.558 29.8488 192.737 29.2911 192.1 28.5103C191.564 27.841 191.279 27.0602 191.413 26.1678C191.514 25.5463 191.765 24.9886 192.1 24.4468C193.257 22.5346 194.43 20.6064 195.586 18.6942C196.038 18.009 196.474 17.2919 196.926 16.5429Z" fill="#E9E9E9"/>
<path d="M364.756 77.6799L346.255 77.6259C342.475 77.2745 339.206 74.9232 337.359 71.5719C337.018 70.9503 336.023 70.9503 335.682 71.5719C333.835 74.9232 330.595 77.2745 326.787 77.6259L308.285 77.6799L308.285 52.8154L326.787 52.8695C330.567 53.2208 333.835 55.5721 335.682 58.9234C336.023 59.545 337.018 59.545 337.359 58.9234C339.206 55.5721 342.446 53.2208 346.255 52.8695L364.756 52.8154L364.756 77.6799Z" stroke="#E9E9E9" stroke-width="8" stroke-miterlimit="22.9256"/>
<path d="M326.816 52.8695L326.816 77.6799L308.314 77.6799L308.314 52.8695L326.816 52.8695Z" fill="#E9E9E9"/>
<path fill-rule="evenodd" clip-rule="evenodd" d="M244.125 3.63086H249.264H255.069V19.0163H249.264V62.9632H255.069V78.3487H249.264V119.431H255.069V134.817H249.264H244.125V119.431V78.3487V62.9632V19.0163V3.63086ZM264.561 62.9632H270.104V19.0163H264.561V62.9632ZM270.08 78.4305H264.537V134.98H259.398V78.4305V63.045V19.0163V3.63086H264.537H270.08H272.816H275.219V134.899H270.08V78.4305ZM285.877 119.513H291.706V134.899H285.877H280.762V119.513V19.0163V3.63086H285.901H291.706V19.0163H285.877V119.513Z" fill="#E9E9E9"/>
<path d="M37.6588 225.649C35.749 225.47 33.8392 225.15 31.9669 224.687C31.6673 224.616 31.4052 224.509 31.1056 224.438C30.4316 224.224 29.7201 224.082 29.0835 223.832C28.4094 223.619 27.7728 223.334 27.1362 223.049C26.2375 222.657 25.3013 222.266 24.4026 221.838C23.6911 221.482 22.9796 221.09 22.3055 220.663C21.594 220.236 20.92 219.808 20.2459 219.381C19.7591 219.061 19.2723 218.669 18.7855 218.313C18.2612 217.921 17.7744 217.565 17.2876 217.138C16.651 216.603 16.0519 216.069 15.4902 215.499C14.8161 214.858 14.1421 214.217 13.5429 213.505C12.6816 212.508 11.8578 211.475 11.1089 210.407C10.285 209.196 9.49863 207.95 8.78713 206.704C8.33777 205.92 8.00074 205.101 7.62627 204.282C7.21435 203.285 6.76499 202.288 6.42796 201.291C6.05349 200.187 5.75392 199.012 5.49179 197.872C5.30455 197.089 5.19221 196.27 5.07987 195.486C4.96753 194.703 4.78029 193.919 4.78029 193.1C4.74284 191.284 4.6305 189.468 4.89263 187.652C5.11732 185.907 5.342 184.198 5.79136 182.488C6.12839 181.277 6.50286 180.067 6.95222 178.927C7.47648 177.574 8.07564 176.256 8.74968 174.974C9.42373 173.728 10.1727 172.553 10.9965 171.378C11.6706 170.381 12.4195 169.419 13.2059 168.493C13.8799 167.71 14.6289 166.962 15.3778 166.25C16.2391 165.431 17.1378 164.647 18.0366 163.899C18.7481 163.33 19.5344 162.795 20.3208 162.261C21.2945 161.62 22.3055 161.015 23.3541 160.41C24.2902 159.911 25.2264 159.448 26.2 159.021C27.1362 158.593 28.1098 158.237 29.046 157.881C29.8699 157.596 30.6937 157.383 31.5175 157.133C32.6035 156.848 33.7269 156.599 34.8503 156.35C35.3746 156.243 35.9363 156.207 36.498 156.136C37.3967 156.029 38.2954 155.851 39.1567 155.816C41.1414 155.78 43.1261 155.638 45.0734 155.958C46.0844 156.101 47.0581 156.207 48.0691 156.314C48.3687 156.35 48.7057 156.421 49.0053 156.492C49.904 156.706 50.7653 156.92 51.6266 157.169C52.413 157.383 53.1994 157.632 54.0232 157.846C54.2479 157.917 54.4352 158.024 54.6598 158.095C55.3339 158.344 55.9705 158.593 56.6445 158.878C57.0939 159.056 57.5433 159.27 57.9552 159.484C58.7416 159.875 59.528 160.231 60.2769 160.659C60.9509 161.015 61.5875 161.442 62.2241 161.87C63.1978 162.511 64.1714 163.187 65.0701 163.899C66.1186 164.718 67.0923 165.609 68.0284 166.57C68.9646 167.532 69.9008 168.493 70.7246 169.526C71.511 170.487 72.1851 171.556 72.8966 172.553C73.9825 174.12 74.8438 175.793 75.5553 177.538C76.0421 178.678 76.4166 179.817 76.7911 180.993C77.0906 181.883 77.3153 182.809 77.54 183.735C78.626 188.578 77.9145 195.842 77.8021 196.483C77.6149 197.48 77.4651 198.442 77.203 199.403C76.9409 200.4 76.6038 201.398 76.2668 202.395C75.9672 203.214 75.6302 204.033 75.2557 204.816C74.8438 205.706 74.3945 206.632 73.8702 207.487C73.1587 208.698 72.3723 209.837 71.5859 210.977C70.9493 211.832 70.2753 212.651 69.5638 213.47C69.0021 214.111 68.4029 214.752 67.7663 215.357C67.1672 215.927 66.568 216.461 65.9314 216.995C65.2574 217.565 64.5833 218.135 63.8344 218.633C62.8233 219.345 61.7373 220.022 60.6888 220.663C59.8275 221.162 58.9662 221.625 58.0675 222.052C57.2437 222.479 56.3824 222.871 55.4837 223.191C54.7722 223.476 54.0607 223.69 53.3492 223.904C52.5628 224.153 51.7764 224.402 50.99 224.616C50.5781 224.723 50.1662 224.794 49.7543 224.865C49.0802 225.008 48.4436 225.15 47.7696 225.257C46.9832 225.364 46.1968 225.435 45.4104 225.542C45.2606 225.684 37.7712 225.649 37.6588 225.649ZM43.0887 198.121C46.8334 198.015 50.1662 197.979 53.5364 197.587C55.8956 197.338 58.2922 197.053 60.6139 196.626C61.1007 196.519 61.5875 196.519 62.0744 196.412C63.048 196.198 64.0216 195.949 64.9578 195.7C65.8191 195.486 66.7178 195.308 67.5791 194.988C68.4778 194.667 69.3765 194.275 70.2004 193.777C71.2863 193.1 72.26 192.352 73.0089 191.32C74.02 190.038 74.6191 188.578 74.8813 187.011C75.2183 185.088 74.9187 183.236 74.2821 181.42C74.02 180.708 73.7579 179.96 73.4583 179.283C73.0838 178.393 72.7093 177.503 72.26 176.648C71.6608 175.544 71.0242 174.476 70.3502 173.407C69.7136 172.446 69.0021 171.52 68.2531 170.63C67.5416 169.74 66.7178 168.921 65.9314 168.101C65.5944 167.745 65.2199 167.389 64.808 167.069C64.3212 166.677 63.8344 166.285 63.3476 165.894C62.5986 165.324 61.8871 164.79 61.1382 164.255C60.4641 163.793 59.7901 163.401 59.116 162.974C58.779 162.76 58.442 162.582 58.0675 162.404C57.1688 161.976 56.2701 161.549 55.3713 161.122C54.922 160.908 54.4351 160.694 53.9483 160.552C53.1619 160.303 52.413 160.053 51.6266 159.804C50.8402 159.59 50.0913 159.341 49.3049 159.163C47.7696 158.843 46.2342 158.593 44.6989 158.487C41.5159 158.237 38.3703 158.344 35.2248 158.914C34.1014 159.128 32.9405 159.341 31.8545 159.626C30.7311 159.947 29.6452 160.374 28.5592 160.766C27.623 161.122 26.7243 161.549 25.8256 161.941C25.4136 162.119 25.0392 162.368 24.6273 162.582C24.2528 162.795 23.8409 163.009 23.4664 163.223C22.8672 163.579 22.3055 163.935 21.7438 164.291C21.1821 164.683 20.6204 165.075 20.0962 165.502C19.4221 166.036 18.7481 166.57 18.1115 167.14C17.5123 167.674 16.9132 168.244 16.3889 168.849C15.6399 169.668 14.8536 170.487 14.1795 171.342C13.3931 172.339 12.7191 173.372 12.045 174.44C11.5582 175.188 11.1089 176.007 10.7344 176.791C10.285 177.716 9.91054 178.642 9.49863 179.604C9.2365 180.28 8.97437 180.957 8.78713 181.634C8.56245 182.417 8.41266 183.236 8.18798 184.02C7.81351 185.408 7.66372 186.833 7.55138 188.293C7.36414 190.501 7.43904 192.709 7.73861 194.916C8.00074 196.875 8.45011 198.798 9.08671 200.685C9.31139 201.398 9.57352 202.074 9.83565 202.751C10.2476 203.677 10.6595 204.603 11.1837 205.528C11.8203 206.668 12.4944 207.843 13.2808 208.911C13.9923 209.944 14.8536 210.906 15.6774 211.867C16.5761 212.971 17.6246 213.968 18.7481 214.894C19.7591 215.713 20.8076 216.461 21.8187 217.244C22.0809 217.458 22.343 217.636 22.6426 217.779C23.5413 218.313 24.4775 218.847 25.4136 219.345C25.9005 219.595 26.3873 219.844 26.9115 220.093C27.5107 220.343 28.1098 220.592 28.6715 220.841C29.2332 221.055 29.8324 221.304 30.4316 221.482C31.2179 221.731 32.0043 221.945 32.7907 222.159C33.2026 222.266 33.5771 222.372 33.989 222.444C35.1873 222.657 36.3482 222.942 37.584 223.013C38.5576 223.049 39.5312 223.227 40.5048 223.263C43.0887 223.369 45.5976 223.12 48.144 222.657C49.4921 222.408 50.8777 222.123 52.1509 221.66C53.0122 221.34 53.8734 221.055 54.7722 220.734C55.3339 220.521 55.8581 220.307 56.3824 220.093C56.7569 219.915 57.1313 219.702 57.5058 219.523C57.9552 219.274 58.4045 219.061 58.8539 218.776C59.7152 218.277 60.5765 217.779 61.4003 217.244C62.1867 216.71 62.9356 216.14 63.6471 215.535C64.4335 214.858 65.2574 214.182 65.9689 213.434C66.8301 212.579 67.6165 211.689 68.4404 210.763C68.8523 210.3 69.2268 209.802 69.6012 209.268C70.2004 208.377 70.7995 207.451 71.3612 206.49C71.7357 205.849 72.0727 205.137 72.4098 204.46C72.4846 204.282 72.5221 204.068 72.4846 203.89C72.3723 203.285 71.8106 202.929 71.3987 202.858C70.9119 202.751 70.2378 203.143 70.0131 203.605C69.8259 203.962 69.6012 204.318 69.3765 204.638C68.9272 205.35 68.4778 206.063 67.991 206.739C67.6914 207.167 67.3544 207.594 67.0174 207.986C66.905 208.128 66.7552 208.128 66.6429 207.986C66.4931 207.879 66.4931 207.772 66.6055 207.629C66.8301 207.309 67.0923 206.988 67.317 206.632C67.9536 205.671 68.5527 204.709 69.1519 203.712C69.3391 203.392 69.5263 203.036 69.7136 202.68C70.088 201.861 69.4514 200.97 68.5153 200.935C67.9536 200.899 67.6165 201.148 67.317 201.576C67.1297 201.896 66.9425 202.217 66.7552 202.537C66.3808 203.143 66.0437 203.748 65.6693 204.353C65.3323 204.887 64.9952 205.457 64.6208 205.991C64.5084 206.169 64.2837 206.169 64.0965 206.063C63.9093 205.92 64.0965 205.813 64.1339 205.706C64.471 205.172 64.8454 204.638 65.145 204.068C65.5195 203.392 65.894 202.68 66.2684 202.003C66.5306 201.54 66.8301 201.077 67.0174 200.579C67.1297 200.294 67.1297 199.938 67.0174 199.653C66.8301 199.19 66.4182 198.905 65.8565 198.905C65.2948 198.905 64.9203 199.154 64.6208 199.581C63.7595 201.006 62.8982 202.43 62.0369 203.855C61.9246 204.068 61.7373 204.104 61.5127 203.997C61.3254 203.89 61.288 203.677 61.4003 203.499C61.6999 203 61.9995 202.537 62.2616 202.039C62.8233 201.006 63.4225 199.973 63.9842 198.905C64.2088 198.513 64.2088 198.05 64.0216 197.623C63.8344 197.16 63.385 196.911 62.8607 196.911C62.299 196.911 61.8871 197.231 61.6624 197.694C61.3254 198.335 61.0258 199.012 60.6888 199.617C60.1646 200.543 59.6403 201.433 59.0037 202.288C58.3296 203.249 57.5058 204.14 56.6071 204.959C56.5322 205.03 56.3824 205.101 56.2326 205.137C55.6709 205.208 55.259 204.994 54.9969 204.424C54.7722 203.962 54.6224 203.463 54.4351 203C54.0981 202.003 53.3866 201.433 52.3007 201.255C52.0385 201.22 51.7764 201.291 51.4768 201.326C51.2896 201.362 51.2147 201.504 51.2147 201.718C51.2147 203.249 51.1772 204.781 51.1772 206.347C51.1772 207.06 51.1398 207.772 51.1024 208.484C51.1024 208.627 50.99 208.805 50.8777 208.84C50.0164 209.232 49.1551 209.659 48.2189 209.873C47.3951 210.051 46.6461 210.371 45.8223 210.514C44.9985 210.656 44.1746 210.692 43.3508 210.834C41.5533 211.119 39.7933 210.799 38.0333 210.728C37.9584 210.728 37.8461 210.692 37.7712 210.656C36.7601 210.371 35.7116 210.265 34.7005 209.837C34.0265 209.552 33.2775 209.339 32.6035 209.09C32.1541 208.911 31.7048 208.698 31.2928 208.449C30.3941 207.95 29.5328 207.451 28.6715 206.846C27.96 206.347 27.3234 205.778 26.6868 205.208C25.6383 204.318 24.7396 203.249 23.9532 202.145C23.0919 200.935 22.343 199.653 21.7813 198.264C21.7064 198.05 21.4443 197.872 21.257 197.765C20.7328 197.552 20.1336 197.445 19.6468 197.16C19.1974 196.911 18.7855 196.555 18.4485 196.198C17.8119 195.379 17.5123 194.382 17.6621 193.35C17.7744 192.78 17.8493 192.281 17.4749 191.783V191.747C17.3251 190.857 17.2502 189.931 17.7744 189.112C17.8119 189.005 17.8493 188.863 17.8119 188.791C17.5498 188.222 17.5123 187.652 17.6246 187.046C17.7744 186.334 18.074 185.658 18.4859 185.052C18.5608 184.91 18.6357 184.767 18.5983 184.625C18.5234 183.984 18.5983 183.343 18.8604 182.738C19.1225 182.025 19.6093 181.527 20.2085 181.099C21.0323 180.565 21.9685 180.423 22.9421 180.53C23.0545 180.53 23.2043 180.494 23.2417 180.387C23.5787 179.96 23.8783 179.497 24.2153 179.07C24.8145 178.357 25.3762 177.61 26.0502 176.969C26.612 176.399 27.2486 175.865 27.9226 175.33C28.6715 174.761 29.4205 174.191 30.2443 173.692C31.1056 173.194 32.0043 172.731 32.9405 172.339C33.7269 171.983 34.5507 171.734 35.3746 171.484C36.0861 171.271 36.7976 171.128 37.5091 170.986C37.8461 170.915 38.1831 170.808 38.5576 170.808C40.2801 170.701 42.0027 170.63 43.7253 170.772C44.287 170.808 44.8861 170.879 45.4478 170.986C46.3091 171.164 47.2079 171.413 48.0317 171.663C48.7057 171.876 49.3798 172.09 50.0538 172.339C50.5406 172.517 50.99 172.802 51.4768 173.016C52.5628 173.514 53.5364 174.155 54.51 174.868C54.7347 175.046 54.9594 175.224 55.1841 175.402C55.8207 175.936 56.4573 176.47 57.019 177.04C57.6556 177.716 58.2547 178.429 58.8165 179.176C59.2658 179.746 59.6403 180.352 59.9773 180.993C60.3892 181.74 60.0522 182.488 59.3033 182.809C58.8539 182.987 58.4045 183.2 57.9177 183.379C57.1313 183.663 56.3824 183.984 55.5586 184.162C54.2105 184.482 52.8624 184.732 51.5143 184.945C50.2411 185.123 48.9304 185.23 47.6198 185.337C45.1857 185.551 42.7517 185.551 40.3176 185.48C40.2052 185.48 40.0555 185.373 39.9806 185.301C39.6061 184.767 39.2691 184.198 38.932 183.663C38.4827 182.951 38.0708 182.203 37.6214 181.491C37.2844 180.921 36.9099 180.316 36.5729 179.746C36.5354 179.675 36.4231 179.533 36.3482 179.533C35.9363 179.568 35.4869 179.497 35.1499 179.675C34.4758 179.995 34.0639 180.565 34.1014 181.349C34.1388 182.168 34.1388 183.022 34.1388 183.841C34.1388 184.376 33.7643 184.696 33.2401 184.696C32.6409 184.66 32.0418 184.625 31.4801 184.518C31.0682 184.447 30.6562 184.34 30.2069 184.269C29.0086 184.02 27.7728 183.806 26.5371 183.557C26.2 183.485 25.863 183.379 25.526 183.307C24.8894 183.165 24.2153 183.058 23.5787 182.916C22.9796 182.773 22.2681 182.916 21.9685 183.379C21.257 184.411 21.8187 185.337 22.9421 185.622C23.9532 185.907 24.9643 186.085 25.9753 186.334C26.2375 186.405 26.4622 186.512 26.7243 186.548C27.1737 186.655 27.6605 186.726 28.1473 186.833C28.2971 186.868 28.4469 186.904 28.5218 187.011C28.5966 187.082 28.6715 187.296 28.6341 187.367C28.5592 187.474 28.372 187.581 28.2596 187.545C27.2111 187.331 26.1251 187.118 25.0766 186.904C24.1779 186.726 23.3166 186.512 22.4179 186.334C21.8187 186.227 21.3694 186.512 21.1072 187.011C20.8825 187.403 20.9574 187.759 21.1821 188.15C21.4817 188.578 21.9685 188.756 22.4553 188.863C23.4289 189.112 24.44 189.326 25.4511 189.539C25.8256 189.646 26.2375 189.753 26.612 189.824C27.2111 189.967 27.8103 190.109 28.4094 190.287C28.5218 190.323 28.5592 190.465 28.6341 190.536C28.5218 190.607 28.4469 190.643 28.3345 190.714C28.2971 190.714 28.2222 190.714 28.1847 190.714C27.286 190.536 26.3498 190.358 25.4511 190.145C24.8894 190.038 24.3277 189.895 23.766 189.753C23.3915 189.682 22.9796 189.646 22.6051 189.504C22.0809 189.326 21.7064 189.468 21.2945 189.717C20.6579 190.145 20.6204 191.213 21.257 191.64C21.594 191.854 22.006 192.032 22.4179 192.103C23.3915 192.352 24.4026 192.53 25.3762 192.744C25.863 192.851 26.3124 192.958 26.7992 193.065C27.2111 193.171 27.6605 193.243 28.0724 193.35C28.2222 193.385 28.372 193.456 28.4843 193.528C28.5592 193.563 28.5966 193.706 28.5966 193.777C28.5592 193.848 28.4469 193.919 28.372 193.955C28.2971 193.991 28.1847 193.955 28.1098 193.919C27.1737 193.741 26.2375 193.563 25.3387 193.35C24.4775 193.171 23.6162 192.993 22.7175 192.815C22.4928 192.78 22.3055 192.744 22.0809 192.744C21.4817 192.78 21.0698 193.171 20.9574 193.67C20.8077 194.169 21.0698 194.738 21.594 194.916C22.4179 195.237 23.2792 195.522 24.1779 195.771C25.1141 196.02 26.0502 196.163 26.9864 196.376C27.4358 196.483 27.8852 196.626 28.372 196.697C29.9073 196.911 31.4801 197.124 33.0154 197.302C34.1763 197.445 35.3746 197.587 36.5354 197.658C38.8197 197.979 41.1414 198.015 43.0887 198.121ZM30.132 204.923C30.2069 204.852 30.3192 204.816 30.3941 204.745C30.9933 203.748 31.7048 202.822 32.566 202.039C32.6409 201.967 32.6784 201.789 32.6035 201.718C32.3788 201.22 32.1167 200.721 31.892 200.187C31.7797 199.902 31.555 199.795 31.2554 199.759C30.7311 199.724 30.2443 199.688 29.7201 199.617C28.1473 199.332 26.6119 199.012 25.0392 198.727C24.9643 198.727 24.8519 198.727 24.8519 198.762C24.8145 198.798 24.8145 198.905 24.8519 198.976C24.9268 199.118 25.0392 199.261 25.1515 199.403C25.6383 200.116 26.0502 200.863 26.5745 201.504C27.2486 202.323 27.96 203.071 28.709 203.783C29.046 204.14 29.4954 204.46 29.8699 204.781C29.9822 204.816 30.0571 204.852 30.132 204.923ZM51.6641 182.524C52.75 182.31 53.7237 182.132 54.7347 181.918C55.4462 181.74 56.1203 181.491 56.7943 181.277C57.0564 181.206 57.0939 181.064 56.9441 180.85C56.6071 180.423 56.2701 179.995 55.933 179.604C55.4088 179.034 54.8845 178.5 54.3228 178.001C53.836 177.574 53.2743 177.182 52.75 176.791C52.5628 176.648 52.4505 176.719 52.3381 176.862C51.8139 177.788 51.0649 178.535 50.2785 179.248C50.1287 179.39 50.1287 179.497 50.2036 179.675C50.6155 180.53 50.9526 181.42 51.3645 182.275C51.4394 182.346 51.5892 182.417 51.6641 182.524ZM31.5175 182.132C31.5924 182.061 31.7422 181.99 31.7797 181.847C32.1541 181.064 32.4911 180.316 32.8656 179.533C32.9031 179.461 32.8656 179.283 32.7907 179.248C31.9669 178.5 31.2554 177.681 30.6562 176.755C30.5813 176.612 30.4316 176.541 30.2818 176.684C29.6077 177.218 28.8962 177.716 28.2971 178.322C27.5481 179.07 26.9115 179.889 26.2375 180.672C26.0502 180.921 26.0502 180.957 26.3498 181.028C27.286 181.206 28.2596 181.42 29.1958 181.598C29.9447 181.776 30.6937 181.954 31.5175 182.132ZM42.8265 206.917C42.7891 206.917 42.7891 206.917 42.7517 206.953C42.7891 207.024 42.8265 207.095 42.864 207.095C42.9389 207.095 43.0512 207.06 43.1261 207.024C43.4631 206.704 43.8376 206.383 44.1746 206.063C45.1857 205.101 46.047 203.997 46.8334 202.893C47.0206 202.644 46.9832 202.573 46.721 202.395C45.8223 201.861 44.8487 201.54 43.8002 201.326C43.5755 201.291 43.3508 201.22 43.1261 201.184C42.9014 201.148 42.7891 201.22 42.7891 201.433C42.8265 203.249 42.8265 205.101 42.8265 206.917ZM40.2427 204.068C40.2052 203.178 40.2052 202.288 40.2052 201.398C40.2052 201.148 40.1304 201.077 39.8682 201.148C39.6435 201.184 39.4189 201.255 39.2316 201.326C38.2955 201.54 37.3967 201.825 36.5354 202.288C36.0112 202.573 36.0112 202.573 36.3482 203.107C36.3856 203.143 36.3856 203.178 36.4231 203.214C36.835 203.748 37.2095 204.353 37.6588 204.852C38.3703 205.635 39.1567 206.347 39.9431 207.095C39.9806 207.131 40.0929 207.167 40.1678 207.202C40.2053 207.131 40.2427 207.06 40.2427 206.988C40.2427 205.991 40.2427 205.03 40.2427 204.068ZM40.2427 177.182C40.2427 177.004 40.2427 176.826 40.2427 176.612C40.2427 176.007 40.2427 175.366 40.2427 174.761C40.2427 174.689 40.2053 174.618 40.1678 174.583C40.1678 174.583 40.0555 174.583 40.018 174.618C39.5312 175.081 39.0069 175.509 38.5576 175.971C37.8461 176.755 37.2095 177.538 36.5729 178.357C36.3856 178.607 36.4231 178.713 36.7227 178.856C37.0597 178.998 37.3967 179.141 37.7337 179.283C38.4078 179.604 39.1193 179.711 39.8308 179.853C40.2052 179.924 40.2801 179.853 40.2801 179.497C40.2427 178.713 40.2427 177.966 40.2427 177.182ZM42.8265 174.511C42.7891 174.654 42.7891 174.689 42.7891 174.725C42.7891 176.292 42.7891 177.894 42.7891 179.461C42.7891 179.782 42.9014 179.889 43.2385 179.817C43.8751 179.675 44.5117 179.533 45.1483 179.319C45.5602 179.176 45.9721 178.998 46.384 178.785C46.5713 178.713 46.6836 178.571 46.5338 178.357C45.6351 177.147 44.624 176.007 43.5006 174.974C43.3134 174.868 43.0887 174.725 42.8265 174.511ZM45.9721 208.128C46.1219 208.092 46.2717 208.057 46.4215 208.021C47.2079 207.772 47.9942 207.523 48.7432 207.238C49.2674 207.024 49.7543 206.775 50.2785 206.561C50.5032 206.454 50.5781 206.312 50.4283 206.098C50.0164 205.528 49.6419 204.959 49.23 204.389C49.1177 204.246 48.9679 204.211 48.8555 204.389C48.6683 204.638 48.5185 204.887 48.3313 205.137C47.8819 205.671 47.47 206.241 46.9832 206.739C46.6462 207.131 46.2342 207.487 45.8598 207.879C45.8223 207.914 45.7849 208.021 45.7849 208.057C45.8223 208.057 45.9347 208.092 45.9721 208.128ZM37.2095 208.128C37.2095 208.092 37.2469 208.057 37.2469 208.021C37.172 207.95 37.0971 207.843 37.0222 207.772C36.5729 207.309 36.1235 206.846 35.7116 206.383C35.1873 205.742 34.7005 205.101 34.1763 204.424C34.0639 204.246 33.9141 204.211 33.7643 204.389C33.3524 204.959 32.9405 205.528 32.566 206.134C32.4537 206.312 32.4911 206.419 32.6784 206.526C33.1277 206.739 33.5397 206.988 34.0265 207.167C34.4384 207.345 34.8878 207.487 35.3371 207.665C35.749 207.808 36.1984 207.914 36.6103 208.057C36.7976 208.057 37.0222 208.057 37.2095 208.128ZM44.3244 183.094C45.7474 183.022 47.1704 182.951 48.5934 182.88C48.8555 182.88 48.9304 182.773 48.8181 182.559C48.5934 182.061 48.3687 181.562 48.1066 181.064C48.0317 180.886 47.9194 180.85 47.7321 180.957C47.2453 181.171 46.7585 181.349 46.3091 181.562C45.2981 181.99 44.2495 182.239 43.1636 182.381C42.9389 182.417 42.7891 182.488 42.7891 182.738C42.8265 182.987 42.9389 183.094 43.201 183.094C43.5755 183.094 43.95 183.094 44.3244 183.094ZM45.7849 173.621C45.7849 173.657 45.7474 173.692 45.7474 173.728C46.0096 173.977 46.2717 174.227 46.4964 174.511C47.133 175.259 47.807 176.007 48.4062 176.791C48.7057 177.182 48.7806 177.218 49.1177 176.862C49.4921 176.434 49.8292 175.971 50.1662 175.544C50.316 175.33 50.316 175.224 50.0538 175.117C49.0802 174.761 48.144 174.369 47.1704 174.013C46.8334 173.906 46.4964 173.799 46.1593 173.692C46.047 173.621 45.8972 173.621 45.7849 173.621ZM37.3218 173.728C37.3218 173.692 37.2844 173.657 37.2844 173.621C37.0971 173.657 36.9099 173.692 36.7601 173.764C35.9737 174.013 35.1873 174.262 34.4009 174.547C33.9141 174.725 33.4273 174.939 32.9405 175.152C32.7907 175.224 32.7533 175.33 32.8656 175.437C33.2775 175.971 33.7269 176.47 34.1388 177.004C34.2886 177.182 34.4009 177.147 34.5133 177.004C34.5882 176.933 34.6256 176.862 34.6631 176.791C35.2997 176.007 35.9363 175.259 36.6103 174.476C36.7976 174.227 37.0597 173.977 37.3218 173.728ZM54.2854 200.009C54.4726 200.116 54.5849 200.187 54.6973 200.294C55.2215 200.685 55.6335 201.148 55.7832 201.789C55.7832 201.861 55.8956 201.967 55.9705 202.003C56.0454 202.003 56.1203 201.896 56.1952 201.825C56.2701 201.754 56.3449 201.647 56.3824 201.54C56.7943 201.006 57.1688 200.436 57.5807 199.902C57.6182 199.831 57.6182 199.724 57.6182 199.688C57.6182 199.653 57.4684 199.653 57.4309 199.653C56.4947 199.759 55.5586 199.866 54.6224 199.938C54.51 199.938 54.4352 199.973 54.2854 200.009Z" fill="#E9E9E9"/>
<path d="M148.812 190.699C148.845 190.416 148.845 190.227 148.912 190.038C149.442 188.367 150.072 186.697 150.502 184.995C150.768 183.987 150.834 182.915 150.801 181.875C150.734 178.692 148.845 176.549 146.128 174.973C144.305 173.902 142.25 173.492 140.163 173.208C136.882 172.736 133.568 172.925 130.253 173.019C127.105 173.114 123.957 173.177 120.842 173.492C118.522 173.712 116.235 174.248 113.948 174.658C113.186 174.784 112.457 174.942 111.695 175.068C111.562 175.099 111.363 175.005 111.231 174.973C111.33 174.847 111.43 174.689 111.562 174.626C115.009 173.114 118.124 171.128 121.007 168.828C121.836 168.166 122.631 167.504 123.393 166.811C123.692 166.527 123.99 166.212 124.222 165.865C124.487 165.455 124.321 165.077 123.791 165.077C123.062 165.077 122.3 165.109 121.571 165.266C118.919 165.802 116.566 167.031 114.346 168.449C113.02 169.269 111.728 170.151 110.469 171.097C109.905 171.538 109.441 172.137 108.944 172.641C108.845 172.736 108.712 172.799 108.58 172.893C108.58 172.736 108.513 172.578 108.58 172.452C109.408 170.403 110.303 168.418 111.098 166.338C111.595 165.046 111.927 163.722 112.225 162.398C112.358 161.8 112.291 161.169 112.225 160.539C112.159 159.877 111.86 159.783 111.363 160.224C110.933 160.602 110.502 160.98 110.237 161.453C107.983 165.329 105.862 169.269 104.437 173.492C104.271 174.028 104.139 174.563 103.973 175.099C103.907 175.257 103.774 175.383 103.675 175.54C103.575 175.383 103.376 175.225 103.376 175.068C103.376 174.469 103.376 173.902 103.443 173.303C103.708 171.412 103.94 169.489 104.338 167.598C104.802 165.266 105.796 163.092 107.154 161.075C107.884 160.003 108.646 158.932 109.441 157.892C110.303 156.726 111.496 156.001 112.987 155.78C113.948 155.654 114.644 155.969 115.042 156.82C115.705 158.238 115.771 159.751 115.638 161.264C115.506 162.745 115.141 164.163 114.412 165.518C114.379 165.581 114.379 165.645 114.379 165.676C115.506 165.077 116.566 164.415 117.726 163.911C120.112 162.903 122.598 162.115 125.282 161.989C125.879 161.957 126.475 162.02 127.039 162.178C127.934 162.398 128.331 163.06 128.232 163.943C128.066 165.266 127.47 166.401 126.608 167.409C125.481 168.733 124.189 169.899 122.764 170.908C122.631 171.002 122.465 171.128 122.233 171.286C123.559 171.097 124.752 170.908 125.978 170.75C131.248 170.12 136.55 169.868 141.886 170.372C143.775 170.561 145.631 170.939 147.354 171.695C151.132 173.397 153.154 176.265 153.584 180.173C153.783 182.033 153.783 183.86 153.121 185.657C152.889 186.319 152.59 186.949 152.325 187.548C153.021 187.485 153.75 187.327 154.479 187.327C156.236 187.296 157.296 188.052 157.893 189.628C158.788 192.055 157.926 194.765 155.705 196.656C153.883 198.2 151.795 198.61 149.442 198.169C148.547 198.011 147.652 197.853 146.758 197.696C146.625 197.664 146.492 197.57 146.393 197.475C146.526 197.412 146.658 197.286 146.824 197.255C148.216 197.034 149.641 196.939 151 196.561C153.154 195.994 154.579 194.67 154.943 192.496C155.175 190.983 154.28 189.88 152.69 189.911C151.795 189.911 150.9 190.195 150.005 190.353C149.541 190.416 149.276 190.542 148.812 190.699Z" fill="#E9E9E9" stroke="#E9E9E9" stroke-width="2"/>
<path d="M144.67 181.214C142.483 180.268 140.229 179.733 137.909 179.733C134.264 179.733 131.381 181.214 129.392 184.145C128 186.225 128.199 188.746 129.757 190.7C130.32 191.425 130.95 192.055 131.513 192.78C133.104 194.829 132.839 196.373 130.552 197.728C128.564 198.863 126.41 199.461 124.09 199.052C123.924 199.02 123.725 198.957 123.56 198.894C123.427 198.831 123.294 198.768 123.062 198.61C123.261 198.484 123.394 198.39 123.526 198.358C125.15 198.169 126.642 197.602 127.967 196.72C128.199 196.593 128.398 196.436 128.597 196.247C129.425 195.522 129.459 194.829 128.763 194.009C128.232 193.41 127.669 192.812 127.172 192.213C126.045 190.858 125.283 189.313 125.084 187.58C124.852 185.405 125.548 183.515 127.039 181.876C130.353 178.188 136.716 176.613 141.489 178.346C142.516 178.724 143.51 179.197 144.239 180.048C144.538 180.363 144.935 180.678 144.67 181.214Z" fill="#E9E9E9" stroke="#E9E9E9" stroke-width="2"/>
<path d="M102.681 176.58C102.515 176.832 102.449 176.958 102.35 177.053C100.792 178.629 99.2013 180.141 97.71 181.749C96.6495 182.946 95.9867 184.364 95.9204 185.972C95.8541 187.516 96.4175 188.335 97.9751 188.808C99.4333 189.249 100.925 189.407 102.449 189.155C102.549 189.123 102.681 189.186 102.781 189.218C102.747 189.312 102.714 189.47 102.648 189.501C100.891 190.415 99.0688 191.266 97.0472 191.424C94.6942 191.613 93.3354 190.478 93.004 188.241C92.2749 182.915 96.7489 177.62 101.919 176.643C102.118 176.643 102.317 176.612 102.681 176.58Z" fill="#E9E9E9" stroke="#E9E9E9" stroke-width="2"/>
<path d="M131.116 213.453C131.116 215.155 131.116 216.857 131.116 218.59C130.652 218.59 130.254 218.59 129.823 218.59C129.823 216.164 129.823 213.769 129.823 211.31C130.486 211.31 131.116 211.279 131.745 211.342C131.845 211.342 132.011 211.594 132.044 211.752C132.408 213.044 132.706 214.367 133.038 215.691C133.071 215.817 133.137 215.943 133.204 216.195C133.601 214.651 133.966 213.233 134.33 211.783C134.43 211.436 134.562 211.279 134.96 211.31C135.49 211.342 136.021 211.31 136.617 211.31C136.617 213.769 136.617 216.164 136.617 218.622C136.186 218.622 135.789 218.622 135.325 218.622C135.325 216.857 135.325 215.092 135.325 213.327C135.291 213.327 135.258 213.327 135.225 213.296C135.126 213.674 135.026 214.052 134.927 214.43C134.662 215.565 134.364 216.7 134.098 217.866C133.9 218.622 133.9 218.59 133.104 218.622C132.64 218.653 132.441 218.527 132.375 218.086C132.077 216.7 131.745 215.313 131.381 213.926C131.348 213.769 131.281 213.579 131.248 213.422C131.182 213.422 131.149 213.453 131.116 213.453Z" fill="#E9E9E9" stroke="#E9E9E9" stroke-width="2"/>
<path d="M125.516 218.622C125.184 218.622 124.886 218.59 124.588 218.622C124.223 218.653 124.024 218.527 123.859 218.212C123.13 216.952 122.401 215.754 121.638 214.493C121.539 214.304 121.406 214.147 121.207 213.989C121.207 215.502 121.207 217.015 121.207 218.559C120.743 218.559 120.313 218.559 119.882 218.559C119.882 216.164 119.882 213.768 119.882 211.373C120.909 211.09 121.207 211.216 121.705 212.035C122.5 213.359 123.295 214.682 124.19 216.006C124.19 214.462 124.19 212.886 124.19 211.31C124.654 211.31 125.085 211.31 125.516 211.31C125.516 213.737 125.516 216.132 125.516 218.622Z" fill="#E9E9E9" stroke="#E9E9E9" stroke-width="2"/>
<path d="M108.678 218.622C108.346 218.622 108.048 218.591 107.75 218.622C107.385 218.654 107.186 218.528 106.988 218.213C106.225 216.92 105.43 215.628 104.668 214.305C104.601 214.179 104.502 214.084 104.336 213.958C104.336 215.471 104.336 217.015 104.336 218.559C103.872 218.559 103.442 218.559 103.011 218.559C103.011 216.133 103.011 213.737 103.011 211.279C103.408 211.279 103.806 211.248 104.171 211.311C104.336 211.342 104.535 211.531 104.635 211.72C105.496 213.139 106.358 214.588 107.319 216.164C107.319 214.462 107.319 212.918 107.319 211.342C107.816 211.342 108.214 211.342 108.645 211.342C108.678 213.737 108.678 216.164 108.678 218.622Z" fill="#E9E9E9" stroke="#E9E9E9" stroke-width="2"/>
<path d="M99.4351 206.016C99.4351 204.723 99.4351 203.463 99.4351 202.171C99.4351 201.225 99.2694 201.32 100.363 201.32C100.462 201.32 100.595 201.351 100.728 201.351C100.728 203.778 100.728 206.205 100.728 208.663C100.396 208.663 100.098 208.631 99.8328 208.663C99.4682 208.694 99.2694 208.568 99.0706 208.253C98.3415 206.993 97.5792 205.732 96.817 204.44C96.7176 204.282 96.6182 204.156 96.4193 204.03C96.4193 205.543 96.4193 207.056 96.4193 208.6C95.9553 208.6 95.5577 208.6 95.0937 208.6C95.0937 208.442 95.0605 208.285 95.0605 208.127C95.0605 206.016 95.0605 203.936 95.0605 201.824C95.0605 201.383 95.1931 201.288 95.6571 201.257C96.2536 201.225 96.585 201.414 96.8833 201.919C97.6455 203.305 98.5072 204.629 99.3025 205.984C99.3688 206.047 99.402 206.016 99.4351 206.016Z" fill="#E9E9E9" stroke="#E9E9E9" stroke-width="2"/>
<path d="M101.953 204.976C102.019 204.566 102.053 204.125 102.152 203.684C102.55 202.045 103.842 201.162 105.632 201.194C107.256 201.225 108.581 202.265 108.813 203.873C108.946 204.692 108.913 205.575 108.747 206.394C108.382 208.001 107.024 208.884 105.333 208.789C103.61 208.726 102.417 207.718 102.119 206.142C102.019 205.795 102.019 205.385 101.953 204.976ZM107.521 205.039C107.421 204.535 107.388 204.062 107.222 203.621C106.957 202.896 106.427 202.486 105.599 202.455C104.737 202.423 104.074 202.77 103.776 203.495C103.345 204.503 103.345 205.512 103.809 206.489C104.107 207.15 104.704 207.529 105.499 207.529C106.295 207.529 106.891 207.15 107.156 206.457C107.322 206.047 107.388 205.512 107.521 205.039Z" fill="#E9E9E9" stroke="#E9E9E9" stroke-width="2"/>
<path d="M94.959 214.935C94.959 214.021 95.1247 213.138 95.7212 212.35C96.616 211.216 97.8422 210.964 99.201 211.216C100.56 211.468 101.421 212.287 101.687 213.516C101.885 214.367 101.885 215.313 101.72 216.195C101.388 217.897 99.9964 218.874 98.2068 218.748C96.4172 218.653 95.191 217.487 94.9921 215.754C94.9921 215.502 94.9921 215.218 94.959 214.935ZM96.384 215.029C96.5166 215.533 96.616 216.069 96.848 216.573C97.1463 217.235 97.7759 217.55 98.5382 217.519C99.3335 217.487 99.8969 217.109 100.195 216.416C100.593 215.47 100.593 214.462 100.228 213.516C99.9301 212.792 99.3335 212.445 98.5382 212.413C97.7428 212.413 97.1131 212.76 96.8149 213.453C96.5497 213.926 96.5166 214.462 96.384 215.029Z" fill="#E9E9E9" stroke="#E9E9E9" stroke-width="2"/>
<path d="M151.064 208.663C151.064 206.205 151.064 203.81 151.064 201.415C152.357 201.415 153.616 201.32 154.876 201.446C155.77 201.541 156.367 202.203 156.665 202.991C157.195 204.314 157.195 205.669 156.665 206.993C156.234 208.065 155.373 208.632 154.18 208.632C153.119 208.695 152.125 208.663 151.064 208.663ZM152.523 202.612C152.523 204.251 152.523 205.796 152.523 207.403C153.086 207.403 153.583 207.434 154.113 207.403C154.842 207.34 155.306 207.056 155.406 206.363C155.505 205.512 155.505 204.629 155.406 203.779C155.34 203.054 154.809 202.707 154.08 202.612C153.55 202.581 153.053 202.612 152.523 202.612Z" fill="#E9E9E9" stroke="#E9E9E9" stroke-width="2"/>
<path d="M156.601 213.359C156.137 213.39 155.706 213.39 155.276 213.422C154.679 212.445 154.381 212.224 153.453 212.445C153.155 212.508 152.823 212.76 152.691 213.012C152.525 213.39 152.89 213.611 153.254 213.737C153.884 213.958 154.513 214.115 155.11 214.304C156.336 214.714 156.933 215.534 156.8 216.668C156.668 217.834 155.905 218.559 154.613 218.717C154.182 218.748 153.751 218.78 153.32 218.717C151.928 218.559 151.1 217.677 151 216.258C151.431 216.195 151.862 216.164 152.326 216.101C152.492 216.794 152.79 217.361 153.585 217.456C153.983 217.487 154.48 217.456 154.812 217.267C155.077 217.141 155.309 216.731 155.309 216.447C155.309 216.227 154.977 215.88 154.712 215.786C154.049 215.502 153.32 215.376 152.658 215.124C151.531 214.683 151 213.674 151.332 212.634C151.498 212.067 151.862 211.626 152.459 211.373C153.387 210.995 154.348 210.995 155.309 211.373C156.204 211.752 156.568 212.445 156.601 213.359Z" fill="#E9E9E9" stroke="#E9E9E9" stroke-width="2"/>
<path d="M132.606 206.205C133.169 207.434 133.766 207.781 134.826 207.497C135.29 207.371 135.622 207.088 135.655 206.615C135.688 206.142 135.323 205.922 134.893 205.796C134.296 205.606 133.666 205.449 133.07 205.26C132.009 204.882 131.413 204.031 131.512 203.085C131.645 202.077 132.341 201.383 133.534 201.257C134.097 201.194 134.694 201.226 135.257 201.352C136.251 201.573 136.782 202.297 136.848 203.4C136.384 203.4 135.92 203.4 135.456 203.4C135.025 202.486 134.462 202.203 133.534 202.486C133.302 202.581 132.97 202.833 132.97 203.022C132.97 203.243 133.202 203.589 133.434 203.684C134.064 203.968 134.793 204.094 135.456 204.346C136.782 204.787 137.345 205.796 137.014 207.088C136.848 207.75 136.45 208.254 135.787 208.537C134.793 208.947 133.733 208.947 132.738 208.537C131.744 208.128 131.413 207.308 131.28 206.3C131.744 206.268 132.175 206.237 132.606 206.205Z" fill="#E9E9E9" stroke="#E9E9E9" stroke-width="2"/>
<path d="M125.017 201.351C126.773 201.351 128.463 201.351 130.253 201.351C130.253 201.73 130.253 202.108 130.253 202.549C129.027 202.549 127.767 202.549 126.508 202.549C126.508 203.116 126.508 203.62 126.508 204.188C127.668 204.188 128.828 204.188 130.021 204.188C130.021 204.629 130.021 205.007 130.021 205.448C128.828 205.448 127.701 205.448 126.508 205.448C126.508 206.11 126.508 206.74 126.508 207.434C127.8 207.434 129.093 207.434 130.419 207.434C130.419 207.875 130.419 208.253 130.419 208.663C128.629 208.663 126.872 208.663 125.05 208.663C125.017 206.236 125.017 203.81 125.017 201.351Z" fill="#E9E9E9" stroke="#E9E9E9" stroke-width="2"/>
<path d="M149.676 201.383C149.676 201.793 149.676 202.171 149.676 202.581C148.416 202.581 147.157 202.581 145.865 202.581C145.865 203.148 145.865 203.652 145.865 204.188C147.024 204.188 148.184 204.188 149.377 204.188C149.377 204.629 149.377 205.008 149.377 205.449C148.217 205.449 147.058 205.449 145.865 205.449C145.865 206.111 145.865 206.741 145.865 207.434C147.157 207.434 148.449 207.434 149.775 207.434C149.775 207.875 149.775 208.254 149.775 208.663C148.019 208.663 146.229 208.663 144.439 208.663C144.439 206.237 144.439 203.842 144.439 201.383C146.163 201.383 147.886 201.383 149.676 201.383Z" fill="#E9E9E9" stroke="#E9E9E9" stroke-width="2"/>
<path d="M137.378 218.622C137.974 217.046 138.505 215.565 139.068 214.115C139.366 213.327 139.698 212.508 139.963 211.72C140.062 211.405 140.228 211.31 140.559 211.31C141.686 211.31 141.686 211.279 142.051 212.256C142.78 214.178 143.542 216.069 144.271 217.992C144.337 218.181 144.404 218.37 144.503 218.622C144.006 218.622 143.575 218.654 143.144 218.622C143.045 218.622 142.912 218.433 142.846 218.307C142.647 217.897 142.581 217.298 142.216 217.046C141.885 216.826 141.289 216.983 140.791 216.983C139.499 216.983 139.466 216.983 139.068 218.181C138.969 218.527 138.803 218.685 138.405 218.654C138.107 218.59 137.809 218.622 137.378 218.622ZM140.891 213.012C140.559 213.989 140.261 214.84 139.963 215.691C140.626 215.691 141.222 215.691 141.885 215.691C141.554 214.809 141.255 213.989 140.891 213.012Z" fill="#E9E9E9" stroke="#E9E9E9" stroke-width="2"/>
<path d="M119.019 218.559C118.92 218.59 118.92 218.622 118.887 218.622C117.528 218.716 117.495 218.716 117.064 217.487C116.931 217.109 116.733 216.952 116.302 216.983C115.672 217.015 115.042 217.015 114.413 216.983C114.081 216.983 113.916 217.078 113.883 217.361C113.883 217.424 113.849 217.487 113.816 217.55C113.385 218.748 113.385 218.748 111.927 218.559C111.994 218.37 112.027 218.181 112.093 218.023C112.855 215.943 113.651 213.895 114.413 211.814C114.545 211.405 114.777 211.216 115.208 211.279C115.44 211.31 115.672 211.247 115.871 211.279C116.004 211.31 116.202 211.405 116.236 211.499C117.197 213.863 118.125 216.195 119.019 218.559ZM116.434 215.691C116.103 214.808 115.805 213.989 115.44 213.012C115.109 213.989 114.81 214.808 114.512 215.691C115.142 215.691 115.738 215.691 116.434 215.691Z" fill="#E9E9E9" stroke="#E9E9E9" stroke-width="2"/>
<path d="M105.299 196.309C105.697 195.868 106.161 195.458 106.525 195.017C107.718 193.536 107.553 192.118 105.962 191.015C105.2 190.479 104.305 190.101 103.41 189.596C103.841 189.502 104.305 189.344 104.736 189.313C105.465 189.281 106.227 189.281 106.956 189.439C108.845 189.849 109.939 191.361 109.773 193.189C109.607 194.986 108.083 196.467 106.293 196.624C105.697 196.687 105.564 196.624 105.299 196.309Z" fill="#E9E9E9" stroke="#E9E9E9" stroke-width="2"/>
<path d="M115.176 201.32C115.176 201.761 115.176 202.139 115.176 202.549C114.513 202.549 113.85 202.549 113.154 202.549C113.154 204.597 113.154 206.583 113.154 208.631C112.624 208.631 112.193 208.631 111.663 208.631C111.663 206.646 111.663 204.629 111.663 202.58C110.967 202.58 110.304 202.58 109.575 202.58C109.575 202.202 109.542 201.887 109.575 201.572C109.575 201.477 109.774 201.351 109.873 201.351C111.596 201.32 113.353 201.32 115.176 201.32Z" fill="#E9E9E9" stroke="#E9E9E9" stroke-width="2"/>
<path d="M141.391 208.663C140.861 208.663 140.43 208.663 139.933 208.663C139.933 206.646 139.933 204.661 139.933 202.612C139.203 202.612 138.541 202.612 137.845 202.612C137.845 202.171 137.845 201.793 137.845 201.383C139.667 201.383 141.523 201.383 143.379 201.383C143.379 201.761 143.379 202.14 143.379 202.581C142.716 202.581 142.087 202.581 141.358 202.581C141.391 204.598 141.391 206.615 141.391 208.663Z" fill="#E9E9E9" stroke="#E9E9E9" stroke-width="2"/>
<path d="M121.971 208.663C121.441 208.663 120.977 208.663 120.513 208.663C120.513 206.646 120.513 204.661 120.513 202.612C119.817 202.612 119.121 202.612 118.425 202.612C118.425 202.171 118.425 201.793 118.425 201.383C118.624 201.383 118.822 201.351 119.021 201.351C120.446 201.351 121.905 201.383 123.33 201.32C123.893 201.288 124.125 201.478 124.026 202.013C123.992 202.171 123.992 202.36 123.992 202.581C123.33 202.581 122.667 202.581 121.971 202.581C121.971 204.598 121.971 206.615 121.971 208.663Z" fill="#E9E9E9" stroke="#E9E9E9" stroke-width="2"/>
<path d="M145.365 211.373C145.862 211.373 146.259 211.373 146.757 211.373C146.757 213.359 146.757 215.344 146.757 217.393C147.983 217.393 149.11 217.393 150.303 217.393C150.303 217.834 150.303 218.212 150.303 218.622C148.646 218.622 147.022 218.622 145.332 218.622C145.365 216.163 145.365 213.8 145.365 211.373Z" fill="#E9E9E9" stroke="#E9E9E9" stroke-width="2"/>
<path d="M128.4 218.59C127.936 218.59 127.505 218.59 127.041 218.59C127.041 216.164 127.041 213.769 127.041 211.31C127.505 211.31 127.936 211.31 128.4 211.31C128.4 213.737 128.4 216.132 128.4 218.59Z" fill="#E9E9E9" stroke="#E9E9E9" stroke-width="2"/>
<defs>
<clipPath id="clip0_145_13140">
<rect width="56.8853" height="38.2925" fill="white" transform="translate(308.322 2.78003)"/>
</clipPath>
<clipPath id="clip1_145_13140">
<rect width="56.8853" height="52.5763" fill="white" transform="translate(308.322 82.4038)"/>
</clipPath>
</defs>
</svg>
