<svg width="1377" height="896" viewBox="0 0 1377 896" fill="none" xmlns="http://www.w3.org/2000/svg">
<path d="M1094.32 20.3391C1094.32 9.2934 1085.37 0.339115 1074.32 0.339115L20.0793 0.339128C9.03368 0.339128 0.0793354 9.29341 0.0793355 20.3391L0.0793455 875.158C0.0793456 886.204 9.03369 895.158 20.0793 895.158L1074.32 895.158C1085.37 895.158 1094.32 886.204 1094.32 875.158L1094.32 658.564C1094.32 592.472 1146.74 538.823 1211.3 538.823L1212.34 538.823C1222.35 538.823 1230.46 546.934 1230.46 556.938C1230.46 566.943 1238.57 575.054 1248.57 575.054L1357 575.054C1368.05 575.054 1377 566.099 1377 555.054L1377 340.443C1377 329.398 1368.05 320.443 1357 320.443L1248.57 320.443C1238.57 320.443 1230.46 328.554 1230.46 338.559C1230.46 348.564 1222.35 356.674 1212.34 356.674L1211.3 356.674C1146.74 356.674 1094.32 303.025 1094.32 236.934L1094.32 20.3391Z" fill="#3F66C3"/>
<path d="M1228.73 555.054L1228.73 340.443C1228.73 329.398 1237.69 320.443 1248.73 320.443L1357 320.443C1368.05 320.443 1377 329.398 1377 340.443L1377 555.054C1377 566.099 1368.05 575.054 1357 575.054L1248.73 575.054C1237.69 575.054 1228.73 566.099 1228.73 555.054Z" fill="#E6BA4E"/>
</svg>
