<svg width="704" height="338" viewBox="0 0 704 338" fill="none" xmlns="http://www.w3.org/2000/svg">
<path d="M692.505 3.86237H574.785C572.115 3.86237 569.565 4.92237 567.685 6.81237L550.395 24.2124C549.745 24.8724 548.585 24.4024 548.625 23.4824C548.745 20.7824 547.775 18.0424 545.715 15.9824L536.925 7.16237C533.025 3.25237 526.705 3.25237 522.805 7.16237L493.945 36.1124C490.055 40.0224 490.055 46.3624 493.945 50.2724L502.735 59.0924C504.815 61.1824 507.605 62.1624 510.345 62.0124C511.275 61.9624 511.745 63.1224 511.095 63.7724L493.635 81.3524C491.775 83.2224 490.725 85.7624 490.725 88.4024V326.682C490.725 332.202 495.205 336.682 500.725 336.682H692.505C698.025 336.682 702.505 332.202 702.505 326.682V13.8624C702.505 8.34237 698.025 3.86237 692.505 3.86237ZM672.935 151.542C672.935 160.792 665.485 168.272 656.265 168.272C647.045 168.272 639.565 160.792 639.565 151.542V48.1424C639.565 38.9124 647.045 31.4124 656.265 31.4124C660.885 31.4124 665.045 33.2824 668.065 36.3224C671.075 39.3424 672.935 43.5224 672.935 48.1424V151.542V151.542Z" fill="#E6BA4E" stroke="black" stroke-miterlimit="10"/>
<path d="M523.018 7.77806L494.778 36.0176C490.482 40.3133 490.482 47.278 494.778 51.5738L501.279 58.0747C505.575 62.3705 512.54 62.3704 516.835 58.0747L545.075 29.8352C549.371 25.5395 549.37 18.5748 545.075 14.279L538.574 7.77805C534.278 3.48233 527.313 3.48233 523.018 7.77806Z" fill="#ED444E"/>
<path d="M471.974 161.657V254.427C471.974 260.567 466.994 265.547 460.854 265.547H435.294C429.154 265.547 424.174 260.567 424.174 254.427C424.174 254.357 424.124 254.307 424.054 254.307H411.514C409.124 254.307 407.184 252.367 407.184 249.977V249.967C407.184 247.977 404.394 247.467 403.714 249.347C386.484 297.237 340.144 332.537 284.454 336.677C278.934 337.087 274.344 332.997 273.574 327.677C273.554 327.547 273.364 327.547 273.344 327.677C272.574 332.997 267.984 337.077 262.464 337.077H12.0341C5.89406 337.077 0.914062 332.097 0.914062 325.957V90.1474C0.914062 84.0074 5.89406 79.0274 12.0341 79.0274H262.454C267.984 79.0274 272.564 83.1074 273.334 88.4274C273.354 88.5574 273.544 88.5574 273.564 88.4274C274.344 83.1074 278.934 79.0274 284.444 79.4374C340.134 83.5774 386.484 118.857 403.704 166.737C404.384 168.617 407.174 168.107 407.174 166.117C407.174 163.727 409.114 161.787 411.504 161.787H424.044C424.114 161.787 424.164 161.737 424.164 161.667V161.657C424.164 155.517 429.144 150.537 435.284 150.537H460.844C466.994 150.537 471.974 155.517 471.974 161.657Z" fill="#BDE5EC"/>
<path d="M460.974 150.543H435.169C429.094 150.543 424.169 155.468 424.169 161.543V254.559C424.169 260.634 429.094 265.559 435.169 265.559H460.974C467.049 265.559 471.974 260.634 471.974 254.559V161.543C471.974 155.468 467.049 150.543 460.974 150.543Z" fill="#5FCEE7"/>
</svg>
