<svg width="539" height="303" viewBox="0 0 539 303" fill="none" xmlns="http://www.w3.org/2000/svg">
<rect x="1.90381" y="2.13428" width="535.596" height="298.483" rx="38.5" fill="#454545" stroke="white" stroke-width="3"/>
<path d="M61.5992 57.27V35.4518H64.8911V44.9334H75.7682V35.4518H79.0708V57.27H75.7682V47.7565H64.8911V57.27H61.5992ZM88.3712 57.6322C87.3343 57.6322 86.3968 57.4405 85.5587 57.057C84.7206 56.6663 84.0566 56.1017 83.5665 55.3631C83.0835 54.6244 82.8421 53.7189 82.8421 52.6464C82.8421 51.7231 83.0196 50.9632 83.3747 50.3666C83.7298 49.77 84.2093 49.2977 84.8129 48.9497C85.4166 48.6017 86.0914 48.3389 86.8371 48.1614C87.5828 47.9838 88.3428 47.8489 89.1169 47.7565C90.097 47.6429 90.8925 47.5506 91.5033 47.4795C92.1141 47.4014 92.558 47.2771 92.835 47.1067C93.1119 46.9362 93.2504 46.6592 93.2504 46.2757V46.2011C93.2504 45.2707 92.9877 44.5498 92.4621 44.0385C91.9436 43.5271 91.1695 43.2714 90.1396 43.2714C89.0672 43.2714 88.222 43.5094 87.6041 43.9852C86.9933 44.454 86.5708 44.976 86.3364 45.5513L83.3428 44.8695C83.6979 43.8751 84.2164 43.0726 84.8982 42.4618C85.5871 41.8439 86.379 41.3964 87.2739 41.1195C88.1688 40.8354 89.1098 40.6933 90.097 40.6933C90.7504 40.6933 91.4429 40.7714 92.1744 40.9277C92.9131 41.0768 93.602 41.3538 94.2412 41.7587C94.8875 42.1635 95.4166 42.7423 95.8286 43.4952C96.2405 44.2409 96.4465 45.2104 96.4465 46.4035V57.27H93.3357V55.0328H93.2078C93.0019 55.4447 92.6929 55.8496 92.281 56.2473C91.8691 56.645 91.3399 56.9753 90.6936 57.2381C90.0473 57.5008 89.2732 57.6322 88.3712 57.6322ZM89.0637 55.0754C89.9443 55.0754 90.6972 54.9014 91.3222 54.5534C91.9543 54.2054 92.4337 53.7508 92.7604 53.1898C93.0942 52.6216 93.2611 52.0143 93.2611 51.368V49.2587C93.1475 49.3723 92.9273 49.4788 92.6006 49.5783C92.281 49.6706 91.9152 49.7523 91.5033 49.8233C91.0914 49.8872 90.6901 49.9476 90.2994 50.0044C89.9088 50.0541 89.5821 50.0967 89.3193 50.1322C88.7014 50.2104 88.1368 50.3418 87.6254 50.5264C87.1212 50.7111 86.7164 50.9774 86.411 51.3254C86.1127 51.6663 85.9635 52.1209 85.9635 52.6891C85.9635 53.4774 86.2547 54.074 86.8371 54.4788C87.4195 54.8766 88.1617 55.0754 89.0637 55.0754ZM103.811 52.8062L111.023 40.9064H114.453V57.27H111.332V45.3595L104.152 57.27H100.689V40.9064H103.811V52.8062ZM109.659 35.3666H112.28C112.28 36.5669 111.854 37.5435 111.002 38.2963C110.157 39.042 109.013 39.4149 107.571 39.4149C106.137 39.4149 104.997 39.042 104.152 38.2963C103.306 37.5435 102.884 36.5669 102.884 35.3666H105.494C105.494 35.8993 105.65 36.3716 105.963 36.7835C106.275 37.1883 106.811 37.3908 107.571 37.3908C108.317 37.3908 108.85 37.1883 109.169 36.7835C109.496 36.3787 109.659 35.9064 109.659 35.3666ZM116.707 43.655V40.9064H130.513V43.655H125.176V57.27H122.065V43.655H116.707ZM137.004 52.8062L144.216 40.9064H147.647V57.27H144.525V45.3595L137.345 57.27H133.883V40.9064H137.004V52.8062ZM159.869 57.27V40.9064H173.218V57.27H170.096V43.655H162.969V57.27H159.869ZM178.904 63.4064C178.428 63.4064 177.995 63.3673 177.604 63.2892C177.214 63.2182 176.922 63.14 176.731 63.0548L177.498 60.4447C178.08 60.601 178.598 60.6685 179.053 60.6472C179.508 60.6258 179.909 60.4554 180.257 60.1358C180.612 59.8162 180.924 59.2942 181.194 58.5697L181.589 57.4831L175.601 40.9064H179.01L183.155 53.6052H183.325L187.469 40.9064H190.889L184.145 59.454C183.833 60.3062 183.435 61.0271 182.952 61.6166C182.469 62.2132 181.894 62.6606 181.226 62.9589C180.559 63.2572 179.785 63.4064 178.904 63.4064ZM204.973 47.7139V50.4731H196.109V47.7139H204.973ZM197.004 40.9064V57.27H193.883V40.9064H197.004ZM207.199 40.9064V57.27H204.089V40.9064H207.199ZM211.461 57.27V40.9064H214.646V47.7672H216.18L221.581 40.9064H225.523L219.184 48.8645L225.598 57.27H221.645L216.713 50.7288H214.646V57.27H211.461ZM227.156 43.655V40.9064H240.963V43.655H235.625V57.27H232.514V43.655H227.156ZM252.271 57.27V40.9064H265.62V57.27H262.498V43.655H255.371V57.27H252.271ZM276.931 57.6003C275.319 57.6003 273.93 57.2558 272.766 56.5669C271.608 55.8709 270.713 54.8943 270.081 53.6372C269.456 52.373 269.144 50.8922 269.144 49.1947C269.144 47.5186 269.456 46.0413 270.081 44.7629C270.713 43.4845 271.594 42.4866 272.723 41.7693C273.859 41.052 275.188 40.6933 276.707 40.6933C277.631 40.6933 278.526 40.846 279.392 41.1514C280.259 41.4568 281.036 41.9362 281.725 42.5896C282.414 43.243 282.957 44.0918 283.355 45.1358C283.753 46.1727 283.952 47.4334 283.952 48.9177V50.047H270.944V47.6606H280.83C280.83 46.8226 280.66 46.0804 280.319 45.4341C279.978 44.7807 279.499 44.2658 278.881 43.8893C278.27 43.5129 277.553 43.3247 276.729 43.3247C275.834 43.3247 275.053 43.5449 274.385 43.9852C273.725 44.4185 273.213 44.9866 272.851 45.6898C272.496 46.3858 272.318 47.1422 272.318 47.9589V49.8233C272.318 50.917 272.51 51.8474 272.894 52.6145C273.284 53.3815 273.828 53.9675 274.524 54.3723C275.22 54.77 276.033 54.9689 276.963 54.9689C277.567 54.9689 278.117 54.8837 278.614 54.7132C279.112 54.5356 279.541 54.2729 279.903 53.9248C280.266 53.5768 280.543 53.1472 280.734 52.6358L283.749 53.1791C283.508 54.0669 283.075 54.8446 282.45 55.5122C281.832 56.1727 281.054 56.6876 280.117 57.057C279.186 57.4192 278.124 57.6003 276.931 57.6003ZM287.486 63.4064V40.9064H290.597V43.5591H290.863C291.048 43.2182 291.314 42.824 291.662 42.3766C292.01 41.9291 292.493 41.5385 293.111 41.2047C293.729 40.8638 294.546 40.6933 295.561 40.6933C296.882 40.6933 298.061 41.0271 299.098 41.6947C300.135 42.3623 300.948 43.3247 301.538 44.5818C302.135 45.8389 302.433 47.3517 302.433 49.1202C302.433 50.8886 302.138 52.405 301.549 53.6692C300.959 54.9263 300.149 55.8957 299.12 56.5775C298.09 57.2523 296.914 57.5896 295.593 57.5896C294.599 57.5896 293.786 57.4227 293.154 57.0889C292.529 56.7551 292.039 56.3645 291.684 55.917C291.328 55.4696 291.055 55.0719 290.863 54.7239H290.671V63.4064H287.486ZM290.608 49.0882C290.608 50.2388 290.774 51.2473 291.108 52.1138C291.442 52.9802 291.925 53.6585 292.557 54.1486C293.189 54.6315 293.963 54.873 294.88 54.873C295.831 54.873 296.627 54.6209 297.266 54.1166C297.905 53.6052 298.388 52.9128 298.715 52.0392C299.049 51.1656 299.215 50.182 299.215 49.0882C299.215 48.0087 299.052 47.0392 298.725 46.1798C298.406 45.3204 297.923 44.6422 297.277 44.145C296.637 43.6479 295.838 43.3993 294.88 43.3993C293.956 43.3993 293.175 43.6372 292.536 44.1131C291.904 44.5889 291.424 45.253 291.098 46.1052C290.771 46.9575 290.608 47.9518 290.608 49.0882ZM313.054 57.6003C311.442 57.6003 310.054 57.2558 308.889 56.5669C307.731 55.8709 306.836 54.8943 306.204 53.6372C305.579 52.373 305.267 50.8922 305.267 49.1947C305.267 47.5186 305.579 46.0413 306.204 44.7629C306.836 43.4845 307.717 42.4866 308.846 41.7693C309.983 41.052 311.311 40.6933 312.831 40.6933C313.754 40.6933 314.649 40.846 315.515 41.1514C316.382 41.4568 317.159 41.9362 317.848 42.5896C318.537 43.243 319.081 44.0918 319.478 45.1358C319.876 46.1727 320.075 47.4334 320.075 48.9177V50.047H307.067V47.6606H316.953C316.953 46.8226 316.783 46.0804 316.442 45.4341C316.101 44.7807 315.622 44.2658 315.004 43.8893C314.393 43.5129 313.676 43.3247 312.852 43.3247C311.957 43.3247 311.176 43.5449 310.508 43.9852C309.848 44.4185 309.336 44.9866 308.974 45.6898C308.619 46.3858 308.441 47.1422 308.441 47.9589V49.8233C308.441 50.917 308.633 51.8474 309.017 52.6145C309.407 53.3815 309.951 53.9675 310.647 54.3723C311.343 54.77 312.156 54.9689 313.086 54.9689C313.69 54.9689 314.24 54.8837 314.737 54.7132C315.235 54.5356 315.664 54.2729 316.027 53.9248C316.389 53.5768 316.666 53.1472 316.858 52.6358L319.872 53.1791C319.631 54.0669 319.198 54.8446 318.573 55.5122C317.955 56.1727 317.177 56.6876 316.24 57.057C315.309 57.4192 314.247 57.6003 313.054 57.6003ZM323.609 63.4064V40.9064H326.72V43.5591H326.986C327.171 43.2182 327.437 42.824 327.785 42.3766C328.133 41.9291 328.616 41.5385 329.234 41.2047C329.852 40.8638 330.669 40.6933 331.684 40.6933C333.005 40.6933 334.184 41.0271 335.221 41.6947C336.258 42.3623 337.071 43.3247 337.661 44.5818C338.258 45.8389 338.556 47.3517 338.556 49.1202C338.556 50.8886 338.261 52.405 337.672 53.6692C337.082 54.9263 336.272 55.8957 335.243 56.5775C334.213 57.2523 333.037 57.5896 331.716 57.5896C330.722 57.5896 329.909 57.4227 329.277 57.0889C328.652 56.7551 328.162 56.3645 327.807 55.917C327.451 55.4696 327.178 55.0719 326.986 54.7239H326.794V63.4064H323.609ZM326.731 49.0882C326.731 50.2388 326.897 51.2473 327.231 52.1138C327.565 52.9802 328.048 53.6585 328.68 54.1486C329.312 54.6315 330.086 54.873 331.003 54.873C331.954 54.873 332.75 54.6209 333.389 54.1166C334.028 53.6052 334.511 52.9128 334.838 52.0392C335.172 51.1656 335.339 50.182 335.339 49.0882C335.339 48.0087 335.175 47.0392 334.848 46.1798C334.529 45.3204 334.046 44.6422 333.4 44.145C332.76 43.6479 331.961 43.3993 331.003 43.3993C330.079 43.3993 329.298 43.6372 328.659 44.1131C328.027 44.5889 327.547 45.253 327.221 46.1052C326.894 46.9575 326.731 47.9518 326.731 49.0882ZM346.887 57.6322C345.85 57.6322 344.912 57.4405 344.074 57.057C343.236 56.6663 342.572 56.1017 342.082 55.3631C341.599 54.6244 341.358 53.7189 341.358 52.6464C341.358 51.7231 341.535 50.9632 341.89 50.3666C342.245 49.77 342.725 49.2977 343.329 48.9497C343.932 48.6017 344.607 48.3389 345.353 48.1614C346.098 47.9838 346.858 47.8489 347.633 47.7565C348.613 47.6429 349.408 47.5506 350.019 47.4795C350.63 47.4014 351.074 47.2771 351.351 47.1067C351.628 46.9362 351.766 46.6592 351.766 46.2757V46.2011C351.766 45.2707 351.503 44.5498 350.978 44.0385C350.459 43.5271 349.685 43.2714 348.655 43.2714C347.583 43.2714 346.738 43.5094 346.12 43.9852C345.509 44.454 345.086 44.976 344.852 45.5513L341.858 44.8695C342.214 43.8751 342.732 43.0726 343.414 42.4618C344.103 41.8439 344.895 41.3964 345.79 41.1195C346.684 40.8354 347.625 40.6933 348.613 40.6933C349.266 40.6933 349.959 40.7714 350.69 40.9277C351.429 41.0768 352.118 41.3538 352.757 41.7587C353.403 42.1635 353.932 42.7423 354.344 43.4952C354.756 44.2409 354.962 45.2104 354.962 46.4035V57.27H351.851V55.0328H351.723C351.517 55.4447 351.209 55.8496 350.797 56.2473C350.385 56.645 349.856 56.9753 349.209 57.2381C348.563 57.5008 347.789 57.6322 346.887 57.6322ZM347.579 55.0754C348.46 55.0754 349.213 54.9014 349.838 54.5534C350.47 54.2054 350.949 53.7508 351.276 53.1898C351.61 52.6216 351.777 52.0143 351.777 51.368V49.2587C351.663 49.3723 351.443 49.4788 351.116 49.5783C350.797 49.6706 350.431 49.7523 350.019 49.8233C349.607 49.8872 349.206 49.9476 348.815 50.0044C348.424 50.0541 348.098 50.0967 347.835 50.1322C347.217 50.2104 346.652 50.3418 346.141 50.5264C345.637 50.7111 345.232 50.9774 344.927 51.3254C344.628 51.6663 344.479 52.1209 344.479 52.6891C344.479 53.4774 344.77 54.074 345.353 54.4788C345.935 54.8766 346.677 55.0754 347.579 55.0754ZM371.829 34.8126L373.15 36.8261C372.66 37.2736 372.103 37.5932 371.478 37.7849C370.86 37.9696 370.146 38.0868 369.336 38.1365C368.527 38.1791 367.6 38.2182 366.556 38.2537C365.377 38.2892 364.407 38.5449 363.647 39.0207C362.887 39.4895 362.301 40.1855 361.889 41.1088C361.485 42.025 361.222 43.1756 361.101 44.5605H361.304C361.836 43.5449 362.575 42.7849 363.519 42.2807C364.471 41.7764 365.54 41.5243 366.726 41.5243C368.047 41.5243 369.223 41.8261 370.252 42.4298C371.282 43.0335 372.092 43.9177 372.681 45.0825C373.278 46.2402 373.576 47.6571 373.576 49.3332C373.576 51.0307 373.264 52.4973 372.639 53.7331C372.021 54.9689 371.147 55.9241 370.018 56.5989C368.896 57.2665 367.571 57.6003 366.044 57.6003C364.517 57.6003 363.186 57.2558 362.049 56.5669C360.92 55.8709 360.043 54.841 359.418 53.4774C358.8 52.1138 358.491 50.4305 358.491 48.4277V46.8084C358.491 43.0655 359.159 40.2494 360.494 38.3602C361.829 36.471 363.825 35.5016 366.481 35.4518C367.34 35.4305 368.108 35.427 368.782 35.4412C369.457 35.4483 370.046 35.4163 370.551 35.3453C371.062 35.2672 371.488 35.0896 371.829 34.8126ZM366.055 54.9263C366.943 54.9263 367.706 54.7025 368.345 54.2551C368.992 53.8006 369.489 53.1578 369.837 52.3268C370.185 51.4959 370.359 50.5158 370.359 49.3865C370.359 48.2785 370.185 47.3375 369.837 46.5633C369.489 45.7892 368.992 45.1997 368.345 44.7949C367.699 44.3829 366.925 44.177 366.023 44.177C365.355 44.177 364.759 44.2942 364.233 44.5285C363.708 44.7558 363.257 45.0932 362.88 45.5406C362.511 45.9881 362.223 46.5349 362.017 47.1812C361.818 47.8204 361.712 48.5555 361.698 49.3865C361.698 51.0768 362.085 52.4227 362.859 53.4241C363.64 54.4256 364.706 54.9263 366.055 54.9263ZM384.027 57.6003C382.493 57.6003 381.154 57.2487 380.011 56.5456C378.867 55.8425 377.98 54.8588 377.348 53.5946C376.715 52.3304 376.399 50.8531 376.399 49.1628C376.399 47.4653 376.715 45.981 377.348 44.7096C377.98 43.4383 378.867 42.4511 380.011 41.748C381.154 41.0449 382.493 40.6933 384.027 40.6933C385.561 40.6933 386.9 41.0449 388.044 41.748C389.187 42.4511 390.075 43.4383 390.707 44.7096C391.339 45.981 391.655 47.4653 391.655 49.1628C391.655 50.8531 391.339 52.3304 390.707 53.5946C390.075 54.8588 389.187 55.8425 388.044 56.5456C386.9 57.2487 385.561 57.6003 384.027 57.6003ZM384.038 54.9263C385.032 54.9263 385.856 54.6635 386.509 54.1379C387.163 53.6123 387.646 52.9128 387.958 52.0392C388.278 51.1656 388.438 50.2033 388.438 49.1521C388.438 48.1081 388.278 47.1493 387.958 46.2757C387.646 45.395 387.163 44.6883 386.509 44.1557C385.856 43.623 385.032 43.3567 384.038 43.3567C383.036 43.3567 382.206 43.623 381.545 44.1557C380.892 44.6883 380.405 45.395 380.085 46.2757C379.773 47.1493 379.617 48.1081 379.617 49.1521C379.617 50.2033 379.773 51.1656 380.085 52.0392C380.405 52.9128 380.892 53.6123 381.545 54.1379C382.206 54.6635 383.036 54.9263 384.038 54.9263ZM393.24 43.655V40.9064H407.047V43.655H401.709V57.27H398.598V43.655H393.24ZM410.416 57.27V40.9064H413.601V47.7672H415.135L420.536 40.9064H424.478L418.139 48.8645L424.553 57.27H420.6L415.668 50.7288H413.601V57.27H410.416ZM430.149 52.8062L437.361 40.9064H440.791V57.27H437.67V45.3595L430.489 57.27H427.027V40.9064H430.149V52.8062Z" fill="white"/>
<path d="M46.9026 63.1914L46.8978 63.1862L46.8927 63.1811L40.8074 57.0579L40.5109 56.7596L40.1663 57.0006C38.1337 58.4215 35.8743 59.1305 33.3739 59.1305C31.7498 59.1305 30.1995 58.8129 28.7187 58.1773C27.2308 57.5387 25.9547 56.6789 24.8848 55.5992C23.8149 54.5195 22.9625 53.2312 22.3292 51.7286C21.6989 50.233 21.3838 48.6668 21.3838 47.0259C21.3838 45.3851 21.6989 43.8189 22.3292 42.3233C22.9625 40.8207 23.8149 39.5324 24.8848 38.4526C25.9547 37.3729 27.2308 36.5131 28.7187 35.8745C30.1995 35.239 31.7498 34.9214 33.3739 34.9214C34.9979 34.9214 36.5482 35.239 38.029 35.8745C39.5169 36.5131 40.793 37.3729 41.8629 38.4526C42.9328 39.5324 43.7853 40.8207 44.4185 42.3233C45.0488 43.8189 45.3639 45.3851 45.3639 47.0259C45.3639 49.5523 44.6604 51.8346 43.2517 53.8867L43.0176 54.2278L43.3088 54.5216L49.3942 60.6628C49.7372 61.009 49.9058 61.4188 49.9058 61.9222C49.9058 62.4069 49.7361 62.8187 49.3764 63.1817C49.0169 63.5445 48.6109 63.714 48.1348 63.714C47.6301 63.714 47.2311 63.5413 46.9026 63.1914ZM41.8221 47.0259C41.8221 44.6858 40.9923 42.6705 39.3442 41.0073C37.696 39.344 35.6969 38.5049 33.3739 38.5049C31.0509 38.5049 29.0517 39.344 27.4035 41.0073C25.7554 42.6705 24.9256 44.6858 24.9256 47.0259C24.9256 49.366 25.7554 51.3814 27.4035 53.0445C29.0517 54.7079 31.0509 55.547 33.3739 55.547C35.6969 55.547 37.696 54.7079 39.3442 53.0445C40.9923 51.3814 41.8221 49.366 41.8221 47.0259Z" fill="white" stroke="#454545"/>
<line x1="2.8125" y1="90.7207" x2="536.812" y2="90.7207" stroke="white" stroke-width="2.5"/>
<path d="M26.642 142.672V124.49H33.3004C34.5907 124.49 35.659 124.703 36.5053 125.129C37.3517 125.549 37.985 126.121 38.4052 126.843C38.8254 127.559 39.0355 128.367 39.0355 129.266C39.0355 130.024 38.8964 130.663 38.6183 131.184C38.3401 131.699 37.9672 132.113 37.4996 132.427C37.038 132.735 36.529 132.96 35.9727 133.102V133.279C36.5763 133.309 37.1652 133.504 37.7393 133.865C38.3194 134.22 38.7988 134.726 39.1776 135.383C39.5563 136.04 39.7457 136.839 39.7457 137.78C39.7457 138.709 39.5268 139.544 39.0888 140.284C38.6567 141.018 37.9879 141.601 37.0824 142.033C36.1768 142.459 35.0198 142.672 33.6112 142.672H26.642ZM29.3853 140.319H33.3448C34.6587 140.319 35.5998 140.065 36.168 139.556C36.7362 139.047 37.0202 138.411 37.0202 137.647C37.0202 137.073 36.8752 136.546 36.5852 136.067C36.2952 135.587 35.8809 135.206 35.3423 134.922C34.8097 134.637 34.1764 134.495 33.4425 134.495H29.3853V140.319ZM29.3853 132.356H33.0607C33.6763 132.356 34.2296 132.237 34.7209 132.001C35.218 131.764 35.6116 131.433 35.9016 131.006C36.1976 130.574 36.3455 130.065 36.3455 129.479C36.3455 128.728 36.0821 128.097 35.5554 127.588C35.0286 127.079 34.2208 126.825 33.1317 126.825H29.3853V132.356ZM44.7839 133.723H48.7434C50.4125 133.723 51.6968 134.137 52.5964 134.966C53.496 135.795 53.9458 136.863 53.9458 138.171C53.9458 139.023 53.7446 139.79 53.3422 140.47C52.9397 141.151 52.3508 141.689 51.5755 142.086C50.8001 142.477 49.8561 142.672 48.7434 142.672H42.7864V129.036H45.3876V140.381H48.7434C49.5069 140.381 50.1343 140.183 50.6255 139.787C51.1168 139.384 51.3624 138.872 51.3624 138.251C51.3624 137.594 51.1168 137.058 50.6255 136.644C50.1343 136.224 49.5069 136.013 48.7434 136.013H44.7839V133.723ZM55.8812 142.672V129.036H58.5357V142.672H55.8812ZM62.0979 142.672V129.036H73.2219V142.672H70.6206V131.326H64.6814V142.672H62.0979ZM80.7392 142.974C79.8751 142.974 79.0938 142.814 78.3954 142.494C77.697 142.169 77.1436 141.698 76.7353 141.083C76.3328 140.467 76.1316 139.713 76.1316 138.819C76.1316 138.049 76.2795 137.416 76.5755 136.919C76.8714 136.422 77.2709 136.028 77.774 135.738C78.277 135.448 78.8393 135.229 79.4608 135.081C80.0822 134.933 80.7155 134.821 81.3606 134.744C82.1774 134.649 82.8403 134.572 83.3493 134.513C83.8583 134.448 84.2282 134.344 84.459 134.202C84.6898 134.06 84.8052 133.83 84.8052 133.51V133.448C84.8052 132.672 84.5862 132.072 84.1483 131.646C83.7162 131.219 83.0711 131.006 82.2129 131.006C81.3192 131.006 80.6149 131.205 80.1 131.601C79.591 131.992 79.2388 132.427 79.0435 132.906L76.5488 132.338C76.8448 131.509 77.2768 130.841 77.845 130.332C78.4191 129.817 79.079 129.444 79.8248 129.213C80.5705 128.976 81.3547 128.858 82.1774 128.858C82.7219 128.858 83.2989 128.923 83.9086 129.053C84.5241 129.178 85.0982 129.408 85.6309 129.746C86.1694 130.083 86.6104 130.565 86.9537 131.193C87.2969 131.814 87.4686 132.622 87.4686 133.616V142.672H84.8762V140.808H84.7697C84.5981 141.151 84.3406 141.488 83.9973 141.82C83.6541 142.151 83.2131 142.426 82.6745 142.645C82.1359 142.864 81.4908 142.974 80.7392 142.974ZM81.3162 140.843C82.0501 140.843 82.6775 140.698 83.1983 140.408C83.7251 140.118 84.1246 139.739 84.3968 139.272C84.675 138.798 84.8141 138.292 84.8141 137.754V135.996C84.7194 136.09 84.5359 136.179 84.2637 136.262C83.9973 136.339 83.6925 136.407 83.3493 136.466C83.006 136.52 82.6716 136.57 82.3461 136.617C82.0205 136.659 81.7483 136.694 81.5293 136.724C81.0144 136.789 80.5439 136.898 80.1177 137.052C79.6975 137.206 79.3601 137.428 79.1056 137.718C78.8571 138.002 78.7328 138.381 78.7328 138.854C78.7328 139.511 78.9754 140.009 79.4608 140.346C79.9461 140.677 80.5646 140.843 81.3162 140.843ZM89.6725 146.605V140.373H90.7822C91.0663 140.112 91.306 139.801 91.5013 139.44C91.7026 139.079 91.8712 138.65 92.0074 138.153C92.1494 137.656 92.2678 137.076 92.3625 136.413C92.4572 135.744 92.54 134.981 92.6111 134.123L93.0372 129.036H102.306V140.373H104.401V146.605H101.809V142.672H92.3003V146.605H89.6725ZM93.6231 140.373H99.7133V131.308H95.4165L95.1324 134.123C94.9962 135.555 94.8246 136.798 94.6175 137.851C94.4103 138.899 94.0789 139.739 93.6231 140.373ZM110.964 142.974C110.1 142.974 109.318 142.814 108.62 142.494C107.922 142.169 107.368 141.698 106.96 141.083C106.557 140.467 106.356 139.713 106.356 138.819C106.356 138.049 106.504 137.416 106.8 136.919C107.096 136.422 107.496 136.028 107.999 135.738C108.502 135.448 109.064 135.229 109.685 135.081C110.307 134.933 110.94 134.821 111.585 134.744C112.402 134.649 113.065 134.572 113.574 134.513C114.083 134.448 114.453 134.344 114.684 134.202C114.914 134.06 115.03 133.83 115.03 133.51V133.448C115.03 132.672 114.811 132.072 114.373 131.646C113.941 131.219 113.296 131.006 112.438 131.006C111.544 131.006 110.839 131.205 110.325 131.601C109.816 131.992 109.463 132.427 109.268 132.906L106.773 132.338C107.069 131.509 107.501 130.841 108.07 130.332C108.644 129.817 109.304 129.444 110.049 129.213C110.795 128.976 111.579 128.858 112.402 128.858C112.946 128.858 113.524 128.923 114.133 129.053C114.749 129.178 115.323 129.408 115.855 129.746C116.394 130.083 116.835 130.565 117.178 131.193C117.522 131.814 117.693 132.622 117.693 133.616V142.672H115.101V140.808H114.994C114.823 141.151 114.565 141.488 114.222 141.82C113.879 142.151 113.438 142.426 112.899 142.645C112.361 142.864 111.715 142.974 110.964 142.974ZM111.541 140.843C112.275 140.843 112.902 140.698 113.423 140.408C113.95 140.118 114.349 139.739 114.621 139.272C114.9 138.798 115.039 138.292 115.039 137.754V135.996C114.944 136.09 114.761 136.179 114.488 136.262C114.222 136.339 113.917 136.407 113.574 136.466C113.231 136.52 112.896 136.57 112.571 136.617C112.245 136.659 111.973 136.694 111.754 136.724C111.239 136.789 110.768 136.898 110.342 137.052C109.922 137.206 109.585 137.428 109.33 137.718C109.082 138.002 108.957 138.381 108.957 138.854C108.957 139.511 109.2 140.009 109.685 140.346C110.171 140.677 110.789 140.843 111.541 140.843ZM128.091 134.806V137.114H120.82V134.806H128.091ZM122.978 129.036V142.672H120.323V129.036H122.978ZM132.246 142.947C130.98 142.947 129.873 142.651 128.926 142.059C127.979 141.467 127.245 140.645 126.724 139.591C126.203 138.532 125.943 137.304 125.943 135.907C125.943 134.498 126.203 133.267 126.724 132.214C127.245 131.154 127.979 130.332 128.926 129.746C129.873 129.154 130.98 128.858 132.246 128.858C133.519 128.858 134.625 129.154 135.566 129.746C136.513 130.332 137.247 131.154 137.768 132.214C138.295 133.267 138.558 134.498 138.558 135.907C138.558 137.304 138.295 138.532 137.768 139.591C137.247 140.645 136.513 141.467 135.566 142.059C134.625 142.651 133.519 142.947 132.246 142.947ZM132.246 140.674C133.104 140.674 133.806 140.458 134.35 140.026C134.901 139.588 135.306 139.008 135.566 138.286C135.827 137.564 135.957 136.771 135.957 135.907C135.957 135.037 135.827 134.241 135.566 133.519C135.306 132.791 134.901 132.208 134.35 131.77C133.806 131.332 133.104 131.113 132.246 131.113C131.394 131.113 130.693 131.332 130.142 131.77C129.592 132.208 129.186 132.791 128.926 133.519C128.665 134.241 128.535 135.037 128.535 135.907C128.535 136.771 128.665 137.564 128.926 138.286C129.186 139.008 129.592 139.588 130.142 140.026C130.693 140.458 131.394 140.674 132.246 140.674ZM161.228 140.381L160.979 146.578H158.378V142.672H156.682V140.381H161.228ZM141.688 129.036H144.289V140.373H149.003V129.036H151.604V140.373H156.318V129.036H158.92V142.672H141.688V129.036ZM166.628 138.952L172.638 129.036H175.497V142.672H172.896V132.746L166.912 142.672H164.027V129.036H166.628V138.952ZM181.667 138.952L187.677 129.036H190.536V142.672H187.935V132.746L181.951 142.672H179.066V129.036H181.667V138.952ZM186.541 124.419H188.725C188.725 125.419 188.37 126.233 187.659 126.86C186.955 127.482 186.002 127.793 184.801 127.793C183.605 127.793 182.655 127.482 181.951 126.86C181.247 126.233 180.895 125.419 180.895 124.419H183.07C183.07 124.863 183.2 125.257 183.46 125.6C183.721 125.937 184.167 126.106 184.801 126.106C185.422 126.106 185.866 125.937 186.132 125.6C186.405 125.262 186.541 124.869 186.541 124.419ZM206.465 142.947C205.145 142.947 204.009 142.648 203.056 142.05C202.109 141.447 201.381 140.615 200.872 139.556C200.363 138.496 200.108 137.283 200.108 135.916C200.108 134.531 200.369 133.309 200.89 132.249C201.41 131.184 202.144 130.352 203.091 129.755C204.038 129.157 205.154 128.858 206.438 128.858C207.474 128.858 208.397 129.05 209.208 129.435C210.019 129.814 210.673 130.346 211.17 131.033C211.673 131.72 211.972 132.522 212.067 133.439H209.483C209.341 132.8 209.016 132.249 208.507 131.788C208.004 131.326 207.329 131.095 206.483 131.095C205.743 131.095 205.095 131.29 204.538 131.681C203.988 132.066 203.559 132.616 203.251 133.332C202.943 134.043 202.79 134.883 202.79 135.854C202.79 136.848 202.94 137.706 203.242 138.428C203.544 139.15 203.97 139.71 204.521 140.106C205.077 140.503 205.731 140.701 206.483 140.701C206.986 140.701 207.441 140.609 207.85 140.426C208.264 140.236 208.61 139.967 208.889 139.618C209.173 139.269 209.371 138.848 209.483 138.357H212.067C211.972 139.239 211.685 140.026 211.206 140.719C210.726 141.411 210.084 141.956 209.279 142.352C208.48 142.749 207.542 142.947 206.465 142.947ZM214.906 142.672V129.036H226.029V142.672H223.428V131.326H217.489V142.672H214.906ZM232.18 138.952L238.19 129.036H241.049V142.672H238.447V132.746L232.464 142.672H229.578V129.036H232.18V138.952ZM250.361 142.947C249.042 142.947 247.905 142.648 246.952 142.05C246.005 141.447 245.277 140.615 244.768 139.556C244.259 138.496 244.005 137.283 244.005 135.916C244.005 134.531 244.265 133.309 244.786 132.249C245.307 131.184 246.041 130.352 246.988 129.755C247.935 129.157 249.05 128.858 250.335 128.858C251.371 128.858 252.294 129.05 253.105 129.435C253.916 129.814 254.57 130.346 255.067 131.033C255.57 131.72 255.869 132.522 255.963 133.439H253.38C253.238 132.8 252.912 132.249 252.403 131.788C251.9 131.326 251.226 131.095 250.379 131.095C249.639 131.095 248.991 131.29 248.435 131.681C247.884 132.066 247.455 132.616 247.148 133.332C246.84 134.043 246.686 134.883 246.686 135.854C246.686 136.848 246.837 137.706 247.139 138.428C247.441 139.15 247.867 139.71 248.417 140.106C248.974 140.503 249.628 140.701 250.379 140.701C250.882 140.701 251.338 140.609 251.746 140.426C252.161 140.236 252.507 139.967 252.785 139.618C253.069 139.269 253.267 138.848 253.38 138.357H255.963C255.869 139.239 255.582 140.026 255.102 140.719C254.623 141.411 253.981 141.956 253.176 142.352C252.377 142.749 251.439 142.947 250.361 142.947ZM264.546 142.947C263.268 142.947 262.152 142.654 261.199 142.068C260.246 141.482 259.506 140.663 258.98 139.609C258.453 138.556 258.189 137.324 258.189 135.916C258.189 134.501 258.453 133.264 258.98 132.205C259.506 131.145 260.246 130.323 261.199 129.737C262.152 129.151 263.268 128.858 264.546 128.858C265.824 128.858 266.94 129.151 267.893 129.737C268.846 130.323 269.586 131.145 270.112 132.205C270.639 133.264 270.903 134.501 270.903 135.916C270.903 137.324 270.639 138.556 270.112 139.609C269.586 140.663 268.846 141.482 267.893 142.068C266.94 142.654 265.824 142.947 264.546 142.947ZM264.555 140.719C265.383 140.719 266.07 140.5 266.615 140.062C267.159 139.624 267.561 139.041 267.822 138.313C268.088 137.585 268.221 136.783 268.221 135.907C268.221 135.037 268.088 134.238 267.822 133.51C267.561 132.776 267.159 132.187 266.615 131.743C266.07 131.299 265.383 131.077 264.555 131.077C263.72 131.077 263.028 131.299 262.477 131.743C261.933 132.187 261.528 132.776 261.261 133.51C261.001 134.238 260.871 135.037 260.871 135.907C260.871 136.783 261.001 137.585 261.261 138.313C261.528 139.041 261.933 139.624 262.477 140.062C263.028 140.5 263.72 140.719 264.555 140.719ZM273.866 142.672V129.036H276.52V134.753H277.798L282.299 129.036H285.584L280.302 135.667L285.646 142.672H282.353L278.242 137.221H276.52V142.672H273.866ZM294.324 142.672V129.036H305.448V142.672H302.847V131.326H296.908V142.672H294.324ZM310.187 147.786C309.79 147.786 309.429 147.753 309.104 147.688C308.778 147.629 308.536 147.564 308.376 147.493L309.015 145.317C309.5 145.448 309.932 145.504 310.311 145.486C310.69 145.468 311.024 145.326 311.314 145.06C311.61 144.794 311.871 144.359 312.096 143.755L312.424 142.849L307.435 129.036H310.276L313.729 139.618H313.871L317.325 129.036H320.175L314.555 144.492C314.294 145.202 313.963 145.803 313.561 146.294C313.158 146.791 312.679 147.164 312.122 147.413C311.566 147.661 310.921 147.786 310.187 147.786ZM331.911 134.708V137.008H324.525V134.708H331.911ZM325.27 129.036V142.672H322.669V129.036H325.27ZM333.767 129.036V142.672H331.174V129.036H333.767ZM337.318 142.672V129.036H339.972V134.753H341.251L345.752 129.036H349.036L343.754 135.667L349.099 142.672H345.805L341.694 137.221H339.972V142.672H337.318ZM350.397 131.326V129.036H361.903V131.326H357.455V142.672H354.862V131.326H350.397ZM369.819 142.947C368.541 142.947 367.425 142.654 366.472 142.068C365.52 141.482 364.78 140.663 364.253 139.609C363.726 138.556 363.463 137.324 363.463 135.916C363.463 134.501 363.726 133.264 364.253 132.205C364.78 131.145 365.52 130.323 366.472 129.737C367.425 129.151 368.541 128.858 369.819 128.858C371.098 128.858 372.213 129.151 373.166 129.737C374.119 130.323 374.859 131.145 375.386 132.205C375.913 133.264 376.176 134.501 376.176 135.916C376.176 137.324 375.913 138.556 375.386 139.609C374.859 140.663 374.119 141.482 373.166 142.068C372.213 142.654 371.098 142.947 369.819 142.947ZM369.828 140.719C370.657 140.719 371.343 140.5 371.888 140.062C372.432 139.624 372.835 139.041 373.095 138.313C373.362 137.585 373.495 136.783 373.495 135.907C373.495 135.037 373.362 134.238 373.095 133.51C372.835 132.776 372.432 132.187 371.888 131.743C371.343 131.299 370.657 131.077 369.828 131.077C368.994 131.077 368.301 131.299 367.751 131.743C367.206 132.187 366.801 132.776 366.535 133.51C366.274 134.238 366.144 135.037 366.144 135.907C366.144 136.783 366.274 137.585 366.535 138.313C366.801 139.041 367.206 139.624 367.751 140.062C368.301 140.5 368.994 140.719 369.828 140.719ZM379.139 142.672V129.036H384.794C386.333 129.036 387.552 129.364 388.452 130.021C389.351 130.672 389.801 131.557 389.801 132.675C389.801 133.474 389.547 134.108 389.038 134.575C388.529 135.043 387.854 135.357 387.014 135.516C387.623 135.587 388.182 135.771 388.691 136.067C389.2 136.357 389.609 136.747 389.917 137.239C390.23 137.73 390.387 138.316 390.387 138.996C390.387 139.719 390.201 140.358 389.828 140.914C389.455 141.464 388.913 141.897 388.203 142.21C387.499 142.518 386.65 142.672 385.655 142.672H379.139ZM381.634 140.452H385.655C386.312 140.452 386.827 140.296 387.2 139.982C387.573 139.668 387.759 139.242 387.759 138.703C387.759 138.07 387.573 137.573 387.2 137.212C386.827 136.845 386.312 136.662 385.655 136.662H381.634V140.452ZM381.634 134.717H384.821C385.318 134.717 385.744 134.646 386.099 134.504C386.46 134.362 386.735 134.161 386.925 133.901C387.12 133.634 387.218 133.321 387.218 132.96C387.218 132.433 387.002 132.021 386.57 131.725C386.138 131.43 385.546 131.282 384.794 131.282H381.634V134.717ZM26.429 181.672V168.036H37.5529V181.672H34.9517V170.326H29.0124V181.672H26.429ZM46.8458 181.947C45.5674 181.947 44.4517 181.654 43.4988 181.068C42.546 180.482 41.8061 179.663 41.2794 178.609C40.7526 177.556 40.4893 176.324 40.4893 174.916C40.4893 173.501 40.7526 172.264 41.2794 171.205C41.8061 170.145 42.546 169.323 43.4988 168.737C44.4517 168.151 45.5674 167.858 46.8458 167.858C48.1242 167.858 49.2398 168.151 50.1927 168.737C51.1456 169.323 51.8854 170.145 52.4122 171.205C52.939 172.264 53.2023 173.501 53.2023 174.916C53.2023 176.324 52.939 177.556 52.4122 178.609C51.8854 179.663 51.1456 180.482 50.1927 181.068C49.2398 181.654 48.1242 181.947 46.8458 181.947ZM46.8547 179.719C47.6833 179.719 48.3698 179.5 48.9143 179.062C49.4588 178.624 49.8613 178.041 50.1217 177.313C50.3881 176.585 50.5212 175.783 50.5212 174.907C50.5212 174.037 50.3881 173.238 50.1217 172.51C49.8613 171.776 49.4588 171.187 48.9143 170.743C48.3698 170.299 47.6833 170.077 46.8547 170.077C46.0202 170.077 45.3277 170.299 44.7773 170.743C44.2327 171.187 43.8273 171.776 43.561 172.51C43.3006 173.238 43.1704 174.037 43.1704 174.907C43.1704 175.783 43.3006 176.585 43.561 177.313C43.8273 178.041 44.2327 178.624 44.7773 179.062C45.3277 179.5 46.0202 179.719 46.8547 179.719ZM62.7815 186.786V168.036H65.3738V170.246H65.5958C65.7497 169.962 65.9716 169.634 66.2616 169.261C66.5516 168.888 66.9541 168.562 67.469 168.284C67.9839 168 68.6646 167.858 69.5109 167.858C70.6118 167.858 71.5943 168.136 72.4584 168.692C73.3225 169.249 74.0001 170.051 74.4914 171.098C74.9885 172.146 75.2371 173.407 75.2371 174.88C75.2371 176.354 74.9915 177.618 74.5003 178.671C74.009 179.719 73.3343 180.527 72.4761 181.095C71.6179 181.657 70.6384 181.938 69.5376 181.938C68.709 181.938 68.0313 181.799 67.5045 181.521C66.9837 181.243 66.5753 180.917 66.2794 180.544C65.9835 180.172 65.7556 179.84 65.5958 179.55H65.436V186.786H62.7815ZM65.3827 174.854C65.3827 175.812 65.5218 176.653 65.8 177.375C66.0782 178.097 66.4806 178.662 67.0074 179.071C67.5341 179.473 68.1792 179.674 68.9427 179.674C69.7358 179.674 70.3987 179.464 70.9314 179.044C71.464 178.618 71.8665 178.041 72.1388 177.313C72.4169 176.585 72.556 175.765 72.556 174.854C72.556 173.954 72.4199 173.146 72.1476 172.43C71.8813 171.714 71.4788 171.149 70.9403 170.734C70.4076 170.32 69.7417 170.113 68.9427 170.113C68.1733 170.113 67.5223 170.311 66.9896 170.708C66.4629 171.104 66.0634 171.658 65.7911 172.368C65.5189 173.078 65.3827 173.907 65.3827 174.854ZM82.1796 181.974C81.3155 181.974 80.5342 181.814 79.8358 181.494C79.1375 181.169 78.5841 180.698 78.1757 180.083C77.7732 179.467 77.572 178.713 77.572 177.819C77.572 177.049 77.72 176.416 78.0159 175.919C78.3118 175.422 78.7113 175.028 79.2144 174.738C79.7175 174.448 80.2797 174.229 80.9012 174.081C81.5226 173.933 82.1559 173.821 82.801 173.744C83.6178 173.649 84.2807 173.572 84.7897 173.513C85.2987 173.448 85.6686 173.344 85.8994 173.202C86.1302 173.06 86.2456 172.83 86.2456 172.51V172.448C86.2456 171.672 86.0267 171.072 85.5887 170.646C85.1566 170.219 84.5115 170.006 83.6533 170.006C82.7596 170.006 82.0553 170.205 81.5404 170.601C81.0314 170.992 80.6792 171.427 80.4839 171.906L77.9893 171.338C78.2852 170.509 78.7172 169.841 79.2854 169.332C79.8595 168.817 80.5194 168.444 81.2652 168.213C82.0109 167.976 82.7951 167.858 83.6178 167.858C84.1623 167.858 84.7394 167.923 85.349 168.053C85.9645 168.178 86.5386 168.408 87.0713 168.746C87.6099 169.083 88.0508 169.565 88.3941 170.193C88.7374 170.814 88.909 171.622 88.909 172.616V181.672H86.3167V179.808H86.2101C86.0385 180.151 85.781 180.488 85.4378 180.82C85.0945 181.151 84.6536 181.426 84.115 181.645C83.5764 181.864 82.9313 181.974 82.1796 181.974ZM82.7567 179.843C83.4906 179.843 84.1179 179.698 84.6388 179.408C85.1655 179.118 85.565 178.739 85.8373 178.272C86.1154 177.798 86.2545 177.292 86.2545 176.754V174.996C86.1598 175.09 85.9764 175.179 85.7041 175.262C85.4378 175.339 85.133 175.407 84.7897 175.466C84.4464 175.52 84.112 175.57 83.7865 175.617C83.461 175.659 83.1887 175.694 82.9697 175.724C82.4548 175.789 81.9843 175.898 81.5581 176.052C81.1379 176.206 80.8006 176.428 80.5461 176.718C80.2975 177.002 80.1732 177.381 80.1732 177.854C80.1732 178.511 80.4159 179.009 80.9012 179.346C81.3865 179.677 82.005 179.843 82.7567 179.843ZM95.0458 177.952L101.056 168.036H103.915V181.672H101.314V171.746L95.3299 181.672H92.4446V168.036H95.0458V177.952ZM99.9197 163.419H102.104C102.104 164.419 101.749 165.233 101.038 165.86C100.334 166.482 99.3812 166.793 98.1797 166.793C96.9841 166.793 96.0342 166.482 95.3299 165.86C94.6256 165.233 94.2734 164.419 94.2734 163.419H96.4485C96.4485 163.863 96.5787 164.257 96.8391 164.6C97.0996 164.937 97.5464 165.106 98.1797 165.106C98.8011 165.106 99.245 164.937 99.5114 164.6C99.7836 164.262 99.9197 163.869 99.9197 163.419ZM113.228 181.947C111.949 181.947 110.834 181.654 109.881 181.068C108.928 180.482 108.188 179.663 107.661 178.609C107.134 177.556 106.871 176.324 106.871 174.916C106.871 173.501 107.134 172.264 107.661 171.205C108.188 170.145 108.928 169.323 109.881 168.737C110.834 168.151 111.949 167.858 113.228 167.858C114.506 167.858 115.622 168.151 116.575 168.737C117.527 169.323 118.267 170.145 118.794 171.205C119.321 172.264 119.584 173.501 119.584 174.916C119.584 176.324 119.321 177.556 118.794 178.609C118.267 179.663 117.527 180.482 116.575 181.068C115.622 181.654 114.506 181.947 113.228 181.947ZM113.237 179.719C114.065 179.719 114.752 179.5 115.296 179.062C115.841 178.624 116.243 178.041 116.504 177.313C116.77 176.585 116.903 175.783 116.903 174.907C116.903 174.037 116.77 173.238 116.504 172.51C116.243 171.776 115.841 171.187 115.296 170.743C114.752 170.299 114.065 170.077 113.237 170.077C112.402 170.077 111.71 170.299 111.159 170.743C110.615 171.187 110.209 171.776 109.943 172.51C109.682 173.238 109.552 174.037 109.552 174.907C109.552 175.783 109.682 176.585 109.943 177.313C110.209 178.041 110.615 178.624 111.159 179.062C111.71 179.5 112.402 179.719 113.237 179.719ZM131.789 173.708V176.008H124.403V173.708H131.789ZM125.148 168.036V181.672H122.547V168.036H125.148ZM133.644 168.036V181.672H131.052V168.036H133.644ZM141.164 181.974C140.3 181.974 139.519 181.814 138.82 181.494C138.122 181.169 137.568 180.698 137.16 180.083C136.758 179.467 136.556 178.713 136.556 177.819C136.556 177.049 136.704 176.416 137 175.919C137.296 175.422 137.696 175.028 138.199 174.738C138.702 174.448 139.264 174.229 139.886 174.081C140.507 173.933 141.14 173.821 141.785 173.744C142.602 173.649 143.265 173.572 143.774 173.513C144.283 173.448 144.653 173.344 144.884 173.202C145.115 173.06 145.23 172.83 145.23 172.51V172.448C145.23 171.672 145.011 171.072 144.573 170.646C144.141 170.219 143.496 170.006 142.638 170.006C141.744 170.006 141.04 170.205 140.525 170.601C140.016 170.992 139.664 171.427 139.468 171.906L136.974 171.338C137.27 170.509 137.702 169.841 138.27 169.332C138.844 168.817 139.504 168.444 140.25 168.213C140.995 167.976 141.78 167.858 142.602 167.858C143.147 167.858 143.724 167.923 144.333 168.053C144.949 168.178 145.523 168.408 146.056 168.746C146.594 169.083 147.035 169.565 147.378 170.193C147.722 170.814 147.893 171.622 147.893 172.616V181.672H145.301V179.808H145.195C145.023 180.151 144.765 180.488 144.422 180.82C144.079 181.151 143.638 181.426 143.099 181.645C142.561 181.864 141.916 181.974 141.164 181.974ZM141.741 179.843C142.475 179.843 143.102 179.698 143.623 179.408C144.15 179.118 144.549 178.739 144.822 178.272C145.1 177.798 145.239 177.292 145.239 176.754V174.996C145.144 175.09 144.961 175.179 144.688 175.262C144.422 175.339 144.117 175.407 143.774 175.466C143.431 175.52 143.096 175.57 142.771 175.617C142.445 175.659 142.173 175.694 141.954 175.724C141.439 175.789 140.969 175.898 140.543 176.052C140.122 176.206 139.785 176.428 139.53 176.718C139.282 177.002 139.158 177.381 139.158 177.854C139.158 178.511 139.4 179.009 139.886 179.346C140.371 179.677 140.989 179.843 141.741 179.843ZM159.082 178.387L163.485 168.036H165.776L160.067 181.672H158.096L152.503 168.036H154.767L159.082 178.387ZM154.03 168.036V181.672H151.429V168.036H154.03ZM164.204 181.672V168.036H166.788V181.672H164.204Z" fill="white"/>
</svg>
