<svg width="167" height="47" viewBox="0 0 167 47" fill="none" xmlns="http://www.w3.org/2000/svg">
<rect x="2.39828" y="2.28158" width="162.995" height="42.4774" rx="18.2752" fill="black" stroke="white" stroke-width="2.96354"/>
<path d="M63.2778 15.6264V30.1719H61.0903V17.5014H54.2437V30.1719H52.0562V15.6264H63.2778ZM71.0584 30.392C70.0356 30.392 69.1431 30.1577 68.3808 29.6889C67.6185 29.2202 67.0266 28.5644 66.6052 27.7216C66.1838 26.8788 65.9731 25.8939 65.9731 24.767C65.9731 23.6354 66.1838 22.6458 66.6052 21.7983C67.0266 20.9508 67.6185 20.2926 68.3808 19.8239C69.1431 19.3551 70.0356 19.1207 71.0584 19.1207C72.0811 19.1207 72.9736 19.3551 73.7359 19.8239C74.4982 20.2926 75.0901 20.9508 75.5115 21.7983C75.9329 22.6458 76.1436 23.6354 76.1436 24.767C76.1436 25.8939 75.9329 26.8788 75.5115 27.7216C75.0901 28.5644 74.4982 29.2202 73.7359 29.6889C72.9736 30.1577 72.0811 30.392 71.0584 30.392ZM71.0655 28.6094C71.7284 28.6094 72.2776 28.4342 72.7132 28.0838C73.1488 27.7334 73.4708 27.267 73.6791 26.6847C73.8922 26.1023 73.9987 25.4607 73.9987 24.7599C73.9987 24.0639 73.8922 23.4247 73.6791 22.8423C73.4708 22.2552 73.1488 21.7841 72.7132 21.429C72.2776 21.0739 71.7284 20.8963 71.0655 20.8963C70.3979 20.8963 69.8439 21.0739 69.4035 21.429C68.9679 21.7841 68.6436 22.2552 68.4305 22.8423C68.2222 23.4247 68.118 24.0639 68.118 24.7599C68.118 25.4607 68.2222 26.1023 68.4305 26.6847C68.6436 27.267 68.9679 27.7334 69.4035 28.0838C69.8439 28.4342 70.3979 28.6094 71.0655 28.6094ZM80.5949 27.196L85.4032 19.2628H87.6901V30.1719H85.6092V22.2315L80.8222 30.1719H78.514V19.2628H80.5949V27.196ZM95.1404 30.392C94.0845 30.392 93.1754 30.1529 92.4131 29.6747C91.6556 29.1918 91.0732 28.5265 90.666 27.679C90.2588 26.8314 90.0552 25.8608 90.0552 24.767C90.0552 23.6591 90.2635 22.6813 90.6802 21.8338C91.0968 20.9815 91.684 20.3163 92.4415 19.8381C93.1991 19.3598 94.0916 19.1207 95.1191 19.1207C95.9477 19.1207 96.6863 19.2746 97.335 19.5824C97.9837 19.8854 98.5069 20.3116 98.9046 20.8608C99.3071 21.41 99.5462 22.0516 99.6219 22.7855H97.5552C97.4415 22.2741 97.1811 21.8338 96.7739 21.4645C96.3715 21.0952 95.8317 20.9105 95.1546 20.9105C94.5628 20.9105 94.0443 21.0668 93.5992 21.3793C93.1589 21.687 92.8156 22.1274 92.5694 22.7003C92.3232 23.2685 92.2001 23.9408 92.2001 24.7173C92.2001 25.5128 92.3208 26.1993 92.5623 26.777C92.8038 27.3546 93.1447 27.8021 93.585 28.1193C94.0301 28.4366 94.5533 28.5952 95.1546 28.5952C95.5571 28.5952 95.9217 28.5218 96.2484 28.375C96.5798 28.2235 96.8568 28.008 97.0793 27.7287C97.3066 27.4493 97.4652 27.1132 97.5552 26.7202H99.6219C99.5462 27.4257 99.3165 28.0554 98.933 28.6094C98.5495 29.1634 98.0358 29.599 97.3918 29.9162C96.7526 30.2334 96.0021 30.392 95.1404 30.392ZM101.893 30.1719V19.2628H104.016V23.8366H105.039L108.64 19.2628H111.268L107.042 24.5682L111.318 30.1719H108.683L105.394 25.8111H104.016V30.1719H101.893Z" fill="white"/>
<path d="M38.9409 32.8359L38.941 32.8359L38.9358 32.8309L34.401 28.4585L34.2558 28.3185L34.0883 28.4308C32.5527 29.4595 30.8429 29.9738 28.9522 29.9738C27.724 29.9738 26.551 29.7435 25.4313 29.283C24.3082 28.8211 23.3438 28.1987 22.5353 27.4168C21.7268 26.635 21.0839 25.7033 20.6072 24.6192C20.132 23.5388 19.8945 22.4075 19.8945 21.2232C19.8945 20.0389 20.132 18.9077 20.6072 17.8272C21.0839 16.7431 21.7268 15.8115 22.5353 15.0297C23.3438 14.2478 24.3082 13.6253 25.4313 13.1634C26.551 12.703 27.724 12.4727 28.9522 12.4727C30.1805 12.4727 31.3535 12.703 32.4731 13.1634C33.5963 13.6253 34.5606 14.2478 35.3692 15.0297C36.1777 15.8115 36.8205 16.7431 37.2973 17.8272C37.7725 18.9077 38.0099 20.0389 38.0099 21.2232C38.0099 23.0461 37.4798 24.6956 36.4173 26.1788L36.2916 26.3542L36.4467 26.5041L40.9816 30.8893C41.2592 31.1578 41.3945 31.4766 41.3945 31.8603C41.3945 32.2319 41.2574 32.5517 40.9683 32.8312C40.6792 33.1108 40.3445 33.2467 39.9522 33.2467C39.5397 33.2467 39.2086 33.1092 38.9409 32.8359ZM35.1253 21.2232C35.1253 19.577 34.517 18.1638 33.3105 16.9971C32.1042 15.8306 30.6469 15.2456 28.9522 15.2456C27.2576 15.2456 25.8002 15.8306 24.5939 16.9971C23.3874 18.1638 22.7791 19.577 22.7791 21.2232C22.7791 22.8695 23.3874 24.2826 24.5939 25.4494C25.8002 26.6158 27.2576 27.2009 28.9522 27.2009C30.6469 27.2009 32.1042 26.6158 33.3105 25.4494C34.517 24.2826 35.1253 22.8695 35.1253 21.2232Z" fill="white" stroke="black" stroke-width="0.5"/>
</svg>
