<svg width="81" height="80" viewBox="0 0 81 80" fill="none" xmlns="http://www.w3.org/2000/svg">
<g clip-path="url(#clip0_1817_1196)">
<path fill-rule="evenodd" clip-rule="evenodd" d="M30.3675 13.2266H49.8813L61.5667 45.0988L40.1473 66.717L18.7285 45.1001L30.3675 13.2266ZM33.1652 17.2266L23.3565 44.0878L40.1472 61.0339L56.9361 44.0891L47.0875 17.2266H33.1652Z" fill="black"/>
<path fill-rule="evenodd" clip-rule="evenodd" d="M25.5049 30.8438L26.925 27.4355H53.5219L54.9415 30.8443L43.0353 42.842L57.3759 57.3042L54.5355 60.1207L40.2176 45.6813L25.9115 60.0974L23.0723 57.2798L37.4011 42.8409L25.5049 30.8438ZM40.2187 40.0016L48.7195 31.4355H31.7248L40.2187 40.0016Z" fill="black"/>
<path d="M29.3296 59.2543L18.5 64.88L23.6583 53.7188L29.3296 59.2543Z" fill="black"/>
<path d="M57.4164 55.3359L52.6898 55.3801L52.6703 55.358L52.6673 55.3801L52.6454 55.3807L52.6649 55.4021L51.9785 60.1192L57.0766 65.9993L58.2469 61.8322L62.4993 61.2289L57.4164 55.3359Z" fill="black"/>
</g>
<defs>
<clipPath id="clip0_1817_1196">
<rect width="44" height="52" fill="white" transform="translate(18.5 14)"/>
</clipPath>
</defs>
</svg>
