<svg width="354" height="305" viewBox="0 0 354 305" fill="none" xmlns="http://www.w3.org/2000/svg">
<path d="M342.206 29.7504C343.521 30.6531 343.8 32.4101 342.82 33.6688C337.136 40.9664 317.534 63.5773 290.201 67.3995C262.777 71.2345 236.31 54.8937 228.507 49.5385C227.191 48.6358 226.912 46.8788 227.892 45.6201C233.576 38.3225 253.179 15.7116 280.511 11.8894C307.935 8.05441 334.402 24.3952 342.206 29.7504Z" fill="#2AA125"/>
<path d="M276.351 87.3597C265.781 79.6697 252.871 76.4297 238.851 77.1697C218.561 78.2297 200.991 64.9397 196.271 44.9397C192.851 30.4397 185.641 18.3797 174.541 10.2897C157.346 -2.22765 133.94 -2.93128 109.655 6.04487C106.862 7.07719 107.31 11.3285 110.122 12.3075C120.926 16.069 131.32 23.407 139.411 33.9097C158.331 58.3697 157.561 90.6697 137.681 106.04C128.702 112.985 117.359 115.3 105.873 113.467C103.26 113.05 101.148 115.732 102.475 118.021C106.179 124.416 110.983 132.891 111 137.2C111 162.33 85.93 182.7 55 182.7C38.1982 182.7 17.4354 170.763 5.51144 159.516C3.51957 157.637 -0.00914154 158.866 0.000694976 161.604C0.0856764 185.259 7.96501 205.252 24.0513 216.94C34.6213 224.63 47.5313 227.86 61.5513 227.13C81.8413 226.07 99.4113 239.36 104.131 259.36C107.551 273.86 114.761 285.92 125.861 294.01C151.587 312.706 191.198 305.02 226.879 278.027C229.216 276.259 227.744 272.545 224.814 272.574C224.437 272.578 224.06 272.58 223.681 272.58C183.091 272.58 148 242.07 148 216.94C148 196.179 172.475 187.972 203.352 183.3C205.381 182.993 206.54 180.794 205.717 178.914C195.288 155.091 198.06 130.027 214.401 117.37C234.951 101.47 269.171 111.29 290.841 139.29C292.176 141.015 293.445 142.789 294.644 144.607C296.308 147.131 300.411 146.233 300.413 143.21C300.428 119.336 292.516 99.1296 276.351 87.3597Z" fill="#E6BA4E"/>
<path d="M301.639 43.2209C301.83 41.593 304.17 41.593 304.361 43.2209L305.966 56.8768C308.038 74.5103 321.805 88.413 339.267 90.5053L352.791 92.1256C354.403 92.319 354.403 94.681 352.791 94.8744L339.267 96.4947C321.805 98.587 308.038 112.49 305.966 130.123L304.361 143.779C304.17 145.407 301.83 145.407 301.639 143.779L300.034 130.123C297.962 112.49 284.195 98.587 266.732 96.4947L253.209 94.8744C251.597 94.681 251.597 92.319 253.209 92.1256L266.732 90.5053C284.195 88.413 297.962 74.5103 300.034 56.8768L301.639 43.2209Z" fill="white"/>
</svg>
