<svg width="779" height="776" viewBox="0 0 779 776" fill="none" xmlns="http://www.w3.org/2000/svg">
<path d="M399.89 216.763C409.907 175.376 424.393 135.231 443.109 96.9728C445.848 91.3734 452.432 88.9424 458.386 90.7873C462.642 92.106 466.953 93.2328 471.305 94.1645C480.181 96.0648 485.319 106.225 480.799 114.097C461.729 147.306 445.651 182.094 432.74 218.087C431.203 222.373 432.31 227.111 435.198 230.631C458.311 258.794 463.633 297.804 458.445 333.123C452.908 370.825 436.633 405.898 423.731 441.675C417.755 458.077 412.622 476.413 419.287 492.83C427.818 513.603 452.696 524.029 475.626 526.314C498.556 528.598 521.803 524.969 544.541 528.911C569.406 533.05 593.114 545.733 618.118 544.868C629.147 544.475 641.629 541.646 650.348 548.301C661.703 556.551 658.632 575.117 647.501 583.211C636.37 591.305 621.195 591.662 607.156 590.395C577.002 587.679 547.577 579.344 518.356 571.073L415.308 541.825C402.115 538.089 388.444 534.093 378.149 525.162C363.066 512.015 359.127 492.163 358.766 472.169C358.597 462.82 349.132 457.266 343.818 464.96C336.477 475.59 332.859 489.398 330.65 502.346C327.245 522.309 324.529 544.158 309.765 558.34C287.177 580.117 249.164 573.331 219.645 584.621C202.623 591.1 188.875 603.513 172.672 611.65C152.788 621.543 129.894 624.738 107.552 620.739C99.3385 619.709 91.5874 616.273 85.3518 610.9C74.2299 599.986 76.3676 581.175 86.5356 569.765C96.7036 558.356 112.439 553.614 127.794 551.113C143.15 548.612 159.015 548.208 173.83 543.709C192.597 537.972 210.185 525.87 229.874 527.676C230.489 527.732 231.098 527.857 231.699 528.003C236.32 529.129 241.111 529.283 245.74 528.459C246.953 528.244 248.115 527.784 249.116 527.067C252.839 524.401 255.585 520.645 256.944 516.315C263.612 501.873 269.32 487.017 274.034 471.835C276.029 465.599 277.696 458.452 274.513 452.762C268.54 442.796 252.235 445.101 243.828 452.938C235.42 460.776 231.096 472.013 222.618 479.721C205.118 495.606 176.027 491.674 153.861 481.202C131.695 470.73 111.65 455.029 87.9412 449.38C73.3067 445.935 53.4476 442.485 52.145 428.105C51.1823 417.056 63.1571 409.662 74.1944 407.66C120.46 399.362 165.965 442.646 212.072 433.439C243.055 427.235 262.887 399.314 280.193 374.022C316.976 320.158 356.493 268.171 398.744 218.061" fill="#E6BA4E"/>
<path d="M423.957 298.625C424.16 296.918 426.636 296.918 426.839 298.625L428.538 312.941C430.731 331.427 445.306 346.002 463.792 348.196L478.108 349.894C479.815 350.097 479.815 352.573 478.108 352.776L463.792 354.475C445.306 356.668 430.731 371.243 428.538 389.729L426.839 404.045C426.636 405.752 424.16 405.752 423.957 404.045L422.259 389.729C420.065 371.243 405.49 356.668 387.004 354.475L372.688 352.776C370.982 352.573 370.982 350.097 372.688 349.894L387.004 348.196C405.49 346.002 420.065 331.427 422.259 312.941L423.957 298.625Z" fill="white"/>
</svg>
