<svg width="179" height="444" viewBox="0 0 179 444" fill="none" xmlns="http://www.w3.org/2000/svg">
<path d="M114.371 419.526C127.626 419.526 138.371 408.781 138.371 395.526L138.371 236.526L0.371094 236.526L0.371094 395.526C0.371094 408.781 11.1163 419.526 24.3711 419.526H114.371Z" fill="#ED444E"/>
<path d="M108.371 428.526C113.342 428.526 117.371 424.497 117.371 419.526H22.3711C22.3711 424.497 26.4005 428.526 31.3711 428.526H108.371Z" fill="#D9D9D9"/>
<path d="M73.3711 443.526C81.6554 443.526 88.3711 436.811 88.3711 428.526H51.3711C51.3711 436.811 58.0868 443.526 66.3711 443.526H73.3711Z" fill="#D9D9D9"/>
<path d="M108.371 26.5262C113.342 26.5262 117.371 30.5557 117.371 35.5262L22.3711 35.5262C22.3711 30.5557 26.4005 26.5262 31.3711 26.5262L108.371 26.5262Z" fill="#D9D9D9"/>
<path d="M73.3711 11.5262C81.6554 11.5262 88.3711 18.242 88.3711 26.5262L51.3711 26.5262C51.3711 18.242 58.0868 11.5262 66.3711 11.5262L73.3711 11.5262Z" fill="#D9D9D9"/>
<path d="M138.371 236.526L138.371 59.5262C138.371 46.2714 127.626 35.5262 114.371 35.5262L24.3711 35.5262C11.1163 35.5262 0.371094 46.2714 0.371094 59.5262L0.371094 236.526L138.371 236.526Z" fill="#3F66C3"/>
<path d="M133.312 1.05492C133.479 -0.351641 135.521 -0.351641 135.688 1.05492L137.088 12.8547C138.896 28.0915 150.909 40.1045 166.145 41.9124L177.945 43.3125C179.352 43.4795 179.352 45.5205 177.945 45.6876L166.145 47.0876C150.909 48.8955 138.896 60.9085 137.088 76.1451L135.688 87.945C135.521 89.3517 133.479 89.3517 133.312 87.945L131.912 76.1451C130.104 60.9085 118.091 48.8955 102.855 47.0876L91.0549 45.6876C89.6484 45.5205 89.6484 43.4795 91.0549 43.3125L102.855 41.9124C118.091 40.1045 130.104 28.0915 131.912 12.8547L133.312 1.05492Z" fill="white"/>
</svg>
