<svg width="217" height="338" viewBox="0 0 217 338" fill="none" xmlns="http://www.w3.org/2000/svg">
<path d="M205.505 3.86237H87.7846C85.1146 3.86237 82.5646 4.92237 80.6846 6.81237L63.3946 24.2124C62.7446 24.8724 61.5846 24.4024 61.6246 23.4824C61.7446 20.7824 60.7746 18.0424 58.7146 15.9824L49.9246 7.16237C46.0246 3.25237 39.7046 3.25237 35.8046 7.16237L6.94461 36.1124C3.05461 40.0224 3.05461 46.3624 6.94461 50.2724L15.7346 59.0924C17.8146 61.1824 20.6046 62.1624 23.3446 62.0124C24.2746 61.9624 24.7446 63.1224 24.0946 63.7724L6.63461 81.3524C4.77461 83.2224 3.72461 85.7624 3.72461 88.4024V326.682C3.72461 332.202 8.20461 336.682 13.7246 336.682H205.505C211.025 336.682 215.505 332.202 215.505 326.682V13.8624C215.505 8.34237 211.025 3.86237 205.505 3.86237ZM185.935 151.542C185.935 160.792 178.485 168.272 169.265 168.272C160.045 168.272 152.565 160.792 152.565 151.542V48.1424C152.565 38.9124 160.045 31.4124 169.265 31.4124C173.885 31.4124 178.045 33.2824 181.065 36.3224C184.075 39.3424 185.935 43.5224 185.935 48.1424V151.542Z" fill="#E6BA4E" stroke="black" stroke-miterlimit="10"/>
<path d="M36.0176 7.77806L7.7781 36.0176C3.48237 40.3133 3.48238 47.278 7.7781 51.5738L14.2791 58.0747C18.5748 62.3705 25.5396 62.3704 29.8353 58.0747L58.0748 29.8352C62.3705 25.5395 62.3705 18.5748 58.0748 14.279L51.5738 7.77805C47.2781 3.48233 40.3133 3.48233 36.0176 7.77806Z" fill="#ED444E"/>
</svg>
