<svg width="459" height="420" viewBox="0 0 459 420" fill="none" xmlns="http://www.w3.org/2000/svg">
<path d="M451.067 97.7855C452.224 98.884 452.226 100.654 451.071 101.756C443.613 108.872 416.22 132.6 382.971 132.142C349.611 131.681 321.169 106.976 313.533 99.7268C312.376 98.6284 312.374 96.8582 313.529 95.7568C320.986 88.6406 348.38 64.9123 381.629 65.3708C414.989 65.8309 443.431 90.5368 451.067 97.7855Z" fill="#2AA125"/>
<path d="M363.149 153.028C352.154 142.114 337.616 135.991 321.06 134.33C297.101 131.913 278.916 113.177 276.994 88.8985C275.602 71.2967 269.331 55.8698 257.787 44.3919C239.541 26.2711 211.508 21.3862 180.726 28.104C177.817 28.7389 177.644 32.9734 180.312 34.294C192.941 40.5433 204.447 51.3346 212.378 65.7257C230.13 97.7892 223.404 135.486 197.345 149.906C185.204 156.627 171.005 157.125 157.507 152.458C155.006 151.593 152.503 153.909 153.467 156.374C156.702 164.642 161.268 176.289 160.473 181.595C155.942 211.032 122.902 230.373 86.6711 224.796C66.5036 221.691 43.7243 203.155 32.0154 187.585C30.3698 185.397 26.7066 186.053 26.2696 188.756C21.6963 217.049 27.225 242.451 44.2445 259.324C55.2394 270.237 69.7796 276.349 86.334 278.022C110.293 280.438 128.477 299.174 130.4 323.453C131.792 341.055 138.063 356.482 149.607 367.96C176.664 394.79 225.209 392.594 272.357 366.613C274.923 365.199 274.028 361.311 271.123 360.931C270.103 360.798 269.08 360.652 268.055 360.495C220.509 353.176 184.905 311.11 189.436 281.673C193.205 257.185 223.751 252.082 261.116 252.252C263.169 252.261 264.646 250.263 264.103 248.284C255.851 218.234 263.567 188.99 285.171 177.011C312.11 162.091 350.424 179.764 370.759 216.471C372.329 219.304 373.762 222.208 375.054 225.173C376.262 227.944 380.444 227.698 380.951 224.718C385.839 195.982 380.349 170.113 363.149 153.028Z" fill="#E6BA4E"/>
</svg>
