<svg width="362" height="348" viewBox="0 0 362 348" fill="none" xmlns="http://www.w3.org/2000/svg">
<path d="M201.528 99.7844L202.434 99.349L201.994 98.4455C199.402 93.1202 196.845 87.8215 194.3 82.5486C187.974 69.4402 181.726 56.4918 175.204 43.693C172.114 37.6276 168.236 31.9415 164.417 26.3407C163.762 25.3807 163.109 24.4232 162.462 23.4667C154.975 12.3953 144.331 5.8783 132.072 1.97807C163.785 1.97895 195.497 1.99411 227.209 2.02354L227.213 2.02353C234.441 2.00235 241.606 3.38512 248.314 6.09612C258.583 10.2548 264.409 18.5545 269.05 28.4164C271.687 34.0251 274.482 39.5831 277.302 45.1911C278.827 48.2236 280.36 51.2707 281.878 54.3483L282.307 55.2166L283.188 54.8163C284.492 54.2244 285.779 53.6377 287.055 53.0561C290.211 51.6178 293.299 50.2106 296.402 48.8313L296.404 48.8304C298.668 47.8342 300.863 46.8678 303.133 46.0094C304.188 45.6104 304.715 45.6929 304.975 45.8446C305.234 45.9959 305.574 46.4177 305.748 47.5667L305.748 47.5691C306.23 50.6997 305.252 53.5358 303.581 56.3645C297.461 66.6924 291.35 77.0299 285.249 87.3768C283.718 89.9691 282.183 92.561 280.648 95.1538C276.211 102.646 271.771 110.146 267.405 117.683C266.978 118.42 266.601 118.773 266.229 118.959C265.851 119.147 265.343 119.231 264.516 119.161C247.161 117.698 229.804 116.283 212.445 114.918C208.549 114.606 204.655 114.303 200.763 114L200.761 114C196.868 113.697 192.977 113.394 189.084 113.082C187.316 112.939 186.113 112.239 185.52 111.401C184.956 110.604 184.833 109.536 185.511 108.305L185.514 108.298C185.918 107.55 186.926 106.86 188.042 106.293C191.068 104.777 194.122 103.321 197.308 101.802C198.687 101.145 200.091 100.475 201.528 99.7844Z" stroke="white" stroke-width="2"/>
<path d="M25.3811 145.141L24.9266 145.979C24.8125 146.189 24.7038 146.397 24.5974 146.601C24.3489 147.076 24.1131 147.527 23.8522 147.928C17.8861 157.279 11.9163 166.626 5.94263 175.969C2.63441 181.153 1.02261 186.218 1.00024 191.294C0.977847 196.372 2.54671 201.544 5.73447 206.936L5.73473 206.936C16.5503 225.252 27.1118 243.716 37.6691 262.173C42.0902 269.902 46.5105 277.63 50.9484 285.345C52.7065 288.39 54.4656 291.433 56.2257 294.475C53.9712 280.674 56.15 267.654 63.949 255.545L63.9492 255.545C72.9317 241.61 81.8433 227.63 90.7561 213.648C95.2839 206.545 99.8119 199.441 104.35 192.343L104.368 192.314L104.388 192.287C104.807 191.72 105.262 191.181 105.75 190.672L106.306 190.092L106.992 190.51C108.533 191.45 110.041 192.385 111.532 193.311C114.895 195.397 118.175 197.431 121.551 199.343C122.01 199.56 122.511 199.675 123.02 199.681C123.52 199.687 124.016 199.587 124.475 199.387C124.594 199.303 124.845 199.009 125.055 198.475C125.27 197.929 125.321 197.437 125.272 197.197C124.808 195.008 124.036 192.896 122.981 190.922L122.979 190.919C117.873 181.304 112.74 171.695 107.607 162.085C101.537 150.721 95.466 139.356 89.4378 127.979C88.9614 127.082 88.5522 126.598 88.1032 126.317C87.665 126.042 87.0629 125.884 86.0383 125.909C86.0381 125.909 86.0379 125.909 86.0377 125.909L86.0128 124.909C61.2233 125.552 36.4281 126.117 11.6329 126.681L25.3811 145.141ZM25.3811 145.141L24.5653 144.647C22.8035 143.58 21.0582 142.528 19.3241 141.482C16.5946 139.837 13.8925 138.207 11.1962 136.566L11.1952 136.565C10.8159 136.335 10.4277 136.117 10.0547 135.907L10.0104 135.883C9.64851 135.68 9.30127 135.485 8.96408 135.283C8.26045 134.861 7.65419 134.438 7.1725 133.939L7.17252 133.939L7.16736 133.934C6.77471 133.533 6.35455 132.958 6.06885 132.379C5.76144 131.757 5.71142 131.339 5.75423 131.161C5.87596 130.672 6.19613 130.116 6.67925 129.56C7.15638 129.011 7.74683 128.515 8.32573 128.141L8.32573 128.141L8.32901 128.139C8.62449 127.947 9.06824 127.826 9.69225 127.764C10.1101 127.722 10.5147 127.713 10.9472 127.702C11.1769 127.697 11.4143 127.691 11.6658 127.68L25.3811 145.141Z" stroke="white" stroke-width="2"/>
<path d="M238.302 230.423V231.317L239.191 231.417C239.572 231.46 239.855 231.497 240.09 231.528C240.16 231.537 240.225 231.545 240.288 231.553C240.553 231.588 240.793 231.615 241.047 231.615H241.049C247.795 231.607 254.545 231.618 261.296 231.629C277.675 231.656 294.062 231.683 310.443 231.434C323.558 231.241 336.594 229.157 347.805 221.123L347.807 221.122C350.868 218.92 353.769 216.451 356.667 213.984C356.708 213.949 356.748 213.915 356.789 213.88C356.78 213.897 356.77 213.915 356.761 213.932C351.678 223.159 346.587 232.382 341.495 241.606C329.51 263.319 317.523 285.035 305.641 306.805C302.964 311.708 299.654 315.409 295.674 317.916C291.696 320.42 286.995 321.765 281.477 321.875L281.477 321.875C270.262 322.101 259.038 322.056 247.81 321.96H247.801C246.536 321.96 245.343 322.113 244.544 322.909C243.734 323.715 243.6 324.907 243.64 326.178L243.64 326.178C243.746 329.468 243.728 332.713 243.711 335.979C243.698 338.344 243.685 340.719 243.719 343.13C243.719 344.051 243.611 344.746 243.353 345.281C243.112 345.78 242.703 346.217 241.922 346.559C241.072 346.93 240.331 347.041 239.685 346.946C239.047 346.852 238.42 346.546 237.805 345.942L237.798 345.934L237.79 345.927C236.612 344.816 235.555 343.583 234.637 342.249C221.323 321.93 208.058 301.577 194.843 281.19C194.671 280.842 194.577 280.462 194.566 280.075C194.555 279.687 194.627 279.303 194.779 278.946C207.174 257.289 219.629 235.661 232.145 214.06L232.146 214.058C232.684 213.123 233.243 212.406 233.866 211.963C234.451 211.548 235.125 211.349 236.013 211.505L236.015 211.505C236.956 211.668 237.468 212.126 237.788 212.734C238.139 213.398 238.283 214.295 238.302 215.31C238.332 218.605 238.323 221.897 238.313 225.253C238.307 226.957 238.302 228.677 238.302 230.423Z" stroke="white" stroke-width="2"/>
<path d="M93.8329 322.189H93.8326C86.8048 322.273 81.7299 320.674 78.0754 317.441C74.4066 314.196 72.0221 309.174 70.656 302.106C67.1588 284.004 71.4209 267.741 81.951 252.819C83.9393 250.023 85.8334 247.175 87.7129 244.339C87.8147 244.185 87.9164 244.032 88.0181 243.878C89.7937 241.199 91.5598 238.533 93.3964 235.914C93.6856 235.54 94.0467 235.228 94.4579 234.998C94.8615 234.773 95.3052 234.631 95.763 234.58C121.831 234.489 147.893 234.468 173.949 234.518C174.427 234.545 174.861 234.974 174.861 235.591V319.634C174.861 320.995 173.758 322.098 172.397 322.098C164.774 322.098 157.15 322.08 149.524 322.062C130.966 322.019 112.399 321.975 93.8329 322.189Z" stroke="white" stroke-width="2"/>
<path d="M239.124 146.54L239.124 146.54L239.118 146.53C238.823 146.057 238.985 145.331 239.583 144.983L312.395 102.68C312.459 102.642 312.553 102.656 312.607 102.726C313.038 103.282 313.429 103.79 313.777 104.319C327.777 125.677 341.772 147.036 355.762 168.397L355.762 168.397C358.722 172.916 360.195 177.409 360.162 181.819C360.13 186.222 358.596 190.631 355.39 194.988C347.724 205.375 337.796 212.847 325.165 216.147C322.867 216.744 320.504 217.053 318.13 217.069L318.128 217.069C312.11 217.119 306.137 217.117 300.16 217.115C294.705 217.112 289.246 217.11 283.747 217.148C282.925 217.148 282.402 217.032 282.002 216.815C281.607 216.6 281.223 216.229 280.793 215.514C266.954 192.491 253.064 169.499 239.124 146.54Z" stroke="white" stroke-width="2"/>
<path d="M63.7025 74.0381L63.7026 74.038C66.9125 68.8721 70.1427 63.7143 73.374 58.5546C80.8534 46.6118 88.3389 34.6592 95.5923 22.5752L95.5924 22.575C99.9928 15.2415 106.359 12.4532 114.477 11.6079L114.477 11.6079C127.736 10.2246 137.459 16.6389 145.95 26.1526C156.552 38.0429 163.721 52.1365 170.109 66.7282L170.109 66.7286C170.15 66.8218 170.18 67.149 170 67.7498C169.836 68.2936 169.558 68.8676 169.286 69.2973C160.65 82.8858 151.967 96.4421 143.236 109.966L143.236 109.967C139.491 115.776 135.761 121.597 131.961 127.537C129.234 131.797 123.535 132.975 119.344 130.144L62.7938 91.9543C58.7976 89.2556 57.6338 83.8842 60.1581 79.7773C61.3416 77.8518 62.5188 75.9427 63.7025 74.0381Z" stroke="white" stroke-width="2"/>
</svg>
