<svg width="89" height="89" viewBox="0 0 89 89" fill="none" xmlns="http://www.w3.org/2000/svg">
<path d="M43.3125 1.05492C43.4795 -0.351641 45.5205 -0.351641 45.6876 1.05492L47.0877 12.8547C48.8955 28.0915 60.9085 40.1045 76.1451 41.9124L87.945 43.3125C89.3517 43.4795 89.3517 45.5205 87.945 45.6876L76.1451 47.0877C60.9085 48.8955 48.8955 60.9085 47.0877 76.1451L45.6876 87.945C45.5205 89.3517 43.4795 89.3517 43.3125 87.945L41.9124 76.1451C40.1045 60.9085 28.0915 48.8955 12.8547 47.0877L1.05492 45.6876C-0.351641 45.5205 -0.351641 43.4795 1.05492 43.3125L12.8547 41.9124C28.0915 40.1045 40.1045 28.0915 41.9124 12.8547L43.3125 1.05492Z" fill="white"/>
</svg>
