<svg width="146" height="240" viewBox="0 0 146 240" fill="none" xmlns="http://www.w3.org/2000/svg">
<path d="M73 239.246C53.64 239.246 35.071 231.561 21.3812 217.88C7.691 204.2 0 185.646 0 166.3C0 136.337 13.8696 113.879 30.768 86.5161C43.912 65.2338 58.888 40.9838 70.597 7.92769C71.281 5.99569 72.989 0.246094 72.989 0.246094C72.989 0.246094 72.993 0.258594 73 0.282494C73.007 0.258594 73.011 0.246094 73.011 0.246094C73.011 0.246094 74.719 5.99569 75.403 7.92769C87.112 40.9838 102.088 65.2338 115.232 86.5161C132.13 113.879 146 136.337 146 166.3C146 185.646 138.309 204.2 124.619 217.88C111.025 231.464 92.225 239.246 73 239.246Z" fill="#5FCEE7"/>
</svg>
