<svg width="472" height="259" viewBox="0 0 472 259" fill="none" xmlns="http://www.w3.org/2000/svg">
<path d="M471.06 82.63V175.4C471.06 181.54 466.08 186.52 459.94 186.52H434.38C428.24 186.52 423.26 181.54 423.26 175.4C423.26 175.33 423.21 175.28 423.14 175.28H410.6C408.21 175.28 406.27 173.34 406.27 170.95V170.94C406.27 168.95 403.48 168.44 402.8 170.32C385.57 218.21 339.23 253.51 283.54 257.65C278.02 258.06 273.43 253.97 272.66 248.65C272.64 248.52 272.45 248.52 272.43 248.65C271.66 253.97 267.07 258.05 261.55 258.05H11.12C4.98 258.05 0 253.07 0 246.93V11.12C0 4.98 4.98 0 11.12 0H261.54C267.07 0 271.65 4.08 272.42 9.4C272.44 9.53 272.63 9.53 272.65 9.4C273.43 4.08 278.02 0 283.53 0.41C339.22 4.55 385.57 39.83 402.79 87.71C403.47 89.59 406.26 89.08 406.26 87.09C406.26 84.7 408.2 82.76 410.59 82.76H423.13C423.2 82.76 423.25 82.71 423.25 82.64V82.63C423.25 76.49 428.23 71.51 434.37 71.51H459.93C466.08 71.51 471.06 76.49 471.06 82.63Z" fill="#BDE5EC"/>
<path d="M460.06 71.5156H434.255C428.18 71.5156 423.255 76.4405 423.255 82.5156V175.531C423.255 181.607 428.18 186.531 434.255 186.531H460.06C466.135 186.531 471.06 181.607 471.06 175.531V82.5156C471.06 76.4405 466.135 71.5156 460.06 71.5156Z" fill="#5FCEE7"/>
</svg>
