<svg width="397" height="397" viewBox="0 0 397 397" fill="none" xmlns="http://www.w3.org/2000/svg">
<path d="M193 232.6C212.858 232.6 230.057 223.886 241.863 209.51C241.021 230.946 236.334 247.673 228.741 259.255C220.416 271.954 208.537 278.6 193.8 278.6C183.669 278.6 175.689 275.427 169.729 270.195C163.739 264.937 159.608 257.435 157.521 248.516L156.979 246.2H154.6H130.2H126.723L127.232 249.64C132.248 283.494 157.897 306.6 193.8 306.6C217.831 306.6 237.356 295.875 250.747 275.763C264.046 255.789 271.2 226.727 271.2 190C271.2 151.927 261.679 126.997 247.406 111.516C233.115 96.0176 214.446 90.4075 197.036 90.2002C153.602 89.6782 125.6 122.497 125.6 161.6C125.6 202.773 156.06 232.6 193 232.6ZM198.4 393.8C306.357 393.8 393.8 306.357 393.8 198.4C393.8 90.4431 306.357 3 198.4 3C90.4431 3 3 90.4431 3 198.4C3 306.357 90.4431 393.8 198.4 393.8ZM198.4 364.6C106.459 364.6 32.2 290.145 32.2 198.4C32.2 106.457 106.457 32.2 198.4 32.2C290.343 32.2 364.6 106.457 364.6 198.4C364.6 290.145 290.341 364.6 198.4 364.6ZM197 118.2C220.74 118.2 238.4 138.646 238.4 161.2C238.4 184.08 219.609 204.6 196.2 204.6C172.847 204.6 155.6 185.74 155.6 161.6C155.6 137.499 173.61 118.2 197 118.2Z" fill="black" stroke="black" stroke-width="6"/>
</svg>
