<svg width="407" height="407" viewBox="0 0 407 407" fill="none" xmlns="http://www.w3.org/2000/svg">
<path d="M265.832 216.018C259.457 208.347 250.745 202.747 240.168 199.705C258.672 191.401 269.938 174.133 269.938 151.764C269.938 120.233 244.98 92.5114 204.527 92.5114C167.13 92.5114 135.09 115.663 133.779 150.831L133.663 153.943H136.777H161.413H164.284L164.41 151.075C165.233 132.426 183.064 120.684 204.116 120.684C215.112 120.684 223.879 124.009 229.867 129.57C235.835 135.111 239.302 143.108 239.302 152.996C239.302 163.24 235.323 171.529 228.562 177.301C221.757 183.11 211.923 186.539 200.01 186.539H183.175H180.175V189.539V212.123V215.123H183.175H200.01C215.493 215.123 227.168 219.056 234.914 225.446C242.601 231.787 246.693 240.766 246.693 251.541C246.693 261.726 242.29 270.218 234.748 276.23C227.156 282.282 216.257 285.905 203.295 285.905C179.752 285.905 162.49 273.915 161.12 255.831L160.91 253.057H158.128H132.26H129.117L129.264 256.197C130.903 291.392 161.954 314.489 203.705 314.489C245.617 314.489 277.74 288.042 277.74 251.541C277.74 237.594 273.602 225.366 265.832 216.018ZM203.5 404C314.275 404 404 314.275 404 203.5C404 92.7254 314.275 3 203.5 3C92.7254 3 3 92.7254 3 203.5C3 314.275 92.7254 404 203.5 404ZM203.5 374.185C109.078 374.185 32.815 297.721 32.815 203.5C32.815 109.076 109.076 32.815 203.5 32.815C297.924 32.815 374.185 109.076 374.185 203.5C374.185 297.721 297.922 374.185 203.5 374.185Z" fill="black" stroke="black" stroke-width="6"/>
</svg>
