<svg width="397" height="397" viewBox="0 0 397 397" fill="none" xmlns="http://www.w3.org/2000/svg">
<path d="M109.4 258.8V261.8H112.4H205.8V300.8V303.8H208.8H232.4H235.4V300.8V261.8H260.4H263.4V258.8V236.8V233.8H260.4H235.4V96V93H232.4H202.4H200.747L199.864 94.3972L109.864 236.797L109.4 237.531V238.4V258.8ZM198.4 393.8C306.357 393.8 393.8 306.357 393.8 198.4C393.8 90.4431 306.357 3 198.4 3C90.4431 3 3 90.4431 3 198.4C3 306.357 90.4431 393.8 198.4 393.8ZM198.4 364.6C106.459 364.6 32.2 290.145 32.2 198.4C32.2 106.457 106.457 32.2 198.4 32.2C290.343 32.2 364.6 106.457 364.6 198.4C364.6 290.145 290.341 364.6 198.4 364.6ZM205.8 233.8H143.634L205.8 135.431V233.8Z" fill="black" stroke="black" stroke-width="6"/>
</svg>
