<svg width="385" height="385" viewBox="0 0 385 385" fill="none" xmlns="http://www.w3.org/2000/svg">
<circle cx="192.4" cy="192.4" r="174.9" stroke="black" stroke-width="35"/>
<path d="M211.28 82.0267L211.307 80.5H209.78H174.73H173.203L173.231 82.0267L176.001 237.46L176.027 238.933H177.5H207.01H208.484L208.51 237.46L211.28 82.0267ZM176.12 297.088L176.129 297.097C180.601 301.493 186.022 303.706 192.309 303.706C196.407 303.706 200.191 302.677 203.627 300.616C207.033 298.572 209.766 295.84 211.81 292.435C213.938 288.937 215.039 285.091 215.115 280.926L215.116 280.904L215.115 280.881C215.039 274.659 212.746 269.312 208.279 264.919C203.818 260.46 198.47 258.199 192.309 258.199C186.016 258.199 180.594 260.452 176.125 264.919C171.653 269.317 169.43 274.672 169.502 280.899C169.43 287.193 171.65 292.618 176.12 297.088Z" fill="black" stroke="black" stroke-width="3"/>
</svg>
