<svg width="397" height="397" viewBox="0 0 397 397" fill="none" xmlns="http://www.w3.org/2000/svg">
<path d="M203.8 163.8C184.05 163.8 166.783 172.42 154.954 186.847C155.84 165.666 160.501 149.061 168.059 137.532C176.36 124.869 188.215 118.2 203 118.2C213.129 118.2 221.063 121.372 227.001 126.559C232.973 131.776 237.106 139.192 239.29 147.928L239.858 150.2H242.2H266.6H270.109L269.564 146.734C264.34 113.513 238.916 90.2 203 90.2C178.921 90.2 159.396 100.923 146.017 120.986C132.729 140.91 125.6 169.872 125.6 206.4C125.6 244.718 135.118 269.748 149.392 285.268C163.684 300.809 182.357 306.392 199.764 306.6C243 307.122 271.2 274.4 271.2 234.8C271.2 193.624 240.637 163.8 203.8 163.8ZM198.4 393.8C306.357 393.8 393.8 306.357 393.8 198.4C393.8 90.4431 306.357 3 198.4 3C90.4431 3 3 90.4431 3 198.4C3 306.357 90.4431 393.8 198.4 393.8ZM198.4 364.6C106.459 364.6 32.2 290.145 32.2 198.4C32.2 106.457 106.457 32.2 198.4 32.2C290.343 32.2 364.6 106.457 364.6 198.4C364.6 290.145 290.341 364.6 198.4 364.6ZM199.8 278.6C175.966 278.6 158.306 258.263 158.4 235.212C158.494 212.207 177.005 191.8 200.6 191.8C223.849 191.8 241.2 210.856 241.2 234.8C241.2 259.314 223.078 278.6 199.8 278.6Z" fill="black" stroke="black" stroke-width="6"/>
</svg>
