<svg width="397" height="397" viewBox="0 0 397 397" fill="none" xmlns="http://www.w3.org/2000/svg">
<path d="M271 246.377C270.813 222.172 256.351 200.917 236.373 193.504C252.957 185.753 263.216 167.714 263.4 147.628L263.4 147.604L263.4 147.581C263.187 114.4 235.297 90.2 198.4 90.2C161.137 90.2 133.2 114.376 133.4 147.596C133.223 167.723 143.46 185.761 160.306 193.507C140.061 200.919 125.621 222.166 125.8 246.402C125.7 263.973 133.197 279.111 146.126 289.8C159.022 300.461 177.188 306.6 198.4 306.6C240.41 306.6 270.787 281.86 271 246.418L271 246.397L271 246.377ZM156.2 245.227L156.2 245.201L156.2 245.174C156.018 224.137 173.342 208.6 198.4 208.6C223.013 208.6 240.403 224.106 240.6 245.199C240.501 255.34 236.498 263.569 229.42 269.322C222.277 275.128 211.757 278.6 198.4 278.6C184.831 278.6 174.216 275.122 167.08 269.322C160.012 263.577 156.108 255.362 156.2 245.227ZM163.4 149.228L163.4 149.2L163.4 149.171C163.307 139.552 166.753 131.801 172.71 126.427C178.699 121.023 187.481 117.8 198.4 117.8C209.104 117.8 217.791 121.015 223.79 126.427C229.757 131.811 233.301 139.577 233.4 149.201C233.3 159.009 229.616 166.989 223.55 172.536C217.457 178.109 208.764 181.4 198.4 181.4C187.82 181.4 179.033 178.099 172.95 172.536C166.894 166.998 163.307 159.033 163.4 149.228ZM198.4 393.8C306.357 393.8 393.8 306.357 393.8 198.4C393.8 90.4431 306.357 3 198.4 3C90.4431 3 3 90.4431 3 198.4C3 306.357 90.4431 393.8 198.4 393.8ZM198.4 364.6C106.459 364.6 32.2 290.145 32.2 198.4C32.2 106.457 106.457 32.2 198.4 32.2C290.343 32.2 364.6 106.457 364.6 198.4C364.6 290.145 290.341 364.6 198.4 364.6Z" fill="black" stroke="black" stroke-width="6"/>
</svg>
