<svg width="397" height="397" viewBox="0 0 397 397" fill="none" xmlns="http://www.w3.org/2000/svg">
<path d="M198.8 164C186.522 164 174.502 167.693 165.665 173.203L171.864 121.2H254.8H257.8V118.2V96.2002V93.2002H254.8H148.4H145.746L145.422 95.8339L133.022 196.634L132.655 199.618L135.641 199.979L158.841 202.779L160 202.919L160.949 202.238C168.866 196.556 182.725 192.304 194.776 192.4H194.777C219.152 192.587 237 210.97 237 236.2C237 260.974 219.815 278.8 196.4 278.8C176.636 278.8 161.498 266.18 159.784 249.494L159.508 246.8H156.8H132.8H129.652L129.803 249.944C131.395 283.052 159.927 306.8 196.4 306.8C237.074 306.8 267 276.639 267 235.8C267 194.597 238.206 164 198.8 164ZM198.4 394C306.357 394 393.8 306.557 393.8 198.6C393.8 90.6433 306.357 3.2002 198.4 3.2002C90.4431 3.2002 3 90.6433 3 198.6C3 306.557 90.4431 394 198.4 394ZM198.4 364.8C106.459 364.8 32.2 290.346 32.2 198.6C32.2 106.657 106.457 32.4002 198.4 32.4002C290.343 32.4002 364.6 106.657 364.6 198.6C364.6 290.346 290.341 364.8 198.4 364.8Z" fill="black" stroke="black" stroke-width="6"/>
</svg>
