<svg width="397" height="397" viewBox="0 0 397 397" fill="none" xmlns="http://www.w3.org/2000/svg">
<path d="M130.8 300.8V303.8H133.8H263H266V300.8V278.8V275.8H263H173.216L215.991 230.049L215.993 230.047C251.172 192.37 262.4 173.991 262.4 150C262.4 116.572 235.28 90.2 197.8 90.2C160.43 90.2 131.6 115.762 131.6 153.6V156.6H134.6H158.2H161.2V153.6C161.2 142.608 164.749 133.713 170.842 127.576C176.93 121.442 185.819 117.8 197 117.8C207.501 117.8 216.566 121.015 222.958 126.565C229.31 132.081 233.2 140.047 233.2 150C233.2 167.534 223.071 180.674 199.187 206.775L199.185 206.777L131.585 280.777L130.8 281.636V282.8V300.8ZM198.4 393.8C306.357 393.8 393.8 306.357 393.8 198.4C393.8 90.4431 306.357 3 198.4 3C90.4431 3 3 90.4431 3 198.4C3 306.357 90.4431 393.8 198.4 393.8ZM198.4 364.6C106.459 364.6 32.2 290.145 32.2 198.4C32.2 106.457 106.457 32.2 198.4 32.2C290.343 32.2 364.6 106.457 364.6 198.4C364.6 290.145 290.341 364.6 198.4 364.6Z" fill="black" stroke="black" stroke-width="6"/>
</svg>
