<svg width="397" height="397" viewBox="0 0 397 397" fill="none" xmlns="http://www.w3.org/2000/svg">
<path d="M218.8 96V93H215.8H191H190.095L189.34 93.5008L138.14 127.501L136.8 128.391V130V155.2V160.793L141.459 157.699L188 126.796V300.8V303.8H191H215.8H218.8V300.8V96ZM198.4 393.8C306.357 393.8 393.8 306.357 393.8 198.4C393.8 90.4431 306.357 3 198.4 3C90.4431 3 3 90.4431 3 198.4C3 306.357 90.4431 393.8 198.4 393.8ZM198.4 364.6C106.459 364.6 32.2 290.145 32.2 198.4C32.2 106.457 106.457 32.2 198.4 32.2C290.343 32.2 364.6 106.457 364.6 198.4C364.6 290.145 290.341 364.6 198.4 364.6Z" fill="black" stroke="black" stroke-width="6"/>
</svg>
