<svg width="193" height="62" viewBox="0 0 193 62" fill="none" xmlns="http://www.w3.org/2000/svg">
<path d="M181.977 37.6797C181.977 50.9345 171.231 61.6797 157.977 61.6797L100.355 61.6797L100.355 0.128906L157.977 0.128906C171.231 0.128906 181.977 10.8741 181.977 24.1289V37.6797Z" fill="#ED444E"/>
<path d="M185.992 48.2983C185.992 50.5153 184.195 52.3125 181.978 52.3125V9.94059C184.195 9.94059 185.992 11.7378 185.992 13.9548V48.2983Z" fill="#D9D9D9"/>
<path d="M192.682 32.6886C192.682 36.3836 189.686 39.3789 185.991 39.3789V22.8762C189.686 22.8762 192.682 25.8715 192.682 29.5665V32.6886Z" fill="#D9D9D9"/>
<path d="M6.69141 48.2983C6.69141 50.5153 8.48862 52.3125 10.7056 52.3125L10.7056 9.94059C8.48862 9.94059 6.69141 11.7378 6.69141 13.9548L6.69141 48.2983Z" fill="#D9D9D9"/>
<path d="M0 32.6886C0 36.3836 2.99535 39.3789 6.6903 39.3789L6.6903 22.8762C2.99535 22.8762 0 25.8715 0 29.5665L0 32.6886Z" fill="#D9D9D9"/>
<path d="M100.355 61.6797L34.7054 61.6797C21.4506 61.6797 10.7054 50.9345 10.7054 37.6797V24.1289C10.7054 10.8741 21.4506 0.128906 34.7054 0.128906L100.355 0.128906L100.355 61.6797Z" fill="#3F66C3"/>
</svg>
