<svg width="356" height="524" viewBox="0 0 356 524" fill="none" xmlns="http://www.w3.org/2000/svg">
<path d="M83.5575 39.5035L82.6237 34.2135C80.8941 24.4158 88.4309 15.432 98.3801 15.432L247.005 15.432C257.238 15.432 264.841 24.9058 262.625 34.8962L261.837 38.45C260.596 44.0467 262.444 49.8797 266.681 53.7408L317.471 100.02C323.194 105.236 324.362 113.801 320.243 120.358L222.237 276.382C218.921 281.66 218.973 288.384 222.369 293.61L318.351 441.337C323.277 448.918 320.947 459.073 313.209 463.748L275.39 486.598C271.982 488.657 269.795 492.252 269.533 496.225C269.11 502.629 263.792 507.607 257.374 507.607L89.1267 507.607C83.1042 507.607 78.222 502.725 78.2219 496.703C78.2218 492.531 75.8419 488.725 72.0914 486.899L37.3651 469.988C30.6891 466.737 27.1271 459.321 28.7635 452.078L83.5166 209.722C84.4469 205.605 83.7122 201.286 81.4725 197.708L32.5833 119.596C28.6951 113.383 29.5247 105.323 34.5969 100.033L79.3501 53.3584C82.8817 49.6752 84.4446 44.5285 83.5575 39.5035Z" fill="#ED444E"/>
<path d="M263.48 14.9261H82.5574C80.6654 14.9261 79.2458 16.6562 79.6152 18.5119L81.3069 27.0101H264.425L266.4 18.6133C266.844 16.7301 265.415 14.9261 263.48 14.9261Z" fill="#D9D9D9"/>
<path d="M270.112 496.153H78.1904V510.923C78.1904 512.58 79.5336 513.923 81.1904 513.923H265.92C267.484 513.923 268.786 512.722 268.911 511.163L270.112 496.153Z" fill="#D9D9D9"/>
</svg>
