<svg width="57" height="57" viewBox="0 0 57 57" fill="none" xmlns="http://www.w3.org/2000/svg">
<path d="M28.3244 54.6489C42.863 54.6489 54.6489 42.863 54.6489 28.3244C54.6489 13.7858 42.863 2 28.3244 2C13.7858 2 2 13.7858 2 28.3244C2 42.863 13.7858 54.6489 28.3244 54.6489Z" stroke="#010202" stroke-width="4" stroke-miterlimit="10"/>
<path d="M2 28.3242H54.6489" stroke="#010202" stroke-width="4" stroke-miterlimit="10"/>
<path d="M28.3249 54.6489C35.8345 54.6489 41.9222 42.863 41.9222 28.3244C41.9222 13.7858 35.8345 2 28.3249 2C20.8153 2 14.7275 13.7858 14.7275 28.3244C14.7275 42.863 20.8153 54.6489 28.3249 54.6489Z" stroke="#010202" stroke-width="4" stroke-miterlimit="10"/>
<path d="M5.91602 15.5977H51.4943" stroke="#010202" stroke-width="4" stroke-miterlimit="10"/>
<path d="M5.91602 41.0508H51.4943" stroke="#010202" stroke-width="4" stroke-miterlimit="10"/>
</svg>
