<svg width="786" height="198" viewBox="0 0 786 198" fill="none" xmlns="http://www.w3.org/2000/svg">
<rect x="0.226562" y="0.164062" width="785" height="196.967" rx="40.1583" fill="black"/>
<path d="M55.6836 46.3083V151.485H68.1001V46.3083H55.6836Z" fill="#F4F4F4"/>
<path d="M72.875 46.3083V151.485H78.6057V46.3083H72.875Z" fill="#F4F4F4"/>
<path d="M89.1133 46.3083V151.485H94.5882V46.3083H89.1133Z" fill="#F4F4F4"/>
<path d="M116.809 46.3083V151.485H127.758V46.3083H116.809Z" fill="#F4F4F4"/>
<path d="M143.672 46.3117V151.488H149.147V46.3117H143.672Z" fill="#F4F4F4"/>
<path d="M165.57 98.1703V151.488H171.045V98.1703H165.57Z" fill="#F4F4F4"/>
<path d="M176.52 98.1703V151.488H181.994V98.1703H176.52Z" fill="#F4F4F4"/>
<path d="M205.262 98.1703V151.488H210.737V98.1703H205.262Z" fill="#F4F4F4"/>
<path d="M216.211 98.1703V151.488H221.686V98.1703H216.211Z" fill="#F4F4F4"/>
<path d="M238.113 98.1703V151.488H249.063V98.1703H238.113Z" fill="#F4F4F4"/>
<path d="M260.012 98.1703V151.488H265.487V98.1703H260.012Z" fill="#F4F4F4"/>
<path d="M281.91 98.1703V151.488H287.385V98.1703H281.91Z" fill="#F4F4F4"/>
<path d="M298.336 98.1703V151.488H309.286V98.1703H298.336Z" fill="#F4F4F4"/>
<path d="M314.762 98.1703V151.488H331.186V98.1703H314.762Z" fill="#F4F4F4"/>
<path d="M347.613 98.1703V151.488H353.088V98.1703H347.613Z" fill="#F4F4F4"/>
<path d="M364.035 98.1703V151.488H369.51V98.1703H364.035Z" fill="#F4F4F4"/>
<path d="M385.938 98.1703V151.488H391.412V98.1703H385.938Z" fill="#F4F4F4"/>
<path d="M398.254 98.1703V151.488H414.679V98.1703H398.254Z" fill="#F4F4F4"/>
<path d="M420.156 98.1703V151.488H425.631V98.1703H420.156Z" fill="#F4F4F4"/>
<path d="M431.105 98.1703V151.488H436.58V98.1703H431.105Z" fill="#F4F4F4"/>
<path d="M453 98.1703V151.488H463.95V98.1703H453Z" fill="#F4F4F4"/>
<path d="M480.379 98.1703V151.488H491.329V98.1703H480.379Z" fill="#F4F4F4"/>
<path d="M496.801 98.1703V151.488H513.226V98.1703H496.801Z" fill="#F4F4F4"/>
<path d="M518.703 98.1703V151.488H524.178V98.1703H518.703Z" fill="#F4F4F4"/>
<path d="M540.602 98.1703V151.488H551.551V98.1703H540.602Z" fill="#F4F4F4"/>
<path d="M567.023 98.1703V151.488H572.498V98.1703H567.023Z" fill="#F4F4F4"/>
<path d="M577.969 98.1703V151.488H583.444V98.1703H577.969Z" fill="#F4F4F4"/>
<path d="M601.238 98.1703V151.488H606.713V98.1703H601.238Z" fill="#F4F4F4"/>
<path d="M612.191 98.1703V151.488H628.616V98.1703H612.191Z" fill="#F4F4F4"/>
<path d="M647.543 46.0602V151.237H656.148V46.0602H647.543Z" fill="#F4F4F4"/>
<path d="M661.465 46.3117V151.488H672.415V46.3117H661.465Z" fill="#F4F4F4"/>
<path d="M696.305 46.0602V151.237H704.91V46.0602H696.305Z" fill="#F4F4F4"/>
<path d="M710.738 46.3117V151.488H716.213V46.3117H710.738Z" fill="#F4F4F4"/>
<path d="M721.688 46.3117V151.488H732.637V46.3117H721.688Z" fill="#F4F4F4"/>
<path d="M178.681 65.1848H195.142C196.121 65.1848 196.896 65.0828 197.467 64.8788C198.079 64.6748 198.548 64.43 198.875 64.1445C199.201 63.8181 199.425 63.4509 199.548 63.043C199.67 62.635 199.731 62.2067 199.731 61.7579V61.6967C199.731 61.2888 199.67 60.9012 199.548 60.5341C199.425 60.1669 199.201 59.8405 198.875 59.555C198.548 59.2286 198.079 58.9838 197.467 58.8206C196.896 58.6166 196.121 58.5147 195.142 58.5147H178.681V65.1848ZM208.543 69.5907C209.971 69.7539 211.338 70.0395 212.643 70.4474C213.989 70.8554 215.152 71.4673 216.131 72.2832C217.151 73.0584 217.967 74.0782 218.579 75.3429C219.191 76.5668 219.497 78.0762 219.497 79.8712V88.2548C219.497 89.1523 219.558 89.805 219.68 90.213C219.803 90.5801 219.966 90.9065 220.17 91.1921V91.498H200.955C200.874 91.3757 200.792 91.1105 200.71 90.7025C200.629 90.2946 200.588 89.6826 200.588 88.8667V85.0115C200.588 83.5429 200.445 82.3598 200.16 81.4623C199.874 80.524 199.405 79.8101 198.752 79.3205C198.099 78.7902 197.222 78.4434 196.121 78.2802C195.019 78.0762 193.653 77.9742 192.021 77.9742H178.681V91.498H160.017V45.97H200.16C204.239 45.97 207.523 46.3371 210.012 47.0714C212.5 47.765 214.418 48.7033 215.764 49.8864C217.11 51.0286 217.987 52.3545 218.395 53.8639C218.844 55.3734 219.068 56.944 219.068 58.5759V58.8818C219.068 60.5952 218.742 62.0843 218.089 63.349C217.477 64.5728 216.662 65.6131 215.642 66.4698C214.622 67.3265 213.479 67.9997 212.215 68.4892C210.991 68.9788 209.767 69.3459 208.543 69.5907ZM275.572 45.97V57.5968H246.688V62.4922H274.654V74.425H246.688V79.7489H276V91.498H227.963V45.97H275.572ZM339.085 59.7385H320.482V45.97H376.29V59.7385H357.687V91.498H339.085V59.7385ZM402.659 65.1848H419.12C420.099 65.1848 420.874 65.0828 421.445 64.8788C422.057 64.6748 422.527 64.43 422.853 64.1445C423.179 63.8181 423.404 63.4509 423.526 63.043C423.648 62.635 423.71 62.2067 423.71 61.7579V61.6967C423.71 61.2888 423.648 60.9012 423.526 60.5341C423.404 60.1669 423.179 59.8405 422.853 59.555C422.527 59.2286 422.057 58.9838 421.445 58.8206C420.874 58.6166 420.099 58.5147 419.12 58.5147H402.659V65.1848ZM432.522 69.5907C433.949 69.7539 435.316 70.0395 436.622 70.4474C437.968 70.8554 439.13 71.4673 440.11 72.2832C441.129 73.0584 441.945 74.0782 442.557 75.3429C443.169 76.5668 443.475 78.0762 443.475 79.8712V88.2548C443.475 89.1523 443.536 89.805 443.659 90.213C443.781 90.5801 443.944 90.9065 444.148 91.1921V91.498H424.934C424.852 91.3757 424.77 91.1105 424.689 90.7025C424.607 90.2946 424.566 89.6826 424.566 88.8667V85.0115C424.566 83.5429 424.424 82.3598 424.138 81.4623C423.852 80.524 423.383 79.8101 422.731 79.3205C422.078 78.7902 421.201 78.4434 420.099 78.2802C418.998 78.0762 417.631 77.9742 415.999 77.9742H402.659V91.498H383.995V45.97H424.138C428.218 45.97 431.502 46.3371 433.99 47.0714C436.479 47.765 438.396 48.7033 439.742 49.8864C441.089 51.0286 441.966 52.3545 442.374 53.8639C442.822 55.3734 443.047 56.944 443.047 58.5759V58.8818C443.047 60.5952 442.72 62.0843 442.068 63.349C441.456 64.5728 440.64 65.6131 439.62 66.4698C438.6 67.3265 437.458 67.9997 436.193 68.4892C434.969 68.9788 433.745 69.3459 432.522 69.5907ZM479.54 59.4326L473.237 73.2623H485.782L479.54 59.4326ZM490.983 84.7055H468.035L464.915 91.498H446.25L467.852 45.97H492.023L513.869 91.498H494.104L490.983 84.7055ZM543.385 92.2324C539.102 92.2324 535.41 91.9876 532.309 91.498C529.25 91.0085 526.679 90.3558 524.599 89.5398C522.518 88.7239 520.846 87.7856 519.581 86.7249C518.316 85.6643 517.358 84.5424 516.705 83.3593C516.052 82.1762 515.624 80.9931 515.42 79.8101C515.216 78.5862 515.114 77.4439 515.114 76.3832V76.1996H535.185C535.226 76.6076 535.328 77.0767 535.491 77.6071C535.655 78.1374 536.022 78.6474 536.593 79.1369C537.164 79.6265 538 80.0548 539.102 80.422C540.244 80.7484 541.794 80.9115 543.753 80.9115H544.12C545.996 80.9115 547.506 80.8096 548.648 80.6056C549.79 80.4016 550.667 80.1364 551.279 79.8101C551.891 79.4837 552.279 79.1165 552.442 78.7086C552.646 78.3006 552.748 77.8927 552.748 77.4847C552.748 77.0359 552.666 76.6076 552.503 76.1996C552.34 75.7917 551.973 75.4449 551.402 75.1593C550.831 74.8738 549.994 74.6494 548.893 74.4862C547.832 74.2822 546.384 74.1598 544.548 74.119L538 73.9967C533.513 73.9151 529.841 73.4867 526.985 72.7116C524.13 71.8957 521.866 70.835 520.193 69.5295C518.561 68.2241 517.419 66.735 516.766 65.0624C516.154 63.3898 515.848 61.6151 515.848 59.7385V59.249C515.848 57.1684 516.236 55.2714 517.011 53.558C517.827 51.8445 519.234 50.3759 521.233 49.152C523.232 47.9282 525.904 46.9899 529.25 46.3371C532.595 45.6436 536.817 45.2968 541.917 45.2968H544.793C550.504 45.2968 555.114 45.7456 558.623 46.6431C562.131 47.4998 564.844 48.6421 566.761 50.0699C568.679 51.457 569.943 53.048 570.555 54.843C571.208 56.5973 571.534 58.3515 571.534 60.1057V60.2281H551.891C551.81 59.8201 551.646 59.3918 551.402 58.943C551.198 58.4535 550.79 58.0047 550.178 57.5968C549.607 57.1888 548.77 56.8624 547.669 56.6177C546.608 56.3729 545.221 56.2505 543.508 56.2505H543.079C541.325 56.2505 539.918 56.3321 538.857 56.4953C537.796 56.6177 536.98 56.8216 536.409 57.1072C535.838 57.3928 535.451 57.7191 535.247 58.0863C535.083 58.4535 535.002 58.8614 535.002 59.3102C535.002 59.7589 535.104 60.1669 535.308 60.5341C535.512 60.9012 535.879 61.2276 536.409 61.5132C536.98 61.7579 537.776 61.9619 538.796 62.1251C539.816 62.2475 541.142 62.3291 542.773 62.3699L549.505 62.4922C554.155 62.5738 557.949 62.9614 560.887 63.6549C563.824 64.3077 566.129 65.2256 567.802 66.4086C569.474 67.5917 570.617 69.0196 571.228 70.6922C571.881 72.3648 572.208 74.2618 572.208 76.3832V77.1175C572.208 79.0757 571.881 80.9727 571.228 82.8085C570.617 84.6036 569.331 86.215 567.373 87.6428C565.415 89.0299 562.641 90.1518 559.051 91.0085C555.461 91.8244 550.708 92.2324 544.793 92.2324H543.385ZM580.006 45.97H598.67V61.5132H620.455V45.97H639.058V91.498H620.455V74.8534H598.67V91.498H580.006V45.97Z" fill="#F4F4F4"/>
<path d="M292.589 76.5981L293.459 67.0366L285.527 72.578L281.181 64.9722L289.873 60.952L281.181 56.9318L285.527 49.3261L293.459 54.8674L292.589 45.3059H301.282L300.412 54.8674L308.344 49.3261L312.69 56.9318L303.998 60.952L312.69 64.9722L308.344 72.578L300.412 67.0366L301.282 76.5981H292.589Z" fill="#F4F4F4"/>
<line x1="0.226562" y1="45.9482" x2="785.229" y2="45.9482" stroke="#20BD1C" stroke-width="0.956151"/>
<line x1="0.226562" y1="151.935" x2="785.227" y2="151.935" stroke="#20BD1C" stroke-width="0.956151"/>
<line x1="55.6851" y1="0.163086" x2="55.6851" y2="197.133" stroke="#20BD1C" stroke-width="0.956151"/>
<line x1="733.107" y1="0.163086" x2="733.107" y2="197.133" stroke="#20BD1C" stroke-width="0.956151"/>
<line x1="279.474" y1="0.163086" x2="279.474" y2="197.131" stroke="#20BD1C" stroke-width="0.956151"/>
<line x1="314.728" y1="0.163086" x2="314.728" y2="197.131" stroke="#20BD1C" stroke-width="0.956151"/>
</svg>
