<svg width="455" height="405" viewBox="0 0 455 405" fill="none" xmlns="http://www.w3.org/2000/svg">
<path d="M446.784 95.0574C447.986 96.1608 447.984 97.9926 446.784 99.0977C439.23 106.054 412.277 128.491 379.465 127.894C346.504 127.295 318.266 103.603 310.495 96.4678C309.294 95.3644 309.296 93.5326 310.496 92.4275C318.05 85.4714 345.003 63.0347 377.815 63.6309C410.776 64.2298 439.014 87.9224 446.784 95.0574Z" fill="#2AA125"/>
<path d="M359.888 147.9C348.923 137.344 334.464 131.382 318.022 129.705C294.23 127.265 276.091 109.148 274.067 85.774C272.602 68.8283 266.304 53.9523 254.791 42.8515C236.679 25.4073 209.004 20.5365 178.649 26.7224C175.706 27.3222 175.506 31.6159 178.203 32.9396C190.627 39.0384 201.956 49.4112 209.82 63.1658C227.593 94.1068 221.097 130.352 195.301 144.105C183.31 150.5 169.258 150.925 155.867 146.404C153.355 145.555 150.877 147.907 151.878 150.363C155.122 158.319 159.61 169.375 158.853 174.426C154.496 202.733 121.794 221.188 85.8051 215.648C65.7662 212.564 43.0597 194.607 31.3669 179.564C29.7027 177.423 26.0966 178.094 25.6654 180.771C21.2887 207.939 26.904 232.374 43.8581 248.674C54.8234 259.229 69.2847 265.18 85.7242 266.869C109.516 269.309 127.655 287.426 129.68 310.8C131.145 327.745 137.443 342.621 148.956 353.722C175.872 379.606 223.871 377.798 270.435 353.199C273.044 351.821 272.177 347.891 269.253 347.5C268.334 347.377 267.413 347.245 266.489 347.103C219.261 339.833 183.721 299.181 188.078 270.874C191.699 247.348 221.938 242.57 258.977 242.901C261.051 242.919 262.541 240.886 261.972 238.892C253.733 210.006 261.268 182.007 282.603 170.608C309.271 156.379 347.385 173.569 367.744 208.99C369.314 211.721 370.749 214.52 372.045 217.376C373.284 220.107 377.413 219.842 377.915 216.886C382.602 189.292 377.023 164.406 359.888 147.9Z" fill="#E6BA4E"/>
</svg>
