<svg width="613" height="665" viewBox="0 0 613 665" fill="none" xmlns="http://www.w3.org/2000/svg">
<path d="M421.165 0.0156288C425.093 0.0156288 428.658 2.31559 430.276 5.89486L527.431 220.714C531.866 230.523 546.542 227.358 546.542 216.593V10.0156C546.542 4.49278 551.019 0.0156288 556.542 0.0156288H602.485C608.008 0.0156288 612.485 4.49278 612.485 10.0156L612.485 654.016C612.485 659.538 608.008 664.016 602.485 664.016L341.809 664.016C335.845 664.016 331.212 658.829 331.805 652.895C337.683 594.161 338.053 534.999 332.905 476.18C324.716 383.363 320.656 336.955 297.299 298.506C236.555 198.583 127.885 222.178 48.0557 113.726C25.9083 83.1067 9.90625 48.5448 0.885649 11.9481C-0.627112 5.81084 4.11619 0.0156288 10.4372 0.0156288L421.165 0.0156288Z" fill="#E584A7"/>
</svg>
