<svg width="555" height="433" viewBox="0 0 555 433" fill="none" xmlns="http://www.w3.org/2000/svg">
<line x1="39.9766" y1="0.5" x2="39.9766" y2="432.09" stroke="#FF0000" stroke-width="1.5"/>
<line x1="80.2734" y1="0.5" x2="80.2734" y2="432.09" stroke="#FF0000" stroke-width="1.5"/>
<line x1="476.092" y1="0.5" x2="476.092" y2="432.09" stroke="#FF0000" stroke-width="1.5"/>
<line x1="518.764" y1="0.5" x2="518.764" y2="432.09" stroke="#FF0000" stroke-width="1.5"/>
<line x1="1.5332" y1="24.7695" x2="553.502" y2="24.7696" stroke="#FF0000" stroke-width="1.5"/>
<line x1="6.55671e-08" y1="86.2998" x2="555" y2="86.2999" stroke="#FF0000" stroke-width="1.5"/>
<line x1="6.55671e-08" y1="138.595" x2="555" y2="138.595" stroke="#FF0000" stroke-width="1.5"/>
<line x1="6.55671e-08" y1="179.89" x2="555" y2="179.89" stroke="#FF0000" stroke-width="1.5"/>
<rect x="1.5" y="2" width="552" height="428.59" rx="28.5" stroke="black" stroke-width="3"/>
<path d="M88.8365 168.155C88.8365 170.355 88.3049 172.243 87.2416 173.82C86.1782 175.36 84.6199 176.643 82.5666 177.67C80.5499 178.696 78.0749 179.448 75.1416 179.925C72.2449 180.401 68.9266 180.64 65.1866 180.64H63.8666C60.5299 180.64 57.3582 180.383 54.3516 179.87C51.3816 179.356 48.7782 178.531 46.5416 177.395C44.3049 176.221 42.5265 174.681 41.2065 172.775C39.8865 170.868 39.2266 168.521 39.2266 165.735V165.24H53.1415C53.1415 167.66 54.1499 169.346 56.1666 170.3C58.2199 171.253 61.2999 171.73 65.4066 171.73C68.7432 171.73 71.1999 171.363 72.7766 170.63C74.3532 169.86 75.1416 168.705 75.1416 167.165C75.1416 165.735 74.5366 164.726 73.3266 164.14C72.1533 163.516 70.3015 163.205 67.7715 163.205H56.7715V154.57H67.0016C67.9183 154.57 68.7799 154.533 69.5865 154.46C70.4299 154.35 71.1449 154.185 71.7316 153.965C72.3549 153.708 72.8316 153.378 73.1616 152.975C73.5282 152.535 73.7115 151.985 73.7115 151.325C73.7115 149.895 72.9966 148.868 71.5666 148.245C70.1366 147.585 67.6983 147.255 64.2516 147.255C62.7483 147.255 61.3549 147.346 60.0716 147.53C58.7883 147.676 57.6516 147.97 56.6616 148.41C55.7082 148.813 54.9382 149.381 54.3516 150.115C53.8016 150.811 53.5082 151.71 53.4716 152.81H39.5566V152.15C39.5566 149.656 40.1799 147.548 41.4266 145.825C42.7099 144.065 44.4332 142.653 46.5966 141.59C48.7966 140.49 51.3266 139.701 54.1866 139.225C57.0833 138.748 60.1632 138.51 63.4266 138.51H65.1866C72.2633 138.51 77.7266 139.408 81.5766 141.205C85.4633 142.965 87.4066 145.568 87.4066 149.015V149.4C87.4066 150.72 87.1866 151.875 86.7466 152.865C86.3432 153.818 85.7749 154.643 85.0416 155.34C84.3449 156 83.5199 156.568 82.5666 157.045C81.6499 157.485 80.6599 157.851 79.5966 158.145C80.6966 158.365 81.7965 158.713 82.8965 159.19C83.9965 159.666 84.9866 160.29 85.8666 161.06C86.7466 161.83 87.4616 162.765 88.0116 163.865C88.5616 164.928 88.8365 166.175 88.8365 167.605V168.155Z" fill="black"/>
<path d="M116.297 148.52L109.587 163.81H123.172L116.297 148.52ZM127.187 172.83H105.572L102.437 179.925H89.292L107.882 139.005H125.207L144.402 179.925H130.377L127.187 172.83Z" fill="black"/>
<path d="M147.747 139.005H183.662V148.74H160.892V179.925H147.747V139.005Z" fill="black"/>
<path d="M214.224 138.345C217.634 138.345 220.622 138.638 223.189 139.225C225.792 139.811 228.029 140.618 229.899 141.645C231.805 142.671 233.382 143.863 234.629 145.22C235.875 146.54 236.865 147.951 237.599 149.455C238.369 150.921 238.9 152.443 239.194 154.02C239.524 155.596 239.689 157.1 239.689 158.53V160.18C239.689 162.343 239.322 164.616 238.589 167C237.855 169.383 236.535 171.583 234.629 173.6C232.759 175.616 230.174 177.285 226.874 178.605C223.574 179.925 219.357 180.585 214.224 180.585H211.749C208.339 180.585 205.332 180.291 202.729 179.705C200.162 179.081 197.925 178.256 196.019 177.23C194.149 176.166 192.59 174.956 191.344 173.6C190.097 172.243 189.089 170.813 188.319 169.31C187.585 167.77 187.054 166.23 186.724 164.69C186.43 163.113 186.284 161.61 186.284 160.18V158.53C186.284 157.063 186.43 155.56 186.724 154.02C187.054 152.443 187.585 150.921 188.319 149.455C189.089 147.951 190.097 146.54 191.344 145.22C192.59 143.863 194.149 142.671 196.019 141.645C197.925 140.618 200.162 139.811 202.729 139.225C205.332 138.638 208.339 138.345 211.749 138.345H214.224ZM225.994 158.97C225.994 157.87 225.829 156.715 225.499 155.505C225.169 154.258 224.527 153.121 223.574 152.095C222.657 151.068 221.337 150.225 219.614 149.565C217.927 148.905 215.727 148.575 213.014 148.575C210.264 148.575 208.045 148.905 206.359 149.565C204.672 150.225 203.352 151.068 202.399 152.095C201.445 153.121 200.804 154.258 200.474 155.505C200.144 156.715 199.979 157.87 199.979 158.97V159.685C199.979 160.785 200.144 161.958 200.474 163.205C200.84 164.451 201.5 165.606 202.454 166.67C203.444 167.696 204.782 168.558 206.469 169.255C208.155 169.915 210.337 170.245 213.014 170.245C215.727 170.245 217.927 169.915 219.614 169.255C221.337 168.558 222.657 167.696 223.574 166.67C224.527 165.606 225.169 164.451 225.499 163.205C225.829 161.958 225.994 160.785 225.994 159.685V158.97Z" fill="black"/>
<path d="M278.082 148.74H262.297C262.297 154.35 262.132 159.098 261.802 162.985C261.472 166.835 260.922 169.841 260.152 172.005C259.712 173.141 259.162 174.186 258.502 175.14C257.878 176.093 257.053 176.936 256.027 177.67C255.037 178.366 253.808 178.916 252.342 179.32C250.875 179.723 249.097 179.925 247.007 179.925H242.607V169.255H243.267C244.77 169.255 245.888 168.961 246.622 168.375C247.392 167.751 247.978 167 248.382 166.12C248.675 165.423 248.913 164.58 249.097 163.59C249.28 162.563 249.408 161.078 249.482 159.135C249.592 157.191 249.665 154.625 249.702 151.435C249.738 148.245 249.757 144.101 249.757 139.005H291.227V179.925H278.082V148.74Z" fill="black"/>
<path d="M325.382 138.345C328.792 138.345 331.78 138.638 334.347 139.225C336.95 139.811 339.187 140.618 341.057 141.645C342.963 142.671 344.54 143.863 345.787 145.22C347.033 146.54 348.023 147.951 348.757 149.455C349.527 150.921 350.058 152.443 350.352 154.02C350.682 155.596 350.847 157.1 350.847 158.53V160.18C350.847 162.343 350.48 164.616 349.747 167C349.013 169.383 347.693 171.583 345.787 173.6C343.917 175.616 341.332 177.285 338.032 178.605C334.732 179.925 330.515 180.585 325.382 180.585H322.907C319.497 180.585 316.49 180.291 313.887 179.705C311.32 179.081 309.083 178.256 307.177 177.23C305.307 176.166 303.748 174.956 302.502 173.6C301.255 172.243 300.247 170.813 299.477 169.31C298.743 167.77 298.212 166.23 297.882 164.69C297.588 163.113 297.442 161.61 297.442 160.18V158.53C297.442 157.063 297.588 155.56 297.882 154.02C298.212 152.443 298.743 150.921 299.477 149.455C300.247 147.951 301.255 146.54 302.502 145.22C303.748 143.863 305.307 142.671 307.177 141.645C309.083 140.618 311.32 139.811 313.887 139.225C316.49 138.638 319.497 138.345 322.907 138.345H325.382ZM337.152 158.97C337.152 157.87 336.987 156.715 336.657 155.505C336.327 154.258 335.685 153.121 334.732 152.095C333.815 151.068 332.495 150.225 330.772 149.565C329.085 148.905 326.885 148.575 324.172 148.575C321.422 148.575 319.203 148.905 317.517 149.565C315.83 150.225 314.51 151.068 313.557 152.095C312.603 153.121 311.962 154.258 311.632 155.505C311.302 156.715 311.137 157.87 311.137 158.97V159.685C311.137 160.785 311.302 161.958 311.632 163.205C311.998 164.451 312.658 165.606 313.612 166.67C314.602 167.696 315.94 168.558 317.627 169.255C319.313 169.915 321.495 170.245 324.172 170.245C326.885 170.245 329.085 169.915 330.772 169.255C332.495 168.558 333.815 167.696 334.732 166.67C335.685 165.606 336.327 164.451 336.657 163.205C336.987 161.958 337.152 160.785 337.152 159.685V158.97Z" fill="black"/>
<path d="M357.065 139.005H389.13C392.063 139.005 394.483 139.28 396.39 139.83C398.333 140.38 399.873 141.113 401.01 142.03C402.146 142.91 402.935 143.936 403.375 145.11C403.851 146.246 404.09 147.42 404.09 148.63V149.125C404.09 150.445 403.833 151.6 403.32 152.59C402.806 153.58 402.146 154.405 401.34 155.065C400.57 155.725 399.726 156.238 398.81 156.605C397.93 156.971 397.105 157.21 396.335 157.32C397.435 157.503 398.571 157.815 399.745 158.255C400.918 158.658 401.981 159.263 402.935 160.07C403.925 160.876 404.713 161.885 405.3 163.095C405.923 164.305 406.235 165.753 406.235 167.44V167.99C406.235 169.53 405.96 171.015 405.41 172.445C404.896 173.875 403.998 175.158 402.715 176.295C401.431 177.395 399.69 178.275 397.49 178.935C395.29 179.595 392.54 179.925 389.24 179.925H357.065V139.005ZM370.21 148.08V154.68H386.16C387.81 154.68 388.928 154.368 389.515 153.745C390.138 153.121 390.45 152.351 390.45 151.435V151.325C390.45 150.371 390.138 149.601 389.515 149.015C388.928 148.391 387.81 148.08 386.16 148.08H370.21ZM370.21 163.15V170.41H387.205C388.195 170.41 389.001 170.3 389.625 170.08C390.248 169.86 390.743 169.585 391.11 169.255C391.476 168.888 391.715 168.485 391.825 168.045C391.971 167.605 392.045 167.165 392.045 166.725V166.505C392.045 166.065 391.971 165.643 391.825 165.24C391.715 164.8 391.476 164.433 391.11 164.14C390.743 163.846 390.248 163.608 389.625 163.425C389.001 163.241 388.195 163.15 387.205 163.15H370.21Z" fill="black"/>
<path d="M438.151 138.345C441.561 138.345 444.549 138.638 447.116 139.225C449.719 139.811 451.956 140.618 453.826 141.645C455.733 142.671 457.309 143.863 458.556 145.22C459.803 146.54 460.793 147.951 461.526 149.455C462.296 150.921 462.828 152.443 463.121 154.02C463.451 155.596 463.616 157.1 463.616 158.53V160.18C463.616 162.343 463.249 164.616 462.516 167C461.783 169.383 460.463 171.583 458.556 173.6C456.686 175.616 454.101 177.285 450.801 178.605C447.501 179.925 443.284 180.585 438.151 180.585H435.676C432.266 180.585 429.259 180.291 426.656 179.705C424.089 179.081 421.853 178.256 419.946 177.23C418.076 176.166 416.518 174.956 415.271 173.6C414.024 172.243 413.016 170.813 412.246 169.31C411.513 167.77 410.981 166.23 410.651 164.69C410.358 163.113 410.211 161.61 410.211 160.18V158.53C410.211 157.063 410.358 155.56 410.651 154.02C410.981 152.443 411.513 150.921 412.246 149.455C413.016 147.951 414.024 146.54 415.271 145.22C416.518 143.863 418.076 142.671 419.946 141.645C421.853 140.618 424.089 139.811 426.656 139.225C429.259 138.638 432.266 138.345 435.676 138.345H438.151ZM449.921 158.97C449.921 157.87 449.756 156.715 449.426 155.505C449.096 154.258 448.454 153.121 447.501 152.095C446.584 151.068 445.264 150.225 443.541 149.565C441.854 148.905 439.654 148.575 436.941 148.575C434.191 148.575 431.973 148.905 430.286 149.565C428.599 150.225 427.279 151.068 426.326 152.095C425.373 153.121 424.731 154.258 424.401 155.505C424.071 156.715 423.906 157.87 423.906 158.97V159.685C423.906 160.785 424.071 161.958 424.401 163.205C424.768 164.451 425.428 165.606 426.381 166.67C427.371 167.696 428.709 168.558 430.396 169.255C432.083 169.915 434.264 170.245 436.941 170.245C439.654 170.245 441.854 169.915 443.541 169.255C445.264 168.558 446.584 167.696 447.501 166.67C448.454 165.606 449.096 164.451 449.426 163.205C449.756 161.958 449.921 160.785 449.921 159.685V158.97Z" fill="black"/>
<path d="M482.924 161.17V179.925H469.834V139.005H482.924V155.34L500.909 139.005H516.859L496.124 157.595L518.014 179.925H501.184L482.924 161.17Z" fill="black"/>
<path d="M79.5234 25.0234V85.6641H86.7834V25.0234H79.5234Z" fill="black"/>
<path d="M89.5762 25.0234V85.6641H92.9269V25.0234H89.5762Z" fill="black"/>
<path d="M99.0684 25.0239V85.7178H102.27V25.0239H99.0684Z" fill="black"/>
<path d="M115.266 25.0239V85.7178H121.668V25.0239H115.266Z" fill="black"/>
<path d="M130.969 25.1157V85.8096H134.17V25.1157H130.969Z" fill="black"/>
<path d="M143.773 55.0685V85.8096H146.975V55.0685H143.773Z" fill="black"/>
<path d="M150.176 55.0685V85.8096H153.377V55.0685H150.176Z" fill="black"/>
<path d="M166.982 55.0685V85.8096H170.184V55.0685H166.982Z" fill="black"/>
<path d="M173.387 55.0685V85.8096H176.588V55.0685H173.387Z" fill="black"/>
<path d="M186.191 55.0685V85.8096H192.594V55.0685H186.191Z" fill="black"/>
<path d="M198.994 55.0685V85.8096H202.195V55.0685H198.994Z" fill="black"/>
<path d="M211.799 55.0685V85.8096H215V55.0685H211.799Z" fill="black"/>
<path d="M221.402 55.0685V85.8096H227.805V55.0685H221.402Z" fill="black"/>
<path d="M231.008 55.0685V85.8096H240.611V55.0685H231.008Z" fill="black"/>
<path d="M250.215 55.0685V85.8096H253.416V55.0685H250.215Z" fill="black"/>
<path d="M259.816 55.0685V85.8096H263.018V55.0685H259.816Z" fill="black"/>
<path d="M272.621 55.0685V85.8096H275.822V55.0685H272.621Z" fill="black"/>
<path d="M281.006 55.0685V85.8096H289.428V55.0685H281.006Z" fill="black"/>
<path d="M292.631 55.0685V85.8096H295.832V55.0685H292.631Z" fill="black"/>
<path d="M299.033 55.0685V85.8096H302.234V55.0685H299.033Z" fill="black"/>
<path d="M311.838 55.0685V85.8096H318.24V55.0685H311.838Z" fill="black"/>
<path d="M327.844 55.0685V85.8096H334.246V55.0685H327.844Z" fill="black"/>
<path d="M337.447 55.0685V85.8096H347.051V55.0685H337.447Z" fill="black"/>
<path d="M350.252 55.0685V85.8096H353.453V55.0685H350.252Z" fill="black"/>
<path d="M363.057 55.0685V85.8096H369.459V55.0685H363.057Z" fill="black"/>
<path d="M378.504 55.0685V85.8096H381.705V55.0685H378.504Z" fill="black"/>
<path d="M384.908 55.0685V85.8096H388.109V55.0685H384.908Z" fill="black"/>
<path d="M398.514 55.0685V85.8096H401.715V55.0685H398.514Z" fill="black"/>
<path d="M404.914 55.0685V85.8096H414.518V55.0685H404.914Z" fill="black"/>
<path d="M424.123 25.1157V85.8096H430.525V25.1157H424.123Z" fill="black"/>
<path d="M433.725 25.1157V85.8096H440.127V25.1157H433.725Z" fill="black"/>
<path d="M449.732 25.1157V85.8096H459.336V25.1157H449.732Z" fill="black"/>
<path d="M462.535 25.1157V85.8096H465.736V25.1157H462.535Z" fill="black"/>
<path d="M468.939 25.1157V85.8096H475.342V25.1157H468.939Z" fill="black"/>
<path d="M150.437 36.3405H159.928C160.492 36.3405 160.939 36.2817 161.269 36.1641C161.621 36.0465 161.892 35.9054 162.08 35.7407C162.268 35.5526 162.398 35.3409 162.468 35.1057C162.539 34.8705 162.574 34.6235 162.574 34.3648V34.3295C162.574 34.0943 162.539 33.8708 162.468 33.6591C162.398 33.4474 162.268 33.2593 162.08 33.0946C161.892 32.9064 161.621 32.7653 161.269 32.6712C160.939 32.5536 160.492 32.4948 159.928 32.4948H150.437V36.3405ZM167.655 38.8808C168.478 38.9749 169.266 39.1396 170.018 39.3748C170.795 39.61 171.465 39.9628 172.029 40.4332C172.618 40.8801 173.088 41.4682 173.441 42.1973C173.794 42.903 173.97 43.7732 173.97 44.8082V49.6418C173.97 50.1592 174.005 50.5356 174.076 50.7708C174.146 50.9825 174.24 51.1707 174.358 51.3353V51.5117H163.28C163.233 51.4412 163.186 51.2883 163.138 51.0531C163.091 50.8178 163.068 50.465 163.068 49.9946V47.7718C163.068 46.9251 162.986 46.243 162.821 45.7255C162.656 45.1845 162.386 44.7729 162.009 44.4906C161.633 44.1849 161.127 43.9849 160.492 43.8908C159.857 43.7732 159.069 43.7144 158.128 43.7144H150.437V51.5117H139.676V25.262H162.821C165.173 25.262 167.067 25.4737 168.501 25.8971C169.936 26.297 171.042 26.838 171.818 27.5201C172.594 28.1787 173.1 28.9431 173.335 29.8134C173.594 30.6837 173.723 31.5892 173.723 32.5301V32.7065C173.723 33.6944 173.535 34.5529 173.159 35.2821C172.806 35.9877 172.335 36.5875 171.747 37.0815C171.159 37.5754 170.501 37.9635 169.771 38.2458C169.066 38.528 168.36 38.7397 167.655 38.8808ZM206.301 25.262V31.9656H189.648V34.7881H205.771V41.6681H189.648V44.7376H206.548V51.5117H178.851V25.262H206.301ZM242.92 33.2004H232.194V25.262H264.371V33.2004H253.645V51.5117H242.92V33.2004ZM279.574 36.3405H289.065C289.629 36.3405 290.076 36.2817 290.406 36.1641C290.758 36.0465 291.029 35.9054 291.217 35.7407C291.405 35.5526 291.535 35.3409 291.605 35.1057C291.676 34.8705 291.711 34.6235 291.711 34.3648V34.3295C291.711 34.0943 291.676 33.8708 291.605 33.6591C291.535 33.4474 291.405 33.2593 291.217 33.0946C291.029 32.9064 290.758 32.7653 290.406 32.6712C290.076 32.5536 289.629 32.4948 289.065 32.4948H279.574V36.3405ZM296.792 38.8808C297.615 38.9749 298.403 39.1396 299.155 39.3748C299.932 39.61 300.602 39.9628 301.166 40.4332C301.755 40.8801 302.225 41.4682 302.578 42.1973C302.931 42.903 303.107 43.7732 303.107 44.8082V49.6418C303.107 50.1592 303.142 50.5356 303.213 50.7708C303.283 50.9825 303.377 51.1707 303.495 51.3353V51.5117H292.417C292.37 51.4412 292.323 51.2883 292.275 51.0531C292.228 50.8178 292.205 50.465 292.205 49.9946V47.7718C292.205 46.9251 292.123 46.243 291.958 45.7255C291.793 45.1845 291.523 44.7729 291.146 44.4906C290.77 44.1849 290.264 43.9849 289.629 43.8908C288.994 43.7732 288.206 43.7144 287.265 43.7144H279.574V51.5117H268.813V25.262H291.958C294.31 25.262 296.204 25.4737 297.638 25.8971C299.073 26.297 300.179 26.838 300.955 27.5201C301.731 28.1787 302.237 28.9431 302.472 29.8134C302.731 30.6837 302.86 31.5892 302.86 32.5301V32.7065C302.86 33.6944 302.672 34.5529 302.296 35.2821C301.943 35.9877 301.472 36.5875 300.884 37.0815C300.296 37.5754 299.638 37.9635 298.908 38.2458C298.203 38.528 297.497 38.7397 296.792 38.8808ZM323.9 33.024L320.266 40.9977H327.499L323.9 33.024ZM330.498 47.5954H317.267L315.468 51.5117H304.707L317.162 25.262H331.098L343.693 51.5117H332.297L330.498 47.5954ZM360.711 51.9351C358.241 51.9351 356.113 51.794 354.325 51.5117C352.561 51.2295 351.079 50.8531 349.88 50.3827C348.68 49.9123 347.716 49.3713 346.987 48.7597C346.257 48.1482 345.705 47.5014 345.328 46.8192C344.952 46.1371 344.705 45.455 344.587 44.7729C344.47 44.0673 344.411 43.4087 344.411 42.7971V42.6913H355.983C356.007 42.9265 356.066 43.197 356.16 43.5027C356.254 43.8085 356.466 44.1025 356.795 44.3848C357.124 44.667 357.606 44.914 358.241 45.1257C358.9 45.3139 359.794 45.408 360.923 45.408H361.135C362.217 45.408 363.087 45.3492 363.745 45.2316C364.404 45.1139 364.91 44.9611 365.263 44.7729C365.615 44.5847 365.839 44.373 365.933 44.1378C366.051 43.9026 366.109 43.6674 366.109 43.4322C366.109 43.1734 366.062 42.9265 365.968 42.6913C365.874 42.456 365.662 42.2561 365.333 42.0915C365.004 41.9268 364.522 41.7975 363.887 41.7034C363.275 41.5858 362.44 41.5152 361.382 41.4917L357.606 41.4211C355.019 41.3741 352.902 41.1271 351.256 40.6802C349.609 40.2098 348.304 39.5982 347.339 38.8455C346.399 38.0929 345.74 37.2343 345.364 36.27C345.011 35.3056 344.834 34.2824 344.834 33.2004V32.9182C344.834 31.7186 345.058 30.6249 345.505 29.637C345.975 28.6491 346.787 27.8023 347.939 27.0967C349.092 26.3911 350.632 25.8501 352.561 25.4737C354.49 25.0739 356.924 24.8739 359.864 24.8739H361.523C364.816 24.8739 367.474 25.1327 369.496 25.6501C371.519 26.1441 373.083 26.8027 374.189 27.6259C375.294 28.4256 376.024 29.343 376.376 30.3779C376.753 31.3893 376.941 32.4007 376.941 33.4121V33.4827H365.615C365.568 33.2475 365.474 33.0005 365.333 32.7418C365.216 32.4595 364.98 32.2008 364.627 31.9656C364.298 31.7304 363.816 31.5422 363.181 31.4011C362.569 31.2599 361.77 31.1894 360.782 31.1894H360.535C359.523 31.1894 358.712 31.2364 358.1 31.3305C357.489 31.4011 357.018 31.5187 356.689 31.6833C356.36 31.848 356.136 32.0362 356.019 32.2478C355.925 32.4595 355.878 32.6947 355.878 32.9535C355.878 33.2122 355.936 33.4474 356.054 33.6591C356.172 33.8708 356.383 34.059 356.689 34.2236C357.018 34.3648 357.477 34.4824 358.065 34.5764C358.653 34.647 359.418 34.694 360.358 34.7176L364.239 34.7881C366.921 34.8352 369.108 35.0586 370.802 35.4585C372.495 35.8348 373.824 36.3641 374.789 37.0462C375.753 37.7283 376.412 38.5515 376.764 39.5159C377.141 40.4803 377.329 41.574 377.329 42.7971V43.2205C377.329 44.3495 377.141 45.4432 376.764 46.5017C376.412 47.5366 375.671 48.4657 374.542 49.289C373.413 50.0887 371.813 50.7355 369.743 51.2295C367.673 51.6999 364.933 51.9351 361.523 51.9351H360.711ZM381.825 25.262H392.586V34.2236H405.146V25.262H415.872V51.5117H405.146V41.9151H392.586V51.5117H381.825V25.262Z" fill="black"/>
<path d="M216.111 42.9665L216.612 37.4537L212.039 40.6486L209.533 36.2634L214.545 33.9456L209.533 31.6277L212.039 27.2425L216.612 30.4374L216.111 24.9246H221.123L220.622 30.4374L225.195 27.2425L227.701 31.6277L222.689 33.9456L227.701 36.2634L225.195 40.6486L220.622 37.4537L221.123 42.9665H216.111Z" fill="black"/>
</svg>
