<svg width="374" height="56" viewBox="0 0 374 56" fill="none" xmlns="http://www.w3.org/2000/svg">
<path d="M0.792969 0.457458L0.792969 55.9082H7.59331L7.59331 0.457458H0.792969Z" fill="#F4F4F4"/>
<path d="M10.3125 0.457458L10.3125 55.9082H13.3727L13.3727 0.457458H10.3125Z" fill="#F4F4F4"/>
<path d="M19.1543 0.457458L19.1543 55.9082H22.2145L22.2145 0.457458H19.1543Z" fill="#F4F4F4"/>
<path d="M34.4531 0.457458V55.9082H40.5734V0.457458H34.4531Z" fill="#F4F4F4"/>
<path d="M49.2715 0.478429V55.9082H52.2881V0.478429H49.2715Z" fill="#F4F4F4"/>
<path d="M61.3379 0.478429V55.9082H64.3545V0.478429H61.3379Z" fill="#F4F4F4"/>
<path d="M67.375 0.478429V55.9082H70.3917V0.478429H67.375Z" fill="#F4F4F4"/>
<path d="M83.2109 0.478429V55.9082H86.2276V0.478429H83.2109Z" fill="#F4F4F4"/>
<path d="M89.2441 0.478429V55.9082H92.2608V0.478429H89.2441Z" fill="#F4F4F4"/>
<path d="M101.311 0.478429V55.9082H107.344V0.478429H101.311Z" fill="#F4F4F4"/>
<path d="M113.379 0.478429V55.9082H116.396V0.478429H113.379Z" fill="#F4F4F4"/>
<path d="M125.443 0.478429V55.9082H128.46V0.478429H125.443Z" fill="#F4F4F4"/>
<path d="M134.494 0.478429V55.9082H140.527V0.478429H134.494Z" fill="#F4F4F4"/>
<path d="M143.543 0.478429V55.9082H152.593V0.478429H143.543Z" fill="#F4F4F4"/>
<path d="M161.645 0.478429V55.9082H164.661V0.478429H161.645Z" fill="#F4F4F4"/>
<path d="M170.693 0.478429V55.9082H173.71V0.478429H170.693Z" fill="#F4F4F4"/>
<path d="M182.76 0.478429V55.9082H185.776V0.478429H182.76Z" fill="#F4F4F4"/>
<path d="M189.549 0.478429V55.9082H198.599V0.478429H189.549Z" fill="#F4F4F4"/>
<path d="M201.617 0.478429V55.9082H204.634V0.478429H201.617Z" fill="#F4F4F4"/>
<path d="M207.646 0.478429V55.9082H210.663V0.478429H207.646Z" fill="#F4F4F4"/>
<path d="M219.715 0.478429V55.9082H225.748V0.478429H219.715Z" fill="#F4F4F4"/>
<path d="M234.797 0.478429V55.9082H240.83V0.478429H234.797Z" fill="#F4F4F4"/>
<path d="M243.85 0.478429V55.9082H252.9V0.478429H243.85Z" fill="#F4F4F4"/>
<path d="M255.916 0.478429V55.9082H258.933V0.478429H255.916Z" fill="#F4F4F4"/>
<path d="M267.982 0.478429V55.9082H274.016V0.478429H267.982Z" fill="#F4F4F4"/>
<path d="M282.537 0.478429V55.9082H285.554V0.478429H282.537Z" fill="#F4F4F4"/>
<path d="M288.57 0.478429V55.9082H291.587V0.478429H288.57Z" fill="#F4F4F4"/>
<path d="M301.393 0.478429V55.9082H304.409V0.478429H301.393Z" fill="#F4F4F4"/>
<path d="M307.426 0.478429V55.9082H316.476V0.478429H307.426Z" fill="#F4F4F4"/>
<path d="M326.869 0.164068V55.9082H331.629V0.164068H326.869Z" fill="#F4F4F4"/>
<path d="M334.574 0.478429V55.9082H340.608V0.478429H334.574Z" fill="#F4F4F4"/>
<path d="M353.73 0.164068V55.9082H358.491V0.164068H353.73Z" fill="#F4F4F4"/>
<path d="M361.891 0.272558V55.9082H364.611V0.272558H361.891Z" fill="#F4F4F4"/>
<path d="M367.674 0.272558V55.9082H373.794V0.272558H367.674Z" fill="#F4F4F4"/>
</svg>
