<svg width="196" height="205" viewBox="0 0 196 205" fill="none" xmlns="http://www.w3.org/2000/svg">
<path d="M106.126 31.9575C123.754 31.9575 140.986 37.0156 155.642 46.4923C170.299 55.969 181.723 69.4385 188.469 85.1977C195.214 100.957 196.979 118.298 193.54 135.028C190.101 151.757 181.613 167.125 169.148 179.186C156.684 191.248 140.803 199.462 123.514 202.79C106.225 206.117 88.3049 204.409 72.0192 197.882C55.7335 191.354 41.8138 180.3 32.0205 166.117C22.2272 151.934 17 135.26 17 118.202C17 95.3286 26.3901 73.3919 43.1045 57.2179C59.819 41.0439 82.4886 31.9575 106.126 31.9575" fill="#FC5400"/>
<path d="M96.2322 34.0124L93.8487 34.2549C90.9771 34.547 89.843 31.1066 92.58 30.1899C96.8035 28.7755 101.226 27.4645 103.948 27.7403C106.671 28.016 108.146 28.0515 110.814 28.6836C113.361 29.287 114.839 29.9843 117.236 31.069C118.961 31.8494 118.315 34.6109 116.428 34.4597L109.311 33.8896C108.075 33.7905 106.933 34.5571 106.556 35.7392L106.248 36.7055C105.227 39.9113 100.646 39.7764 99.8149 36.5161C99.4054 34.9095 97.8816 33.8446 96.2322 34.0124Z" fill="#2AA125"/>
<path d="M147.443 192.886L125.728 184.263C122.299 182.901 122.385 178.018 125.86 176.778L159.133 164.904C161.666 164 162.603 160.903 160.995 158.746L136.429 125.796C134.063 122.623 137.25 118.309 140.978 119.638L177.356 132.597C180.102 133.576 182.939 131.382 182.683 128.477L180.035 98.4855C179.724 94.9599 183.808 92.7969 186.549 95.0354L192.241 99.6824C192.875 100.2 193.334 100.894 193.519 101.692C194.271 104.92 196.083 114.251 195.046 125.651C194.159 135.396 191.399 146.66 186.557 156.441C182.863 163.9 175.722 173.119 168.249 179.783C161.24 186.791 153.696 191.117 150.544 192.76C149.579 193.262 148.454 193.287 147.443 192.886Z" fill="#7DAB9A"/>
<path d="M43.3125 1.05492C43.4795 -0.351641 45.5205 -0.351641 45.6876 1.05492L47.0876 12.8547C48.8955 28.0915 60.9085 40.1045 76.1451 41.9124L87.945 43.3125C89.3517 43.4795 89.3517 45.5205 87.945 45.6876L76.1451 47.0876C60.9085 48.8955 48.8955 60.9085 47.0876 76.1451L45.6876 87.945C45.5205 89.3517 43.4795 89.3517 43.3125 87.945L41.9124 76.1451C40.1045 60.9085 28.0915 48.8955 12.8547 47.0876L1.05492 45.6876C-0.351641 45.5205 -0.351641 43.4795 1.05492 43.3125L12.8547 41.9124C28.0915 40.1045 40.1045 28.0915 41.9124 12.8547L43.3125 1.05492Z" fill="white"/>
</svg>
