<svg width="356" height="199" viewBox="0 0 356 199" fill="none" xmlns="http://www.w3.org/2000/svg">
<rect x="0.492188" y="1.12695" width="354.732" height="196.967" rx="40.1583" fill="black"/>
<path d="M100.769 70.669H120.059C121.207 70.669 122.115 70.5495 122.784 70.3105C123.502 70.0714 124.051 69.7846 124.434 69.4499C124.816 69.0675 125.079 68.6372 125.223 68.1591C125.366 67.681 125.438 67.1791 125.438 66.6532V66.5815C125.438 66.1034 125.366 65.6492 125.223 65.2189C125.079 64.7887 124.816 64.4062 124.434 64.0716C124.051 63.6891 123.502 63.4023 122.784 63.211C122.115 62.972 121.207 62.8525 120.059 62.8525H100.769V70.669ZM135.764 75.8322C137.437 76.0235 139.039 76.3581 140.569 76.8362C142.146 77.3143 143.509 78.0314 144.656 78.9875C145.852 79.8959 146.808 81.0911 147.525 82.5731C148.242 84.0073 148.6 85.7762 148.6 87.8797V97.7042C148.6 98.7559 148.672 99.5209 148.816 99.9989C148.959 100.429 149.15 100.812 149.389 101.146V101.505H126.872C126.776 101.361 126.681 101.051 126.585 100.573C126.489 100.095 126.442 99.3774 126.442 98.4213V93.9035C126.442 92.1824 126.274 90.796 125.94 89.7442C125.605 88.6447 125.055 87.808 124.29 87.2343C123.525 86.6128 122.498 86.2065 121.207 86.0152C119.916 85.7762 118.314 85.6567 116.402 85.6567H100.769V101.505H78.8971V48.1517H125.94C130.72 48.1517 134.569 48.5819 137.485 49.4425C140.401 50.2552 142.648 51.3548 144.226 52.7412C145.804 54.0798 146.832 55.6335 147.31 57.4024C147.836 59.1713 148.098 61.0119 148.098 62.9242V63.2827C148.098 65.2907 147.716 67.0356 146.951 68.5177C146.234 69.9519 145.278 71.171 144.083 72.1749C142.887 73.1789 141.549 73.9677 140.067 74.5414C138.633 75.1151 137.198 75.5454 135.764 75.8322ZM214.313 48.1517V61.7768H180.466V67.5137H213.238V81.4974H180.466V87.7363H214.815V101.505H158.522V48.1517H214.313Z" fill="#F4F4F4"/>
<path d="M43.5195 47.6199V151.84H54.5611V47.6199H43.5195Z" fill="#F4F4F4"/>
<path d="M59.7734 47.6199V151.84H67.1345V47.6199H59.7734Z" fill="#F4F4F4"/>
<path d="M87.6836 111.433V152.267H95.0446V111.433H87.6836Z" fill="#F4F4F4"/>
<path d="M279.688 47.9783V152.199H284.468V47.9783H279.688Z" fill="#F4F4F4"/>
<path d="M78.4844 111.433V152.267H82.1649V111.433H78.4844Z" fill="#F4F4F4"/>
<path d="M130.012 111.433V152.267H133.692V111.433H130.012Z" fill="#F4F4F4"/>
<path d="M104.246 111.433V152.267H107.927V111.433H104.246Z" fill="#F4F4F4"/>
<path d="M141.055 111.433V152.267H148.416V111.433H141.055Z" fill="#F4F4F4"/>
<path d="M170.496 111.433V152.267H185.218V111.433H170.496Z" fill="#F4F4F4"/>
<path d="M205.465 111.433V152.267H209.145V111.433H205.465Z" fill="#F4F4F4"/>
<path d="M268.215 47.9783V152.199H272.039V47.9783H268.215Z" fill="#F4F4F4"/>
<path d="M229.387 111.433V152.267H236.748V111.433H229.387Z" fill="#F4F4F4"/>
<path d="M242.27 111.433V152.267H247.79V111.433H242.27Z" fill="#F4F4F4"/>
<path d="M259.609 111.362V152.199H262.478V111.362H259.609Z" fill="#F4F4F4"/>
<path d="M288.293 47.9783V152.199H297.854V47.9783H288.293Z" fill="#F4F4F4"/>
<path d="M301.156 47.9785V152.267H312.198V47.9785H301.156Z" fill="#F4F4F4"/>
<path d="M235.232 83.3875L236.177 72.9893L227.551 79.0155L222.825 70.7443L232.278 66.3723L222.825 62.0004L227.551 53.7291L236.177 59.7553L235.232 49.3572H244.685L243.739 59.7553L252.365 53.7291L257.092 62.0004L247.639 66.3723L257.092 70.7443L252.365 79.0155L243.739 72.9893L244.685 83.3875H235.232Z" fill="#F4F4F4"/>
<line x1="43.521" y1="1.12598" x2="43.521" y2="198.095" stroke="#20BD1C" stroke-width="0.956151"/>
<line x1="221.896" y1="0.169922" x2="221.896" y2="198.094" stroke="#20BD1C" stroke-width="0.956151"/>
<line x1="258.228" y1="0.169922" x2="258.228" y2="198.094" stroke="#20BD1C" stroke-width="0.956151"/>
<line x1="312.197" y1="1.12598" x2="312.197" y2="198.095" stroke="#20BD1C" stroke-width="0.956151"/>
<line x1="0.492188" y1="47.5004" x2="355.225" y2="47.5004" stroke="#20BD1C" stroke-width="0.956151"/>
<line x1="0.492188" y1="152.205" x2="355.225" y2="152.205" stroke="#20BD1C" stroke-width="0.956151"/>
</svg>
