<svg width="23" height="22" viewBox="0 0 23 22" fill="none" xmlns="http://www.w3.org/2000/svg">
<path d="M19.9409 20.8359L19.941 20.8359L19.9358 20.8309L15.401 16.4585L15.2558 16.3185L15.0883 16.4308C13.5527 17.4595 11.8429 17.9738 9.95222 17.9738C8.72398 17.9738 7.55099 17.7435 6.43132 17.283C5.30817 16.8211 4.34383 16.1987 3.53526 15.4168C2.72677 14.635 2.08393 13.7033 1.60715 12.6192C1.13196 11.5388 0.894531 10.4075 0.894531 9.22322C0.894531 8.03894 1.13196 6.90766 1.60715 5.8272C2.08393 4.74312 2.72677 3.81149 3.53527 3.02967C4.34383 2.24778 5.30817 1.62533 6.43132 1.16343C7.55099 0.702964 8.72398 0.472656 9.95222 0.472656C11.1805 0.472656 12.3535 0.702964 13.4731 1.16343C14.5963 1.62533 15.5606 2.24778 16.3692 3.02967C17.1777 3.81149 17.8205 4.74312 18.2973 5.8272C18.7725 6.90766 19.0099 8.03894 19.0099 9.22322C19.0099 11.0461 18.4798 12.6956 17.4173 14.1788L17.2916 14.3542L17.4467 14.5041L21.9816 18.8893C22.2592 19.1578 22.3945 19.4766 22.3945 19.8603C22.3945 20.2319 22.2574 20.5517 21.9683 20.8312C21.6792 21.1108 21.3445 21.2467 20.9522 21.2467C20.5397 21.2467 20.2086 21.1092 19.9409 20.8359ZM16.1253 9.22322C16.1253 7.57696 15.517 6.1638 14.3105 4.99709C13.1042 3.83063 11.6469 3.24559 9.95222 3.24559C8.25758 3.24559 6.8002 3.83063 5.59394 4.99709C4.38741 6.1638 3.77915 7.57696 3.77915 9.22322C3.77915 10.8695 4.38741 12.2826 5.59394 13.4494C6.8002 14.6158 8.25758 15.2009 9.95222 15.2009C11.6469 15.2009 13.1042 14.6158 14.3105 13.4494C15.517 12.2826 16.1253 10.8695 16.1253 9.22322Z" fill="#fff" stroke="#fff" stroke-width="0.5"/>
</svg>
