<svg width="500" height="439" viewBox="0 0 500 439" fill="none" xmlns="http://www.w3.org/2000/svg">
<path d="M287.476 104.582C295.732 70.4705 307.672 37.3815 323.098 5.84818C325.356 1.23299 330.782 -0.770713 335.69 0.749904C339.198 1.83683 342.751 2.76561 346.338 3.53353C353.654 5.09981 357.889 13.474 354.164 19.962C338.446 47.3343 325.193 76.0068 314.552 105.674C313.285 109.206 314.197 113.111 316.578 116.012C335.628 139.225 340.014 171.378 335.739 200.489C331.175 231.564 317.761 260.473 307.127 289.96C302.201 303.479 297.97 318.593 303.463 332.124C310.495 349.245 331 357.839 349.9 359.722C368.799 361.605 387.96 358.614 406.701 361.863C427.196 365.274 446.736 375.728 467.346 375.015C476.436 374.691 486.724 372.359 493.91 377.844C503.269 384.644 500.738 399.947 491.564 406.618C482.389 413.29 469.881 413.583 458.31 412.539C433.456 410.301 409.204 403.431 385.119 396.614L300.184 372.507C289.31 369.428 278.042 366.134 269.557 358.773C257.125 347.936 253.878 331.574 253.581 315.095C253.442 307.389 245.64 302.811 241.26 309.153C235.21 317.915 232.227 329.295 230.407 339.967C227.6 356.421 225.362 374.43 213.193 386.119C194.575 404.068 163.244 398.475 138.913 407.78C124.884 413.121 113.552 423.352 100.197 430.059C83.8083 438.212 64.9388 440.846 46.5234 437.549C39.7539 436.7 33.3652 433.869 28.2257 429.44C19.0587 420.445 20.8207 404.94 29.2014 395.536C37.5821 386.132 50.5514 382.223 63.2079 380.162C75.8644 378.101 88.9412 377.768 101.152 374.059C116.62 369.331 131.116 359.356 147.345 360.845C147.852 360.891 148.354 360.994 148.849 361.114C152.658 362.043 156.606 362.17 160.422 361.491C161.422 361.313 162.379 360.934 163.205 360.342C166.273 358.145 168.537 355.05 169.656 351.481C175.153 339.577 179.857 327.333 183.743 314.819C185.386 309.679 186.76 303.789 184.138 299.099C179.214 290.885 165.775 292.784 158.846 299.244C151.916 305.704 148.352 314.966 141.364 321.319C126.94 334.412 102.963 331.171 84.6926 322.539C66.4226 313.908 49.9013 300.967 30.36 296.311C18.2978 293.472 1.92942 290.628 0.855816 278.776C0.0622919 269.669 9.93222 263.574 19.0295 261.924C57.1624 255.085 94.6695 290.761 132.672 283.172C158.209 278.059 174.555 255.046 188.818 234.199C219.136 189.803 251.707 146.954 286.532 105.652" fill="#E6BA4E"/>
</svg>
