<svg width="217" height="338" viewBox="0 0 217 338" fill="none" xmlns="http://www.w3.org/2000/svg">
<path d="M206.001 3.94043H88.2807C85.6107 3.94043 83.0607 5.00043 81.1807 6.89043L63.8907 24.2904C63.2407 24.9504 62.0807 24.4804 62.1207 23.5604C62.2407 20.8604 61.2707 18.1204 59.2107 16.0604L50.4207 7.24043C46.5207 3.33043 40.2007 3.33043 36.3007 7.24043L7.4407 36.1904C3.5507 40.1004 3.5507 46.4404 7.4407 50.3504L16.2307 59.1704C18.3107 61.2604 21.1007 62.2404 23.8407 62.0904C24.7707 62.0404 25.2407 63.2004 24.5907 63.8504L7.1307 81.4304C5.2707 83.3004 4.2207 85.8404 4.2207 88.4804V326.76C4.2207 332.28 8.7007 336.76 14.2207 336.76H206.001C211.521 336.76 216.001 332.28 216.001 326.76V13.9404C216.001 8.42043 211.521 3.94043 206.001 3.94043ZM186.431 151.62C186.431 160.87 178.981 168.35 169.761 168.35C160.541 168.35 153.061 160.87 153.061 151.62V48.2204C153.061 38.9904 160.541 31.4904 169.761 31.4904C174.381 31.4904 178.541 33.3604 181.561 36.4004C184.571 39.4204 186.431 43.6004 186.431 48.2204V151.62Z" fill="#E584A7" stroke="black" stroke-miterlimit="10"/>
<path d="M36.5137 7.85619L8.27419 36.0957C3.97847 40.3914 3.97847 47.3562 8.2742 51.6519L14.7752 58.1529C19.0709 62.4486 26.0356 62.4486 30.3314 58.1528L58.5709 29.9134C62.8666 25.6176 62.8666 18.6529 58.5709 14.3572L52.0699 7.85618C47.7742 3.56045 40.8094 3.56046 36.5137 7.85619Z" fill="#6A38AB"/>
</svg>
