<svg width="244" height="203" viewBox="0 0 244 203" fill="none" xmlns="http://www.w3.org/2000/svg">
<rect x="0.0078125" y="0.461426" width="243.215" height="202.373" rx="30" fill="black"/>
<path d="M105.649 151.628V125.636C105.649 123.568 103.919 121.88 101.809 121.88L45.2228 121.88C43.1129 121.88 41.3828 120.193 41.3828 118.125V85.1708C41.3828 83.1032 43.1129 81.4154 45.2228 81.4154H101.809C103.919 81.4154 105.649 79.7276 105.649 77.66V51.6679C105.649 48.7986 108.856 46.9842 111.388 48.4188L199.918 98.3778C202.492 99.8125 202.492 103.441 199.918 104.876L111.388 154.877C108.814 156.312 105.649 154.497 105.649 151.628Z" fill="#F4F4F4"/>
</svg>
