<svg width="193" height="62" viewBox="0 0 193 62" fill="none" xmlns="http://www.w3.org/2000/svg">
<path d="M10.7051 37.875C10.7051 51.1298 21.4502 61.875 34.7051 61.875L92.3268 61.875L92.3268 0.324219L34.7051 0.324219C21.4503 0.324219 10.7051 11.0694 10.7051 24.3242L10.7051 37.875Z" fill="#ED444E"/>
<path d="M6.68945 48.4936C6.68945 50.7106 8.48666 52.5078 10.7036 52.5078L10.7036 10.1359C8.48666 10.1359 6.68945 11.9331 6.68945 14.1501L6.68945 48.4936Z" fill="#D9D9D9"/>
<path d="M0 32.8839C0 36.5789 2.99535 39.5742 6.6903 39.5742L6.6903 23.0715C2.99535 23.0715 0 26.0668 0 29.7618L0 32.8839Z" fill="#D9D9D9"/>
<path d="M185.99 48.4936C185.99 50.7106 184.193 52.5078 181.976 52.5078V10.1359C184.193 10.1359 185.99 11.9331 185.99 14.1501V48.4936Z" fill="#D9D9D9"/>
<path d="M192.682 32.8839C192.682 36.5789 189.686 39.5742 185.991 39.5742V23.0715C189.686 23.0715 192.682 26.0668 192.682 29.7618V32.8839Z" fill="#D9D9D9"/>
<path d="M92.3262 61.875L157.976 61.875C171.231 61.875 181.976 51.1298 181.976 37.875V24.3242C181.976 11.0694 171.231 0.324219 157.976 0.324219L92.3262 0.324219L92.3262 61.875Z" fill="#3F66C3"/>
</svg>
