<svg width="189" height="295" viewBox="0 0 189 295" fill="none" xmlns="http://www.w3.org/2000/svg">
<path d="M9.72362 3.99217L112.419 3.99218C114.748 3.99218 116.973 4.91689 118.613 6.56567L133.696 21.7449C134.263 22.3206 135.275 21.9106 135.24 21.108C135.135 18.7526 135.981 16.3624 137.778 14.5653L145.447 6.871C148.849 3.46004 154.362 3.46004 157.764 6.871L182.941 32.1261C186.334 35.537 186.334 41.0678 182.941 44.4788L175.273 52.1731C173.458 53.9963 171.024 54.8512 168.634 54.7204C167.823 54.6768 167.413 55.6887 167.98 56.2557L183.211 71.592C184.834 73.2233 185.75 75.4391 185.75 77.7422L185.75 285.61C185.75 290.425 181.842 294.334 177.026 294.334L9.72359 294.334C4.90812 294.334 0.999914 290.425 0.999914 285.61L0.999938 12.7159C0.999939 7.90038 4.90814 3.99217 9.72362 3.99217ZM26.7958 132.823C26.7958 140.893 33.295 147.418 41.3382 147.418C49.3815 147.418 55.9068 140.893 55.9068 132.823L55.9068 42.6206C55.9068 34.5687 49.3815 28.0259 41.3382 28.0259C37.3079 28.0259 33.6788 29.6572 31.0443 32.3092C28.4185 34.9438 26.7958 38.5903 26.7958 42.6206L26.7958 132.823Z" fill="#6A38AB" stroke="black" stroke-miterlimit="10"/>
<path d="M158.572 8.40399L181.222 31.0539C185.518 35.3497 185.518 42.3144 181.222 46.6101L177.536 50.296C173.24 54.5917 166.276 54.5917 161.98 50.296L139.33 27.646C135.034 23.3503 135.034 16.3856 139.33 12.0898L143.016 8.40398C147.311 4.10826 154.276 4.10827 158.572 8.40399Z" fill="#E6BA4E"/>
</svg>
