<svg width="590" height="641" viewBox="0 0 590 641" fill="none" xmlns="http://www.w3.org/2000/svg">
<path d="M188.143 641C182.25 641 176.904 637.55 174.475 632.181L92.3257 450.539C85.6718 435.826 63.6585 440.573 63.6585 456.72V626C63.6585 634.284 56.9428 641 48.6585 641H15C6.7157 641 0 634.284 0 626V15C0 6.71575 6.7157 0 15 0H255.321C264.267 0 271.214 7.77937 270.381 16.6861C265.265 71.4299 265.1 126.534 269.895 181.33C277.801 270.931 281.72 315.732 304.268 352.848C362.908 449.311 467.814 426.533 544.878 531.228C564.977 559.016 579.833 590.166 588.776 623.151C591.257 632.302 584.136 641 574.655 641H188.143Z" fill="#E584A7"/>
</svg>
