<svg width="61" height="62" viewBox="0 0 61 62" fill="none" xmlns="http://www.w3.org/2000/svg">
<path d="M0.716797 31.0527C0.716797 22.9636 3.8775 15.2058 9.50359 9.48598C15.1297 3.76612 22.7603 0.552734 30.7168 0.552734C38.6733 0.552734 46.3039 3.76612 51.93 9.48598C57.5561 15.2058 60.7168 22.9636 60.7168 31.0527C60.7168 39.1418 57.5561 46.8996 51.93 52.6195C46.3039 58.3393 38.6733 61.5527 30.7168 61.5527C22.7603 61.5527 15.1297 58.3393 9.50359 52.6195C3.8775 46.8996 0.716797 39.1418 0.716797 31.0527ZM28.8418 4.6588C26.3293 5.43655 23.8355 7.78505 21.7655 11.731C21.2293 12.7527 20.7305 13.866 20.2843 15.0555C22.928 15.654 25.8043 16.0353 28.8418 16.1497V4.6588ZM16.6505 14.0452C17.183 12.5812 17.7905 11.2087 18.4543 9.9353C19.1027 8.68882 19.8515 7.49907 20.693 6.37823C17.5005 7.72328 14.6002 9.69509 12.158 12.1809C13.5155 12.8824 15.0193 13.5076 16.6505 14.0452ZM13.8755 29.1465C14.0105 25.0671 14.5805 21.1898 15.5105 17.6785C13.4807 17.0185 11.5159 16.1672 9.6418 15.1355C6.65509 19.2125 4.88238 24.0754 4.5343 29.1465H13.8718H13.8755ZM19.1255 18.6964C18.2415 22.1115 17.7383 25.6169 17.6255 29.1465H28.8418V19.9622C25.4293 19.8478 22.1555 19.4094 19.1255 18.6964ZM32.5918 19.9584V29.1465H43.8043C43.6928 25.6171 43.1909 22.1117 42.308 18.6964C39.278 19.4094 36.0043 19.8402 32.5918 19.9584ZM17.6293 32.959C17.7605 36.7219 18.2893 40.2561 19.1255 43.409C22.317 42.6727 25.5707 42.2501 28.8418 42.1471V32.959H17.6293ZM32.5918 32.959V42.1433C36.0043 42.2577 39.278 42.6961 42.308 43.409C43.1443 40.2561 43.673 36.7219 43.808 32.959H32.5918ZM20.2843 47.05C20.7343 48.2395 21.2293 49.3527 21.7655 50.3745C23.8355 54.3204 26.333 56.6651 28.8418 57.4467V45.9596C25.8043 46.074 22.928 46.4514 20.2843 47.05ZM20.6968 55.7272C19.8539 54.6066 19.1038 53.4168 18.4543 52.1702C17.7636 50.8413 17.161 49.467 16.6505 48.0565C15.1079 48.5605 13.6059 49.1851 12.158 49.9246C14.6002 52.4104 17.5043 54.3822 20.6968 55.7272ZM15.5105 44.427C14.537 40.6801 13.9871 36.8326 13.8718 32.959H4.5343C4.88217 38.0301 6.6549 42.8931 9.6418 46.9699C11.4043 45.9863 13.373 45.1323 15.5105 44.427ZM40.7406 55.7272C43.9314 54.383 46.8304 52.4125 49.2718 49.9284C47.8252 49.189 46.3244 48.5645 44.7831 48.0603C44.2724 49.4695 43.6698 50.8425 42.9793 52.1702C42.3311 53.4168 41.5823 54.6065 40.7406 55.7272ZM32.5918 45.9558V57.4467C35.1043 56.6689 37.598 54.3204 39.668 50.3745C40.2043 49.3527 40.703 48.2395 41.1493 47.05C38.3353 46.4227 35.471 46.0539 32.5918 45.9558ZM45.923 44.427C48.0605 45.1323 50.0293 45.9863 51.7918 46.9699C54.7787 42.8931 56.5514 38.0301 56.8993 32.959H47.5618C47.4464 36.8326 46.8966 40.6801 45.923 44.427ZM56.8993 29.1465C56.5514 24.0753 54.7787 19.2123 51.7918 15.1355C50.0293 16.1192 48.0605 16.9732 45.923 17.6785C46.853 21.186 47.423 25.0671 47.5618 29.1465H56.8993ZM42.9793 9.9353C43.643 11.2087 44.2505 12.5812 44.7868 14.0452C46.3269 13.541 47.8264 12.9164 49.2718 12.177C46.83 9.69444 43.9311 7.72527 40.7406 6.38205C41.558 7.46098 42.308 8.65811 42.9793 9.9353ZM41.1493 15.0555C40.7233 13.9174 40.2286 12.8071 39.668 11.731C37.598 7.78505 35.1043 5.44036 32.5918 4.6588V16.1459C35.6293 16.0315 38.5055 15.654 41.1493 15.0555Z" fill="black"/>
</svg>
