<svg width="45" height="60" viewBox="0 0 45 60" fill="none" xmlns="http://www.w3.org/2000/svg">
<path d="M1.36163e-05 22.5004C-0.000103044 18.785 0.919878 15.1274 2.67781 11.8542C4.43574 8.58096 6.97691 5.79401 10.0744 3.74218C13.1719 1.69035 16.7293 0.437505 20.429 0.0955203C24.1287 -0.246464 27.8555 0.333053 31.2766 1.78233C34.6977 3.2316 37.7067 5.50552 40.0349 8.40104C42.363 11.2966 43.9379 14.7236 44.6189 18.376C45.2998 22.0285 45.0657 25.7928 43.9373 29.3327C42.809 32.8726 40.8215 36.0781 38.1525 38.6628C37.3912 39.3977 36.8062 40.1627 36.4537 40.984L33.5963 47.6176C33.4513 47.9539 33.211 48.2403 32.9051 48.4415C32.5993 48.6428 32.2411 48.75 31.875 48.7501H13.125C12.7582 48.7508 12.3993 48.6438 12.0927 48.4425C11.7861 48.2412 11.5453 47.9544 11.4 47.6176L8.54626 40.9802C8.13766 40.1037 7.56042 39.3162 6.84751 38.6628C4.6786 36.5672 2.95438 34.0559 1.77786 31.2789C0.60135 28.5019 -0.00330864 25.5163 1.36163e-05 22.5004ZM11.25 54.3751C11.25 53.8778 11.4476 53.4009 11.7992 53.0493C12.1508 52.6976 12.6277 52.5001 13.125 52.5001H31.875C32.3723 52.5001 32.8492 52.6976 33.2008 53.0493C33.5525 53.4009 33.75 53.8778 33.75 54.3751C33.75 54.8723 33.5525 55.3492 33.2008 55.7009C32.8492 56.0525 32.3723 56.25 31.875 56.25L31.035 57.9263C30.7238 58.5491 30.2453 59.0729 29.6532 59.4392C29.0611 59.8054 28.3787 59.9996 27.6825 60H17.3175C16.6213 59.9996 15.9389 59.8054 15.3468 59.4392C14.7547 59.0729 14.2762 58.5491 13.965 57.9263L13.125 56.25C12.6277 56.25 12.1508 56.0525 11.7992 55.7009C11.4476 55.3492 11.25 54.8723 11.25 54.3751Z" fill="black"/>
</svg>
