<svg width="1018" height="566" viewBox="0 0 1018 566" fill="none" xmlns="http://www.w3.org/2000/svg">
<rect x="-0.186802" y="0.186802" width="0.373604" height="565.04" transform="matrix(-1 0 0 1 72.2123 0.126953)" fill="#FF0000" fill-opacity="0.2" stroke="black" stroke-width="0.373604"/>
<rect x="88.5293" y="1.12695" width="69.6122" height="563.414" fill="#FF0000" fill-opacity="0.2" stroke="black" stroke-width="2"/>
<rect x="174.459" y="1.12695" width="69.6122" height="563.414" fill="#FF0000" fill-opacity="0.2" stroke="black" stroke-width="2"/>
<rect x="259.76" y="1.12695" width="69.6122" height="563.414" fill="#FF0000" fill-opacity="0.2" stroke="black" stroke-width="2"/>
<rect x="346.316" y="1.12695" width="69.6122" height="563.414" fill="#FF0000" fill-opacity="0.2" stroke="black" stroke-width="2"/>
<rect x="432.246" y="1.12695" width="69.6122" height="563.414" fill="#FF0000" fill-opacity="0.2" stroke="black" stroke-width="2"/>
<rect x="518.801" y="1.12695" width="69.6122" height="563.414" fill="#FF0000" fill-opacity="0.2" stroke="black" stroke-width="2"/>
<rect x="605.357" y="1.12695" width="69.6122" height="563.414" fill="#FF0000" fill-opacity="0.2" stroke="black" stroke-width="2"/>
<rect x="691.914" y="1.12695" width="69.6122" height="563.414" fill="#FF0000" fill-opacity="0.2" stroke="black" stroke-width="2"/>
<rect x="777.842" y="1.12695" width="69.6122" height="563.414" fill="#FF0000" fill-opacity="0.2" stroke="black" stroke-width="2"/>
<rect x="863.771" y="1.12695" width="69.6122" height="563.414" fill="#FF0000" fill-opacity="0.2" stroke="black" stroke-width="2"/>
<rect x="-0.313769" y="0.313769" width="0.627537" height="564.786" transform="matrix(-1 0 0 1 947.447 0.126953)" fill="#FF0000" fill-opacity="0.2" stroke="black" stroke-width="0.627537"/>
<rect x="1" y="1.12695" width="1015.8" height="563.414" fill="#F4F4F4" stroke="black" stroke-width="2"/>
<rect x="88.5293" y="1.12695" width="69.6122" height="563.414" fill="#FF0000" fill-opacity="0.2" stroke="black" stroke-width="2"/>
<rect x="1.22656" y="1.12695" width="69.6122" height="563.414" fill="#FF0000" fill-opacity="0.2" stroke="black" stroke-width="2"/>
<rect x="174.459" y="1.12695" width="69.6122" height="563.414" fill="#FF0000" fill-opacity="0.2" stroke="black" stroke-width="2"/>
<rect x="259.76" y="1.12695" width="69.6122" height="563.414" fill="#FF0000" fill-opacity="0.2" stroke="black" stroke-width="2"/>
<rect x="346.316" y="1.12695" width="69.6122" height="563.414" fill="#FF0000" fill-opacity="0.2" stroke="black" stroke-width="2"/>
<rect x="432.246" y="1.12695" width="69.6122" height="563.414" fill="#FF0000" fill-opacity="0.2" stroke="black" stroke-width="2"/>
<rect x="518.801" y="1.12695" width="69.6122" height="563.414" fill="#FF0000" fill-opacity="0.2" stroke="black" stroke-width="2"/>
<rect x="605.357" y="1.12695" width="69.6122" height="563.414" fill="#FF0000" fill-opacity="0.2" stroke="black" stroke-width="2"/>
<rect x="691.914" y="1.12695" width="69.6122" height="563.414" fill="#FF0000" fill-opacity="0.2" stroke="black" stroke-width="2"/>
<rect x="777.842" y="1.12695" width="69.6122" height="563.414" fill="#FF0000" fill-opacity="0.2" stroke="black" stroke-width="2"/>
<rect x="863.771" y="1.12695" width="69.6122" height="563.414" fill="#FF0000" fill-opacity="0.2" stroke="black" stroke-width="2"/>
<rect x="947.191" y="1.12695" width="69.6122" height="563.414" fill="#FF0000" fill-opacity="0.2" stroke="black" stroke-width="2"/>
</svg>
