<svg width="527" height="360" viewBox="0 0 527 360" fill="none" xmlns="http://www.w3.org/2000/svg">
<path d="M41.4756 275.94L36.1925 276.912C26.4076 278.713 17.3695 271.241 17.2975 261.292L16.2216 112.672C16.1475 102.439 25.566 94.7674 35.5722 96.9107L39.1316 97.6731C44.7371 98.8737 50.5566 96.9837 54.3869 92.7185L100.298 41.5953C105.471 35.8343 114.028 34.6048 120.614 38.6759L277.344 135.55C282.646 138.827 289.369 138.727 294.571 135.293L441.599 38.244C449.144 33.2632 459.315 35.5196 464.047 43.2243L487.17 80.8764C489.254 84.2694 492.864 86.4304 496.839 86.6639C503.246 87.0403 508.263 92.3219 508.309 98.7399L509.527 266.983C509.57 273.005 504.724 277.923 498.702 277.966C494.53 277.997 490.741 280.404 488.942 284.168L472.284 319.015C469.081 325.715 461.69 329.33 454.435 327.746L211.69 274.749C207.566 273.849 203.253 274.615 199.691 276.88L121.935 326.333C115.751 330.267 107.685 329.495 102.358 324.462L55.3606 280.047C51.652 276.543 46.494 275.017 41.4756 275.94Z" fill="#ED444E"/>
<path d="M15.5965 96.1999L16.9062 277.118C16.9198 279.01 18.6602 280.417 20.5131 280.034L28.9988 278.281L27.6733 95.1679L19.2624 93.253C17.3761 92.8236 15.5825 94.2654 15.5965 96.1999Z" fill="#D9D9D9"/>
<path d="M496.763 86.0853L498.152 278.001L512.922 277.894C514.579 277.882 515.913 276.53 515.901 274.873L514.563 90.1477C514.552 88.5837 513.341 87.2908 511.781 87.1773L496.763 86.0853Z" fill="#D9D9D9"/>
</svg>
