<svg width="1018" height="566" viewBox="0 0 1018 566" fill="none" xmlns="http://www.w3.org/2000/svg">
<rect x="-0.186802" y="0.186802" width="0.373604" height="565.04" transform="matrix(-1 0 0 1 72.2123 0)" fill="#C5F700" fill-opacity="0.5" stroke="black" stroke-width="0.373604"/>
<rect x="88.5293" y="1" width="69.6122" height="563.414" fill="#C5F700" fill-opacity="0.5" stroke="black" stroke-width="2"/>
<rect x="174.459" y="1" width="69.6122" height="563.414" fill="#C5F700" fill-opacity="0.5" stroke="black" stroke-width="2"/>
<rect x="259.761" y="1" width="69.6122" height="563.414" fill="#C5F700" fill-opacity="0.5" stroke="black" stroke-width="2"/>
<rect x="346.316" y="1" width="69.6122" height="563.414" fill="#C5F700" fill-opacity="0.5" stroke="black" stroke-width="2"/>
<rect x="432.246" y="1" width="69.6122" height="563.414" fill="#C5F700" fill-opacity="0.5" stroke="black" stroke-width="2"/>
<rect x="518.802" y="1" width="69.6122" height="563.414" fill="#C5F700" fill-opacity="0.5" stroke="black" stroke-width="2"/>
<rect x="605.357" y="1" width="69.6122" height="563.414" fill="#C5F700" fill-opacity="0.5" stroke="black" stroke-width="2"/>
<rect x="691.914" y="1" width="69.6122" height="563.414" fill="#C5F700" fill-opacity="0.5" stroke="black" stroke-width="2"/>
<rect x="777.842" y="1" width="69.6122" height="563.414" fill="#C5F700" fill-opacity="0.5" stroke="black" stroke-width="2"/>
<rect x="863.771" y="1" width="69.6122" height="563.414" fill="#C5F700" fill-opacity="0.5" stroke="black" stroke-width="2"/>
<rect x="-0.313769" y="0.313769" width="0.627537" height="564.786" transform="matrix(-1 0 0 1 947.446 0)" fill="#C5F700" fill-opacity="0.5" stroke="black" stroke-width="0.627537"/>
<rect x="1" y="1" width="1015.8" height="563.414" stroke="black" stroke-width="2"/>
<rect x="88.5293" y="1" width="69.6122" height="563.414" fill="#C5F700" fill-opacity="0.5" stroke="black" stroke-width="2"/>
<rect x="1.22656" y="1" width="69.6122" height="563.414" fill="#C5F700" fill-opacity="0.75" stroke="black" stroke-width="2"/>
<rect x="174.459" y="1" width="69.6122" height="563.414" fill="#C5F700" fill-opacity="0.5" stroke="black" stroke-width="2"/>
<rect x="259.761" y="1" width="69.6122" height="563.414" fill="#C5F700" fill-opacity="0.5" stroke="black" stroke-width="2"/>
<rect x="346.316" y="1" width="69.6122" height="563.414" fill="#C5F700" fill-opacity="0.5" stroke="black" stroke-width="2"/>
<rect x="432.246" y="1" width="69.6122" height="563.414" fill="#C5F700" fill-opacity="0.5" stroke="black" stroke-width="2"/>
<rect x="518.802" y="1" width="69.6122" height="563.414" fill="#C5F700" fill-opacity="0.5" stroke="black" stroke-width="2"/>
<rect x="605.357" y="1" width="69.6122" height="563.414" fill="#C5F700" fill-opacity="0.5" stroke="black" stroke-width="2"/>
<rect x="691.914" y="1" width="69.6122" height="563.414" fill="#C5F700" fill-opacity="0.5" stroke="black" stroke-width="2"/>
<rect x="777.842" y="1" width="69.6122" height="563.414" fill="#C5F700" fill-opacity="0.5" stroke="black" stroke-width="2"/>
<rect x="863.771" y="1" width="69.6122" height="563.414" fill="#C5F700" fill-opacity="0.5" stroke="black" stroke-width="2"/>
<rect x="947.19" y="1" width="69.6122" height="563.414" fill="#C5F700" fill-opacity="0.75" stroke="black" stroke-width="2"/>
<rect x="1" y="1" width="1015.8" height="563.414" stroke="black" stroke-width="2"/>
</svg>
