<svg width="616" height="927" viewBox="0 0 616 927" fill="none" xmlns="http://www.w3.org/2000/svg">
<path d="M40.605 185.435C18.5136 185.435 0.604983 203.344 0.604983 225.435L0.60499 886.449C0.604991 908.54 18.5136 926.449 40.605 926.449L575.609 926.449C597.701 926.449 615.609 908.54 615.609 886.449L615.609 225.435C615.609 203.344 597.701 185.435 575.609 185.435L452.999 185.435C407.575 185.435 370.702 149.942 370.702 106.217L370.702 105.696C370.702 98.8193 376.276 93.245 383.153 93.245C390.029 93.245 395.603 87.6706 395.603 80.7944L395.603 59.6228C395.603 41.0539 380.55 26.0007 361.981 26.0007L260.699 26.0007C244.388 26.0007 230.43 37.7075 227.59 53.7691L222.969 79.909C221.739 86.8653 227.09 93.245 234.154 93.245C240.427 93.245 245.512 98.3303 245.512 104.603L245.512 106.217C245.512 149.942 208.639 185.435 163.215 185.435L40.605 185.435Z" fill="#3F66C3"/>
<path d="M374.285 105.108L252 105.108C229.909 105.108 212 87.1995 212 65.1082L212 40C212 17.9086 229.909 6.87587e-06 252 5.94636e-06L374.285 8.01091e-07C396.377 -1.28424e-07 414.285 17.9086 414.285 40L414.285 65.1081C414.285 87.1995 396.377 105.108 374.285 105.108Z" fill="#E584A7"/>
</svg>
