<svg width="259" height="473" viewBox="0 0 259 473" fill="none" xmlns="http://www.w3.org/2000/svg">
<path d="M83.0987 0.965389L175.869 0.965385C182.009 0.965385 186.989 5.94537 186.989 12.0854L186.989 37.6454C186.989 43.7854 182.009 48.7654 175.869 48.7654C175.799 48.7654 175.749 48.8154 175.749 48.8854L175.749 61.4254C175.749 63.8154 173.809 65.7554 171.419 65.7554L171.409 65.7554C169.419 65.7554 168.909 68.5454 170.789 69.2254C218.679 86.4554 253.979 132.795 258.119 188.485C258.529 194.005 254.439 198.595 249.119 199.365C248.989 199.385 248.989 199.575 249.119 199.595C254.439 200.365 258.519 204.955 258.519 210.475L258.519 460.905C258.519 467.045 253.539 472.025 247.399 472.025L11.5887 472.025C5.44875 472.025 0.46875 467.045 0.46875 460.905L0.468739 210.485C0.468738 204.955 4.54874 200.375 9.86874 199.605C9.99874 199.585 9.99874 199.395 9.86874 199.375C4.54874 198.595 0.468738 194.005 0.878738 188.495C5.01873 132.805 40.2987 86.4554 88.1787 69.2354C90.0587 68.5554 89.5487 65.7654 87.5587 65.7654C85.1687 65.7654 83.2287 63.8254 83.2287 61.4354L83.2287 48.8954C83.2287 48.8254 83.1787 48.7754 83.1087 48.7754L83.0987 48.7754C76.9587 48.7754 71.9787 43.7954 71.9787 37.6554L71.9787 12.0954C71.9787 5.9454 76.9587 0.96539 83.0987 0.965389Z" fill="#BDE5EC"/>
<path d="M71.9844 11.9655L71.9844 37.7705C71.9844 43.8456 76.9092 48.7705 82.9844 48.7705L176 48.7705C182.075 48.7705 187 43.8456 187 37.7705L187 11.9655C187 5.89038 182.075 0.96551 176 0.965511L82.9844 0.965515C76.9092 0.965515 71.9844 5.89037 71.9844 11.9655Z" fill="#5FCEE7"/>
</svg>
