<svg width="217" height="338" viewBox="0 0 217 338" fill="none" xmlns="http://www.w3.org/2000/svg">
<path d="M206.43 4.25879H88.7104C86.0404 4.25879 83.4904 5.31879 81.6104 7.20879L64.3204 24.6088C63.6704 25.2688 62.5104 24.7988 62.5504 23.8788C62.6704 21.1788 61.7004 18.4388 59.6404 16.3788L50.8504 7.55879C46.9504 3.64879 40.6304 3.64879 36.7304 7.55879L7.87039 36.5088C3.98039 40.4188 3.98039 46.7588 7.87039 50.6688L16.6604 59.4888C18.7404 61.5788 21.5304 62.5588 24.2704 62.4088C25.2004 62.3588 25.6704 63.5188 25.0204 64.1688L7.56039 81.7488C5.70039 83.6188 4.65039 86.1588 4.65039 88.7988V327.079C4.65039 332.599 9.13039 337.079 14.6504 337.079H206.43C211.95 337.079 216.43 332.599 216.43 327.079V14.2588C216.43 8.73879 211.95 4.25879 206.43 4.25879ZM186.86 151.939C186.86 161.189 179.41 168.669 170.19 168.669C160.97 168.669 153.49 161.189 153.49 151.939V48.5388C153.49 39.3088 160.97 31.8088 170.19 31.8088C174.81 31.8088 178.97 33.6788 181.99 36.7188C185 39.7388 186.86 43.9188 186.86 48.5388V151.939Z" fill="#6A38AB" stroke="black" stroke-miterlimit="10"/>
<path d="M36.9434 8.17455L8.70388 36.414C4.40816 40.7098 4.40816 47.6745 8.70388 51.9702L15.2049 58.4712C19.5006 62.7669 26.4653 62.7669 30.7611 58.4712L59.0006 30.2317C63.2963 25.936 63.2963 18.9712 59.0006 14.6755L52.4996 8.17454C48.2039 3.87881 41.2391 3.87882 36.9434 8.17455Z" fill="#ED444E"/>
</svg>
