<svg width="251" height="414" viewBox="0 0 251 414" fill="none" xmlns="http://www.w3.org/2000/svg">
<path d="M26.8941 112.697L55.0349 83.3474C58.0098 80.2448 59.3264 75.9092 58.5792 71.6763C57.1222 63.4229 63.471 55.8551 71.852 55.8551L171.998 55.8551C180.094 55.8551 186.108 63.3497 184.356 71.253C183.374 75.6804 184.835 80.2948 188.188 83.3493L220.38 112.684C226.104 117.899 227.271 126.464 223.153 133.021L157.937 236.844C154.621 242.122 154.673 248.845 158.069 254.072L221.261 351.331C226.187 358.913 223.857 369.067 216.118 373.743L193.713 387.28C191.316 388.728 189.777 391.257 189.593 394.051C189.295 398.556 185.555 402.058 181.04 402.058L62.6927 402.058C58.4564 402.058 55.0222 398.624 55.0221 394.388C55.0221 391.453 53.348 388.776 50.7098 387.491L29.6624 377.242C22.9863 373.991 19.4244 366.574 21.0607 359.331L58.3158 194.428C59.2461 190.311 58.5113 185.992 56.2717 182.414L24.8805 132.259C20.9923 126.046 21.822 117.987 26.8941 112.697Z" fill="#ED444E"/>
<path d="M184.211 55.5H59.1556C57.2635 55.5 55.8439 57.2301 56.2133 59.0857L57.1916 64H185.999L187.132 59.1871C187.575 57.304 186.146 55.5 184.211 55.5Z" fill="#D9D9D9"/>
<path d="M190 394H55V403.5C55 405.157 56.3431 406.5 58 406.5H186.23C187.794 406.5 189.096 405.298 189.221 403.739L190 394Z" fill="#D9D9D9"/>
<path d="M192.312 1.05492C192.479 -0.351641 194.521 -0.351641 194.688 1.05492L196.088 12.8547C197.896 28.0915 209.909 40.1045 225.145 41.9124L236.945 43.3125C238.352 43.4795 238.352 45.5205 236.945 45.6876L225.145 47.0876C209.909 48.8955 197.896 60.9085 196.088 76.1451L194.688 87.945C194.521 89.3517 192.479 89.3517 192.312 87.945L190.912 76.1451C189.104 60.9085 177.091 48.8955 161.855 47.0876L150.055 45.6876C148.648 45.5205 148.648 43.4795 150.055 43.3125L161.855 41.9124C177.091 40.1045 189.104 28.0915 190.912 12.8547L192.312 1.05492Z" fill="white"/>
</svg>
