<svg width="58" height="51" viewBox="0 0 58 51" fill="none" xmlns="http://www.w3.org/2000/svg">
<path d="M0.216797 45.1289C0.216797 46.5462 0.779797 47.9054 1.78194 48.9075C2.78409 49.9097 4.1433 50.4727 5.56055 50.4727H51.873C53.2903 50.4727 54.6495 49.9097 55.6516 48.9075C56.6538 47.9054 57.2168 46.5462 57.2168 45.1289V20.1914C57.2168 18.7742 56.6538 17.415 55.6516 16.4128C54.6495 15.4107 53.2903 14.8477 51.873 14.8477H5.56055C4.1433 14.8477 2.78409 15.4107 1.78194 16.4128C0.779797 17.415 0.216797 18.7742 0.216797 20.1914L0.216797 45.1289ZM7.3418 9.50391C7.3418 9.97632 7.52946 10.4294 7.86351 10.7634C8.19756 11.0975 8.65063 11.2852 9.12305 11.2852H48.3105C48.783 11.2852 49.236 11.0975 49.5701 10.7634C49.9041 10.4294 50.0918 9.97632 50.0918 9.50391C50.0918 9.03149 49.9041 8.57842 49.5701 8.24437C49.236 7.91032 48.783 7.72266 48.3105 7.72266H9.12305C8.65063 7.72266 8.19756 7.91032 7.86351 8.24437C7.52946 8.57842 7.3418 9.03149 7.3418 9.50391ZM14.4668 2.37891C14.4668 2.85132 14.6545 3.30439 14.9885 3.63844C15.3226 3.97249 15.7756 4.16016 16.248 4.16016H41.1855C41.658 4.16016 42.111 3.97249 42.4451 3.63844C42.7791 3.30439 42.9668 2.85132 42.9668 2.37891C42.9668 1.90649 42.7791 1.45342 42.4451 1.11937C42.111 0.785323 41.658 0.597656 41.1855 0.597656H16.248C15.7756 0.597656 15.3226 0.785323 14.9885 1.11937C14.6545 1.45342 14.4668 1.90649 14.4668 2.37891Z" fill="black"/>
</svg>
