<svg width="422" height="290" viewBox="0 0 422 290" fill="none" xmlns="http://www.w3.org/2000/svg">
<path fill-rule="evenodd" clip-rule="evenodd" d="M411.248 106.849C416.771 106.849 421.248 111.326 421.248 116.849L421.248 173.234C421.248 178.757 416.771 183.234 411.248 183.234L385.871 183.234C380.41 183.234 375.971 178.856 375.873 173.418L375.873 173.672C375.873 174.777 374.977 175.672 373.873 175.672L368.797 175.672C367.693 175.672 366.797 174.777 366.797 173.672L366.797 115.657C366.797 114.552 367.693 113.657 368.797 113.657L373.873 113.657C374.977 113.657 375.873 114.552 375.873 115.657L375.873 116.665C375.971 111.227 380.41 106.849 385.871 106.849L411.248 106.849ZM366.797 10.5898C366.797 5.06699 362.319 0.589841 356.797 0.589841L276.211 0.589837C270.688 0.589837 266.211 5.06701 266.211 10.5899L266.211 13.3315C266.211 14.4361 265.316 15.3315 264.211 15.3315L183.509 15.3315C182.404 15.3315 181.509 16.2269 181.509 17.3315L181.509 271.224C181.509 272.328 182.404 273.224 183.509 273.224L264.211 273.224C265.316 273.224 266.211 274.119 266.211 275.224L266.211 279.49C266.211 285.012 270.688 289.49 276.211 289.49L356.797 289.49C362.319 289.49 366.797 285.012 366.797 279.49L366.797 10.5898ZM171.508 0.589841C177.031 0.589841 181.508 5.06699 181.508 10.5898L181.508 279.49C181.508 285.012 177.031 289.49 171.508 289.49L9.99968 289.49C4.47682 289.49 -0.000317608 285.012 -0.000317367 279.49L-0.000305613 10.5899C-0.000305371 5.067 4.47687 0.589834 9.99969 0.589834L171.508 0.589841Z" fill="#2AA125"/>
<rect x="421.248" y="106.848" width="76.3845" height="45.377" rx="10" transform="rotate(90 421.248 106.848)" fill="#E584A7"/>
</svg>
