<svg width="217" height="338" viewBox="0 0 217 338" fill="none" xmlns="http://www.w3.org/2000/svg">
<path d="M205.727 4.05762H88.0073C85.3373 4.05762 82.7873 5.11762 80.9073 7.00762L63.6173 24.4076C62.9673 25.0676 61.8073 24.5976 61.8473 23.6776C61.9673 20.9776 60.9973 18.2376 58.9373 16.1776L50.1473 7.35762C46.2473 3.44762 39.9273 3.44762 36.0273 7.35762L7.16727 36.3076C3.27727 40.2176 3.27727 46.5576 7.16727 50.4676L15.9573 59.2876C18.0373 61.3776 20.8273 62.3576 23.5673 62.2076C24.4973 62.1576 24.9673 63.3176 24.3173 63.9676L6.85727 81.5476C4.99727 83.4176 3.94727 85.9576 3.94727 88.5976V326.878C3.94727 332.398 8.42727 336.878 13.9473 336.878H205.727C211.247 336.878 215.727 332.398 215.727 326.878V14.0576C215.727 8.53762 211.247 4.05762 205.727 4.05762ZM186.157 151.738C186.157 160.988 178.707 168.468 169.487 168.468C160.267 168.468 152.787 160.988 152.787 151.738V48.3376C152.787 39.1076 160.267 31.6076 169.487 31.6076C174.107 31.6076 178.267 33.4776 181.287 36.5176C184.297 39.5376 186.157 43.7176 186.157 48.3376V151.738V151.738Z" fill="#ED444E" stroke="black" stroke-miterlimit="10"/>
<path d="M36.2402 7.97337L8.00076 36.2129C3.70503 40.5086 3.70503 47.4733 8.00076 51.7691L14.5017 58.27C18.7975 62.5658 25.7622 62.5658 30.0579 58.27L58.2974 30.0305C62.5932 25.7348 62.5932 18.7701 58.2974 14.4743L51.7965 7.97337C47.5007 3.67764 40.536 3.67765 36.2402 7.97337Z" fill="#E584A7"/>
</svg>
