<svg width="70" height="70" viewBox="0 0 70 70" fill="none" xmlns="http://www.w3.org/2000/svg">
<path d="M16.1755 43.222L15.6193 44.5963L17.1018 44.5972L34.0045 44.6077C34.044 44.9827 34.0802 45.4657 34.112 46.0309C34.1784 47.2096 34.2235 48.7076 34.2426 50.2474C34.2618 51.7866 34.2549 53.3578 34.2182 54.6825C34.1933 55.5814 34.1552 56.3363 34.1069 56.8849C34.0299 56.8948 33.9526 56.9028 33.8752 56.909C32.8983 56.9046 31.9194 56.9011 30.9391 56.8976C27.0113 56.8835 23.0611 56.8694 19.1236 56.7991L19.0985 56.7987L19.0733 56.7995C17.5751 56.8481 16.0921 56.4856 14.7845 55.751C13.4769 55.0164 12.3944 53.9375 11.6543 52.6309L11.6504 52.6241L11.6464 52.6173C10.6629 50.9431 9.53669 49.2948 8.43184 47.6779C7.76621 46.7038 7.10835 45.741 6.49414 44.7907C5.53612 43.1719 4.99695 41.3387 4.92592 39.4577L4.92495 39.4321L4.92267 39.4065C4.82989 38.3671 5.07615 37.3257 5.62427 36.4386C6.32512 35.3099 6.98531 34.1573 7.63764 33.0184C7.80496 32.7262 7.97176 32.435 8.13859 32.1453C8.3552 31.772 8.55312 31.3673 8.76475 30.9346C8.84219 30.7763 8.92146 30.6142 9.00416 30.4485L9.41368 29.6281L8.63172 29.1492L4.99477 26.9216L16.7546 27.6481L16.8202 27.6521L16.8857 27.6476C17.139 27.6299 17.3923 27.6806 17.6194 27.7943C17.8455 27.9076 18.0376 28.0793 18.1757 28.2921C19.6779 30.6597 21.2005 33.0148 22.7213 35.3673C23.3434 36.3295 23.9651 37.2912 24.5851 38.2532C24.4625 38.1822 24.3323 38.1126 24.1952 38.0487C23.6125 37.7772 23.0739 37.4635 22.4966 37.1272C22.168 36.9358 21.8269 36.7371 21.458 36.5347L20.7649 36.1545L20.235 36.7411C18.5134 38.6468 17.1394 40.8404 16.1755 43.222Z" stroke="#F4F4F4" stroke-width="2"/>
<path d="M36.2201 14.0917L35.3995 12.697L34.5191 14.0548C33.488 15.6453 32.4735 17.213 31.4665 18.7692C29.5468 21.7358 27.6542 24.6606 25.725 27.621L15.4438 20.825C15.7881 20.2333 16.0692 19.7528 16.3865 19.2797L16.3865 19.2797L16.3892 19.2756C16.6688 18.8544 16.9481 18.4333 17.2273 18.0123C19.4567 14.651 21.6796 11.2996 23.9544 7.97445L23.9697 7.95204L23.9838 7.92884C24.6999 6.74949 25.7287 5.79258 26.9552 5.16454C28.1817 4.5365 29.5581 4.26185 30.931 4.37104L30.9423 4.37193L30.9535 4.37257C32.4422 4.4573 33.9378 4.4541 35.4093 4.44169C35.5972 4.44011 35.7847 4.43838 35.9717 4.43665C37.2584 4.42476 38.5243 4.41306 39.7862 4.45093L39.8036 4.45145L39.821 4.45137C42.0501 4.44061 44.2162 5.19258 45.9608 6.58288C46.414 6.9695 46.7883 7.4404 47.0631 7.96973L47.0656 7.97457C47.6601 9.10464 48.2027 10.2186 48.7502 11.3424C49.0929 12.0459 49.4375 12.7533 49.7978 13.4709L49.8166 13.5083L49.8385 13.5441C50.0497 13.8892 50.2787 14.2232 50.5245 14.5447L51.0143 15.1854L51.7443 14.8423L55.3861 13.1305C53.7074 15.4187 52.0239 17.7022 50.3356 19.9809C50.0472 20.3507 49.7861 20.7023 49.535 21.0404C49.0851 21.6461 48.6672 22.2088 48.1818 22.7566L48.1771 22.7619L48.1725 22.7673C47.9857 22.9843 47.7285 23.1268 47.4476 23.1706C44.3427 23.2135 41.2405 23.199 38.1292 23.1844C37.2185 23.1801 36.3071 23.1758 35.3945 23.173C35.5254 23.1056 35.6589 23.0302 35.7902 22.9444C36.7275 22.3865 37.695 21.8811 38.6882 21.4306L39.5613 21.0346L39.2025 20.1456C38.3592 18.0565 37.3623 16.033 36.2201 14.0917Z" stroke="#F4F4F4" stroke-width="2"/>
<path d="M63.1751 36.9832L63.1811 36.9939L63.1875 37.0043C63.9865 38.321 64.4406 39.8187 64.5073 41.3583L64.5078 41.3689L64.5085 41.3796C64.5675 42.2922 64.4279 43.2066 64.0995 44.0596C62.8582 46.8064 61.5121 49.5061 60.061 52.1589L60.0573 52.1657L60.0537 52.1725C58.9653 54.237 57.3935 56.0061 55.473 57.3282L55.4687 57.3312C54.5826 57.9481 53.51 58.2367 52.4351 58.1477L52.4149 58.146L52.3947 58.1452C50.9912 58.086 49.5412 58.1049 48.0503 58.1244C47.2932 58.1343 46.5256 58.1443 45.7482 58.1443H44.7935L44.7493 59.0979C44.6805 60.5784 44.6161 61.9643 44.5532 63.3119C43.6409 61.4651 42.739 59.62 41.8363 57.7733C40.963 55.9867 40.089 54.1985 39.2039 52.4057L39.1767 52.3505L39.1428 52.299C39.0887 52.2166 39.0578 52.1209 39.0537 52.0221C39.0496 51.9232 39.0724 51.8252 39.1196 51.7385L39.1243 51.7299L39.1288 51.7211C40.0161 50.0112 40.8881 48.3077 41.7589 46.6067C42.7503 44.67 43.74 42.7366 44.7487 40.8008C44.7479 40.9631 44.7457 41.1267 44.7428 41.2922C44.7406 41.4198 44.738 41.5491 44.7353 41.68C44.7152 42.6541 44.6933 43.7149 44.8457 44.8152L44.9548 45.6029L45.7469 45.674C47.9385 45.8706 50.1407 45.9232 52.3392 45.8315L53.8222 45.7696L53.2079 44.4185C52.4145 42.6734 51.499 40.9866 50.4682 39.3709C49.8856 38.2456 49.1832 37.0884 48.5173 35.9914C48.178 35.4323 47.8481 34.8888 47.5484 34.3732C47.2088 33.7888 46.8699 33.1884 46.5212 32.5706C46.0864 31.8001 45.6362 31.0026 45.1503 30.1754C48.7064 28.0783 52.2199 26.1021 55.8617 24.1259C55.9126 24.2106 55.9632 24.2948 56.0135 24.3783C56.6023 25.357 57.1457 26.2603 57.6678 27.1857L57.6678 27.1857L57.6719 27.1929C58.6033 28.8119 59.5107 30.4431 60.4207 32.0799L60.4771 32.1815C61.3672 33.7827 62.2603 35.3892 63.1751 36.9832Z" stroke="#F4F4F4" stroke-width="2"/>
</svg>
