<svg width="193" height="79" viewBox="0 0 193 79" fill="none" xmlns="http://www.w3.org/2000/svg">
<path d="M0.933594 1.20941V78.0757H8.81731V1.20941H0.933594Z" fill="#F4F4F4"/>
<path d="M12.7598 1.2094V78.0757H18.0156V1.2094H12.7598Z" fill="#F4F4F4"/>
<path d="M32.4688 47.1975V77.4185H37.7246V47.1975H32.4688Z" fill="#F4F4F4"/>
<path d="M167.795 1.5V77.5H172.795V1.5H167.795Z" fill="#F4F4F4"/>
<path d="M25.8984 47.1975V77.4185H28.5263V47.1975H25.8984Z" fill="#F4F4F4"/>
<path d="M62.6895 47.1975V77.4185H65.3174V47.1975H62.6895Z" fill="#F4F4F4"/>
<path d="M44.2949 47.1975V77.4185H46.9228V47.1975H44.2949Z" fill="#F4F4F4"/>
<path d="M70.5723 47.1975V77.4185H75.8281V47.1975H70.5723Z" fill="#F4F4F4"/>
<path d="M91.5957 47.1975V77.4185H102.107V47.1975H91.5957Z" fill="#F4F4F4"/>
<path d="M116.561 47.1975V77.4185H119.188V47.1975H116.561Z" fill="#F4F4F4"/>
<path d="M161.236 47.1975V77.4185H163.864V47.1975H161.236Z" fill="#F4F4F4"/>
<path d="M133.643 47.1975V77.4185H138.898V47.1975H133.643Z" fill="#F4F4F4"/>
<path d="M142.84 47.1975V77.4185H146.782V47.1975H142.84Z" fill="#F4F4F4"/>
<path d="M178.316 0.552178V77.4185H182.258V0.552178H178.316Z" fill="#F4F4F4"/>
<path d="M184.887 0.552178V77.4185H192.77V0.552178H184.887Z" fill="#F4F4F4"/>
<path d="M42.3896 18.2532H56.9326C57.7976 18.2532 58.4824 18.163 58.987 17.9828C59.5276 17.8026 59.9421 17.5864 60.2305 17.3341C60.5188 17.0457 60.717 16.7214 60.8251 16.3609C60.9333 16.0005 60.9873 15.6221 60.9873 15.2256V15.1716C60.9873 14.8111 60.9333 14.4687 60.8251 14.1444C60.717 13.82 60.5188 13.5316 60.2305 13.2794C59.9421 12.991 59.5276 12.7748 58.987 12.6306C58.4824 12.4504 57.7976 12.3603 56.9326 12.3603H42.3896V18.2532ZM68.7724 22.1457C70.0339 22.2899 71.2413 22.5422 72.3947 22.9026C73.584 23.263 74.6112 23.8036 75.4762 24.5245C76.3773 25.2093 77.0981 26.1103 77.6388 27.2276C78.1794 28.3089 78.4497 29.6424 78.4497 31.2283V38.6349C78.4497 39.4279 78.5038 40.0045 78.6119 40.365C78.72 40.6893 78.8642 40.9777 79.0444 41.23V41.5003H62.0686C61.9965 41.3922 61.9244 41.1579 61.8523 40.7975C61.7803 40.437 61.7442 39.8964 61.7442 39.1756V35.7696C61.7442 34.4721 61.6181 33.4269 61.3658 32.6339C61.1135 31.805 60.699 31.1742 60.1223 30.7417C59.5457 30.2732 58.7707 29.9668 57.7976 29.8227C56.8245 29.6424 55.6171 29.5523 54.1754 29.5523H42.3896V41.5003H25.9004V1.27734H61.3658C64.97 1.27734 67.8714 1.60172 70.0699 2.25048C72.2685 2.86319 73.9625 3.69216 75.1519 4.73738C76.3413 5.74656 77.1162 6.91793 77.4766 8.25148C77.873 9.58504 78.0713 10.9727 78.0713 12.4143V12.6847C78.0713 14.1984 77.7829 15.514 77.2063 16.6313C76.6656 17.7125 75.9448 18.6316 75.0437 19.3885C74.1427 20.1454 73.1335 20.7401 72.0162 21.1726C70.9349 21.6051 69.8537 21.9294 68.7724 22.1457Z" fill="#F4F4F4"/>
<path d="M127.991 1.27734V11.5493H102.473V15.8744H127.18V26.4167H102.473V31.1202H128.369V41.5003H85.9294V1.27734H127.991Z" fill="#F4F4F4"/>
<path d="M143.791 27.6839L144.542 19.4242L137.69 24.2111L133.936 17.6409L141.444 14.1681L133.936 10.6953L137.69 4.12514L144.542 8.91198L143.791 0.652344H151.3L150.549 8.91198L157.4 4.12514L161.155 10.6953L153.646 14.1681L161.155 17.6409L157.4 24.2111L150.549 19.4242L151.3 27.6839H143.791Z" fill="#F4F4F4"/>
</svg>
