<svg width="179" height="21" viewBox="0 0 179 21" fill="none" xmlns="http://www.w3.org/2000/svg">
<path d="M0.5 20.8892V0L3.48999 0V20.8892H0.5Z" fill="#F4F4F4"/>
<path d="M4.6875 20.8892V0L6.033 0V20.8892H4.6875Z" fill="#F4F4F4"/>
<path d="M8.57324 20.8892V0L9.91874 0V20.8892H8.57324Z" fill="#F4F4F4"/>
<path d="M15.2998 20.8892V0L17.9908 0V20.8892H15.2998Z" fill="#F4F4F4"/>
<path d="M21.8145 20.8813V0L23.1408 0V20.8813H21.8145Z" fill="#F4F4F4"/>
<path d="M27.125 20.8813V0L28.4514 0V20.8813H27.125Z" fill="#F4F4F4"/>
<path d="M29.7764 20.8813V0L31.1027 0V20.8813H29.7764Z" fill="#F4F4F4"/>
<path d="M36.7383 20.8813V0L38.0647 0V20.8813H36.7383Z" fill="#F4F4F4"/>
<path d="M39.3896 20.8813V0L40.716 0V20.8813H39.3896Z" fill="#F4F4F4"/>
<path d="M44.6963 20.8813V0L47.349 0V20.8813H44.6963Z" fill="#F4F4F4"/>
<path d="M49.999 20.8813V0L51.3254 0V20.8813H49.999Z" fill="#F4F4F4"/>
<path d="M55.3057 20.8813V0L56.632 0V20.8813H55.3057Z" fill="#F4F4F4"/>
<path d="M59.2881 20.8813V0L61.9408 0V20.8813H59.2881Z" fill="#F4F4F4"/>
<path d="M63.2666 20.8813V0L67.2457 0V20.8813H63.2666Z" fill="#F4F4F4"/>
<path d="M71.2246 20.8813V0L72.551 0V20.8813H71.2246Z" fill="#F4F4F4"/>
<path d="M75.2031 20.8813V0L76.5295 0V20.8813H75.2031Z" fill="#F4F4F4"/>
<path d="M80.5059 20.8813V0L81.8322 0V20.8813H80.5059Z" fill="#F4F4F4"/>
<path d="M83.4893 20.8813V0L87.4684 0V20.8813H83.4893Z" fill="#F4F4F4"/>
<path d="M88.7959 20.8813V0L90.1223 0V20.8813H88.7959Z" fill="#F4F4F4"/>
<path d="M91.4473 20.8813V0L92.7736 0V20.8813H91.4473Z" fill="#F4F4F4"/>
<path d="M96.7578 20.8813V0L99.4106 0V20.8813H96.7578Z" fill="#F4F4F4"/>
<path d="M103.388 20.8813V0L106.04 0V20.8813H103.388Z" fill="#F4F4F4"/>
<path d="M107.366 20.8813V0L111.345 0V20.8813H107.366Z" fill="#F4F4F4"/>
<path d="M112.673 20.8813V0L113.999 0V20.8813H112.673Z" fill="#F4F4F4"/>
<path d="M117.976 20.8813V0L120.628 0V20.8813H117.976Z" fill="#F4F4F4"/>
<path d="M124.378 20.8813V0L125.704 0V20.8813H124.378Z" fill="#F4F4F4"/>
<path d="M127.029 20.8813V0L128.356 0V20.8813H127.029Z" fill="#F4F4F4"/>
<path d="M132.672 20.8813V0L133.998 0V20.8813H132.672Z" fill="#F4F4F4"/>
<path d="M135.323 20.8813V0L139.302 0V20.8813H135.323Z" fill="#F4F4F4"/>
<path d="M143.871 20.9998V0L145.964 0V20.9998H143.871Z" fill="#F4F4F4"/>
<path d="M147.26 20.8813V0L149.913 0V20.8813H147.26Z" fill="#F4F4F4"/>
<path d="M155.685 20.9998V0L157.778 0V20.9998H155.685Z" fill="#F4F4F4"/>
<path d="M159.27 20.9589V0L160.466 0V20.9589H159.27Z" fill="#F4F4F4"/>
<path d="M161.809 20.9589V0L164.5 0V20.9589H161.809Z" fill="#F4F4F4"/>
</svg>
