<svg width="540" height="788" viewBox="0 0 540 788" fill="none" xmlns="http://www.w3.org/2000/svg">
<path fill-rule="evenodd" clip-rule="evenodd" d="M198.612 10C198.612 4.47715 203.09 0 208.612 0H331.387C336.91 0 341.387 4.47715 341.387 10V74.8169C341.387 80.3397 336.91 84.8169 331.387 84.8169H208.612C203.09 84.8169 198.612 80.3397 198.612 74.8169V10ZM325.251 84.8171C326.356 84.8171 327.251 85.7125 327.251 86.8171V99.7802C327.251 100.885 328.147 101.78 329.251 101.78L530 101.78C535.523 101.78 540 106.257 540 111.78V279.79C540 285.313 535.523 289.79 530 289.79L511.608 289.79C510.503 289.79 509.608 290.685 509.608 291.79V446.115C509.608 447.219 508.712 448.115 507.608 448.115H29.5657C28.4612 448.115 27.5657 447.219 27.5657 446.115V291.79C27.5657 290.685 26.6703 289.79 25.5657 289.79L9.99999 289.79C4.47715 289.79 0 285.313 0 279.79V111.78C0 106.257 4.47715 101.78 10 101.78H209.335C210.44 101.78 211.335 100.885 211.335 99.7801V86.8171C211.335 85.7125 212.231 84.8171 213.335 84.8171H325.251ZM0 458.115C0 452.592 4.47715 448.115 10 448.115H530C535.523 448.115 540 452.592 540 458.115V777.382C540 782.905 535.523 787.382 530 787.382H9.99999C4.47715 787.382 0 782.905 0 777.382V458.115Z" fill="#6A38AB"/>
<rect x="198.612" y="6.10352e-05" width="142.775" height="84.8169" rx="10" fill="#2AA125"/>
</svg>
