<svg width="502" height="503" viewBox="0 0 502 503" fill="none" xmlns="http://www.w3.org/2000/svg">
<rect x="1.48047" y="2.18066" width="498.518" height="498.518" rx="26.9469" fill="#F4F4F4" stroke="black" stroke-width="2.69469"/>
<path d="M99.6836 61.8776V108.039H105.133V61.8776H99.6836Z" fill="black"/>
<path d="M107.23 61.8776V108.039H109.746V61.8776H107.23Z" fill="black"/>
<path d="M114.355 61.8776V108.039H116.758V61.8776H114.355Z" fill="black"/>
<path d="M126.512 61.8776V108.039H131.318V61.8776H126.512Z" fill="black"/>
<path d="M138.301 61.8791V108.041H140.704V61.8791H138.301Z" fill="black"/>
<path d="M147.91 84.6396V108.041H150.313V84.6396H147.91Z" fill="black"/>
<path d="M152.719 84.6396V108.041H155.122V84.6396H152.719Z" fill="black"/>
<path d="M165.332 84.6396V108.041H167.735V84.6396H165.332Z" fill="black"/>
<path d="M170.137 84.6396V108.041H172.54V84.6396H170.137Z" fill="black"/>
<path d="M179.75 84.6396V108.041H184.556V84.6396H179.75Z" fill="black"/>
<path d="M189.363 84.6396V108.041H191.766V84.6396H189.363Z" fill="black"/>
<path d="M198.973 84.6396V108.041H201.376V84.6396H198.973Z" fill="black"/>
<path d="M206.184 84.6396V108.041H210.989V84.6396H206.184Z" fill="black"/>
<path d="M213.391 84.6396V108.041H220.599V84.6396H213.391Z" fill="black"/>
<path d="M227.809 84.6396V108.041H230.212V84.6396H227.809Z" fill="black"/>
<path d="M235.02 84.6396V108.041H237.422V84.6396H235.02Z" fill="black"/>
<path d="M244.633 84.6396V108.041H247.036V84.6396H244.633Z" fill="black"/>
<path d="M250.035 84.6396V108.041H257.244V84.6396H250.035Z" fill="black"/>
<path d="M259.645 84.6396V108.041H262.047V84.6396H259.645Z" fill="black"/>
<path d="M264.453 84.6396V108.041H266.856V84.6396H264.453Z" fill="black"/>
<path d="M274.062 84.6396V108.041H278.868V84.6396H274.062Z" fill="black"/>
<path d="M286.082 84.6396V108.041H290.888V84.6396H286.082Z" fill="black"/>
<path d="M293.289 84.6396V108.041H300.498V84.6396H293.289Z" fill="black"/>
<path d="M302.898 84.6396V108.041H305.301V84.6396H302.898Z" fill="black"/>
<path d="M312.512 84.6396V108.041H317.318V84.6396H312.512Z" fill="black"/>
<path d="M324.109 84.6396V108.041H326.512V84.6396H324.109Z" fill="black"/>
<path d="M328.91 84.6396V108.041H331.313V84.6396H328.91Z" fill="black"/>
<path d="M339.121 84.6396V108.041H341.524V84.6396H339.121Z" fill="black"/>
<path d="M343.934 84.6396V108.041H351.142V84.6396H343.934Z" fill="black"/>
<path d="M359.449 61.7688V107.93H363.226V61.7688H359.449Z" fill="black"/>
<path d="M365.555 61.8791V108.041H370.361V61.8791H365.555Z" fill="black"/>
<path d="M380.848 61.7688V107.93H384.624V61.7688H380.848Z" fill="black"/>
<path d="M387.18 61.8791V108.041H389.583V61.8791H387.18Z" fill="black"/>
<path d="M391.988 61.8791V108.041H396.794V61.8791H391.988Z" fill="black"/>
<path d="M99.6836 61.8776V108.039H105.133V61.8776H99.6836Z" fill="black"/>
<path d="M107.23 61.8776V108.039H109.746V61.8776H107.23Z" fill="black"/>
<path d="M114.355 61.8776V108.039H116.758V61.8776H114.355Z" fill="black"/>
<path d="M126.512 61.8776V108.039H131.318V61.8776H126.512Z" fill="black"/>
<path d="M138.301 61.8791V108.041H140.704V61.8791H138.301Z" fill="black"/>
<path d="M147.91 84.6396V108.041H150.313V84.6396H147.91Z" fill="black"/>
<path d="M152.719 84.6396V108.041H155.122V84.6396H152.719Z" fill="black"/>
<path d="M165.332 84.6396V108.041H167.735V84.6396H165.332Z" fill="black"/>
<path d="M170.137 84.6396V108.041H172.54V84.6396H170.137Z" fill="black"/>
<path d="M179.75 84.6396V108.041H184.556V84.6396H179.75Z" fill="black"/>
<path d="M189.363 84.6396V108.041H191.766V84.6396H189.363Z" fill="black"/>
<path d="M198.973 84.6396V108.041H201.376V84.6396H198.973Z" fill="black"/>
<path d="M206.184 84.6396V108.041H210.989V84.6396H206.184Z" fill="black"/>
<path d="M213.391 84.6396V108.041H220.599V84.6396H213.391Z" fill="black"/>
<path d="M227.809 84.6396V108.041H230.212V84.6396H227.809Z" fill="black"/>
<path d="M235.02 84.6396V108.041H237.422V84.6396H235.02Z" fill="black"/>
<path d="M244.633 84.6396V108.041H247.036V84.6396H244.633Z" fill="black"/>
<path d="M250.035 84.6396V108.041H257.244V84.6396H250.035Z" fill="black"/>
<path d="M259.645 84.6396V108.041H262.047V84.6396H259.645Z" fill="black"/>
<path d="M264.453 84.6396V108.041H266.856V84.6396H264.453Z" fill="black"/>
<path d="M274.062 84.6396V108.041H278.868V84.6396H274.062Z" fill="black"/>
<path d="M286.082 84.6396V108.041H290.888V84.6396H286.082Z" fill="black"/>
<path d="M293.289 84.6396V108.041H300.498V84.6396H293.289Z" fill="black"/>
<path d="M302.898 84.6396V108.041H305.301V84.6396H302.898Z" fill="black"/>
<path d="M312.512 84.6396V108.041H317.318V84.6396H312.512Z" fill="black"/>
<path d="M324.109 84.6396V108.041H326.512V84.6396H324.109Z" fill="black"/>
<path d="M328.91 84.6396V108.041H331.313V84.6396H328.91Z" fill="black"/>
<path d="M339.121 84.6396V108.041H341.524V84.6396H339.121Z" fill="black"/>
<path d="M343.934 84.6396V108.041H351.142V84.6396H343.934Z" fill="black"/>
<path d="M359.449 61.7688V107.93H363.226V61.7688H359.449Z" fill="black"/>
<path d="M365.555 61.8791V108.041H370.361V61.8791H365.555Z" fill="black"/>
<path d="M380.848 61.7688V107.93H384.624V61.7688H380.848Z" fill="black"/>
<path d="M387.18 61.8791V108.041H389.583V61.8791H387.18Z" fill="black"/>
<path d="M391.988 61.8791V108.041H396.794V61.8791H391.988Z" fill="black"/>
<path d="M153.672 70.0225H160.897C161.327 70.0225 161.667 69.9778 161.917 69.8883C162.186 69.7987 162.392 69.6913 162.535 69.566C162.678 69.4227 162.777 69.2616 162.831 69.0825C162.884 68.9035 162.911 68.7155 162.911 68.5185V68.4917C162.911 68.3126 162.884 68.1425 162.831 67.9814C162.777 67.8202 162.678 67.677 162.535 67.5516C162.392 67.4084 162.186 67.301 161.917 67.2294C161.667 67.1398 161.327 67.0951 160.897 67.0951H153.672V70.0225ZM166.779 71.9563C167.405 72.0279 168.005 72.1532 168.578 72.3323C169.169 72.5113 169.679 72.7799 170.109 73.138C170.557 73.4782 170.915 73.9258 171.183 74.4809C171.452 75.018 171.586 75.6805 171.586 76.4684V80.1478C171.586 80.5417 171.613 80.8282 171.667 81.0073C171.72 81.1684 171.792 81.3117 171.882 81.437V81.5713H163.448C163.413 81.5176 163.377 81.4012 163.341 81.2221C163.305 81.0431 163.287 80.7745 163.287 80.4164V78.7244C163.287 78.0798 163.225 77.5606 163.099 77.1667C162.974 76.7548 162.768 76.4415 162.481 76.2266C162.195 75.9939 161.81 75.8417 161.327 75.7701C160.843 75.6805 160.243 75.6358 159.527 75.6358H153.672V81.5713H145.481V61.5893H163.099C164.89 61.5893 166.331 61.7504 167.423 62.0727C168.515 62.3771 169.357 62.7889 169.948 63.3082C170.539 63.8095 170.924 64.3914 171.103 65.0539C171.3 65.7164 171.398 66.4057 171.398 67.1219V67.2562C171.398 68.0082 171.255 68.6618 170.968 69.2168C170.7 69.754 170.342 70.2105 169.894 70.5866C169.447 70.9626 168.945 71.258 168.39 71.4728C167.853 71.6877 167.316 71.8489 166.779 71.9563ZM196.197 61.5893V66.6922H183.52V68.8408H195.794V74.078H183.52V76.4146H196.385V81.5713H175.302V61.5893H196.197ZM224.073 67.6322H215.908V61.5893H240.402V67.6322H232.237V81.5713H224.073V67.6322ZM251.975 70.0225H259.2C259.629 70.0225 259.97 69.9778 260.22 69.8883C260.489 69.7987 260.695 69.6913 260.838 69.566C260.981 69.4227 261.08 69.2616 261.133 69.0825C261.187 68.9035 261.214 68.7155 261.214 68.5185V68.4917C261.214 68.3126 261.187 68.1425 261.133 67.9814C261.08 67.8202 260.981 67.677 260.838 67.5516C260.695 67.4084 260.489 67.301 260.22 67.2294C259.97 67.1398 259.629 67.0951 259.2 67.0951H251.975V70.0225ZM265.082 71.9563C265.708 72.0279 266.308 72.1532 266.881 72.3323C267.472 72.5113 267.982 72.7799 268.412 73.138C268.859 73.4782 269.218 73.9258 269.486 74.4809C269.755 75.018 269.889 75.6805 269.889 76.4684V80.1478C269.889 80.5417 269.916 80.8282 269.97 81.0073C270.023 81.1684 270.095 81.3117 270.184 81.437V81.5713H261.751C261.715 81.5176 261.68 81.4012 261.644 81.2221C261.608 81.0431 261.59 80.7745 261.59 80.4164V78.7244C261.59 78.0798 261.527 77.5606 261.402 77.1667C261.277 76.7548 261.071 76.4415 260.784 76.2266C260.498 75.9939 260.113 75.8417 259.629 75.7701C259.146 75.6805 258.546 75.6358 257.83 75.6358H251.975V81.5713H243.783V61.5893H261.402C263.193 61.5893 264.634 61.7504 265.726 62.0727C266.818 62.3771 267.66 62.7889 268.251 63.3082C268.842 63.8095 269.227 64.3914 269.406 65.0539C269.603 65.7164 269.701 66.4057 269.701 67.1219V67.2562C269.701 68.0082 269.558 68.6618 269.271 69.2168C269.003 69.754 268.645 70.2105 268.197 70.5866C267.749 70.9626 267.248 71.258 266.693 71.4728C266.156 71.6877 265.619 71.8489 265.082 71.9563ZM285.718 67.4979L282.951 73.5677H288.457L285.718 67.4979ZM290.74 78.5901H280.668L279.299 81.5713H271.107L280.588 61.5893H291.196L300.785 81.5713H292.11L290.74 78.5901ZM313.739 81.8936C311.859 81.8936 310.239 81.7861 308.878 81.5713C307.535 81.3564 306.407 81.0699 305.494 80.7118C304.581 80.3537 303.846 79.9419 303.291 79.4764C302.736 79.0109 302.316 78.5185 302.029 77.9992C301.743 77.48 301.555 76.9607 301.465 76.4415C301.376 75.9043 301.331 75.403 301.331 74.9375V74.8569H310.14C310.158 75.036 310.203 75.2419 310.274 75.4746C310.346 75.7074 310.507 75.9312 310.758 76.1461C311.008 76.3609 311.376 76.5489 311.859 76.7101C312.36 76.8533 313.041 76.9249 313.9 76.9249H314.061C314.885 76.9249 315.547 76.8802 316.049 76.7906C316.55 76.7011 316.935 76.5847 317.204 76.4415C317.472 76.2983 317.642 76.1371 317.714 75.9581C317.803 75.779 317.848 75.6 317.848 75.4209C317.848 75.224 317.812 75.036 317.741 74.8569C317.669 74.6779 317.508 74.5257 317.257 74.4003C317.007 74.275 316.64 74.1765 316.156 74.1049C315.691 74.0154 315.055 73.9616 314.249 73.9437L311.376 73.89C309.406 73.8542 307.795 73.6662 306.541 73.326C305.288 72.9679 304.294 72.5024 303.56 71.9294C302.844 71.3565 302.342 70.7029 302.056 69.9688C301.787 69.2347 301.653 68.4559 301.653 67.6322V67.4174C301.653 66.5042 301.823 65.6716 302.163 64.9196C302.521 64.1676 303.139 63.523 304.017 62.9859C304.894 62.4487 306.067 62.0369 307.535 61.7504C309.003 61.446 310.856 61.2938 313.094 61.2938H314.357C316.863 61.2938 318.887 61.4908 320.427 61.8847C321.966 62.2607 323.157 62.762 323.999 63.3887C324.84 63.9975 325.395 64.6958 325.664 65.4836C325.95 66.2535 326.093 67.0234 326.093 67.7934V67.8471H317.472C317.436 67.668 317.365 67.48 317.257 67.2831C317.168 67.0682 316.989 66.8713 316.72 66.6922C316.47 66.5132 316.102 66.3699 315.619 66.2625C315.153 66.1551 314.545 66.1013 313.793 66.1013H313.605C312.835 66.1013 312.217 66.1371 311.752 66.2088C311.286 66.2625 310.928 66.352 310.677 66.4773C310.427 66.6027 310.256 66.7459 310.167 66.9071C310.095 67.0682 310.06 67.2473 310.06 67.4442C310.06 67.6412 310.104 67.8202 310.194 67.9814C310.283 68.1425 310.444 68.2858 310.677 68.4111C310.928 68.5185 311.277 68.608 311.725 68.6797C312.172 68.7334 312.754 68.7692 313.47 68.7871L316.425 68.8408C318.466 68.8766 320.131 69.0467 321.42 69.3511C322.709 69.6376 323.721 70.0404 324.455 70.5597C325.189 71.0789 325.691 71.7056 325.959 72.4397C326.246 73.1738 326.389 74.0064 326.389 74.9375V75.2598C326.389 76.1192 326.246 76.9518 325.959 77.7575C325.691 78.5453 325.127 79.2526 324.267 79.8793C323.408 80.488 322.19 80.9804 320.615 81.3564C319.039 81.7145 316.953 81.8936 314.357 81.8936H313.739ZM329.812 61.5893H338.003V68.4111H347.564V61.5893H355.729V81.5713H347.564V74.266H338.003V81.5713H329.812V61.5893Z" fill="black"/>
<path d="M203.665 75.693L204.046 71.4965L200.565 73.9286L198.658 70.5905L202.473 68.826L198.658 67.0616L200.565 63.7235L204.046 66.1555L203.665 61.959H207.48L207.098 66.1555L210.579 63.7235L212.487 67.0616L208.672 68.826L212.487 70.5905L210.579 73.9286L207.098 71.4965L207.48 75.693H203.665Z" fill="black"/>
</svg>
