<svg width="511" height="189" viewBox="0 0 511 189" fill="none" xmlns="http://www.w3.org/2000/svg">
<path d="M23.2956 51.8467H13.8485V91.8275H0V0.855225H13.8485V37.3083H23.2956V0.855225H37.1441V91.9344H23.2956V51.8467Z" fill="white"/>
<path d="M60.9765 92.8965H58.2926C47.2353 92.8965 41.3309 86.9101 41.3309 75.6855V57.4055H55.0721V73.3337C55.0721 77.5028 56.4677 79.7477 59.5809 79.7477C62.9088 79.7477 64.0897 77.5028 64.0897 71.944V69.9129C64.0897 63.392 63.4456 61.1471 58.4 54.6261L49.7044 43.1878C43.8 35.5979 42.0824 29.7183 42.0824 20.6318V17.7455C42.0824 5.66572 48.2015 0 59.1515 0H61.7279C73.1074 0 77.6162 5.02432 77.6162 15.8213V30.7873H64.1971V17.6386C64.1971 14.5385 63.5529 12.2936 60.225 12.2936C56.8971 12.2936 56.1456 14.3247 56.1456 18.7076V20.418C56.1456 25.5492 57.1118 28.3286 61.8353 34.4219L70.6382 45.7534C76.8647 53.8778 78.9044 58.4746 78.9044 68.737V71.6233C78.9044 84.9859 73.1074 92.8965 60.9765 92.8965Z" fill="white"/>
<path d="M114.438 0.855225V14.1109H96.725V37.9497H110.574V51.7398H96.725V78.0373H115.19V91.8275H82.8765V0.855225H114.438Z" fill="white"/>
<path d="M152.656 74.7234H142.565L140.74 91.8275H128.287L139.451 0.748291H155.876L167.793 91.8275H154.374L152.656 74.7234ZM151.153 61.147L147.503 27.4734L143.96 61.147H151.153Z" fill="white"/>
<path d="M184.003 91.9344H170.154V0.855225H192.699C201.931 0.855225 206.547 4.81054 206.547 14.9661V31.1081C206.547 38.698 203.004 41.5843 200.535 42.7602C203.649 44.1499 206.547 46.6086 206.547 52.7019V84.6652C206.547 88.2998 207.299 90.0102 207.943 91.3999V92.0413H194.201C193.557 91.0792 192.806 89.4757 192.806 84.5583V56.978C192.806 52.9157 192.054 51.2053 187.653 51.2053H184.11L184.003 91.9344ZM184.003 38.2704H187.653C191.518 38.2704 192.699 35.8117 192.699 31.7495V19.0283C192.699 15.073 191.84 13.1488 187.653 13.1488H184.003V38.2704Z" fill="white"/>
<path d="M234.566 14.004V91.8275H220.825V14.004H209.124V0.855225H246.268V14.1109L234.566 14.004Z" fill="white"/>
<path d="M283.412 74.7234H273.321L271.496 91.8275H259.043L270.207 0.748291H286.632L298.549 91.8275H285.129L283.412 74.7234ZM281.909 61.147L278.259 27.4734L274.716 61.147H281.909Z" fill="white"/>
<path d="M313.363 0.855225L325.279 49.7087V0.855225H337.947V91.9344H326.675L313.363 39.5532V91.9344H300.803V0.855225H313.363Z" fill="white"/>
<path d="M343.1 0.855225H364.463C376.379 0.855225 380.029 7.58995 380.029 18.3869V73.8682C380.029 84.9859 375.843 91.9344 364.463 91.9344H343.207V0.855225H343.1ZM357.056 78.6787H360.384C364.571 78.6787 365.751 76.4338 365.751 71.6233V20.3111C365.751 15.073 364.356 13.2557 360.921 13.2557H356.948V78.6787H357.056V78.6787Z" fill="white"/>
<path d="M0 96.638H21.2559C33.1721 96.638 36.8221 103.373 36.8221 114.17V169.651C36.8221 180.769 32.6353 187.717 21.2559 187.717H0V96.638ZM13.8485 174.568H17.1765C21.3632 174.568 22.5441 172.324 22.5441 167.513V116.201C22.5441 110.963 21.1485 109.145 17.7132 109.145H13.7412V174.568H13.8485Z" fill="white"/>
<path d="M73.4294 96.638V109.894H55.7162V133.732H69.5647V147.523H55.7162V173.82H74.1809V187.61H41.7603V96.638H73.4294Z" fill="white"/>
<path d="M96.2956 188.679H93.6118C82.5544 188.679 76.65 182.693 76.65 171.468V153.188H90.3912V169.117C90.3912 173.286 91.7868 175.531 94.9 175.531C98.2279 175.531 99.4088 173.286 99.4088 167.727V165.696C99.4088 159.175 98.7647 156.93 93.7191 150.409L84.9162 139.184C79.0118 131.594 77.2941 125.715 77.2941 116.628V113.742C77.2941 101.662 83.4132 95.9966 94.3632 95.9966H96.9397C108.426 95.9966 112.828 101.021 112.828 111.818V126.784H99.4088V113.635C99.4088 110.535 98.7647 108.29 95.4368 108.29C92.1088 108.29 91.3573 110.321 91.3573 114.704V116.415C91.3573 121.546 92.3235 124.325 97.047 130.419L105.85 141.75C112.076 149.874 114.116 154.471 114.116 164.734V167.62C114.224 180.769 108.426 188.679 96.2956 188.679Z" fill="white"/>
<path d="M132.044 187.717H118.196V96.638H132.044V187.717Z" fill="white"/>
<path d="M150.079 189C141.921 189 136.768 181.731 136.768 172.323V115.346C136.768 105.19 140.74 95.7828 153.837 95.7828H156.521C171.443 95.7828 173.16 105.404 173.16 116.201V125.501H159.634V115.239C159.634 111.176 158.668 109.038 155.232 109.038C152.334 109.038 150.938 111.283 150.938 115.239V168.475C150.938 172.751 152.656 174.996 155.447 174.996C158.99 174.996 160.6 172.537 160.6 169.116V146.347H154.374V132.343H173.804V187.717H165.968C165.86 187.183 164.787 182.693 163.606 178.738C162.64 181.838 157.916 188.893 150.938 188.893H150.079V189V189Z" fill="white"/>
<path d="M191.196 96.638L203.112 145.492V96.638H215.779V187.717H204.507L191.196 135.336V187.717H178.635V96.638H191.196Z" fill="white"/>
<path d="M252.065 188.679H249.381C238.324 188.679 232.419 182.693 232.419 171.468V153.188H246.16V169.117C246.16 173.286 247.556 175.531 250.669 175.531C253.997 175.531 255.178 173.286 255.178 167.727V165.696C255.178 159.175 254.534 156.93 249.488 150.409L240.685 139.184C234.781 131.594 233.063 125.715 233.063 116.628V113.742C233.063 101.662 239.182 95.9966 250.132 95.9966H252.709C264.088 95.9966 268.597 101.021 268.597 111.818V126.784H255.178V113.635C255.178 110.535 254.534 108.29 251.206 108.29C247.878 108.29 247.126 110.321 247.126 114.704V116.415C247.126 121.546 248.093 124.325 252.816 130.419L261.619 141.75C267.846 149.874 269.885 154.471 269.885 164.734V167.62C269.993 180.769 264.196 188.679 252.065 188.679Z" fill="white"/>
<path d="M296.616 169.223V148.057H310.25V169.117C310.25 178.951 307.029 188.786 293.61 188.786H290.497C276.434 188.786 273.428 178.738 273.428 169.544V113.956C273.428 104.656 277.507 95.6759 290.068 95.6759H293.288C308.532 95.6759 310.25 105.725 310.25 114.597V130.846H296.616V114.811C296.616 110.856 295.435 108.825 291.893 108.825C288.457 108.825 287.599 110.749 287.599 114.811V168.903C287.599 172.965 288.994 175.103 292 175.103C295.435 175.424 296.616 172.965 296.616 169.223Z" fill="white"/>
<path d="M338.054 147.736H328.607V187.717H314.759V96.638H328.607V133.091H338.054V96.638H351.903V187.717H338.054V147.736Z" fill="white"/>
<path d="M394.737 167.406C394.737 180.127 390.443 188.786 377.024 188.786H374.662C361.35 188.786 356.734 180.127 356.734 167.406V116.735C356.734 104.121 361.565 95.7828 374.554 95.7828H376.916C390.443 95.7828 394.737 104.121 394.737 116.628V167.406V167.406ZM380.566 115.987C380.566 111.176 378.956 109.038 375.735 109.038C372.193 109.038 370.797 111.39 370.797 115.987V168.368C370.797 172.324 371.871 175.317 375.843 175.317C379.493 175.317 380.566 172.217 380.566 168.368V115.987V115.987Z" fill="white"/>
<path d="M437.141 167.406C437.141 180.127 432.847 188.786 419.428 188.786H417.066C403.754 188.786 399.138 180.127 399.138 167.406V116.735C399.138 104.121 403.969 95.7828 416.959 95.7828H419.321C432.847 95.7828 437.141 104.121 437.141 116.628V167.406V167.406ZM422.971 115.987C422.971 111.176 421.36 109.038 418.14 109.038C414.597 109.038 413.201 111.39 413.201 115.987V168.368C413.201 172.324 414.275 175.317 418.247 175.317C421.897 175.317 422.971 172.217 422.971 168.368V115.987V115.987Z" fill="white"/>
<path d="M455.821 96.638V173.606H472.782V187.717H441.972V96.638H455.821Z" fill="white"/>
</svg>
