<svg width="188" height="346" viewBox="0 0 188 346" fill="none" xmlns="http://www.w3.org/2000/svg">
<path d="M127.8 2.14835L60.2135 2.14835C55.7402 2.14835 52.1121 5.7765 52.1121 10.2497L52.1121 28.8713C52.1121 33.3446 55.7402 36.9727 60.2135 36.9727C60.2645 36.9727 60.3009 37.0091 60.3009 37.0601L60.3009 46.1961C60.3009 47.9373 61.7143 49.3507 63.4555 49.3507L63.4628 49.3507C64.9126 49.3507 65.2842 51.3833 63.9145 51.8787C29.0246 64.4315 3.30698 98.1922 0.290823 138.765C-0.00788239 142.786 2.97185 146.13 6.84771 146.691C6.94242 146.706 6.94242 146.844 6.84771 146.859C2.97185 147.42 -0.000588339 150.764 -0.000588163 154.785L-0.000580188 337.235C-0.000579993 341.708 3.62756 345.336 8.10081 345.336L179.899 345.336C184.372 345.336 188 341.708 188 337.235L188 154.793C188 150.764 185.028 147.427 181.152 146.866C181.057 146.852 181.057 146.713 181.152 146.699C185.028 146.13 188 142.786 187.701 138.772C184.685 98.1995 158.982 64.4315 124.099 51.886C122.73 51.3906 123.101 49.3579 124.551 49.3579C126.292 49.3579 127.706 47.9446 127.706 46.2034L127.706 37.0674C127.706 37.0164 127.742 36.98 127.793 36.98L127.8 36.98C132.274 36.98 135.902 33.3518 135.902 28.8786L135.902 10.257C135.902 5.77649 132.274 2.14835 127.8 2.14835Z" fill="#BDE5EC"/>
<path d="M135.896 11.1914L135.896 26.9766C135.896 33.0517 130.972 37.9766 124.896 37.9766L63.1025 37.9766C57.0273 37.9766 52.1025 33.0517 52.1025 26.9766L52.1025 11.1914C52.1025 5.11628 57.0273 0.19141 63.1025 0.191409L124.896 0.191407C130.972 0.191406 135.896 5.11628 135.896 11.1914Z" fill="#5FCEE7"/>
</svg>
