<svg width="62" height="65" viewBox="0 0 62 65" fill="none" xmlns="http://www.w3.org/2000/svg">
<path d="M55.3078 44.2666V43.7666H55.3075V18.7286C55.3075 12.5683 50.2961 7.55689 44.1354 7.55689H18.5974C12.4371 7.55689 7.42603 12.5683 7.42603 18.7286V44.2666C7.42603 50.4273 12.4371 55.4387 18.5974 55.4383H44.1358C50.2964 55.4383 55.3078 50.4273 55.3078 44.2666ZM18.5974 3.5H44.1354C52.5325 3.5 59.3647 10.3322 59.3644 18.7286V44.2666C59.3644 52.663 52.5325 59.4952 44.1354 59.4952H18.5974C10.201 59.4952 3.36914 52.6634 3.36914 44.2666V18.7286C3.36914 10.3322 10.201 3.5 18.5974 3.5Z" fill="#F4F4F4" stroke="#F4F4F4"/>
<path d="M17.1826 31.4987C17.1826 23.6768 23.5469 17.3125 31.3688 17.3125C39.1908 17.3125 45.5551 23.6768 45.5551 31.4987C45.5551 39.3203 39.1908 45.6843 31.3688 45.6843C23.5469 45.6843 17.1826 39.3203 17.1826 31.4987ZM21.2395 31.4984C21.2395 37.084 25.7833 41.6271 31.3688 41.6271C36.9543 41.6271 41.4982 37.084 41.4982 31.4984C41.4982 25.9125 36.9547 21.3691 31.3688 21.3691C25.783 21.3691 21.2395 25.9125 21.2395 31.4984Z" fill="#F4F4F4" stroke="black"/>
<path d="M46.6644 12.5234C45.6902 12.5234 44.733 12.9179 44.045 13.609C43.3535 14.2967 42.9561 15.2542 42.9561 16.2318C42.9561 17.2065 43.3539 18.1636 44.045 18.8547C44.7327 19.5424 45.6902 19.9402 46.6644 19.9402C47.6421 19.9402 48.5962 19.5424 49.2873 18.8547C49.9784 18.1636 50.3728 17.2061 50.3728 16.2318C50.3728 15.2542 49.9784 14.2967 49.2873 13.609C48.5996 12.9179 47.6421 12.5234 46.6644 12.5234Z" fill="#F4F4F4"/>
</svg>
