<svg width="61" height="61" viewBox="0 0 61 61" fill="none" xmlns="http://www.w3.org/2000/svg">
<g clip-path="url(#clip0_1696_14253)">
<path d="M59.3696 30.4992C59.3696 46.4795 46.415 59.434 30.4348 59.434C14.4545 59.434 1.5 46.4795 1.5 30.4992C1.5 14.519 14.4545 1.56445 30.4348 1.56445C46.415 1.56445 59.3696 14.519 59.3696 30.4992Z" fill="url(#paint0_linear_1696_14253)" stroke="#F4F4F4" stroke-width="3"/>
<path d="M24.8558 44.4477C23.8697 44.4477 24.0374 44.0754 23.6973 43.1365L20.7979 33.5944L43.1167 20.3535" fill="#F4F4F4"/>
<path d="M24.8555 44.4485C25.6163 44.4485 25.9524 44.1006 26.3772 43.6877L30.4352 39.7418L25.3734 36.6895" fill="#F4F4F4"/>
<path d="M25.3728 36.6903L37.638 45.752C39.0377 46.5243 40.0477 46.1243 40.3964 44.4527L45.389 20.9258C45.9 18.8766 44.6078 17.9468 43.2687 18.5547L13.9524 29.859C11.9513 30.6617 11.9632 31.7781 13.5877 32.2755L21.1109 34.6238L38.528 23.6356C39.3502 23.1369 40.105 23.4048 39.4856 23.9546" fill="#F4F4F4"/>
</g>
<defs>
<linearGradient id="paint0_linear_1696_14253" x1="30.4348" y1="0.0644531" x2="30.4348" y2="60.4826" gradientUnits="userSpaceOnUse">
<stop/>
<stop offset="1"/>
</linearGradient>
<clipPath id="clip0_1696_14253">
<rect width="60.8696" height="60.8696" fill="white" transform="translate(0 0.0644531)"/>
</clipPath>
</defs>
</svg>
