<svg width="62" height="61" viewBox="0 0 62 61" fill="none" xmlns="http://www.w3.org/2000/svg">
<g clip-path="url(#clip0_1696_14265)">
<path d="M60.2387 30.4992C60.2387 46.4795 47.2842 59.434 31.3039 59.434C15.3237 59.434 2.36914 46.4795 2.36914 30.4992C2.36914 14.519 15.3237 1.56445 31.3039 1.56445C47.2842 1.56445 60.2387 14.519 60.2387 30.4992Z" fill="url(#paint0_linear_1696_14265)" stroke="#F4F4F4" stroke-width="3"/>
<path d="M32.309 42.0445C21.369 42.0445 15.1291 34.5445 14.8691 22.0645H20.3491C20.5291 31.2245 24.569 35.1045 27.769 35.9045V22.0645H32.9292V29.9645C36.0892 29.6245 39.4088 26.0245 40.5288 22.0645H45.6889C44.8289 26.9445 41.2289 30.5445 38.6689 32.0245C41.2289 33.2245 45.3291 36.3645 46.8891 42.0445H41.2089C39.9889 38.2445 36.9492 35.3045 32.9292 34.9045V42.0445H32.309Z" fill="#F4F4F4"/>
</g>
<defs>
<linearGradient id="paint0_linear_1696_14265" x1="31.3039" y1="0.0644531" x2="31.3039" y2="60.4826" gradientUnits="userSpaceOnUse">
<stop/>
<stop offset="1"/>
</linearGradient>
<clipPath id="clip0_1696_14265">
<rect width="60.8696" height="60.8696" fill="white" transform="translate(0.869141 0.0644531)"/>
</clipPath>
</defs>
</svg>
