<svg width="244" height="203" viewBox="0 0 244 203" fill="none" xmlns="http://www.w3.org/2000/svg">
<rect width="243.215" height="202.373" rx="30" transform="matrix(-1 0 0 1 243.363 0.277832)" fill="black"/>
<path d="M137.722 151.444V125.452C137.722 123.385 139.452 121.697 141.562 121.697L198.148 121.697C200.258 121.697 201.988 120.009 201.988 117.942V84.9872C201.988 82.9196 200.258 81.2318 198.148 81.2318H141.562C139.452 81.2318 137.722 79.544 137.722 77.4764V51.4843C137.722 48.615 134.515 46.8006 131.983 48.2352L43.4532 98.1942C40.8791 99.6289 40.8791 103.258 43.4532 104.692L131.983 154.693C134.557 156.128 137.722 154.314 137.722 151.444Z" fill="#F4F4F4"/>
</svg>
