<svg width="530" height="115" viewBox="0 0 530 115" fill="none" xmlns="http://www.w3.org/2000/svg">
<path d="M13.2168 19.8042V96.8042H21.3139V19.8042H13.2168Z" fill="black"/>
<path d="M25.3633 19.8042V96.8042H29.4118V19.8042H25.3633Z" fill="black"/>
<path d="M37.5078 19.8042V96.8042H41.5563V19.8042H37.5078Z" fill="black"/>
<path d="M57.75 19.8042V96.8042H65.8471V19.8042H57.75Z" fill="black"/>
<path d="M77.9941 19.8042V96.8042H82.0427V19.8042H77.9941Z" fill="black"/>
<path d="M94.1875 57.8042V96.8042H98.236V57.8042H94.1875Z" fill="black"/>
<path d="M102.285 57.8042V96.8042H106.334V57.8042H102.285Z" fill="black"/>
<path d="M123.539 57.8042V96.8042H127.588V57.8042H123.539Z" fill="black"/>
<path d="M131.637 57.8042V96.8042H135.685V57.8042H131.637Z" fill="black"/>
<path d="M147.83 57.8042V96.8042H155.927V57.8042H147.83Z" fill="black"/>
<path d="M164.025 57.8042V96.8042H168.074V57.8042H164.025Z" fill="black"/>
<path d="M180.219 57.8042V96.8042H184.267V57.8042H180.219Z" fill="black"/>
<path d="M192.365 57.8042V96.8042H200.462V57.8042H192.365Z" fill="black"/>
<path d="M204.51 57.8042V96.8042H216.655V57.8042H204.51Z" fill="black"/>
<path d="M228.801 57.8042V96.8042H232.849V57.8042H228.801Z" fill="black"/>
<path d="M240.947 57.8042V96.8042H244.996V57.8042H240.947Z" fill="black"/>
<path d="M257.141 57.8042V96.8042H261.189V57.8042H257.141Z" fill="black"/>
<path d="M266.25 57.8042V96.8042H278.396V57.8042H266.25Z" fill="black"/>
<path d="M282.443 57.8042V96.8042H286.492V57.8042H282.443Z" fill="black"/>
<path d="M290.541 57.8042V96.8042H294.59V57.8042H290.541Z" fill="black"/>
<path d="M306.736 57.8042V96.8042H314.833V57.8042H306.736Z" fill="black"/>
<path d="M326.979 57.8042V96.8042H335.076V57.8042H326.979Z" fill="black"/>
<path d="M339.123 57.8042V96.8042H351.269V57.8042H339.123Z" fill="black"/>
<path d="M355.318 57.8042V96.8042H359.367V57.8042H355.318Z" fill="black"/>
<path d="M371.512 57.8042V96.8042H379.609V57.8042H371.512Z" fill="black"/>
<path d="M391.754 57.8042V96.8042H395.802V57.8042H391.754Z" fill="black"/>
<path d="M399.852 57.8042V96.8042H403.9V57.8042H399.852Z" fill="black"/>
<path d="M417.059 57.8042V96.8042H421.107V57.8042H417.059Z" fill="black"/>
<path d="M425.154 57.8042V96.8042H437.3V57.8042H425.154Z" fill="black"/>
<path d="M449.445 19.8042V96.8042H457.542V19.8042H449.445Z" fill="black"/>
<path d="M461.592 19.8042V96.8042H469.689V19.8042H461.592Z" fill="black"/>
<path d="M481.834 19.8042V96.8042H493.98V19.8042H481.834Z" fill="black"/>
<path d="M498.029 19.8042V96.8042H502.078V19.8042H498.029Z" fill="black"/>
<path d="M506.125 19.8042V96.8042H514.222V19.8042H506.125Z" fill="black"/>
<path d="M103.47 33.4542H115.575C116.295 33.4542 116.865 33.3792 117.285 33.2292C117.735 33.0792 118.08 32.8992 118.32 32.6892C118.56 32.4492 118.725 32.1792 118.815 31.8792C118.905 31.5792 118.95 31.2642 118.95 30.9342V30.8892C118.95 30.5892 118.905 30.3042 118.815 30.0342C118.725 29.7642 118.56 29.5242 118.32 29.3142C118.08 29.0742 117.735 28.8942 117.285 28.7742C116.865 28.6242 116.295 28.5492 115.575 28.5492H103.47V33.4542ZM125.43 36.6942C126.48 36.8142 127.485 37.0242 128.445 37.3242C129.435 37.6242 130.29 38.0742 131.01 38.6742C131.76 39.2442 132.36 39.9942 132.81 40.9242C133.26 41.8242 133.485 42.9342 133.485 44.2542V50.4192C133.485 51.0792 133.53 51.5592 133.62 51.8592C133.71 52.1292 133.83 52.3692 133.98 52.5792V52.8042H119.85C119.79 52.7142 119.73 52.5192 119.67 52.2192C119.61 51.9192 119.58 51.4692 119.58 50.8692V48.0342C119.58 46.9542 119.475 46.0842 119.265 45.4242C119.055 44.7342 118.71 44.2092 118.23 43.8492C117.75 43.4592 117.105 43.2042 116.295 43.0842C115.485 42.9342 114.48 42.8592 113.28 42.8592H103.47V52.8042H89.7445V19.3242H119.265C122.265 19.3242 124.68 19.5942 126.51 20.1342C128.34 20.6442 129.75 21.3342 130.74 22.2042C131.73 23.0442 132.375 24.0192 132.675 25.1292C133.005 26.2392 133.17 27.3942 133.17 28.5942V28.8192C133.17 30.0792 132.93 31.1742 132.45 32.1042C132 33.0042 131.4 33.7692 130.65 34.3992C129.9 35.0292 129.06 35.5242 128.13 35.8842C127.23 36.2442 126.33 36.5142 125.43 36.6942ZM174.72 19.3242V27.8742H153.48V31.4742H174.045V40.2492H153.48V44.1642H175.035V52.8042H139.71V19.3242H174.72ZM221.426 29.4492H207.746V19.3242H248.786V29.4492H235.106V52.8042H221.426V29.4492ZM268.177 33.4542H280.282C281.002 33.4542 281.572 33.3792 281.992 33.2292C282.442 33.0792 282.787 32.8992 283.027 32.6892C283.267 32.4492 283.432 32.1792 283.522 31.8792C283.612 31.5792 283.657 31.2642 283.657 30.9342V30.8892C283.657 30.5892 283.612 30.3042 283.522 30.0342C283.432 29.7642 283.267 29.5242 283.027 29.3142C282.787 29.0742 282.442 28.8942 281.992 28.7742C281.572 28.6242 281.002 28.5492 280.282 28.5492H268.177V33.4542ZM290.137 36.6942C291.187 36.8142 292.192 37.0242 293.152 37.3242C294.142 37.6242 294.997 38.0742 295.717 38.6742C296.467 39.2442 297.067 39.9942 297.517 40.9242C297.967 41.8242 298.192 42.9342 298.192 44.2542V50.4192C298.192 51.0792 298.237 51.5592 298.327 51.8592C298.417 52.1292 298.537 52.3692 298.687 52.5792V52.8042H284.557C284.497 52.7142 284.437 52.5192 284.377 52.2192C284.317 51.9192 284.287 51.4692 284.287 50.8692V48.0342C284.287 46.9542 284.182 46.0842 283.972 45.4242C283.762 44.7342 283.417 44.2092 282.937 43.8492C282.457 43.4592 281.812 43.2042 281.002 43.0842C280.192 42.9342 279.187 42.8592 277.987 42.8592H268.177V52.8042H254.452V19.3242H283.972C286.972 19.3242 289.387 19.5942 291.217 20.1342C293.047 20.6442 294.457 21.3342 295.447 22.2042C296.437 23.0442 297.082 24.0192 297.382 25.1292C297.712 26.2392 297.877 27.3942 297.877 28.5942V28.8192C297.877 30.0792 297.637 31.1742 297.157 32.1042C296.707 33.0042 296.107 33.7692 295.357 34.3992C294.607 35.0292 293.767 35.5242 292.837 35.8842C291.937 36.2442 291.037 36.5142 290.137 36.6942ZM324.712 29.2242L320.077 39.3942H329.302L324.712 29.2242ZM333.127 47.8092H316.252L313.957 52.8042H300.232L316.117 19.3242H333.892L349.957 52.8042H335.422L333.127 47.8092ZM371.662 53.3442C368.513 53.3442 365.798 53.1642 363.518 52.8042C361.268 52.4442 359.378 51.9642 357.848 51.3642C356.318 50.7642 355.088 50.0742 354.158 49.2942C353.228 48.5142 352.523 47.6892 352.043 46.8192C351.563 45.9492 351.248 45.0792 351.098 44.2092C350.948 43.3092 350.873 42.4692 350.873 41.6892V41.5542H365.633C365.663 41.8542 365.738 42.1992 365.858 42.5892C365.978 42.9792 366.248 43.3542 366.668 43.7142C367.088 44.0742 367.703 44.3892 368.513 44.6592C369.353 44.8992 370.493 45.0192 371.933 45.0192H372.203C373.583 45.0192 374.693 44.9442 375.533 44.7942C376.373 44.6442 377.018 44.4492 377.468 44.2092C377.918 43.9692 378.203 43.6992 378.323 43.3992C378.473 43.0992 378.548 42.7992 378.548 42.4992C378.548 42.1692 378.488 41.8542 378.368 41.5542C378.248 41.2542 377.978 40.9992 377.558 40.7892C377.138 40.5792 376.523 40.4142 375.713 40.2942C374.933 40.1442 373.868 40.0542 372.518 40.0242L367.703 39.9342C364.403 39.8742 361.703 39.5592 359.603 38.9892C357.503 38.3892 355.838 37.6092 354.608 36.6492C353.408 35.6892 352.568 34.5942 352.088 33.3642C351.638 32.1342 351.413 30.8292 351.413 29.4492V29.0892C351.413 27.5592 351.698 26.1642 352.268 24.9042C352.868 23.6442 353.903 22.5642 355.373 21.6642C356.843 20.7642 358.808 20.0742 361.268 19.5942C363.728 19.0842 366.833 18.8292 370.583 18.8292H372.697C376.898 18.8292 380.288 19.1592 382.868 19.8192C385.448 20.4492 387.443 21.2892 388.853 22.3392C390.263 23.3592 391.193 24.5292 391.643 25.8492C392.123 27.1392 392.363 28.4292 392.363 29.7192V29.8092H377.918C377.858 29.5092 377.738 29.1942 377.558 28.8642C377.408 28.5042 377.108 28.1742 376.658 27.8742C376.238 27.5742 375.623 27.3342 374.813 27.1542C374.033 26.9742 373.013 26.8842 371.753 26.8842H371.438C370.148 26.8842 369.113 26.9442 368.333 27.0642C367.553 27.1542 366.953 27.3042 366.533 27.5142C366.113 27.7242 365.828 27.9642 365.678 28.2342C365.558 28.5042 365.498 28.8042 365.498 29.1342C365.498 29.4642 365.573 29.7642 365.723 30.0342C365.873 30.3042 366.143 30.5442 366.533 30.7542C366.953 30.9342 367.538 31.0842 368.288 31.2042C369.038 31.2942 370.013 31.3542 371.213 31.3842L376.163 31.4742C379.583 31.5342 382.373 31.8192 384.533 32.3292C386.693 32.8092 388.388 33.4842 389.618 34.3542C390.848 35.2242 391.688 36.2742 392.138 37.5042C392.618 38.7342 392.858 40.1292 392.858 41.6892V42.2292C392.858 43.6692 392.618 45.0642 392.138 46.4142C391.688 47.7342 390.743 48.9192 389.303 49.9692C387.863 50.9892 385.823 51.8142 383.183 52.4442C380.543 53.0442 377.048 53.3442 372.697 53.3442H371.662ZM398.592 19.3242H412.317V30.7542H428.337V19.3242H442.017V52.8042H428.337V40.5642H412.317V52.8042H398.592V19.3242Z" fill="black"/>
<path d="M187.871 41.3042L188.496 34.4292L182.793 38.4136L179.668 32.9448L185.918 30.0542L179.668 27.1636L182.793 21.6948L188.496 25.6792L187.871 18.8042H194.121L193.496 25.6792L199.199 21.6948L202.324 27.1636L196.074 30.0542L202.324 32.9448L199.199 38.4136L193.496 34.4292L194.121 41.3042H187.871Z" fill="black"/>
</svg>
