<svg width="530" height="115" viewBox="0 0 530 115" fill="none" xmlns="http://www.w3.org/2000/svg">
<path d="M13.2148 19.8042V96.8042H21.3119V19.8042H13.2148Z" fill="black"/>
<path d="M25.3613 19.8042V96.8042H29.4099V19.8042H25.3613Z" fill="black"/>
<path d="M37.5059 19.8042V96.8042H41.5544V19.8042H37.5059Z" fill="black"/>
<path d="M57.748 19.8042V96.8042H65.8451V19.8042H57.748Z" fill="black"/>
<path d="M77.9922 19.8042V96.8042H82.0407V19.8042H77.9922Z" fill="black"/>
<path d="M94.1855 57.8042V96.8042H98.2341V57.8042H94.1855Z" fill="black"/>
<path d="M102.283 57.8042V96.8042H106.332V57.8042H102.283Z" fill="black"/>
<path d="M123.537 57.8042V96.8042H127.586V57.8042H123.537Z" fill="black"/>
<path d="M131.635 57.8042V96.8042H135.683V57.8042H131.635Z" fill="black"/>
<path d="M147.828 57.8042V96.8042H155.925V57.8042H147.828Z" fill="black"/>
<path d="M164.023 57.8042V96.8042H168.072V57.8042H164.023Z" fill="black"/>
<path d="M180.217 57.8042V96.8042H184.265V57.8042H180.217Z" fill="black"/>
<path d="M192.363 57.8042V96.8042H200.46V57.8042H192.363Z" fill="black"/>
<path d="M204.508 57.8042V96.8042H216.653V57.8042H204.508Z" fill="black"/>
<path d="M228.799 57.8042V96.8042H232.847V57.8042H228.799Z" fill="black"/>
<path d="M240.945 57.8042V96.8042H244.994V57.8042H240.945Z" fill="black"/>
<path d="M257.139 57.8042V96.8042H261.187V57.8042H257.139Z" fill="black"/>
<path d="M266.248 57.8042V96.8042H278.394V57.8042H266.248Z" fill="black"/>
<path d="M282.441 57.8042V96.8042H286.49V57.8042H282.441Z" fill="black"/>
<path d="M290.539 57.8042V96.8042H294.588V57.8042H290.539Z" fill="black"/>
<path d="M306.734 57.8042V96.8042H314.831V57.8042H306.734Z" fill="black"/>
<path d="M326.977 57.8042V96.8042H335.074V57.8042H326.977Z" fill="black"/>
<path d="M339.121 57.8042V96.8042H351.267V57.8042H339.121Z" fill="black"/>
<path d="M355.316 57.8042V96.8042H359.365V57.8042H355.316Z" fill="black"/>
<path d="M371.51 57.8042V96.8042H379.607V57.8042H371.51Z" fill="black"/>
<path d="M391.752 57.8042V96.8042H395.8V57.8042H391.752Z" fill="black"/>
<path d="M399.85 57.8042V96.8042H403.898V57.8042H399.85Z" fill="black"/>
<path d="M417.057 57.8042V96.8042H421.105V57.8042H417.057Z" fill="black"/>
<path d="M425.152 57.8042V96.8042H437.298V57.8042H425.152Z" fill="black"/>
<path d="M449.443 19.8042V96.8042H457.54V19.8042H449.443Z" fill="black"/>
<path d="M461.59 19.8042V96.8042H469.687V19.8042H461.59Z" fill="black"/>
<path d="M481.832 19.8042V96.8042H493.978V19.8042H481.832Z" fill="black"/>
<path d="M498.027 19.8042V96.8042H502.076V19.8042H498.027Z" fill="black"/>
<path d="M506.123 19.8042V96.8042H514.22V19.8042H506.123Z" fill="black"/>
<path d="M103.468 33.4542H115.573C116.293 33.4542 116.863 33.3792 117.283 33.2292C117.733 33.0792 118.078 32.8992 118.318 32.6892C118.558 32.4492 118.723 32.1792 118.813 31.8792C118.903 31.5792 118.948 31.2642 118.948 30.9342V30.8892C118.948 30.5892 118.903 30.3042 118.813 30.0342C118.723 29.7642 118.558 29.5242 118.318 29.3142C118.078 29.0742 117.733 28.8942 117.283 28.7742C116.863 28.6242 116.293 28.5492 115.573 28.5492H103.468V33.4542ZM125.428 36.6942C126.478 36.8142 127.483 37.0242 128.443 37.3242C129.433 37.6242 130.288 38.0742 131.008 38.6742C131.758 39.2442 132.358 39.9942 132.808 40.9242C133.258 41.8242 133.483 42.9342 133.483 44.2542V50.4192C133.483 51.0792 133.528 51.5592 133.618 51.8592C133.708 52.1292 133.828 52.3692 133.978 52.5792V52.8042H119.848C119.788 52.7142 119.728 52.5192 119.668 52.2192C119.608 51.9192 119.578 51.4692 119.578 50.8692V48.0342C119.578 46.9542 119.473 46.0842 119.263 45.4242C119.053 44.7342 118.708 44.2092 118.228 43.8492C117.748 43.4592 117.103 43.2042 116.293 43.0842C115.483 42.9342 114.478 42.8592 113.278 42.8592H103.468V52.8042H89.7426V19.3242H119.263C122.263 19.3242 124.678 19.5942 126.508 20.1342C128.338 20.6442 129.748 21.3342 130.738 22.2042C131.728 23.0442 132.373 24.0192 132.673 25.1292C133.003 26.2392 133.168 27.3942 133.168 28.5942V28.8192C133.168 30.0792 132.928 31.1742 132.448 32.1042C131.998 33.0042 131.398 33.7692 130.648 34.3992C129.898 35.0292 129.058 35.5242 128.128 35.8842C127.228 36.2442 126.328 36.5142 125.428 36.6942ZM174.718 19.3242V27.8742H153.478V31.4742H174.043V40.2492H153.478V44.1642H175.033V52.8042H139.708V19.3242H174.718ZM221.424 29.4492H207.744V19.3242H248.784V29.4492H235.104V52.8042H221.424V29.4492ZM268.175 33.4542H280.28C281 33.4542 281.57 33.3792 281.99 33.2292C282.44 33.0792 282.785 32.8992 283.025 32.6892C283.265 32.4492 283.43 32.1792 283.52 31.8792C283.61 31.5792 283.655 31.2642 283.655 30.9342V30.8892C283.655 30.5892 283.61 30.3042 283.52 30.0342C283.43 29.7642 283.265 29.5242 283.025 29.3142C282.785 29.0742 282.44 28.8942 281.99 28.7742C281.57 28.6242 281 28.5492 280.28 28.5492H268.175V33.4542ZM290.135 36.6942C291.185 36.8142 292.19 37.0242 293.15 37.3242C294.14 37.6242 294.995 38.0742 295.715 38.6742C296.465 39.2442 297.065 39.9942 297.515 40.9242C297.965 41.8242 298.19 42.9342 298.19 44.2542V50.4192C298.19 51.0792 298.235 51.5592 298.325 51.8592C298.415 52.1292 298.535 52.3692 298.685 52.5792V52.8042H284.555C284.495 52.7142 284.435 52.5192 284.375 52.2192C284.315 51.9192 284.285 51.4692 284.285 50.8692V48.0342C284.285 46.9542 284.18 46.0842 283.97 45.4242C283.76 44.7342 283.415 44.2092 282.935 43.8492C282.455 43.4592 281.81 43.2042 281 43.0842C280.19 42.9342 279.185 42.8592 277.985 42.8592H268.175V52.8042H254.45V19.3242H283.97C286.97 19.3242 289.385 19.5942 291.215 20.1342C293.045 20.6442 294.455 21.3342 295.445 22.2042C296.435 23.0442 297.08 24.0192 297.38 25.1292C297.71 26.2392 297.875 27.3942 297.875 28.5942V28.8192C297.875 30.0792 297.635 31.1742 297.155 32.1042C296.705 33.0042 296.105 33.7692 295.355 34.3992C294.605 35.0292 293.765 35.5242 292.835 35.8842C291.935 36.2442 291.035 36.5142 290.135 36.6942ZM324.71 29.2242L320.075 39.3942H329.3L324.71 29.2242ZM333.125 47.8092H316.25L313.955 52.8042H300.23L316.115 19.3242H333.89L349.955 52.8042H335.42L333.125 47.8092ZM371.661 53.3442C368.511 53.3442 365.796 53.1642 363.516 52.8042C361.266 52.4442 359.376 51.9642 357.846 51.3642C356.316 50.7642 355.086 50.0742 354.156 49.2942C353.226 48.5142 352.521 47.6892 352.041 46.8192C351.561 45.9492 351.246 45.0792 351.096 44.2092C350.946 43.3092 350.871 42.4692 350.871 41.6892V41.5542H365.631C365.661 41.8542 365.736 42.1992 365.856 42.5892C365.976 42.9792 366.246 43.3542 366.666 43.7142C367.086 44.0742 367.701 44.3892 368.511 44.6592C369.351 44.8992 370.491 45.0192 371.931 45.0192H372.201C373.581 45.0192 374.691 44.9442 375.531 44.7942C376.371 44.6442 377.016 44.4492 377.466 44.2092C377.916 43.9692 378.201 43.6992 378.321 43.3992C378.471 43.0992 378.546 42.7992 378.546 42.4992C378.546 42.1692 378.486 41.8542 378.366 41.5542C378.246 41.2542 377.976 40.9992 377.556 40.7892C377.136 40.5792 376.521 40.4142 375.711 40.2942C374.931 40.1442 373.866 40.0542 372.516 40.0242L367.701 39.9342C364.401 39.8742 361.701 39.5592 359.601 38.9892C357.501 38.3892 355.836 37.6092 354.606 36.6492C353.406 35.6892 352.566 34.5942 352.086 33.3642C351.636 32.1342 351.411 30.8292 351.411 29.4492V29.0892C351.411 27.5592 351.696 26.1642 352.266 24.9042C352.866 23.6442 353.901 22.5642 355.371 21.6642C356.841 20.7642 358.806 20.0742 361.266 19.5942C363.726 19.0842 366.831 18.8292 370.581 18.8292H372.696C376.896 18.8292 380.286 19.1592 382.866 19.8192C385.446 20.4492 387.441 21.2892 388.851 22.3392C390.261 23.3592 391.191 24.5292 391.641 25.8492C392.121 27.1392 392.361 28.4292 392.361 29.7192V29.8092H377.916C377.856 29.5092 377.736 29.1942 377.556 28.8642C377.406 28.5042 377.106 28.1742 376.656 27.8742C376.236 27.5742 375.621 27.3342 374.811 27.1542C374.031 26.9742 373.011 26.8842 371.751 26.8842H371.436C370.146 26.8842 369.111 26.9442 368.331 27.0642C367.551 27.1542 366.951 27.3042 366.531 27.5142C366.111 27.7242 365.826 27.9642 365.676 28.2342C365.556 28.5042 365.496 28.8042 365.496 29.1342C365.496 29.4642 365.571 29.7642 365.721 30.0342C365.871 30.3042 366.141 30.5442 366.531 30.7542C366.951 30.9342 367.536 31.0842 368.286 31.2042C369.036 31.2942 370.011 31.3542 371.211 31.3842L376.161 31.4742C379.581 31.5342 382.371 31.8192 384.531 32.3292C386.691 32.8092 388.386 33.4842 389.616 34.3542C390.846 35.2242 391.686 36.2742 392.136 37.5042C392.616 38.7342 392.856 40.1292 392.856 41.6892V42.2292C392.856 43.6692 392.616 45.0642 392.136 46.4142C391.686 47.7342 390.741 48.9192 389.301 49.9692C387.861 50.9892 385.821 51.8142 383.181 52.4442C380.541 53.0442 377.046 53.3442 372.696 53.3442H371.661ZM398.59 19.3242H412.315V30.7542H428.335V19.3242H442.015V52.8042H428.335V40.5642H412.315V52.8042H398.59V19.3242Z" fill="black"/>
<path d="M187.869 41.3042L188.494 34.4292L182.791 38.4136L179.666 32.9448L185.916 30.0542L179.666 27.1636L182.791 21.6948L188.494 25.6792L187.869 18.8042H194.119L193.494 25.6792L199.197 21.6948L202.322 27.1636L196.072 30.0542L202.322 32.9448L199.197 38.4136L193.494 34.4292L194.119 41.3042H187.869Z" fill="black"/>
</svg>
