<svg width="530" height="115" viewBox="0 0 530 115" fill="none" xmlns="http://www.w3.org/2000/svg">
<path d="M13.4023 19.4556V96.4556H21.4994V19.4556H13.4023Z" fill="#F4F4F4"/>
<path d="M25.5488 19.4556V96.4556H29.5974V19.4556H25.5488Z" fill="#F4F4F4"/>
<path d="M37.6934 19.4556V96.4556H41.7419V19.4556H37.6934Z" fill="#F4F4F4"/>
<path d="M57.9355 19.4556V96.4556H66.0326V19.4556H57.9355Z" fill="#F4F4F4"/>
<path d="M78.1797 19.4556V96.4556H82.2282V19.4556H78.1797Z" fill="#F4F4F4"/>
<path d="M94.373 57.4556V96.4556H98.4216V57.4556H94.373Z" fill="#F4F4F4"/>
<path d="M102.471 57.4556V96.4556H106.519V57.4556H102.471Z" fill="#F4F4F4"/>
<path d="M123.725 57.4556V96.4556H127.773V57.4556H123.725Z" fill="#F4F4F4"/>
<path d="M131.822 57.4556V96.4556H135.871V57.4556H131.822Z" fill="#F4F4F4"/>
<path d="M148.016 57.4556V96.4556H156.113V57.4556H148.016Z" fill="#F4F4F4"/>
<path d="M164.211 57.4556V96.4556H168.259V57.4556H164.211Z" fill="#F4F4F4"/>
<path d="M180.404 57.4556V96.4556H184.453V57.4556H180.404Z" fill="#F4F4F4"/>
<path d="M192.551 57.4556V96.4556H200.648V57.4556H192.551Z" fill="#F4F4F4"/>
<path d="M204.695 57.4556V96.4556H216.841V57.4556H204.695Z" fill="#F4F4F4"/>
<path d="M228.986 57.4556V96.4556H233.035V57.4556H228.986Z" fill="#F4F4F4"/>
<path d="M241.133 57.4556V96.4556H245.181V57.4556H241.133Z" fill="#F4F4F4"/>
<path d="M257.326 57.4556V96.4556H261.375V57.4556H257.326Z" fill="#F4F4F4"/>
<path d="M266.436 57.4556V96.4556H278.581V57.4556H266.436Z" fill="#F4F4F4"/>
<path d="M282.629 57.4556V96.4556H286.677V57.4556H282.629Z" fill="#F4F4F4"/>
<path d="M290.727 57.4556V96.4556H294.775V57.4556H290.727Z" fill="#F4F4F4"/>
<path d="M306.922 57.4556V96.4556H315.019V57.4556H306.922Z" fill="#F4F4F4"/>
<path d="M327.164 57.4556V96.4556H335.261V57.4556H327.164Z" fill="#F4F4F4"/>
<path d="M339.309 57.4556V96.4556H351.454V57.4556H339.309Z" fill="#F4F4F4"/>
<path d="M355.504 57.4556V96.4556H359.552V57.4556H355.504Z" fill="#F4F4F4"/>
<path d="M371.697 57.4556V96.4556H379.794V57.4556H371.697Z" fill="#F4F4F4"/>
<path d="M391.939 57.4556V96.4556H395.988V57.4556H391.939Z" fill="#F4F4F4"/>
<path d="M400.037 57.4556V96.4556H404.086V57.4556H400.037Z" fill="#F4F4F4"/>
<path d="M417.244 57.4556V96.4556H421.293V57.4556H417.244Z" fill="#F4F4F4"/>
<path d="M425.34 57.4556V96.4556H437.485V57.4556H425.34Z" fill="#F4F4F4"/>
<path d="M449.631 19.4556V96.4556H457.728V19.4556H449.631Z" fill="#F4F4F4"/>
<path d="M461.777 19.4556V96.4556H469.874V19.4556H461.777Z" fill="#F4F4F4"/>
<path d="M482.02 19.4556V96.4556H494.165V19.4556H482.02Z" fill="#F4F4F4"/>
<path d="M498.215 19.4556V96.4556H502.263V19.4556H498.215Z" fill="#F4F4F4"/>
<path d="M506.311 19.4556V96.4556H514.408V19.4556H506.311Z" fill="#F4F4F4"/>
<path d="M103.655 33.1055H115.76C116.48 33.1055 117.05 33.0305 117.47 32.8805C117.92 32.7305 118.265 32.5505 118.505 32.3405C118.745 32.1005 118.91 31.8305 119 31.5305C119.09 31.2305 119.135 30.9155 119.135 30.5855V30.5405C119.135 30.2405 119.09 29.9555 119 29.6855C118.91 29.4155 118.745 29.1755 118.505 28.9655C118.265 28.7255 117.92 28.5455 117.47 28.4255C117.05 28.2755 116.48 28.2005 115.76 28.2005H103.655V33.1055ZM125.615 36.3455C126.665 36.4655 127.67 36.6755 128.63 36.9755C129.62 37.2755 130.475 37.7255 131.195 38.3255C131.945 38.8955 132.545 39.6455 132.995 40.5755C133.445 41.4755 133.67 42.5855 133.67 43.9055V50.0705C133.67 50.7305 133.715 51.2105 133.805 51.5105C133.895 51.7805 134.015 52.0205 134.165 52.2305V52.4555H120.035C119.975 52.3655 119.915 52.1705 119.855 51.8705C119.795 51.5705 119.765 51.1205 119.765 50.5205V47.6855C119.765 46.6055 119.66 45.7355 119.45 45.0755C119.24 44.3855 118.895 43.8605 118.415 43.5005C117.935 43.1105 117.29 42.8555 116.48 42.7355C115.67 42.5855 114.665 42.5105 113.465 42.5105H103.655V52.4555H89.9297V18.9755H119.45C122.45 18.9755 124.865 19.2455 126.695 19.7855C128.525 20.2955 129.935 20.9855 130.925 21.8555C131.915 22.6955 132.56 23.6705 132.86 24.7805C133.19 25.8905 133.355 27.0455 133.355 28.2455V28.4705C133.355 29.7305 133.115 30.8255 132.635 31.7555C132.185 32.6555 131.585 33.4205 130.835 34.0505C130.085 34.6805 129.245 35.1755 128.315 35.5355C127.415 35.8955 126.515 36.1655 125.615 36.3455Z" fill="#F4F4F4"/>
<path d="M174.906 18.9755V27.5255H153.666V31.1255H174.231V39.9005H153.666V43.8155H175.221V52.4555H139.896V18.9755H174.906Z" fill="#F4F4F4"/>
<path d="M221.611 29.1005H207.931V18.9755H248.971V29.1005H235.291V52.4555H221.611V29.1005Z" fill="#F4F4F4"/>
<path d="M268.362 33.1055H280.467C281.187 33.1055 281.757 33.0305 282.177 32.8805C282.627 32.7305 282.972 32.5505 283.212 32.3405C283.452 32.1005 283.617 31.8305 283.707 31.5305C283.797 31.2305 283.842 30.9155 283.842 30.5855V30.5405C283.842 30.2405 283.797 29.9555 283.707 29.6855C283.617 29.4155 283.452 29.1755 283.212 28.9655C282.972 28.7255 282.627 28.5455 282.177 28.4255C281.757 28.2755 281.187 28.2005 280.467 28.2005H268.362V33.1055ZM290.322 36.3455C291.372 36.4655 292.377 36.6755 293.337 36.9755C294.327 37.2755 295.182 37.7255 295.902 38.3255C296.652 38.8955 297.252 39.6455 297.702 40.5755C298.152 41.4755 298.377 42.5855 298.377 43.9055V50.0705C298.377 50.7305 298.422 51.2105 298.512 51.5105C298.602 51.7805 298.722 52.0205 298.872 52.2305V52.4555H284.742C284.682 52.3655 284.622 52.1705 284.562 51.8705C284.502 51.5705 284.472 51.1205 284.472 50.5205V47.6855C284.472 46.6055 284.367 45.7355 284.157 45.0755C283.947 44.3855 283.602 43.8605 283.122 43.5005C282.642 43.1105 281.997 42.8555 281.187 42.7355C280.377 42.5855 279.372 42.5105 278.172 42.5105H268.362V52.4555H254.637V18.9755H284.157C287.157 18.9755 289.572 19.2455 291.402 19.7855C293.232 20.2955 294.642 20.9855 295.632 21.8555C296.622 22.6955 297.267 23.6705 297.567 24.7805C297.897 25.8905 298.062 27.0455 298.062 28.2455V28.4705C298.062 29.7305 297.822 30.8255 297.342 31.7555C296.892 32.6555 296.292 33.4205 295.542 34.0505C294.792 34.6805 293.952 35.1755 293.022 35.5355C292.122 35.8955 291.222 36.1655 290.322 36.3455Z" fill="#F4F4F4"/>
<path d="M324.898 28.8755L320.263 39.0455H329.488L324.898 28.8755ZM333.313 47.4605H316.438L314.143 52.4555H300.418L316.303 18.9755H334.078L350.143 52.4555H335.608L333.313 47.4605Z" fill="#F4F4F4"/>
<path d="M371.848 52.9955C368.698 52.9955 365.983 52.8155 363.703 52.4555C361.453 52.0955 359.563 51.6155 358.033 51.0155C356.503 50.4155 355.273 49.7255 354.343 48.9455C353.413 48.1655 352.708 47.3405 352.228 46.4705C351.748 45.6005 351.433 44.7305 351.283 43.8605C351.133 42.9605 351.058 42.1205 351.058 41.3405V41.2055H365.818C365.848 41.5055 365.923 41.8505 366.043 42.2405C366.163 42.6305 366.433 43.0055 366.853 43.3655C367.273 43.7255 367.888 44.0405 368.698 44.3105C369.538 44.5505 370.678 44.6705 372.118 44.6705H372.388C373.768 44.6705 374.878 44.5955 375.718 44.4455C376.558 44.2955 377.203 44.1005 377.653 43.8605C378.103 43.6205 378.388 43.3505 378.508 43.0505C378.658 42.7505 378.733 42.4505 378.733 42.1505C378.733 41.8205 378.673 41.5055 378.553 41.2055C378.433 40.9055 378.163 40.6505 377.743 40.4405C377.323 40.2305 376.708 40.0655 375.898 39.9455C375.118 39.7955 374.053 39.7055 372.703 39.6755L367.888 39.5855C364.588 39.5255 361.888 39.2105 359.788 38.6405C357.688 38.0405 356.023 37.2605 354.793 36.3005C353.593 35.3405 352.753 34.2455 352.273 33.0155C351.823 31.7855 351.598 30.4805 351.598 29.1005V28.7405C351.598 27.2105 351.883 25.8155 352.453 24.5555C353.053 23.2955 354.088 22.2155 355.558 21.3155C357.028 20.4155 358.993 19.7255 361.453 19.2455C363.913 18.7355 367.018 18.4805 370.768 18.4805H372.883C377.083 18.4805 380.473 18.8105 383.053 19.4705C385.633 20.1005 387.628 20.9405 389.038 21.9905C390.448 23.0105 391.378 24.1805 391.828 25.5005C392.308 26.7905 392.548 28.0805 392.548 29.3705V29.4605H378.103C378.043 29.1605 377.923 28.8455 377.743 28.5155C377.593 28.1555 377.293 27.8255 376.843 27.5255C376.423 27.2255 375.808 26.9855 374.998 26.8055C374.218 26.6255 373.198 26.5355 371.938 26.5355H371.623C370.333 26.5355 369.298 26.5955 368.518 26.7155C367.738 26.8055 367.138 26.9555 366.718 27.1655C366.298 27.3755 366.013 27.6155 365.863 27.8855C365.743 28.1555 365.683 28.4555 365.683 28.7855C365.683 29.1155 365.758 29.4155 365.908 29.6855C366.058 29.9555 366.328 30.1955 366.718 30.4055C367.138 30.5855 367.723 30.7355 368.473 30.8555C369.223 30.9455 370.198 31.0055 371.398 31.0355L376.348 31.1255C379.768 31.1855 382.558 31.4705 384.718 31.9805C386.878 32.4605 388.573 33.1355 389.803 34.0055C391.033 34.8755 391.873 35.9255 392.323 37.1555C392.803 38.3855 393.043 39.7805 393.043 41.3405V41.8805C393.043 43.3205 392.803 44.7155 392.323 46.0655C391.873 47.3855 390.928 48.5705 389.488 49.6205C388.048 50.6405 386.008 51.4655 383.368 52.0955C380.728 52.6955 377.233 52.9955 372.883 52.9955H371.848Z" fill="#F4F4F4"/>
<path d="M398.777 18.9755H412.502V30.4055H428.522V18.9755H442.202V52.4555H428.522V40.2155H412.502V52.4555H398.777V18.9755Z" fill="#F4F4F4"/>
<path d="M188.057 40.9556L188.682 34.0806L182.979 38.0649L179.854 32.5962L186.104 29.7056L179.854 26.8149L182.979 21.3462L188.682 25.3306L188.057 18.4556H194.307L193.682 25.3306L199.385 21.3462L202.51 26.8149L196.26 29.7056L202.51 32.5962L199.385 38.0649L193.682 34.0806L194.307 40.9556H188.057Z" fill="#F4F4F4"/>
</svg>
