<svg width="843" height="502" viewBox="0 0 843 502" fill="none" xmlns="http://www.w3.org/2000/svg">
<rect x="2" y="1.62109" width="498.518" height="498.518" rx="26.9469" fill="#E1E1E1" stroke="black" stroke-width="2.69469"/>
<rect x="139.164" y="1.62109" width="499" height="498" rx="26.9469" fill="#E9E9E9" stroke="black" stroke-width="2.69469"/>
<rect x="169.23" y="39.6694" width="144.27" height="80.1069" rx="16.3325" fill="black"/>
<path d="M210.014 67.5161H217.859C218.326 67.5161 218.695 67.4675 218.967 67.3703C219.259 67.2731 219.483 67.1564 219.638 67.0203C219.794 66.8648 219.901 66.6898 219.959 66.4953C220.017 66.3009 220.047 66.0967 220.047 65.8829V65.8537C220.047 65.6593 220.017 65.4746 219.959 65.2996C219.901 65.1246 219.794 64.969 219.638 64.8329C219.483 64.6774 219.259 64.5607 218.967 64.4829C218.695 64.3857 218.326 64.3371 217.859 64.3371H210.014V67.5161ZM224.246 69.616C224.927 69.6938 225.578 69.8299 226.2 70.0243C226.842 70.2188 227.396 70.5104 227.863 70.8993C228.349 71.2687 228.738 71.7548 229.029 72.3575C229.321 72.9408 229.467 73.6602 229.467 74.5158V78.5114C229.467 78.9391 229.496 79.2502 229.554 79.4447C229.613 79.6197 229.69 79.7752 229.788 79.9113V80.0571H220.63C220.591 79.9988 220.552 79.8724 220.513 79.678C220.474 79.4835 220.455 79.1919 220.455 78.803V76.9656C220.455 76.2657 220.387 75.7018 220.251 75.274C220.115 74.8268 219.891 74.4866 219.58 74.2533C219.269 74.0005 218.851 73.8352 218.326 73.7575C217.801 73.6602 217.149 73.6116 216.372 73.6116H210.014V80.0571H201.118V58.3583H220.251C222.195 58.3583 223.76 58.5332 224.946 58.8832C226.132 59.2138 227.046 59.661 227.688 60.2248C228.329 60.7692 228.747 61.4012 228.942 62.1206C229.156 62.84 229.263 63.5885 229.263 64.3663V64.5121C229.263 65.3287 229.107 66.0384 228.796 66.6412C228.504 67.2245 228.116 67.7203 227.629 68.1286C227.143 68.5369 226.599 68.8577 225.996 69.091C225.413 69.3244 224.83 69.4993 224.246 69.616ZM256.192 58.3583V63.8996H242.426V66.2328H255.755V71.9201H242.426V74.4574H256.397V80.0571H233.502V58.3583H256.192Z" fill="#E9E9E9"/>
<path d="M186.73 58.5777V100.964H191.221V58.5777H186.73Z" fill="#E9E9E9"/>
<path d="M193.34 58.5777V100.964H196.334V58.5777H193.34Z" fill="#E9E9E9"/>
<path d="M204.691 84.5307V101.138H207.685V84.5307H204.691Z" fill="#E9E9E9"/>
<path d="M282.781 58.7237V101.11H284.726V58.7237H282.781Z" fill="#E9E9E9"/>
<path d="M200.953 84.5307V101.138H202.45V84.5307H200.953Z" fill="#E9E9E9"/>
<path d="M221.906 84.5307V101.138H223.403V84.5307H221.906Z" fill="#E9E9E9"/>
<path d="M211.43 84.5307V101.138H212.927V84.5307H211.43Z" fill="#E9E9E9"/>
<path d="M226.398 84.5307V101.138H229.392V84.5307H226.398Z" fill="#E9E9E9"/>
<path d="M238.371 84.5307V101.138H244.359V84.5307H238.371Z" fill="#E9E9E9"/>
<path d="M252.594 84.5307V101.138H254.091V84.5307H252.594Z" fill="#E9E9E9"/>
<path d="M278.113 58.7237V101.11H279.669V58.7237H278.113Z" fill="#E9E9E9"/>
<path d="M262.324 84.5307V101.138H265.318V84.5307H262.324Z" fill="#E9E9E9"/>
<path d="M267.562 84.5307V101.138H269.808V84.5307H267.562Z" fill="#E9E9E9"/>
<path d="M274.613 84.5018V101.11H275.78V84.5018H274.613Z" fill="#E9E9E9"/>
<path d="M286.281 58.7237V101.11H290.17V58.7237H286.281Z" fill="#E9E9E9"/>
<path d="M291.512 58.7515V101.138H296.002V58.7515H291.512Z" fill="#E9E9E9"/>
<path d="M264.702 73.1817L265.086 68.9528L261.578 71.4036L259.656 68.0397L263.5 66.2616L259.656 64.4835L261.578 61.1196L265.086 63.5705L264.702 59.3415H268.546L268.162 63.5705L271.67 61.1196L273.592 64.4835L269.748 66.2616L273.592 68.0397L271.67 71.4036L268.162 68.9528L268.546 73.1817H264.702Z" fill="#E9E9E9"/>
<rect x="342.965" y="1.62109" width="498.518" height="498.518" rx="26.9469" fill="#F4F4F4" stroke="black" stroke-width="2.69469"/>
<rect x="371.91" y="39.6694" width="319.261" height="80.1069" rx="16.3325" fill="black"/>
<path d="M394.477 58.4359V101.211H399.526V58.4359H394.477Z" fill="#F4F4F4"/>
<path d="M401.469 58.4359V101.211H403.799V58.4359H401.469Z" fill="#F4F4F4"/>
<path d="M408.074 58.4359V101.211H410.301V58.4359H408.074Z" fill="#F4F4F4"/>
<path d="M419.336 58.4359V101.211H423.789V58.4359H419.336Z" fill="#F4F4F4"/>
<path d="M430.262 58.4369V101.212H432.488V58.4369H430.262Z" fill="#F4F4F4"/>
<path d="M439.168 79.5279V101.212H441.395V79.5279H439.168Z" fill="#F4F4F4"/>
<path d="M443.621 79.5279V101.212H445.848V79.5279H443.621Z" fill="#F4F4F4"/>
<path d="M455.309 79.5279V101.212H457.535V79.5279H455.309Z" fill="#F4F4F4"/>
<path d="M459.766 79.5279V101.212H461.992V79.5279H459.766Z" fill="#F4F4F4"/>
<path d="M468.668 79.5279V101.212H473.121V79.5279H468.668Z" fill="#F4F4F4"/>
<path d="M477.574 79.5279V101.212H479.801V79.5279H477.574Z" fill="#F4F4F4"/>
<path d="M486.48 79.5279V101.212H488.707V79.5279H486.48Z" fill="#F4F4F4"/>
<path d="M493.168 79.5279V101.212H497.621V79.5279H493.168Z" fill="#F4F4F4"/>
<path d="M499.848 79.5279V101.212H506.528V79.5279H499.848Z" fill="#F4F4F4"/>
<path d="M513.207 79.5279V101.212H515.434V79.5279H513.207Z" fill="#F4F4F4"/>
<path d="M519.883 79.5279V101.212H522.109V79.5279H519.883Z" fill="#F4F4F4"/>
<path d="M528.789 79.5279V101.212H531.016V79.5279H528.789Z" fill="#F4F4F4"/>
<path d="M533.801 79.5279V101.212H540.481V79.5279H533.801Z" fill="#F4F4F4"/>
<path d="M542.711 79.5279V101.212H544.938V79.5279H542.711Z" fill="#F4F4F4"/>
<path d="M547.16 79.5279V101.212H549.387V79.5279H547.16Z" fill="#F4F4F4"/>
<path d="M556.066 79.5279V101.212H560.52V79.5279H556.066Z" fill="#F4F4F4"/>
<path d="M567.199 79.5279V101.212H571.653V79.5279H567.199Z" fill="#F4F4F4"/>
<path d="M573.883 79.5279V101.212H580.563V79.5279H573.883Z" fill="#F4F4F4"/>
<path d="M582.785 79.5279V101.212H585.012V79.5279H582.785Z" fill="#F4F4F4"/>
<path d="M591.691 79.5279V101.212H596.145V79.5279H591.691Z" fill="#F4F4F4"/>
<path d="M602.438 79.5279V101.212H604.664V79.5279H602.438Z" fill="#F4F4F4"/>
<path d="M606.895 79.5279V101.212H609.121V79.5279H606.895Z" fill="#F4F4F4"/>
<path d="M616.355 79.5279V101.212H618.582V79.5279H616.355Z" fill="#F4F4F4"/>
<path d="M620.805 79.5279V101.212H627.485V79.5279H620.805Z" fill="#F4F4F4"/>
<path d="M635.188 58.3343V101.11H638.687V58.3343H635.188Z" fill="#F4F4F4"/>
<path d="M640.852 58.4369V101.212H645.305V58.4369H640.852Z" fill="#F4F4F4"/>
<path d="M655.02 58.3343V101.11H658.519V58.3343H655.02Z" fill="#F4F4F4"/>
<path d="M660.891 58.4369V101.212H663.117V58.4369H660.891Z" fill="#F4F4F4"/>
<path d="M665.344 58.4369V101.212H669.797V58.4369H665.344Z" fill="#F4F4F4"/>
<path d="M444.496 66.7446H451.191C451.589 66.7446 451.904 66.7031 452.136 66.6202C452.385 66.5372 452.576 66.4377 452.709 66.3215C452.841 66.1888 452.933 66.0395 452.982 65.8736C453.032 65.7076 453.057 65.5334 453.057 65.3509V65.326C453.057 65.1601 453.032 65.0025 452.982 64.8532C452.933 64.7038 452.841 64.5711 452.709 64.455C452.576 64.3222 452.385 64.2227 452.136 64.1563C451.904 64.0734 451.589 64.0319 451.191 64.0319H444.496V66.7446ZM456.641 68.5365C457.222 68.6029 457.777 68.719 458.308 68.885C458.856 69.0509 459.329 69.2998 459.727 69.6316C460.142 69.9468 460.474 70.3616 460.722 70.876C460.971 71.3737 461.096 71.9876 461.096 72.7176V76.1272C461.096 76.4923 461.121 76.7577 461.17 76.9236C461.22 77.073 461.287 77.2057 461.37 77.3219V77.4463H453.555C453.522 77.3965 453.489 77.2887 453.455 77.1228C453.422 76.9568 453.406 76.708 453.406 76.3761V74.8082C453.406 74.2109 453.347 73.7297 453.231 73.3647C453.115 72.9831 452.924 72.6928 452.659 72.4937C452.393 72.278 452.037 72.1369 451.589 72.0706C451.141 71.9876 450.585 71.9461 449.921 71.9461H444.496V77.4463H436.905V58.9299H453.231C454.891 58.9299 456.226 59.0792 457.238 59.3779C458.25 59.66 459.03 60.0416 459.578 60.5227C460.125 60.9873 460.482 61.5265 460.648 62.1404C460.83 62.7543 460.922 63.3931 460.922 64.0568V64.1812C460.922 64.8781 460.789 65.4837 460.523 65.998C460.275 66.4957 459.943 66.9188 459.528 67.2673C459.113 67.6157 458.649 67.8895 458.134 68.0886C457.636 68.2877 457.139 68.437 456.641 68.5365ZM483.902 58.9299V63.6586H472.155V65.6496H483.528V70.5027H472.155V72.6679H484.076V77.4463H464.539V58.9299H483.902ZM509.732 64.5296H502.167V58.9299H524.864V64.5296H517.298V77.4463H509.732V64.5296ZM535.588 66.7446H542.283C542.681 66.7446 542.996 66.7031 543.229 66.6202C543.478 66.5372 543.668 66.4377 543.801 66.3215C543.934 66.1888 544.025 66.0395 544.075 65.8736C544.125 65.7076 544.15 65.5334 544.15 65.3509V65.326C544.15 65.1601 544.125 65.0025 544.075 64.8532C544.025 64.7038 543.934 64.5711 543.801 64.455C543.668 64.3222 543.478 64.2227 543.229 64.1563C542.996 64.0734 542.681 64.0319 542.283 64.0319H535.588V66.7446ZM547.733 68.5365C548.314 68.6029 548.87 68.719 549.401 68.885C549.948 69.0509 550.421 69.2998 550.819 69.6316C551.234 69.9468 551.566 70.3616 551.815 70.876C552.064 71.3737 552.188 71.9876 552.188 72.7176V76.1272C552.188 76.4923 552.213 76.7577 552.263 76.9236C552.313 77.073 552.379 77.2057 552.462 77.3219V77.4463H544.647C544.614 77.3965 544.581 77.2887 544.548 77.1228C544.515 76.9568 544.498 76.708 544.498 76.3761V74.8082C544.498 74.2109 544.44 73.7297 544.324 73.3647C544.208 72.9831 544.017 72.6928 543.751 72.4937C543.486 72.278 543.129 72.1369 542.681 72.0706C542.233 71.9876 541.677 71.9461 541.014 71.9461H535.588V77.4463H527.998V58.9299H544.324C545.983 58.9299 547.319 59.0792 548.331 59.3779C549.343 59.66 550.123 60.0416 550.67 60.5227C551.218 60.9873 551.574 61.5265 551.74 62.1404C551.923 62.7543 552.014 63.3931 552.014 64.0568V64.1812C552.014 64.8781 551.881 65.4837 551.616 65.998C551.367 66.4957 551.035 66.9188 550.62 67.2673C550.206 67.6157 549.741 67.8895 549.227 68.0886C548.729 68.2877 548.231 68.437 547.733 68.5365ZM566.856 64.4052L564.292 70.0298H569.394L566.856 64.4052ZM571.51 74.6838H562.177L560.908 77.4463H553.317L562.102 58.9299H571.933L580.818 77.4463H572.779L571.51 74.6838ZM592.822 77.7449C591.08 77.7449 589.578 77.6454 588.317 77.4463C587.073 77.2472 586.028 76.9817 585.181 76.6499C584.335 76.3181 583.655 75.9364 583.141 75.5051C582.626 75.0737 582.236 74.6174 581.971 74.1362C581.705 73.6551 581.531 73.1739 581.448 72.6928C581.365 72.195 581.324 71.7304 581.324 71.2991V71.2244H589.487C589.504 71.3903 589.545 71.5811 589.611 71.7968C589.678 72.0125 589.827 72.2199 590.059 72.419C590.292 72.6181 590.632 72.7923 591.08 72.9416C591.544 73.0744 592.175 73.1407 592.971 73.1407H593.121C593.884 73.1407 594.498 73.0993 594.962 73.0163C595.427 72.9333 595.784 72.8255 596.032 72.6928C596.281 72.56 596.439 72.4107 596.505 72.2448C596.588 72.0789 596.63 71.9129 596.63 71.747C596.63 71.5645 596.597 71.3903 596.53 71.2244C596.464 71.0585 596.315 70.9174 596.082 70.8013C595.85 70.6852 595.51 70.5939 595.062 70.5275C594.63 70.4446 594.041 70.3948 593.295 70.3782L590.632 70.3284C588.807 70.2953 587.313 70.121 586.152 69.8058C584.991 69.474 584.07 69.0426 583.39 68.5116C582.726 67.9807 582.261 67.3751 581.996 66.6948C581.747 66.0146 581.623 65.2928 581.623 64.5296V64.3305C581.623 63.4843 581.78 62.7128 582.095 62.016C582.427 61.3191 583 60.7218 583.813 60.2241C584.626 59.7263 585.712 59.3447 587.073 59.0792C588.433 58.7972 590.151 58.6562 592.225 58.6562H593.394C595.717 58.6562 597.592 58.8387 599.019 59.2037C600.446 59.5521 601.549 60.0167 602.329 60.5974C603.109 61.1615 603.623 61.8086 603.872 62.5386C604.138 63.2521 604.27 63.9655 604.27 64.679V64.7287H596.281C596.248 64.5628 596.182 64.3886 596.082 64.2061C595.999 64.007 595.833 63.8245 595.584 63.6586C595.352 63.4926 595.012 63.3599 594.564 63.2604C594.133 63.1608 593.569 63.111 592.872 63.111H592.698C591.984 63.111 591.412 63.1442 590.98 63.2106C590.549 63.2604 590.217 63.3433 589.985 63.4595C589.752 63.5756 589.595 63.7083 589.512 63.8577C589.446 64.007 589.412 64.1729 589.412 64.3554C589.412 64.5379 589.454 64.7038 589.537 64.8532C589.62 65.0025 589.769 65.1352 589.985 65.2514C590.217 65.3509 590.541 65.4339 590.955 65.5002C591.37 65.55 591.909 65.5832 592.573 65.5998L595.311 65.6496C597.202 65.6828 598.745 65.8404 599.94 66.1224C601.134 66.3879 602.072 66.7612 602.752 67.2424C603.432 67.7235 603.897 68.3042 604.146 68.9845C604.411 69.6648 604.544 70.4363 604.544 71.2991V71.5977C604.544 72.3941 604.411 73.1656 604.146 73.9123C603.897 74.6423 603.374 75.2977 602.578 75.8784C601.781 76.4425 600.653 76.8988 599.193 77.2472C597.733 77.579 595.8 77.7449 593.394 77.7449H592.822ZM607.716 58.9299H615.306V65.2514H624.166V58.9299H631.732V77.4463H624.166V70.6769H615.306V77.4463H607.716V58.9299Z" fill="#F4F4F4"/>
<path d="M490.822 70.6587L491.175 66.77L487.949 69.0236L486.182 65.9304L489.717 64.2953L486.182 62.6603L487.949 59.5671L491.175 61.8207L490.822 57.932H494.357L494.003 61.8207L497.229 59.5671L498.997 62.6603L495.462 64.2953L498.997 65.9304L497.229 69.0236L494.003 66.77L494.357 70.6587H490.822Z" fill="#F4F4F4"/>
<rect x="31.2305" y="39.6694" width="79.7905" height="79.7905" rx="16.268" fill="black"/>
<path d="M65.0448 100.868L66.2175 87.9679L55.5161 95.4442L49.6523 85.1826L61.3799 79.7586L49.6523 74.3346L55.5161 64.0729L66.2175 71.5493L65.0448 58.6489H76.7724L75.5996 71.5493L86.301 64.0729L92.1648 74.3346L80.4372 79.7586L92.1648 85.1826L86.301 95.4442L75.5996 87.9679L76.7724 100.868H65.0448Z" fill="#F4F4F4"/>
</svg>
