<svg width="1205" height="1192" viewBox="0 0 1205 1192" fill="none" xmlns="http://www.w3.org/2000/svg">
<path d="M875.254 523.57C838.76 523.831 804.515 524.197 799.182 524.354L789.51 524.72L793.692 526.132C807.861 530.994 819.677 538.052 832.329 549.084C843.779 559.07 855.543 573.866 866.575 592.165C871.96 601.105 929.994 708.023 929.68 708.494C929.575 708.703 920.164 714.872 908.767 722.192L888.063 735.524L902.545 735.838C910.544 736.047 940.241 736.308 968.578 736.517C996.916 736.674 1024.68 736.988 1030.27 737.145L1040.47 737.406L1079.84 672.419C1088.07 658.822 1095.81 646.019 1102.29 635.303C1112.86 617.833 1120.08 605.909 1120.56 605.131L1121.92 602.83L1115.96 605.967C1112.67 607.745 1104.46 612.032 1097.72 615.535C1091.91 618.548 1085.07 622.142 1081.24 624.153C1080.62 624.479 1080.07 624.764 1079.63 624.998L1073.88 628.031L1057.35 597.602C1048.26 580.872 1040.26 565.971 1039.53 564.507C1037.28 560.063 1032.15 552.743 1028.18 548.456C1017.36 536.745 1003.08 528.38 986.877 524.249C982.433 523.099 963.35 522.995 875.254 523.57Z" fill="black"/>
<path d="M875.254 523.57C838.76 523.831 804.515 524.197 799.182 524.354L789.51 524.72L793.692 526.132C807.861 530.994 819.677 538.052 832.329 549.084C843.779 559.07 855.543 573.866 866.575 592.165C871.96 601.105 929.994 708.023 929.68 708.494C929.575 708.703 920.164 714.872 908.767 722.192L888.063 735.524L902.545 735.838C910.544 736.047 940.241 736.308 968.578 736.517C996.916 736.674 1024.68 736.988 1030.27 737.145L1040.47 737.406L1079.84 672.419C1088.07 658.822 1095.81 646.019 1102.29 635.303C1112.86 617.833 1120.08 605.909 1120.56 605.131L1121.92 602.83L1115.96 605.967C1112.67 607.745 1104.46 612.032 1097.72 615.535C1091.91 618.548 1085.07 622.142 1081.24 624.153C1080.62 624.479 1080.07 624.764 1079.63 624.998L1073.88 628.031L1057.35 597.602C1048.26 580.872 1040.26 565.971 1039.53 564.507C1037.28 560.063 1032.15 552.743 1028.18 548.456C1017.36 536.745 1003.08 528.38 986.877 524.249C982.433 523.099 963.35 522.995 875.254 523.57Z" stroke="black"/>
<path d="M759.71 530.156C748.992 531.515 737.333 537.057 728.759 544.795C726.092 547.2 649.864 664.575 650.544 665.202C650.753 665.464 683.168 684.704 722.537 708.022C764.206 732.699 794.321 750.266 794.583 750.005C794.844 749.744 812.202 721.563 833.22 687.37L871.334 625.258L867.413 617.834C841.689 568.688 806.817 535.75 775.133 530.574C770.585 529.842 763.527 529.633 759.71 530.156Z" fill="black"/>
<path d="M759.71 530.156C748.992 531.515 737.333 537.057 728.759 544.795C726.092 547.2 649.864 664.575 650.544 665.202C650.753 665.464 683.168 684.704 722.537 708.022C764.206 732.699 794.321 750.266 794.583 750.005C794.844 749.744 812.202 721.563 833.22 687.37L871.334 625.258L867.413 617.834C841.689 568.688 806.817 535.75 775.133 530.574C770.585 529.842 763.527 529.633 759.71 530.156Z" stroke="black"/>
<path d="M1067.86 783.676C1028.91 807.464 996.759 827.175 996.34 827.593C995.713 828.168 1000.99 838.207 1030.43 892.737L1065.25 957.202H1081.88C1094.42 957.15 1100.33 956.941 1106.08 956.209C1129.5 953.386 1146.97 948.575 1163.33 940.472C1173.06 935.662 1179.8 931.113 1186.18 925.101C1199.09 912.971 1205.73 896.711 1204.74 879.562C1204.62 877.566 1204.57 876.051 1204.4 874.551C1203.6 867.641 1200.08 861.047 1173.79 809.242C1157.74 777.611 1143.31 749.221 1141.63 746.137L1138.71 740.49L1067.86 783.676Z" fill="black"/>
<path d="M1067.86 783.676C1028.91 807.464 996.759 827.175 996.34 827.593C995.713 828.168 1000.99 838.207 1030.43 892.737L1065.25 957.202H1081.88C1094.42 957.15 1100.33 956.941 1106.08 956.209C1129.5 953.386 1146.97 948.575 1163.33 940.472C1173.06 935.662 1179.8 931.113 1186.18 925.101C1199.09 912.971 1205.73 896.711 1204.74 879.562C1204.62 877.566 1204.57 876.051 1204.4 874.551C1203.6 867.641 1200.08 861.047 1173.79 809.242C1157.74 777.611 1143.31 749.221 1141.63 746.137L1138.71 740.49L1067.86 783.676Z" stroke="black"/>
<path d="M624.035 742.687C593.972 742.896 562.759 743.262 554.603 743.523L539.859 743.889L561.818 761.038C573.896 770.501 583.777 778.448 583.777 778.71C583.777 779.023 573.791 798.368 561.557 821.738C549.375 845.109 538.814 865.969 538.082 868.113C531.39 888.242 539.703 911.351 560.825 931.009C579.438 948.315 599.148 955.478 635.38 957.987C643.954 958.562 670.2 958.824 670.985 958.301C671.246 958.144 684.735 936.394 700.89 909.939L730.273 861.891L734.299 864.035C735.469 864.676 738.822 866.489 743.201 868.859C747.041 870.936 751.67 873.44 756.31 875.955C766.244 881.341 774.4 885.68 774.505 885.576C774.609 885.471 757.303 853.212 736.077 813.844L697.44 742.321L688.081 742.268C682.905 742.268 654.097 742.425 624.035 742.687Z" fill="black"/>
<path d="M624.035 742.687C593.972 742.896 562.759 743.262 554.603 743.523L539.859 743.889L561.818 761.038C573.896 770.501 583.777 778.448 583.777 778.71C583.777 779.023 573.791 798.368 561.557 821.738C549.375 845.109 538.814 865.969 538.082 868.113C531.39 888.242 539.703 911.351 560.825 931.009C579.438 948.315 599.148 955.478 635.38 957.987C643.954 958.562 670.2 958.824 670.985 958.301C671.246 958.144 684.735 936.394 700.89 909.939L730.273 861.891L734.299 864.035C735.469 864.676 738.822 866.489 743.201 868.859C747.041 870.936 751.67 873.44 756.31 875.955C766.244 881.341 774.4 885.68 774.505 885.576C774.609 885.471 757.303 853.212 736.077 813.844L697.44 742.321L688.081 742.268C682.905 742.268 654.097 742.425 624.035 742.687Z" stroke="black"/>
<path d="M925.027 986.586L887.488 1054.29L899.932 1077.09C906.833 1089.69 923.72 1120.59 937.471 1145.79L962.566 1191.64L962.88 1187.87C963.089 1185.84 963.507 1174.8 963.821 1163.46C964.135 1152.11 964.553 1141.45 964.71 1139.77L965.024 1136.74L1005.39 1136.85C1041.04 1136.9 1046.22 1136.79 1050.04 1136.06C1060.02 1134.08 1071 1129.42 1080.2 1123.36C1087.21 1118.7 1096.93 1108.93 1100.65 1102.81C1102.68 1099.52 1185.24 945.335 1190.47 935.087C1191.25 933.571 1190.52 934.041 1185.97 937.963C1165.68 955.477 1144.82 963.999 1111.57 968.234C1105.61 969.019 1096.41 969.175 1035.13 969.332L965.442 969.541V967.293C965.442 963.32 963.351 924.892 962.932 921.807L962.566 918.827L925.027 986.586Z" fill="black"/>
<path d="M925.027 986.586L887.488 1054.29L899.932 1077.09C906.833 1089.69 923.72 1120.59 937.471 1145.79L962.566 1191.64L962.88 1187.87C963.089 1185.84 963.507 1174.8 963.821 1163.46C964.135 1152.11 964.553 1141.45 964.71 1139.77L965.024 1136.74L1005.39 1136.85C1041.04 1136.9 1046.22 1136.79 1050.04 1136.06C1060.02 1134.08 1071 1129.42 1080.2 1123.36C1087.21 1118.7 1096.93 1108.93 1100.65 1102.81C1102.68 1099.52 1185.24 945.335 1190.47 935.087C1191.25 933.571 1190.52 934.041 1185.97 937.963C1165.68 955.477 1144.82 963.999 1111.57 968.234C1105.61 969.019 1096.41 969.175 1035.13 969.332L965.442 969.541V967.293C965.442 963.32 963.351 924.892 962.932 921.807L962.566 918.827L925.027 986.586Z" stroke="black"/>
<path d="M546.656 931.48C546.656 931.637 565.06 965.725 587.489 1007.24C609.971 1048.7 631.459 1088.43 635.223 1095.44C641.915 1107.93 642.177 1108.35 647.039 1113.27C657.653 1123.99 672.762 1131.15 692.055 1134.65L692.345 1134.7C707.528 1137.47 707.535 1137.48 774.191 1137.68L836.826 1137.89V1053.77V969.647L804.306 969.281C786.373 969.124 747.265 968.81 717.359 968.653C628.568 968.133 623.446 968.126 618.418 967.435C617.883 967.361 617.349 967.28 616.715 967.189C590.051 963.216 568.092 952.707 551.153 935.715C548.695 933.206 546.656 931.323 546.656 931.48Z" fill="black"/>
<path d="M546.656 931.48C546.656 931.637 565.06 965.725 587.489 1007.24C609.971 1048.7 631.459 1088.43 635.223 1095.44C641.915 1107.93 642.177 1108.35 647.039 1113.27C657.653 1123.99 672.762 1131.15 692.055 1134.65L692.345 1134.7C707.528 1137.47 707.535 1137.48 774.191 1137.68L836.826 1137.89V1053.77V969.647L804.306 969.281C786.373 969.124 747.265 968.81 717.359 968.653C628.568 968.133 623.446 968.126 618.418 967.435C617.883 967.361 617.349 967.28 616.715 967.189C590.051 963.216 568.092 952.707 551.153 935.715C548.695 933.206 546.656 931.323 546.656 931.48Z" stroke="black"/>
<path d="M437.875 208.028H398.905V160.174H399.032H399.332H399.633H399.934H400.235H400.536H400.836H401.137H401.438H401.739H402.04H402.341H402.641H402.942H403.243H403.544H403.845H404.145H404.446H404.747H405.048H405.349H405.649H405.95H406.251H406.552H406.853H407.154H407.454H407.755H408.056H408.357H408.658H408.958H409.259H409.56H409.861H410.162H410.462H410.763H411.064H411.365H411.666H411.967H412.267H412.568H412.869H413.17H413.471H413.771H414.072H414.373H414.674H414.975H415.275H415.576H415.877H416.178H416.479H416.78H417.08H417.381H417.682H417.983H418.284H418.584H418.885H419.186H419.487H419.788H420.089H420.389H420.69H420.991H421.292H421.593H421.893H422.194H422.495H422.796H423.097H423.397H423.698H423.999H424.3H424.601H424.902H425.202H425.503H425.804H426.105H426.406H426.706H427.007H427.308H427.609H427.91H428.21H428.511H428.812H429.113H429.414H429.715H430.015H430.316H430.617H430.918H431.219H431.519H431.82H432.121H432.422H432.723H433.023H433.324H433.625H433.926H434.227H434.528H434.828H435.129H435.43H435.731H436.032H436.332H436.633H436.934H437.235H437.536H437.836H438.137H438.438H438.739H439.04H439.341H439.641H439.942H440.243H440.544H440.845H441.145H441.446H441.747H442.048H442.349H442.65H442.95H443.251H443.552H443.853H444.154H444.454H444.755H445.056H445.357H445.658H445.958H446.259H446.56H446.861H447.162H447.463H447.763H448.064H448.365H448.666H448.967H449.267H449.568H449.869H450.17H450.471H450.771H451.072H451.373H451.674H451.975H452.276H452.576H452.877H453.178H453.479H453.78H454.08H454.381H454.682H454.983H455.284H455.585H455.885H456.186H456.487H456.788H457.089H457.389H457.69H457.991H458.292H458.593H458.893H459.194H459.495H459.796H460.097H460.398H460.698H460.999H461.3H461.601H461.902H462.202H462.503H462.804H463.105H463.406H463.706H464.007H464.308H464.609H464.91H465.211H465.511H465.812H466.113H466.414H466.715H467.015H467.316H467.617H467.918H468.219H468.519H468.82H469.121H469.422H469.723H470.024H470.324H470.625H470.926H471.227H471.528H471.828H472.129H472.43H472.731H473.032H473.332H473.633H473.934H474.235H474.536H474.837H475.137H475.438H475.739H476.04H476.341H476.641H476.942H477.243H477.544H477.845H478.146H478.446H478.747H479.048H479.349H479.65H479.95H480.251H480.552H480.853H481.154H481.454H481.755H482.056H482.357H482.658H482.959H483.259H483.56H483.861H484.162H484.463H484.763H485.064H485.365H485.666H485.967H486.267H486.568H486.869H487.17H487.471H487.772H488.072H488.373H488.674H488.975H489.276H489.576H489.877H490.178H490.479H490.78H491.08H491.381H491.682H491.983H492.284H492.585H492.885H493.186H493.487H493.788H494.089H494.389H494.69H494.991H495.292H495.593H495.893H496.194H496.495H496.796H497.097H497.398H497.698H497.999H498.3H498.601H498.902H499.202H499.503H499.804H500.105H500.406H500.707H501.007H501.308H501.609H501.91H502.211H502.511H502.812H503.113H503.414H503.715H504.015H504.316H504.617H504.918H505.219H505.52H505.82H506.121H506.422H506.723H507.024H507.324H507.625H507.926H508.227H508.528H508.828H509.129H509.43H509.731H510.032H510.333H510.633H510.934H511.235H511.536H511.837H512.137H512.438H512.739H513.04H513.341H513.641H513.942H514.243H514.544H514.845H515.146H515.446H515.747H516.048H516.349H516.65H516.95H517.251H517.552H517.853H518.154H518.455H518.755H519.056H519.357H519.658H519.959H520.259H520.56H520.861H521.162H521.463H521.763H522.064H522.365H522.666H522.967H523.268H523.568H523.869H524.17H524.471H524.772H525.072H525.373H525.674H525.975H526.276H526.576H526.877H527.178H527.479H527.78H528.081H528.381H528.682H528.983H529.284H529.585H529.885H530.186H530.487H530.788H531.089H531.389H531.69H531.991H532.292H532.593H532.894H533.194H533.495H533.796H534.097H534.398H534.698H534.999H535.3H535.601H535.902H536.203H536.503H536.804H537.105H537.406H537.707H538.007H538.308H538.609H538.91H539.211H539.511H539.812H540.113H540.414H540.715H541.016H541.316H541.617H541.918H542.219H542.52H542.82H543.121H543.422H543.723H544.024H544.324H544.625H544.926H545.227H545.528H545.829H546.129H546.43H546.731H547.032H547.333H547.633H547.934H548.235H548.536H548.837H549.137H549.438H549.739H550.04H550.341H550.642H550.942H551.243H551.544H551.646V208.028H512.675H512.175V208.528V273.168H438.375V208.528V208.028H437.875ZM110.573 250.207V250.593L110.947 250.69C117.339 252.358 124.006 253.191 130.946 253.191C174.281 253.191 209.283 218.189 209.283 174.854C209.283 131.52 174.281 96.5181 130.946 96.5181C87.6119 96.5181 52.6101 131.52 52.6101 174.854V300.441C52.6101 324.179 71.8791 343.448 95.6165 343.448V342.948H96.1165V174.854C96.1165 155.809 111.626 140.3 130.67 140.3C149.715 140.3 165.224 155.809 165.224 174.854C165.224 193.899 149.715 209.408 130.67 209.408C123.595 209.408 116.795 207.231 111.36 203.426L110.573 202.876V203.836V250.207ZM472.414 59.0908L472.429 59.0993V144.782C439.79 128.261 387.913 107.008 334.643 107.283C298.827 107.421 271.572 121.438 253.259 142.404C234.953 163.361 225.603 191.239 225.534 219.085C225.464 246.931 234.677 274.778 253.54 295.67C272.411 316.571 300.911 330.475 339.338 330.475C392.821 330.475 443.823 305.472 472.153 288.894V374.401C433.452 396.755 353.082 434.637 255.981 434.637C187.185 434.637 123.337 418.367 76.6998 383.226C30.0828 348.1 0.615234 294.084 0.615234 218.465C0.615234 142.996 32.1428 88.5639 80.6967 52.9829C129.27 17.388 194.917 0.636719 263.158 0.636719C349.981 0.636719 427.455 34.5428 472.414 59.0908Z" fill="black" stroke="black"/>
<g clip-path="url(#clip0_686_726)">
<path fill-rule="evenodd" clip-rule="evenodd" d="M1049.85 110.167C1052.27 110.24 1054.66 109.513 1056.7 108.078C1058.75 106.643 1060.36 104.566 1061.33 102.113C1062.3 99.66 1062.59 96.9424 1062.15 94.3089C1061.72 91.6755 1060.58 89.2462 1058.88 87.3321C1057.19 85.418 1055.02 84.1062 1052.64 83.5653C1050.27 83.0244 1047.8 83.2788 1045.56 84.2958C1043.32 85.3129 1041.4 87.0463 1040.06 89.2739C1038.71 91.5014 1038 94.1217 1038.01 96.7989C1037.99 98.535 1038.29 100.258 1038.87 101.87C1039.46 103.481 1040.32 104.949 1041.42 106.191C1042.52 107.432 1043.83 108.422 1045.28 109.104C1046.72 109.787 1048.28 110.148 1049.85 110.167V110.167Z" fill="black"/>
<path fill-rule="evenodd" clip-rule="evenodd" d="M1015.81 55.8086H1130.42L1130.89 60.0922L1138.51 127.672L1139.12 133.211H961.115V128.262C960.285 111.187 963.806 94.1968 971.279 79.2211C979.437 65.1883 993.145 55.8086 1015.81 55.8086ZM1122.8 65.6315H1015.81C996.488 65.6315 985.054 73.0172 978.501 84.5388C972.559 96.4178 969.56 109.819 969.808 123.388H1129.35L1122.8 65.6315Z" fill="black"/>
<path fill-rule="evenodd" clip-rule="evenodd" d="M996.087 16.9596C995.002 16.8123 994.003 16.2315 993.278 15.3268C992.554 14.4222 992.153 13.2562 992.153 12.0483C992.153 10.8404 992.554 9.67416 993.278 8.76947C994.003 7.86478 995.002 7.28401 996.087 7.13672H1121.73C1122.81 7.168 1123.84 7.63659 1124.63 8.45347C1125.42 9.27035 1125.91 10.3787 1126.01 11.5682L1138.51 127.671C1138.61 128.304 1138.58 128.951 1138.45 129.573C1138.31 130.196 1138.05 130.781 1137.7 131.292C1137.35 131.803 1136.91 132.23 1136.41 132.547C1135.9 132.864 1135.35 133.065 1134.77 133.137C1133.62 133.261 1132.47 132.883 1131.57 132.082C1130.67 131.281 1130.09 130.121 1129.95 128.853L1117.58 16.9596H996.087Z" fill="black"/>
</g>
<g clip-path="url(#clip1_686_726)">
<path fill-rule="evenodd" clip-rule="evenodd" d="M1130.22 314.926C1130.46 313.752 1131.15 312.719 1132.15 312.054C1133.14 311.39 1134.36 311.149 1135.54 311.383C1136.72 311.672 1137.74 312.405 1138.38 313.43C1139.03 314.455 1139.25 315.69 1139 316.874L1113.05 438.506C1112.84 439.522 1112.29 440.437 1111.49 441.097C1110.69 441.758 1109.69 442.125 1108.65 442.137H991.521C990.454 442.128 989.425 441.74 988.618 441.042C987.811 440.345 987.28 439.383 987.118 438.329L961.204 316.874C960.938 315.693 961.149 314.454 961.79 313.426C962.432 312.398 963.453 311.664 964.632 311.383C965.216 311.263 965.818 311.259 966.404 311.372C966.99 311.485 967.547 311.713 968.044 312.042C968.541 312.372 968.968 312.796 969.301 313.291C969.633 313.786 969.864 314.341 969.98 314.926L995.155 433.015H1105.05L1130.22 314.926Z" fill="black"/>
<path fill-rule="evenodd" clip-rule="evenodd" d="M970.777 343.355C972.077 343.355 974.737 340.403 977.367 337.451C981.326 332.905 985.315 328.388 990.604 328.388C995.894 328.388 999.883 332.905 1003.84 337.451C1006.47 340.403 1009.13 343.355 1010.43 343.355C1011.73 343.355 1014.39 340.403 1017.02 337.451C1020.98 332.905 1024.97 328.388 1030.26 328.388C1035.55 328.388 1039.54 332.905 1043.53 337.451C1046.16 340.403 1048.79 343.355 1050.09 343.355C1051.39 343.355 1054.04 340.403 1056.67 337.451C1060.66 332.905 1064.62 328.388 1069.91 328.388C1075.2 328.388 1079.19 332.905 1083.18 337.451C1085.81 340.403 1088.44 343.355 1089.77 343.355C1091.1 343.355 1093.7 340.403 1096.33 337.451C1100.32 332.905 1104.28 328.388 1109.6 328.388C1114.91 328.388 1118.87 332.905 1122.83 337.451C1125.46 340.403 1128.09 343.355 1129.42 343.355V352.566C1124.13 352.566 1120.14 348.02 1116.16 343.474C1113.53 340.521 1110.9 337.569 1109.6 337.569C1108.3 337.569 1105.64 340.521 1103.01 343.474C1099.02 348.02 1095.06 352.566 1089.77 352.566C1084.48 352.566 1080.49 348.02 1076.5 343.474C1073.87 340.521 1071.24 337.569 1069.91 337.569C1068.58 337.569 1065.98 340.521 1063.35 343.474C1059.36 348.02 1055.4 352.566 1050.09 352.566C1044.77 352.566 1040.84 348.02 1036.85 343.474C1034.22 340.521 1031.59 337.569 1030.26 337.569C1028.93 337.569 1026.33 340.521 1023.67 343.474C1019.71 348.02 1015.72 352.566 1010.43 352.566C1005.14 352.566 1001.15 348.02 997.194 343.474C994.564 340.521 991.905 337.569 990.604 337.569C989.304 337.569 986.645 340.521 984.015 343.474C980.056 348.02 976.067 352.566 970.777 352.566V343.355Z" fill="black"/>
<path fill-rule="evenodd" clip-rule="evenodd" d="M1028.99 312.357L1027.6 314.365L1017.76 328.535L999.676 354.633C998.687 356.065 998.292 357.825 998.573 359.542C998.854 361.259 999.789 362.801 1001.18 363.844V363.844C1002.57 364.806 1004.28 365.182 1005.94 364.889C1007.6 364.596 1009.08 363.657 1010.05 362.279L1028.13 336.152L1030.17 337.628L1005.85 372.819C1004.87 374.254 1004.48 376.016 1004.76 377.734C1005.05 379.451 1005.99 380.991 1007.39 382.03V382.03C1008.07 382.514 1008.84 382.858 1009.66 383.041C1010.48 383.225 1011.32 383.244 1012.15 383.099C1012.97 382.953 1013.76 382.645 1014.47 382.193C1015.17 381.741 1015.78 381.154 1016.25 380.465L1040.6 345.304L1042.64 346.78L1016.05 385.336C1015.06 386.771 1014.67 388.528 1014.95 390.243C1015.23 391.958 1016.17 393.5 1017.55 394.547C1018.94 395.509 1020.65 395.885 1022.31 395.592C1023.97 395.299 1025.45 394.361 1026.42 392.982L1053.01 354.426L1055.02 355.902L1030.67 391.063C1029.69 392.498 1029.3 394.255 1029.58 395.97C1029.86 397.686 1030.79 399.227 1032.18 400.274V400.274C1033.56 401.237 1035.27 401.613 1036.94 401.319C1038.6 401.026 1040.07 400.088 1041.04 398.71L1065.81 363.49L1075.62 349.29L1078.16 351.12L1067.55 366.442C1066.85 367.823 1066.71 369.417 1067.14 370.901C1067.57 372.386 1068.55 373.651 1069.88 374.442C1071.03 375.439 1072.52 375.955 1074.04 375.884C1075.56 375.812 1076.99 375.159 1078.04 374.059L1101.68 339.901C1104.33 336.16 1105.86 331.747 1106.11 327.171C1106.35 322.595 1105.3 318.043 1103.07 314.04L1100.76 309.789C1100.09 308.629 1099.78 307.3 1099.85 305.963C1099.92 304.627 1100.38 303.341 1101.18 302.261L1104.13 298.423C1104.47 297.963 1104.72 297.438 1104.86 296.88C1105 296.322 1105.02 295.742 1104.93 295.175C1104.88 294.588 1104.69 294.02 1104.4 293.51C1104.1 293 1103.7 292.561 1103.21 292.223L1072.42 269.757C1071.98 269.416 1071.47 269.17 1070.92 269.034C1070.38 268.898 1069.81 268.875 1069.26 268.966C1068.71 269.057 1068.18 269.261 1067.7 269.564C1067.23 269.868 1066.83 270.265 1066.52 270.731L1059.04 281.418C1058.1 282.73 1056.75 283.688 1055.2 284.134C1049.82 285.56 1045.14 288.898 1042.05 293.522L1035.4 302.969L1028.99 312.357Z" fill="black"/>
</g>
<path d="M197.033 825.165C302.535 796.284 390.496 776.854 393.546 781.93C396.597 787.006 313.212 814.663 207.71 843.545C102.208 872.602 14.2472 891.856 11.1966 886.78C8.14592 881.704 91.2765 854.222 197.033 825.165Z" stroke="#1A1A18" stroke-width="8" stroke-miterlimit="22.9256"/>
<path d="M439.56 942.268C439.56 999.681 439.56 1056.92 439.56 1114.33C439.56 1119.76 347.532 1131.14 233.641 1131.14C120.003 1131.14 27.7207 1119.76 27.7207 1114.33V942.268" stroke="#1A1A18" stroke-width="8" stroke-miterlimit="22.9256"/>
<path d="M393.546 781.93C399.648 792.257 405.495 802.585 411.596 812.912C414.647 817.988 331.262 845.645 225.76 874.526C120.258 903.583 32.2967 922.838 29.246 917.762L11.1963 886.779" stroke="#1A1A18" stroke-width="8" stroke-miterlimit="22.9256"/>
<path d="M233.641 952.069C347.367 952.069 439.56 947.681 439.56 942.267C439.56 936.853 347.367 932.465 233.641 932.465C119.914 932.465 27.7207 936.853 27.7207 942.267C27.7207 947.681 119.914 952.069 233.641 952.069Z" stroke="#1A1A18" stroke-width="8" stroke-miterlimit="22.9256"/>
<path d="M283.214 1075.47V1003.71H314.737L333.296 1052.54L351.854 1003.71H383.632V1075.47H364.056V1019.11L343.464 1075.47H323.127L302.789 1019.11V1075.47H283.214Z" fill="#1A1A18"/>
<path d="M176.696 1026.29C167.29 1026.29 158.647 1028.74 152.799 1033.12C155.85 1023.49 166.273 1012.99 187.628 1010.53C191.187 1010.18 195 1010.01 198.051 1010.18H199.322V1000.73H198.305C195 1000.73 191.441 1000.91 187.882 1001.26C174.408 1002.31 162.714 1006.16 153.816 1012.11C142.122 1020.16 135.767 1031.71 135.767 1045.02C135.767 1064.1 150.766 1076.35 173.9 1076.35C197.034 1076.35 209.745 1062.87 209.745 1050.27C209.237 1035.92 196.271 1026.29 176.696 1026.29ZM173.646 1067.42C160.426 1067.42 152.037 1059.9 151.783 1047.64C151.783 1046.07 152.291 1044.84 153.308 1043.62C157.121 1038.54 164.748 1035.22 172.629 1035.22C185.086 1035.22 192.967 1041.17 192.967 1050.97C192.712 1060.77 185.086 1067.42 173.646 1067.42Z" fill="black"/>
<path fill-rule="evenodd" clip-rule="evenodd" d="M373.448 171.95C374.908 171.95 376.305 172.014 377.702 172.141V186.237C376.305 186.047 374.908 185.983 373.448 185.983C358.208 185.983 345.509 196.778 342.461 211.128H368.241V224.145H342.461C345.445 238.496 358.208 249.29 373.448 249.29C374.908 249.29 376.305 249.163 377.702 249.036V263.133C376.305 263.26 374.908 263.323 373.448 263.323C348.239 263.323 327.857 242.877 327.857 217.732C327.793 192.333 348.239 171.95 373.448 171.95Z" fill="black"/>
<path fill-rule="evenodd" clip-rule="evenodd" d="M296.261 171.95C297.722 171.95 299.119 172.014 300.516 172.141V186.237C299.119 186.047 297.722 185.983 296.261 185.983C278.799 185.983 264.639 200.143 264.639 217.605C264.639 235.067 278.799 249.227 296.261 249.227C297.722 249.227 299.119 249.1 300.516 248.973V263.069C299.119 263.196 297.722 263.26 296.261 263.26C271.053 263.133 250.606 242.75 250.606 217.541C250.606 192.333 271.053 171.95 296.261 171.95Z" fill="black"/>
<path d="M700.114 436.606C699.904 437.55 699.695 438.441 699.537 439.385C699.223 440.905 698.436 442.111 697.545 443.265C695.552 445.939 692.773 447.04 689.575 447.25C686.953 447.46 684.279 447.355 681.605 447.355C673.687 447.355 665.822 447.355 657.905 447.355C657.747 447.355 657.59 447.355 657.38 447.407C657.38 450.396 657.38 453.385 657.38 456.373C657.328 456.373 657.328 456.373 657.275 456.426C657.171 456.269 657.066 456.164 657.013 456.006C655.702 453.857 654.392 451.759 653.081 449.609C651.56 447.093 650.039 444.628 648.466 442.111C648.257 441.797 648.309 441.587 648.466 441.325C650.564 437.864 652.714 434.404 654.811 430.943C655.597 429.632 656.384 428.321 657.275 427.01C657.275 430.471 657.275 433.932 657.275 437.445C657.538 437.445 657.695 437.497 657.852 437.497C667.133 437.497 676.414 437.497 685.695 437.497C686.848 437.497 688.054 437.392 688.946 436.396C689.522 435.767 689.732 434.98 689.68 434.141C689.627 432.883 688.946 431.887 688.369 430.89C685.433 425.752 682.444 420.613 679.455 415.475C677.305 411.752 675.155 408.082 673.006 404.359C672.796 403.939 672.534 403.52 672.272 403.048C675.103 401.422 677.882 399.797 680.766 398.119C681.028 398.591 681.29 399.063 681.552 399.482C685.485 406.299 689.418 413.115 693.35 419.984C694.766 422.449 696.286 424.913 697.65 427.482C698.436 428.95 698.961 430.576 699.485 432.201C699.799 433.093 699.904 434.037 700.062 434.98C700.114 435.4 700.114 436.029 700.114 436.606Z" fill="black"/>
<path d="M648.626 353.131C649.098 353.183 649.622 353.236 650.094 353.288C653.03 353.55 655.18 355.176 657.068 357.326C657.592 357.955 658.117 358.689 658.536 359.423C663.465 367.865 668.341 376.307 673.218 384.749C673.427 385.168 673.689 385.535 673.952 386.007C676.573 384.434 679.195 382.913 681.817 381.393C681.869 381.393 681.869 381.445 681.922 381.445C681.817 381.655 681.712 381.812 681.607 382.022C680.349 384.329 679.09 386.584 677.884 388.891C676.573 391.355 675.263 393.82 674.004 396.337C673.794 396.704 673.585 396.861 673.165 396.808C668.551 396.651 663.884 396.546 659.27 396.441C658.326 396.441 657.435 396.441 656.491 396.441C656.491 396.389 656.439 396.284 656.439 396.232C659.427 394.501 662.469 392.719 665.51 390.988C664.618 389.415 663.727 387.947 662.888 386.479C659.113 379.977 655.39 373.423 651.615 366.921C651.09 366.03 650.514 365.138 649.622 364.561C648.574 363.932 647.21 363.932 646.319 364.771C645.69 365.348 645.113 366.03 644.693 366.816C639.869 375.101 635.046 383.438 630.274 391.775C629.592 392.981 628.911 394.134 628.177 395.34C625.293 393.715 622.514 392.089 619.63 390.464C620.312 389.31 620.941 388.157 621.57 387.056C626.184 379.086 630.798 371.168 635.36 363.146C636.776 360.629 638.663 358.532 640.551 356.382C641.075 355.805 641.862 355.386 642.544 354.966C644.064 354.127 645.69 353.498 647.42 353.236C647.472 353.236 647.577 353.183 647.63 353.131C647.839 353.131 648.206 353.131 648.626 353.131Z" fill="black"/>
<path d="M612.55 402.419C609.928 400.899 607.359 399.378 604.79 397.91C604.79 397.858 604.79 397.805 604.79 397.753C605.157 397.753 605.576 397.7 605.943 397.7C611.082 397.543 616.22 397.386 621.359 397.229C621.778 397.229 622.041 397.333 622.25 397.7C623.876 400.689 625.501 403.678 627.127 406.667C628.175 408.607 629.224 410.494 630.22 412.539C627.179 410.809 624.138 409.026 621.044 407.243C620.52 408.135 619.996 409.026 619.471 409.865C616.011 415.895 612.55 421.925 609.089 427.955C608.303 429.266 607.516 430.577 606.782 431.94C606.415 432.622 606.153 433.408 606.101 434.195C605.996 435.61 606.887 436.816 608.303 437.183C608.88 437.341 609.509 437.445 610.138 437.445C620.992 437.445 631.846 437.445 642.7 437.445C642.909 437.445 643.172 437.445 643.434 437.445C643.434 440.749 643.434 443.947 643.434 447.251C643.224 447.251 643.014 447.303 642.805 447.303C631.793 447.303 620.73 447.356 609.719 447.251C608.25 447.251 606.835 446.726 605.367 446.569C602.011 446.202 599.442 444.367 597.449 441.798C595.771 439.595 594.88 437.026 595.299 434.09C595.614 432.045 596.4 430.21 597.449 428.427C601.067 422.135 604.737 415.79 608.355 409.498C609.771 407.243 611.134 404.884 612.55 402.419Z" fill="black"/>
<path d="M700.114 319.29C699.904 320.234 699.695 321.126 699.537 322.069C699.223 323.59 698.436 324.796 697.545 325.95C695.552 328.624 692.773 329.725 689.575 329.934C686.953 330.144 684.279 330.039 681.605 330.039C673.687 330.039 665.822 330.039 657.905 330.039C657.747 330.039 657.59 330.039 657.38 330.092C657.38 333.081 657.38 336.069 657.38 339.058C657.328 339.058 657.328 339.058 657.275 339.11C657.171 338.953 657.066 338.848 657.013 338.691C655.702 336.541 654.392 334.444 653.081 332.294C651.56 329.777 650.039 327.313 648.466 324.796C648.257 324.481 648.309 324.272 648.466 324.009C650.564 320.549 652.714 317.088 654.811 313.627C655.597 312.317 656.384 311.006 657.275 309.695C657.275 313.156 657.275 316.616 657.275 320.129C657.538 320.129 657.695 320.182 657.852 320.182C667.133 320.182 676.414 320.182 685.695 320.182C686.848 320.182 688.054 320.077 688.946 319.081C689.522 318.451 689.732 317.665 689.68 316.826C689.627 315.568 688.946 314.571 688.369 313.575C685.433 308.437 682.444 303.298 679.455 298.159C677.305 294.437 675.155 290.766 673.006 287.043C672.796 286.624 672.534 286.204 672.272 285.733C675.103 284.107 677.882 282.482 680.766 280.804C681.028 281.276 681.29 281.748 681.552 282.167C685.485 288.983 689.418 295.8 693.35 302.669C694.766 305.133 696.286 307.598 697.65 310.167C698.436 311.635 698.961 313.26 699.485 314.886C699.799 315.777 699.904 316.721 700.062 317.665C700.114 318.084 700.114 318.714 700.114 319.29Z" fill="black"/>
<path d="M648.626 235.815C649.098 235.868 649.622 235.92 650.094 235.973C653.03 236.235 655.18 237.86 657.068 240.01C657.592 240.639 658.117 241.373 658.536 242.108C663.465 250.549 668.341 258.991 673.218 267.433C673.427 267.853 673.689 268.22 673.952 268.692C676.573 267.119 679.195 265.598 681.817 264.077C681.869 264.077 681.869 264.13 681.922 264.13C681.817 264.34 681.712 264.497 681.607 264.707C680.349 267.014 679.09 269.268 677.884 271.576C676.573 274.04 675.263 276.504 674.004 279.021C673.794 279.388 673.585 279.546 673.165 279.493C668.551 279.336 663.884 279.231 659.27 279.126C658.326 279.126 657.435 279.126 656.491 279.126C656.491 279.074 656.439 278.969 656.439 278.916C659.427 277.186 662.469 275.403 665.51 273.673C664.618 272.1 663.727 270.632 662.888 269.164C659.113 262.662 655.39 256.107 651.615 249.606C651.09 248.714 650.514 247.823 649.622 247.246C648.574 246.617 647.21 246.617 646.319 247.456C645.69 248.033 645.113 248.714 644.693 249.501C639.869 257.785 635.046 266.122 630.274 274.459C629.592 275.665 628.911 276.819 628.177 278.025C625.293 276.399 622.514 274.774 619.63 273.149C620.312 271.995 620.941 270.841 621.57 269.74C626.184 261.77 630.798 253.853 635.36 245.83C636.776 243.314 638.663 241.216 640.551 239.066C641.075 238.49 641.862 238.07 642.544 237.651C644.064 236.812 645.69 236.182 647.42 235.92C647.472 235.92 647.577 235.868 647.63 235.815C647.839 235.815 648.206 235.815 648.626 235.815Z" fill="black"/>
<path d="M612.55 285.104C609.928 283.583 607.359 282.063 604.79 280.595C604.79 280.542 604.79 280.49 604.79 280.437C605.157 280.437 605.576 280.385 605.943 280.385C611.082 280.228 616.22 280.07 621.359 279.913C621.778 279.913 622.041 280.018 622.25 280.385C623.876 283.374 625.501 286.362 627.127 289.351C628.175 291.291 629.224 293.179 630.22 295.224C627.179 293.494 624.138 291.711 621.044 289.928C620.52 290.819 619.996 291.711 619.471 292.55C616.011 298.58 612.55 304.61 609.089 310.639C608.303 311.95 607.516 313.261 606.782 314.624C606.415 315.306 606.153 316.093 606.101 316.879C605.996 318.295 606.887 319.501 608.303 319.868C608.88 320.025 609.509 320.13 610.138 320.13C620.992 320.13 631.846 320.13 642.7 320.13C642.909 320.13 643.172 320.13 643.434 320.13C643.434 323.433 643.434 326.632 643.434 329.935C643.224 329.935 643.014 329.988 642.805 329.988C631.793 329.988 620.73 330.04 609.719 329.935C608.25 329.935 606.835 329.411 605.367 329.254C602.011 328.887 599.442 327.051 597.449 324.482C595.771 322.28 594.88 319.711 595.299 316.774C595.614 314.729 596.4 312.894 597.449 311.111C601.067 304.819 604.737 298.475 608.355 292.183C609.771 289.928 611.134 287.568 612.55 285.104Z" fill="black"/>
<path d="M700.115 201.973C699.905 202.917 699.696 203.808 699.538 204.752C699.224 206.273 698.437 207.479 697.546 208.632C695.553 211.306 692.774 212.407 689.576 212.617C686.954 212.827 684.28 212.722 681.606 212.722C673.688 212.722 665.823 212.722 657.906 212.722C657.748 212.722 657.591 212.722 657.381 212.774C657.381 215.763 657.381 218.752 657.381 221.741C657.329 221.741 657.329 221.741 657.276 221.793C657.172 221.636 657.067 221.531 657.014 221.374C655.703 219.224 654.392 217.126 653.082 214.977C651.561 212.46 650.04 209.995 648.467 207.479C648.258 207.164 648.31 206.954 648.467 206.692C650.565 203.231 652.715 199.771 654.812 196.31C655.598 194.999 656.385 193.688 657.276 192.378C657.276 195.838 657.276 199.299 657.276 202.812C657.539 202.812 657.696 202.864 657.853 202.864C667.134 202.864 676.415 202.864 685.696 202.864C686.849 202.864 688.055 202.759 688.947 201.763C689.523 201.134 689.733 200.348 689.681 199.509C689.628 198.25 688.947 197.254 688.37 196.258C685.433 191.119 682.445 185.981 679.456 180.842C677.306 177.119 675.156 173.449 673.007 169.726C672.797 169.307 672.535 168.887 672.273 168.415C675.104 166.79 677.883 165.164 680.767 163.486C681.029 163.958 681.291 164.43 681.553 164.85C685.486 171.666 689.418 178.482 693.351 185.351C694.767 187.816 696.287 190.28 697.651 192.849C698.437 194.318 698.962 195.943 699.486 197.569C699.8 198.46 699.905 199.404 700.063 200.348C700.115 200.767 700.115 201.396 700.115 201.973Z" fill="black"/>
<path d="M648.626 118.498C649.098 118.55 649.622 118.603 650.094 118.655C653.03 118.918 655.18 120.543 657.068 122.693C657.592 123.322 658.117 124.056 658.536 124.79C663.465 133.232 668.341 141.674 673.218 150.116C673.427 150.535 673.689 150.902 673.952 151.374C676.573 149.801 679.195 148.281 681.817 146.76C681.869 146.76 681.869 146.812 681.922 146.812C681.817 147.022 681.712 147.18 681.607 147.389C680.349 149.696 679.09 151.951 677.884 154.258C676.573 156.723 675.263 159.187 674.004 161.704C673.794 162.071 673.585 162.228 673.165 162.176C668.551 162.018 663.884 161.914 659.27 161.809C658.326 161.809 657.435 161.809 656.491 161.809C656.491 161.756 656.439 161.651 656.439 161.599C659.427 159.869 662.469 158.086 665.51 156.355C664.618 154.782 663.727 153.314 662.888 151.846C659.113 145.344 655.39 138.79 651.615 132.288C651.09 131.397 650.514 130.505 649.622 129.929C648.574 129.299 647.21 129.299 646.319 130.138C645.69 130.715 645.113 131.397 644.693 132.183C639.869 140.468 635.046 148.805 630.274 157.142C629.592 158.348 628.911 159.502 628.177 160.708C625.293 159.082 622.514 157.457 619.63 155.831C620.312 154.678 620.941 153.524 621.57 152.423C626.184 144.453 630.798 136.535 635.36 128.513C636.776 125.996 638.663 123.899 640.551 121.749C641.075 121.172 641.862 120.753 642.544 120.333C644.064 119.494 645.69 118.865 647.42 118.603C647.472 118.603 647.577 118.55 647.63 118.498C647.839 118.498 648.206 118.498 648.626 118.498Z" fill="black"/>
<path d="M612.55 167.787C609.928 166.266 607.359 164.746 604.79 163.277C604.79 163.225 604.79 163.172 604.79 163.12C605.157 163.12 605.576 163.068 605.943 163.068C611.082 162.91 616.22 162.753 621.359 162.596C621.778 162.596 622.041 162.701 622.25 163.068C623.876 166.056 625.501 169.045 627.127 172.034C628.175 173.974 629.224 175.862 630.22 177.906C627.179 176.176 624.138 174.393 621.044 172.611C620.52 173.502 619.996 174.393 619.471 175.232C616.011 181.262 612.55 187.292 609.089 193.322C608.303 194.633 607.516 195.944 606.782 197.307C606.415 197.989 606.153 198.775 606.101 199.562C605.996 200.977 606.887 202.183 608.303 202.551C608.88 202.708 609.509 202.813 610.138 202.813C620.992 202.813 631.846 202.813 642.7 202.813C642.909 202.813 643.172 202.813 643.434 202.813C643.434 206.116 643.434 209.315 643.434 212.618C643.224 212.618 643.014 212.67 642.805 212.67C631.793 212.67 620.73 212.723 609.719 212.618C608.25 212.618 606.835 212.094 605.367 211.936C602.011 211.569 599.442 209.734 597.449 207.165C595.771 204.962 594.88 202.393 595.299 199.457C595.614 197.412 596.4 195.577 597.449 193.794C601.067 187.502 604.737 181.157 608.355 174.865C609.771 172.611 611.134 170.251 612.55 167.787Z" fill="black"/>
<path d="M700.115 86.6117C699.905 87.5555 699.696 88.4469 699.538 89.3907C699.224 90.9113 698.437 92.1172 697.546 93.2708C695.553 95.9449 692.774 97.0461 689.576 97.2558C686.954 97.4655 684.28 97.3607 681.606 97.3607C673.688 97.3607 665.823 97.3607 657.906 97.3607C657.748 97.3607 657.591 97.3607 657.381 97.4131C657.381 100.402 657.381 103.391 657.381 106.379C657.329 106.379 657.329 106.379 657.276 106.432C657.172 106.274 657.067 106.17 657.014 106.012C655.703 103.862 654.392 101.765 653.082 99.6153C651.561 97.0985 650.04 94.6341 648.467 92.1172C648.258 91.8026 648.31 91.5929 648.467 91.3307C650.565 87.8701 652.715 84.4094 654.812 80.9488C655.598 79.6379 656.385 78.3271 657.276 77.0162C657.276 80.4769 657.276 83.9375 657.276 87.4506C657.539 87.4506 657.696 87.503 657.853 87.503C667.134 87.503 676.415 87.503 685.696 87.503C686.849 87.503 688.055 87.3982 688.947 86.4019C689.523 85.7727 689.733 84.9862 689.681 84.1473C689.628 82.8888 688.947 81.8926 688.37 80.8963C685.433 75.7578 682.445 70.6192 679.456 65.4807C677.306 61.7579 675.156 58.0875 673.007 54.3647C672.797 53.9452 672.535 53.5257 672.273 53.0538C675.104 51.4284 677.883 49.8029 680.767 48.125C681.029 48.5969 681.291 49.0688 681.553 49.4883C685.486 56.3047 689.418 63.1212 693.351 69.99C694.767 72.4544 696.287 74.9188 697.651 77.4881C698.437 78.9563 698.962 80.5817 699.486 82.2072C699.8 83.0986 699.905 84.0424 700.063 84.9862C700.115 85.4057 700.115 86.0349 700.115 86.6117Z" fill="black"/>
<path d="M648.626 3.13672C649.098 3.18915 649.622 3.24159 650.094 3.29402C653.03 3.55619 655.18 5.18165 657.068 7.33145C657.592 7.96066 658.117 8.69474 658.536 9.42882C663.465 17.8707 668.341 26.3126 673.218 34.7545C673.427 35.174 673.689 35.541 673.952 36.0129C676.573 34.4399 679.195 32.9193 681.817 31.3987C681.869 31.3987 681.869 31.4512 681.922 31.4512C681.817 31.6609 681.712 31.8182 681.607 32.0279C680.349 34.335 679.09 36.5897 677.884 38.8968C676.573 41.3612 675.263 43.8256 674.004 46.3425C673.794 46.7095 673.585 46.8668 673.165 46.8144C668.551 46.6571 663.884 46.5522 659.27 46.4473C658.326 46.4473 657.435 46.4473 656.491 46.4473C656.491 46.3949 656.439 46.29 656.439 46.2376C659.427 44.5073 662.469 42.7245 665.51 40.9942C664.618 39.4211 663.727 37.953 662.888 36.4848C659.113 29.983 655.39 23.4287 651.615 16.9269C651.09 16.0355 650.514 15.1441 649.622 14.5674C648.574 13.9381 647.21 13.9382 646.319 14.7771C645.69 15.3539 645.113 16.0355 644.693 16.822C639.869 25.1066 635.046 33.4437 630.274 41.7807C629.592 42.9867 628.911 44.1402 628.177 45.3462C625.293 43.7207 622.514 42.0953 619.63 40.4698C620.312 39.3163 620.941 38.1627 621.57 37.0616C626.184 29.0916 630.798 21.1741 635.36 13.1516C636.776 10.6348 638.663 8.53743 640.551 6.38763C641.075 5.81086 641.862 5.39139 642.544 4.97191C644.064 4.13297 645.69 3.50376 647.42 3.24159C647.472 3.24159 647.577 3.18915 647.63 3.13672C647.839 3.13672 648.206 3.13672 648.626 3.13672Z" fill="black"/>
<path d="M612.55 52.4254C609.928 50.9048 607.359 49.3842 604.79 47.916C604.79 47.8636 604.79 47.8112 604.79 47.7587C605.157 47.7587 605.576 47.7063 605.943 47.7063C611.082 47.549 616.22 47.3917 621.359 47.2344C621.778 47.2344 622.041 47.3392 622.25 47.7063C623.876 50.695 625.501 53.6838 627.127 56.6725C628.175 58.6126 629.224 60.5002 630.22 62.5451C627.179 60.8148 624.138 59.0321 621.044 57.2493C620.52 58.1407 619.996 59.0321 619.471 59.871C616.011 65.9009 612.55 71.9309 609.089 77.9608C608.303 79.2716 607.516 80.5825 606.782 81.9458C606.415 82.6274 606.153 83.4139 606.101 84.2004C605.996 85.6162 606.887 86.8221 608.303 87.1892C608.88 87.3465 609.509 87.4514 610.138 87.4514C620.992 87.4514 631.846 87.4514 642.7 87.4514C642.909 87.4514 643.172 87.4514 643.434 87.4514C643.434 90.7547 643.434 93.9532 643.434 97.2565C643.224 97.2565 643.014 97.309 642.805 97.309C631.793 97.309 620.73 97.3614 609.719 97.2565C608.25 97.2565 606.835 96.7322 605.367 96.5749C602.011 96.2079 599.442 94.3727 597.449 91.8034C595.771 89.6012 594.88 87.0319 595.299 84.0956C595.614 82.0506 596.4 80.2154 597.449 78.4327C601.067 72.1406 604.737 65.7961 608.355 59.504C609.771 57.2493 611.134 54.8898 612.55 52.4254Z" fill="black"/>
<path d="M1137.7 253.592L1079.81 253.414C1067.98 252.258 1057.75 244.521 1051.97 233.494C1050.9 231.448 1047.79 231.448 1046.72 233.494C1040.94 244.521 1030.81 252.258 1018.89 253.414L960.996 253.592L960.996 171.776L1018.89 171.954C1030.72 173.11 1040.94 180.847 1046.72 191.874C1047.79 193.92 1050.9 193.92 1051.97 191.874C1057.75 180.847 1067.89 173.11 1079.81 171.954L1137.7 171.776L1137.7 253.592Z" stroke="#1A1A18" stroke-width="8" stroke-miterlimit="22.9256"/>
<path d="M1018.98 171.954L1018.98 253.592L961.085 253.592L961.085 171.954L1018.98 171.954Z" fill="#1A1A18"/>
<path fill-rule="evenodd" clip-rule="evenodd" d="M760.23 9.93652H776.31H794.474V60.5618H776.31V205.167H794.474V255.792H776.31V390.973H794.474V441.598H776.31H760.23V390.973V255.792V205.167V60.5618V9.93652ZM824.176 205.167H841.522V60.5618H824.176V205.167ZM841.447 256.062H824.102V442.137H808.022V256.062V205.436V60.5618V9.93652H824.102H841.447H850.008H857.527V441.867H841.447V256.062ZM890.877 391.242H909.115V441.867H890.877H874.872V391.242V60.5618V9.93652H890.951H909.115V60.5618H890.877V391.242Z" fill="black"/>
<path d="M114.171 740.477C108.195 739.891 102.219 738.837 96.3607 737.313C95.4233 737.079 94.6031 736.728 93.6657 736.493C91.5565 735.79 89.3301 735.321 87.3382 734.501C85.229 733.798 83.237 732.861 81.245 731.923C78.4328 730.634 75.5034 729.345 72.6912 727.939C70.4648 726.768 68.2385 725.479 66.1293 724.073C63.903 722.666 61.7938 721.26 59.6846 719.854C58.1614 718.8 56.6381 717.511 55.1148 716.339C53.4743 715.05 51.951 713.878 50.4277 712.472C48.4358 710.715 46.5609 708.957 44.8033 707.082C42.6941 704.973 40.585 702.864 38.7102 700.52C36.0151 697.239 33.4372 693.841 31.0937 690.326C28.5159 686.342 26.0552 682.241 23.8288 678.14C22.4227 675.562 21.3681 672.867 20.1964 670.172C18.9074 666.891 17.5013 663.61 16.4467 660.329C15.275 656.696 14.3376 652.83 13.5173 649.08C12.9315 646.502 12.5799 643.807 12.2284 641.229C11.8769 638.651 11.291 636.074 11.291 633.378C11.1738 627.402 10.8223 621.427 11.6425 615.451C12.3456 609.709 13.0486 604.084 14.4547 598.46C15.5093 594.476 16.6811 590.492 18.0872 586.742C19.7277 582.29 21.6025 577.954 23.7116 573.736C25.8208 569.635 28.1643 565.768 30.7422 561.901C32.8514 558.62 35.1949 555.456 37.6556 552.41C39.7647 549.832 42.1083 547.371 44.4518 545.028C47.1468 542.333 49.959 539.755 52.7713 537.294C54.9976 535.419 57.4583 533.662 59.919 531.904C62.9656 529.795 66.1293 527.803 69.4102 525.811C72.3396 524.171 75.269 522.647 78.3156 521.241C81.245 519.835 84.2916 518.663 87.221 517.491C89.7988 516.554 92.3767 515.851 94.9546 515.031C98.3527 514.093 101.868 513.273 105.383 512.453C107.024 512.101 108.781 511.984 110.539 511.75C113.351 511.398 116.163 510.812 118.858 510.695C125.069 510.578 131.279 510.109 137.372 511.164C140.536 511.633 143.583 511.984 146.746 512.336C147.684 512.453 148.738 512.687 149.676 512.922C152.488 513.625 155.183 514.328 157.878 515.148C160.339 515.851 162.799 516.671 165.377 517.374C166.08 517.609 166.666 517.96 167.369 518.195C169.478 519.015 171.47 519.835 173.58 520.772C174.986 521.358 176.392 522.061 177.681 522.764C180.141 524.053 182.602 525.225 184.946 526.631C187.055 527.803 189.047 529.209 191.039 530.615C194.085 532.724 197.132 534.951 199.944 537.294C203.225 539.989 206.272 542.919 209.201 546.082C212.13 549.246 215.06 552.41 217.638 555.808C220.098 558.972 222.208 562.487 224.434 565.768C227.832 570.924 230.527 576.431 232.753 582.173C234.277 585.922 235.448 589.672 236.62 593.539C237.558 596.468 238.261 599.515 238.964 602.561C242.362 618.497 240.136 642.401 239.784 644.51C239.198 647.791 238.729 650.955 237.909 654.119C237.089 657.4 236.034 660.68 234.98 663.961C234.042 666.656 232.988 669.351 231.816 671.929C230.527 674.859 229.121 677.905 227.481 680.717C225.254 684.701 222.793 688.451 220.333 692.201C218.341 695.013 216.232 697.708 214.005 700.403C212.248 702.512 210.373 704.621 208.381 706.613C206.506 708.488 204.631 710.246 202.639 712.003C200.53 713.878 198.421 715.753 196.077 717.394C192.914 719.737 189.516 721.963 186.235 724.073C183.54 725.713 180.845 727.236 178.032 728.642C175.454 730.049 172.759 731.337 169.947 732.392C167.721 733.329 165.494 734.033 163.268 734.736C160.807 735.556 158.347 736.376 155.886 737.079C154.597 737.431 153.308 737.665 152.019 737.899C149.91 738.368 147.918 738.837 145.809 739.188C143.348 739.54 140.888 739.774 138.427 740.126C137.958 740.594 114.523 740.477 114.171 740.477ZM131.162 649.9C142.88 649.549 153.308 649.432 163.854 648.143C171.236 647.322 178.735 646.385 186 644.979C187.524 644.627 189.047 644.627 190.57 644.276C193.617 643.573 196.663 642.753 199.593 641.932C202.288 641.229 205.1 640.643 207.795 639.589C210.607 638.534 213.419 637.245 215.997 635.605C219.395 633.378 222.442 630.918 224.785 627.52C227.949 623.301 229.824 618.497 230.644 613.341C231.699 607.014 230.761 600.921 228.769 594.945C227.949 592.601 227.129 590.141 226.192 587.914C225.02 584.985 223.848 582.055 222.442 579.243C220.567 575.611 218.575 572.095 216.466 568.58C214.474 565.416 212.248 562.37 209.904 559.44C207.678 556.511 205.1 553.816 202.639 551.121C201.585 549.949 200.413 548.777 199.124 547.723C197.601 546.434 196.077 545.145 194.554 543.856C192.211 541.981 189.984 540.224 187.641 538.466C185.532 536.943 183.422 535.654 181.313 534.248C180.259 533.545 179.204 532.959 178.032 532.373C175.22 530.967 172.408 529.561 169.596 528.155C168.19 527.451 166.666 526.748 165.143 526.28C162.682 525.459 160.339 524.639 157.878 523.819C155.417 523.116 153.074 522.296 150.613 521.71C145.809 520.655 141.005 519.835 136.2 519.483C126.241 518.663 116.398 519.015 106.555 520.89C103.04 521.593 99.4073 522.296 96.0092 523.233C92.4939 524.288 89.0958 525.694 85.6977 526.983C82.7683 528.155 79.9561 529.561 77.1439 530.85C75.8549 531.435 74.6832 532.256 73.3942 532.959C72.2225 533.662 70.9335 534.365 69.7618 535.068C67.887 536.24 66.1293 537.411 64.3717 538.583C62.614 539.872 60.8564 541.161 59.2159 542.567C57.1068 544.325 54.9976 546.082 53.0056 547.957C51.1308 549.715 49.256 551.59 47.6155 553.582C45.272 556.277 42.8113 558.972 40.7021 561.784C38.2414 565.065 36.1323 568.463 34.0231 571.978C32.4998 574.439 31.0937 577.134 29.922 579.712C28.5159 582.758 27.3441 585.805 26.0552 588.969C25.2349 591.195 24.4147 593.421 23.8288 595.648C23.1258 598.226 22.6571 600.921 21.954 603.499C20.7822 608.068 20.3135 612.756 19.962 617.56C19.3761 624.825 19.6105 632.09 20.5479 639.354C21.3681 645.799 22.7742 652.127 24.7662 658.337C25.4693 660.68 26.2895 662.907 27.1097 665.133C28.3987 668.18 29.6876 671.226 31.3281 674.273C33.3201 678.022 35.4292 681.889 37.8899 685.405C40.1163 688.803 42.8113 691.966 45.3892 695.13C48.2014 698.763 51.4823 702.044 54.9976 705.09C58.1614 707.785 61.4423 710.246 64.606 712.824C65.4263 713.527 66.2465 714.113 67.1839 714.581C69.9961 716.339 72.9255 718.097 75.8549 719.737C77.3782 720.557 78.9015 721.378 80.5419 722.198C82.4168 723.018 84.2916 723.838 86.0492 724.658C87.8069 725.362 89.6817 726.182 91.5565 726.768C94.0172 727.588 96.4779 728.291 98.9386 728.994C100.228 729.345 101.399 729.697 102.688 729.931C106.438 730.634 110.07 731.572 113.937 731.806C116.984 731.923 120.03 732.509 123.077 732.626C131.162 732.978 139.013 732.158 146.981 730.634C151.199 729.814 155.535 728.877 159.519 727.354C162.214 726.299 164.909 725.362 167.721 724.307C169.478 723.604 171.119 722.901 172.759 722.198C173.931 721.612 175.103 720.909 176.275 720.323C177.681 719.503 179.087 718.8 180.493 717.862C183.188 716.222 185.883 714.581 188.461 712.824C190.922 711.066 193.265 709.191 195.492 707.199C197.952 704.973 200.53 702.747 202.756 700.286C205.451 697.474 207.912 694.544 210.49 691.498C211.779 689.974 212.951 688.334 214.122 686.576C215.997 683.647 217.872 680.6 219.63 677.437C220.801 675.327 221.856 672.984 222.911 670.758C223.145 670.172 223.262 669.469 223.145 668.883C222.793 666.891 221.036 665.719 219.747 665.485C218.224 665.133 216.114 666.422 215.411 667.945C214.826 669.117 214.122 670.289 213.419 671.343C212.013 673.687 210.607 676.03 209.084 678.257C208.146 679.663 207.092 681.069 206.037 682.358C205.686 682.827 205.217 682.827 204.866 682.358C204.397 682.006 204.397 681.655 204.748 681.186C205.451 680.132 206.272 679.077 206.975 677.905C208.967 674.742 210.842 671.578 212.716 668.297C213.302 667.242 213.888 666.071 214.474 664.899C215.646 662.204 213.654 659.274 210.724 659.157C208.967 659.04 207.912 659.86 206.975 661.266C206.389 662.321 205.803 663.375 205.217 664.43C204.045 666.422 202.991 668.414 201.819 670.406C200.764 672.164 199.71 674.038 198.538 675.796C198.187 676.382 197.483 676.382 196.898 676.03C196.312 675.562 196.898 675.21 197.015 674.859C198.069 673.101 199.241 671.343 200.179 669.469C201.35 667.242 202.522 664.899 203.694 662.672C204.514 661.149 205.451 659.626 206.037 657.985C206.389 657.048 206.389 655.876 206.037 654.939C205.451 653.416 204.163 652.478 202.405 652.478C200.647 652.478 199.475 653.298 198.538 654.704C195.843 659.392 193.148 664.079 190.453 668.766C190.101 669.469 189.516 669.586 188.812 669.234C188.227 668.883 188.109 668.18 188.461 667.594C189.398 665.953 190.336 664.43 191.156 662.79C192.914 659.391 194.788 655.993 196.546 652.478C197.249 651.189 197.249 649.666 196.663 648.26C196.077 646.737 194.671 645.916 193.031 645.916C191.273 645.916 189.984 646.971 189.281 648.494C188.227 650.603 187.289 652.83 186.235 654.822C184.594 657.868 182.954 660.798 180.962 663.61C178.853 666.774 176.275 669.703 173.462 672.398C173.228 672.632 172.759 672.867 172.291 672.984C170.533 673.218 169.244 672.515 168.424 670.64C167.721 669.117 167.252 667.477 166.666 665.953C165.612 662.672 163.385 660.798 159.987 660.212C159.167 660.095 158.347 660.329 157.409 660.446C156.823 660.563 156.589 661.032 156.589 661.735C156.589 666.774 156.472 671.812 156.472 676.968C156.472 679.311 156.355 681.655 156.238 683.998C156.238 684.467 155.886 685.053 155.535 685.17C152.839 686.459 150.144 687.865 147.215 688.568C144.637 689.154 142.294 690.209 139.716 690.677C137.138 691.146 134.56 691.263 131.982 691.732C126.358 692.669 120.85 691.615 115.343 691.381C115.109 691.381 114.757 691.263 114.523 691.146C111.359 690.209 108.078 689.857 104.915 688.451C102.805 687.514 100.462 686.811 98.3527 685.99C96.9466 685.405 95.5405 684.701 94.2515 683.881C91.4393 682.241 88.7443 680.6 86.0492 678.608C83.8229 676.968 81.8309 675.093 79.8389 673.218C76.558 670.289 73.7457 666.774 71.2851 663.141C68.59 659.157 66.2465 654.939 64.4889 650.369C64.2545 649.666 63.4343 649.08 62.8484 648.728C61.2079 648.025 59.3331 647.674 57.8098 646.737C56.4037 645.916 55.1148 644.745 54.0602 643.573C52.0682 640.878 51.1308 637.597 51.5995 634.199C51.951 632.324 52.1854 630.683 51.0136 629.043V628.926C50.5449 625.996 50.3106 622.95 51.951 620.255C52.0682 619.903 52.1854 619.435 52.0682 619.2C51.248 617.325 51.1308 615.451 51.4823 613.459C51.951 611.115 52.8884 608.889 54.1774 606.897C54.4117 606.428 54.6461 605.959 54.5289 605.491C54.2945 603.381 54.5289 601.272 55.3491 599.28C56.1694 596.937 57.6927 595.296 59.5675 593.89C62.1453 592.133 65.0747 591.664 68.1213 592.015C68.4728 592.015 68.9415 591.898 69.0587 591.547C70.1133 590.141 71.0507 588.617 72.1053 587.211C73.9801 584.868 75.7377 582.407 77.8469 580.298C79.6045 578.423 81.5965 576.665 83.7057 574.908C86.0492 573.033 88.3927 571.158 90.9706 569.518C93.6656 567.877 96.4779 566.354 99.4073 565.065C101.868 563.893 104.446 563.073 107.024 562.253C109.25 561.55 111.476 561.081 113.703 560.612C114.757 560.378 115.812 560.026 116.984 560.026C122.374 559.675 127.764 559.44 133.154 559.909C134.912 560.026 136.786 560.261 138.544 560.612C141.239 561.198 144.051 562.018 146.629 562.839C148.738 563.542 150.847 564.245 152.957 565.065C154.48 565.651 155.886 566.588 157.409 567.291C160.807 568.932 163.854 571.041 166.901 573.384C167.604 573.97 168.307 574.556 169.01 575.142C171.002 576.9 172.994 578.657 174.751 580.532C176.743 582.758 178.618 585.102 180.376 587.563C181.782 589.437 182.954 591.429 184.008 593.539C185.297 595.999 184.243 598.46 181.899 599.515C180.493 600.1 179.087 600.804 177.564 601.389C175.103 602.327 172.759 603.381 170.182 603.967C165.963 605.022 161.745 605.842 157.527 606.545C153.543 607.131 149.441 607.483 145.34 607.834C137.724 608.537 130.107 608.537 122.491 608.303C122.139 608.303 121.671 607.951 121.436 607.717C120.265 605.959 119.21 604.084 118.155 602.327C116.749 599.983 115.46 597.523 114.054 595.179C113 593.304 111.828 591.312 110.773 589.437C110.656 589.203 110.305 588.734 110.07 588.734C108.781 588.852 107.375 588.617 106.321 589.203C104.211 590.258 102.923 592.133 103.04 594.71C103.157 597.405 103.157 600.218 103.157 602.913C103.157 604.67 101.985 605.725 100.345 605.725C98.4699 605.608 96.5951 605.491 94.8374 605.139C93.5485 604.905 92.2595 604.553 90.8534 604.319C87.1038 603.499 83.237 602.796 79.3702 601.975C78.3156 601.741 77.261 601.389 76.2064 601.155C74.2144 600.686 72.1053 600.335 70.1133 599.866C68.2385 599.397 66.0121 599.866 65.0747 601.389C62.8484 604.788 64.606 607.834 68.1213 608.772C71.2851 609.709 74.4488 610.295 77.6125 611.115C78.4328 611.349 79.1358 611.701 79.9561 611.818C81.3622 612.17 82.8855 612.404 84.4088 612.755C84.8775 612.873 85.3462 612.99 85.5805 613.341C85.8149 613.576 86.0492 614.279 85.932 614.513C85.6977 614.865 85.1118 615.216 84.7603 615.099C81.4794 614.396 78.0813 613.693 74.8003 612.99C71.9881 612.404 69.2931 611.701 66.4808 611.115C64.606 610.764 63.1999 611.701 62.3797 613.341C61.6766 614.63 61.911 615.802 62.614 617.091C63.5514 618.497 65.0747 619.083 66.598 619.435C69.6446 620.255 72.8083 620.958 75.9721 621.661C77.1439 622.012 78.4328 622.364 79.6045 622.598C81.4794 623.067 83.3542 623.536 85.229 624.122C85.5805 624.239 85.6977 624.707 85.932 624.942C85.5805 625.176 85.3462 625.293 84.9946 625.528C84.8775 625.528 84.6431 625.528 84.5259 625.528C81.7137 624.942 78.7843 624.356 75.9721 623.653C74.2145 623.301 72.4568 622.833 70.6992 622.364C69.5274 622.13 68.2385 622.012 67.0667 621.544C65.4263 620.958 64.2545 621.427 62.9656 622.247C60.9736 623.653 60.8564 627.168 62.8484 628.574C63.903 629.277 65.1919 629.863 66.4808 630.098C69.5274 630.918 72.6912 631.504 75.7377 632.207C77.261 632.558 78.6671 632.91 80.1904 633.261C81.4794 633.613 82.8855 633.847 84.1744 634.199C84.6431 634.316 85.1118 634.55 85.4633 634.785C85.6977 634.902 85.8149 635.37 85.8149 635.605C85.6977 635.839 85.3462 636.073 85.1118 636.191C84.8775 636.308 84.5259 636.191 84.2916 636.073C81.3622 635.488 78.4328 634.902 75.6206 634.199C72.9255 633.613 70.2305 633.027 67.4182 632.441C66.7152 632.324 66.1293 632.207 65.4263 632.207C63.5514 632.324 62.2625 633.613 61.911 635.253C61.4423 636.894 62.2625 638.769 63.903 639.354C66.4808 640.409 69.1759 641.346 71.9881 642.167C74.9175 642.987 77.8469 643.456 80.7763 644.159C82.1824 644.51 83.5885 644.979 85.1118 645.213C89.916 645.916 94.8374 646.619 99.6416 647.205C103.274 647.674 107.024 648.143 110.656 648.377C117.804 649.432 125.069 649.549 131.162 649.9ZM90.6191 672.281C90.8534 672.046 91.205 671.929 91.4393 671.695C93.3141 668.414 95.5405 665.367 98.2355 662.79C98.4699 662.555 98.587 661.969 98.3527 661.735C97.6496 660.095 96.8294 658.454 96.1263 656.696C95.7748 655.759 95.0718 655.408 94.1344 655.29C92.4939 655.173 90.9706 655.056 89.3301 654.822C84.4088 653.884 79.6045 652.83 74.6831 651.892C74.4488 651.892 74.0973 651.892 74.0973 652.009C73.9801 652.127 73.9801 652.478 74.0973 652.712C74.3316 653.181 74.6832 653.65 75.0347 654.119C76.558 656.462 77.8469 658.923 79.4874 661.032C81.5965 663.727 83.8229 666.188 86.1664 668.531C87.221 669.703 88.6271 670.758 89.7988 671.812C90.1504 671.929 90.3847 672.046 90.6191 672.281ZM157.995 598.577C161.393 597.874 164.44 597.288 167.604 596.585C169.83 595.999 171.939 595.179 174.048 594.476C174.869 594.242 174.986 593.773 174.517 593.07C173.462 591.664 172.408 590.258 171.353 588.969C169.713 587.094 168.072 585.336 166.315 583.696C164.791 582.29 163.034 581.001 161.393 579.712C160.807 579.243 160.456 579.478 160.104 579.946C158.464 582.993 156.12 585.454 153.66 587.797C153.191 588.266 153.191 588.617 153.425 589.203C154.714 592.015 155.769 594.945 157.058 597.757C157.292 597.991 157.761 598.226 157.995 598.577ZM94.9546 597.288C95.1889 597.054 95.6576 596.82 95.7748 596.351C96.9466 593.773 98.0012 591.312 99.1729 588.734C99.2901 588.5 99.1729 587.914 98.9386 587.797C96.3607 585.336 94.1344 582.641 92.2595 579.595C92.0252 579.126 91.5565 578.892 91.0878 579.36C88.9786 581.118 86.7523 582.758 84.8775 584.75C82.5339 587.211 80.5419 589.906 78.4328 592.484C77.8469 593.304 77.8469 593.421 78.7843 593.656C81.7137 594.242 84.7603 594.945 87.6897 595.531C90.0332 596.117 92.3767 596.702 94.9546 597.288ZM130.342 678.843C130.225 678.843 130.225 678.843 130.107 678.96C130.225 679.194 130.342 679.429 130.459 679.429C130.693 679.429 131.045 679.311 131.279 679.194C132.334 678.14 133.505 677.085 134.56 676.03C137.724 672.867 140.419 669.234 142.88 665.602C143.465 664.782 143.348 664.547 142.528 663.961C139.716 662.204 136.669 661.149 133.388 660.446C132.685 660.329 131.982 660.095 131.279 659.977C130.576 659.86 130.225 660.095 130.225 660.798C130.342 666.774 130.342 672.867 130.342 678.843ZM122.257 669.469C122.139 666.539 122.139 663.61 122.139 660.68C122.139 659.86 121.905 659.626 121.085 659.86C120.382 659.977 119.679 660.212 119.093 660.446C116.163 661.149 113.351 662.087 110.656 663.61C109.016 664.547 109.016 664.547 110.07 666.305C110.187 666.422 110.187 666.539 110.305 666.656C111.594 668.414 112.765 670.406 114.171 672.046C116.398 674.624 118.858 676.968 121.319 679.429C121.436 679.546 121.788 679.663 122.022 679.78C122.139 679.546 122.257 679.311 122.257 679.077C122.257 675.796 122.257 672.632 122.257 669.469ZM122.257 581.001C122.257 580.415 122.257 579.829 122.257 579.126C122.257 577.134 122.257 575.025 122.257 573.033C122.257 572.799 122.139 572.564 122.022 572.447C122.022 572.447 121.671 572.447 121.554 572.564C120.03 574.087 118.39 575.494 116.984 577.017C114.757 579.595 112.765 582.173 110.773 584.868C110.187 585.688 110.305 586.039 111.242 586.508C112.297 586.977 113.351 587.446 114.406 587.914C116.515 588.969 118.741 589.32 120.968 589.789C122.139 590.023 122.374 589.789 122.374 588.617C122.257 586.039 122.257 583.579 122.257 581.001ZM130.342 572.213C130.225 572.681 130.225 572.799 130.225 572.916C130.225 578.071 130.225 583.344 130.225 588.5C130.225 589.555 130.576 589.906 131.631 589.672C133.623 589.203 135.615 588.734 137.607 588.031C138.896 587.563 140.184 586.977 141.473 586.274C142.059 586.039 142.411 585.571 141.942 584.868C139.13 580.884 135.966 577.134 132.451 573.736C131.865 573.384 131.162 572.916 130.342 572.213ZM140.184 682.827C140.653 682.709 141.122 682.592 141.591 682.475C144.051 681.655 146.512 680.835 148.855 679.897C150.496 679.194 152.019 678.374 153.66 677.671C154.363 677.319 154.597 676.851 154.128 676.148C152.839 674.273 151.668 672.398 150.379 670.523C150.027 670.054 149.559 669.937 149.207 670.523C148.621 671.343 148.152 672.164 147.567 672.984C146.16 674.742 144.872 676.616 143.348 678.257C142.294 679.546 141.005 680.718 139.833 682.006C139.716 682.124 139.599 682.475 139.599 682.592C139.716 682.592 140.067 682.709 140.184 682.827ZM112.765 682.827C112.765 682.709 112.883 682.592 112.883 682.475C112.648 682.241 112.414 681.889 112.179 681.655C110.773 680.132 109.367 678.608 108.078 677.085C106.438 674.976 104.915 672.867 103.274 670.64C102.923 670.054 102.454 669.937 101.985 670.523C100.696 672.398 99.4073 674.273 98.2355 676.265C97.884 676.851 98.0012 677.202 98.587 677.554C99.9931 678.257 101.282 679.077 102.805 679.663C104.094 680.249 105.5 680.717 106.907 681.303C108.195 681.772 109.602 682.124 110.891 682.592C111.476 682.592 112.179 682.592 112.765 682.827ZM135.029 600.452C139.481 600.218 143.934 599.983 148.387 599.749C149.207 599.749 149.441 599.397 149.09 598.694C148.387 597.054 147.684 595.413 146.864 593.773C146.629 593.187 146.278 593.07 145.692 593.421C144.168 594.125 142.645 594.71 141.239 595.413C138.075 596.82 134.794 597.64 131.396 598.109C130.693 598.226 130.225 598.46 130.225 599.28C130.342 600.1 130.693 600.452 131.513 600.452C132.685 600.452 133.857 600.452 135.029 600.452ZM139.599 569.283C139.599 569.4 139.481 569.518 139.481 569.635C140.302 570.455 141.122 571.275 141.825 572.213C143.817 574.673 145.926 577.134 147.801 579.712C148.738 581.001 148.973 581.118 150.027 579.946C151.199 578.54 152.254 577.017 153.308 575.611C153.777 574.908 153.777 574.556 152.957 574.205C149.91 573.033 146.981 571.744 143.934 570.572C142.88 570.221 141.825 569.869 140.77 569.518C140.419 569.283 139.95 569.283 139.599 569.283ZM113.117 569.635C113.117 569.518 113 569.4 113 569.283C112.414 569.4 111.828 569.518 111.359 569.752C108.899 570.572 106.438 571.392 103.977 572.33C102.454 572.916 100.931 573.619 99.4073 574.322C98.9386 574.556 98.8214 574.908 99.1729 575.259C100.462 577.017 101.868 578.657 103.157 580.415C103.626 581.001 103.977 580.884 104.329 580.415C104.563 580.181 104.68 579.946 104.797 579.712C106.789 577.134 108.781 574.673 110.891 572.095C111.476 571.275 112.297 570.455 113.117 569.635ZM166.198 656.111C166.783 656.462 167.135 656.696 167.486 657.048C169.127 658.337 170.416 659.86 170.885 661.969C170.885 662.204 171.236 662.555 171.47 662.672C171.705 662.672 171.939 662.321 172.173 662.087C172.408 661.852 172.642 661.501 172.759 661.149C174.048 659.391 175.22 657.517 176.509 655.759C176.626 655.525 176.626 655.173 176.626 655.056C176.626 654.939 176.157 654.939 176.04 654.939C173.111 655.29 170.182 655.642 167.252 655.876C166.901 655.876 166.666 655.993 166.198 656.111Z" fill="black"/>
<path d="M462.006 625.478C462.11 624.545 462.11 623.923 462.317 623.301C463.977 617.804 465.947 612.308 467.295 606.709C468.125 603.39 468.332 599.864 468.228 596.442C468.021 585.968 462.11 578.917 453.607 573.732C447.903 570.206 441.474 568.858 434.94 567.925C424.674 566.369 414.304 566.991 403.934 567.302C394.083 567.613 384.231 567.821 374.483 568.858C367.224 569.584 360.069 571.347 352.913 572.695C350.528 573.11 348.247 573.628 345.862 574.043C345.447 574.147 344.825 573.835 344.41 573.732C344.721 573.317 345.032 572.798 345.447 572.591C356.232 567.613 365.98 561.08 375.002 553.51C377.594 551.333 380.083 549.155 382.468 546.873C383.401 545.94 384.335 544.903 385.061 543.762C385.89 542.414 385.372 541.17 383.712 541.17C381.431 541.17 379.046 541.274 376.765 541.792C368.468 543.555 361.106 547.599 354.158 552.266C350.01 554.962 345.966 557.866 342.025 560.977C340.262 562.428 338.81 564.399 337.255 566.058C336.944 566.369 336.529 566.576 336.114 566.888C336.114 566.369 335.907 565.851 336.114 565.436C338.706 558.695 341.506 552.162 343.995 545.318C345.551 541.066 346.588 536.711 347.521 532.355C347.936 530.385 347.728 528.311 347.521 526.237C347.314 524.059 346.38 523.748 344.825 525.2C343.477 526.444 342.129 527.689 341.299 529.244C334.247 541.999 327.611 554.962 323.151 568.858C322.633 570.621 322.218 572.384 321.7 574.147C321.492 574.665 321.077 575.08 320.766 575.598C320.455 575.08 319.833 574.561 319.833 574.043C319.833 572.073 319.833 570.206 320.04 568.236C320.87 562.014 321.596 555.688 322.84 549.466C324.292 541.792 327.403 534.637 331.655 528C333.936 524.474 336.321 520.948 338.81 517.526C341.506 513.689 345.24 511.304 349.906 510.578C352.913 510.163 355.091 511.2 356.336 514C358.41 518.667 358.617 523.644 358.202 528.622C357.787 533.496 356.647 538.163 354.365 542.622C354.262 542.829 354.262 543.036 354.262 543.14C357.787 541.17 361.106 538.992 364.735 537.333C372.202 534.015 379.979 531.422 388.379 531.007C390.246 530.904 392.112 531.111 393.875 531.629C396.675 532.355 397.919 534.533 397.608 537.437C397.09 541.792 395.223 545.525 392.527 548.844C389.001 553.199 384.957 557.036 380.498 560.354C380.083 560.666 379.564 561.08 378.839 561.599C382.987 560.977 386.72 560.354 390.557 559.836C407.045 557.762 423.637 556.932 440.333 558.592C446.244 559.214 452.051 560.458 457.443 562.947C469.265 568.547 475.591 577.984 476.939 590.842C477.561 596.961 477.561 602.975 475.487 608.886C474.761 611.064 473.828 613.138 472.999 615.108C475.176 614.901 477.458 614.382 479.739 614.382C485.235 614.279 488.554 616.767 490.42 621.952C493.22 629.937 490.524 638.856 483.576 645.078C477.872 650.159 471.339 651.507 463.977 650.055C461.177 649.537 458.377 649.018 455.577 648.5C455.162 648.396 454.747 648.085 454.436 647.774C454.851 647.566 455.266 647.152 455.784 647.048C460.14 646.322 464.599 646.011 468.851 644.767C475.591 642.9 480.05 638.545 481.191 631.389C481.917 626.412 479.117 622.782 474.139 622.886C471.339 622.886 468.539 623.819 465.74 624.338C464.288 624.545 463.458 624.96 462.006 625.478Z" fill="black" stroke="black" stroke-width="2"/>
<path d="M449.044 594.265C442.2 591.154 435.148 589.392 427.889 589.392C416.482 589.392 407.46 594.265 401.238 603.91C396.883 610.754 397.505 619.05 402.379 625.479C404.142 627.864 406.112 629.938 407.875 632.324C412.853 639.064 412.023 644.145 404.868 648.605C398.646 652.338 391.905 654.308 384.646 652.96C384.128 652.856 383.506 652.649 382.987 652.441C382.572 652.234 382.158 652.027 381.432 651.508C382.054 651.093 382.469 650.782 382.883 650.679C387.965 650.056 392.631 648.19 396.779 645.286C397.505 644.871 398.127 644.353 398.75 643.731C401.342 641.345 401.446 639.064 399.268 636.368C397.609 634.398 395.846 632.427 394.291 630.457C390.765 625.998 388.38 620.916 387.757 615.213C387.031 608.058 389.209 601.836 393.876 596.443C404.246 584.31 424.156 579.125 439.089 584.829C442.304 586.073 445.415 587.629 447.696 590.429C448.63 591.466 449.874 592.503 449.044 594.265Z" fill="black" stroke="black" stroke-width="2"/>
<path d="M317.656 579.021C317.138 579.85 316.93 580.265 316.619 580.576C311.745 585.761 306.768 590.739 302.101 596.027C298.783 599.968 296.709 604.635 296.501 609.923C296.294 615.005 298.057 617.701 302.931 619.256C307.494 620.708 312.16 621.227 316.93 620.397C317.241 620.293 317.656 620.501 317.967 620.604C317.864 620.915 317.76 621.434 317.553 621.538C312.056 624.545 306.353 627.345 300.027 627.863C292.664 628.486 288.413 624.752 287.376 617.39C285.094 599.864 299.094 582.443 315.271 579.228C315.893 579.228 316.516 579.124 317.656 579.021Z" fill="black" stroke="black" stroke-width="2"/>
<path d="M406.63 700.35C406.63 705.95 406.63 711.55 406.63 717.253C405.178 717.253 403.934 717.253 402.586 717.253C402.586 709.268 402.586 701.387 402.586 693.298C404.66 693.298 406.63 693.195 408.601 693.402C408.912 693.402 409.43 694.232 409.534 694.75C410.675 699.002 411.608 703.357 412.645 707.713C412.749 708.128 412.956 708.542 413.163 709.372C414.408 704.291 415.548 699.624 416.689 694.854C417 693.713 417.415 693.195 418.66 693.298C420.319 693.402 421.978 693.298 423.845 693.298C423.845 701.387 423.845 709.268 423.845 717.357C422.496 717.357 421.252 717.357 419.8 717.357C419.8 711.55 419.8 705.742 419.8 699.935C419.696 699.935 419.593 699.935 419.489 699.832C419.178 701.076 418.867 702.32 418.556 703.565C417.726 707.298 416.793 711.031 415.963 714.868C415.341 717.357 415.341 717.253 412.852 717.357C411.4 717.461 410.778 717.046 410.571 715.594C409.638 711.031 408.601 706.468 407.46 701.906C407.356 701.387 407.149 700.765 407.045 700.246C406.838 700.246 406.734 700.35 406.63 700.35Z" fill="black" stroke="black" stroke-width="2"/>
<path d="M389.107 717.356C388.07 717.356 387.136 717.253 386.203 717.356C385.062 717.46 384.44 717.045 383.922 716.008C381.64 711.86 379.359 707.92 376.974 703.772C376.663 703.149 376.248 702.631 375.626 702.112C375.626 707.09 375.626 712.068 375.626 717.149C374.174 717.149 372.826 717.149 371.478 717.149C371.478 709.268 371.478 701.386 371.478 693.505C374.692 692.572 375.626 692.987 377.181 695.683C379.67 700.038 382.159 704.394 384.959 708.749C384.959 703.668 384.959 698.483 384.959 693.298C386.41 693.298 387.759 693.298 389.107 693.298C389.107 701.283 389.107 709.164 389.107 717.356Z" fill="black" stroke="black" stroke-width="2"/>
<path d="M336.427 717.357C335.39 717.357 334.457 717.253 333.523 717.357C332.383 717.461 331.761 717.046 331.138 716.009C328.753 711.757 326.264 707.506 323.879 703.15C323.672 702.735 323.361 702.424 322.842 702.009C322.842 706.987 322.842 712.068 322.842 717.15C321.391 717.15 320.042 717.15 318.694 717.15C318.694 709.165 318.694 701.284 318.694 693.195C319.939 693.195 321.183 693.091 322.324 693.299C322.842 693.402 323.465 694.024 323.776 694.647C326.472 699.313 329.168 704.083 332.175 709.268C332.175 703.669 332.175 698.587 332.175 693.402C333.731 693.402 334.975 693.402 336.323 693.402C336.427 701.284 336.427 709.268 336.427 717.357Z" fill="black" stroke="black" stroke-width="2"/>
<path d="M307.493 675.876C307.493 671.624 307.493 667.476 307.493 663.224C307.493 660.113 306.975 660.424 310.397 660.424C310.708 660.424 311.123 660.528 311.537 660.528C311.537 668.513 311.537 676.498 311.537 684.587C310.5 684.587 309.567 684.483 308.738 684.587C307.597 684.69 306.975 684.276 306.352 683.239C304.071 679.091 301.686 674.943 299.301 670.691C298.99 670.172 298.679 669.757 298.056 669.343C298.056 674.32 298.056 679.298 298.056 684.379C296.605 684.379 295.36 684.379 293.908 684.379C293.908 683.861 293.805 683.342 293.805 682.824C293.805 675.876 293.805 669.032 293.805 662.084C293.805 660.632 294.219 660.321 295.671 660.217C297.538 660.113 298.575 660.736 299.508 662.395C301.893 666.958 304.59 671.313 307.078 675.772C307.286 675.98 307.389 675.876 307.493 675.876Z" fill="black" stroke="black" stroke-width="2"/>
<path d="M315.375 672.455C315.582 671.106 315.686 669.655 315.997 668.203C317.242 662.81 321.286 659.907 326.886 660.01C331.967 660.114 336.115 663.536 336.841 668.825C337.256 671.521 337.152 674.425 336.634 677.121C335.493 682.41 331.241 685.313 325.952 685.002C320.56 684.795 316.827 681.476 315.894 676.291C315.582 675.151 315.582 673.803 315.375 672.455ZM332.797 672.662C332.486 671.003 332.382 669.447 331.863 667.995C331.034 665.61 329.375 664.262 326.782 664.159C324.086 664.055 322.012 665.196 321.079 667.581C319.73 670.899 319.73 674.217 321.182 677.432C322.116 679.61 323.982 680.854 326.471 680.854C328.96 680.854 330.826 679.61 331.656 677.328C332.174 675.98 332.382 674.217 332.797 672.662Z" fill="black" stroke="black" stroke-width="2"/>
<path d="M293.493 705.225C293.493 702.218 294.012 699.314 295.878 696.722C298.678 692.988 302.515 692.159 306.767 692.988C311.019 693.818 313.715 696.514 314.544 700.558C315.167 703.358 315.167 706.469 314.648 709.373C313.611 714.973 309.256 718.188 303.656 717.773C298.056 717.462 294.219 713.625 293.597 707.921C293.597 707.092 293.597 706.158 293.493 705.225ZM297.952 705.536C298.367 707.195 298.678 708.958 299.404 710.617C300.337 712.795 302.308 713.832 304.693 713.728C307.182 713.625 308.945 712.38 309.878 710.099C311.122 706.988 311.122 703.669 309.982 700.558C309.048 698.173 307.182 697.033 304.693 696.929C302.204 696.929 300.234 698.07 299.3 700.351C298.471 701.907 298.367 703.669 297.952 705.536Z" fill="black" stroke="black" stroke-width="2"/>
<path d="M469.058 684.588C469.058 676.499 469.058 668.618 469.058 660.737C473.102 660.737 477.043 660.426 480.983 660.841C483.783 661.152 485.65 663.33 486.583 665.922C488.242 670.277 488.242 674.737 486.583 679.092C485.235 682.618 482.539 684.484 478.805 684.484C475.487 684.692 472.376 684.588 469.058 684.588ZM473.62 664.678C473.62 670.07 473.62 675.151 473.62 680.44C475.383 680.44 476.939 680.544 478.598 680.44C480.879 680.233 482.331 679.299 482.642 677.018C482.953 674.218 482.953 671.314 482.642 668.515C482.435 666.129 480.776 664.989 478.494 664.678C476.835 664.574 475.28 664.678 473.62 664.678Z" fill="black" stroke="black" stroke-width="2"/>
<path d="M486.376 700.04C484.924 700.143 483.576 700.143 482.228 700.247C480.361 697.032 479.428 696.306 476.524 697.032C475.591 697.24 474.554 698.069 474.139 698.899C473.621 700.143 474.762 700.869 475.902 701.284C477.873 702.01 479.843 702.528 481.709 703.151C485.546 704.499 487.413 707.195 486.998 710.928C486.583 714.765 484.198 717.15 480.154 717.669C478.806 717.772 477.458 717.876 476.11 717.669C471.754 717.15 469.162 714.247 468.851 709.58C470.199 709.373 471.547 709.269 472.999 709.062C473.517 711.343 474.45 713.21 476.939 713.521C478.184 713.624 479.739 713.521 480.776 712.899C481.606 712.484 482.332 711.136 482.332 710.202C482.332 709.476 481.295 708.336 480.465 708.025C478.391 707.091 476.11 706.677 474.036 705.847C470.51 704.395 468.851 701.077 469.888 697.655C470.406 695.788 471.547 694.336 473.413 693.507C476.317 692.262 479.324 692.262 482.332 693.507C485.132 694.751 486.272 697.032 486.376 700.04Z" fill="black" stroke="black" stroke-width="2"/>
<path d="M411.297 676.5C413.06 680.544 414.927 681.685 418.245 680.752C419.697 680.337 420.734 679.404 420.838 677.848C420.942 676.292 419.801 675.567 418.453 675.152C416.586 674.53 414.616 674.011 412.749 673.389C409.431 672.144 407.564 669.345 407.875 666.234C408.29 662.915 410.468 660.634 414.201 660.219C415.964 660.012 417.831 660.115 419.593 660.53C422.704 661.256 424.364 663.641 424.571 667.271C423.119 667.271 421.667 667.271 420.216 667.271C418.868 664.263 417.105 663.33 414.201 664.263C413.475 664.574 412.438 665.404 412.438 666.026C412.438 666.752 413.164 667.893 413.89 668.204C415.86 669.137 418.142 669.552 420.216 670.382C424.364 671.833 426.127 675.152 425.09 679.404C424.571 681.581 423.327 683.24 421.253 684.174C418.142 685.522 414.823 685.522 411.712 684.174C408.601 682.826 407.564 680.129 407.149 676.811C408.601 676.707 409.949 676.604 411.297 676.5Z" fill="black" stroke="black" stroke-width="2"/>
<path d="M387.55 660.529C393.046 660.529 398.335 660.529 403.934 660.529C403.934 661.774 403.934 663.018 403.934 664.47C400.098 664.47 396.157 664.47 392.216 664.47C392.216 666.337 392.216 667.996 392.216 669.862C395.846 669.862 399.475 669.862 403.209 669.862C403.209 671.314 403.209 672.559 403.209 674.01C399.475 674.01 395.95 674.01 392.216 674.01C392.216 676.188 392.216 678.262 392.216 680.543C396.261 680.543 400.305 680.543 404.453 680.543C404.453 681.995 404.453 683.24 404.453 684.588C398.853 684.588 393.357 684.588 387.653 684.588C387.55 676.603 387.55 668.618 387.55 660.529Z" fill="black" stroke="black" stroke-width="2"/>
<path d="M464.705 660.634C464.705 661.982 464.705 663.226 464.705 664.574C460.764 664.574 456.824 664.574 452.779 664.574C452.779 666.441 452.779 668.1 452.779 669.863C456.409 669.863 460.038 669.863 463.772 669.863C463.772 671.315 463.772 672.559 463.772 674.011C460.142 674.011 456.513 674.011 452.779 674.011C452.779 676.189 452.779 678.263 452.779 680.544C456.824 680.544 460.868 680.544 465.016 680.544C465.016 681.996 465.016 683.24 465.016 684.589C459.52 684.589 453.92 684.589 448.32 684.589C448.32 676.604 448.32 668.722 448.32 660.634C453.713 660.634 459.105 660.634 464.705 660.634Z" fill="black" stroke="black" stroke-width="2"/>
<path d="M426.229 717.358C428.095 712.173 429.754 707.299 431.517 702.529C432.451 699.936 433.488 697.24 434.317 694.647C434.628 693.61 435.147 693.299 436.184 693.299C439.71 693.299 439.71 693.196 440.85 696.41C443.132 702.736 445.517 708.958 447.798 715.284C448.006 715.906 448.213 716.528 448.524 717.358C446.969 717.358 445.621 717.461 444.272 717.358C443.961 717.358 443.546 716.735 443.339 716.321C442.717 714.973 442.509 713.002 441.369 712.173C440.332 711.447 438.465 711.965 436.91 711.965C432.865 711.965 432.762 711.965 431.517 715.906C431.206 717.047 430.688 717.565 429.443 717.461C428.51 717.254 427.577 717.358 426.229 717.358ZM437.221 698.899C436.184 702.114 435.25 704.914 434.317 707.714C436.391 707.714 438.258 707.714 440.332 707.714C439.295 704.81 438.361 702.114 437.221 698.899Z" fill="black" stroke="black" stroke-width="2"/>
<path d="M368.78 717.148C368.469 717.252 368.469 717.356 368.365 717.356C364.113 717.667 364.01 717.667 362.661 713.622C362.247 712.378 361.624 711.859 360.276 711.963C358.306 712.067 356.336 712.067 354.365 711.963C353.328 711.963 352.81 712.274 352.706 713.208C352.706 713.415 352.603 713.622 352.499 713.83C351.151 717.77 351.151 717.77 346.588 717.148C346.795 716.526 346.899 715.904 347.106 715.385C349.492 708.541 351.98 701.801 354.365 694.956C354.78 693.608 355.506 692.986 356.854 693.193C357.58 693.297 358.306 693.09 358.928 693.193C359.343 693.297 359.965 693.608 360.069 693.919C363.076 701.697 365.98 709.371 368.78 717.148ZM360.691 707.711C359.654 704.808 358.721 702.112 357.58 698.897C356.543 702.112 355.61 704.808 354.677 707.711C356.647 707.711 358.513 707.711 360.691 707.711Z" fill="black" stroke="black" stroke-width="2"/>
<path d="M325.849 643.938C327.094 642.486 328.546 641.138 329.686 639.686C333.42 634.812 332.901 630.146 327.923 626.516C325.538 624.753 322.738 623.509 319.938 621.85C321.287 621.539 322.738 621.02 324.086 620.916C326.368 620.813 328.753 620.813 331.034 621.331C336.945 622.679 340.367 627.657 339.849 633.672C339.33 639.583 334.56 644.456 328.96 644.975C327.094 645.182 326.679 644.975 325.849 643.938Z" fill="black" stroke="black" stroke-width="2"/>
<path d="M356.751 660.425C356.751 661.877 356.751 663.121 356.751 664.469C354.677 664.469 352.603 664.469 350.425 664.469C350.425 671.21 350.425 677.743 350.425 684.483C348.766 684.483 347.418 684.483 345.759 684.483C345.759 677.95 345.759 671.313 345.759 664.573C343.581 664.573 341.507 664.573 339.226 664.573C339.226 663.328 339.122 662.291 339.226 661.254C339.226 660.943 339.848 660.529 340.159 660.529C345.552 660.425 351.048 660.425 356.751 660.425Z" fill="black" stroke="black" stroke-width="2"/>
<path d="M438.779 684.589C437.119 684.589 435.771 684.589 434.216 684.589C434.216 677.952 434.216 671.419 434.216 664.678C431.934 664.678 429.86 664.678 427.683 664.678C427.683 663.226 427.683 661.982 427.683 660.634C433.386 660.634 439.193 660.634 445.001 660.634C445.001 661.878 445.001 663.123 445.001 664.574C442.927 664.574 440.956 664.574 438.675 664.574C438.779 671.211 438.779 677.848 438.779 684.589Z" fill="black" stroke="black" stroke-width="2"/>
<path d="M378.01 684.588C376.351 684.588 374.899 684.588 373.447 684.588C373.447 677.951 373.447 671.418 373.447 664.678C371.269 664.678 369.092 664.678 366.914 664.678C366.914 663.226 366.914 661.982 366.914 660.633C367.536 660.633 368.158 660.53 368.781 660.53C373.24 660.53 377.803 660.633 382.262 660.426C384.025 660.322 384.751 660.945 384.439 662.707C384.336 663.226 384.336 663.848 384.336 664.574C382.262 664.574 380.188 664.574 378.01 664.574C378.01 671.211 378.01 677.848 378.01 684.588Z" fill="black" stroke="black" stroke-width="2"/>
<path d="M451.222 693.505C452.777 693.505 454.022 693.505 455.577 693.505C455.577 700.038 455.577 706.571 455.577 713.312C459.414 713.312 462.94 713.312 466.673 713.312C466.673 714.763 466.673 716.008 466.673 717.356C461.488 717.356 456.407 717.356 451.118 717.356C451.222 709.267 451.222 701.49 451.222 693.505Z" fill="black" stroke="black" stroke-width="2"/>
<path d="M398.129 717.254C396.677 717.254 395.329 717.254 393.877 717.254C393.877 709.269 393.877 701.387 393.877 693.299C395.329 693.299 396.677 693.299 398.129 693.299C398.129 701.284 398.129 709.165 398.129 717.254Z" fill="black" stroke="black" stroke-width="2"/>
<defs>
<clipPath id="clip0_686_726">
<rect width="178" height="126" fill="white" transform="translate(961.115 7.13672)"/>
</clipPath>
<clipPath id="clip1_686_726">
<rect width="178" height="173" fill="white" transform="translate(961.115 269.137)"/>
</clipPath>
</defs>
</svg>
