<svg width="785" height="433" viewBox="0 0 785 433" fill="none" xmlns="http://www.w3.org/2000/svg">
<line x1="6.55671e-08" y1="86.2783" x2="785" y2="86.2784" stroke="#FF0000" stroke-width="1.5"/>
<line x1="6.55671e-08" y1="104.996" x2="785" y2="104.996" stroke="#FF0000" stroke-width="1.5"/>
<line x1="6.55671e-08" y1="44.7295" x2="785" y2="44.7296" stroke="#FF0000" stroke-width="1.5"/>
<line x1="1.22852" y1="24.8896" x2="783.291" y2="24.8896" stroke="#FF0000" stroke-width="1.5"/>
<line x1="690.75" y1="0.5" x2="690.75" y2="432.09" stroke="#FF0000" stroke-width="1.5"/>
<line x1="210.75" y1="0.5" x2="210.75" y2="432.09" stroke="#FF0000" stroke-width="1.5"/>
<line x1="169.666" y1="0.5" x2="169.666" y2="432.09" stroke="#FF0000" stroke-width="1.5"/>
<line x1="22.2793" y1="2.36426" x2="22.2793" y2="432.09" stroke="#FF0000" stroke-width="1.5"/>
<rect x="1.5" y="2" width="782" height="428.59" rx="28.5" stroke="black" stroke-width="3"/>
<rect x="24.6465" y="25.6396" width="144.27" height="80.1069" rx="16.3325" fill="black"/>
<path d="M65.4298 53.4873H73.2752C73.7418 53.4873 74.1112 53.4387 74.3835 53.3415C74.6751 53.2443 74.8987 53.1276 75.0543 52.9915C75.2098 52.836 75.3167 52.661 75.3751 52.4665C75.4334 52.2721 75.4626 52.0679 75.4626 51.8541V51.8249C75.4626 51.6305 75.4334 51.4457 75.3751 51.2708C75.3167 51.0958 75.2098 50.9402 75.0543 50.8041C74.8987 50.6486 74.6751 50.5319 74.3835 50.4541C74.1112 50.3569 73.7418 50.3083 73.2752 50.3083H65.4298V53.4873ZM79.6623 55.5872C80.3429 55.665 80.9942 55.8011 81.6164 55.9955C82.258 56.1899 82.8122 56.4816 83.2788 56.8705C83.7649 57.2399 84.1538 57.726 84.4454 58.3287C84.7371 58.912 84.8829 59.6314 84.8829 60.4869V64.4826C84.8829 64.9103 84.9121 65.2214 84.9704 65.4159C85.0287 65.5908 85.1065 65.7464 85.2037 65.8825V66.0283H76.0459C76.007 65.97 75.9681 65.8436 75.9292 65.6492C75.8903 65.4547 75.8709 65.1631 75.8709 64.7742V62.9368C75.8709 62.2369 75.8028 61.673 75.6667 61.2452C75.5306 60.798 75.307 60.4578 74.9959 60.2245C74.6848 59.9717 74.2668 59.8064 73.7418 59.7286C73.2168 59.6314 72.5655 59.5828 71.7878 59.5828H65.4298V66.0283H56.5344V44.3294H75.6667C77.6111 44.3294 79.1763 44.5044 80.3623 44.8544C81.5484 45.185 82.4622 45.6322 83.1038 46.196C83.7455 46.7404 84.1635 47.3723 84.3579 48.0918C84.5718 48.8112 84.6788 49.5597 84.6788 50.3375V50.4833C84.6788 51.2999 84.5232 52.0096 84.2121 52.6124C83.9205 53.1957 83.5316 53.6915 83.0455 54.0998C82.5594 54.5081 82.015 54.8289 81.4123 55.0622C80.829 55.2955 80.2457 55.4705 79.6623 55.5872ZM111.608 44.3294V49.8708H97.8425V52.204H111.171V57.8912H97.8425V60.4286H111.813V66.0283H88.918V44.3294H111.608Z" fill="#E9E9E9"/>
<path d="M42.1465 44.5489V86.9355H46.6371V44.5489H42.1465Z" fill="#E9E9E9"/>
<path d="M48.7578 44.5489V86.9355H51.7516V44.5489H48.7578Z" fill="#E9E9E9"/>
<path d="M60.1094 70.5009V87.1084H63.1031V70.5009H60.1094Z" fill="#E9E9E9"/>
<path d="M138.197 44.6944V87.0811H140.142V44.6944H138.197Z" fill="#E9E9E9"/>
<path d="M56.3672 70.5009V87.1084H57.8641V70.5009H56.3672Z" fill="#E9E9E9"/>
<path d="M77.3223 70.5009V87.1084H78.8191V70.5009H77.3223Z" fill="#E9E9E9"/>
<path d="M66.8438 70.5009V87.1084H68.3406V70.5009H66.8438Z" fill="#E9E9E9"/>
<path d="M81.8145 70.5009V87.1084H84.8082V70.5009H81.8145Z" fill="#E9E9E9"/>
<path d="M93.7891 70.5009V87.1084H99.7766V70.5009H93.7891Z" fill="#E9E9E9"/>
<path d="M108.01 70.5009V87.1084H109.507V70.5009H108.01Z" fill="#E9E9E9"/>
<path d="M133.531 44.6944V87.0811H135.087V44.6944H133.531Z" fill="#E9E9E9"/>
<path d="M117.738 70.5009V87.1084H120.732V70.5009H117.738Z" fill="#E9E9E9"/>
<path d="M122.979 70.5009V87.1084H125.224V70.5009H122.979Z" fill="#E9E9E9"/>
<path d="M130.031 70.4725V87.0811H131.198V70.4725H130.031Z" fill="#E9E9E9"/>
<path d="M141.697 44.6944V87.0811H145.586V44.6944H141.697Z" fill="#E9E9E9"/>
<path d="M146.928 44.7217V87.1084H151.418V44.7217H146.928Z" fill="#E9E9E9"/>
<path d="M120.116 59.1524L120.5 54.9235L116.992 57.3743L115.07 54.0104L118.914 52.2323L115.07 50.4542L116.992 47.0903L120.5 49.5412L120.116 45.3122H123.96L123.576 49.5412L127.084 47.0903L129.006 50.4542L125.162 52.2323L129.006 54.0104L127.084 57.3743L123.576 54.9235L123.96 59.1524H120.116Z" fill="#E9E9E9"/>
<path d="M259.472 74.2583C259.472 76.4583 258.94 78.3467 257.877 79.9233C256.814 81.4633 255.255 82.7467 253.202 83.7733C251.185 84.8 248.71 85.5517 245.777 86.0283C242.88 86.505 239.562 86.7433 235.822 86.7433H234.502C231.165 86.7433 227.994 86.4867 224.987 85.9733C222.017 85.46 219.414 84.635 217.177 83.4983C214.94 82.325 213.162 80.785 211.842 78.8783C210.522 76.9717 209.862 74.625 209.862 71.8383V71.3433H223.777C223.777 73.7633 224.785 75.45 226.802 76.4033C228.855 77.3567 231.935 77.8333 236.042 77.8333C239.379 77.8333 241.835 77.4667 243.412 76.7333C244.989 75.9633 245.777 74.8083 245.777 73.2683C245.777 71.8383 245.172 70.83 243.962 70.2433C242.789 69.62 240.937 69.3083 238.407 69.3083H227.407V60.6733H237.637C238.554 60.6733 239.415 60.6367 240.222 60.5633C241.065 60.4533 241.78 60.2883 242.367 60.0683C242.99 59.8117 243.467 59.4817 243.797 59.0783C244.164 58.6383 244.347 58.0883 244.347 57.4283C244.347 55.9983 243.632 54.9717 242.202 54.3483C240.772 53.6883 238.334 53.3583 234.887 53.3583C233.384 53.3583 231.99 53.45 230.707 53.6333C229.424 53.78 228.287 54.0733 227.297 54.5133C226.344 54.9167 225.574 55.485 224.987 56.2183C224.437 56.915 224.144 57.8133 224.107 58.9133H210.192V58.2533C210.192 55.76 210.815 53.6517 212.062 51.9283C213.345 50.1683 215.069 48.7567 217.232 47.6933C219.432 46.5933 221.962 45.805 224.822 45.3283C227.719 44.8517 230.799 44.6133 234.062 44.6133H235.822C242.899 44.6133 248.362 45.5117 252.212 47.3083C256.099 49.0683 258.042 51.6717 258.042 55.1183V55.5033C258.042 56.8233 257.822 57.9783 257.382 58.9683C256.979 59.9217 256.41 60.7467 255.677 61.4433C254.98 62.1033 254.155 62.6717 253.202 63.1483C252.285 63.5883 251.295 63.955 250.232 64.2483C251.332 64.4683 252.432 64.8167 253.532 65.2933C254.632 65.77 255.622 66.3933 256.502 67.1633C257.382 67.9333 258.097 68.8683 258.647 69.9683C259.197 71.0317 259.472 72.2783 259.472 73.7083V74.2583ZM287.483 54.6233L280.773 69.9133H294.358L287.483 54.6233ZM298.373 78.9333H276.758L273.623 86.0283H260.478L279.068 45.1083H296.393L315.588 86.0283H301.563L298.373 78.9333ZM319.482 45.1083H355.397V54.8433H332.627V86.0283H319.482V45.1083ZM386.509 44.4483C389.919 44.4483 392.908 44.7417 395.474 45.3283C398.078 45.915 400.314 46.7217 402.184 47.7483C404.091 48.775 405.668 49.9667 406.914 51.3233C408.161 52.6433 409.151 54.055 409.884 55.5583C410.654 57.025 411.186 58.5467 411.479 60.1233C411.809 61.7 411.974 63.2033 411.974 64.6333V66.2833C411.974 68.4467 411.608 70.72 410.874 73.1033C410.141 75.4867 408.821 77.6867 406.914 79.7033C405.044 81.72 402.459 83.3883 399.159 84.7083C395.859 86.0283 391.643 86.6883 386.509 86.6883H384.034C380.624 86.6883 377.618 86.395 375.014 85.8083C372.448 85.185 370.211 84.36 368.304 83.3333C366.434 82.27 364.876 81.06 363.629 79.7033C362.383 78.3467 361.374 76.9167 360.604 75.4133C359.871 73.8733 359.339 72.3333 359.009 70.7933C358.716 69.2167 358.569 67.7133 358.569 66.2833V64.6333C358.569 63.1667 358.716 61.6633 359.009 60.1233C359.339 58.5467 359.871 57.025 360.604 55.5583C361.374 54.055 362.383 52.6433 363.629 51.3233C364.876 49.9667 366.434 48.775 368.304 47.7483C370.211 46.7217 372.448 45.915 375.014 45.3283C377.618 44.7417 380.624 44.4483 384.034 44.4483H386.509ZM398.279 65.0733C398.279 63.9733 398.114 62.8183 397.784 61.6083C397.454 60.3617 396.813 59.225 395.859 58.1983C394.943 57.1717 393.623 56.3283 391.899 55.6683C390.213 55.0083 388.013 54.6783 385.299 54.6783C382.549 54.6783 380.331 55.0083 378.644 55.6683C376.958 56.3283 375.638 57.1717 374.684 58.1983C373.731 59.225 373.089 60.3617 372.759 61.6083C372.429 62.8183 372.264 63.9733 372.264 65.0733V65.7883C372.264 66.8883 372.429 68.0617 372.759 69.3083C373.126 70.555 373.786 71.71 374.739 72.7733C375.729 73.8 377.068 74.6617 378.754 75.3583C380.441 76.0183 382.623 76.3483 385.299 76.3483C388.013 76.3483 390.213 76.0183 391.899 75.3583C393.623 74.6617 394.943 73.8 395.859 72.7733C396.813 71.71 397.454 70.555 397.784 69.3083C398.114 68.0617 398.279 66.8883 398.279 65.7883V65.0733ZM450.917 54.8433H435.132C435.132 60.4533 434.967 65.2017 434.637 69.0883C434.307 72.9383 433.757 75.945 432.987 78.1083C432.547 79.245 431.997 80.29 431.337 81.2433C430.714 82.1967 429.889 83.04 428.862 83.7733C427.872 84.47 426.644 85.02 425.177 85.4233C423.711 85.8267 421.932 86.0283 419.842 86.0283H415.442V75.3583H416.102C417.606 75.3583 418.724 75.065 419.457 74.4783C420.227 73.855 420.814 73.1033 421.217 72.2233C421.511 71.5267 421.749 70.6833 421.932 69.6933C422.116 68.6667 422.244 67.1817 422.317 65.2383C422.427 63.295 422.501 60.7283 422.537 57.5383C422.574 54.3483 422.592 50.205 422.592 45.1083H464.062V86.0283H450.917V54.8433ZM498.767 44.4483C502.177 44.4483 505.166 44.7417 507.732 45.3283C510.336 45.915 512.572 46.7217 514.442 47.7483C516.349 48.775 517.926 49.9667 519.172 51.3233C520.419 52.6433 521.409 54.055 522.142 55.5583C522.912 57.025 523.444 58.5467 523.737 60.1233C524.067 61.7 524.232 63.2033 524.232 64.6333V66.2833C524.232 68.4467 523.866 70.72 523.132 73.1033C522.399 75.4867 521.079 77.6867 519.172 79.7033C517.302 81.72 514.717 83.3883 511.417 84.7083C508.117 86.0283 503.901 86.6883 498.767 86.6883H496.292C492.882 86.6883 489.876 86.395 487.272 85.8083C484.706 85.185 482.469 84.36 480.562 83.3333C478.692 82.27 477.134 81.06 475.887 79.7033C474.641 78.3467 473.632 76.9167 472.862 75.4133C472.129 73.8733 471.597 72.3333 471.267 70.7933C470.974 69.2167 470.827 67.7133 470.827 66.2833V64.6333C470.827 63.1667 470.974 61.6633 471.267 60.1233C471.597 58.5467 472.129 57.025 472.862 55.5583C473.632 54.055 474.641 52.6433 475.887 51.3233C477.134 49.9667 478.692 48.775 480.562 47.7483C482.469 46.7217 484.706 45.915 487.272 45.3283C489.876 44.7417 492.882 44.4483 496.292 44.4483H498.767ZM510.537 65.0733C510.537 63.9733 510.372 62.8183 510.042 61.6083C509.712 60.3617 509.071 59.225 508.117 58.1983C507.201 57.1717 505.881 56.3283 504.157 55.6683C502.471 55.0083 500.271 54.6783 497.557 54.6783C494.807 54.6783 492.589 55.0083 490.902 55.6683C489.216 56.3283 487.896 57.1717 486.942 58.1983C485.989 59.225 485.347 60.3617 485.017 61.6083C484.687 62.8183 484.522 63.9733 484.522 65.0733V65.7883C484.522 66.8883 484.687 68.0617 485.017 69.3083C485.384 70.555 486.044 71.71 486.997 72.7733C487.987 73.8 489.326 74.6617 491.012 75.3583C492.699 76.0183 494.881 76.3483 497.557 76.3483C500.271 76.3483 502.471 76.0183 504.157 75.3583C505.881 74.6617 507.201 73.8 508.117 72.7733C509.071 71.71 509.712 70.555 510.042 69.3083C510.372 68.0617 510.537 66.8883 510.537 65.7883V65.0733ZM531 45.1083H563.065C565.999 45.1083 568.419 45.3833 570.325 45.9333C572.269 46.4833 573.809 47.2167 574.945 48.1333C576.082 49.0133 576.87 50.04 577.31 51.2133C577.787 52.35 578.025 53.5233 578.025 54.7333V55.2283C578.025 56.5483 577.769 57.7033 577.255 58.6933C576.742 59.6833 576.082 60.5083 575.275 61.1683C574.505 61.8283 573.662 62.3417 572.745 62.7083C571.865 63.075 571.04 63.3133 570.27 63.4233C571.37 63.6067 572.507 63.9183 573.68 64.3583C574.854 64.7617 575.917 65.3667 576.87 66.1733C577.86 66.98 578.649 67.9883 579.235 69.1983C579.859 70.4083 580.17 71.8567 580.17 73.5433V74.0933C580.17 75.6333 579.895 77.1183 579.345 78.5483C578.832 79.9783 577.934 81.2617 576.65 82.3983C575.367 83.4983 573.625 84.3783 571.425 85.0383C569.225 85.6983 566.475 86.0283 563.175 86.0283H531V45.1083ZM544.145 54.1833V60.7833H560.095C561.745 60.7833 562.864 60.4717 563.45 59.8483C564.074 59.225 564.385 58.455 564.385 57.5383V57.4283C564.385 56.475 564.074 55.705 563.45 55.1183C562.864 54.495 561.745 54.1833 560.095 54.1833H544.145ZM544.145 69.2533V76.5133H561.14C562.13 76.5133 562.937 76.4033 563.56 76.1833C564.184 75.9633 564.679 75.6883 565.045 75.3583C565.412 74.9917 565.65 74.5883 565.76 74.1483C565.907 73.7083 565.98 73.2683 565.98 72.8283V72.6083C565.98 72.1683 565.907 71.7467 565.76 71.3433C565.65 70.9033 565.412 70.5367 565.045 70.2433C564.679 69.95 564.184 69.7117 563.56 69.5283C562.937 69.345 562.13 69.2533 561.14 69.2533H544.145ZM612.637 44.4483C616.047 44.4483 619.035 44.7417 621.602 45.3283C624.205 45.915 626.442 46.7217 628.312 47.7483C630.218 48.775 631.795 49.9667 633.042 51.3233C634.288 52.6433 635.278 54.055 636.012 55.5583C636.782 57.025 637.313 58.5467 637.607 60.1233C637.937 61.7 638.102 63.2033 638.102 64.6333V66.2833C638.102 68.4467 637.735 70.72 637.002 73.1033C636.268 75.4867 634.948 77.6867 633.042 79.7033C631.172 81.72 628.587 83.3883 625.287 84.7083C621.987 86.0283 617.77 86.6883 612.637 86.6883H610.162C606.752 86.6883 603.745 86.395 601.142 85.8083C598.575 85.185 596.338 84.36 594.432 83.3333C592.562 82.27 591.003 81.06 589.757 79.7033C588.51 78.3467 587.502 76.9167 586.732 75.4133C585.998 73.8733 585.467 72.3333 585.137 70.7933C584.843 69.2167 584.697 67.7133 584.697 66.2833V64.6333C584.697 63.1667 584.843 61.6633 585.137 60.1233C585.467 58.5467 585.998 57.025 586.732 55.5583C587.502 54.055 588.51 52.6433 589.757 51.3233C591.003 49.9667 592.562 48.775 594.432 47.7483C596.338 46.7217 598.575 45.915 601.142 45.3283C603.745 44.7417 606.752 44.4483 610.162 44.4483H612.637ZM624.407 65.0733C624.407 63.9733 624.242 62.8183 623.912 61.6083C623.582 60.3617 622.94 59.225 621.987 58.1983C621.07 57.1717 619.75 56.3283 618.027 55.6683C616.34 55.0083 614.14 54.6783 611.427 54.6783C608.677 54.6783 606.458 55.0083 604.772 55.6683C603.085 56.3283 601.765 57.1717 600.812 58.1983C599.858 59.225 599.217 60.3617 598.887 61.6083C598.557 62.8183 598.392 63.9733 598.392 65.0733V65.7883C598.392 66.8883 598.557 68.0617 598.887 69.3083C599.253 70.555 599.913 71.71 600.867 72.7733C601.857 73.8 603.195 74.6617 604.882 75.3583C606.568 76.0183 608.75 76.3483 611.427 76.3483C614.14 76.3483 616.34 76.0183 618.027 75.3583C619.75 74.6617 621.07 73.8 621.987 72.7733C622.94 71.71 623.582 70.555 623.912 69.3083C624.242 68.0617 624.407 66.8883 624.407 65.7883V65.0733ZM657.96 67.2733V86.0283H644.87V45.1083H657.96V61.4433L675.945 45.1083H691.895L671.16 63.6983L693.05 86.0283H676.22L657.96 67.2733Z" fill="black"/>
</svg>
