<svg width="59" height="50" viewBox="0 0 59 50" fill="none" xmlns="http://www.w3.org/2000/svg">
<path fill-rule="evenodd" clip-rule="evenodd" d="M16.7366 2.1515C21.2053 1.70463 26.1141 2.13775 29.5 5.04932C32.8859 2.13775 37.7947 1.70119 42.2634 2.1515C47.4678 2.67744 52.7203 4.4615 55.9928 5.94994C56.2931 6.08651 56.5477 6.30659 56.7263 6.58393C56.9049 6.86127 56.9999 7.18414 57 7.514V45.3265C56.9999 45.6141 56.9277 45.897 56.7899 46.1495C56.6521 46.4019 56.4532 46.6157 56.2114 46.7713C55.9696 46.927 55.6926 47.0194 55.4057 47.0403C55.1189 47.0611 54.8315 47.0096 54.5697 46.8906C51.5413 45.5156 46.6531 43.8621 41.9163 43.3843C37.0763 42.8962 33.0166 43.6834 30.8406 46.399C30.6796 46.5997 30.4755 46.7618 30.2435 46.8731C30.0114 46.9844 29.7574 47.0422 29.5 47.0422C29.2426 47.0422 28.9886 46.9844 28.7565 46.8731C28.5245 46.7618 28.3204 46.5997 28.1594 46.399C25.9834 43.6834 21.9237 42.8962 17.0803 43.3843C12.3469 43.8621 7.46219 45.5156 4.43031 46.8906C4.16854 47.0096 3.88108 47.0611 3.59425 47.0403C3.30743 47.0194 3.03042 46.927 2.7886 46.7713C2.54677 46.6157 2.34786 46.4019 2.21009 46.1495C2.07232 45.897 2.00008 45.6141 2 45.3265V7.514C2.00009 7.18414 2.0951 6.86127 2.2737 6.58393C2.45229 6.30659 2.70692 6.08651 3.00719 5.94994C6.27969 4.4615 11.5322 2.67744 16.7366 2.1515ZM5.25636 48.712C4.69051 48.969 4.06926 49.08 3.44939 49.035C2.82881 48.9899 2.22946 48.7899 1.70624 48.4532C1.18302 48.1164 0.752652 47.6538 0.454558 47.1076C0.156464 46.5615 0.000172377 45.9493 1.19209e-07 45.3271L0 7.514C0.000197649 6.8003 0.205771 6.10116 0.592181 5.50111C0.978592 4.90105 1.52952 4.42486 2.17915 4.12941C5.5916 2.57731 11.0585 0.715121 16.5355 0.161639L16.5376 0.161429C20.6802 -0.252834 25.6211 0.00275373 29.4999 2.55099C33.3784 0.00236464 38.319 -0.256103 42.464 0.161582C47.9409 0.715064 53.4084 2.57731 56.8208 4.12939C57.4705 4.42486 58.0214 4.90105 58.4078 5.50111C58.7942 6.10116 58.9998 6.79974 59 7.51345V45.3265C58.9998 45.9487 58.8435 46.5615 58.5454 47.1076C58.2473 47.6538 57.817 48.1164 57.2938 48.4532C56.7705 48.7899 56.1712 48.9899 55.5506 49.035C54.9305 49.08 54.3089 48.9689 53.7429 48.7117M5.25636 48.712C8.15085 47.3993 12.8212 45.8245 17.2809 45.3742C21.9687 44.9018 25.0928 45.7703 26.5986 47.6496L26.5994 47.6506C26.9478 48.0849 27.3894 48.4354 27.8914 48.6763C28.3934 48.9171 28.9432 49.0422 29.5 49.0422C30.0568 49.0422 30.6066 48.9171 31.1086 48.6763C31.6106 48.4354 32.0522 48.0849 32.4006 47.6506L32.4014 47.6496C33.9073 45.7702 37.0315 44.9018 41.7156 45.3742C46.1788 45.8244 50.8528 47.3995 53.7429 48.7117" fill="#F4F4F4"/>
</svg>
