<svg width="56" height="46" viewBox="0 0 56 46" fill="none" xmlns="http://www.w3.org/2000/svg">
<path d="M27.7168 3.60224C24.3309 0.690677 19.4221 0.257552 14.9534 0.704427C9.74898 1.23036 4.49648 3.01443 1.22398 4.50287C0.923715 4.63943 0.669087 4.85952 0.490494 5.13685C0.311901 5.41419 0.216888 5.73706 0.216797 6.06693L0.216797 43.8794C0.216876 44.167 0.289112 44.45 0.426887 44.7024C0.564662 44.9548 0.763572 45.1686 1.0054 45.3243C1.24722 45.4799 1.52423 45.5724 1.81105 45.5932C2.09787 45.614 2.38534 45.5625 2.64711 45.4435C5.67898 44.0685 10.5637 42.4151 15.2971 41.9372C20.1405 41.4491 24.2002 42.2363 26.3762 44.9519C26.5372 45.1527 26.7413 45.3147 26.9733 45.426C27.2054 45.5373 27.4594 45.5951 27.7168 45.5951C27.9742 45.5951 28.2282 45.5373 28.4603 45.426C28.6923 45.3147 28.8964 45.1527 29.0574 44.9519C31.2334 42.2363 35.293 41.4491 40.133 41.9372C44.8699 42.4151 49.758 44.0685 52.7865 45.4435C53.0483 45.5625 53.3357 45.614 53.6225 45.5932C53.9094 45.5724 54.1864 45.4799 54.4282 45.3243C54.67 45.1686 54.8689 44.9548 55.0067 44.7024C55.1445 44.45 55.2167 44.167 55.2168 43.8794V6.06693C55.2167 5.73706 55.1217 5.41419 54.9431 5.13685C54.7645 4.85952 54.5099 4.63943 54.2096 4.50287C50.9371 3.01443 45.6846 1.23036 40.4802 0.704427C36.0115 0.254115 31.1027 0.690677 27.7168 3.60224Z" fill="black"/>
</svg>
