<svg width="55" height="46" viewBox="0 0 55 46" fill="none" xmlns="http://www.w3.org/2000/svg">
<path d="M27.5 3.60273C24.1141 0.691166 19.2053 0.258041 14.7366 0.704916C9.53219 1.23085 4.27969 3.01492 1.00719 4.50335C0.706918 4.63992 0.45229 4.86 0.273697 5.13734C0.0951043 5.41468 9.13393e-05 5.73755 0 6.06742L0 43.8799C7.96193e-05 44.1675 0.0723152 44.4505 0.21009 44.7029C0.347865 44.9553 0.546775 45.1691 0.7886 45.3248C1.03042 45.4804 1.30743 45.5728 1.59426 45.5937C1.88108 45.6145 2.16854 45.563 2.43031 45.444C5.46219 44.069 10.3469 42.4155 15.0803 41.9377C19.9237 41.4496 23.9834 42.2368 26.1594 44.9524C26.3204 45.1532 26.5245 45.3152 26.7565 45.4265C26.9886 45.5378 27.2426 45.5956 27.5 45.5956C27.7574 45.5956 28.0114 45.5378 28.2435 45.4265C28.4755 45.3152 28.6796 45.1532 28.8406 44.9524C31.0166 42.2368 35.0763 41.4496 39.9163 41.9377C44.6531 42.4155 49.5413 44.069 52.5697 45.444C52.8315 45.563 53.1189 45.6145 53.4057 45.5937C53.6926 45.5728 53.9696 45.4804 54.2114 45.3248C54.4532 45.1691 54.6521 44.9553 54.7899 44.7029C54.9277 44.4505 54.9999 44.1675 55 43.8799V6.06742C54.9999 5.73755 54.9049 5.41468 54.7263 5.13734C54.5477 4.86 54.2931 4.63992 53.9928 4.50335C50.7203 3.01492 45.4678 1.23085 40.2634 0.704916C35.7947 0.254603 30.8859 0.691166 27.5 3.60273Z" fill="black"/>
</svg>
