<svg width="62" height="55" viewBox="0 0 62 55" fill="none" xmlns="http://www.w3.org/2000/svg">
<path d="M1.2168 47.1289C1.2168 48.8114 1.88515 50.4249 3.07484 51.6146C4.26452 52.8043 5.87808 53.4727 7.56055 53.4727H53.873C55.5555 53.4727 57.1691 52.8043 58.3588 51.6146C59.5484 50.4249 60.2168 48.8114 60.2168 47.1289V22.1914C60.2168 20.5089 59.5484 18.8954 58.3588 17.7057C57.1691 16.516 55.5555 15.8477 53.873 15.8477H7.56055C5.87808 15.8477 4.26452 16.516 3.07484 17.7057C1.88515 18.8954 1.2168 20.5089 1.2168 22.1914V47.1289ZM8.3418 11.5039C8.3418 12.2415 8.63482 12.949 9.15641 13.4705C9.67799 13.9921 10.3854 14.2852 11.123 14.2852H50.3105C51.0482 14.2852 51.7556 13.9921 52.2772 13.4705C52.7988 12.949 53.0918 12.2415 53.0918 11.5039C53.0918 10.7663 52.7988 10.0589 52.2772 9.53727C51.7556 9.01568 51.0482 8.72266 50.3105 8.72266H11.123C10.3854 8.72266 9.67799 9.01568 9.15641 9.53727C8.63482 10.0589 8.3418 10.7663 8.3418 11.5039ZM15.4668 4.37891C15.4668 5.11654 15.7598 5.82396 16.2814 6.34555C16.803 6.86713 17.5104 7.16016 18.248 7.16016H43.1855C43.9232 7.16016 44.6306 6.86713 45.1522 6.34555C45.6738 5.82396 45.9668 5.11654 45.9668 4.37891C45.9668 3.64127 45.6738 2.93385 45.1522 2.41227C44.6306 1.89068 43.9232 1.59766 43.1855 1.59766H18.248C17.5104 1.59766 16.803 1.89068 16.2814 2.41227C15.7598 2.93385 15.4668 3.64127 15.4668 4.37891Z" stroke="#F4F4F4" stroke-width="2"/>
</svg>
