<svg width="57" height="51" viewBox="0 0 57 51" fill="none" xmlns="http://www.w3.org/2000/svg">
<path d="M0 45.1294C0 46.5466 0.563001 47.9058 1.56515 48.908C2.5673 49.9101 3.9265 50.4731 5.34375 50.4731H51.6562C53.0735 50.4731 54.4327 49.9101 55.4349 48.908C56.437 47.9058 57 46.5466 57 45.1294V20.1919C57 18.7746 56.437 17.4154 55.4349 16.4133C54.4327 15.4111 53.0735 14.8481 51.6562 14.8481H5.34375C3.9265 14.8481 2.5673 15.4111 1.56515 16.4133C0.563001 17.4154 0 18.7746 0 20.1919L0 45.1294ZM7.125 9.50439C7.125 9.97681 7.31267 10.4299 7.64672 10.7639C7.98077 11.098 8.43383 11.2856 8.90625 11.2856H48.0938C48.5662 11.2856 49.0192 11.098 49.3533 10.7639C49.6873 10.4299 49.875 9.97681 49.875 9.50439C49.875 9.03198 49.6873 8.57891 49.3533 8.24486C49.0192 7.91081 48.5662 7.72314 48.0938 7.72314H8.90625C8.43383 7.72314 7.98077 7.91081 7.64672 8.24486C7.31267 8.57891 7.125 9.03198 7.125 9.50439ZM14.25 2.37939C14.25 2.85181 14.4377 3.30488 14.7717 3.63893C15.1058 3.97298 15.5588 4.16064 16.0312 4.16064H40.9688C41.4412 4.16064 41.8942 3.97298 42.2283 3.63893C42.5623 3.30488 42.75 2.85181 42.75 2.37939C42.75 1.90698 42.5623 1.45391 42.2283 1.11986C41.8942 0.785811 41.4412 0.598145 40.9688 0.598145H16.0312C15.5588 0.598145 15.1058 0.785811 14.7717 1.11986C14.4377 1.45391 14.25 1.90698 14.25 2.37939Z" fill="black"/>
</svg>
