<svg width="960" height="750" viewBox="0 0 960 750" fill="none" xmlns="http://www.w3.org/2000/svg">
<g clip-path="url(#clip0_58_67)">
<rect width="960" height="750" fill="black"/>
<path d="M139.299 224.718H232.17C237.694 224.718 242.067 223.69 245.289 221.633C248.741 219.577 251.388 217.109 253.229 214.23C255.071 210.94 256.337 207.238 257.027 203.125C257.718 199.012 258.063 194.694 258.063 190.169V189.552C258.063 185.44 257.718 181.532 257.027 177.831C256.337 174.129 255.071 170.839 253.229 167.96C251.388 164.669 248.741 162.202 245.289 160.556C242.067 158.5 237.694 157.472 232.17 157.472H139.299V224.718ZM307.778 269.137C315.834 270.782 323.544 273.661 330.909 277.774C338.505 281.887 345.064 288.056 350.588 296.282C356.342 304.097 360.945 314.379 364.398 327.129C367.85 339.468 369.576 354.685 369.576 372.782V457.302C369.576 466.351 369.922 472.931 370.612 477.044C371.303 480.746 372.223 484.036 373.374 486.915V490H264.968C264.507 488.766 264.047 486.093 263.587 481.98C263.126 477.867 262.896 471.698 262.896 463.472V424.605C262.896 409.798 262.091 397.871 260.48 388.823C258.868 379.363 256.222 372.165 252.539 367.23C248.856 361.883 243.908 358.387 237.693 356.742C231.479 354.685 223.769 353.657 214.562 353.657H139.299V490H34V31H260.48C283.496 31 302.024 34.7016 316.064 42.1048C330.104 49.0968 340.921 58.5564 348.517 70.4839C356.112 82 361.06 95.3669 363.362 110.585C365.894 125.802 367.16 141.637 367.16 158.089V161.173C367.16 178.448 365.318 193.46 361.636 206.21C358.183 218.548 353.58 229.036 347.826 237.673C342.072 246.31 335.627 253.097 328.492 258.032C321.588 262.968 314.683 266.669 307.778 269.137Z" fill="#F4F4F4"/>
<path d="M675.583 31V148.218H512.628V197.573H670.405V317.875H512.628V371.548H678V490H406.984V31H675.583Z" fill="#F4F4F4"/>
<path d="M71.4331 547.769H33V526.061H148.299V547.769H109.866V597.842H71.4331V547.769Z" fill="#F4F4F4"/>
<path d="M198.984 556.356H232.992C235.015 556.356 236.616 556.195 237.796 555.874C239.06 555.552 240.03 555.166 240.704 554.716C241.378 554.201 241.842 553.622 242.095 552.979C242.347 552.336 242.474 551.661 242.474 550.953V550.857C242.474 550.213 242.347 549.602 242.095 549.023C241.842 548.445 241.378 547.93 240.704 547.48C240.03 546.965 239.06 546.579 237.796 546.322C236.616 546 235.015 545.84 232.992 545.84H198.984V556.356ZM260.679 563.302C263.629 563.56 266.452 564.01 269.149 564.653C271.931 565.296 274.333 566.261 276.356 567.548C278.463 568.77 280.148 570.378 281.413 572.372C282.677 574.301 283.309 576.681 283.309 579.511V592.729C283.309 594.144 283.435 595.173 283.688 595.816C283.941 596.395 284.278 596.91 284.7 597.36V597.842H245.002C244.834 597.649 244.665 597.231 244.497 596.588C244.328 595.945 244.244 594.98 244.244 593.694V587.615C244.244 585.3 243.949 583.435 243.359 582.02C242.769 580.54 241.8 579.415 240.451 578.643C239.103 577.807 237.29 577.26 235.015 577.003C232.739 576.681 229.916 576.52 226.544 576.52H198.984V597.842H160.424V526.061H243.359C251.787 526.061 258.572 526.64 263.713 527.798C268.855 528.891 272.816 530.371 275.597 532.236C278.378 534.037 280.191 536.127 281.033 538.507C281.961 540.887 282.424 543.363 282.424 545.936V546.419C282.424 549.12 281.75 551.468 280.401 553.462C279.137 555.391 277.451 557.031 275.344 558.382C273.237 559.733 270.877 560.794 268.265 561.566C265.736 562.338 263.208 562.917 260.679 563.302Z" fill="#F4F4F4"/>
<path d="M354.025 547.287L341.003 569.091H366.92L354.025 547.287ZM377.666 587.133H330.257L323.809 597.842H285.25L329.878 526.061H379.816L424.949 597.842H384.114L377.666 587.133Z" fill="#F4F4F4"/>
<path d="M482.136 599C473.286 599 465.658 598.614 459.253 597.842C452.931 597.07 447.622 596.041 443.323 594.755C439.025 593.468 435.569 591.989 432.956 590.317C430.344 588.645 428.363 586.876 427.014 585.01C425.666 583.145 424.781 581.28 424.36 579.415C423.938 577.485 423.727 575.684 423.727 574.012V573.722H465.195C465.279 574.365 465.49 575.105 465.827 575.941C466.164 576.777 466.922 577.581 468.102 578.353C469.282 579.125 471.01 579.801 473.286 580.379C475.646 580.894 478.849 581.151 482.894 581.151H483.653C487.53 581.151 490.648 580.99 493.008 580.669C495.368 580.347 497.18 579.929 498.444 579.415C499.709 578.9 500.509 578.321 500.846 577.678C501.268 577.035 501.479 576.392 501.479 575.748C501.479 575.041 501.31 574.365 500.973 573.722C500.636 573.079 499.877 572.532 498.697 572.082C497.517 571.632 495.789 571.278 493.514 571.021C491.322 570.699 488.33 570.506 484.538 570.442L471.01 570.249C461.739 570.12 454.154 569.445 448.254 568.223C442.354 566.937 437.676 565.264 434.221 563.206C430.849 561.148 428.489 558.8 427.141 556.163C425.877 553.526 425.244 550.728 425.244 547.769V546.997C425.244 543.717 426.045 540.726 427.647 538.025C429.332 535.323 432.24 533.008 436.37 531.078C440.5 529.149 446.02 527.669 452.931 526.64C459.843 525.547 468.566 525 479.101 525H485.043C496.843 525 506.367 525.708 513.615 527.123C520.864 528.473 526.469 530.274 530.43 532.525C534.391 534.712 537.004 537.221 538.268 540.051C539.617 542.817 540.291 545.582 540.291 548.348V548.541H499.709C499.54 547.898 499.203 547.223 498.697 546.515C498.276 545.743 497.433 545.036 496.169 544.392C494.989 543.749 493.261 543.235 490.985 542.849C488.794 542.463 485.928 542.27 482.388 542.27H481.503C477.879 542.27 474.972 542.399 472.78 542.656C470.589 542.849 468.903 543.17 467.723 543.621C466.543 544.071 465.743 544.585 465.321 545.164C464.984 545.743 464.815 546.386 464.815 547.094C464.815 547.801 465.026 548.445 465.448 549.023C465.869 549.602 466.628 550.117 467.723 550.567C468.903 550.953 470.547 551.275 472.654 551.532C474.761 551.725 477.5 551.854 480.871 551.918L494.778 552.111C504.386 552.239 512.225 552.851 518.293 553.944C524.361 554.973 529.123 556.42 532.579 558.286C536.035 560.151 538.395 562.402 539.659 565.039C541.007 567.676 541.682 570.667 541.682 574.012V575.169C541.682 578.257 541.007 581.248 539.659 584.142C538.395 586.972 535.74 589.513 531.694 591.764C527.648 593.951 521.917 595.72 514.5 597.07C507.083 598.357 497.264 599 485.043 599H482.136Z" fill="#F4F4F4"/>
<path d="M554 526.061H592.56V550.567H637.567V526.061H676V597.842H637.567V571.6H592.56V597.842H554V526.061Z" fill="#F4F4F4"/>
<path d="M734.465 77.4831C734.465 52.9845 748.357 33.1282 765.489 33.1282C759.128 33.0582 752.815 34.1537 746.916 36.3512C741.017 38.5487 735.65 41.8044 731.125 45.9298C726.6 50.0552 723.007 54.9682 720.555 60.384C718.103 65.7998 716.841 71.6107 716.841 77.48C716.841 83.3493 718.103 89.1602 720.555 94.576C723.007 99.9918 726.6 104.905 731.125 109.03C735.65 113.156 741.017 116.411 746.916 118.609C752.815 120.806 759.128 121.902 765.489 121.832C748.336 121.832 734.465 101.976 734.465 77.4831Z" stroke="#F4F4F4" stroke-width="2" stroke-miterlimit="10"/>
<path d="M765.466 33.127C782.557 33.127 796.484 52.9833 796.484 77.4819C796.484 101.981 782.592 121.831 765.466 121.831C778.116 121.691 790.197 116.957 799.089 108.655C807.981 100.352 812.968 89.1508 812.968 77.4788C812.968 65.8067 807.981 54.6051 799.089 46.3026C790.197 38.0002 778.116 33.2661 765.466 33.127Z" stroke="#F4F4F4" stroke-width="2" stroke-miterlimit="10"/>
<path d="M752.161 77.4819C752.161 52.9833 758.116 33.127 765.465 33.127C748.333 33.127 734.441 52.9833 734.441 77.4819C734.441 101.981 748.333 121.831 765.465 121.831C758.116 121.831 752.161 101.974 752.161 77.4819Z" stroke="#F4F4F4" stroke-width="2" stroke-miterlimit="10"/>
<path d="M796.484 77.4819C796.484 52.9833 782.592 33.127 765.466 33.127C772.808 33.127 778.763 52.9833 778.763 77.4819C778.763 101.981 772.808 121.831 765.466 121.831C782.592 121.831 796.484 101.974 796.484 77.4819Z" stroke="#F4F4F4" stroke-width="2" stroke-miterlimit="10"/>
<path d="M765.459 121.837C772.803 121.837 778.756 101.979 778.756 77.4819C778.756 52.9854 772.803 33.127 765.459 33.127C758.115 33.127 752.162 52.9854 752.162 77.4819C752.162 101.979 758.115 121.837 765.459 121.837Z" stroke="#F4F4F4" stroke-width="2" stroke-miterlimit="10"/>
<path d="M715.03 30.3162C714.84 30.1413 714.533 30.1413 714.343 30.3161C714.154 30.491 714.154 30.7746 714.343 30.9495L815.896 124.644C816.085 124.819 816.393 124.819 816.582 124.644C816.772 124.469 816.772 124.185 816.582 124.01L715.03 30.3162Z" stroke="#F4F4F4" stroke-width="2" stroke-miterlimit="10"/>
<path d="M32.5945 0V31.3873H0M2.55796 2.44957L31.6095 30.4252" stroke="#F4F4F4" stroke-width="2.5" stroke-linecap="round"/>
<path d="M927.406 0V31.3873H960M957.442 2.44957L928.39 30.4252" stroke="#F4F4F4" stroke-width="2.5" stroke-linecap="round"/>
<path d="M927.406 750V718.613H960M957.442 747.55L928.39 719.575" stroke="#F4F4F4" stroke-width="2.5" stroke-linecap="round"/>
<path d="M32.5945 750V718.613H0M2.55796 747.55L31.6095 719.575" stroke="#F4F4F4" stroke-width="2.5" stroke-linecap="round"/>
<path d="M815.205 183.572C815.205 181.773 812.658 180.09 808.236 178.639C799.444 181.517 783.202 183.451 764.602 183.451C746.003 183.451 729.767 181.517 720.968 178.639C716.546 180.09 714 181.773 714 183.572C714 185.372 716.546 187.06 720.968 188.506C729.76 185.628 746.003 183.693 764.602 183.693C783.202 183.693 799.444 185.628 808.236 188.506C812.658 187.06 815.205 185.372 815.205 183.572Z" fill="black" stroke="#F4F4F4" stroke-width="2"/>
<path d="M720.975 188.506C716.553 189.957 714.006 191.635 714.006 193.439C714.006 198.818 736.657 203.181 764.602 203.181C792.547 203.181 815.204 198.828 815.204 193.439C815.204 191.635 812.658 189.952 808.236 188.506C799.444 191.384 783.202 193.319 764.602 193.319C746.002 193.319 729.767 191.369 720.975 188.506Z" fill="black" stroke="#F4F4F4" stroke-width="2"/>
<path d="M764.603 193.319C788.701 193.319 808.236 191.164 808.236 188.506C808.236 185.848 788.701 183.693 764.603 183.693C740.504 183.693 720.969 185.848 720.969 188.506C720.969 191.164 740.504 193.319 764.603 193.319Z" fill="black" stroke="#F4F4F4" stroke-width="2"/>
<path d="M808.236 178.638C812.658 177.187 815.204 175.509 815.204 173.709C815.204 168.326 792.547 163.963 764.602 163.963C736.657 163.963 714.006 168.316 714.006 173.709C714.006 175.509 716.553 177.192 720.975 178.638C729.767 175.76 746.009 173.83 764.609 173.83C783.208 173.83 799.444 175.76 808.236 178.638Z" fill="black" stroke="#F4F4F4" stroke-width="2"/>
<path d="M764.603 183.452C788.701 183.452 808.236 181.297 808.236 178.639C808.236 175.981 788.701 173.826 764.603 173.826C740.504 173.826 720.969 175.981 720.969 178.639C720.969 181.297 740.504 183.452 764.603 183.452Z" fill="black" stroke="#F4F4F4" stroke-width="2"/>
<path d="M764.602 153.966C764.257 153.966 763.926 154.068 763.681 154.249C763.437 154.431 763.3 154.677 763.3 154.933V212.216C763.3 212.473 763.437 212.719 763.681 212.9C763.926 213.082 764.257 213.184 764.602 213.184C764.948 213.184 765.279 213.082 765.523 212.9C765.768 212.719 765.905 212.473 765.905 212.216V154.928C765.905 154.672 765.768 154.426 765.523 154.244C765.279 154.063 764.948 153.961 764.602 153.961V153.966Z" fill="black"/>
<path d="M719.14 294.225C719.009 289.112 719.531 284.001 720.695 279.015C721.911 274.553 723.797 270.301 726.29 266.403L726.29 266.403L726.294 266.396C730.365 259.914 735.94 254.506 742.548 250.632C748.521 247.221 755.142 245.096 761.987 244.392C765.785 244.15 769.587 244.789 773.097 246.257L773.136 246.273L773.175 246.286C781.497 248.976 788.948 253.837 794.757 260.365C797.799 263.813 800.063 267.873 801.395 272.271C802.728 276.67 803.097 281.303 802.479 285.856L802.477 285.87L802.476 285.883C801.577 294.19 797.781 301.183 792.372 307.48L792.366 307.487C786.862 314.019 779.566 318.8 771.374 321.243L771.374 321.243C769.507 321.8 767.602 322.16 765.542 322.548C764.453 322.754 763.321 322.967 762.128 323.223L761.337 323.392V324.2V331.069C760.196 331.154 759.05 330.879 758.066 330.272L758.024 330.246L757.98 330.225C752.833 327.712 748.12 324.399 744.014 320.41L744.009 320.405C742.149 318.623 740.443 316.7 738.709 314.744C738.093 314.05 737.473 313.351 736.842 312.653L736.824 312.634L736.806 312.615C735.807 311.621 735.192 310.306 735.07 308.903C734.948 307.501 735.327 306.1 736.14 304.949L736.163 304.916L736.184 304.882C738.191 301.497 740.779 298.491 743.83 296.001L743.839 295.994L743.848 295.986C747.651 292.731 751.987 290.155 756.667 288.371C757.94 287.992 759.23 287.677 760.534 287.428C760.581 288.509 760.627 289.537 760.672 290.545C760.742 292.112 760.81 293.633 760.875 295.237L760.91 296.119L761.79 296.193C764.617 296.431 767.458 295.96 770.056 294.823C776.647 292.246 782.553 288.182 787.311 282.949L787.324 282.935L787.336 282.921C789.03 280.913 790.509 278.733 791.75 276.419C792.583 274.952 792.944 273.265 792.787 271.586C792.63 269.919 791.968 268.34 790.891 267.059C788.08 263.046 784.693 259.467 780.839 256.439L780.838 256.438C777.436 253.775 773.76 251.428 770.157 249.128L770.047 249.057L770.009 249.033L769.97 249.013C767.638 247.801 765.072 247.107 762.446 246.977L761.827 246.946L761.524 247.487C760.639 249.069 760.586 250.657 760.614 252.076C760.619 252.308 760.626 252.533 760.632 252.754C760.659 253.684 760.683 254.528 760.555 255.371C749.043 256.28 739.492 261.812 731.618 269.927C724.982 276.766 720.479 284.735 719.14 294.225ZM736.63 250.795C727.68 257.262 721.163 266.542 718.122 277.148C713.915 291.384 716.091 304.888 723.512 317.385L723.512 317.386C731.827 331.356 744.651 339.037 760.626 340.83C777.595 342.748 792.038 336.807 803.43 324.369L803.43 324.368C811.843 315.178 816.246 304.063 815.989 292.92C816.092 277.161 811.082 265.095 800.746 255.241C795.851 250.372 789.966 246.608 783.489 244.204C777.013 241.801 770.095 240.813 763.204 241.308C753.597 241.753 744.343 245.057 736.63 250.795Z" stroke="#F4F4F4" stroke-width="2"/>
<path d="M927.901 669.063C927.901 676.629 927.507 683.15 926.717 688.627C925.927 694.031 924.874 698.571 923.558 702.246C922.242 705.921 920.729 708.876 919.018 711.109C917.307 713.343 915.498 715.037 913.59 716.19C911.681 717.343 909.773 718.099 907.865 718.46C905.891 718.82 904.049 719 902.338 719L902.042 719L902.042 683.547C902.7 683.475 903.456 683.295 904.312 683.006C905.167 682.718 905.99 682.07 906.779 681.061C907.569 680.052 908.26 678.575 908.852 676.629C909.378 674.611 909.642 671.873 909.642 668.414L909.642 667.766C909.642 664.451 909.477 661.785 909.148 659.767C908.819 657.75 908.391 656.2 907.865 655.119C907.339 654.038 906.746 653.354 906.088 653.066C905.43 652.705 904.772 652.525 904.114 652.525C903.39 652.525 902.7 652.669 902.042 652.958C901.384 653.246 900.824 653.894 900.364 654.903C899.903 655.912 899.541 657.389 899.278 659.335C898.949 661.208 898.752 663.766 898.686 667.009L898.488 678.575C898.357 686.501 897.666 692.987 896.416 698.031C895.1 703.075 893.389 707.074 891.283 710.029C889.178 712.911 886.776 714.929 884.078 716.082C881.38 717.162 878.518 717.703 875.491 717.703L874.701 717.703C871.345 717.703 868.286 717.018 865.522 715.649C862.758 714.208 860.39 711.722 858.416 708.191C856.442 704.66 854.928 699.94 853.875 694.031C852.757 688.123 852.197 680.664 852.197 671.657L852.197 666.577C852.197 656.488 852.921 648.346 854.369 642.149C855.751 635.952 857.593 631.16 859.896 627.773C862.133 624.386 864.7 622.152 867.595 621.071C870.424 619.918 873.254 619.342 876.083 619.342L876.281 619.342L876.281 654.038C875.623 654.183 874.932 654.471 874.208 654.903C873.418 655.263 872.694 655.984 872.036 657.065C871.378 658.074 870.852 659.551 870.457 661.497C870.062 663.37 869.865 665.82 869.865 668.847L869.865 669.603C869.865 672.702 869.997 675.188 870.26 677.061C870.457 678.935 870.786 680.376 871.247 681.385C871.707 682.394 872.234 683.078 872.826 683.439C873.418 683.727 874.076 683.871 874.8 683.871C875.524 683.871 876.182 683.691 876.774 683.331C877.366 682.97 877.893 682.322 878.353 681.385C878.748 680.376 879.077 678.971 879.34 677.17C879.538 675.368 879.669 673.026 879.735 670.144L879.932 658.254C880.064 650.039 880.689 643.338 881.808 638.149C882.861 632.961 884.341 628.89 886.249 625.935C888.158 622.981 890.461 620.963 893.158 619.882C895.856 618.729 898.916 618.153 902.338 618.153L903.522 618.153C906.681 618.153 909.74 618.729 912.701 619.882C915.597 620.963 918.196 623.233 920.499 626.692C922.736 630.151 924.545 635.051 925.927 641.392C927.243 647.733 927.901 656.128 927.901 666.577L927.901 669.063Z" fill="white"/>
<path d="M853.283 523.528L872.036 523.528L872.036 574.546L879.932 574.546L879.932 525.149L899.179 525.149L899.179 574.546L907.766 574.546L907.766 522.771L926.717 522.771L926.717 607.621L853.283 607.621L853.283 523.528Z" fill="white"/>
<path d="M884.275 477.724L884.275 448.648C884.275 446.919 884.111 445.549 883.782 444.541C883.453 443.46 883.058 442.631 882.597 442.055C882.071 441.478 881.479 441.082 880.821 440.866C880.163 440.649 879.472 440.541 878.748 440.541L878.649 440.541C877.991 440.541 877.366 440.649 876.774 440.866C876.182 441.082 875.655 441.478 875.195 442.055C874.668 442.631 874.274 443.46 874.01 444.541C873.681 445.549 873.517 446.919 873.517 448.648L873.517 477.724L884.275 477.724ZM891.382 424.977C891.645 422.454 892.106 420.04 892.764 417.735C893.422 415.357 894.409 413.303 895.725 411.573C896.975 409.772 898.62 408.331 900.66 407.25C902.634 406.169 905.068 405.629 907.964 405.629L921.486 405.629C922.933 405.629 923.986 405.52 924.644 405.304C925.236 405.088 925.763 404.8 926.223 404.44L926.717 404.44L926.717 438.38C926.519 438.524 926.092 438.668 925.434 438.812C924.776 438.956 923.789 439.028 922.473 439.028L916.255 439.028C913.886 439.028 911.977 439.28 910.53 439.785C909.016 440.289 907.865 441.118 907.075 442.271C906.22 443.424 905.661 444.973 905.397 446.919C905.068 448.864 904.904 451.278 904.904 454.161L904.904 477.724L926.717 477.724L926.717 510.691L853.283 510.691L853.283 439.785C853.283 432.579 853.875 426.778 855.06 422.382C856.178 417.987 857.692 414.6 859.6 412.222C861.442 409.844 863.581 408.295 866.016 407.574C868.45 406.782 870.984 406.385 873.616 406.385L874.109 406.385C876.873 406.385 879.274 406.962 881.314 408.115C883.288 409.196 884.966 410.637 886.348 412.438C887.73 414.24 888.816 416.257 889.605 418.491C890.395 420.653 890.987 422.815 891.382 424.977Z" fill="white"/>
<path d="M926.717 363.423L853.283 404.065L853.283 365.801L898.883 342.454L853.283 319.215L853.283 285.059L926.717 323.43L926.717 363.423Z" fill="white"/>
<path d="M926.717 247.659L926.717 280.626L853.283 280.626L853.283 247.659L926.717 247.659Z" fill="white"/>
<path d="M928 184.768C928 192.19 927.441 198.639 926.322 204.116C925.138 209.592 923.591 214.276 921.683 218.167C919.709 221.987 917.472 225.157 914.971 227.679C912.405 230.129 909.773 232.075 907.075 233.516C904.312 234.885 901.581 235.858 898.883 236.435C896.185 236.939 893.652 237.191 891.283 237.191L888.322 237.191C886.019 237.191 883.519 236.939 880.821 236.435C878.057 235.858 875.359 234.885 872.727 233.516C870.029 232.075 867.43 230.129 864.93 227.679C862.429 225.229 860.225 222.059 858.317 218.167C856.409 214.276 854.895 209.592 853.777 204.116C852.592 198.639 852 192.19 852 184.768L852 179.904C852 172.121 852.493 165.42 853.48 159.799C854.468 154.107 855.784 149.315 857.429 145.423C859.074 141.532 860.982 138.398 863.153 136.02C865.259 133.642 867.463 131.804 869.766 130.507C872.003 129.21 874.274 128.345 876.577 127.913C878.88 127.481 880.985 127.265 882.893 127.265L883.979 127.265L883.979 161.529C883.584 161.601 882.828 161.817 881.709 162.177C880.59 162.538 879.439 163.402 878.255 164.771C877.07 166.141 876.017 168.194 875.096 170.933C874.175 173.671 873.714 177.454 873.714 182.282C873.714 186.822 874.274 190.425 875.392 193.091C876.445 195.757 877.761 197.811 879.34 199.252C880.919 200.693 882.597 201.63 884.374 202.062C886.151 202.495 887.73 202.711 889.112 202.711L890.197 202.711C891.645 202.711 893.29 202.495 895.132 202.062C896.909 201.558 898.62 200.585 900.265 199.144C901.844 197.703 903.193 195.649 904.312 192.983C905.364 190.244 905.891 186.641 905.891 182.174C905.891 177.418 905.43 173.671 904.509 170.933C903.588 168.194 902.568 166.141 901.449 164.771C900.265 163.402 899.146 162.538 898.094 162.177C896.975 161.817 896.251 161.601 895.922 161.529L895.922 127.265L897.106 127.265C898.817 127.265 900.791 127.481 903.029 127.913C905.2 128.345 907.437 129.21 909.74 130.507C912.043 131.804 914.281 133.642 916.452 136.02C918.623 138.398 920.565 141.532 922.275 145.423C923.986 149.315 925.368 154.107 926.421 159.799C927.474 165.42 928 172.121 928 179.904L928 184.768Z" fill="white"/>
<path d="M853.283 32.7566L872.036 32.7566L872.036 83.7747L879.932 83.7747L879.932 34.378L899.179 34.378L899.179 83.7747L907.766 83.7747L907.766 32L926.717 32L926.717 116.85L853.283 116.85L853.283 32.7566Z" fill="white"/>
<path d="M564.903 667.816L564.003 668.251C563.7 668.398 563.407 668.538 563.12 668.676C562.513 668.967 561.936 669.243 561.363 669.53C562.095 669.589 562.827 669.646 563.561 669.704L563.564 669.704C564.367 669.767 565.172 669.83 565.977 669.895C569.532 670.176 573.087 670.467 576.642 670.768C577.529 669.23 578.431 667.698 579.33 666.172C579.647 665.633 579.963 665.096 580.279 664.558C581.54 662.408 582.803 660.259 584.068 658.112C584.241 657.818 584.35 657.56 584.4 657.318C584.137 657.429 583.87 657.547 583.591 657.671C582.953 657.956 582.321 658.246 581.671 658.544C581.406 658.665 581.139 658.787 580.867 658.912L579.982 659.315L579.554 658.442C579.246 657.814 578.932 657.187 578.618 656.558C578.031 655.386 577.445 654.213 576.896 653.039C575.967 651.055 574.875 649.55 573.029 648.798L564.903 667.816ZM564.903 667.816L564.467 666.915C563.934 665.814 563.407 664.716 562.882 663.621C561.573 660.893 560.276 658.19 558.923 655.521L564.903 667.816ZM552.913 648C558.264 648.001 563.614 648.004 568.965 648.009L568.969 648.009C570.359 648.005 571.738 648.273 573.029 648.798L552.913 648ZM552.913 648C554.188 648.812 555.319 649.864 556.24 651.233L552.913 648ZM568.966 647.009V647.01V647.009ZM558.923 655.521C558.26 654.212 557.426 652.983 556.638 651.821C556.503 651.623 556.371 651.427 556.24 651.233L558.923 655.521Z" stroke="#F4F4F4" stroke-width="2"/>
<path d="M528.301 676.68L527.851 677.515C527.84 677.536 527.825 677.564 527.809 677.596C527.754 677.701 527.675 677.854 527.599 677.971C526.366 679.915 525.133 681.857 523.898 683.798C523.279 684.773 523.004 685.683 523 686.563C522.996 687.446 523.266 688.383 523.869 689.41L523.87 689.41C526.108 693.222 528.296 697.068 530.479 700.907C531.221 702.21 531.962 703.513 532.705 704.814C532.871 702.969 533.462 701.187 534.551 699.488L534.551 699.488C536.407 696.593 538.247 693.69 540.088 690.785C541.025 689.308 541.961 687.83 542.901 686.353L542.919 686.324L542.939 686.297C543.045 686.152 543.161 686.014 543.285 685.884L543.843 685.299L544.532 685.722C544.862 685.924 545.18 686.122 545.491 686.316C545.959 686.609 546.413 686.892 546.87 687.165C546.825 687.06 546.775 686.956 546.721 686.854L546.72 686.851C545.667 684.858 544.606 682.861 543.544 680.862C542.288 678.497 541.031 676.13 539.786 673.767C539.786 673.767 539.786 673.767 539.786 673.767L528.301 676.68ZM528.301 676.68L527.491 676.187C527.124 675.963 526.762 675.744 526.404 675.527C525.841 675.185 525.285 674.849 524.729 674.508L524.728 674.507C524.636 674.451 524.544 674.399 524.468 674.357L524.464 674.354C524.385 674.31 524.323 674.274 524.263 674.239C524.195 674.197 524.147 674.165 524.113 674.139M528.301 676.68L524.113 674.139M524.113 674.139C524.143 674.137 524.179 674.136 524.225 674.134C524.24 674.134 524.258 674.133 524.279 674.133C524.327 674.132 524.386 674.13 524.437 674.128C529.551 674.011 534.667 673.894 539.782 673.761L524.113 674.139ZM523.944 674.294C523.944 674.294 523.944 674.294 523.945 674.294L523.944 674.294Z" stroke="#F4F4F4" stroke-width="2"/>
<path d="M570.466 695.587V694.694C570.466 694.326 570.467 693.965 570.468 693.61C570.47 693.08 570.472 692.561 570.469 692.043C567.986 696.354 565.515 700.67 563.055 704.991C565.747 709.167 568.45 713.336 571.162 717.499C571.288 717.682 571.429 717.855 571.585 718.015C571.579 717.52 571.582 717.056 571.584 716.602C571.588 715.943 571.592 715.305 571.57 714.623L571.57 714.623C571.561 714.341 571.566 713.781 571.988 713.359C572.401 712.946 572.953 712.929 573.223 712.929H573.232V712.929C575.551 712.949 577.862 712.958 580.168 712.912L580.168 712.911C581.183 712.891 582.01 712.645 582.694 712.211C583.382 711.776 583.98 711.118 584.482 710.193C586.939 705.666 589.418 701.15 591.896 696.636C592.364 695.782 592.833 694.929 593.301 694.075C591.055 695.326 588.579 695.66 586.184 695.696L570.466 695.587ZM570.466 695.587L571.354 695.687M570.466 695.587L571.354 695.687M571.354 695.687C571.425 695.695 571.474 695.702 571.521 695.708C571.537 695.71 571.552 695.712 571.568 695.714L571.568 695.714C571.624 695.721 571.718 695.734 571.827 695.734L571.828 695.734M571.354 695.687L571.828 695.734M571.828 695.734C573.218 695.732 574.61 695.734 576.004 695.737M571.828 695.734L576.004 695.737M576.004 695.737C579.392 695.742 582.791 695.748 586.184 695.696L576.004 695.737Z" stroke="#F4F4F4" stroke-width="2"/>
<path d="M541.387 712.977L541.387 712.977C545.231 712.933 549.077 712.942 552.916 712.951C554.396 712.954 555.875 712.958 557.352 712.958V696.336C552.207 696.328 547.061 696.332 541.914 696.35C541.556 696.866 541.209 697.391 540.855 697.929C540.835 697.96 540.814 697.991 540.794 698.022C540.406 698.611 540.008 699.212 539.589 699.805C537.522 702.751 536.706 705.916 537.384 709.445L541.387 712.977ZM541.387 712.977C540.058 712.993 539.227 712.689 538.667 712.191M541.387 712.977L538.667 712.191M538.667 712.191C538.091 711.679 537.65 710.828 537.384 709.445L538.667 712.191Z" stroke="#F4F4F4" stroke-width="2"/>
<path d="M571.254 677.366L571.64 677.127L572.104 676.839C572.106 676.843 572.108 676.846 572.11 676.849L571.643 677.131L571.254 677.366ZM580.697 691.143C577.943 686.535 575.179 681.934 572.405 677.338L586.37 669.179C589.207 673.53 592.042 677.881 594.876 682.233L594.876 682.233C595.422 683.072 595.663 683.856 595.657 684.585C595.652 685.31 595.404 686.068 594.824 686.861C593.33 688.896 591.424 690.328 589.015 690.961C588.604 691.068 588.182 691.124 587.757 691.126L587.755 691.126C586.494 691.137 585.278 691.137 584.057 691.136C582.953 691.135 581.846 691.135 580.697 691.143Z" stroke="#F4F4F4" stroke-width="2"/>
<path d="M542.443 651.895L542.443 651.895C540.939 654.414 539.385 656.908 537.838 659.394C537.171 660.465 536.505 661.534 535.844 662.603L535.844 662.603C535.131 663.757 535.459 665.277 536.59 666.046L543.53 670.758C545.986 672.426 549.335 671.734 550.942 669.228L550.942 669.228C552.746 666.418 554.54 663.602 556.324 660.779L556.357 660.799C556.35 660.785 556.344 660.77 556.337 660.755M542.443 651.895L541.584 651.383C540.086 653.893 538.54 656.374 536.994 658.856C536.326 659.929 535.658 661.002 534.994 662.077C533.996 663.691 534.459 665.807 536.028 666.873L542.968 671.585C545.893 673.572 549.875 672.744 551.783 669.768C553.588 666.956 555.384 664.138 557.169 661.313M542.443 651.895C543.186 650.649 544.234 650.156 545.748 649.998L545.748 649.998C548.124 649.748 549.902 650.871 551.577 652.758M542.443 651.895L552.325 652.095M556.337 660.755C556.344 660.744 556.35 660.731 556.357 660.716C556.37 660.689 556.378 660.667 556.382 660.653C556.387 660.637 556.381 660.65 556.378 660.689C556.377 660.71 556.377 660.746 556.383 660.794C556.384 660.801 556.386 660.81 556.387 660.819L556.562 660.929L556.562 660.929L557.169 661.313M556.337 660.755C556.332 660.765 556.327 660.773 556.323 660.78L556.358 660.802C556.384 660.862 556.411 660.922 556.437 660.983M556.337 660.755C555.052 657.827 553.63 655.074 551.577 652.758M557.169 661.313L556.561 660.93L556.56 660.93L556.387 660.821C556.395 660.865 556.41 660.92 556.437 660.983M557.169 661.313C557.299 661.107 557.433 660.767 557.354 660.584C556.031 657.546 554.539 654.591 552.325 652.095M556.437 660.983C556.437 660.983 556.437 660.983 556.437 660.984L556.437 660.983C556.437 660.983 556.437 660.983 556.437 660.983ZM551.577 652.758C551.577 652.758 551.577 652.758 551.577 652.759L552.325 652.095M551.577 652.758L552.325 652.095" stroke="#F4F4F4" stroke-width="2"/>
<path d="M668.903 667.816L668.003 668.251C667.7 668.398 667.407 668.538 667.12 668.676C666.513 668.967 665.936 669.243 665.363 669.53C666.095 669.589 666.827 669.646 667.561 669.704L667.564 669.704C668.367 669.767 669.172 669.83 669.977 669.895C673.532 670.176 677.087 670.467 680.642 670.768C681.529 669.23 682.431 667.698 683.33 666.172C683.647 665.633 683.963 665.096 684.279 664.558C685.54 662.408 686.803 660.259 688.068 658.112C688.241 657.818 688.35 657.56 688.4 657.318C688.137 657.429 687.87 657.547 687.591 657.671C686.953 657.956 686.321 658.246 685.671 658.544C685.406 658.665 685.139 658.787 684.867 658.912L683.982 659.315L683.554 658.442C683.246 657.814 682.932 657.187 682.618 656.558C682.031 655.386 681.445 654.213 680.896 653.039C679.967 651.055 678.875 649.55 677.029 648.798L668.903 667.816ZM668.903 667.816L668.467 666.915C667.934 665.814 667.407 664.716 666.882 663.621C665.573 660.893 664.276 658.19 662.923 655.521L668.903 667.816ZM656.913 648C662.264 648.001 667.614 648.004 672.965 648.009L672.969 648.009C674.359 648.005 675.738 648.273 677.029 648.798L656.913 648ZM656.913 648C658.188 648.812 659.319 649.864 660.24 651.233L656.913 648ZM672.966 647.009V647.01V647.009ZM662.923 655.521C662.26 654.212 661.426 652.983 660.638 651.821C660.503 651.623 660.371 651.427 660.24 651.233L662.923 655.521Z" stroke="#F4F4F4" stroke-width="2"/>
<path d="M632.301 676.68L631.851 677.515C631.84 677.536 631.825 677.564 631.809 677.596C631.754 677.701 631.675 677.854 631.599 677.971C630.366 679.915 629.133 681.857 627.898 683.798C627.279 684.773 627.004 685.683 627 686.563C626.996 687.446 627.266 688.383 627.869 689.41L627.87 689.41C630.108 693.222 632.296 697.068 634.479 700.907C635.221 702.21 635.962 703.513 636.705 704.814C636.871 702.969 637.462 701.187 638.551 699.488L638.551 699.488C640.407 696.593 642.247 693.69 644.088 690.785C645.025 689.308 645.961 687.83 646.901 686.353L646.919 686.324L646.939 686.297C647.045 686.152 647.161 686.014 647.285 685.884L647.843 685.299L648.532 685.722C648.862 685.924 649.18 686.122 649.491 686.316C649.959 686.609 650.413 686.892 650.87 687.165C650.825 687.06 650.775 686.956 650.721 686.854L650.72 686.851C649.667 684.858 648.606 682.861 647.544 680.862C646.288 678.497 645.031 676.13 643.786 673.767C643.786 673.767 643.786 673.767 643.786 673.767L632.301 676.68ZM632.301 676.68L631.491 676.187C631.124 675.963 630.762 675.744 630.404 675.527C629.841 675.185 629.285 674.849 628.729 674.508L628.728 674.507C628.636 674.451 628.544 674.399 628.468 674.357L628.464 674.354C628.385 674.31 628.323 674.274 628.263 674.239C628.195 674.197 628.147 674.165 628.113 674.139M632.301 676.68L628.113 674.139M628.113 674.139C628.143 674.137 628.179 674.136 628.225 674.134C628.24 674.134 628.258 674.133 628.279 674.133C628.327 674.132 628.386 674.13 628.437 674.128C633.551 674.011 638.667 673.894 643.782 673.761L628.113 674.139ZM627.944 674.294C627.944 674.294 627.944 674.294 627.945 674.294L627.944 674.294Z" stroke="#F4F4F4" stroke-width="2"/>
<path d="M674.466 695.587V694.694C674.466 694.326 674.467 693.965 674.468 693.61C674.47 693.08 674.472 692.561 674.469 692.043C671.986 696.354 669.515 700.67 667.055 704.991C669.747 709.167 672.45 713.336 675.162 717.499C675.288 717.682 675.429 717.855 675.585 718.015C675.579 717.52 675.582 717.056 675.584 716.602C675.588 715.943 675.592 715.305 675.57 714.623L675.57 714.623C675.561 714.341 675.566 713.781 675.988 713.359C676.401 712.946 676.953 712.929 677.223 712.929H677.232V712.929C679.551 712.949 681.862 712.958 684.168 712.912L684.168 712.911C685.183 712.891 686.01 712.645 686.694 712.211C687.382 711.776 687.98 711.118 688.482 710.193C690.939 705.666 693.418 701.15 695.896 696.636C696.364 695.782 696.833 694.929 697.301 694.075C695.055 695.326 692.579 695.66 690.184 695.696L674.466 695.587ZM674.466 695.587L675.354 695.687M674.466 695.587L675.354 695.687M675.354 695.687C675.425 695.695 675.474 695.702 675.521 695.708C675.537 695.71 675.552 695.712 675.568 695.714L675.568 695.714C675.624 695.721 675.718 695.734 675.827 695.734L675.828 695.734M675.354 695.687L675.828 695.734M675.828 695.734C677.218 695.732 678.61 695.734 680.004 695.737M675.828 695.734L680.004 695.737M680.004 695.737C683.392 695.742 686.791 695.748 690.184 695.696L680.004 695.737Z" stroke="#F4F4F4" stroke-width="2"/>
<path d="M645.387 712.977L645.387 712.977C649.231 712.933 653.077 712.942 656.916 712.951C658.396 712.954 659.875 712.958 661.352 712.958V696.336C656.207 696.328 651.061 696.332 645.914 696.35C645.556 696.866 645.209 697.391 644.855 697.929C644.835 697.96 644.814 697.991 644.794 698.022C644.406 698.611 644.008 699.212 643.589 699.805C641.522 702.751 640.706 705.916 641.384 709.445L645.387 712.977ZM645.387 712.977C644.058 712.993 643.227 712.689 642.667 712.191M645.387 712.977L642.667 712.191M642.667 712.191C642.091 711.679 641.65 710.828 641.384 709.445L642.667 712.191Z" stroke="#F4F4F4" stroke-width="2"/>
<path d="M675.254 677.366L675.64 677.127L676.104 676.839C676.106 676.843 676.108 676.846 676.11 676.849L675.643 677.131L675.254 677.366ZM684.697 691.143C681.943 686.535 679.179 681.934 676.405 677.338L690.37 669.179C693.207 673.53 696.042 677.881 698.876 682.233L698.876 682.233C699.422 683.072 699.663 683.856 699.657 684.585C699.652 685.31 699.404 686.068 698.824 686.861C697.33 688.896 695.424 690.328 693.015 690.961C692.604 691.068 692.182 691.124 691.757 691.126L691.755 691.126C690.494 691.137 689.278 691.137 688.057 691.136C686.953 691.135 685.846 691.135 684.697 691.143Z" stroke="#F4F4F4" stroke-width="2"/>
<path d="M646.443 651.895L646.443 651.895C644.939 654.414 643.385 656.908 641.838 659.394C641.171 660.465 640.505 661.534 639.844 662.603L639.844 662.603C639.131 663.757 639.459 665.277 640.59 666.046L647.53 670.758C649.986 672.426 653.335 671.734 654.942 669.228L654.942 669.228C656.746 666.418 658.54 663.602 660.324 660.779L660.357 660.799C660.35 660.785 660.344 660.77 660.337 660.755M646.443 651.895L645.584 651.383C644.086 653.893 642.54 656.374 640.994 658.856C640.326 659.929 639.658 661.002 638.994 662.077C637.996 663.691 638.459 665.807 640.028 666.873L646.968 671.585C649.893 673.572 653.875 672.744 655.783 669.768C657.588 666.956 659.384 664.138 661.169 661.313M646.443 651.895C647.186 650.649 648.234 650.156 649.748 649.998L649.748 649.998C652.124 649.748 653.902 650.871 655.577 652.758M646.443 651.895L656.325 652.095M660.337 660.755C660.344 660.744 660.35 660.731 660.357 660.716C660.37 660.689 660.378 660.667 660.382 660.653C660.387 660.637 660.381 660.65 660.378 660.689C660.377 660.71 660.377 660.746 660.383 660.794C660.384 660.801 660.386 660.81 660.387 660.819L660.562 660.929L660.562 660.929L661.169 661.313M660.337 660.755C660.332 660.765 660.327 660.773 660.323 660.78L660.358 660.802C660.384 660.862 660.411 660.922 660.437 660.983M660.337 660.755C659.052 657.827 657.63 655.074 655.577 652.758M661.169 661.313L660.561 660.93L660.56 660.93L660.387 660.821C660.395 660.865 660.41 660.92 660.437 660.983M661.169 661.313C661.299 661.107 661.433 660.767 661.354 660.584C660.031 657.546 658.539 654.591 656.325 652.095M660.437 660.983C660.437 660.983 660.437 660.983 660.437 660.984L660.437 660.983C660.437 660.983 660.437 660.983 660.437 660.983ZM655.577 652.758C655.577 652.758 655.577 652.758 655.577 652.759L656.325 652.095M655.577 652.758L656.325 652.095" stroke="#F4F4F4" stroke-width="2"/>
<path d="M772.903 667.816L772.003 668.251C771.7 668.398 771.407 668.538 771.12 668.676C770.513 668.967 769.936 669.243 769.363 669.53C770.095 669.589 770.827 669.646 771.561 669.704L771.564 669.704C772.367 669.767 773.172 669.83 773.977 669.895C777.532 670.176 781.087 670.467 784.642 670.768C785.529 669.23 786.431 667.698 787.33 666.172C787.647 665.633 787.963 665.096 788.279 664.558C789.54 662.408 790.803 660.259 792.068 658.112C792.241 657.818 792.35 657.56 792.4 657.318C792.137 657.429 791.87 657.547 791.591 657.671C790.953 657.956 790.321 658.246 789.671 658.544C789.406 658.665 789.139 658.787 788.867 658.912L787.982 659.315L787.554 658.442C787.246 657.814 786.932 657.187 786.618 656.558C786.031 655.386 785.445 654.213 784.896 653.039C783.967 651.055 782.875 649.55 781.029 648.798L772.903 667.816ZM772.903 667.816L772.467 666.915C771.934 665.814 771.407 664.716 770.882 663.621C769.573 660.893 768.276 658.19 766.923 655.521L772.903 667.816ZM760.913 648C766.264 648.001 771.614 648.004 776.965 648.009L776.969 648.009C778.359 648.005 779.738 648.273 781.029 648.798L760.913 648ZM760.913 648C762.188 648.812 763.319 649.864 764.24 651.233L760.913 648ZM776.966 647.009V647.01V647.009ZM766.923 655.521C766.26 654.212 765.426 652.983 764.638 651.821C764.503 651.623 764.371 651.427 764.24 651.233L766.923 655.521Z" stroke="#F4F4F4" stroke-width="2"/>
<path d="M736.301 676.68L735.851 677.515C735.84 677.536 735.825 677.564 735.809 677.596C735.754 677.701 735.675 677.854 735.599 677.971C734.366 679.915 733.133 681.857 731.898 683.798C731.279 684.773 731.004 685.683 731 686.563C730.996 687.446 731.266 688.383 731.869 689.41L731.87 689.41C734.108 693.222 736.296 697.068 738.479 700.907C739.221 702.21 739.962 703.513 740.705 704.814C740.871 702.969 741.462 701.187 742.551 699.488L742.551 699.488C744.407 696.593 746.247 693.69 748.088 690.785C749.025 689.308 749.961 687.83 750.901 686.353L750.919 686.324L750.939 686.297C751.045 686.152 751.161 686.014 751.285 685.884L751.843 685.299L752.532 685.722C752.862 685.924 753.18 686.122 753.491 686.316C753.959 686.609 754.413 686.892 754.87 687.165C754.825 687.06 754.775 686.956 754.721 686.854L754.72 686.851C753.667 684.858 752.606 682.861 751.544 680.862C750.288 678.497 749.031 676.13 747.786 673.767C747.786 673.767 747.786 673.767 747.786 673.767L736.301 676.68ZM736.301 676.68L735.491 676.187C735.124 675.963 734.762 675.744 734.404 675.527C733.841 675.185 733.285 674.849 732.729 674.508L732.728 674.507C732.636 674.451 732.544 674.399 732.468 674.357L732.464 674.354C732.385 674.31 732.323 674.274 732.263 674.239C732.195 674.197 732.147 674.165 732.113 674.139M736.301 676.68L732.113 674.139M732.113 674.139C732.143 674.137 732.179 674.136 732.225 674.134C732.24 674.134 732.258 674.133 732.279 674.133C732.327 674.132 732.386 674.13 732.437 674.128C737.551 674.011 742.667 673.894 747.782 673.761L732.113 674.139ZM731.944 674.294C731.944 674.294 731.944 674.294 731.945 674.294L731.944 674.294Z" stroke="#F4F4F4" stroke-width="2"/>
<path d="M778.466 695.587V694.694C778.466 694.326 778.467 693.965 778.468 693.61C778.47 693.08 778.472 692.561 778.469 692.043C775.986 696.354 773.515 700.67 771.055 704.991C773.747 709.167 776.45 713.336 779.162 717.499C779.288 717.682 779.429 717.855 779.585 718.015C779.579 717.52 779.582 717.056 779.584 716.602C779.588 715.943 779.592 715.305 779.57 714.623L779.57 714.623C779.561 714.341 779.566 713.781 779.988 713.359C780.401 712.946 780.953 712.929 781.223 712.929H781.232V712.929C783.551 712.949 785.862 712.958 788.168 712.912L788.168 712.911C789.183 712.891 790.01 712.645 790.694 712.211C791.382 711.776 791.98 711.118 792.482 710.193C794.939 705.666 797.418 701.15 799.896 696.636C800.364 695.782 800.833 694.929 801.301 694.075C799.055 695.326 796.579 695.66 794.184 695.696L778.466 695.587ZM778.466 695.587L779.354 695.687M778.466 695.587L779.354 695.687M779.354 695.687C779.425 695.695 779.474 695.702 779.521 695.708C779.537 695.71 779.552 695.712 779.568 695.714L779.568 695.714C779.624 695.721 779.718 695.734 779.827 695.734L779.828 695.734M779.354 695.687L779.828 695.734M779.828 695.734C781.218 695.732 782.61 695.734 784.004 695.737M779.828 695.734L784.004 695.737M784.004 695.737C787.392 695.742 790.791 695.748 794.184 695.696L784.004 695.737Z" stroke="#F4F4F4" stroke-width="2"/>
<path d="M749.387 712.977L749.387 712.977C753.231 712.933 757.077 712.942 760.916 712.951C762.396 712.954 763.875 712.958 765.352 712.958V696.336C760.207 696.328 755.061 696.332 749.914 696.35C749.556 696.866 749.209 697.391 748.855 697.929C748.835 697.96 748.814 697.991 748.794 698.022C748.406 698.611 748.008 699.212 747.589 699.805C745.522 702.751 744.706 705.916 745.384 709.445L749.387 712.977ZM749.387 712.977C748.058 712.993 747.227 712.689 746.667 712.191M749.387 712.977L746.667 712.191M746.667 712.191C746.091 711.679 745.65 710.828 745.384 709.445L746.667 712.191Z" stroke="#F4F4F4" stroke-width="2"/>
<path d="M779.254 677.366L779.64 677.127L780.104 676.839C780.106 676.843 780.108 676.846 780.11 676.849L779.643 677.131L779.254 677.366ZM788.697 691.143C785.943 686.535 783.179 681.934 780.405 677.338L794.37 669.179C797.207 673.53 800.042 677.881 802.876 682.233L802.876 682.233C803.422 683.072 803.663 683.856 803.657 684.585C803.652 685.31 803.404 686.068 802.824 686.861C801.33 688.896 799.424 690.328 797.015 690.961C796.604 691.068 796.182 691.124 795.757 691.126L795.755 691.126C794.494 691.137 793.278 691.137 792.057 691.136C790.953 691.135 789.846 691.135 788.697 691.143Z" stroke="#F4F4F4" stroke-width="2"/>
<path d="M750.443 651.895L750.443 651.895C748.939 654.414 747.385 656.908 745.838 659.394C745.171 660.465 744.505 661.534 743.844 662.603L743.844 662.603C743.131 663.757 743.459 665.277 744.59 666.046L751.53 670.758C753.986 672.426 757.335 671.734 758.942 669.228L758.942 669.228C760.746 666.418 762.54 663.602 764.324 660.779L764.357 660.799C764.35 660.785 764.344 660.77 764.337 660.755M750.443 651.895L749.584 651.383C748.086 653.893 746.54 656.374 744.994 658.856C744.326 659.929 743.658 661.002 742.994 662.077C741.996 663.691 742.459 665.807 744.028 666.873L750.968 671.585C753.893 673.572 757.875 672.744 759.783 669.768C761.588 666.956 763.384 664.138 765.169 661.313M750.443 651.895C751.186 650.649 752.234 650.156 753.748 649.998L753.748 649.998C756.124 649.748 757.902 650.871 759.577 652.758M750.443 651.895L760.325 652.095M764.337 660.755C764.344 660.744 764.35 660.731 764.357 660.716C764.37 660.689 764.378 660.667 764.382 660.653C764.387 660.637 764.381 660.65 764.378 660.689C764.377 660.71 764.377 660.746 764.383 660.794C764.384 660.801 764.386 660.81 764.387 660.819L764.562 660.929L764.562 660.929L765.169 661.313M764.337 660.755C764.332 660.765 764.327 660.773 764.323 660.78L764.358 660.802C764.384 660.862 764.411 660.922 764.437 660.983M764.337 660.755C763.052 657.827 761.63 655.074 759.577 652.758M765.169 661.313L764.561 660.93L764.56 660.93L764.387 660.821C764.395 660.865 764.41 660.92 764.437 660.983M765.169 661.313C765.299 661.107 765.433 660.767 765.354 660.584C764.031 657.546 762.539 654.591 760.325 652.095M764.437 660.983C764.437 660.983 764.437 660.983 764.437 660.984L764.437 660.983C764.437 660.983 764.437 660.983 764.437 660.983ZM759.577 652.758C759.577 652.758 759.577 652.758 759.577 652.759L760.325 652.095M759.577 652.758L760.325 652.095" stroke="#F4F4F4" stroke-width="2"/>
<path d="M171.413 668.387V648.37L279.717 683L171.413 717.63V697.613V696.613H170.413H34V669.387H170.413H171.413V668.387Z" stroke="#F4F4F4" stroke-width="2"/>
</g>
<defs>
<clipPath id="clip0_58_67">
<rect width="960" height="750" fill="white"/>
</clipPath>
</defs>
</svg>
