<svg width="46" height="60" viewBox="0 0 46 60" fill="none" xmlns="http://www.w3.org/2000/svg">
<path fill-rule="evenodd" clip-rule="evenodd" d="M2.21681 22.5004V22.5026C2.21378 25.2497 2.76455 27.9692 3.8362 30.4987C4.90472 33.0207 6.4692 35.3022 8.43665 37.2076C9.33353 38.0348 10.0602 39.0292 10.5758 40.1352L10.5885 40.1625L13.4208 46.7501H32.0091L34.8327 40.1951C34.8329 40.1947 34.8331 40.1942 34.8333 40.1938C35.323 39.0535 36.0973 38.0764 36.9797 37.2243C39.4107 34.8697 41.2208 31.9498 42.2486 28.7253C43.2766 25.5001 43.49 22.0704 42.8696 18.7426C42.2491 15.4148 40.8142 12.2924 38.693 9.65428C36.5718 7.01614 33.8303 4.94435 30.7133 3.6239C27.5962 2.30345 24.2007 1.77544 20.8299 2.08703C17.4591 2.39862 14.2179 3.5401 11.3957 5.40954C8.57353 7.27899 6.25825 9.81821 4.65658 12.8005C3.05491 15.7828 2.2167 19.1152 2.21681 22.5004ZM38.3693 38.6628C37.6081 39.3977 37.0231 40.1627 36.6706 40.984L33.8131 47.6176C33.6681 47.9539 33.4278 48.2403 33.1219 48.4415C32.8161 48.6427 32.4579 48.75 32.0918 48.7501H13.3418C12.975 48.7508 12.6161 48.6438 12.3095 48.4425C12.0029 48.2412 11.7621 47.9544 11.6168 47.6176L8.76306 40.9802C8.35446 40.1037 7.77722 39.3162 7.06431 38.6628C4.8954 36.5672 3.17117 34.0559 1.99466 31.2789C0.818147 28.5019 0.213488 25.5163 0.21681 22.5004C0.216694 18.785 1.13668 15.1274 2.89461 11.8542C4.65254 8.58097 7.19371 5.79401 10.2912 3.74218C13.3887 1.69035 16.9461 0.437505 20.6458 0.0955203C24.3455 -0.246464 28.0723 0.333053 31.4934 1.78233C34.9145 3.2316 37.9235 5.50552 40.2517 8.40104C42.5798 11.2966 44.1547 14.7236 44.8357 18.376C45.5166 22.0285 45.2825 25.7928 44.1541 29.3327C43.0258 32.8727 41.0384 36.0781 38.3693 38.6628ZM32.0918 56.25C32.5891 56.25 33.066 56.0525 33.4176 55.7009C33.7693 55.3492 33.9668 54.8723 33.9668 54.3751C33.9668 53.8778 33.7693 53.4009 33.4176 53.0493C33.066 52.6976 32.5891 52.5001 32.0918 52.5001H13.3418C12.8445 52.5001 12.3676 52.6976 12.016 53.0493C11.6644 53.4009 11.4668 53.8778 11.4668 54.3751C11.4668 54.8723 11.6644 55.3492 12.016 55.7009C12.3676 56.0525 12.8445 56.25 13.3418 56.25L14.1818 57.9263C14.493 58.5491 14.9715 59.0729 15.5636 59.4392C16.1557 59.8054 16.8381 59.9996 17.5343 60H27.8993C28.5955 59.9996 29.2779 59.8054 29.87 59.4392C30.4621 59.0729 30.9406 58.5491 31.2518 57.9263L32.0918 56.25ZM27.8982 58C28.2231 57.9998 28.5416 57.9092 28.8179 57.7383C29.0942 57.5674 29.3175 57.3229 29.4627 57.0323L30.7317 54.5001H14.7019L15.9709 57.0323C16.1161 57.3229 16.3394 57.5674 16.6157 57.7383C16.892 57.9092 17.2105 57.9998 17.5354 58H27.8982Z" fill="#F4F4F4"/>
</svg>
