<svg width="63" height="64" viewBox="0 0 63 64" fill="none" xmlns="http://www.w3.org/2000/svg">
<path d="M20.0101 8.61007C19.573 9.28849 19.1671 9.98756 18.7939 10.705M20.0101 8.61007L18.7941 10.7047C18.7941 10.7048 18.794 10.7049 18.7939 10.705M20.0101 8.61007C17.7342 9.76703 15.6371 11.2613 13.7882 13.0458C14.8239 13.5469 15.9417 14.0057 17.1339 14.4169C17.6319 13.1033 18.1897 11.8642 18.7939 10.705M20.0101 8.61007L18.7939 10.705M22.9915 12.9638L22.9915 12.9637C24.8423 9.43562 26.9976 7.28295 29.125 6.37534V16.6283C26.5229 16.5033 24.0469 16.1803 21.7437 15.6923C22.1279 14.7233 22.5469 13.8109 22.9915 12.9638ZM22.9915 51.1427L22.9915 51.1426C22.5473 50.2963 22.1309 49.3839 21.7449 48.414C24.0474 47.9266 26.523 47.6066 29.125 47.4819V57.7299C26.9995 56.8195 24.8416 54.6694 22.9915 51.1427ZM18.7938 53.4012L18.7941 53.4017C19.1677 54.1187 19.5739 54.8173 20.0114 55.4953C17.736 54.3387 15.6379 52.8453 13.7897 51.062C14.8768 50.5373 15.9932 50.0776 17.133 49.6852C17.6134 50.9562 18.168 52.1971 18.7938 53.4012ZM40.0085 51.1426L40.0085 51.1427C38.1577 54.6708 36.0024 56.8235 33.875 57.7311V47.4766C36.3554 47.5894 38.8234 47.905 41.2557 48.4156C40.8717 49.384 40.4529 50.296 40.0085 51.1426ZM44.2059 10.7047L44.2051 10.7032C43.8252 9.98034 43.4199 9.28166 42.9911 8.61396C45.2642 9.76884 47.3591 11.2602 49.2066 13.0411C48.1214 13.5656 47.007 14.0252 45.8691 14.4177C45.3684 13.1039 44.8104 11.8644 44.2059 10.7047ZM9.93033 10.1358C4.21141 15.9501 1 23.8342 1 32.0532C1 40.2723 4.21141 48.1564 9.93033 53.9706C15.6495 59.7851 23.4082 63.0532 31.5 63.0532C39.5918 63.0532 47.3505 59.7851 53.0697 53.9706C58.7886 48.1564 62 40.2723 62 32.0532C62 23.8342 58.7886 15.9501 53.0697 10.1358C47.3505 4.32133 39.5918 1.05322 31.5 1.05322C23.4082 1.05322 15.6495 4.32133 9.93033 10.1358ZM5.85843 29.647C6.27124 25.0084 7.89955 20.5667 10.5737 16.7854C12.2187 17.6636 13.9304 18.4061 15.6924 19.0058C14.8578 22.2936 14.3336 25.8833 14.1771 29.647H5.85843ZM29.125 29.647H18.9278C19.0631 26.4909 19.5139 23.3569 20.2733 20.2936C23.0565 20.917 26.0329 21.3124 29.125 21.444V29.647ZM44.0686 29.647H33.875V21.4397C36.9663 21.3057 39.9426 20.9165 42.7265 20.2936C43.4848 23.357 43.9345 26.491 44.0686 29.647ZM20.2714 43.8151C19.5519 40.9655 19.0832 37.8097 18.9328 34.4595H29.125V42.6654C26.1466 42.7877 23.1843 43.1724 20.2714 43.8151ZM42.7291 43.8134C39.9452 43.1896 36.968 42.7941 33.875 42.6624V34.4595H44.0704C43.917 37.8091 43.4483 40.9643 42.7291 43.8134ZM5.85841 34.4595H14.1719C14.3123 38.0511 14.8226 41.618 15.6946 45.1016C13.8543 45.7332 12.1386 46.4762 10.5724 47.3194C7.89888 43.5385 6.27098 39.0974 5.85841 34.4595ZM45.8667 49.6891C47.0054 50.0815 48.1207 50.5411 49.2067 51.0656C47.3591 52.848 45.2638 54.3405 42.9901 55.4963C43.4272 54.8179 43.833 54.1189 44.2061 53.4014C44.8318 52.1984 45.3863 50.9588 45.8667 49.6891ZM52.4276 47.3194C50.8614 46.4762 49.1458 45.7332 47.3054 45.1016C48.1774 41.618 48.6877 38.0511 48.8281 34.4595H57.1416C56.729 39.0974 55.1011 43.5385 52.4276 47.3194ZM47.3073 19.0042C49.1469 18.3728 50.8619 17.6299 52.4276 16.787C55.1011 20.568 56.729 25.009 57.1416 29.647H48.8262C48.6665 25.8828 48.1422 22.2896 47.3073 19.0042ZM33.875 6.37621C36.0026 7.28619 38.1575 9.43577 40.0078 12.9625C40.4701 13.85 40.8868 14.7611 41.2564 15.6922C38.9535 16.1797 36.4775 16.4999 33.875 16.6245V6.37621Z" fill="black" stroke="black"/>
</svg>
