<svg width="64" height="63" viewBox="0 0 64 63" fill="none" xmlns="http://www.w3.org/2000/svg">
<path d="M16.2544 40.2504C15.5455 40.25 15.0644 39.5328 15.3762 38.896C16.119 37.3789 17.0427 35.9565 18.1277 34.6603C18.4251 34.305 18.9332 34.2213 19.3342 34.4535C20.0307 34.8567 20.7303 35.2757 21.4423 35.6075C22.0434 35.8876 22.5469 36.3455 23.1782 36.6339C23.768 36.9035 24.2388 36.2774 23.952 35.6957V35.6957C21.5304 31.9247 19.0867 28.1869 16.6871 24.4049C16.452 24.0408 16.1238 23.7464 15.7367 23.5525C15.3495 23.3586 14.9175 23.2722 14.4856 23.3023L1.27685 22.4863C0.944684 22.5062 0.615075 22.5558 0.291936 22.6342C0.172478 22.6632 0.0818999 22.7592 0.0543093 22.879V22.879C0.0218672 23.0199 0.0830837 23.1657 0.206347 23.2412L4.99691 26.1753C5.4393 26.4463 5.60379 27.0119 5.37406 27.4771C5.22787 27.7731 5.09157 28.04 4.9423 28.2971C4.11675 29.7305 3.31321 31.1639 2.44363 32.5642C1.78146 33.6354 1.48404 34.8928 1.59606 36.1477C1.67363 38.2016 2.26402 40.2033 3.31322 41.9696C5.00835 44.5938 6.8796 47.0967 8.45363 49.7761C9.28353 51.2412 10.4974 52.4511 11.9641 53.2751C13.4308 54.0991 15.0944 54.5058 16.7752 54.4512C21.7175 54.5394 26.6818 54.5394 31.5801 54.5615C31.7414 54.5499 31.9021 54.5315 32.0617 54.5065C32.4438 54.4465 32.7237 54.1352 32.7608 53.7503C33.0306 50.9495 32.9429 43.3818 32.6435 40.9351C32.5929 40.5213 32.2396 40.2604 31.8228 40.2601L16.2544 40.2504Z" fill="black"/>
<path d="M32.1467 12.6092C32.5508 11.9852 33.4683 12.0064 33.8218 12.6604C34.4606 13.8421 35.0456 15.0523 35.5753 16.2871C35.7865 16.7796 35.5578 17.3453 35.0769 17.5819C34.3453 17.942 33.6283 18.3313 32.9277 18.749C32.2806 19.1785 31.4374 19.34 30.7693 19.8591C30.3679 20.171 30.5749 20.7519 31.0784 20.8219V20.8219C35.7785 20.8219 40.4897 20.8881 45.1898 20.8219C45.7366 20.7573 46.2392 20.4897 46.5988 20.0721C47.3803 19.19 48.0518 18.1977 48.8003 17.2384C50.8916 14.4157 52.9757 11.5856 55.0524 8.74824V8.74824C55.3361 8.36251 54.6616 7.92249 54.2283 8.12618L49.7173 10.2466C49.2913 10.4468 48.779 10.3255 48.5221 9.93111C48.4669 9.84634 48.4128 9.76077 48.36 9.67445C47.4464 7.85515 46.5878 6.00272 45.6191 4.16135C45.2823 3.51254 44.8225 2.93578 44.2652 2.46334C42.3402 0.924515 39.9475 0.0918448 37.4847 0.103725C34.5457 0.0155148 31.5848 0.191925 28.6788 0.0265349C27.121 -0.0973651 25.5594 0.214285 24.1679 0.926785C22.7764 1.63929 21.6097 2.72472 20.7976 4.06215C18.2328 7.81104 15.7342 11.593 13.2245 15.375C12.894 15.8678 12.5957 16.3767 12.2509 16.9692C11.9831 17.4294 12.12 18.0201 12.5641 18.3137L22.8423 25.1077C23.305 25.4136 23.9282 25.2844 24.231 24.8198C26.8839 20.7488 29.4686 16.7438 32.1467 12.6092Z" fill="black"/>
<path d="M61.7118 33.1379C59.8515 29.8962 58.0794 26.5994 56.2081 23.3467C55.6356 22.3319 55.0349 21.3385 54.3891 20.2645C54.1132 19.8057 53.5251 19.6437 53.0546 19.8991C49.4048 21.8796 45.8816 23.8611 42.3148 25.9646C41.8364 26.2467 41.6821 26.8652 41.9634 27.3441C42.8304 28.8202 43.5686 30.178 44.3532 31.5281C45.2888 33.1379 46.4006 34.836 47.2702 36.523C48.019 37.6937 48.7057 38.9029 49.3276 40.1453C49.6451 40.7797 49.1927 41.516 48.4834 41.5242C47.0872 41.5405 45.6909 41.4974 44.2982 41.395C43.8339 41.3609 43.4566 41.0037 43.4252 40.5392C43.3127 38.8799 43.5274 37.297 43.3334 35.5998C43.2781 35.1157 42.7119 34.9377 42.4145 35.3238V35.3238C42.3934 35.3512 42.3748 35.3806 42.3587 35.4112C40.166 39.5748 38.071 43.7493 35.9106 47.913C35.7768 48.1587 35.7123 48.4363 35.724 48.716C35.7356 48.9957 35.8229 49.2669 35.9766 49.5007C37.9579 53.5143 39.9062 57.5498 41.8986 61.5634C42.0144 61.7953 42.1114 62.0989 42.3456 62.2803C42.715 62.5664 43.1249 62.0809 43.1467 61.6142C43.22 60.0459 43.294 58.4557 43.3733 56.7504C43.3981 56.2167 43.8381 55.7968 44.3724 55.7924C46.3676 55.7759 48.2153 55.7205 50.022 55.7967C51.3289 55.9049 52.6326 55.554 53.7095 54.8043C55.7632 53.3904 57.444 51.4986 58.6077 49.2912C60.0754 46.6082 61.4366 43.8774 62.6914 41.0988C63.0795 40.103 63.2448 39.0341 63.1758 37.9674C63.1018 36.2597 62.5982 34.5985 61.7118 33.1379Z" fill="black"/>
</svg>
