<svg width="70" height="70" viewBox="0 0 70 70" fill="none" xmlns="http://www.w3.org/2000/svg">
<path d="M17.1024 43.5972C18.0225 41.324 19.3339 39.2303 20.977 37.4115C21.9016 37.9187 22.8262 38.5141 23.7729 38.9552C24.7195 39.3962 25.424 40.2783 26.7669 40.2452C26.6357 39.833 26.4738 39.4313 26.2826 39.0434C23.861 35.2724 21.4173 31.5346 19.0177 27.7526C18.7826 27.3885 18.4544 27.0941 18.0673 26.9002C17.6801 26.7063 17.2481 26.6199 16.8162 26.65L3.60742 25.834C3.20889 25.8579 2.81404 25.9244 2.42963 26.0324L2.33057 26.4625L8.10943 30.0019C7.7792 30.6635 7.54806 31.1707 7.27287 31.6448C6.44732 33.0782 5.64378 34.5116 4.7742 35.9119C4.11203 36.9831 3.81461 38.2405 3.92663 39.4954C4.0042 41.5493 4.59459 43.551 5.64379 45.3173C7.33892 47.9415 9.21017 50.4444 10.7842 53.1238C11.6141 54.5889 12.828 55.7988 14.2947 56.6228C15.7614 57.4468 17.425 57.8535 19.1058 57.7989C24.0481 57.8871 29.0124 57.8871 33.9107 57.9092C34.2827 57.8824 34.6514 57.8197 35.0114 57.7217C35.4187 55.4283 35.2756 44.7549 34.8463 43.6082L17.1024 43.5972Z" fill="black"/>
<path d="M35.3582 14.5988C36.4754 16.4975 37.4504 18.4767 38.2752 20.5199C37.2413 20.9888 36.2344 21.5153 35.2592 22.0967C34.3786 22.6811 33.1347 22.7693 32.4633 23.938C32.7702 24.0471 33.0874 24.1247 33.4099 24.1696C38.11 24.1696 42.8212 24.2358 47.5213 24.1696C48.0681 24.105 48.5707 23.8374 48.9303 23.4198C49.7118 22.5377 50.3833 21.5454 51.1318 20.5861C53.2231 17.7634 55.3072 14.9333 57.3839 12.0959C57.538 11.8864 57.494 11.5336 57.5821 10.9933L51.3189 13.9373C51.0941 13.6433 50.8847 13.3378 50.6915 13.0221C49.7779 11.2028 48.9193 9.35038 47.9506 7.50901C47.6138 6.8602 47.154 6.28344 46.5967 5.811C44.6717 4.27217 42.279 3.4395 39.8162 3.45138C36.8772 3.36317 33.9163 3.53958 31.0103 3.37419C29.4525 3.25029 27.8909 3.56194 26.4994 4.27444C25.1079 4.98695 23.9412 6.07238 23.1291 7.40981C20.5643 11.1587 18.0657 14.9407 15.556 18.7227C15.0827 19.4284 14.6754 20.1671 14.103 21.1374L26.013 29.0101C29.1501 24.2026 32.1771 19.5055 35.3582 14.5988Z" fill="black"/>
<path d="M64.0424 36.4855C62.1821 33.2438 60.41 29.947 58.5387 26.6943C57.8232 25.4262 57.0637 24.1913 56.2272 22.791C51.9783 25.0845 47.9166 27.3668 43.7779 29.8257C44.8786 31.645 45.7482 33.2658 46.6838 34.8757C47.6194 36.4855 48.7312 38.1836 49.6008 39.8706C50.6162 41.4582 51.5174 43.1164 52.2976 44.8323C50.1427 44.9223 47.9843 44.8707 45.8362 44.678C45.517 42.3735 46.0234 40.2675 45.484 37.8748C45.2011 38.1289 44.943 38.4094 44.7135 38.7128C42.512 42.8917 40.4096 47.0816 38.2412 51.2606C38.1074 51.5063 38.0429 51.7839 38.0546 52.0636C38.0662 52.3433 38.1535 52.6145 38.3072 52.8483C40.2885 56.8619 42.2368 60.8974 44.2292 64.911C44.4273 65.3079 44.5704 65.9144 45.44 65.76C45.539 63.643 45.6381 61.5149 45.7482 59.1443C48.1148 59.1443 50.2612 59.0561 52.3526 59.1443C53.6595 59.2525 54.9632 58.9016 56.0401 58.1519C58.0938 56.738 59.7746 54.8462 60.9383 52.6388C62.406 49.9558 63.7672 47.225 65.022 44.4464C65.4101 43.4506 65.5754 42.3817 65.5064 41.315C65.4324 39.6073 64.9288 37.9461 64.0424 36.4855Z" fill="black"/>
</svg>
