<svg width="71" height="70" viewBox="0 0 71 70" fill="none" xmlns="http://www.w3.org/2000/svg">
<path d="M17.8856 43.5972C18.8057 41.324 20.1171 39.2303 21.7602 37.4115C22.6848 37.9187 23.6095 38.5141 24.5561 38.9552C25.5027 39.3962 26.2072 40.2783 27.5501 40.2452C27.4189 39.833 27.257 39.4313 27.0658 39.0434C24.6442 35.2724 22.2005 31.5346 19.8009 27.7526C19.5658 27.3885 19.2376 27.0941 18.8505 26.9002C18.4633 26.7063 18.0313 26.6199 17.5994 26.65L4.39063 25.834C3.99209 25.8579 3.59725 25.9244 3.21283 26.0324L3.11377 26.4625L8.89263 30.0019C8.56241 30.6635 8.33126 31.1707 8.05608 31.6448C7.23052 33.0782 6.42698 34.5116 5.5574 35.9119C4.89523 36.9831 4.59782 38.2405 4.70983 39.4954C4.7874 41.5493 5.37779 43.551 6.42699 45.3173C8.12212 47.9415 9.99337 50.4444 11.5674 53.1238C12.3973 54.5889 13.6112 55.7988 15.0779 56.6228C16.5446 57.4468 18.2082 57.8535 19.889 57.7989C24.8313 57.8871 29.7956 57.8871 34.6939 57.9092C35.066 57.8824 35.4346 57.8197 35.7946 57.7217C36.2019 55.4283 36.0588 44.7549 35.6295 43.6082L17.8856 43.5972Z" fill="black"/>
<path d="M36.1414 14.5988C37.2586 16.4975 38.2336 18.4767 39.0584 20.5199C38.0245 20.9888 37.0176 21.5153 36.0424 22.0967C35.1618 22.6811 33.9179 22.7693 33.2465 23.938C33.5534 24.0471 33.8706 24.1247 34.1931 24.1696C38.8933 24.1696 43.6044 24.2358 48.3045 24.1696C48.8513 24.105 49.3539 23.8374 49.7135 23.4198C50.495 22.5377 51.1665 21.5454 51.915 20.5861C54.0064 17.7634 56.0904 14.9333 58.1671 12.0959C58.3212 11.8864 58.2772 11.5336 58.3653 10.9933L52.1021 13.9373C51.8773 13.6433 51.6679 13.3378 51.4747 13.0221C50.5611 11.2028 49.7025 9.35038 48.7338 7.50901C48.397 6.8602 47.9372 6.28344 47.3799 5.811C45.4549 4.27217 43.0622 3.4395 40.5994 3.45138C37.6604 3.36317 34.6995 3.53958 31.7935 3.37419C30.2357 3.25029 28.6741 3.56194 27.2826 4.27444C25.8911 4.98695 24.7244 6.07238 23.9123 7.40981C21.3475 11.1587 18.8489 14.9407 16.3392 18.7227C15.8659 19.4284 15.4586 20.1671 14.8862 21.1374L26.7962 29.0101C29.9333 24.2026 32.9603 19.5055 36.1414 14.5988Z" fill="black"/>
<path d="M64.8256 36.4855C62.9654 33.2438 61.1932 29.947 59.3219 26.6943C58.6064 25.4262 57.8469 24.1913 57.0104 22.791C52.7615 25.0845 48.6998 27.3668 44.5611 29.8257C45.6618 31.645 46.5314 33.2658 47.467 34.8757C48.4026 36.4855 49.5144 38.1836 50.384 39.8706C51.3994 41.4582 52.3006 43.1164 53.0808 44.8323C50.9259 44.9223 48.7675 44.8707 46.6194 44.678C46.3002 42.3735 46.8066 40.2675 46.2672 37.8748C45.9843 38.1289 45.7263 38.4094 45.4967 38.7128C43.2952 42.8917 41.1928 47.0816 39.0244 51.2606C38.8906 51.5063 38.8261 51.7839 38.8378 52.0636C38.8494 52.3433 38.9367 52.6145 39.0904 52.8483C41.0717 56.8619 43.02 60.8974 45.0124 64.911C45.2105 65.3079 45.3536 65.9144 46.2232 65.76C46.3222 63.643 46.4213 61.5149 46.5314 59.1443C48.898 59.1443 51.0444 59.0561 53.1358 59.1443C54.4427 59.2525 55.7464 58.9016 56.8233 58.1519C58.877 56.738 60.5578 54.8462 61.7215 52.6388C63.1892 49.9558 64.5504 47.225 65.8052 44.4464C66.1933 43.4506 66.3586 42.3817 66.2896 41.315C66.2156 39.6073 65.712 37.9461 64.8256 36.4855Z" fill="black"/>
</svg>
