<svg width="61" height="62" viewBox="0 0 61 62" fill="none" xmlns="http://www.w3.org/2000/svg">
<path d="M29.3418 4.6588V3.98061L28.6939 4.18116C26.0026 5.01426 23.4237 7.49378 21.3228 11.4987C20.7765 12.5396 20.2693 13.6719 19.8162 14.8799L19.6148 15.4166L20.1739 15.5431C22.8489 16.1488 25.7559 16.5338 28.823 16.6493L29.3418 16.6689V16.1497V4.6588ZM16.4941 14.5201L16.9547 14.6718L17.1204 14.2161C17.6455 12.7725 18.2442 11.4201 18.8977 10.1664L18.8979 10.166C19.5337 8.94382 20.2678 7.77731 21.0929 6.67844L22.2034 5.19932L20.4989 5.91746C17.2451 7.28834 14.2896 9.29779 11.8014 11.8304L11.3264 12.3139L11.9285 12.6251C13.3119 13.3399 14.8404 13.9751 16.4941 14.5201ZM13.8755 29.6465H14.3593L14.3753 29.163C14.5091 25.1191 15.0741 21.2793 15.9939 17.8065L16.115 17.3492L15.6651 17.203C13.6653 16.5528 11.7295 15.714 9.88291 14.6975L9.49807 14.4857L9.23845 14.8401C6.19551 18.9937 4.38999 23.9474 4.03547 29.1122L3.9988 29.6465H4.5343H13.8718H13.8755ZM19.2401 18.2097L18.7641 18.0977L18.6415 18.5711C17.7482 22.022 17.2397 25.5641 17.1258 29.1305L17.1093 29.6465H17.6255H28.8418H29.3418V29.1465V19.9622V19.4786L28.8585 19.4625C25.4777 19.3491 22.2368 18.9148 19.2401 18.2097ZM32.5745 19.4587L32.0918 19.4754V19.9584V29.1465V29.6465H32.5918H43.8043H44.3203L44.3041 29.1307C44.1914 25.5644 43.6842 22.0223 42.7921 18.5713L42.6697 18.0977L42.1935 18.2097C39.1975 18.9147 35.9565 19.3415 32.5745 19.4587ZM17.6293 32.459H17.1116L17.1296 32.9764C17.2621 36.7746 17.7959 40.346 18.6423 43.5372L18.7663 44.0051L19.238 43.8962C22.3977 43.1672 25.6191 42.7489 28.8575 42.6469L29.3418 42.6316V42.1471V32.959V32.459H28.8418H17.6293ZM32.5918 32.459H32.0918V32.959V42.1433V42.6268L32.575 42.643C35.9559 42.7563 39.1968 43.1906 42.1935 43.8958L42.6667 44.0071L42.7913 43.5372C43.6377 40.346 44.1715 36.7747 44.3077 32.9769L44.3263 32.459H43.808H32.5918ZM20.1739 46.5623L19.6132 46.6893L19.8166 47.2269C20.273 48.4331 20.7761 49.5651 21.3228 50.6068C23.4241 54.6124 26.0067 57.0871 28.6931 57.924L29.3418 58.1261V57.4467V45.9596V45.4404L28.823 45.46C25.7563 45.5754 22.8493 45.9566 20.1739 46.5623ZM20.5027 56.188L22.2101 56.9074L21.0964 55.4267C20.2701 54.3281 19.5348 53.1618 18.898 51.9396C18.2175 50.6303 17.6237 49.2762 17.1207 47.8863L16.9558 47.4307L16.4953 47.5812C14.9278 48.0933 13.4017 48.728 11.9306 49.4793L11.324 49.7892L11.8014 50.275C14.2898 52.8078 17.249 54.8172 20.5027 56.188ZM15.6672 44.9018L16.1124 44.7549L15.9945 44.3012C15.0303 40.5907 14.4858 36.7803 14.3716 32.9441L14.3571 32.459H13.8718H4.5343H3.99882L4.03547 32.9932C4.38978 38.1582 6.19532 43.1119 9.23847 47.2654L9.49961 47.6219L9.88546 47.4065C11.6175 46.4399 13.5567 45.5982 15.6672 44.9018ZM40.3408 55.427L39.2297 56.9063L40.9347 56.188C44.1869 54.8179 47.141 52.8098 49.6284 50.2789L50.1058 49.7932L49.4994 49.4832C48.0295 48.732 46.5047 48.0973 44.9385 47.5851L44.478 47.4345L44.313 47.89C43.8098 49.2785 43.2161 50.6314 42.5357 51.9395L42.5357 51.9395C41.9001 53.1618 41.1659 54.3283 40.3408 55.427ZM32.6088 45.4561L32.0918 45.4385V45.9558V57.4467V58.1249L32.7397 57.9243C35.4309 57.0912 38.0098 54.6117 40.1108 50.6068C40.6571 49.5659 41.1642 48.4336 41.6174 47.2256L41.8195 46.6871L41.2581 46.562C38.4144 45.928 35.5193 45.5553 32.6088 45.4561ZM45.4391 44.3012L45.3212 44.7549L45.7664 44.9018C47.8769 45.5982 49.8161 46.4399 51.5481 47.4065L51.934 47.6219L52.1951 47.2654C55.2383 43.1119 57.0438 38.1582 57.3981 32.9932L57.4348 32.459H56.8993H47.5618H47.0765L47.062 32.9441C46.9478 36.7803 46.4033 40.5907 45.4391 44.3012ZM56.8993 29.6465H57.4348L57.3981 29.1123C57.0438 23.9473 55.2383 18.9936 52.1951 14.84L51.934 14.4836L51.5481 14.6989C49.8161 15.6655 47.8769 16.5072 45.7664 17.2037L45.319 17.3513L45.4397 17.8066C46.3595 21.2755 46.9245 25.1192 47.0621 29.1635L47.0785 29.6465H47.5618H56.8993ZM44.3173 14.2171L44.4834 14.6706L44.9424 14.5204C46.5073 14.008 48.0309 13.3734 49.4995 12.6222L50.1059 12.312L49.6283 11.8264C47.1405 9.297 44.1864 7.29024 40.9346 5.92122L39.2158 5.19763L40.342 6.684C41.141 7.73849 41.8765 8.91174 42.5363 10.1671C43.1897 11.4207 43.7884 12.7731 44.3173 14.2171ZM41.2597 15.5431L41.8184 15.4167L41.6176 14.8802C41.1844 13.7231 40.6814 12.5942 40.1115 11.5L40.1108 11.4987C38.0096 7.4933 35.4308 5.01829 32.7403 4.18136L32.0918 3.97963V4.6588V16.1459V16.665L32.6106 16.6455C35.6773 16.53 38.5843 16.1489 41.2597 15.5431ZM1.2168 31.0527C1.2168 23.0936 4.3268 15.4621 9.86006 9.8366C15.393 4.2114 22.8956 1.05273 30.7168 1.05273C38.538 1.05273 46.0406 4.2114 51.5735 9.8366C57.1068 15.4621 60.2168 23.0936 60.2168 31.0527C60.2168 39.0119 57.1068 46.6434 51.5735 52.2689C46.0406 57.8941 38.538 61.0527 30.7168 61.0527C22.8956 61.0527 15.393 57.8941 9.86006 52.2689C4.3268 46.6434 1.2168 39.0119 1.2168 31.0527Z" fill="black" stroke="#F4F4F4"/>
</svg>
