<svg width="60" height="50" viewBox="0 0 60 50" fill="none" xmlns="http://www.w3.org/2000/svg">
<path d="M16.8528 1.70949L16.8539 1.70939C21.1393 1.28084 26.0621 1.61401 29.7168 4.32324C33.3713 1.61379 38.2938 1.2775 42.5805 1.70947L42.5808 1.70949C47.9214 2.2492 53.2812 4.07233 56.6236 5.59259C57.0986 5.80861 57.5014 6.15674 57.7839 6.59544C58.0664 7.03414 58.2167 7.54486 58.2168 8.06665V8.06693V45.8794V45.8797C58.2167 46.3346 58.1024 46.7822 57.8845 47.1815C57.6665 47.5808 57.3519 47.919 56.9694 48.1652L56.4282 47.3243L56.9694 48.1652C56.5868 48.4114 56.1487 48.5576 55.695 48.5906L55.6225 47.5932L55.695 48.5906C55.2413 48.6235 54.7866 48.5421 54.3725 48.3538C51.4132 47.0102 46.6326 45.3962 42.0327 44.9322C37.2707 44.4519 33.6787 45.2797 31.8378 47.5772L31.8374 47.5777C31.5827 47.8952 31.2599 48.1515 30.8928 48.3276C30.5258 48.5037 30.1239 48.5951 29.7168 48.5951C29.3097 48.5951 28.9078 48.5037 28.5408 48.3276C28.1737 48.1515 27.8509 47.8952 27.5962 47.5777L27.5958 47.5772C25.7549 45.2798 22.1631 44.4519 17.3975 44.9322C12.8014 45.3961 8.0244 47.01 5.06111 48.3538L16.8528 1.70949ZM16.8528 1.70949C11.5122 2.2492 6.15244 4.07233 2.80997 5.5926C2.33501 5.80861 1.93224 6.15674 1.64974 6.59544C1.36723 7.03414 1.21694 7.54486 1.2168 8.06665V8.06693M16.8528 1.70949L1.2168 8.06693M1.2168 8.06693V45.8794L1.2168 45.8797M1.2168 8.06693L1.2168 45.8797M1.2168 45.8797C1.21692 46.3346 1.33119 46.7822 1.54912 47.1815C1.76706 47.5808 2.08169 47.919 2.46421 48.1652L2.46422 48.1652M1.2168 45.8797L2.46422 48.1652M2.46422 48.1652C2.84674 48.4114 3.28492 48.5576 3.73861 48.5906L3.81105 47.5932M2.46422 48.1652L3.81105 47.5932M3.81105 47.5932L3.73863 48.5906C4.19227 48.6235 4.64693 48.5421 5.06097 48.3538L3.81105 47.5932Z" stroke="black" stroke-width="2"/>
</svg>
